<svg xmlns="http://www.w3.org/2000/svg" width="150" height="150" viewBox="0 0 150 150"><defs><style>.a{fill:#512da8;}</style></defs><path class="a" d="M23.231,93.0862V56.6335h10.55c6.8008,0,12.0508,1.55,15.4014,4.4,3.25,3,5,7.65,5,13.8008,0,6.2007-1.7,10.8511-5.05,13.8511-3.35,2.95-8.4507,4.4-15.3511,4.4Zm6.75-30.7525V82.5354h4.75c4.55,0,7.65-.6006,9.3506-1.75a11.4624,11.4624,0,0,0,3.55-6.501c0-4-1-7.0005-3.15-9.0005-2.1-2-5.35-2.95-9.7505-2.95Z"/><path class="a" d="M59.2911,81.0237l.12-2.8613h2.2l.12,2.8613Zm.02,12.0625.1-10.9424h2.22l.08,10.9424Z"/><path class="a" d="M74.3331,81.7434a10.4469,10.4469,0,0,0-4.2212-1.22c-1.8,0-2.82.68-2.82,1.9a1.3319,1.3319,0,0,0,.42,1.1,4.3574,4.3574,0,0,0,1.92.6806l1.14.22h-.02c3.001.58,4.4014,2,4.4014,4.4814,0,2.92-1.941,4.461-5.6817,4.461a14.098,14.098,0,0,1-4.7407-1.001v-3.86a10.0589,10.0589,0,0,0,4.7407,1.58,3.878,3.878,0,0,0,2.2808-.58c.48-.34.7-.64.7-.94a1.3543,1.3543,0,0,0-.5-.86,4.79,4.79,0,0,0-1.88-.76l-1.14-.22c-2.94-.5606-4.2608-1.8409-4.2608-4.1416,0-2.7,2.0406-4.3409,5.2212-4.3409a14.1991,14.1991,0,0,1,4.441.82Z"/><path class="a" d="M79.2383,93.0862l.36-26.2412h4.6787l-.1436,19.7256H96.3l-.3956,6.5156Z"/><path class="a" d="M115.6661,86.1243l-4.3213-7.7217h2.86l3.2412,5.5215,3.24-5.5215h2.8808l-4.48,7.7422,4.8408,6.8408h-3.961l-2.6806-4.5811-2.6807,4.5811H110.625Z"/><path class="a" d="M99.501,93.0354v-3.62h7.042V86.4338H99.962v-2.3h6.581V80.7727H99.6612v-2.32h9.5019v14.583Z"/></svg>