<?xml version="1.0"?>
<svg xmlns="http://www.w3.org/2000/svg" viewBox="0 0 64 64" width="512" height="512"><g id="_22-pig" data-name="22-pig"><path d="M12,60l9.63-2.89c.2.29.41.59.62.88A3.949,3.949,0,0,1,23,60.32V63H16a3.952,3.952,0,0,1-2.73-1.26,8.51,8.51,0,0,1-1.33-1.7Z" style="fill:#414952"/><path d="M28.37,57.11l9.38,2.82a10.81,10.81,0,0,1-.72,1.12A4.013,4.013,0,0,1,34,63H27V60.32a3.949,3.949,0,0,1,.75-2.33C27.96,57.7,28.17,57.4,28.37,57.11Z" style="fill:#414952"/><path d="M11.94,60.04a8.51,8.51,0,0,0,1.33,1.7L13,62c-1,1-4,1-6,1V54a4.347,4.347,0,0,0,2.93,1A18.445,18.445,0,0,0,11.94,60.04Z" style="fill:#ffc6c2"/><path d="M7,54v9H3a2.006,2.006,0,0,1-2-2V54a3,3,0,0,1,6,0Z" style="fill:#414952"/><path d="M48,54v9H44a2.006,2.006,0,0,1-2-2V54a3,3,0,0,1,6,0Z" style="fill:#414952"/><path d="M45.73,4.85A32.412,32.412,0,0,1,54,4c-2,1-8,2.92-8,9L42,7S42.42,5.74,45.73,4.85Z" style="fill:#fc979e"/><path d="M8,4a30.2,30.2,0,0,1,9,1l.01.01a14.855,14.855,0,0,0-1.6,1.27,15.144,15.144,0,0,0-1.53,1.59C11.96,5.65,9.27,4.64,8,4Z" style="fill:#fc979e"/><path d="M11.27,12.68c-.04.13-.08.25-.12.37L11,13C8.15,10.47,8,4,8,4c1.27.64,3.96,1.65,5.88,3.87A14.41,14.41,0,0,0,11.27,12.68Z" style="fill:#e35f77"/><path d="M52.33,10.36C51.42,12.33,50.04,14,48,14l-2-1c0-6.08,6-8,8-9A23.043,23.043,0,0,1,52.33,10.36Z" style="fill:#e35f77"/><path d="M23,18c4.97,0,9,2.24,9,5s-4.03,5-9,5-9-2.24-9-5S18.03,18,23,18Zm3.45,5.45c.49-.5.69-1.1.44-1.34s-.84-.05-1.34.44-.69,1.1-.44,1.34S25.95,23.94,26.45,23.45Zm-5.56.44c.25-.24.05-.84-.44-1.34s-1.1-.69-1.34-.44-.05.84.44,1.34S20.65,24.14,20.89,23.89Z" style="fill:#fc979e"/><path d="M21.63,57.11,12,60l-.06.04A18.445,18.445,0,0,1,9.93,55,33.22,33.22,0,0,1,9,47c0-3.87.89-10,2-10l.06-.09C7.19,34.35,5,30.27,5,25c0-3.32,2-6,5-8,0,0,.46-1.82,1.15-3.95.04-.12.08-.24.12-.37a14.41,14.41,0,0,1,2.61-4.81,15.144,15.144,0,0,1,1.53-1.59,14.855,14.855,0,0,1,1.6-1.27A19.46,19.46,0,0,1,23.92,1.9,27.684,27.684,0,0,1,30,1,32.381,32.381,0,0,1,45.73,4.85C42.42,5.74,42,7,42,7l4,6,2,1c2.04,0,3.42-1.67,4.33-3.64C59.36,17.77,63,28.73,63,40c0,18-2.84,23-15,23V54a3,3,0,0,0-6,0v7a2.006,2.006,0,0,0,2,2c-3.84,0-5.96,0-6.97-1.95a10.81,10.81,0,0,0,.72-1.12l-9.38-2.82c-.2.29-.41.59-.62.88A3.949,3.949,0,0,0,27,60.32V61a2.837,2.837,0,0,0-4,0v-.68a3.949,3.949,0,0,0-.75-2.33C22.04,57.7,21.83,57.4,21.63,57.11ZM32,23c0-2.76-4.03-5-9-5s-9,2.24-9,5,4.03,5,9,5S32,25.76,32,23Z" style="fill:#ffc6c2"/><path d="M53,57c-2,0-5-3-5-3v9a26.29,26.29,0,0,0,5.5-.495C54.587,58.6,53,57,53,57Z" style="fill:#ffd7d1"/><path d="M23,28c-4.353,0-7.985-1.719-8.819-4A2.9,2.9,0,0,0,14,25c0,2.76,4.03,5,9,5s9-2.24,9-5a2.9,2.9,0,0,0-.181-1C30.985,26.281,27.353,28,23,28Z" style="fill:#ffa8ad"/><ellipse cx="20" cy="23" rx="0.636" ry="1.259" transform="translate(-10.406 20.879) rotate(-45)" style="fill:#333940"/><ellipse cx="26" cy="23" rx="1.259" ry="0.636" transform="translate(-8.648 25.121) rotate(-45)" style="fill:#333940"/><path d="M11.25,58.741A23.818,23.818,0,0,1,7,59v4c2,0,5,0,6-1l.27-.26a8.51,8.51,0,0,1-1.33-1.7A13.377,13.377,0,0,1,11.25,58.741Z" style="fill:#ffa8ad"/><path d="M3,58V51.183A2.986,2.986,0,0,0,1,54v7a2.006,2.006,0,0,0,2,2H7V60H5A2.006,2.006,0,0,1,3,58Z" style="fill:#333940"/><path d="M44,61V54a2.987,2.987,0,0,1,2-2.816A2.944,2.944,0,0,0,45,51a3,3,0,0,0-3,3v7a2.006,2.006,0,0,0,2,2h2A2.006,2.006,0,0,1,44,61Z" style="fill:#333940"/><path d="M17,5a16.489,16.489,0,0,0-2.541-.583c-.359.273-.711.558-1.049.863-.4.368-.766.74-1.109,1.118A10.5,10.5,0,0,1,13.88,7.87a15.144,15.144,0,0,1,1.53-1.59,14.855,14.855,0,0,1,1.6-1.27Z" style="fill:#ff808c"/><path d="M8,4s.022.858.183,2.066A14.805,14.805,0,0,1,10.5,7.556a2.018,2.018,0,0,1,.392,2.667,14.612,14.612,0,0,0-.875,1.609A5.667,5.667,0,0,0,11,13l.15.05c.04-.12.08-.24.12-.37a14.41,14.41,0,0,1,2.61-4.81C11.96,5.65,9.27,4.64,8,4Z" style="fill:#bd3b57"/><path d="M53.388,7.286A24.952,24.952,0,0,0,54,4c-2,1-8,2.92-8,9l.485.242C47.79,9.712,51.444,8.165,53.388,7.286Z" style="fill:#bd3b57"/><path d="M23.089,18c.045,0,.09,0,.136,0,3.307.214,5.887,1.951,5.763,3.879s-2.907,3.32-6.213,3.107-5.887-1.951-5.763-3.879c.091-1.4,1.585-2.513,3.66-2.939C16.832,18.746,14,20.688,14,23c0,2.76,4.03,5,9,5s9-2.24,9-5C32,20.257,28.017,18.029,23.089,18Z" style="fill:#ff808c"/><path d="M43.613,5.633C42.227,6.336,42,7,42,7l4,6a7.546,7.546,0,0,1,1.939-5.176A7.06,7.06,0,0,1,43.613,5.633Z" style="fill:#ff808c"/><path d="M27.267,58.906A4.015,4.015,0,0,0,27,60.32V63h7a3.249,3.249,0,0,0,2.2-1.016C31.814,61.845,28.235,60.578,27.267,58.906Z" style="fill:#333940"/><path d="M22.733,58.906A4.015,4.015,0,0,1,23,60.32V63H16a3.249,3.249,0,0,1-2.2-1.016C18.186,61.845,21.765,60.578,22.733,58.906Z" style="fill:#333940"/><path d="M42,7s.184-.534,1.22-1.152a7.665,7.665,0,0,1,1.009-.5l.077-.031c.164-.065.341-.131.529-.2L45,5.068c.226-.074.464-.148.726-.218A32.381,32.381,0,0,0,30,1a27.684,27.684,0,0,0-6.08.9c-.537.128-1.067.284-1.591.455-.2.065-.4.136-.6.207l-.886.345c-.254.1-.508.206-.757.321q-.63.293-1.238.628A18.077,18.077,0,0,0,17.01,5.01a14.855,14.855,0,0,0-1.6,1.27,15.144,15.144,0,0,0-1.53,1.59,14.41,14.41,0,0,0-2.61,4.81c-.04.13-.08.25-.12.37C10.46,15.18,10,17,10,17c-3,2-5,4.68-5,8a14.034,14.034,0,0,0,3.446,9.667A15.14,15.14,0,0,1,7,28c0-3.32,2-6,5-8,0,0,.46-1.82,1.15-3.95.04-.12.08-.24.12-.37a14.41,14.41,0,0,1,2.61-4.81,15.144,15.144,0,0,1,1.53-1.59,14.855,14.855,0,0,1,1.6-1.27A19.46,19.46,0,0,1,25.92,4.9l.032-.008A15.724,15.724,0,0,1,32.7,4.773,30.194,30.194,0,0,1,43.146,8.72Z" style="fill:#ffe4e0"/><path d="M63,40c0-11.27-3.64-22.23-10.67-29.64-.78,1.688-1.908,3.148-3.5,3.533,8.408,10.937,6.4,29.364,6.186,48.2C61.317,59.986,63,53.836,63,40Z" style="fill:#ffd7d1"/><path d="M63,40c0-11.27-3.64-22.23-10.67-29.64a8.31,8.31,0,0,1-1.621,2.424C57.485,20.185,61,30.939,61,42c0,9.415-.784,15.265-3.267,18.71C61.809,57.762,63,51.579,63,40Z" style="fill:#ffe4e0"/><path d="M53.722,61.542C54.316,58.341,53,57,53,57c-2,0-5-3-5-3v3s3,3,5,3A3.465,3.465,0,0,1,53.722,61.542Z" style="fill:#ffe4e0"/><path d="M44,28c0,5.53-2,12-21,12-4.85,0-8.91-1.08-11.94-3.09L11,37c-.774,0-1.44,2.982-1.773,6.1C11.991,44.567,16.3,45.709,23,46q.826.036,1.606.035a3,3,0,0,1,2.94,3.6,20.268,20.268,0,0,1-3.176,7.48c-.2.291-.411.591-.621.882A3.959,3.959,0,0,0,23,60.32V61a2.837,2.837,0,0,1,4,0v-.68a3.959,3.959,0,0,1,.749-2.328c.21-.291.421-.591.621-.882a20.547,20.547,0,0,0,3.624-11.944C45.426,41.563,44,28,44,28Z" style="fill:#ffa8ad"/><path d="M21.63,57.11A20.571,20.571,0,0,1,18,45a10.826,10.826,0,0,0-7-8c-1.11,0-2,6.13-2,10a33.22,33.22,0,0,0,.93,8,18.445,18.445,0,0,0,2.01,5.04L12,60Z" style="fill:#ffd7d1"/><path d="M12,47a32.485,32.485,0,0,1,1.211-8.958A10.371,10.371,0,0,0,11,37c-1.11,0-2,6.13-2,10a33.22,33.22,0,0,0,.93,8,18.445,18.445,0,0,0,2.01,5.04L12,60l2.5-.752A19.934,19.934,0,0,1,12.93,55,33.22,33.22,0,0,1,12,47Z" style="fill:#ffe4e0"/><path d="M41,45V41c-5-4-9,4-9,4a20.571,20.571,0,0,1-3.63,12.11l9.38,2.82C39.71,56.5,41,50.69,41,45Z" style="fill:#ffc6c2"/><path d="M42,61V54a2.984,2.984,0,0,1,1.5-2.584,2.919,2.919,0,0,0-3.03.016A31.975,31.975,0,0,1,39,57.163V61a2,2,0,0,0,1.407,1.9c.982.1,2.168.1,3.593.1A2.006,2.006,0,0,1,42,61Z" style="fill:#ffa8ad"/><path d="M37,40.056V44c0,5.6-1.253,11.305-3.161,14.754L37.75,59.93C39.71,56.5,41,50.69,41,45V41A4.2,4.2,0,0,0,37,40.056Z" style="fill:#ffd7d1"/><path d="M46,13,42,7s-2,5,1,9c2.457,3.275,5.582-.823,6.634-2.416A3.491,3.491,0,0,1,48,14Z" style="fill:#ffa8ad"/><ellipse cx="57.26" cy="42.8" rx="1.642" ry="2.286" transform="translate(-13.49 53.049) rotate(-45.02)" style="fill:#f6fafd"/><ellipse cx="57.258" cy="46.814" rx="0.825" ry="1.148" transform="translate(-16.329 54.224) rotate(-45.02)" style="fill:#f6fafd"/><path d="M53.5,10.171A24.63,24.63,0,0,0,55,4.1,1,1,0,0,0,54,3a35.109,35.109,0,0,0-8.145.79A33.719,33.719,0,0,0,30,0a28.8,28.8,0,0,0-6.312.928,20.383,20.383,0,0,0-6.831,2.99A33.622,33.622,0,0,0,8,3,1,1,0,0,0,7,4.023c.007.272.191,6.42,2.991,9.373-.411,1.316-.718,2.435-.864,2.99C5.771,18.728,4,21.7,4,25A14.578,14.578,0,0,0,9.607,37.066C8.054,39.809,8,46.911,8,47a35.515,35.515,0,0,0,.649,6.791,3.132,3.132,0,0,1-.7-.326A3.971,3.971,0,0,0,4,50a4,4,0,0,0-4,4v7a3,3,0,0,0,3,3H7c2.651,0,4.964-.085,6.279-.958A4.568,4.568,0,0,0,16,64h7a1,1,0,0,0,1-1V61.475a1.918,1.918,0,0,1,2,0V63a1,1,0,0,0,1,1h7a4.245,4.245,0,0,0,2.976-1.37C38.425,64,40.762,64,44,64h4c12.561,0,16-5.159,16-24C64,28.329,60.182,17.517,53.5,10.171Zm-2.08-.231c-.886,1.919-1.963,2.944-3.2,3.051l-1.2-.6c.3-3.8,3.366-5.607,5.7-6.706A19.37,19.37,0,0,1,51.422,9.94Zm-6.026.351-2.16-3.239A7.156,7.156,0,0,1,45.99,5.815a22.378,22.378,0,0,1,3.483-.607A9.573,9.573,0,0,0,45.4,10.291Zm-34.609.85A14.688,14.688,0,0,1,9.138,5.653a13.438,13.438,0,0,1,3.433,2.292A15.013,15.013,0,0,0,10.787,11.141ZM13.849,6.4a12.849,12.849,0,0,0-1.557-1.236c.923.079,1.756.188,2.5.325-.02.018-.039.032-.06.05C14.414,5.835,14.12,6.121,13.849,6.4ZM11.784,61.571A13.68,13.68,0,0,1,8,61.994V55.671a5.983,5.983,0,0,0,1.161.271,18.536,18.536,0,0,0,1.926,4.62A10.945,10.945,0,0,0,11.784,61.571ZM6,62H3a1,1,0,0,1-1-1V54a2,2,0,0,1,4,0Zm16,0H16a3,3,0,0,1-2.038-.981c-.134-.129-.265-.29-.4-.444l7.663-2.3c.072.1.142.2.215.3A2.96,2.96,0,0,1,22,60.32Zm12,0H28V60.32a2.968,2.968,0,0,1,.56-1.744c.071-.1.141-.2.211-.3L36.188,60.5A3.21,3.21,0,0,1,34,62Zm4.224-.961c.131-.2.272-.4.394-.613a24.814,24.814,0,0,0,2.405-6.653c0,.077-.023.149-.023.227v7a2.945,2.945,0,0,0,.168.947C39.674,61.864,38.766,61.644,38.224,61.039ZM47,62H44a1,1,0,0,1-1-1V54a2,2,0,0,1,4,0Zm2-.012v-5.8A7.541,7.541,0,0,0,53,58V56c-1.017,0-2.885-1.375-4.046-2.473A3.968,3.968,0,0,0,45,50a4,4,0,0,0-3.723,2.564A40.606,40.606,0,0,0,42,45H40a33,33,0,0,1-2.764,13.727l-7.325-2.2A21.673,21.673,0,0,0,33,45H31a19.527,19.527,0,0,1-3.453,11.542c-.2.284-.4.578-.6.857a4.941,4.941,0,0,0-.838,1.955,3.833,3.833,0,0,0-2.21,0,4.91,4.91,0,0,0-.835-1.95c-.206-.284-.412-.578-.6-.851A19.541,19.541,0,0,1,19,45H17a21.689,21.689,0,0,0,3.089,11.529l-7.674,2.3A18.725,18.725,0,0,1,10.9,54.757,32.485,32.485,0,0,1,10,47a29.8,29.8,0,0,1,1.225-8.827A23.164,23.164,0,0,0,23,41c19.5,0,22-6.947,22-13H43c0,3.57,0,11-20,11a20.615,20.615,0,0,1-11.389-2.924C7.94,33.646,6,29.816,6,25c0-2.741,1.532-5.153,4.555-7.168a1,1,0,0,0,.415-.587c0-.017.461-1.816,1.129-3.879.044-.13.087-.259.118-.367a13.494,13.494,0,0,1,2.436-4.5A14.245,14.245,0,0,1,16.08,7.022,13.954,13.954,0,0,1,17.6,5.82a18.348,18.348,0,0,1,6.562-2.948A26.909,26.909,0,0,1,30,2,32.541,32.541,0,0,1,43.213,4.711c-1.634.812-2.06,1.667-2.161,1.973a1,1,0,0,0,.116.871l4,6a1,1,0,0,0,.391.342l1.994,1A1,1,0,0,0,48,15c1.29,0,3.041-.547,4.532-2.915C58.561,19.035,62,29.113,62,40,62,57.351,59.536,61.74,49,61.988Z"/><path d="M23,17c-5.607,0-10,2.636-10,6s4.393,6,10,6,10-2.636,10-6S28.607,17,23,17Zm0,10c-4.715,0-8-2.108-8-4s3.285-4,8-4,8,2.108,8,4S27.715,27,23,27Z"/><path d="M32.623,13H32.6a2.633,2.633,0,0,0-1.762.848A2.6,2.6,0,0,0,30,15.623a1.354,1.354,0,0,0,.385.958,1.379,1.379,0,0,0,.989.416H31.4a2.616,2.616,0,0,0,1.748-.834l.014-.014A2.6,2.6,0,0,0,34,14.377a1.354,1.354,0,0,0-.385-.958A1.379,1.379,0,0,0,32.623,13Z"/><path d="M14.85,16.164A2.616,2.616,0,0,0,16.6,17h.025a1.354,1.354,0,0,0,.958-.385A1.379,1.379,0,0,0,18,15.623a2.611,2.611,0,0,0-.847-1.787A2.616,2.616,0,0,0,15.4,13h-.025a1.354,1.354,0,0,0-.958.385,1.379,1.379,0,0,0-.416.989,2.6,2.6,0,0,0,.833,1.773Z"/><path d="M26.623,21H26.6a2.633,2.633,0,0,0-1.762.848A2.6,2.6,0,0,0,24,23.623a1.354,1.354,0,0,0,.385.958,1.379,1.379,0,0,0,.989.416H25.4a2.616,2.616,0,0,0,1.748-.834l.014-.014A2.6,2.6,0,0,0,28,22.377a1.354,1.354,0,0,0-.385-.958A1.379,1.379,0,0,0,26.623,21Z"/><path d="M19.4,21h-.025a1.354,1.354,0,0,0-.958.385,1.379,1.379,0,0,0-.416.989,2.6,2.6,0,0,0,.833,1.773l.014.014A2.616,2.616,0,0,0,20.6,25h.025a1.354,1.354,0,0,0,.958-.385A1.379,1.379,0,0,0,22,23.623,2.922,2.922,0,0,0,19.4,21Z"/></g></svg>
