<svg height="512" viewBox="0 0 53 60" width="512" xmlns="http://www.w3.org/2000/svg"><g id="Page-1" fill="none" fill-rule="evenodd"><g id="045---Winking-Chick" fill-rule="nonzero"><g id="Icons" transform="translate(1 5)"><path id="Shape" d="m47 25c0 17-11 24-27 24s-21-9-19-13 3-5 3-17 11-19 21-19c10.17 0 17.89 4.89 20.77 15.15.6782208 2.4804961 1.0707673 5.0303702 1.17 7.6.04.73.06 1.48.06 2.25z" fill="#ffdc00"/><path id="Shape" d="m46.94 22.75c-.0992327-2.5696298-.4917792-5.1195039-1.17-7.6-2.88-10.26-10.6-15.15-20.77-15.15-.46 0-.923.02-1.387.049 9.369.5 16.432 5.392 19.157 15.1.6782208 2.4804961 1.0707673 5.0303702 1.17 7.6.04.7306667.06 1.481.06 2.251 0 16.432-10.278 23.519-25.413 23.975.4606667.0166667.9316667.025 1.413.025 16 0 27-7 27-24 0-.77-.02-1.52-.06-2.25z" fill="#fec108"/><path id="Shape" d="m46.94 22.75c-.0992327-2.5696298-.4917792-5.1195039-1.17-7.6 1.55-.26 4.03-.37 5 1.39.94 1.71-1.77 5.24-3.83 6.21z" fill="#ff9801"/><path id="Shape" d="m50.77 16.54c-.97-1.76-3.45-1.65-5-1.39v.009c.8367142.1452886 1.5676972.6500323 2 1.381.514.935-.067 2.414-1.033 3.722.09.807.163 1.631.2 2.488 2.063-.97 4.773-4.5 3.833-6.21z" fill="#f57c00"/><path id="Shape" d="m21 21h-1c-.5522847 0-1-.4477153-1-1s.4477153-1 1-1h1c.5522847 0 1 .4477153 1 1s-.4477153 1-1 1z" fill="#e91e63"/><path id="Shape" d="m43 19h-1c-.5522847 0-1-.4477153-1-1s.4477153-1 1-1h1c.5522847 0 1 .4477153 1 1s-.4477153 1-1 1z" fill="#e91e63"/><circle id="Oval" cx="24" cy="15" fill="#02a9f4" r="2"/></g><g id="Icons_copy" fill="#000"><path id="Shape" d="m47.486 19.056c-2.8-8.969-9.41-14.223-19.1-14.957.4000522-.62706708.6130428-1.35518957.614-2.099 0-.55228475-.4477153-1-1-1s-1 .44771525-1 1c-.0002096.24308268-.0474088.48383276-.139.709-.5017584-1.05554355-1.3039473-1.93948192-2.306-2.541-.4595009-.30651802-1.080482-.18250089-1.387.27700001-.306518.45950091-.1825009 1.08048195.277 1.38699999.2476786.163259.4835917.34370246.706.54-.6953938-.22673939-1.4198472-.35202841-2.151-.372-.5522847 0-1 .44771525-1 1s.4477153 1 1 1c.4003302.01779561.7979254.07507344 1.187.171-9.857 1.168-19.187 8.396-19.187 19.829 0 10.87-.823 12.483-2.462 15.7l-.433.854c-.917 1.835-.617 4.3.8 6.6 1.383 2.232 5.745 7.256 17.095 7.792v3.054c.0000121.4586794.3120689.8585409.757.97l4 1c.0795104.0196732.1610923.029745.243.03.5047125-.0005564.929899-.377126.9914367-.8780733.0615377-.5009472-.259865-.9692298-.7494367-1.0919267l-3.242-.811v-2.219c3.3928242.0315495 6.7772293-.3431153 10.081-1.116l.99 2.486c.1514925.380382.5195609.629987.929.63h4c.5522847 0 1-.4477153 1-1s-.4477153-1-1-1h-3.322l-.656-1.649c10.395-3.259 15.978-11.272 15.978-23.351 0-.572-.034-1.115-.054-1.67 1.7298363-1.1275955 3.0596643-2.7723827 3.8-4.7.3334186-.8326343.2970604-1.7677669-.1-2.572-.846-1.54-2.664-2.232-5.16-2.002zm-26.486 33.944c-12.181 0-16.39-5.279-17.39-6.9-1.038-1.676-1.31-3.46-.71-4.653l.424-.84c1.776-3.5 2.676-5.257 2.676-16.607 0-11.268 10.169-18 20-18 13.346 0 21 8.748 21 24 0 19.01-14.139 23-26 23zm29.84-29.987c-.4434033 1.1201509-1.1439106 2.1203861-2.045 2.92-.1461309-1.655369-.4084441-3.2984184-.785-4.917 1.109-.061 2.381.094 2.884 1.005.1038741.3261494.0846637.6790532-.054.992z"/><path id="Shape" d="m16.447 32.1c-.2373497-.1186659-.5121326-.1381283-.7638386-.0541012-.251706.084027-.4596935.2646527-.5781614.5021012-.7 1.409-2.257 3.253-3.658 2.552-.953-.476-.726-2.853-.476-3.864.1333768-.5359923-.1930077-1.0786232-.729-1.212-.53599235-.1333768-1.07862323.1930077-1.212.729-.122.488-1.118 4.816 1.523 6.137.4749795.2431023 1.0004304.3712109 1.534.374 1.979 0 3.791-1.79 4.808-3.822.1186659-.2373497.1381283-.5121326.0541012-.7638386-.084027-.251706-.2646527-.4596935-.5021012-.5781614z"/><path id="Shape" d="m37 19c0 .5522847.4477153 1 1 1s1-.4477153 1-1 .4477153-1 1-1 1 .4477153 1 1 .4477153 1 1 1 1-.4477153 1-1c0-1.6568542-1.3431458-3-3-3s-3 1.3431458-3 3z"/><path id="Shape" d="m34 19h-3c-.5522847 0-1 .4477153-1 1 0 1 .145 6 3 6 .5522847 0 1-.4477153 1-1s-.4477153-1-1-1c-.363 0-.815-1.354-.956-3h1.956c.5522847 0 1-.4477153 1-1s-.4477153-1-1-1z"/><path id="Shape" d="m25 17c-1.6568542 0-3 1.3431458-3 3s1.3431458 3 3 3 3-1.3431458 3-3-1.3431458-3-3-3zm0 4c-.5522847 0-1-.4477153-1-1s.4477153-1 1-1 1 .4477153 1 1-.4477153 1-1 1z"/></g></g></g></svg>