<svg height="512pt" viewBox="0 -19 512 512" width="512pt" xmlns="http://www.w3.org/2000/svg"><path d="m504.5 96.800781c0 36.945313-29.949219 66.894531-66.894531 66.894531-36.945313 0-66.894531-29.949218-66.894531-66.894531 0-36.941406 29.949218-66.894531 66.894531-66.894531 36.945312 0 66.894531 29.953125 66.894531 66.894531zm0 0" fill="#de8957"/><path d="m486.765625 142.15625c-12.375-30.175781-30.738281-57.886719-54.492187-81.640625-8.25-8.25-16.984376-15.832031-26.121094-22.757813-21.085938 11.257813-35.441406 33.46875-35.441406 59.042969 0 36.945313 29.949218 66.894531 66.894531 66.894531 19.441406 0 36.9375-8.300781 49.160156-21.539062zm0 0" fill="#c76d33"/><path d="m440.609375 120.640625c14.800781 0 26.84375-12.039063 26.84375-26.84375 0-14.800781-12.042969-26.84375-26.84375-26.84375s-26.84375 12.042969-26.84375 26.84375c0 14.804687 12.042969 26.84375 26.84375 26.84375zm0 0" fill="#f5d5c4"/><path d="m141.289062 96.800781c0 36.945313-29.949218 66.894531-66.894531 66.894531-36.945312 0-66.894531-29.949218-66.894531-66.894531 0-36.941406 29.949219-66.894531 66.894531-66.894531 36.945313 0 66.894531 29.953125 66.894531 66.894531zm0 0" fill="#de8957"/><path d="m25.234375 142.15625c12.222656 13.238281 29.71875 21.539062 49.160156 21.539062 36.945313 0 66.894531-29.949218 66.894531-66.894531 0-25.574219-14.355468-47.785156-35.441406-59.042969-9.140625 6.925782-17.875 14.507813-26.121094 22.757813-23.757812 23.753906-42.117187 51.464844-54.492187 81.640625zm0 0" fill="#c76d33"/><path d="m71.390625 120.640625c-14.800781 0-26.84375-12.039063-26.84375-26.84375 0-14.800781 12.042969-26.84375 26.84375-26.84375s26.84375 12.042969 26.84375 26.84375c0 14.804687-12.042969 26.84375-26.84375 26.84375zm0 0" fill="#f5d5c4"/><path d="m466.035156 102.382812c-8.011718-12.472656-17.195312-24.292968-27.488281-35.34375-13.84375 1.058594-24.78125 12.652344-24.78125 26.757813 0 14.804687 12.039063 26.84375 26.84375 26.84375 11.800781 0 21.839844-7.65625 25.425781-18.257813zm0 0" fill="#edb798"/><path d="m73.453125 67.039062c-10.292969 11.050782-19.476563 22.875-27.492187 35.34375 3.589843 10.601563 13.628906 18.257813 25.429687 18.257813 14.800781 0 26.84375-12.039063 26.84375-26.84375 0-14.105469-10.941406-25.699219-24.78125-26.757813zm0 0" fill="#edb798"/><path d="m485.289062 236.789062c0 126.632813-102.65625 229.285157-229.289062 229.285157s-229.289062-102.652344-229.289062-229.285157c0-126.632812 102.65625-229.289062 229.289062-229.289062s229.289062 102.65625 229.289062 229.289062zm0 0" fill="#de8957"/><path d="m66.710938 236.789062c0-119.894531 92.023437-218.277343 209.289062-228.410156-6.59375-.570312-13.261719-.878906-20-.878906-126.632812 0-229.289062 102.65625-229.289062 229.289062 0 126.632813 102.65625 229.285157 229.289062 229.285157 6.738281 0 13.40625-.304688 20-.875-117.265625-10.136719-209.289062-108.519531-209.289062-228.410157zm0 0" fill="#c76d33"/><path d="m286.199219 217.472656c21.597656 11.015625 36.386719 33.464844 36.386719 59.367188 0 36.773437-29.808594 66.582031-66.585938 66.582031s-66.585938-29.804687-66.585938-66.582031c0-25.902344 14.789063-48.351563 36.386719-59.367188zm0 0" fill="#f5d5c4"/><path d="m286.199219 217.472656c-3.253907 13.660156-15.542969 23.820313-30.199219 23.820313s-26.945312-10.160157-30.199219-23.820313c9.0625-4.613281 19.324219-7.21875 30.199219-7.21875 10.871094 0 21.136719 2.605469 30.199219 7.21875zm0 0" fill="#423e4f"/><path d="m143.976562 243.226562h-19.710937c-4.144531 0-7.5 3.355469-7.5 7.5 0 4.140626 3.355469 7.5 7.5 7.5h19.710937c4.140626 0 7.5-3.359374 7.5-7.5 0-4.140624-3.359374-7.5-7.5-7.5zm0 0" fill="#ff9db0"/><path d="m387.734375 243.226562h-19.710937c-4.144532 0-7.5 3.355469-7.5 7.5 0 4.140626 3.355468 7.5 7.5 7.5h19.710937c4.144531 0 7.5-3.359374 7.5-7.5 0-4.140624-3.355469-7.5-7.5-7.5zm0 0" fill="#ff9db0"/><path d="m283.363281 257.902344c-3.121093-2.726563-7.855469-2.410156-10.582031.710937-1.332031 1.523438-3.363281 2.398438-5.566406 2.398438-2.207032 0-4.238282-.875-5.566406-2.398438-1.40625-1.605469-3.519532-2.558593-5.648438-2.558593s-4.246094.949218-5.644531 2.558593c-1.332031 1.523438-3.363281 2.398438-5.570313 2.398438-2.203125 0-4.234375-.875-5.5625-2.398438-2.730468-3.121093-7.464844-3.4375-10.585937-.710937-3.117188 2.726562-3.4375 7.464844-.710938 10.582031 4.179688 4.785156 10.328125 7.527344 16.859375 7.527344 4.007813 0 7.863282-1.035157 11.214844-2.9375 3.351562 1.902343 7.210938 2.9375 11.214844 2.9375 6.535156 0 12.679687-2.742188 16.859375-7.527344 2.726562-3.117187 2.40625-7.855469-.710938-10.582031zm0 0"/><path d="m154.136719 226.210938v-16.675782c0-4.144531-3.359375-7.5-7.5-7.5s-7.5 3.355469-7.5 7.5v16.675782c0 4.144531 3.359375 7.5 7.5 7.5s7.5-3.355469 7.5-7.5zm0 0"/><path d="m372.863281 226.210938v-16.675782c0-4.144531-3.359375-7.5-7.5-7.5s-7.5 3.355469-7.5 7.5v16.675782c0 4.144531 3.359375 7.5 7.5 7.5s7.5-3.355469 7.5-7.5zm0 0"/><path d="m32.496094 158.253906c-8.726563 24.902344-13.285156 51.367188-13.285156 78.535156 0 63.246094 24.628906 122.710938 69.355468 167.433594 44.722656 44.722656 104.1875 69.355469 167.433594 69.355469 52.839844 0 102.835938-17.039063 144.578125-49.269531 3.28125-2.53125 3.886719-7.242188 1.355469-10.519532-2.535156-3.28125-7.242188-3.886718-10.523438-1.355468-39.09375 30.1875-85.917968 46.144531-135.410156 46.144531-59.242188 0-114.9375-23.070313-156.828125-64.960937-41.890625-41.890626-64.960937-97.585938-64.960937-156.828126 0-39.855468 11.128906-80.324218 31.960937-114.773437.019531-.035156.050781-.066406.070313-.105469 39.324218-65.535156 112.683593-106.769531 189.035156-106.910156h.722656c59.046875-.109375 117.457031 24.660156 158.6875 66.867188 40.140625 41.089843 63.101562 97.527343 63.101562 154.921874 0 59.175782-23.027343 114.824219-64.839843 156.703126-2.925781 2.933593-2.921875 7.679687.007812 10.605468 2.933594 2.925782 7.679688 2.921875 10.609375-.007812 44.636719-44.707032 69.222656-104.125 69.222656-167.300782 0-27.167968-4.558593-53.632812-13.285156-78.53125 20.1875-13.792968 32.496094-36.78125 32.496094-61.457031 0-41.019531-33.371094-74.394531-74.394531-74.394531-18.175781 0-35.265625 6.457031-48.796875 18.277344-38.882813-26.449219-84.75-40.683594-132.808594-40.683594s-93.925781 14.234375-132.808594 40.6875c-13.535156-11.824219-30.625-18.28125-48.796875-18.28125-15.21875 0-29.863281 4.582031-42.351562 13.242188-3.402344 2.363281-4.246094 7.035156-1.886719 10.4375 2.359375 3.402343 7.035156 4.25 10.4375 1.890624 9.964844-6.914062 21.652344-10.566406 33.800781-10.566406 13.335938 0 25.945313 4.347656 36.289063 12.378906-3.730469 2.910157-7.375 5.953126-10.949219 9.101563-2.304687 2.03125-7.5625 6.945313-7.9375 7.308594-5.855469-4.339844-12.972656-6.746094-20.40625-6.746094-18.9375 0-34.34375 15.410156-34.34375 34.347656 0 10.367188 4.792969 20.113281 12.644531 26.566407-4.304687 7.601562-8.160156 15.429687-11.582031 23.441406-14.429687-11.160156-23.109375-28.492188-23.109375-47.007813 0-10.351562 2.722656-20.5625 7.867188-29.523437 2.0625-3.59375.824218-8.175782-2.769532-10.238282-3.589844-2.0625-8.171875-.824218-10.238281 2.765626-6.449219 11.230468-9.859375 24.023437-9.859375 36.996093 0 24.675781 12.308594 47.664063 32.496094 61.453125zm421.867187-50.886718c-1.960937-2.988282-3.992187-5.941407-6.09375-8.847657-5.3125-7.359375-11.210937-14.648437-17.425781-21.410156 2.929688-1.722656 6.289062-2.65625 9.765625-2.65625 10.664063 0 19.34375 8.679687 19.34375 19.347656 0 5.128907-2.082031 9.996094-5.589844 13.566407zm-16.757812-69.960938c32.75 0 59.394531 26.644531 59.394531 59.394531 0 18.515625-8.679688 35.847657-23.109375 47.007813-3.421875-8.011719-7.277344-15.84375-11.582031-23.445313 7.851562-6.449219 12.644531-16.199219 12.644531-26.566406 0-18.9375-15.40625-34.34375-34.34375-34.34375-7.433594 0-14.550781 2.402344-20.40625 6.746094-2.589844-2.496094-5.132813-5.066407-7.941406-7.3125-3.574219-3.148438-7.21875-6.191407-10.949219-9.101563 10.34375-8.03125 22.957031-12.378906 36.292969-12.378906zm-385.558594 56.390625c0-10.664063 8.675781-19.34375 19.34375-19.34375 3.476563 0 6.835937.933594 9.765625 2.65625-.046875.046875-.089844.097656-.136719.148437-6.160156 6.746094-11.953125 13.839844-17.289062 21.257813-2.101563 2.910156-4.132813 5.859375-6.09375 8.847656-3.507813-3.566406-5.589844-8.433593-5.589844-13.566406zm0 0"/><path d="m289.601562 210.792969s0 0 0-.003907c-10.46875-5.328124-21.773437-8.035156-33.601562-8.035156s-23.132812 2.707032-33.601562 8.035156c0 0-.003907.003907-.003907.003907-24.96875 12.734375-40.480469 38.042969-40.480469 66.046875 0 40.847656 33.234376 74.082031 74.085938 74.082031 40.847656 0 74.082031-33.234375 74.082031-74.082031 0-28.003906-15.511719-53.3125-40.480469-66.046875.003907 0 .003907 0 0 0zm-12.886718 10.683593c-4.03125 7.476563-12.226563 12.316407-20.714844 12.316407-8.496094 0-16.679688-4.832031-20.714844-12.316407 6.585938-2.472656 13.527344-3.722656 20.714844-3.722656s14.128906 1.25 20.714844 3.722656zm38.367187 55.363282c0 32.578125-26.503906 59.082031-59.082031 59.082031s-59.085938-26.503906-59.085938-59.082031c0-19.507813 9.4375-37.375 25.097657-48.355469.011719.023437.027343.046875.042969.074219 4.03125 7.515625 10.597656 13.574218 18.40625 16.996094 4.882812 2.136718 10.210937 3.242187 15.539062 3.242187 5.195312 0 10.394531-1.054687 15.175781-3.089844 7.855469-3.347656 14.730469-9.527343 18.757813-17.125.015625-.035156.039062-.0625.054687-.097656 15.660157 10.980469 25.09375 28.847656 25.09375 48.355469zm0 0"/></svg>