<svg height="512pt" viewBox="0 -12 512 512" width="512pt" xmlns="http://www.w3.org/2000/svg"><path d="m480.761719 18.363281c5.644531 2.414063 10.21875 6.824219 12.742187 12.421875 9.039063 20.03125 25.195313 73.875-14.609375 149.53125l-130.902343-146.113281s58.785156-47.457031 132.769531-15.839844zm0 0" fill="#f2c13b"/><path d="m31.234375 18.363281c-5.644531 2.414063-10.214844 6.824219-12.738281 12.421875-9.039063 20.03125-25.195313 73.875 14.605468 149.53125l130.90625-146.113281s-58.785156-47.457031-132.773437-15.839844zm0 0" fill="#f2c13b"/><path d="m493.453125 147.167969c-12.773437-29.980469-31.300781-57.539063-55.039063-81.277344-19.074218-19.074219-40.617187-34.777344-63.898437-46.847656-16.683594 7.222656-26.523437 15.160156-26.523437 15.160156l130.902343 146.113281c6.089844-11.574218 10.863281-22.636718 14.558594-33.148437zm0 0" fill="#e7a700"/><path d="m18.542969 147.167969c3.699219 10.511719 8.472656 21.574219 14.558593 33.148437l130.90625-146.113281s-9.839843-7.9375-26.523437-15.160156c-23.28125 12.070312-44.824219 27.773437-63.898437 46.847656-23.742188 23.738281-42.265626 51.296875-55.042969 81.277344zm0 0" fill="#e7a700"/><path d="m151.414062 64.335938-.003906.003906c.09375.070312.164063.125.210938.160156zm-86.113281-16.191407c-7.519531 2.011719-13.40625 7.960938-15.296875 15.507813-5.183594 20.710937-7.257812 57.667968 18.765625 107.128906l82.640625-106.441406c-2.796875-2.128906-26.804687-19.574219-60.589844-19.574219-8.011718.003906-16.566406.980469-25.519531 3.378906zm0 0" fill="#e8e8e8"/><path d="m360.375 64.5c.046875-.035156.121094-.089844.210938-.160156v-.003906zm60.804688-19.730469c-33.785157 0-57.792969 17.445313-60.59375 19.570313l82.644531 106.441406c26.023437-49.460938 23.949219-86.414062 18.761719-107.125-1.886719-7.550781-7.773438-13.5-15.292969-15.511719-8.953125-2.398437-17.511719-3.375-25.519531-3.375zm0 0" fill="#e8e8e8"/><g fill="#c7c5cb"><path d="m360.375 64.5c.046875-.035156.121094-.089844.210938-.160156v-.003906zm0 0"/><path d="m465.074219 97.113281c-7.984375-10.988281-16.871094-21.433593-26.660157-31.222656-7.496093-7.496094-15.378906-14.472656-23.59375-20.917969-30.410156 1.964844-51.613281 17.375-54.234374 19.367188l82.644531 106.441406c15.339843-29.160156 20.914062-53.96875 21.84375-73.667969zm0 0"/><path d="m151.414062 64.335938-.003906.003906c.09375.070312.164063.125.210938.160156zm0 0"/><path d="m46.925781 97.113281c.929688 19.699219 6.503907 44.507813 21.84375 73.667969l82.640625-106.441406c-2.617187-1.992188-23.824218-17.402344-54.234375-19.367188-8.210937 6.445313-16.09375 13.421875-23.589843 20.917969-9.789063 9.789063-18.679688 20.234375-26.660157 31.222656zm0 0"/></g><path d="m112.496094 431.855469c-54.460938-42.652344-89.46875-109.007813-89.46875-183.550781 0-128.664063 104.308594-232.972657 232.972656-232.972657s232.972656 104.308594 232.972656 232.972657c0 74.542968-35.007812 140.902343-89.46875 183.550781zm0 0" fill="#f2c13b"/><path d="m112.496094 431.855469h30c-54.460938-42.652344-89.46875-109.007813-89.46875-183.550781 0-123.621094 96.300781-224.742188 217.972656-232.476563-1.109375.066406-2.300781-.140625-3.414062-.191406-3.847657-.1875-7.703126-.304688-11.554688-.304688-.011719 0-.023438 0-.03125 0-104.539062 0-193 68.859375-222.5 163.695313-12.378906 39.792968-13.796875 82.867187-4.152344 123.40625 10.023438 42.136718 32.460938 81.785156 63.667969 112.347656 6.167969 6.039062 12.671875 11.742188 19.480469 17.074219zm0 0" fill="#e7a700"/><path d="m290.835938 265.421875c63.613281 15.613281 110.804687 73.019531 110.804687 141.449219 0 8.515625-.734375 16.871094-2.136719 24.984375-39.558594 30.964843-89.375 49.433593-143.503906 49.433593-54.132812 0-103.949219-18.46875-143.507812-49.433593-1.402344-8.113281-2.136719-16.46875-2.136719-24.984375 0-68.429688 47.191406-125.835938 110.804687-141.449219zm0 0" fill="#e8e8e8"/><path d="m261.9375 481.210938c3.007812-.074219 6.019531-.199219 9.023438-.398438h.039062c-48.316406-3.070312-92.628906-20.871094-128.503906-48.957031-11.613282-9.097657-22.335938-19.28125-32.03125-30.386719-.066406 1.792969-.105469 3.59375-.105469 5.402344 0 8.515625.730469 16.871094 2.136719 24.984375 7.414062 5.804687 15.191406 11.171875 23.292968 16.058593 32.867188 19.839844 70.507813 31.257813 108.847657 33.101563 5.761719.277344 11.535156.332031 17.300781.195313zm0 0" fill="#c7c5cb"/><path d="m290.835938 265.421875c-2.074219 17.402344-16.871094 30.890625-34.835938 30.890625s-32.765625-13.488281-34.835938-30.890625c11.160157-2.734375 22.824219-4.191406 34.835938-4.191406s23.675781 1.457031 34.835938 4.191406zm0 0" fill="#423e4f"/><path d="m137.0625 278.585938h-17.742188c-4.140624 0-7.5 3.359374-7.5 7.5 0 4.144531 3.359376 7.5 7.5 7.5h17.742188c4.140625 0 7.5-3.355469 7.5-7.5 0-4.140626-3.359375-7.5-7.5-7.5zm0 0" fill="#ff748f"/><path d="m392.679688 278.585938h-17.742188c-4.140625 0-7.5 3.359374-7.5 7.5 0 4.144531 3.359375 7.5 7.5 7.5h17.742188c4.140624 0 7.5-3.355469 7.5-7.5 0-4.140626-3.359376-7.5-7.5-7.5zm0 0" fill="#ff748f"/><path d="m149.53125 264.3125v-16.644531c0-4.144531-3.359375-7.5-7.5-7.5s-7.5 3.355469-7.5 7.5v16.644531c0 4.140625 3.359375 7.5 7.5 7.5s7.5-3.359375 7.5-7.5zm0 0"/><path d="m377.507812 264.3125v-16.644531c0-4.144531-3.355468-7.5-7.5-7.5-4.140624 0-7.5 3.355469-7.5 7.5v16.644531c0 4.140625 3.359376 7.5 7.5 7.5 4.144532 0 7.5-3.359375 7.5-7.5zm0 0"/><path d="m238.601562 333.046875c6.335938 0 12.394532-1.882813 17.417969-5.292969 5.027344 3.410156 11.082031 5.292969 17.417969 5.292969 8.953125 0 17.359375-3.746094 23.066406-10.273437 2.726563-3.117188 2.410156-7.855469-.710937-10.582032-3.117188-2.726562-7.855469-2.410156-10.582031.710938-2.859376 3.269531-7.148438 5.140625-11.773438 5.140625s-8.914062-1.871094-11.769531-5.140625c-1.414063-1.617188-3.503907-2.558594-5.652344-2.558594-2.121094 0-4.238281.949219-5.644531 2.558594-2.855469 3.269531-7.144532 5.140625-11.769532 5.140625s-8.914062-1.871094-11.773437-5.140625c-2.726563-3.121094-7.460937-3.4375-10.582031-.710938-3.121094 2.726563-3.4375 7.464844-.710938 10.582032 5.707032 6.527343 14.113282 10.273437 23.066406 10.273437zm0 0"/><path d="m500.363281 27.699219c-3.289062-7.289063-9.195312-13.054688-16.632812-16.230469-17.804688-7.609375-36.269531-11.46875-54.882813-11.46875-41.039062 0-71.503906 18.441406-81.792968 25.601562-28.511719-11.65625-59.304688-17.769531-91.035157-17.769531s-62.519531 6.113281-91.035156 17.769531c-10.0625-7-39.425781-24.78125-79.097656-25.570312-4.15625-.0703125-7.566407 3.210938-7.648438 7.351562-.082031 4.140626 3.210938 7.5625 7.351563 7.644532 27.921875.558594 50.496094 10.800781 63.007812 18.003906-6.746094 3.375-13.332031 7.078125-19.753906 11.09375-12.453125-4.546875-25.214844-6.859375-38.003906-6.859375-9.21875 0-18.457032 1.222656-27.457032 3.632813-10.175781 2.722656-18.082031 10.742187-20.632812 20.933593-3.738281 14.9375-6.246094 39.128907 2.488281 70.535157-5.046875 9.140624-9.484375 18.589843-13.277343 28.292968-28.234376-64.292968-14.410157-109.5-6.609376-126.789062 1.742188-3.855469 4.882813-6.914063 8.855469-8.609375 7.636719-3.265625 15.503907-5.789063 23.382813-7.496094 4.050781-.878906 6.617187-4.875 5.738281-8.921875-.875-4.046875-4.871094-6.617188-8.917969-5.738281-8.808594 1.910156-17.585937 4.726562-26.097656 8.363281-7.4375 3.175781-13.34375 8.941406-16.632812 16.234375-5.21875 11.558594-11.476563 30.820313-11.67578175 56.933594-.23437525 31.0625 8.20703175 63.472656 25.05468775 96.371093-6.257813 21.59375-9.511719 44.191407-9.511719 67.296876 0 74.441406 33.65625 143.496093 92.34375 189.457031 42.644531 33.382812 93.867187 51.027343 148.128906 51.027343 54.265625 0 105.488281-17.644531 148.140625-51.035156 22.921875-17.953125 42.21875-39.648437 57.351563-64.480468 2.152343-3.539063 1.035156-8.152344-2.503907-10.308594-3.539062-2.15625-8.152343-1.035156-10.308593 2.5-10.972657 18.011718-24.285157 34.261718-39.699219 48.492187.003906-.074219.164062-4.796875.164062-7.085937 0-34.960938-11.472656-67.878906-33.175781-95.195313-20.929687-26.34375-50.652343-45.535156-83.347656-53.542969-23.875-5.84375-49.363281-5.84375-73.246094.003907-32.6875 8.023437-62.285156 27.039062-83.339843 53.539062-21.703126 27.316407-33.175782 60.234375-33.175782 95.195313 0 2.367187.054688 4.734375.164063 7.097656-46.289063-42.65625-72.496094-102.0625-72.496094-165.664062 0-122.0625 103.667969-225.472657 225.472656-225.472657 121.59375 0 225.472657 104.136719 225.472657 225.472657 0 31.820312-6.515626 62.605468-19.363282 91.503906-1.683594 3.785156.019532 8.21875 3.804688 9.902344 3.789062 1.683593 8.21875-.019532 9.902344-3.804688 13.707031-30.828125 20.65625-63.667969 20.65625-97.601562 0-23.097657-3.25-45.691407-9.503907-67.273438 39.566407-77.273438 22.609375-132.863281 13.375-153.332031zm-218.589843 243.429687c-3.019532 7.863282-9.789063 14.09375-17.847657 16.523438-2.550781.769531-5.242187 1.160156-7.90625 1.160156-11.171875 0-21.601562-7.097656-25.679687-17.496094-.023438-.0625-.050782-.125-.074219-.1875 16.929687-3.183594 34.582031-3.183594 51.507813 0zm-133.976563 49.878906c17.40625-21.90625 41.273437-38.144531 67.820313-46.277343 4.320312 12.949219 15.035156 23.320312 28.097656 27.273437 3.984375 1.207032 8.140625 1.808594 12.304687 1.808594 4.554688 0 9.136719-.734375 13.457031-2.175781 9.273438-3.09375 17.363282-9.429688 22.578126-17.703125.445312-.703125 4.769531-9.078125 4.367187-9.199219 3.320313 1.015625 6.597656 2.160156 9.824219 3.425781 22.589844 8.855469 42.765625 23.679688 57.996094 42.847656 19.574218 24.636719 29.921874 54.328126 29.921874 85.867188 0 6.929688-.527343 13.96875-1.566406 20.855469-39.515625 30.140625-86.671875 46.054687-136.578125 46.054687-49.902343 0-97.0625-15.914062-136.578125-46.078125-1.039062-6.886719-1.5625-13.871093-1.5625-20.835937 0-31.535156 10.347656-61.226563 29.917969-85.863282zm-90.496094-255.53125c1.230469-4.90625 5.046875-8.773437 9.960938-10.085937 7.734375-2.074219 15.667969-3.121094 23.578125-3.121094 7.394531 0 14.796875.898438 22.128906 2.679688-22.140625 16.359375-41.25 36.351562-56.546875 59.105469-3.789063-21.261719-1.835937-37.730469.878906-48.578126zm371.546875-50.476562c16.574219 0 33.054688 3.453125 48.988282 10.261719 3.96875 1.695312 7.113281 4.753906 8.851562 8.605469 7.800781 17.292968 21.625 62.5-6.605469 126.792968-3.796875-9.707031-8.230469-19.152344-13.277343-28.292968 8.730468-31.40625 6.226562-55.597657 2.484374-70.535157-2.550781-10.191406-10.457031-18.210937-20.628906-20.933593-9.003906-2.410157-18.242187-3.632813-27.460937-3.632813-12.785157 0-25.550781 2.3125-38.003907 6.859375-6.429687-4.023438-13.027343-7.730469-19.785156-11.109375 12.816406-7.40625 36.265625-18.015625 65.4375-18.015625zm26.769532 99.074219c-8.59375-12.71875-18.460938-24.714844-29.558594-35.808594-8.496094-8.496094-17.515625-16.277344-26.984375-23.316406 15.175781-3.6875 30.734375-3.566407 45.707031.4375 4.914062 1.316406 8.730469 5.179687 9.957031 10.089843 2.714844 10.851563 4.667969 27.324219.878907 48.597657zm0 0"/></svg>