<svg height="512pt" viewBox="0 -19 512.0018 512" width="512pt" xmlns="http://www.w3.org/2000/svg"><g fill="#918bd7"><path d="m256 466.265625c-16.273438 0-29.46875-13.195313-29.46875-29.472656v-111.660157c0-16.277343 13.191406-29.472656 29.46875-29.472656s29.472656 13.195313 29.472656 29.472656v111.660157c-.003906 16.277343-13.195312 29.472656-29.472656 29.472656zm0 0"/><path d="m144.257812 455.40625c-6.722656 0-13.476562-2.289062-19.011718-6.964844-12.429688-10.507812-13.988282-29.101562-3.480469-41.53125 18.996094-22.476562 22.738281-66.375 22.574219-81.390625-.25-16.277343 12.742187-29.636719 29.015625-29.886719.15625-.003906.308593-.003906.460937-.003906 16.066406 0 29.214844 12.929688 29.460938 29.050782.117187 7.75.109375 76.96875-36.496094 120.277343-5.832031 6.898438-14.148438 10.449219-22.523438 10.449219zm0 0"/><path d="m36.957031 416.097656c-10.789062 0-21.179687-5.945312-26.355469-16.242187-7.308593-14.539063-1.445312-32.253907 13.09375-39.566407 26.445313-13.289062 47.421876-53.054687 52.683594-65.9375 6.160156-15.066406 23.363282-22.289062 38.429688-16.132812 15.066406 6.160156 22.289062 23.363281 16.132812 38.429688-2.933594 7.175781-30.109375 70.835937-80.773437 96.304687-4.246094 2.132813-8.761719 3.144531-13.210938 3.144531zm0 0"/><path d="m367.742188 455.40625c-8.375 0-16.691407-3.550781-22.519532-10.449219-36.605468-43.308593-36.617187-112.527343-36.496094-120.277343.246094-16.121094 13.390626-29.019532 29.457032-29.019532.152344 0 .304687.003906.460937.003906 16.261719.25 29.242188 13.621094 29.015625 29.875-.15625 15.039063 3.585938 58.90625 22.574219 81.371094 10.507813 12.429688 8.949219 31.027344-3.480469 41.53125-5.535156 4.675782-12.292968 6.960938-19.011718 6.964844zm0 0"/><path d="m475.042969 416.097656c-4.449219 0-8.964844-1.007812-13.214844-3.144531-50.664063-25.46875-77.839844-89.128906-80.769531-96.304687-6.160156-15.066407 1.066406-32.273438 16.132812-38.429688 15.046875-6.152344 32.234375 1.050781 38.40625 16.085938 5.753906 13.890624 26.417969 52.773437 52.703125 65.984374 14.542969 7.3125 20.40625 25.027344 13.09375 39.566407-5.171875 10.296875-15.566406 16.242187-26.351562 16.242187zm0 0"/></g><path d="m460.28125 335.632812c-12.296875-15.453124-21.207031-32.941406-24.679688-41.324218-6.171874-15.035156-23.363281-22.242188-38.410156-16.085938-15.066406 6.15625-22.289062 23.359375-16.132812 38.425782 1.703125 4.175781 11.617187 27.464843 29.582031 51.230468 17.886719-7.082031 34.398437-17.613281 48.640625-31.261718.335938-.324219.664062-.65625 1-.984376zm0 0" fill="#736acb"/><path d="m375.253906 377.0625c-6.167968-20.1875-7.695312-41.835938-7.59375-51.523438.226563-16.253906-12.753906-29.621093-29.015625-29.875-.15625 0-.308593 0-.460937 0-16.066406 0-29.210938 12.894532-29.457032 29.015626-.066406 4.246093-.09375 26.9375 5.914063 53.707031h40.648437c6.726563 0 13.394532-.453125 19.964844-1.324219zm0 0" fill="#736acb"/><path d="m285.46875 378.386719v-53.253907c0-16.277343-13.191406-29.472656-29.46875-29.472656s-29.472656 13.195313-29.472656 29.472656v53.253907zm0 0" fill="#736acb"/><path d="m156.726562 378.386719h40.632813c6.007813-26.773438 5.980469-49.460938 5.917969-53.707031-.25-16.121094-13.394532-29.050782-29.460938-29.050782-.152344 0-.308594 0-.460937.003906-16.273438.25-29.265625 13.609376-29.015625 29.886719.105468 9.675781-1.417969 31.339844-7.59375 51.539063 6.574218.875 13.246094 1.328125 19.980468 1.328125zm0 0" fill="#736acb"/><path d="m114.808594 278.21875c-15.066406-6.15625-32.269532 1.066406-38.425782 16.132812-3.191406 7.808594-12.160156 25.484376-24.613281 41.164063.117188.113281.226563.230469.34375.339844 14.375 14.007812 31.105469 24.789062 49.265625 32 17.953125-23.757813 27.859375-47.035157 29.566406-51.207031 6.15625-15.066407-1.070312-32.269532-16.136718-38.429688zm0 0" fill="#736acb"/><path d="m256 7.503906c-120.988281 0-219.066406 98.078125-219.066406 219.066406 0 1.691407.019531 3.378907.058594 5.0625 1.472656 64.953126 54.765624 116.75 119.734374 116.75h198.5625c64.320313 0 117.734376-50.789062 119.675782-115.082031.046875-1.578125.078125-3.164062.09375-4.753906 1.070312-120.871094-98.183594-221.046875-219.058594-221.042969zm0 0" fill="#918bd7"/><path d="m66.996094 231.632812c-.039063-1.683593-.058594-3.371093-.058594-5.0625 0-115.914062 90.03125-210.785156 203.976562-218.542968-4.933593-.335938-9.902343-.523438-14.914062-.523438-120.988281 0-219.066406 98.078125-219.066406 219.066406 0 1.691407.019531 3.378907.058594 5.0625 1.472656 64.953126 54.765624 116.75 119.734374 116.75h30.007813c-64.972656 0-118.265625-51.796874-119.738281-116.75zm0 0" fill="#736acb"/><path d="m173.210938 253.398438h-25.269532c-4.144531 0-7.503906-3.359376-7.503906-7.5 0-4.144532 3.359375-7.503907 7.503906-7.503907h25.269532c4.144531 0 7.5 3.359375 7.5 7.503907 0 4.140624-3.355469 7.5-7.5 7.5zm0 0" fill="#ff748f"/><path d="m364.058594 253.398438h-25.269532c-4.144531 0-7.5-3.359376-7.5-7.5 0-4.144532 3.355469-7.503907 7.5-7.503907h25.269532c4.144531 0 7.503906 3.359375 7.503906 7.503907 0 4.140624-3.359375 7.5-7.503906 7.5zm0 0" fill="#ff748f"/><path d="m303.152344 245.898438c0 26.039062-21.109375 47.152343-47.152344 47.152343s-47.152344-21.113281-47.152344-47.152343c0-26.042969 21.109375-47.15625 47.152344-47.15625s47.152344 21.113281 47.152344 47.15625zm0 0" fill="#ff9db0"/><path d="m276.140625 245.898438c0 11.121093-9.019531 20.136718-20.140625 20.136718s-20.136719-9.015625-20.136719-20.136718c0-11.125 9.015625-20.140626 20.136719-20.140626s20.140625 9.015626 20.140625 20.140626zm0 0" fill="#423e4f"/><path d="m168.019531 218.625v-18.554688c0-4.140624-3.355469-7.5-7.5-7.5-4.140625 0-7.5 3.359376-7.5 7.5v18.554688c0 4.144531 3.359375 7.5 7.5 7.5 4.144531 0 7.5-3.355469 7.5-7.5zm0 0"/><path d="m358.871094 218.625v-18.554688c0-4.140624-3.359375-7.5-7.503906-7.5-4.140626 0-7.5 3.359376-7.5 7.5v18.554688c0 4.144531 3.359374 7.5 7.5 7.5 4.144531 0 7.503906-3.355469 7.503906-7.5zm0 0"/><path d="m201.289062 245.898438c0 30.132812 24.519532 54.652343 54.65625 54.652343 30.136719 0 54.652344-24.519531 54.652344-54.652343 0-30.136719-24.515625-54.65625-54.652344-54.65625-30.140624 0-54.65625 24.519531-54.65625 54.65625zm94.304688 0c0 21.863281-17.785156 39.648437-39.648438 39.648437-21.867187 0-39.65625-17.785156-39.65625-39.648437 0-21.867188 17.789063-39.652344 39.65625-39.652344 21.863282 0 39.648438 17.785156 39.648438 39.652344zm0 0"/><path d="m228.304688 245.898438c0 15.238281 12.398437 27.636718 27.640624 27.636718 15.238282 0 27.636719-12.398437 27.636719-27.636718 0-15.242188-12.398437-27.640626-27.636719-27.640626-15.242187 0-27.640624 12.398438-27.640624 27.640626zm40.277343 0c0 6.964843-5.671875 12.636718-12.636719 12.636718-6.96875 0-12.640624-5.671875-12.640624-12.636718 0-6.96875 5.671874-12.640626 12.640624-12.640626 6.964844 0 12.636719 5.671876 12.636719 12.640626zm0 0"/><path d="m156.671875 340.878906c-12.21875 0-24.445313-1.988281-36.019531-5.902344-17.679688-5.976562-33.757813-16.40625-46.488282-30.160156-.152343-.164062-.3125-.308594-.476562-.457031-6.628906-7.273437-12.375-15.488281-17.019531-24.535156-1.890625-3.6875-6.414063-5.140625-10.097657-3.25-3.6875 1.890625-5.140624 6.414062-3.25 10.097656 4.507813 8.792969 9.945313 16.882813 16.132813 24.210937-7.425781 12.539063-22.058594 34.097657-39.179687 42.707032-17.980469 9.035156-25.472657 31.644531-16.429688 49.636718 9.042969 17.984376 31.65625 25.46875 49.636719 16.429688 31.371093-15.765625 54.011719-45.023438 68.207031-68.613281 4.136719 1.171875 8.351562 2.136719 12.625 2.890625-2.410156 14.691406-7.566406 35.398437-18.332031 48.132812-13.003907 15.382813-10.980469 39.132813 4.367187 52.105469 15.398438 13.015625 39.109375 11.007813 52.105469-4.371094 13.441406-15.902343 30.34375-44.945312 36.332031-93.917969h10.1875v80.910157c0 20.386719 16.585938 36.972656 36.972656 36.972656 20.386719 0 36.972657-16.585937 36.972657-36.972656v-80.910157h10.183593c5.992188 48.976563 22.894532 78.015626 36.335938 93.917969 12.992188 15.375 36.734375 17.359375 52.101562 4.371094 15.570313-13.160156 17.53125-36.535156 4.371094-52.105469-10.765625-12.734375-15.921875-33.441406-18.335937-48.132812 4.269531-.75 8.480469-1.71875 12.625-2.894532 14.195312 23.589844 36.835937 52.847657 68.207031 68.617188 18.050781 9.074219 40.578125 1.59375 49.636719-16.429688 4.4375-8.824218 5.171875-18.847656 2.066406-28.222656-3.101563-9.375-9.667969-16.980468-18.492187-21.414062-6.191407-3.113282-21.96875-13.371094-39.128907-42.582032 18.519531-21.695312 29.054688-48.765624 29.921875-77.476562.046875-1.636719.082032-3.273438.09375-4.914062.53125-59.660157-22.363281-116.355469-64.464844-159.644532-2.890624-2.96875-7.636718-3.035156-10.609374-.148437-2.96875 2.890625-3.035157 7.636719-.144532 10.609375 39.324219 40.433594 60.710938 93.371094 60.21875 149.050781-.242187 28.257813-10.117187 55.691406-29.660156 76.40625-.011719.015625-.027344.023437-.039062.039063-12.746094 13.699218-28.84375 24.09375-46.546876 30.058593-11.808593 3.980469-23.53125 5.890625-36.019531 5.890625-.003906 0-198.566406 0-198.566406 0zm328.203125 26.113282c10.695312 5.378906 15.136719 18.804687 9.761719 29.496093-5.371094 10.6875-18.816407 15.132813-29.496094 9.761719-27.078125-13.609375-47.277344-38.96875-60.460937-60.277344 13.492187-5.660156 26.015624-13.65625 37.027343-23.785156 9.378907 15.214844 24.523438 35.433594 43.167969 44.804688zm-129.640625-11.109376c2.414063 0 4.832031-.074218 7.246094-.210937.054687-.003906.113281-.003906.167969-.007813 2.9375 18.441407 9.058593 41.011719 21.800781 56.085938 7.820312 9.253906 6.65625 23.144531-2.597657 30.960938-9.152343 7.738281-23.234374 6.546874-30.960937-2.59375-21.441406-25.371094-29.578125-60.980469-32.664063-84.234376zm-77.320313 0v80.910157c0 12.113281-9.855468 21.96875-21.96875 21.96875-12.117187 0-21.972656-9.855469-21.972656-21.96875v-80.910157zm-84.253906 0c-3.085937 23.253907-11.222656 58.863282-32.667968 84.234376-7.726563 9.140624-21.820313 10.320312-30.957032 2.59375-9.152344-7.734376-10.328125-21.816407-2.597656-30.957032 12.742188-15.078125 18.863281-37.652344 21.800781-56.089844 2.472657.144532 4.957031.21875 7.433594.21875zm-177.558594 23.863282c1.777344-5.367188 5.566407-10.066406 10.910157-12.753906 18.582031-9.339844 33.757812-29.59375 43.179687-44.855469 10.867188 10.058593 23.394532 18.109375 37.023438 23.828125-13.1875 21.308594-33.386719 46.671875-60.46875 60.285156-10.730469 5.394531-24.113282.949219-29.496094-9.761719-2.691406-5.351562-2.921875-11.378906-1.148438-16.742187zm0 0"/><path d="m396.214844 58.742188c2.550781-3.257813 1.980468-7.972657-1.28125-10.527344-40.261719-31.542969-88.324219-48.214844-138.988282-48.214844-60.519531 0-117.417968 23.566406-160.207031 66.363281-42.796875 42.792969-66.363281 99.6875-66.363281 160.207031 0 10.203126.882812 20.335938 3.128906 30.304688.789063 3.488281 3.882813 5.855469 7.3125 5.855469.546875 0 1.101563-.0625 1.65625-.1875 4.042969-.910157 6.578125-4.925781 5.667969-8.964844-2-8.882813-2.761719-17.921875-2.761719-27.007813 0-116.660156 94.90625-211.566406 211.566406-211.566406 47.277344 0 92.140626 15.566406 129.738282 45.019532 3.257812 2.554687 7.972656 1.980468 10.53125-1.28125zm0 0"/></svg>