<svg height="512pt" viewBox="0 -3 512.00046 512" width="512pt" xmlns="http://www.w3.org/2000/svg"><path d="m359.054688 35.839844c20.449218-19.070313 41.738281-25.742188 54.589843-28.0625 7.25-1.320313 14.570313 2.171875 18.070313 8.660156 14.222656 26.3125 17.75 57.792969 16.960937 85.816406zm0 0" fill="#4f4c5f"/><path d="m152.945312 35.839844c-20.449218-19.070313-41.742187-25.742188-54.589843-28.0625-7.25-1.320313-14.570313 2.171875-18.070313 8.660156-14.222656 26.3125-17.753906 57.792969-16.960937 85.816406zm0 0" fill="#4f4c5f"/><path d="m448.675781 102.253906c-1.140625 40.558594-11.359375 73.902344-11.359375 73.902344l-107.042968-101.625c8.621093-16.628906 18.589843-29.199219 28.78125-38.691406 12.894531 8.03125 27.917968 17.996094 44.132812 29.914062 14.441406 10.617188 29.824219 22.777344 45.488281 36.5zm0 0" fill="#e7a700"/><path d="m405.191406 60.238281c-.75-3.285156-4.515625-4.792969-7.371094-3.007812-12.777343 7.992187-23.535156 20.308593-32.03125 36.710937l33.257813 71.585938c5.710937-18.96875 14.953125-66.652344 6.144531-105.289063zm0 0" fill="#e8e8e8"/><path d="m63.324219 102.253906c1.136719 40.558594 11.359375 73.902344 11.359375 73.902344l107.042968-101.625c-8.621093-16.628906-18.589843-29.199219-28.78125-38.691406-12.894531 8.03125-27.917968 17.996094-44.132812 29.914062-14.441406 10.617188-29.824219 22.777344-45.488281 36.5zm0 0" fill="#e7a700"/><path d="m106.808594 60.238281c.746094-3.285156 4.511718-4.792969 7.371094-3.007812 12.777343 7.992187 23.53125 20.308593 32.03125 36.710937l-33.257813 71.585938c-5.710937-18.96875-14.953125-66.652344-6.144531-105.289063zm0 0" fill="#e8e8e8"/><path d="m89.125 432.664062c-52.042969-51.480468-73.90625-118.863281-81.363281-148.054687-1.460938-5.691406 3.25-10.972656 9.097656-10.382813 7.042969.710938 14.660156-.367187 20.441406-1.609374 4.460938-.960938 6.589844-6.058594 4.179688-9.929688-8-12.839844-10.980469-26.242188-12.039063-35.859375-.652344-5.980469 5.039063-10.621094 10.800782-8.882813 11.890624 3.589844 23.199218 3.019532 23.199218 3.019532s12.773438-156.203125 192.558594-156.203125 192.554688 156.203125 192.554688 156.203125 11.3125.570312 23.203124-3.019532c5.757813-1.738281 11.449219 2.902344 10.800782 8.882813-1.0625 9.617187-4.042969 23.019531-12.042969 35.859375-2.410156 3.871094-.277344 8.96875 4.179687 9.929688 5.78125 1.242187 13.402344 2.320312 20.441407 1.609374 5.851562-.589843 10.5625 4.691407 9.101562 10.382813-7.460937 29.191406-29.320312 96.574219-81.363281 148.054687zm0 0" fill="#f2c13b"/><path d="m212.570312 68.136719c-138.488281 22.75-149.128906 152.828125-149.128906 152.828125s-11.308594.570312-23.199218-3.019532c-5.761719-1.738281-11.449219 2.902344-10.800782 8.882813 1.058594 9.617187 4.039063 23.019531 12.039063 35.859375 2.410156 3.871094.28125 8.96875-4.179688 9.929688-5.777343 1.242187-13.398437 2.320312-20.4375 1.609374-5.851562-.589843-10.5625 4.691407-9.101562 10.382813 7.460937 29.191406 29.320312 96.574219 81.363281 148.054687h47.878906c-131.777344-145.578124-31.796875-320.582031 75.566406-364.527343zm0 0" fill="#e7a700"/><path d="m284.878906 294.488281c67.472656 12.339844 121.585938 67.171875 137.996094 138.175781-37.742188 37.339844-91.363281 66.332032-166.875 66.332032s-129.136719-28.988282-166.875-66.332032c16.410156-71.003906 70.523438-125.835937 137.992188-138.175781zm0 0" fill="#e8e8e8"/><path d="m284.878906 294.488281c-1.308594 14.800781-13.738281 26.390625-28.878906 26.390625s-27.570312-11.589844-28.882812-26.390625c9.390624-1.71875 19.042968-2.609375 28.882812-2.609375s19.488281.890625 28.878906 2.609375zm0 0" fill="#423e4f"/><path d="m145.113281 295.300781h-15.6875c-4.140625 0-7.5 3.355469-7.5 7.5 0 4.140625 3.359375 7.5 7.5 7.5h15.6875c4.144531 0 7.5-3.359375 7.5-7.5 0-4.144531-3.355469-7.5-7.5-7.5zm0 0" fill="#fd5f7e"/><path d="m382.574219 295.300781h-15.6875c-4.144531 0-7.5 3.355469-7.5 7.5 0 4.140625 3.355469 7.5 7.5 7.5h15.6875c4.140625 0 7.5-3.359375 7.5-7.5 0-4.144531-3.359375-7.5-7.5-7.5zm0 0" fill="#fd5f7e"/><path d="m104.769531 389.234375c-6.808593 13.550781-12.105469 28.113281-15.644531 43.429687 30.050781 29.734376 70.183594 54.152344 123.402344 62.878907-51.054688-32.972657-85.832032-69.21875-107.757813-106.308594zm0 0" fill="#c7c5cb"/><path d="m155.269531 268.660156v16.660156c0 4.140626 3.359375 7.5 7.503907 7.5 4.140624 0 7.5-3.359374 7.5-7.5v-16.660156c0-4.140625-3.359376-7.5-7.5-7.5-4.144532 0-7.503907 3.359375-7.503907 7.5zm0 0"/><path d="m341.730469 268.660156v16.660156c0 4.140626 3.355469 7.5 7.5 7.5 4.140625 0 7.5-3.359374 7.5-7.5v-16.660156c0-4.140625-3.359375-7.5-7.5-7.5-4.144531 0-7.5 3.359375-7.5 7.5zm0 0"/><path d="m296.867188 336.929688c-3.121094-2.726563-7.859376-2.410157-10.585938.710937-2.988281 3.417969-7.480469 5.382813-12.316406 5.382813-4.835938 0-9.328125-1.960938-12.316406-5.382813-1.492188-1.707031-3.742188-2.65625-6.007813-2.550781-2.007813.09375-3.964844 1.039062-5.285156 2.550781-2.992188 3.421875-7.480469 5.382813-12.316407 5.382813-4.839843 0-9.328124-1.960938-12.320312-5.382813-2.722656-3.121094-7.460938-3.4375-10.582031-.710937-3.117188 2.722656-3.4375 7.460937-.710938 10.582031 5.839844 6.679687 14.445313 10.511719 23.613281 10.511719 6.542969 0 12.792969-1.960938 17.964844-5.507813 5.167969 3.546875 11.417969 5.507813 17.960938 5.507813 9.167968 0 17.773437-3.832032 23.613281-10.511719 2.722656-3.117188 2.40625-7.855469-.710937-10.582031zm0 0"/><path d="m494.386719 266.769531c-5.761719.582031-12.125-.28125-16.828125-1.214843 8.355468-13.894532 11.386718-28.222657 12.457031-37.914063.574219-5.292969-1.527344-10.484375-5.625-13.882813-4.125-3.425781-9.65625-4.542968-14.800781-2.988281-5.332032 1.609375-10.59375 2.28125-14.472656 2.554688-1.238282-7.722657-4.035157-21.125-10.042969-36.972657 2.246093-7.925781 10.089843-37.953124 11.101562-73.882812 1.003907-35.664062-5.003906-65.804688-17.855469-89.585938-4.972656-9.195312-15.726562-14.351562-26.007812-12.480468-14.851562 2.679687-37.03125 10.054687-58.378906 29.957031-10.664063 9.9375-20.007813 22.070313-27.832032 36.109375-21.265624-6.105469-44.695312-9.203125-70.101562-9.203125-25.410156 0-48.839844 3.097656-70.105469 9.203125-7.820312-14.039062-17.164062-26.175781-27.839843-36.113281-21.339844-19.898438-43.519532-27.273438-58.355469-29.953125-10.507813-1.914063-20.960938 3.101562-26.011719 12.472656-4.136719 7.652344-7.609375 16.097656-10.328125 25.109375-1.195313 3.96875 1.050781 8.152344 5.015625 9.347656 3.96875 1.195313 8.152344-1.050781 9.347656-5.015625 2.425782-8.042968 5.507813-15.546875 9.164063-22.316406 1.960937-3.640625 6.035156-5.582031 10.136719-4.835938 11.15625 2.011719 27.117187 7.109376 43.332031 19.773438-.0625.042969-12.925781 8.488281-19.179688 12.816406-1.277343.882813-2.554687 1.765625-3.828125 2.65625-.015625-.007812-.03125-.011718-.046875-.019531-6.019531-3.210937-13.792969-.667969-16.8125 5.414063-1.179687 2.371093-1.523437 5.101562-2.007812 7.679687-.042969.242187-.09375.476563-.140625.71875-.390625.296875-.773438.597656-1.167969.890625-8.925781 6.726562-17.691406 13.675781-26.277344 20.832031.210938-5.394531.605469-10.644531 1.195313-15.710937.472656-4.113282-2.476563-7.835938-6.589844-8.3125-4.117188-.476563-7.835938 2.476562-8.3125 6.589844-1.238281 10.691406-1.695312 22.109374-1.359375 33.941406 0 .011718-.003906.019531-.003906.03125 1.011719 35.929687 8.855469 65.960937 11.101562 73.886718-6.011719 15.855469-8.804687 29.257813-10.042969 36.980469-3.859374-.269531-9.105468-.941406-14.472656-2.5625-5.144531-1.554687-10.675781-.4375-14.800781 2.988281-4.097656 3.398438-6.199219 8.589844-5.621094 13.894532 1.0625 9.679687 4.097657 24.011718 12.453125 37.902344-4.707031.933593-11.070312 1.792968-16.828125 1.214843-5.234375-.535156-10.390625 1.523438-13.800781 5.488281-3.359375 3.90625-4.597656 9.21875-3.316406 14.210938 7.101562 27.792969 29.445312 98.199219 83.355468 151.527344 45.9375 45.457031 103.859376 68.503906 172.148438 68.503906 68.292969 0 126.210938-23.046875 172.15625-68.503906 12.035156-11.910156 23.3125-25.492188 33.519531-40.382813 2.339844-3.414062 1.46875-8.082031-1.945312-10.425781-3.417969-2.339844-8.085938-1.472656-10.429688 1.945312-7.046875 10.28125-14.625 19.894532-22.613281 28.707032-.019531-.066406-.042969-.128906-.0625-.195313-12.605469-41.507812-38.917969-79.066406-74.910156-103.558593-19.65625-13.375-42.085938-22.683594-65.480469-26.972657-19.800781-3.625-40.667969-3.625-60.476563.003907-49.921874 9.136718-93.285156 41.085937-119.601562 84.09375-8.785156 14.355468-15.863281 30.195312-20.78125 46.433593-.019531.066407-.042969.132813-.0625.199219-44.714844-49.292969-63.90625-110.132812-70.289062-135.09375-.171876-.675781.484374-1.109375 1.085937-1.054688 6.613281.664063 14.273437.082032 22.769531-1.742187 9.386719-2.011719 14.039063-13.089844 8.96875-21.226563-7.375-11.839843-10.027344-24.328124-10.949218-32.707031-.074219-.652343.589843-1.0625 1.175781-.890625 12.984375 3.921875 25.230469 3.355469 25.746093 3.332032 3.753907-.1875 6.792969-3.132813 7.097657-6.878907.019531-.265625 1.71875-19.421875 11.609375-43.867187 17.195312-42.488282 50.847656-76.304688 93.882812-92.371094 23.320313-8.683594 49.980469-13.078125 79.589844-13.078125 29.503906 0 56.078125 4.359375 79.339844 12.980469 27.585937 10.265625 52.429687 27.828125 70.496094 51.152344 18.40625 23.757812 32.707031 54.867187 35.246093 85.183593.304688 3.746094 3.339844 6.691407 7.097657 6.878907.515624.023437 12.757812.589843 25.746093-3.332032.554688-.167968 1.246094.21875 1.179688.878906-.925781 8.390626-3.578125 20.878907-10.953125 32.71875-5.070313 8.136719-.378906 19.214844 8.972656 21.230469 8.492188 1.820313 16.148438 2.402344 22.765625 1.738281.605469-.0625 1.253906.398438 1.082031 1.058594-4.085937 15.988282-13.722656 47.84375-32.375 81.558594-2.003906 3.625-.691406 8.1875 2.933594 10.191406s8.1875.691406 10.195312-2.933594c19.457032-35.179687 29.515626-68.417968 33.777344-85.09375 1.28125-4.996093.042969-10.3125-3.316406-14.21875-3.40625-3.964843-8.566406-6.015624-13.800781-5.488281zm-396.945313 163.523438c.09375-.363281.175782-.726563.269532-1.085938 6.039062-23.175781 16.503906-45.324219 30.96875-64.4375 14-18.492187 31.589843-34.433593 51.964843-45.621093 12.746094-7 26.355469-12.425782 40.523438-15.757813.050781-.011719.097656-.027344.148437-.039063.019532.058594.039063.117188.058594.171876 2.046875 6.1875 5.828125 11.804687 10.75 16.0625 6.574219 5.695312 15.199219 8.796874 23.875 8.796874 6.089844 0 12.285156-1.554687 17.628906-4.472656 8.054688-4.402344 14.179688-11.851562 17.054688-20.558594.050781.011719.097656.027344.148437.039063 23.710938 5.539063 45.820313 16.90625 64.65625 32.261719 18.304688 14.925781 33.273438 34.019531 44.074219 54.980468 6.484375 12.59375 11.503906 25.933594 14.996094 39.660157-42.542969 40.617187-95.863282 61.207031-158.558594 61.207031s-116.015625-20.589844-158.558594-61.207031zm178.203125-129.652344c-3.367187 7.664063-11.285156 12.742187-19.644531 12.742187-8.304688 0-16.300781-5.132812-19.644531-12.742187 12.980469-1.671875 26.3125-1.671875 39.289062 0zm-104.300781-229.433594c-7.503906 2.789063-14.832031 6.078125-21.910156 9.8125-.5.265625-1.007813.511719-1.503906.78125-.152344-.246093-.308594-.480469-.464844-.722656-3.082032-4.898437-6.511719-9.570313-10.335938-13.914063-2.285156-2.597656-4.664062-5.027343-7.128906-7.277343.117188-.082031.957031-.660157 1.257812-.867188 6.804688-4.691406 13.710938-9.230469 20.6875-13.664062 7.214844 7.429687 13.710938 16.085937 19.398438 25.851562zm-38.839844 19.988281c-7.605468 5.203126-14.792968 11.042969-21.449218 17.417969-.042969-.75-.085938-1.503906-.121094-2.246093 0-.03125-.003906-.066407-.003906-.097657-.609376-13.472656-.179688-27.101562 2.359374-40.375.011719-.070312.023438-.136719.035157-.203125.277343.199219.554687.40625.828125.609375 8.351562 6.117188 15.191406 14.113281 20.675781 22.851563.074219.113281.144531.226562.210937.339844-.847656.5625-1.695312 1.128906-2.535156 1.703124zm-61.558594 14.378907c.332032-.285157 16.222657-13.695313 24.046876-19.859375.328124-.257813.65625-.511719.984374-.769532-.65625 12.800782-.230468 25.753907 1.257813 38.488282.003906.03125.003906.0625.007813.09375-.140626.175781-.28125.359375-.425782.535156-7.5625 9.304688-14.191406 19.355469-19.800781 29.953125-2.539063-12.410156-5.285156-29.570313-6.070313-48.441406zm359.378907 40.144531c-4.515625-7.578125-9.570313-14.820312-15.140625-21.660156-.144532-.175782-.28125-.355469-.425782-.53125.003907-.03125.003907-.066406.007813-.097656 1.527344-12.59375 1.894531-25.328126 1.277344-37.996094-.007813-.164063-.011719-.328125-.019531-.492188.316406.25 11.9375 9.53125 17.324218 14.054688 2.257813 1.894531 7.382813 6.296875 7.710938 6.578125-.789063 18.867187-3.535156 36.027343-6.074219 48.4375-1.378906-2.601563-4.578125-8.148438-4.660156-8.292969zm-31.933594-39.492188c-6.347656-5.832031-13.140625-11.175781-20.300781-15.972656-.378906-.25-.75-.511718-1.128906-.761718.066406-.109376.136718-.222657.207031-.332032 4.167969-6.667968 9.144531-12.890625 14.964843-18.1875 2.03125-1.84375 4.261719-3.667968 6.542969-5.28125.222657 1.152344.425781 2.328125.621094 3.515625 2.015625 12.226563 2.328125 24.699219 1.777344 37.0625 0 .03125-.003907.0625-.003907.097657-.035156.742187-.082031 1.496093-.125 2.246093.015626-.222656-2.222656-2.082031-2.554687-2.386719zm16.597656-91.066406c3.988281-.71875 8.175781 1.222656 10.132813 4.847656 9.648437 17.851563 15.007812 39.972657 15.996094 65.925782-8.96875-7.46875-18.125-14.71875-27.457032-21.730469-.289062-.21875-.238281-1.230469-.308594-1.582031-.269531-1.375-.546874-2.730469-.847656-4.046875-1.285156-5.652344-6.246094-9.601563-12.058594-9.601563-2.007812 0-3.953124.496094-5.738281 1.414063-.019531.007812-.144531-.035157-.1875-.066407-5.757812-4.039062-21.003906-14.175781-22.75-15.300781-.039062-.023437-.082031-.054687-.125-.082031 16.21875-12.664062 32.179688-17.761719 43.34375-19.777344zm-74.332031 56.046875c5.6875-9.765625 12.183594-18.421875 19.398438-25.847656.949218.601563 21.921874 14.554687 21.949218 14.53125-2.46875 2.246094-4.84375 4.675781-7.128906 7.273437-4.007812 4.550782-7.601562 9.484376-10.804688 14.636719-7.339843-3.96875-14.980468-7.414062-22.785156-10.347656-.210937-.078125-.417968-.167969-.628906-.246094zm0 0"/></svg>