<svg height="512pt" viewBox="0 -17 512.0012 512" width="512pt" xmlns="http://www.w3.org/2000/svg"><path d="m336.277344 262.785156s48.652344 58.441406 48.652344 163.015625c0 24.347657-19.738282 44.085938-44.085938 44.085938h-169.6875c-24.347656 0-44.085938-19.738281-44.085938-44.085938 0-104.574219 48.648438-163.015625 48.648438-163.015625zm0 0" fill="#e8e8e8"/><path d="m157.070312 425.800781c0-104.574219 48.648438-163.011719 48.648438-163.011719h-30s-48.648438 58.4375-48.648438 163.011719c0 24.347657 19.738282 44.085938 44.085938 44.085938h30c-24.347656 0-44.085938-19.738281-44.085938-44.085938zm0 0" fill="#c7c5cb"/><path d="m7.59375 225.066406c-1.417969-38.804687 13.542969-89.472656 48.769531-132.140625l100.566407-69.492187c28.449218-10.058594 61.359374-15.933594 99.070312-15.933594 37.707031 0 70.617188 5.875 99.066406 15.933594l100.566406 69.492187c35.230469 42.667969 50.1875 93.335938 48.773438 132.144531l-91.882812 77.332032c-38.714844-1.691406-88.328126-13.984375-156.523438-13.984375-68.199219 0-117.8125 12.292969-156.523438 13.984375zm0 0" fill="#fd5f7e"/><path d="m317.515625 155.046875c0 33.972656-27.542969 61.515625-61.515625 61.515625s-61.515625-27.542969-61.515625-61.515625 27.542969-61.515625 61.515625-61.515625 61.515625 27.542969 61.515625 61.515625zm0 0" fill="#e8e8e8"/><path d="m7.59375 225.066406 35.003906 29.460938c-2.898437-8.59375-4.605468-18.550782-5.003906-29.460938-1.417969-38.804687 13.542969-89.472656 48.769531-132.140625 23.835938-28.871093 56.960938-54.082031 100.566407-69.492187 24.609374-8.699219 52.566406-14.261719 84.070312-15.605469-2.421875-.105469-7.410156-.242187-7.453125-.242187-2.496094-.054688-5.011719-.085938-7.546875-.085938-35.351562 0-66.488281 5.164062-93.683594 14.097656-1.8125.59375-3.609375 1.207032-5.386718 1.835938l-100.566407 69.492187c-28.621093 34.667969-43.863281 74.617188-47.8125 109.195313-.871093 7.609375-1.238281 15.289062-.957031 22.945312zm0 0" fill="#f9496e"/><path d="m164.167969 52.40625c0 33.976562-27.539063 61.515625-61.515625 61.515625-18.453125 0-35.011719-8.132813-46.289063-20.996094 23.835938-28.871093 56.960938-54.082031 100.566407-69.492187 4.625 8.632812 7.238281 18.496094 7.238281 28.972656zm0 0" fill="#e8e8e8"/><path d="m106.425781 273.972656c0 10.253906-2.511719 19.929688-6.949219 28.429688-31.117187 1.363281-55.191406-4.121094-76.207031-28.335938-9.496093-10.941406-14.917969-28.277344-15.675781-49 10.34375-7.902344 23.28125-12.609375 37.316406-12.609375 33.976563 0 61.515625 27.546875 61.515625 61.515625zm0 0" fill="#e8e8e8"/><path d="m99.476562 302.402344c.246094-.472656.484376-.949219.71875-1.429688-17.753906-3.058594-33.011718-10.875-46.925781-26.910156-9.496093-10.9375-14.917969-28.273438-15.675781-48.996094-.144531-3.941406-.109375-8.011718.085938-12.179687-11.234376 1.316406-21.546876 5.652343-30.085938 12.179687.621094 17.007813 4.195312 35.769532 15.675781 48.996094 10.371094 11.953125 23.71875 21.074219 39.074219 25.199219 11.253906 3.023437 23.519531 3.738281 37.132812 3.140625zm0 0" fill="#c7c5cb"/><path d="m75.320312 107.503906c3.4375-4.9375 7.105469-9.8125 11.042969-14.578125 18.945313-22.945312 43.761719-43.574219 75.035157-58.8125-1.15625-3.722656-2.65625-7.296875-4.46875-10.679687-35.597657 12.578125-68.167969 33.496094-93.617188 61.472656-2.398438 2.636719-4.714844 5.3125-6.949219 8.019531 5.277344 6.015625 11.71875 10.980469 18.957031 14.578125zm0 0" fill="#c7c5cb"/><path d="m455.636719 92.925781c-11.28125 12.863281-27.835938 20.996094-46.292969 20.996094-33.976562 0-61.511719-27.539063-61.511719-61.515625 0-10.476562 2.613281-20.339844 7.238281-28.972656 43.601563 15.410156 76.726563 40.621094 100.566407 69.492187zm0 0" fill="#e8e8e8"/><path d="m504.40625 225.066406c-.757812 20.722656-6.183594 38.058594-15.675781 49-21.019531 24.214844-45.089844 29.699219-76.207031 28.335938-4.4375-8.5-6.949219-18.179688-6.949219-28.429688 0-33.96875 27.535156-61.515625 61.511719-61.515625 14.035156 0 26.976562 4.707031 37.320312 12.609375zm0 0" fill="#e8e8e8"/><path d="m182.882812 371.105469v11.875c0 4.144531 3.359376 7.5 7.5 7.5 4.140626 0 7.5-3.355469 7.5-7.5v-11.875c0-4.140625-3.359374-7.5-7.5-7.5-4.140624 0-7.5 3.359375-7.5 7.5zm0 0"/><path d="m314.109375 371.105469v11.875c0 4.144531 3.359375 7.5 7.5 7.5 4.144531 0 7.5-3.355469 7.5-7.5v-11.875c0-4.140625-3.355469-7.5-7.5-7.5-4.140625 0-7.5 3.359375-7.5 7.5zm0 0"/><path d="m266.542969 377.21875c-2.554688 2.925781-6.398438 4.601562-10.546875 4.601562-4.144532 0-7.992188-1.675781-10.546875-4.601562-2.726563-3.117188-7.464844-3.4375-10.582031-.710938-3.121094 2.726563-3.4375 7.464844-.710938 10.582032 5.40625 6.183594 13.367188 9.730468 21.839844 9.730468 8.476562 0 16.4375-3.546874 21.839844-9.730468 2.726562-3.117188 2.410156-7.855469-.707032-10.582032-3.121094-2.726562-7.859375-2.40625-10.585937.710938zm0 0"/><path d="m325.011719 155.046875c0-38.054687-30.960938-69.015625-69.015625-69.015625-38.054688 0-69.015625 30.960938-69.015625 69.015625s30.960937 69.015625 69.015625 69.015625c38.054687 0 69.015625-30.960938 69.015625-69.015625zm-123.03125 0c0-29.785156 24.230469-54.015625 54.015625-54.015625s54.015625 24.230469 54.015625 54.015625-24.230469 54.015625-54.015625 54.015625-54.015625-24.230469-54.015625-54.015625zm0 0"/><path d="m25.734375 207.660156c-3.601563 1.03125-7.117187 2.355469-10.480469 3.960938 1.144532-19.289063 6.132813-40.199219 14.453125-60.160156 1.59375-3.824219-.214843-8.214844-4.039062-9.808594-3.820313-1.59375-8.214844.214844-9.808594 4.039062-11.070313 26.5625-16.667969 54.851563-15.765625 79.652344.839844 22.855469 6.890625 41.402344 17.507812 53.636719 20.945313 24.132812 51.183594 32.273437 82.199219 30.914062 13.226563-.578125 27.335938-2.316406 43.273438-4.433593-11.757813 27.816406-23.507813 68.558593-23.507813 120.339843 0 28.445313 23.140625 51.585938 51.585938 51.585938h169.6875c28.445312 0 51.585937-23.140625 51.585937-51.585938 0-11.164062-.5625-22.390625-1.664062-33.375-.414063-4.121093-4.097657-7.125-8.210938-6.710937-4.121093.414062-7.128906 4.089844-6.714843 8.210937 1.054687 10.484375 1.589843 21.210938 1.589843 31.875 0 20.171875-16.414062 36.585938-36.585937 36.585938h-169.6875c-20.171875 0-36.585938-16.414063-36.585938-36.585938 0-54.726562 13.714844-96.398437 25.9375-122.664062 17.5-2.296875 35.921875-4.503907 55.976563-5.859375 26.148437-1.765625 52.753906-1.753906 79.058593 0 20.042969 1.355468 38.460938 3.5625 55.953126 5.859375 9.023437 19.371093 15.8125 40.445312 20.195312 62.707031.800781 4.0625 4.746094 6.707031 8.804688 5.910156 4.066406-.800781 6.710937-4.742187 5.914062-8.808594-3.972656-20.179687-9.835938-39.457031-17.472656-57.484374 17.242187 2.289062 34.589844 4.632812 52.015625 4.632812 32.550781 0 54.515625-9.304688 73.445312-31.113281 10.613281-12.234375 16.667969-30.78125 17.503907-53.640625 1.664062-45.601563-17.207032-96.886719-50.484376-137.195313-27.140624-32.871093-62.082031-57.023437-103.847656-71.785156-30.710937-10.855469-64.882812-16.359375-101.566406-16.359375-36.6875 0-70.859375 5.503906-101.570312 16.363281-41.765626 14.757813-76.707032 38.910157-103.851563 71.789063-7.71875 9.351562-14.75 19.394531-20.898437 29.863281-2.097657 3.570313-.902344 8.164063 2.667968 10.265625 3.570313 2.097656 8.167969.902344 10.265625-2.667969 4.351563-7.410156 9.179688-14.59375 14.398438-21.441406.339843.300781.695312.585937 1.042969.878906 12.296874 10.417969 28.441406 16.371094 44.566406 16.371094h.03125c36.867187 0 67.074218-29.054687 68.925781-65.46875.480469-9.480469-1.113281-18.78125-4.273437-27.703125-.042969-.113281-.078126-.230469-.121094-.34375 27.078125-8.566406 56.914062-12.90625 88.816406-12.90625s61.734375 4.339844 88.8125 12.90625c-3.375 8.902344-4.875 18.539062-4.390625 28.046875 1.851563 36.414063 32.058594 65.46875 68.921875 65.46875h.03125c16.378906-.003906 33.234375-6.339844 45.609375-17.25 13.566406 17.816406 24.453125 37.96875 31.695313 58.742187 5.75 16.488282 9.164062 33.089844 10.074218 48.710938-.117187-.054688-.238281-.101562-.355468-.15625-9.121094-4.3125-19.230469-6.511719-29.3125-6.511719-38.054688 0-69.015626 30.960938-69.015626 69.015625 0 6.808594 1.015626 13.628906 3 20.144532-11.28125-.992188-23.523437-2.628907-37.132812-4.453126-18.261719-2.445312-37.996094-5.078124-59.984375-6.8125-.113281-.007812-.222656-.015624-.332031-.023437-29.75-2.363281-59.757813-2.496094-89.535156-.421875-22.101563 1.539062-44.074219 4.320312-66.027344 7.257812-13.609375 1.824219-25.855469 3.464844-37.132813 4.453126 1.980469-6.511719 3-13.335938 3-20.144532 0-45.035156-45.035156-78.675781-88.191406-66.3125zm127.285156-174.789062c.007813.019531.015625.039062.023438.058594 3.367187 8.757812 4.417969 18.417968 3 27.691406-3.96875 25.898437-26.402344 45.800781-53.394531 45.800781-13.207032 0-26.300782-5.042969-36.117188-13.871094 23.285156-26.492187 52.328125-46.53125 86.488281-59.679687zm292.441407 59.679687c-.40625.367188-.820313.726563-1.238282 1.082031-9.644531 8.152344-22.246094 12.789063-34.878906 12.789063-26.992188 0-49.421875-19.902344-53.394531-45.800781-1.402344-9.15625-.386719-18.753906 2.902343-27.417969.035157-.089844.0625-.183594.097657-.273437.007812-.019532.019531-.039063.027343-.058594 34.15625 13.148437 63.199219 33.1875 86.484376 59.679687zm37.601562 176.597657c-15.996094 18.429687-33.988281 25.945312-62.113281 25.945312-1.164063 0-2.359375-.011719-3.585938-.039062-.191406-.453126-.378906-.90625-.5625-1.367188-2.445312-6.261719-3.730469-12.988281-3.730469-19.714844 0-29.785156 24.230469-54.015625 54.011719-54.015625h.058594c10.457031 0 20.824219 3.085938 29.554687 8.839844-1.199218 17.316406-5.988281 31.542969-13.632812 40.351563zm-454.132812 0c-7.644532-8.8125-12.433594-23.039063-13.632813-40.351563 6.492187-4.289063 13.960937-7.140625 21.660156-8.257813 32.140625-4.65625 61.964844 20.855469 61.964844 53.433594 0 7.234375-1.476563 14.425782-4.292969 21.085938-1.226562.023437-2.421875.039062-3.585937.039062-28.121094-.003906-46.117188-7.519531-62.113281-25.949218zm0 0"/></svg>