<svg height="512pt" viewBox="0 -23 512 512" width="512pt" xmlns="http://www.w3.org/2000/svg"><path d="m504.5 82.441406c0 41.390625-33.554688 74.945313-74.941406 74.945313-41.390625 0-74.945313-33.554688-74.945313-74.945313 0-41.386718 33.554688-74.941406 74.945313-74.941406 41.386718 0 74.941406 33.554688 74.941406 74.941406zm0 0" fill="#4f4c5f"/><path d="m157.386719 82.441406c0 41.390625-33.554688 74.945313-74.945313 74.945313s-74.941406-33.554688-74.941406-74.945313c0-41.386718 33.550781-74.941406 74.941406-74.941406s74.945313 33.554688 74.945313 74.941406zm0 0" fill="#4f4c5f"/><path d="m487.96875 129.371094c-12.171875-23.261719-27.933594-44.792969-47.027344-63.886719-17.027344-17.027344-35.992187-31.417969-56.390625-42.964844-18.179687 13.675781-29.9375 35.425781-29.9375 59.921875 0 41.390625 33.554688 74.945313 74.945313 74.945313 23.621094 0 44.675781-10.941407 58.410156-28.015625zm0 0" fill="#423e4f"/><path d="m24.027344 129.371094c13.738281 17.074218 34.792968 28.015625 58.414062 28.015625 41.390625 0 74.945313-33.554688 74.945313-74.945313 0-24.5-11.757813-46.25-29.9375-59.921875-20.398438 11.546875-39.363281 25.9375-56.390625 42.964844-19.09375 19.09375-34.855469 40.628906-47.03125 63.886719zm0 0" fill="#423e4f"/><path d="m117.464844 82.441406c0 19.34375-15.679688 35.023438-35.023438 35.023438s-35.023437-15.679688-35.023437-35.023438c0-19.339844 15.679687-35.019531 35.023437-35.019531s35.023438 15.679687 35.023438 35.019531zm0 0" fill="#ffc9d3"/><path d="m464.578125 82.441406c0 19.34375-15.679687 35.023438-35.019531 35.023438-19.34375 0-35.023438-15.679688-35.023438-35.023438 0-19.339844 15.679688-35.019531 35.023438-35.019531 19.339844 0 35.019531 15.679687 35.019531 35.019531zm0 0" fill="#ffc9d3"/><path d="m48.511719 91.144531c3.867187 15.132813 17.59375 26.320313 33.929687 26.320313 19.34375 0 35.023438-15.679688 35.023438-35.023438 0-16.734375-11.742188-30.71875-27.433594-34.1875-6.554688 5.402344-12.890625 11.144532-18.976562 17.230469-8.125 8.128906-15.640626 16.707031-22.542969 25.660156zm0 0" fill="#ff9db0"/><path d="m440.941406 65.484375c-6.082031-6.085937-12.417968-11.828125-18.972656-17.230469-15.695312 3.46875-27.4375 17.453125-27.4375 34.1875 0 19.34375 15.683594 35.023438 35.023438 35.023438 16.339843 0 30.0625-11.1875 33.933593-26.320313-6.902343-8.953125-14.417969-17.53125-22.546875-25.660156zm0 0" fill="#ff9db0"/><path d="m256 8.878906c-133.402344 0-241.550781 108.144532-241.550781 241.550782 0 199.445312 52.078125 208.308593 241.550781 208.308593s241.550781-8.863281 241.550781-208.308593c0-133.40625-108.148437-241.550782-241.550781-241.550782zm0 0" fill="#e8e8e8"/><path d="m44.449219 250.429688c0-128.367188 100.136719-233.324219 226.550781-241.074219-4.964844-.304688-9.960938-.476563-15-.476563-133.402344 0-241.550781 108.144532-241.550781 241.550782 0 199.445312 52.078125 208.308593 241.550781 208.308593 5.101562 0 10.097656-.007812 15-.023437-177.234375-.59375-226.550781-14.210938-226.550781-208.285156zm0 0" fill="#c7c5cb"/><path d="m154.679688 151.816406c-26.65625 0-51.867188 12.339844-68.601563 33.019532-15.050781 18.601562-31.546875 53.105468-19.011719 76.605468 9.554688 17.917969 35.820313 23.023438 53.996094 26.730469 20.507812 4.183594 44.988281 5.46875 61.820312-9.257813 22.992188-20.113281 30.667969-57.109374 25.238282-86.28125-5.085938-27.335937-26.613282-40.816406-53.441406-40.816406zm0 0" fill="#4f4c5f"/><path d="m357.320312 151.816406c26.65625 0 51.863282 12.339844 68.601563 33.019532 15.050781 18.601562 31.542969 53.105468 19.011719 76.605468-9.554688 17.917969-35.820313 23.023438-53.996094 26.730469-20.507812 4.183594-44.988281 5.46875-61.820312-9.257813-22.996094-20.113281-30.667969-57.109374-25.238282-86.28125 5.085938-27.335937 26.613282-40.816406 53.441406-40.816406zm0 0" fill="#4f4c5f"/><path d="m275.164062 261.777344h-38.328124c-4.03125 0-7.839844 3.996094-6.476563 7.792968 3.882813 10.820313 14.144531 18.035157 25.640625 18.035157s21.753906-7.214844 25.636719-18.035157c1.363281-3.796874-2.441407-7.792968-6.472657-7.792968zm0 0" fill="#423e4f"/><path d="m154.679688 144.316406c-28.886719 0-56.015626 13.046875-74.429688 35.800782-9.171875 11.335937-16.886719 25.515624-21.164062 38.902343-5.675782 17.75-5.203126 33.640625 1.359374 45.949219 11.074219 20.761719 39.484376 26.550781 58.285157 30.382812 8.949219 1.8125 18.007812 3.113282 27.160156 3.113282 17.273437 0 31.382813-4.679688 41.929687-13.90625 26.609376-23.277344 33-64.679688 27.671876-93.296875-5.46875-29.398438-28.203126-46.945313-60.8125-46.945313zm23.265624 128.953125c-7.84375 6.863281-18.328124 10.195313-32.054687 10.195313-8.144531 0-16.199219-1.199219-24.164063-2.8125-17.003906-3.464844-40.292968-8.210938-48.042968-22.742188-5.828125-10.929687-3.386719-24.699218-.3125-34.324218 3.679687-11.511719 10.609375-24.234376 18.539062-34.03125 15.550782-19.21875 38.429688-30.238282 62.769532-30.238282 25.175781 0 41.96875 12.644532 46.070312 34.6875 6.519531 35.050782-7.25 65.65625-22.804688 79.265625zm0 0"/><path d="m158.242188 211.660156c-4.140626 0-7.5 3.359375-7.5 7.5v18.457032c0 4.144531 3.359374 7.5 7.5 7.5 4.144531 0 7.5-3.355469 7.5-7.5v-18.457032c0-4.140625-3.355469-7.5-7.5-7.5zm0 0"/><path d="m324.179688 284.558594c10.546874 9.226562 24.65625 13.90625 41.929687 13.90625 9.15625 0 18.203125-1.316406 27.160156-3.113282 18.800781-3.832031 47.210938-9.621093 58.285157-30.382812 6.5625-12.308594 7.035156-28.199219 1.359374-45.949219-4.277343-13.386719-11.992187-27.566406-21.164062-38.902343-18.414062-22.753907-45.542969-35.800782-74.429688-35.800782-32.609374 0-55.347656 17.546875-60.816406 46.945313-5.324218 28.617187 1.066406 70.019531 27.675782 93.296875zm-12.925782-90.554688c4.101563-22.042968 20.890625-34.6875 46.066406-34.6875 24.339844 0 47.21875 11.019532 62.769532 30.238282 7.929687 9.796874 14.859375 22.519531 18.539062 34.03125 3.074219 9.625 5.519532 23.394531-.3125 34.324218-7.75 14.53125-31.039062 19.277344-48.042968 22.742188-8.015626 1.484375-15.984376 2.816406-24.164063 2.816406-13.726563 0-24.210937-3.335938-32.054687-10.199219-15.554688-13.609375-29.324219-44.214843-22.800782-79.265625zm0 0"/><path d="m353.757812 245.117188c4.140626 0 7.5-3.355469 7.5-7.5v-18.457032c0-4.140625-3.359374-7.5-7.5-7.5-4.144531 0-7.5 3.359375-7.5 7.5v18.457032c0 4.144531 3.355469 7.5 7.5 7.5zm0 0"/><path d="m256 295.105469c14.617188 0 27.761719-9.242188 32.699219-23 1.386719-3.871094.765625-8.101563-1.703125-11.613281-2.699219-3.835938-7.230469-6.214844-11.832032-6.214844h-38.328124c-4.601563 0-9.136719 2.378906-11.832032 6.214844-2.472656 3.511718-3.089844 7.742187-1.703125 11.613281 4.9375 13.757812 18.082031 23 32.699219 23zm17.613281-25.828125c-3.324219 6.5625-10.128906 10.828125-17.613281 10.828125s-14.289062-4.265625-17.613281-10.828125zm0 0"/><path d="m215.902344 306.726562c-3.117188 2.722657-3.4375 7.460938-.710938 10.582032 5.746094 6.574218 14.210938 10.339844 23.230469 10.339844 6.394531 0 12.511719-1.90625 17.578125-5.355469 5.070312 3.449219 11.183594 5.355469 17.582031 5.355469 9.015625 0 17.480469-3.769532 23.226563-10.339844 2.726562-3.121094 2.410156-7.855469-.710938-10.582032-3.117187-2.730468-7.855468-2.410156-10.582031.707032-2.898437 3.316406-7.246094 5.214844-11.933594 5.214844s-9.035156-1.898438-11.933593-5.214844c-2.933594-3.355469-8.363282-3.351563-11.292969 0-2.898438 3.3125-7.246094 5.214844-11.933594 5.214844-4.691406 0-9.039063-1.898438-11.9375-5.214844-2.722656-3.117188-7.464844-3.4375-10.582031-.707032zm0 0"/><path d="m512 82.441406c0-45.457031-36.984375-82.441406-82.441406-82.441406-23.902344 0-46.046875 10.050781-61.699219 27.773438-34.277344-17.261719-72.367187-26.394532-111.859375-26.394532-39.398438 0-77.386719 9.054688-111.824219 26.429688-15.65625-17.746094-37.8125-27.808594-61.734375-27.808594-45.457031 0-82.441406 36.984375-82.441406 82.441406 0 24.613282 11.085938 47.910156 29.921875 63.511719-4.492187 9.65625-8.367187 19.59375-11.558594 29.75-1.242187 3.953125.957031 8.160156 4.90625 9.402344 3.957031 1.242187 8.164063-.957031 9.40625-4.90625 8.632813-27.484375 22.535157-53.304688 40.570313-75.875 44.117187-55.203125 112.097656-87.945313 182.753906-87.945313 88.574219 0 170.6875 50.964844 210 130.625.140625.28125.300781.550782.472656.808594 15.417969 31.558594 23.578125 66.457031 23.578125 102.617188 0 25.539062-.851562 47.066406-2.605469 65.816406-.386718 4.125 2.644532 7.78125 6.769532 8.164062.238281.023438.472656.035156.707031.035156 3.828125 0 7.09375-2.917968 7.457031-6.800781 1.796875-19.21875 2.671875-41.203125 2.671875-67.214843 0-36.710938-7.90625-72.203126-22.882812-104.550782 18.785156-15.601562 29.832031-38.863281 29.832031-63.4375zm-415.488281-23.277344c-13.65625 11.445313-26.140625 24.296876-37.09375 38.359376-2.90625-4.433594-4.496094-9.652344-4.496094-15.082032 0-15.175781 12.34375-27.519531 27.519531-27.519531 5.09375 0 10.046875 1.421875 14.324219 4.027344-.085937.070312-.167969.144531-.253906.214843zm-81.511719 23.277344c0-37.1875 30.253906-67.441406 67.441406-67.441406 18.394532 0 35.519532 7.273438 48.148438 20.207031-7.359375 4.308594-14.53125 9.015625-21.496094 14.113281-7.503906-6.03125-16.90625-9.398437-26.648438-9.398437-23.449218 0-42.523437 19.074219-42.523437 42.519531 0 10.285156 3.695313 20.085938 10.308594 27.75-4.839844 7.0625-9.320313 14.375-13.398438 21.902344-13.800781-12.699219-21.832031-30.699219-21.832031-49.652344zm437.605469 15.042969c-5.445313-6.964844-11.296875-13.671875-17.523438-20.113281-6.277343-6.488282-12.898437-12.648438-19.828125-18.433594 4.269532-2.597656 9.214844-4.019531 14.304688-4.019531 15.175781 0 27.523437 12.347656 27.523437 27.523437-.003906 5.414063-1.585937 10.617188-4.476562 15.042969zm9.226562 12.640625c6.574219-7.65625 10.246094-17.429688 10.246094-27.683594 0-23.445312-19.074219-42.519531-42.519531-42.519531-9.734375 0-19.117188 3.359375-26.617188 9.375-6.945312-5.09375-14.121094-9.800781-21.5-14.117187 12.625-12.917969 29.738282-20.179688 48.117188-20.179688 37.1875 0 67.441406 30.253906 67.441406 67.441406 0 18.921875-8.007812 36.902344-21.773438 49.59375-4.066406-7.507812-8.539062-14.820312-13.394531-21.910156zm0 0"/><path d="m19.734375 199.421875c-4.070313-.738281-7.980469 1.960937-8.722656 6.03125-2.695313 14.773437-4.0625 29.902344-4.0625 44.976563 0 105.03125 14.792969 156.890624 52.765625 184.976562 38.878906 28.757812 100.09375 30.832031 196.285156 30.832031 75.003906 0 131.128906-1.199219 170.375-16.703125 40.652344-16.058594 62.1875-46.457031 72.007812-101.640625.726563-4.078125-1.992187-7.972656-6.070312-8.699219-4.082031-.726562-7.972656 1.992188-8.699219 6.070313-17.390625 97.753906-69.851562 105.972656-227.613281 105.972656-90.398438 0-152.28125-1.941406-187.367188-27.894531-33.59375-24.847656-46.683593-73.328125-46.683593-172.914062 0-14.171876 1.285156-28.398438 3.820312-42.28125.742188-4.074219-1.957031-7.984376-6.035156-8.726563zm0 0"/></svg>