<svg height="512pt" viewBox="0 -28 512 512" width="512pt" xmlns="http://www.w3.org/2000/svg"><path d="m140.167969 84.261719c0 35.214843-28.550781 63.761719-63.765625 63.761719s-63.765625-28.546876-63.765625-63.761719c0-35.21875 28.550781-63.765625 63.765625-63.765625s63.765625 28.546875 63.765625 63.765625zm0 0" fill="#c76d33"/><path d="m73.378906 109.75c-15.71875 0-28.511718-12.789062-28.511718-28.511719 0-15.722656 12.792968-28.511719 28.511718-28.511719 15.722656 0 28.511719 12.789063 28.511719 28.511719 0 15.722657-12.789063 28.511719-28.511719 28.511719zm0 0" fill="#f5d5c4"/><path d="m499.367188 84.261719c0 35.214843-28.550782 63.761719-63.765626 63.761719-35.21875 0-63.765624-28.546876-63.765624-63.761719 0-35.21875 28.546874-63.765625 63.765624-63.765625 35.214844 0 63.765626 28.546875 63.765626 63.765625zm0 0" fill="#c76d33"/><path d="m438.621094 109.75c15.722656 0 28.511718-12.789062 28.511718-28.511719 0-15.722656-12.789062-28.511719-28.511718-28.511719-15.71875 0-28.511719 12.789063-28.511719 28.511719 0 15.722657 12.792969 28.511719 28.511719 28.511719zm0 0" fill="#f5d5c4"/><path d="m7.964844 240.738281c7.886718-130.148437 115.925781-233.238281 248.039062-233.238281 132.109375 0 240.148438 103.09375 248.035156 233.238281l-248.035156 59.707031zm0 0" fill="#de8957"/><path d="m37.632812 247.882812c.078126-2.390624.183594-4.773437.332032-7.144531 7.585937-125.183593 107.835937-225.316406 233.03125-232.777343-.011719 0-.027344 0-.039063 0-4.972656-.34375-9.976562-.460938-14.957031-.460938-61.925781 0-118.5625 22.652344-162.074219 60.125-8.703125 7.492188-16.882812 15.582031-24.472656 24.199219-35.417969 40.214843-58.039063 91.976562-61.488281 148.914062zm0 0" fill="#c76d33"/><path d="m504.5 256c0 137.238281-111.261719 192.675781-248.5 192.675781s-248.5-55.4375-248.5-192.675781c0-5.128906.152344-10.214844.464844-15.261719 12.015625-50.753906 57.625-88.527343 112.054687-88.527343 63.597657 0 115.160157 51.5625 115.160157 115.160156h41.640624c0-63.597656 51.5625-115.160156 115.160157-115.160156 54.433593 0 100.042969 37.773437 112.058593 88.527343.3125 5.046875.460938 10.132813.460938 15.261719zm0 0" fill="#f5d5c4"/><path d="m256 448.675781h.140625c2.589844 0 12.488281-.160156 14.855469-.234375-130.25-3.957031-233.496094-60.242187-233.496094-192.441406 0-27.421875 4.523438-54.804688 13.429688-80.742188-21.15625 15.898438-36.671876 38.902344-42.964844 65.480469-.15625 2.523438-.273438 5.058594-.351563 7.601563-.5 16.660156.578125 33.417968 3.769531 49.789062 20.765626 106.574219 122.390626 150.546875 244.617188 150.546875zm0 0" fill="#edb798"/><path d="m276.820312 267.371094h-41.640624c-4.378907 0-8.511719 4.34375-7.03125 8.464844 4.21875 11.757812 15.363281 19.597656 27.851562 19.597656 12.492188 0 23.636719-7.839844 27.855469-19.597656 1.480469-4.121094-2.65625-8.464844-7.035157-8.464844zm0 0" fill="#423e4f"/><path d="m241.886719 326.039062v22.625c0 4.195313 3.398437 7.597657 7.59375 7.597657h13.042969c4.195312 0 7.59375-3.402344 7.59375-7.597657v-22.625l-14.117188-3.121093zm0 0" fill="#fff"/><path d="m142.074219 308.359375h-21.394531c-4.140626 0-7.5 3.359375-7.5 7.5 0 4.144531 3.359374 7.5 7.5 7.5h21.394531c4.144531 0 7.5-3.355469 7.5-7.5 0-4.140625-3.355469-7.5-7.5-7.5zm0 0" fill="#ff9db0"/><path d="m391.320312 308.359375h-21.394531c-4.140625 0-7.5 3.359375-7.5 7.5 0 4.144531 3.359375 7.5 7.5 7.5h21.394531c4.144532 0 7.5-3.355469 7.5-7.5 0-4.140625-3.355468-7.5-7.5-7.5zm0 0" fill="#ff9db0"/><path d="m249.480469 363.761719h13.039062c8.324219 0 15.097657-6.773438 15.097657-15.097657v-16.1875c4.742187-1.371093 9.015624-4.027343 12.261718-7.746093 2.726563-3.117188 2.410156-7.855469-.710937-10.582031-3.117188-2.726563-7.855469-2.410157-10.582031.710937-2.046876 2.339844-5.132813 3.679687-8.46875 3.679687-3.339844 0-6.425782-1.339843-8.472657-3.679687-1.5-1.691406-3.742187-2.660156-6.007812-2.550781-2 .097656-3.964844 1.039062-5.285157 2.550781-2.042968 2.339844-5.132812 3.683594-8.46875 3.683594-3.335937 0-6.425781-1.34375-8.46875-3.683594-2.726562-3.117187-7.464843-3.4375-10.585937-.710937-3.117187 2.726562-3.433594 7.464843-.710937 10.582031 3.25 3.71875 7.519531 6.375 12.265624 7.746093v16.191407c0 8.320312 6.773438 15.09375 15.097657 15.09375zm13.039062-15h-13.039062c-.054688 0-.097657-.042969-.097657-.097657v-16.1875c2.34375-.679687 4.570313-1.671874 6.617188-2.949218 2.046875 1.277344 4.273438 2.269531 6.617188 2.949218v16.1875c0 .054688-.042969.097657-.097657.097657zm0 0"/><path d="m152.476562 294.390625v-14.367187c0-4.144532-3.359374-7.5-7.5-7.5-4.144531 0-7.5 3.355468-7.5 7.5v14.367187c0 4.140625 3.355469 7.5 7.5 7.5 4.140626 0 7.5-3.359375 7.5-7.5zm0 0"/><path d="m367.023438 272.523438c-4.140626 0-7.5 3.355468-7.5 7.5v14.367187c0 4.140625 3.359374 7.5 7.5 7.5 4.144531 0 7.5-3.359375 7.5-7.5v-14.367187c0-4.144532-3.355469-7.5-7.5-7.5zm0 0"/><path d="m482.960938 137.492188c15.070312-13.449219 23.902343-32.898438 23.902343-53.230469 0-39.296875-31.96875-71.265625-71.261719-71.265625-19.410156 0-37.664062 7.808594-51.050781 21.585937-9.90625-5.761719-20.21875-10.871093-30.886719-15.277343-3.828124-1.582032-8.214843.242187-9.792968 4.070312-1.582032 3.828125.238281 8.214844 4.066406 9.792969 11.949219 4.9375 23.429688 10.8125 34.355469 17.542969 35.054687 21.613281 64.394531 52.304687 84.425781 88.28125 9.226562 16.582031 16.445312 34.152343 21.507812 52.378906-3.988281-5.054688-17.292968-18.230469-19.621093-19.78125-21.582031-17.289063-48.976563-26.878906-76.625-26.878906-65.117188 0-118.542969 51.003906-122.433594 115.160156h-27.09375c-3.886719-64.15625-57.316406-115.160156-122.433594-115.160156-27.347656 0-55.039062 9.589843-76.621093 26.878906-6.824219 5.464844-12.972657 11.667968-18.519532 18.421875-.371094.457031-.746094.90625-1.113281 1.371093 7.464844-26.871093 19.695313-52.410156 35.902344-75.101562 43.863281-61.4375 115.777343-101.28125 196.332031-101.28125 21.988281 0 43.796875 2.96875 64.824219 8.828125 3.988281 1.113281 8.125-1.222656 9.238281-5.210937 1.109375-3.992188-1.222656-8.128907-5.214844-9.238282-22.335937-6.222656-45.5-9.378906-68.847656-9.378906-46.679688 0-90.621094 12.601562-128.492188 34.644531-13.390624-13.816406-31.671874-21.648437-51.109374-21.648437-39.292969 0-71.261719 31.96875-71.261719 71.265625 0 20.34375 8.839843 39.804687 23.925781 53.253906-16.242188 31-26.339844 65.773437-28.585938 102.761719-.316406 5.121094-.476562 10.414062-.476562 15.722656 0 39.9375 9.230469 74.878906 27.4375 103.851562 16.949219 26.972657 41.628906 48.753907 73.359375 64.734376 3.695313 1.863281 8.207031.375 10.070313-3.320313 1.863281-3.699219.375-8.210937-3.324219-10.074219-29.25-14.734375-51.929688-34.695312-67.40625-59.320312-16.679688-26.546875-25.136719-58.800782-25.136719-95.871094 0-4.761719.136719-9.496094.40625-14.097656 2.296875-9.464844 5.972656-18.496094 10.65625-27.027344 18.570312-33.824219 55.484375-55.164062 93.957031-55.164062 16.945313 0 33.890625 4.0625 48.96875 11.796874 32.492188 16.664063 55.457031 49.367188 58.375 87.589844.074219.972656.132813 1.945313.183594 2.921875-1.832031 1.089844-3.449219 2.558594-4.691406 4.324219-2.558594 3.640625-3.203125 8.023438-1.769531 12.023438 5.273437 14.691406 19.304687 24.5625 34.914062 24.5625s29.640625-9.871094 34.914062-24.5625c1.433594-4 .789063-8.382813-1.769531-12.023438-1.242187-1.765625-2.859375-3.234375-4.691406-4.324219.050781-.976562.109375-1.953125.183594-2.921875 2.917969-38.222656 25.882812-70.925781 58.371093-87.589844 15.089844-7.742187 32.019532-11.796874 48.972657-11.796874 24.730469 0 47.984375 8.15625 67.246093 23.585937 17.789063 14.253906 31.058594 34.589844 36.859376 56.652344 1.292968 4.921875.914062 10.863281.914062 16.050781 0 62.152344-23.398438 109.804688-69.542969 141.628906-41.308593 28.488282-100.597656 43.546875-171.457031 43.546875-46.292969 0-87.414062-6.320312-122.21875-18.785156-3.902344-1.394531-8.195312.632813-9.589844 4.535156-1.398437 3.898438.632813 8.191407 4.53125 9.585938 36.433594 13.050781 79.253906 19.664062 127.277344 19.664062 73.914062 0 136.148438-15.976562 179.972656-46.199219 24.203125-16.691406 42.933594-37.738281 55.671875-62.546874 13.507813-26.316407 20.355469-57.078126 20.355469-91.429688 0-5.3125-.160156-10.601562-.476562-15.726562-2.191407-36.097657-11.960938-71.046876-28.5625-102.78125zm-85.316407-94.761719c10.308594-9.445313 23.746094-14.734375 37.957031-14.734375 31.023438 0 56.261719 25.238281 56.261719 56.265625 0 14.9375-6.039062 29.28125-16.476562 39.757812-3.550781-5.886719-7.347657-11.648437-11.386719-17.265625 6.753906-6.683594 10.632812-15.769531 10.632812-25.515625 0-19.855469-16.15625-36.011719-36.011718-36.011719-9.117188 0-17.777344 3.472657-24.363282 9.535157-5.351562-4.214844-10.871093-8.207031-16.542968-11.984375-.023438-.015625-.046875-.03125-.070313-.046875zm57.128907 51.941406c-1.253907-1.542969-5.902344-7.003906-6.960938-8.199219-6.867188-7.769531-14.179688-15.097656-21.894531-21.949218 3.613281-2.753907 8.058593-4.296876 12.703125-4.296876 11.585937 0 21.011718 9.425782 21.011718 21.011719 0 5-1.75 9.714844-4.859374 13.433594zm-379.125-20.324219c-6.492188 6.441406-12.652344 13.226563-18.417969 20.324219-3.113281-3.71875-4.863281-8.433594-4.863281-13.433594 0-11.585937 9.425781-21.011719 21.011718-21.011719 4.648438 0 9.097656 1.546876 12.714844 4.300782-1.570312 1.394531-8.542969 7.933594-10.445312 9.820312zm-55.511719 9.914063c0-31.027344 25.238281-56.265625 56.265625-56.265625 14.207031 0 27.644531 5.285156 37.953125 14.734375-5.699219 3.792969-11.230469 7.820312-16.597657 12.046875-6.585937-6.070313-15.253906-9.550782-24.378906-9.550782-19.855468 0-36.011718 16.15625-36.011718 36.011719 0 9.75 3.882812 18.839844 10.640624 25.523438-4.019531 5.59375-7.824218 11.347656-11.390624 17.261719-10.4375-10.476563-16.480469-24.820313-16.480469-39.761719zm235.863281 203.671875c-8.730469 0-16.632812-5.1875-20.164062-13.0625h40.328124c-3.53125 7.875-11.433593 13.0625-20.164062 13.0625zm0 0"/></svg>