<svg height="512pt" viewBox="-3 0 512 512.00017" width="512pt" xmlns="http://www.w3.org/2000/svg"><g fill="#ff748f"><path d="m354.964844 418.339844c6.203125 20.605468 3.105468 39.820312-8.597656 57.738281-6.078126 9.308594-13.539063 17.558594-21.84375 24.921875-5.742188 5.097656-14.53125 4.574219-19.628907-1.171875-4.671875-5.261719-4.621093-13.085937-.160156-18.277344 8.644531-10.0625 18.207031-22.101562 18.546875-36.003906.214844-8.792969-4.703125-16.480469-8.25-24.324219-3.035156-6.707031-16.386719-36.210937-16.386719-36.210937-5.066406-11.199219-.097656-24.382813 11.097657-29.453125 11.199218-5.066406 24.386718-.097656 29.453124 11.101562.390626.863282 14.585938 47.746094 15.761719 51.652344.003907.007812.003907.019531.007813.027344zm0 0"/><path d="m422.535156 372.183594c14.359375 16.027344 19.710938 34.734375 16.714844 55.929687-1.554688 11.007813-4.8125 21.640625-9.203125 31.835938-3.035156 7.054687-11.21875 10.308593-18.269531 7.269531-6.464844-2.785156-9.738282-9.890625-7.902344-16.484375 3.558594-12.777344 7.109375-27.738281 1.519531-40.46875-3.535156-8.054687-11.253906-12.929687-17.796875-18.527344-5.589844-4.78125-30.203125-25.835937-30.203125-25.835937-9.339843-7.988282-10.4375-22.035156-2.445312-31.378906 7.988281-9.339844 22.039062-10.433594 31.378906-2.445313.722656.621094 33.464844 37.046875 36.191406 40.082031.003907.007813.007813.015625.015625.023438zm0 0"/><path d="m449.445312 300.371094c20.238282 7.308594 33.8125 21.253906 41.214844 41.335937 3.847656 10.429688 6.019532 21.335938 6.980469 32.394531.667969 7.652344-4.996094 14.394532-12.648437 15.058594-7.011719.609375-13.257813-4.09375-14.765626-10.773437-2.921874-12.9375-6.882812-27.796875-17.839843-36.359375-6.929688-5.414063-16.035157-6.054688-24.445313-7.882813-7.195312-1.5625-38.839844-8.441406-38.839844-8.441406-12.011718-2.609375-19.632812-14.464844-17.019531-26.472656 2.609375-12.011719 14.460938-19.632813 26.472657-17.023438.929687.203125 47.023437 16.765625 50.863281 18.152344.007812.003906.015625.007813.027343.011719zm0 0"/><path d="m150.339844 418.339844c-6.203125 20.605468-3.109375 39.820312 8.597656 57.738281 6.078125 9.308594 13.539062 17.558594 21.839844 24.921875 5.746094 5.097656 14.535156 4.574219 19.632812-1.171875 4.671875-5.261719 4.621094-13.085937.15625-18.277344-8.640625-10.0625-18.203125-22.101562-18.546875-36.003906-.214843-8.792969 4.707031-16.480469 8.253907-24.324219 3.035156-6.707031 16.386718-36.210937 16.386718-36.210937 5.066406-11.199219.097656-24.382813-11.101562-29.453125-11.195313-5.066406-24.382813-.097656-29.449219 11.101562-.394531.863282-14.585937 47.746094-15.761719 51.652344-.003906.007812-.007812.019531-.007812.027344zm0 0"/><path d="m82.769531 372.183594c-14.359375 16.027344-19.710937 34.734375-16.714843 55.929687 1.554687 11.007813 4.808593 21.640625 9.199218 31.835938 3.039063 7.054687 11.21875 10.308593 18.273438 7.269531 6.464844-2.785156 9.738281-9.890625 7.898437-16.484375-3.554687-12.777344-7.105469-27.738281-1.515625-40.46875 3.535156-8.054687 11.253906-12.929687 17.792969-18.527344 5.59375-4.78125 30.203125-25.835937 30.203125-25.835937 9.34375-7.988282 10.4375-22.035156 2.449219-31.378906-7.992188-9.339844-22.039063-10.433594-31.378907-2.445313-.722656.621094-33.46875 37.046875-36.191406 40.082031-.003906.007813-.011718.015625-.015625.023438zm0 0"/><path d="m55.859375 300.371094c-20.238281 7.308594-33.8125 21.253906-41.21875 41.335937-3.84375 10.429688-6.015625 21.335938-6.976563 32.394531-.667968 7.652344 4.996094 14.394532 12.644532 15.058594 7.011718.609375 13.261718-4.09375 14.769531-10.773437 2.921875-12.9375 6.882813-27.796875 17.835937-36.359375 6.929688-5.414063 16.039063-6.054688 24.449219-7.882813 7.191407-1.5625 38.839844-8.441406 38.839844-8.441406 12.011719-2.609375 19.628906-14.464844 17.019531-26.472656-2.609375-12.011719-14.464844-19.632813-26.472656-17.023438-.929688.203125-47.023438 16.765625-50.863281 18.152344-.007813.003906-.019531.007813-.027344.011719zm0 0"/><path d="m105.015625 273.636719c-18.5-5.324219-33.371094-15.789063-44.199219-31.105469-8.210937-11.613281-13.898437-25.847656-16.898437-42.304688-4.832031-26.480468-1.066407-50.355468-.902344-51.359374l38.96875 6.316406-19.484375-3.15625 19.492188 3.105468c-.027344.1875-2.890626 18.988282.925781 38.875 4.398437 22.925782 15.195312 36.5625 33.015625 41.691407zm0 0"/><path d="m400.285156 273.636719c18.5-5.324219 33.375-15.789063 44.203125-31.105469 8.210938-11.613281 13.894531-25.847656 16.898438-42.304688 4.832031-26.480468 1.0625-50.355468.902343-51.359374l-38.972656 6.316406 19.484375-3.15625-19.492187 3.105468c.03125.1875 2.890625 18.988282-.921875 38.875-4.398438 22.925782-15.199219 36.5625-33.019531 41.691407zm0 0"/></g><path d="m52.914062 342.027344c6.929688-5.414063 16.035157-6.054688 24.449219-7.882813 7.191407-1.5625 38.839844-8.441406 38.839844-8.441406 12.007813-2.609375 19.628906-14.460937 17.019531-26.472656s-14.464844-19.632813-26.476562-17.023438c-.925782.203125-47.023438 16.765625-50.859375 18.152344-.007813.003906-.019531.007813-.027344.011719-3.332031 1.203125-6.464844 2.601562-9.4375 4.164062-1.105469 14.023438.054687 27.554688 3.582031 40.101563.917969-.914063 1.875-1.796875 2.910156-2.609375zm0 0" fill="#fd5f7e"/><path d="m118.976562 332.078125c-.71875.617187-33.464843 37.042969-36.1875 40.082031-.007812.007813-.015624.015625-.019531.023438-4.132812 4.609375-7.496093 9.453125-10.152343 14.503906 7.550781 8.425781 16.453124 15.222656 26.707031 20.304688.605469.296874 1.21875.578124 1.828125.863281 3.898437-6.660157 10.691406-11.105469 16.550781-16.117188 5.59375-4.785156 30.207031-25.835937 30.207031-25.835937 9.339844-7.988282 10.433594-22.039063 2.445313-31.378906-7.988281-9.339844-22.035157-10.433594-31.378907-2.445313zm0 0" fill="#fd5f7e"/><path d="m195.558594 355.5625c-11.195313-5.070312-24.382813-.101562-29.449219 11.097656-.394531.867188-14.585937 47.746094-15.761719 51.652344-.003906.007812-.007812.019531-.011718.027344-.054688.191406-.097657.378906-.15625.570312 4.578124.253906 9.371093.382813 14.433593.382813h.007813c8.816406 0 17.742187-.363281 26.914062-.863281 4.414063-9.757813 15.125-33.417969 15.125-33.417969 5.066406-11.199219.097656-24.382813-11.101562-29.449219zm0 0" fill="#fd5f7e"/><path d="m355.121094 418.910156c-.054688-.191406-.097656-.378906-.15625-.570312-.003906-.007813-.007813-.019532-.007813-.027344-1.179687-3.90625-15.371093-50.785156-15.765625-51.652344-5.066406-11.199218-18.25-16.167968-29.449218-11.097656-11.199219 5.066406-16.167969 18.25-11.101563 29.449219 0 0 10.707031 23.660156 15.125 33.417969 9.175781.5 18.101563.863281 26.921875.863281 5.0625 0 9.859375-.128907 14.433594-.382813zm0 0" fill="#fd5f7e"/><path d="m432.683594 386.6875c-2.65625-5.050781-6.015625-9.894531-10.148438-14.503906-.007812-.007813-.011718-.015625-.019531-.023438-2.726563-3.039062-35.46875-39.464844-36.191406-40.082031-9.339844-7.988281-23.390625-6.894531-31.378907 2.445313-7.988281 9.339843-6.894531 23.390624 2.445313 31.378906 0 0 24.613281 21.050781 30.207031 25.835937 5.859375 5.011719 12.65625 9.457031 16.550782 16.121094.609374-.289063 1.226562-.566406 1.828124-.867187 10.253907-5.078126 19.160157-11.878907 26.707032-20.304688zm0 0" fill="#fd5f7e"/><path d="m449.414062 300.359375c-3.835937-1.382813-49.933593-17.949219-50.859374-18.148437-12.011719-2.613282-23.863282 5.007812-26.476563 17.019531-2.609375 12.011719 5.011719 23.863281 17.019531 26.476562 0 0 31.648438 6.875 38.839844 8.441407 8.414062 1.828124 17.519531 2.464843 24.449219 7.882812 1.035156.808594 1.992187 1.691406 2.910156 2.609375 3.527344-12.550781 4.683594-26.078125 3.582031-40.105469-2.972656-1.558594-6.105468-2.960937-9.4375-4.164062-.007812-.003906-.015625-.007813-.027344-.011719zm0 0" fill="#fd5f7e"/><path d="m442.058594 245.78125c-4.777344-9.765625-10.515625-19.449219-17.203125-28.890625-2.085938-2.949219-4.257813-5.84375-6.492188-8.6875-5.671875 14.472656-15.230469 23.535156-28.992187 27.496094l10.914062 37.9375c17.160156-4.9375 31.1875-14.304688 41.773438-27.855469zm0 0" fill="#fd5f7e"/><path d="m105.015625 273.636719 10.917969-37.9375c-13.765625-3.960938-23.324219-13.023438-28.996094-27.496094-2.230469 2.84375-4.402344 5.738281-6.488281 8.6875-6.6875 9.441406-12.425781 19.125-17.207031 28.890625 10.585937 13.550781 24.617187 22.917969 41.773437 27.855469zm0 0" fill="#fd5f7e"/><path d="m252.652344 390.613281c78.234375 0 151.90625 23.484375 177.164062-48.210937 25.261719-71.699219-58.9375-192.847656-177.164062-192.847656-118.230469 0-202.425782 121.148437-177.167969 192.847656 25.257813 71.695312 98.933594 48.210937 177.167969 48.210937zm0 0" fill="#f9496e"/><path d="m105.484375 342.402344c-24.175781-68.628906 51.929687-182.539063 162.167969-192.175782-4.9375-.433593-9.933594-.671874-15-.671874-118.230469 0-202.425782 121.148437-177.167969 192.847656 17.242187 48.9375 57.039063 53.527344 105.449219 51.511718-34.535156-2.035156-61.925782-13.140624-75.449219-51.511718zm0 0" fill="#f5385d"/><path d="m165.914062 323.773438h-14.492187c-4.144531 0-7.5-3.355469-7.5-7.5 0-4.140626 3.355469-7.5 7.5-7.5h14.492187c4.144532 0 7.5 3.359374 7.5 7.5 0 4.144531-3.355468 7.5-7.5 7.5zm0 0" fill="#ff9db0"/><path d="m353.882812 323.773438h-14.496093c-4.140625 0-7.5-3.355469-7.5-7.5 0-4.140626 3.359375-7.5 7.5-7.5h14.496093c4.140626 0 7.5 3.359374 7.5 7.5 0 4.144531-3.359374 7.5-7.5 7.5zm0 0" fill="#ff9db0"/><path d="m89.035156 178.132812c46.457032-10.195312 77.066406-88.339843 43.375-133.421874-3.367187-4.507813-10.460937-3.167969-11.816406 2.292968-2.335938 9.410156-8.730469 21.964844-25.523438 31.890625zm0 0" fill="#f9496e"/><path d="m95.070312 78.894531c-24.253906-23.046875-26.035156-49.597656-24.714843-64.148437.476562-5.242188-5.003907-8.914063-9.671875-6.488282-16.070313 8.347657-44.050782 31.265626-52.015625 91.277344-9.796875 73.816406 44.726562 79.3125 60.058593 79.414063 2.742188.019531 5.484376.152343 8.222657.289062 47.8125 2.371094 52.671875-67.503906 18.121093-100.34375zm0 0" fill="#fd5f7e"/><path d="m416.265625 178.132812c-46.457031-10.195312-77.066406-88.339843-43.375-133.421874 3.367187-4.507813 10.464844-3.167969 11.820313 2.292968 2.335937 9.410156 8.730468 21.964844 25.523437 31.890625zm0 0" fill="#f9496e"/><path d="m410.234375 78.894531c24.25-23.046875 26.03125-49.597656 24.710937-64.148437-.472656-5.242188 5.003907-8.914063 9.675782-6.488282 16.066406 8.347657 44.046875 31.265626 52.011718 91.277344 9.796876 73.816406-44.722656 79.3125-60.058593 79.414063-2.738281.019531-5.480469.152343-8.21875.289062-47.8125 2.371094-52.675781-67.503906-18.121094-100.34375zm0 0" fill="#fd5f7e"/><path d="m177.246094 296.253906v-15.003906c0-4.140625-3.355469-7.5-7.5-7.5-4.140625 0-7.5 3.359375-7.5 7.5v15.003906c0 4.144532 3.359375 7.5 7.5 7.5 4.144531 0 7.5-3.355468 7.5-7.5zm0 0"/><path d="m335.554688 273.75c-4.140626 0-7.5 3.359375-7.5 7.5v15.003906c0 4.144532 3.359374 7.5 7.5 7.5 4.144531 0 7.5-3.355468 7.5-7.5v-15.003906c0-4.140625-3.355469-7.5-7.5-7.5zm0 0"/><path d="m252.652344 311.765625c10.140625 0 19.65625-4.234375 26.109375-11.617187 2.726562-3.121094 2.40625-7.859376-.710938-10.585938-3.121093-2.722656-7.855469-2.40625-10.585937.714844-3.601563 4.121094-9.003906 6.488281-14.8125 6.488281s-11.210938-2.367187-14.816406-6.488281c-2.726563-3.121094-7.464844-3.4375-10.582032-.714844-3.121094 2.726562-3.4375 7.464844-.710937 10.585938 6.453125 7.382812 15.96875 11.617187 26.109375 11.617187zm0 0"/><path d="m15.714844 164.511719c5.5 6.320312 11.898437 10.828125 18.386718 14.054687.292969 7.984375 1.105469 15.707032 2.4375 23.003906 3.199219 17.539063 9.308594 32.773438 18.152344 45.285157 5.300782 7.496093 11.578125 13.972656 18.679688 19.347656-2.953125 7.527344-5.246094 15.011719-6.875 22.371094-6.707032 2.40625-11.96875 4.300781-13.183594 4.738281-22.066406 7.96875-37.441406 23.378906-45.707031 45.796875-3.84375 10.425781-6.339844 21.976563-7.414063 34.335937-1.023437 11.761719 7.710938 22.160157 19.46875 23.183594 10.472656.910156 20.417969-6.332031 22.734375-16.59375 2.8125-12.453125 6.296875-25.1875 15.140625-32.101562 2.8125-2.203125 6.460938-3.390625 10.460938-4.292969.136718.417969.273437.835937.417968 1.246094 2.8125 7.984375 6.191407 14.886719 10.058594 20.847656-.589844.65625-1.019531 1.132813-1.25 1.394531-.011718.015625-.027344.027344-.039062.042969-15.65625 17.472656-21.898438 38.328125-18.554688 61.984375 1.554688 11.003906 4.832032 22.359375 9.738282 33.753906 3.386718 7.859375 11.105468 12.9375 19.667968 12.941406 2.917969 0 5.765625-.589843 8.460938-1.75 9.785156-4.21875 15.011718-15.128906 12.15625-25.386718-3.421875-12.296875-6.386719-25.160156-1.875-35.441406 2.082031-4.738282 6.679687-8.433594 11.546875-12.34375 1.394531-1.125 2.84375-2.285157 4.257812-3.496094l.316407-.273438c7.820312 2.105469 16.132812 3.34375 24.804687 3.996094-2.28125 7.523438-4.117187 13.597656-4.527344 14.957031-.007812.023438-.015625.042969-.019531.058594-6.761719 22.464844-3.5625 44 9.503906 64.003906 6.074219 9.304688 13.863282 18.195313 23.140625 26.429688 3.921875 3.480469 8.964844 5.394531 14.203125 5.394531 6.117188 0 11.957032-2.625 16.015625-7.199219 7.074219-7.96875 7.175781-20.070312.238281-28.144531-8.320312-9.683594-16.464843-20.074219-16.738281-31.296875-.125-5.171875 2.46875-10.46875 5.214844-16.074219 4.734375-9.667968 8.984375-19.585937 13.421875-29.390625 14.503906-.902343 29.449219-1.789062 44.496094-1.789062s29.992187.886719 44.496094 1.789062c3.707031 8.1875 7.28125 16.445313 11.121093 24.570313 3.09375 6.550781 7.757813 13.355468 7.515625 20.894531-.273437 11.222656-8.417968 21.617187-16.738281 31.296875-6.9375 8.074219-6.832031 20.175781.238281 28.144531 7.742188 8.722657 21.503906 9.535157 30.21875 1.804688 9.28125-8.234375 17.066406-17.125 23.144532-26.429688 13.058593-19.996093 16.257812-41.523437 9.507812-63.976562-.007812-.019531-.011719-.039063-.015625-.058594-.394531-1.304687-2.242187-7.414063-4.542969-14.992187 8.671875-.652344 16.984375-1.886719 24.800782-3.992188 0 0 3.1875 2.648438 4.585937 3.773438 4.863281 3.910156 9.460937 7.605468 11.542969 12.34375 4.511718 10.277343 1.546875 23.144531-1.875 35.441406-2.855469 10.257812 2.371094 21.167968 12.15625 25.386718 10.722656 4.617188 23.511718-.476562 28.128906-11.191406 4.910156-11.394531 8.1875-22.75 9.738281-33.75 3.347657-23.660156-2.894531-44.515625-18.550781-61.988281-.015625-.015625-.027344-.03125-.042969-.042969-.234375-.261718-.667969-.742187-1.261719-1.40625 3.871094-5.964844 7.257813-12.847656 10.070313-20.835937.148437-.410157.273437-.832031.414063-1.246094 4.003906.902344 7.648437 2.089844 10.46875 4.292969 8.84375 6.914062 12.328124 19.648437 15.136718 32.101562 2.304688 10.203125 12.324219 17.5 22.734375 16.59375 11.625-1.015625 20.484375-11.558594 19.46875-23.183594-1.074219-12.355468-3.566406-23.910156-7.414062-34.335937-8.265625-22.417969-23.640625-37.828125-45.738281-45.808594-1.183594-.429687-6.402344-2.304687-13.070313-4.699219-1.632813-7.398437-3.949219-14.90625-6.910156-22.433593 7.085937-5.371094 13.34375-11.832031 18.632812-19.316407 8.84375-12.507812 14.953125-27.746093 18.152344-45.285156 1.332031-7.296875 2.144531-15.015625 2.441406-23.003906 6.484375-3.222656 12.882813-7.730469 18.382813-14.050781 13.378906-15.375 18.25-37.570313 14.480468-65.96875-1.015624-7.664063-2.410156-15.101563-4.140624-22.105469-.996094-4.019531-5.0625-6.472656-9.082032-5.480469-4.019531.992188-6.476562 5.058594-5.480468 9.078125 1.597656 6.472656 2.886718 13.363282 3.832031 20.480469 3.179687 23.945313-.496094 42.164063-10.925781 54.148437-4.992188 5.734376-11.078126 9.527344-17.148438 12.03125-.042969.015626-.089844.027344-.136719.042969-13.695312 5.558594-30.523437 8.3125-44.859375 3.546875-22.625-7.515625-23.46875-38.640625-17.761718-57.4375 3.238281-10.667968 8.910156-20.800781 17.03125-28.519531 25.851562-24.566406 28.269531-52.960937 27.148437-68.675781 9.828125 5.429687 23.144531 16.300781 33.429687 37.722656 1.792969 3.734375 6.273438 5.308594 10.007813 3.515625s5.308594-6.273437 3.515625-10.007813c-12.570312-26.171874-29.460938-39.070312-41.421875-45.285156-4.597656-2.386718-10.117187-2.082031-14.40625.796875-4.289063 2.878907-6.660156 7.867188-6.195313 13.023438 1.070313 11.796875-.074218 33.804687-18.289062 53.824219-11.164062-8.101563-15.535156-17.355469-17.195312-24.050782-1.566407-6.300781-7.210938-10.699218-13.726563-10.699218-4.511719 0-8.664063 2.085937-11.378906 5.722656-17.324219 23.179687-20.640625 56.203125-8.875 88.339844 10.8125 29.523437 32.289062 51.269531 56.054687 56.757812.0625.015625.128906.019531.191406.03125.597657.15625 1.199219.300781 1.8125.429688-.28125 2.347656-.628906 4.625-1.046874 6.816406-2.125 11.0625-5.777344 19.488281-11.089844 25.546875-36.394532-45.9375-92.152344-76.085938-151.28125-76.085938-31.925782 0-62.695313 8.292969-91.449219 24.648438-3.601563 2.046875-4.859375 6.628906-2.8125 10.226562 2.046875 3.601563 6.625 4.859375 10.226563 2.8125 26.46875-15.054687 54.738281-22.6875 84.035156-22.6875 57.304687 0 111.152344 30.996094 144.425781 76.890625 19.679687 27.140625 35.179687 63.402344 28.023437 97.476563-.035156.171875-.078124.34375-.113281.511719-5.261719 24.160156-23.175781 44.75-47.375 51.039062-24.941406 6.488281-51.9375 3.671875-77.328125 2.089844-15.417968-.957032-31.359375-1.953125-47.632812-1.953125-16.273438 0-32.21875.992187-47.636719 1.953125-26.675781 1.664062-55.679687 4.984375-81.609375-3.328125-.015625-.007813-.03125-.015625-.050781-.023438-20.316407-6.585937-33.796875-21.9375-40.796875-41.804687-5.074219-14.402344-5.007813-30.308594-2.109375-45.167969 1.753906-8.992187 4.644531-18.183594 8.566406-27.34375.167969-.277344.320313-.558594.449219-.859375 4.910156-11.28125 11.300781-22.363281 19-32.929688.117187-.15625.21875-.324218.324218-.488281 10.003907-13.613281 22.226563-26.414062 36.28125-37.503906 3.253907-2.566406 3.808594-7.28125 1.246094-10.535156-2.566406-3.253907-7.285156-3.808594-10.535156-1.242188-12.789062 10.085938-24.382812 21.730469-34.378906 34.335938-5.332032-6.058594-8.996094-14.496094-11.121094-25.578125-.421875-2.191406-.769531-4.472656-1.046875-6.820313.632813-.132812 1.964844-.449219 2.003906-.457031 23.761719-5.488281 45.242188-27.234375 56.050781-56.757812 11.769532-32.136719 8.453126-65.160157-8.871093-88.339844-7.007813-9.375-22.277344-6.421875-25.105469 4.976562-1.660156 6.695313-6.03125 15.949219-17.195312 24.050782-18.214844-20.019532-19.359376-42.027344-18.289063-53.824219.988281-10.921875-10.867187-18.875-20.601563-13.820313-17.300781 8.988282-47.578124 33.53125-55.992187 96.945313-3.769531 28.398437 1.105469 50.59375 14.480469 65.96875zm324.371094 307.460937c-5.347657 8.1875-12.257813 16.066406-20.539063 23.414063-2.628906 2.332031-6.71875 2.082031-9.042969-.539063-2.117187-2.386718-2.152344-6.003906-.082031-8.414062 9.644531-11.222656 19.960937-24.546875 20.359375-40.703125.214844-8.847657-3.480469-16.386719-6.738281-23.042969-3.511719-7.164062-6.679688-14.503906-9.96875-21.773438.101562.003907.199219.007813.300781.015626 9.058594.476562 18.515625.898437 27.738281.847656 2.785157 9.179687 5.179688 17.09375 5.652344 18.667968.007813.019532.011719.035157.015625.054688 5.507812 18.28125 2.988281 35.117188-7.695312 51.472656zm91.738281-44.914062c-1.367188 9.683594-4.28125 19.75-8.664063 29.917968-1.378906 3.207032-5.21875 4.722657-8.417968 3.347657-2.925782-1.261719-4.492188-4.523438-3.640626-7.585938 3.96875-14.25 7.65625-30.695312 1.160157-45.496093-3.097657-7.050782-8.460938-11.949219-13.605469-16.164063.441406-.222656.871094-.457031 1.308594-.6875 6.304687-3.304687 12.121094-7.503906 17.351562-12.792969 12.46875 14.121094 17.214844 30.308594 14.507813 49.460938zm15.070312-119.640625c17.960938 6.488281 29.972657 18.550781 36.730469 36.878906 3.382812 9.175781 5.585938 19.417969 6.542969 30.449219.304687 3.484375-2.347657 6.632812-5.824219 6.9375-3.195312.273437-6.109375-1.886719-6.800781-4.953125-3.257813-14.433594-7.800781-30.664063-20.535157-40.617188-5.023437-3.925781-10.714843-5.820312-16.230468-7.074219 1.125-7.554687 1.335937-15.457031.671875-23.578124 2.792969 1.003906 4.761719 1.710937 5.445312 1.957031zm-74.796875-184.019531c-9.78125-26.710938-7.589844-53.78125 5.804688-72.828126 2.484375 8.675782 8.148437 19.882813 20.90625 29.660157-.59375.726562-1.144532 1.488281-1.71875 2.230469-12.375 16.433593-18.59375 37.976562-16.402344 58.484374.011719.085938.011719.179688.023438.269532-3.347657-5.410156-6.257813-11.390625-8.613282-17.816406zm57.65625 72.015624c.542969-2.828124.984375-5.773437 1.320313-8.804687.085937-.003906 8.96875-.152344 13.300781-.589844 3.871094-.390625 7.722656-1.027343 11.507812-1.9375-.382812 5.105469-1.011718 10.054688-1.875 14.792969-2.804687 15.375-8.066406 28.605469-15.644531 39.316406-3.699219 5.234375-7.953125 9.875-12.703125 13.863282-3.644531-7.261719-7.875-14.488282-12.695312-21.605469 8.351562-8.277344 13.871094-19.816407 16.789062-35.035157zm-381.457031 140.699219c-12.734375 9.957031-17.277344 26.1875-20.535156 40.617188-.691407 3.066406-3.597657 5.230469-6.800781 4.953125-3.519532-.304688-6.132813-3.417969-5.828126-6.9375.960938-11.03125 3.164063-21.273438 6.546876-30.449219 6.757812-18.328125 18.769531-30.390625 36.753906-36.886719.671875-.242187 2.644531-.953125 5.445312-1.957031-.683594 8.183594-.464844 16.0625.652344 23.582031-5.515625 1.257813-11.210938 3.152344-16.234375 7.078125zm58.351563 54.964844c-5.148438 4.214844-10.507813 9.113281-13.605469 16.164063-6.496094 14.800781-2.808594 31.246093 1.160156 45.496093.855469 3.0625-.714844 6.324219-3.640625 7.585938-.8125.347656-1.660156.527343-2.527344.527343-2.5625 0-4.875-1.523437-5.890625-3.875-4.382812-10.171874-7.296875-20.234374-8.664062-29.917968-2.707031-19.152344 2.039062-35.332032 14.5-49.453125 5.550781 5.613281 11.757812 9.996093 18.507812 13.386719.054688.03125.105469.058593.160157.085937zm76.796874 27.050781c-4.128906 8.804688-9.167968 17.550782-8.921874 27.597656.394531 16.160157 10.714843 29.484376 20.355468 40.707032 2.070313 2.410156 2.039063 6.027344-.078125 8.414062-2.324219 2.613282-6.425781 2.863282-9.042969.539063-8.28125-7.347657-15.191406-15.226563-20.542968-23.414063-10.679688-16.355468-13.199219-33.191406-7.71875-51.402344.011718-.03125.019531-.066406.03125-.101562.457031-1.511719 2.863281-9.464844 5.660156-18.691406.480469.003906.964844.003906 1.449219.003906 8.867187 0 17.738281-.386719 26.59375-.871094-2.597657 5.738282-5.113281 11.515625-7.785157 17.21875zm-91.097656-187.671875c-4.683594 6.917969-8.949218 14.144531-12.679687 21.621094-4.757813-3.992187-9.019531-8.640625-12.730469-13.882813-7.574219-10.714843-12.835938-23.945312-15.640625-39.320312-.867187-4.738281-1.492187-9.683594-1.875-14.792969.019531.296875 8.859375 1.65625 10.816406 1.867188 1.199219.132812 13.972657.5 13.992188.664062.335937 3.027344.777343 5.972657 1.320312 8.804688 2.917969 15.21875 8.441407 26.761719 16.796875 35.039062zm35.054688-179.886719c13.394531 19.046876 15.585937 46.117188 5.804687 72.828126-2.34375 6.398437-5.242187 12.351562-8.570312 17.738281 2.136719-19.605469-3.605469-41.097657-15.589844-57.578125-.070313-.097656-.140625-.191406-.210937-.289063-.710938-.96875-1.441407-1.921875-2.195313-2.851562-.050781-.0625-.09375-.128907-.144531-.191407 12.757812-9.773437 18.421875-20.980468 20.90625-29.65625zm-111.296875 49.945313c7.289062-54.941406 31.761719-76.625 46.652343-84.863281-1.121093 15.714844 1.296876 44.105468 27.144532 68.675781 11.390625 10.816406 18.125 26.34375 19.75 41.839844 1.746094 16.664062-2.9375 38.914062-21.316406 44.386719-18.933594 5.597656-48.238282-.875-61.304688-15.890626-10.429688-11.984374-14.105469-30.203124-10.925781-54.148437zm0 0"/></svg>