<svg height="511pt" viewBox="0 -31 511.99971 511" width="511pt" xmlns="http://www.w3.org/2000/svg"><path d="m270.953125 59.125c12.8125-2.195312 26.324219-3.390625 40.570313-3.390625 19.632812 0 38.585937 2.9375 56.4375 8.382813v369.1875c-17.851563 5.449218-36.804688 8.382812-56.4375 8.382812-14.246094 0-27.757813-1.191406-40.570313-3.386719l-71.433594-82.273437v-219.445313zm0 0" fill="#f2c13b"/><path d="m38.902344 337.144531c16.753906-2.328125 36.707031-16.265625 50.546875-38.949219v-98.964843c-13.839844-22.6875-33.792969-36.621094-50.546875-38.949219l-16.605469 20.578125v31.546875l9.144531 36.304688-9.144531 45.238281v26.949219zm0 0" fill="#f8e86a"/><path d="m148.375 134.195312-27.777344 18.558594c-13.148437-21.175781-10.453125-38.210937.488282-61.792968 5.390624-11.613282 9.039062-23.972657 10.617187-36.667969 3.128906-25.054688 11.15625-46.199219 37.855469-46.199219 8.449218 0 16.121094.402344 23.398437 1.800781zm0 0" fill="#4f4c5f"/><path d="m256.21875 62.144531-107.847656 72.050781c-2.894532-13.636718.722656-26.863281 8.328125-43.234374 5.386719-11.613282 9.035156-23.972657 10.613281-36.667969 2.589844-20.730469 8.539062-38.796875 25.640625-44.398438 21.3125 4.070313 39.203125 16.621094 63.265625 52.25zm0 0" fill="#f8e86a"/><path d="m38.902344 307.144531c-6.113282.855469-11.796875.164063-16.605469-2.207031v15.960938l16.605469 16.246093c3.140625-.4375 6.394531-1.28125 9.699218-2.515625 15.078126-5.628906 27.613282-17.332031 36.800782-30.289062 1.398437-1.972656 2.75-4.019532 4.046875-6.148438v-30c-13.839844 22.6875-33.792969 36.625-50.546875 38.953125zm0 0" fill="#f2c13b"/><path d="m199.519531 413.121094c-74.121093-41.25-112.8125-116.121094-126.769531-148.632813-4.328125-10.078125-4.328125-21.472656 0-31.550781 13.957031-32.511719 52.648438-107.382812 126.769531-148.636719zm0 0" fill="#f2c13b"/><path d="m311.523438 411.6875c-25.035157 0-50.089844-3.78125-73.855469-11.722656l33.285156 38.335937c4.804687.824219 9.707031 1.503907 14.710937 2.035157 8.585938.914062 17.222657 1.351562 25.859376 1.351562 19.632812 0 38.585937-2.933594 56.4375-8.382812v-30c-17.851563 5.449218-36.804688 8.382812-56.4375 8.382812zm0 0" fill="#e7a700"/><path d="m72.75 234.488281c-.109375-.257812-.203125-.519531-.308594-.777343-1 2.46875-1.746094 5.015624-2.238281 7.609374-1.449219 7.65625-.574219 15.839844 2.507813 23.058594.015624.035156.027343.074219.042968.109375 14.792969 34.226563 35.015625 66.808594 60.085938 94.660157 6.414062 7.128906 13.167968 13.953124 20.265625 20.40625 13.617187 12.382812 29.042969 23.898437 46.414062 33.566406v-30c-74.121093-41.25-112.8125-116.121094-126.769531-148.632813zm0 0" fill="#e7a700"/><path d="m241.761719 374.121094c7.683593 23.449218 17.585937 45.140625 29.191406 64.179687-26.792969-4.570312-50.519531-13.542969-71.433594-25.179687-19.441406-49-29.960937-105.445313-29.960937-164.410156 0-58.960938 10.519531-115.410157 29.960937-164.40625 20.914063-11.636719 44.640625-20.609376 71.433594-25.179688-11.605469 19.039062-21.507813 40.730469-29.191406 64.179688-12.78125 39.007812-19.269531 81.203124-19.269531 125.410156 0 44.207031 6.488281 86.398437 19.269531 125.40625zm0 0" fill="#4f4c5f"/><path d="m500.867188 248.710938 3.484374-7.480469c-3.191406-83.65625-59.628906-153.667969-136.390624-177.113281-46.015626 42.484374-75.6875 109.367187-75.6875 184.59375 0 75.226562 29.671874 142.109374 75.6875 184.59375 76.601562-23.394532 132.96875-93.160157 136.375-176.582032zm0 0" fill="#f8e86a"/><path d="m367.960938 403.304688c-7.371094 2.25-14.933594 4.0625-22.648438 5.425781 7 8.882812 14.566406 17.113281 22.648438 24.574219 76.601562-23.394532 132.96875-93.160157 136.375-176.582032l-2.519532-5.816406c-12.179687 72.507812-64.789062 131.304688-133.855468 152.398438zm0 0" fill="#f2c13b"/><path d="m253.414062 404.574219c-19.734374-5.007813-37.664062-12.421875-53.894531-21.453125-4.378906-2.4375-8.628906-4.996094-12.761719-7.648438 3.691407 12.957032 7.953126 25.53125 12.761719 37.648438 22.191407 12.347656 46.394531 20.90625 71.433594 25.179687-6.390625-10.484375-12.265625-21.78125-17.539063-33.726562zm0 0" fill="#423e4f"/><path d="m436.277344 259.503906h-18.949219c-4.140625 0-7.5-3.359375-7.5-7.5s3.359375-7.5 7.5-7.5h18.949219c4.140625 0 7.5 3.359375 7.5 7.5s-3.359375 7.5-7.5 7.5zm0 0" fill="#ff9db0"/><path d="m42.808594 272.351562c-6.976563 20.578126-7.101563 43.058594-3.90625 64.792969-24.667969 3.445313-42.398438-18.230469-23.4375-74.082031 3.167968-9.316406 3.167968-19.382812 0-28.699219-18.960938-55.851562-1.230469-77.527343 23.4375-74.082031-3.195313 21.730469-3.070313 44.214844 3.90625 64.792969 2.589844 7.621093 3.878906 15.628906 3.878906 23.636719 0 8.007812-1.289062 16.015624-3.878906 23.640624zm0 0" fill="#4f4c5f"/><path d="m36.945312 307.347656c-13.09375 1.132813-23.9375-5.109375-27.863281-20.15625-1.101562 6.21875-1.757812 12.582032-1.53125 18.90625.300781 8.226563 2.140625 16.945313 7.660157 23.332032 5.308593 6.136718 13.515624 8.597656 21.5625 7.945312.703124-.054688 1.410156-.128906 2.128906-.230469-1.449219-9.859375-2.207032-19.875-1.957032-29.796875zm0 0" fill="#423e4f"/><path d="m169.382812 194.5625c5.304688-.78125 11.347657-1.191406 18.222657-1.191406 28.304687 0 51.25 28.332031 51.25 63.28125 0 34.949218-22.945313 63.285156-51.25 63.285156 0 0-7.296875 1.203125-16.230469.816406l-13.847656-92.3125zm0 0" fill="#f8e86a"/><path d="m171.375 320.753906c-10.59375-.460937-23.503906-3.1875-29.25-12.847656-10.585938-17.808594 16.363281-30.800781 5.257812-51.253906-14.988281-27.535156-19.636718-56.015625 22-62.089844-3.234374 17.539062 1.808594 39.90625 9.761719 61.871094 9.269531 25.675781-7.980469 43.53125-7.769531 64.320312zm0 0" fill="#4f4c5f"/><path d="m434.980469 235.855469c4.144531 0 7.5-3.359375 7.5-7.5v-16.03125c0-4.140625-3.355469-7.5-7.5-7.5-4.140625 0-7.5 3.359375-7.5 7.5v16.03125c0 4.144531 3.359375 7.5 7.5 7.5zm0 0"/><path d="m8.34375 236.691406c2.617188 7.699219 2.617188 16.175782 0 23.878906-13.765625 40.550782-7.957031 61.203126-.660156 71.386719 7.347656 10.25 20.074218 14.230469 32.238281 12.535157 17.175781-2.390626 35.21875-14.496094 49.003906-32.414063 9.082031 15.019531 20.496094 31.515625 34.457031 47.625 2.714844 3.132813 7.449219 3.472656 10.582032.757813 3.128906-2.714844 3.46875-7.449219.753906-10.582032-24.75-28.558594-41.15625-58.425781-50.472656-78.1875-2.527344-5.359375-5.398438-10.6875-6.589844-16.542968-1.886719-9.261719 1.101562-17.582032 4.878906-25.890626 13.304688-29.140624 43.726563-84.398437 96.582032-123.0625 1.949218-1.425781 3.917968-2.816406 5.910156-4.183593-.617188 1.835937-1.214844 3.683593-1.804688 5.53125-5.265625 16.519531-9.316406 33.320312-12.714844 50.308593-1.898437 9.5-3.183593 19.074219-4.550781 28.65625-.042969.3125-.085937.625-.125.9375-.152343.027344-.296875.058594-.449219.085938-9.917968 1.757812-19.933593 5.363281-27.253906 12.53125-6.441406 6.308594-9.269531 15.339844-9.039062 24.210938.261718 10.140624 4.144531 22.019531 11.683594 35.875 3.632812 6.6875 1.417968 11.785156-2.816407 20.21875-5.105469 10.171874-8.558593 20.75-2.292969 31.289062 6.648438 11.179688 20.273438 15.363281 32.507813 16.332031.105469.007813.207031.019531.3125.039063 3.769531 22.800781 9.242187 45.304687 16.550781 67.230468-10.65625-7.304687-20.9375-15.632812-30.730468-24.890624-3.011719-2.84375-7.757813-2.710938-10.601563.296874-2.847656 3.011719-2.714844 7.757813.292969 10.605469 59.253906 56.03125 146.625 83.402344 226.152344 59.132813 40.203124-12.277344 76.324218-37.640625 101.714843-71.414063 26.257813-34.925781 40.136719-76.546875 40.136719-120.359375s-13.878906-85.429687-40.136719-120.359375c-25.390625-33.773437-61.511719-59.132812-101.71875-71.414062-18.941406-5.78125-38.667969-8.710938-58.628906-8.710938-14.222656 0-28.296875 1.175781-41.839844 3.496094-3.410156.582031-6.796875 1.242187-10.167969 1.972656-22.339843-32.058593-40.882812-46.539062-65.160156-51.179687-6.972656-1.335938-14.621094-1.933594-24.804687-1.933594-14.859375 0-26.289063 5.714844-33.964844 16.984375-5.734375 8.414063-9.335937 19.785156-11.332031 35.789063-1.460938 11.726562-4.816406 23.3125-9.976563 34.441406-10.609375 22.859375-14.75 41.898437-2.683593 64.382812-8.75 11.347656-16.269532 22.589844-22.644532 33.105469-13.785156-17.929687-31.828125-30.039063-49.023437-32.4375-12.273438-1.714844-24.832031 2.203125-32.234375 12.535156-7.296875 10.1875-13.105469 30.839844.660156 71.390625zm215.972656-156.25c10.308594-4.363281 20.914063-7.914062 31.757813-10.625.042969-.011718.082031-.019531.125-.03125-.058594.105469-.113281.214844-.167969.324219-17.816406 33.652344-29.175781 70.496094-35.34375 108.003906-.945312 5.730469-2.019531 11.914063-2.527344 17.851563-8.648437-5.191406-16.925781-9.386719-27.28125-10.0625-1.039062-.070313-9.613281-.714844-9.710937.007812 1.257812-9.46875 2.8125-18.898437 4.667969-28.269531 3.449218-17.378906 7.941406-34.566406 13.585937-51.367187 1.648437-4.910157 5.808594-16.066407 6.089844-16.792969.09375-.050781.1875-.105469.28125-.152344 1.757812-.949219 14.054687-6.996094 18.523437-8.886719zm-11.707031 222.117188c-6.644531 6.007812-15.007813 9.796875-25.019531 9.796875-2.632813 0-5.320313.609375-7.953125.757812.023437-.121093.039062-.238281.0625-.359375.914062-4.492187 2.390625-8.84375 3.84375-13.1875 3.050781-9.140625 5.90625-18.464844 5.835937-28.195312-.039062-5.492188-.9375-11.324219-3.195312-17.574219-5.914063-16.386719-11.457032-34.71875-10.132813-52.492187 0-.011719.003907-.023438.003907-.039063.089843-.667969 10.710937-.480469 11.535156-.480469 26.804687 0 42.566406 28.679688 43.671875 52.492188.007812.148437.019531.292968.027343.441406.675782 16.996094-5.734374 37.136719-18.679687 48.839844zm-49.8125 9.5625c-5.402344-1.09375-11.308594-3.203125-14.238281-8.128906-3.488282-5.871094.554687-12.390626 3.210937-17.703126 4.226563-8.449218 9.5-19.832031 2.183594-33.304687-6.382813-11.726563-9.6875-21.671875-9.816406-29.367187-.171875-10.210938 6.554687-16.277344 15.699219-19.304688.34375-.113281.699218-.222656 1.054687-.328125-.023437.773437-.023437 1.558594-.023437 2.351563.023437 17.933593 5.054687 35.753906 11.179687 52.480468.007813.027344.019531.050782.027344.078125 1.496093 4.148438 2.167969 8.078125 2.265625 11.871094.191406 7.585937-1.914063 14.640625-4.304688 21.878906-2.140625 6.472657-4.429687 12.957031-5.515625 19.714844-.003906.027344-.011719.054687-.015625.082031-.089844.117188-1.578125-.292968-1.707031-.320312zm42.710937 95.664062c-.210937-.542968-.421874-1.085937-.628906-1.628906-9.421875-24.59375-16.253906-50.152344-20.820312-76.082031-.128906-.738281-.253906-1.472657-.378906-2.210938 8.566406-.753906 16.691406-1.464843 24.632812-5.058593 4.136719-1.875 8.097656-4.296876 11.789062-7.242188.035157.226562.074219.449219.113282.675781 3.226562 20.378907 7.980468 40.53125 14.410156 60.140625 5.722656 17.472656 12.839844 34.496094 21.40625 50.765625.058594.109375.113281.222657.167969.332031-17.601563-4.394531-34.585938-10.988281-50.691407-19.691406zm147.84375-339.902344c-.164062.175782-.324218.359376-.492187.53125-6.144531 6.492188-11.953125 13.320313-17.257813 20.519532-2.441406 3.257812-1.816406 8.125 1.476563 10.578125 3.277344 2.441406 8.058594 1.734375 10.496094-1.539063 6.6875-8.980468 14.058593-17.457031 22.105469-25.246094.035156-.035156.167968-.207031.214843-.207031 35.53125 11.792969 67.355469 34.667969 89.976563 64.765625 23.195312 30.851563 35.9375 67.351563 37.039062 105.875-7.003906 1.816406-20.777344 4.03125-34.535156-1.492187-3.84375-1.542969-8.210938.320312-9.753906 4.167969-1.542969 3.84375.320312 8.210937 4.164062 9.753906 8.605469 3.453125 17.078125 4.605468 24.5625 4.605468 5.878906 0 11.148438-.710937 15.382813-1.578124-1.9375 36.855468-14.574219 71.714843-36.859375 101.359374-22.621094 30.089844-54.4375 52.964844-89.964844 64.761719-.167969-.164062-.339844-.320312-.507812-.484375-21.371094-20.78125-38.253907-46.429687-49.628907-73.941406-13.273437-31.6875-20.007812-65.898438-20.007812-101.683594 0-45.644531 11.238281-89.609375 32.503906-127.140625 2.042969-3.605469.773437-8.183593-2.828125-10.222656-3.605469-2.042969-8.183594-.777344-10.226562 2.828125-22.539063 39.78125-34.449219 86.304688-34.449219 134.535156 0 37.789063 7.121093 73.949219 21.171875 107.480469 11.28125 26.921875 27.238281 52.125 47.414062 73.269531-13.660156 3.144532-27.683594 4.738282-41.835937 4.738282-12.179688 0-24.238281-.917969-35.890625-2.722657-.449219-.753906-.894532-1.507812-1.335938-2.269531-10.496094-18.144531-18.886718-37.5-25.410156-57.414062-7.511719-22.917969-12.636719-46.605469-15.632812-70.527344 5.355468-7.957032 9.171874-17.171875 11.257812-27 4.644531-21.890625.550781-46.125-12.753906-64.351563.046875-.503906.089844-1.007812.136718-1.507812 4.46875-47.121094 16.902344-94.339844 39.964844-135.882813.40625-.734375 2.902344-6.4375 3.773438-6.570312 11.652344-1.808594 23.707031-2.722656 35.886718-2.722656 14.160157-.003907 28.183594 1.585937 41.84375 4.734374zm-109.445312-10.320312c-.511719.148438-1.019531.316406-1.53125.46875-27.777344 8.292969-53.714844 21.894531-76.710938 39.503906-1.875 1.433594-3.742187 2.886719-5.589843 4.378906.101562-.25 2.324219-5.53125 3.414062-7.882812 5.820313-12.542969 9.605469-25.632812 11.257813-38.902344 1.632812-13.132812 4.824218-31.710937 18.800781-37.546875 15.234375 3.371094 30.09375 12.164063 50.359375 39.980469zm-116.03125 36.46875c5.820312-12.542969 9.605469-25.632812 11.253906-38.902344 3.515625-28.148437 12.328125-39.628906 30.414063-39.628906 1.054687 0 2.070312.007812 3.0625.019531-.90625 1.214844-1.796875 2.535157-2.65625 3.980469-6.308594 10.386719-8.773438 23.234375-10.089844 33.777344-1.09375 8.792968-3.257813 17.507812-6.445313 26.011718-1.0625 2.832032-2.242187 5.644532-3.53125 8.425782-4.644531 10.011718-8.726562 20.5625-9.753906 31.636718-.011718.136719-.03125.277344-.042968.414063-6.195313 6.085937-12.246094 12.578125-18.074219 19.386719-4.523438-11.457032-3.925781-24.03125 5.863281-45.121094zm-47.167969 105.394531c-4.316406 7.902344-8.300781 15.871094-11.914062 23.804688-3.746094 8.210937-6.789063 16.230469-6.789063 25.398437 0 8.863282 3.085938 17.246094 6.703125 25.210938 3.632813 7.996094 7.648438 16.03125 12 23.992187-9.777343 14.542969-22.859375 25.527344-35.425781 29.957031-.007812-.082031-.019531-.167968-.027344-.25-1.820312-17.679687-1.023437-35.863281 4.628906-52.828124.003907-.007813.007813-.019532.011719-.03125 2.851563-8.367188 4.277344-17.210938 4.277344-26.050782s-1.433594-17.675781-4.277344-26.046875c-5.75-16.929687-6.417969-35.199219-4.640625-52.863281.007813-.082031.019532-.167969.027344-.25 12.566406 4.429688 25.644531 15.414062 35.425781 29.957031zm-58.160156 32.441407c-9.011719-26.542969-9.984375-47.621094-2.667969-57.828126 2.535156-3.539062 6.0625-5.691406 10.507813-6.417968-.019531.183594-.03125.367187-.050781.550781-2.015626 19.792969-1.082032 40.234375 5.339843 59.195313.003907.011718.007813.023437.011719.035156 4.566406 13.699218 4.648438 28.769531 0 42.457031-6.441406 18.96875-7.371094 39.421875-5.351562 59.226563.019531.183593.03125.367187.050781.550781-4.449219-.726563-7.972657-2.875-10.511719-6.417969-7.3125-10.207031-6.339844-31.285156 2.671875-57.824219 3.675781-10.8125 3.675781-22.71875 0-33.527343zm0 0"/></svg>