<svg height="511pt" viewBox="0 1 511 511.999" width="511pt" xmlns="http://www.w3.org/2000/svg"><path d="m396.480469 219.132812 47.09375 18.003907 32.113281 25.679687 6.722656 33.753906-17.378906 50.851563-36.046875 19.3125-45.128906 14.089844-25.101563 25.101562-15.773437 35.316407-40.800781 35.558593-41.195313 10.300781-42.699219-24.675781-20.316406-44.777343-2.539062-41.960938-58.617188-58.621094-41.964844-2.535156-44.777344-20.320312-24.675781-42.695313 10.300781-41.199219 35.558594-40.796875 35.316406-15.777343 25.101563-25.101563 14.09375-45.128906 19.308594-36.046875 50.851562-17.378906 33.753907 6.722656 25.679687 32.113281 18.003906 47.09375zm0 0" fill="#f2c13b"/><path d="m33.554688 300.261719c5.273437 5.277343 11.285156 10.082031 17.964843 14.316406 23.042969 14.617187 52.734375 21.785156 85.871094 20.734375l-1.15625-36.394531c-25.808594.820312-48.359375-4.398438-65.210937-15.085938-14.042969-8.90625-23.234376-21.277343-25.878907-34.828125-2.589843-13.269531 1.066407-27.066406 10.574219-39.898437 11.785156-15.910157 31.953125-29.464844 58.328125-39.207031 14.683594-5.421876 25.820313-17.761719 29.796875-33.007813 18.148438-69.601563 51.914062-90.457031 77.460938-86.765625 24.277343 3.507812 49.339843 30.523438 47.960937 73.683594l36.394531 1.160156c.882813-27.722656-6.703125-54.144531-21.359375-74.402344-14.660156-20.253906-35.183593-33.210937-57.789062-36.476562-41.125-5.941406-93.695313 20.78125-117.902344 113.613281-.972656 3.734375-3.65625 6.742187-7.175781 8.039063-33.039063 12.199218-58.960938 30.074218-74.976563 51.691406-15.53125 20.964844-21.585937 45.308594-17.050781 68.542968 3.226562 16.523438 11.597656 31.734376 24.148438 44.285157zm0 0" fill="#918bd7"/><path d="m212.234375 478.941406c-5.277344-5.273437-10.082031-11.285156-14.316406-17.964844-14.613281-23.039062-21.785157-52.734374-20.734375-85.871093l36.394531 1.15625c-.820313 25.8125 4.398437 48.359375 15.085937 65.210937 8.90625 14.042969 21.277344 23.234375 34.832032 25.878906 13.265625 2.589844 27.0625-1.066406 39.894531-10.574218 15.910156-11.785156 29.464844-31.953125 39.207031-58.328125 5.421875-14.683594 17.761719-25.820313 33.007813-29.796875 69.601562-18.148438 90.457031-51.914063 86.765625-77.460938-3.507813-24.277344-30.523438-49.335937-73.683594-47.960937l-1.160156-36.394531c27.726562-.882813 54.148437 6.703124 74.402344 21.363281 20.257812 14.65625 33.214843 35.179687 36.480468 57.785156 5.941406 41.125-20.785156 93.695313-113.617187 117.902344-3.734375.972656-6.742188 3.65625-8.039063 7.179687-12.199218 33.035156-30.074218 58.957032-51.6875 74.972656-20.96875 15.53125-45.3125 21.585938-68.546875 17.050782-16.523437-3.226563-31.734375-11.597656-44.285156-24.148438zm0 0" fill="#918bd7"/><path d="m437.101562 234.664062-40.621093-15.53125-103.117188-103.117187-15.546875-40.664063c-9.875 5.355469-19.03125 12.164063-27.195312 20.328126-22.570313 22.570312-34.742188 52.960937-34.417969 84.261718-14.320313 6.066406-28.078125 13.8125-41.078125 23.140625-9.820312 7.039063-19.214844 15.023438-27.917969 23.726563-12.839843 12.839844-24.023437 27.078125-33.25 42.34375-8.574219 14.207031-15.417969 29.375-20.300781 44.835937l1.191406.542969 41.960938 2.535156 58.621094 58.621094 2.535156 41.960938.542968 1.191406c15.464844-4.882813 30.632813-11.734375 44.855469-20.3125 15.242188-9.214844 29.484375-20.398438 42.324219-33.238282 8.703125-8.703124 16.6875-18.097656 23.71875-27.910156 9.335938-13.007812 17.085938-26.769531 23.152344-41.09375.390625.003906 1.167968.003906 1.171875.003906 31.386719 0 60.894531-12.222656 83.085937-34.414062 8.25-8.25 15.007813-17.433594 20.285156-27.210938zm0 0" fill="#e7a700"/><g fill="#736acb"><path d="m213.578125 376.261719-36.394531-1.15625c-.542969 17.121093 1.128906 33.308593 4.867187 48.144531 11.707031-2.597656 23.375-6.339844 34.730469-11.152344-2.519531-10.9375-3.609375-22.980468-3.203125-35.835937zm0 0"/><path d="m387.53125 206.835938 1.160156 36.394531c14.824219-.472657 27.742188 2.171875 38.457032 6.835937 7.5625-9.898437 13.339843-20.726562 17.332031-32.050781-17.007813-7.90625-36.625-11.828125-56.949219-11.179687zm0 0"/><path d="m269.269531 123.804688 36.390625 1.164062c.648438-20.351562-3.28125-39.992188-11.207031-57.015625-11.464844 4.050781-22.25 9.898437-32.023437 17.386719 4.664062 10.714844 7.308593 23.640625 6.839843 38.464844zm0 0"/><path d="m137.390625 335.3125-1.15625-36.394531c-12.855469.40625-24.898437-.683594-35.835937-3.199219-4.808594 11.351562-8.550782 23.023438-11.152344 34.730469 14.835937 3.738281 31.023437 5.40625 48.144531 4.863281zm0 0"/></g><path d="m230.425781 377.128906c-20.542969 12.394532-42.488281 20.34375-64.179687 23.679688-35.101563 5.402344-59.960938-19.457032-54.558594-54.558594 3.332031-21.691406 11.285156-43.632812 23.679688-64.179688zm0 0" fill="#f8e86a"/><path d="m189.695312 223.402344c40.757813-29.246094 88.757813-39.914063 130.074219-30.675782 9.238281 41.316407-1.429687 89.316407-30.675781 130.074219l-47.636719 1.019531-55.785156-55.785156zm0 0" fill="#f8e86a"/><path d="m399.132812 113.363281c-36.128906-36.128906-94.703124-36.128906-130.832031 0-36.128906 36.128907-36.128906 94.703125 0 130.832031 36.128907 36.125 94.703125 36.125 130.832031 0 36.125-36.128906 36.125-94.703124 0-130.832031zm0 0" fill="#6a647f"/><path d="m497.917969 117.695312c-9.511719-9.511718-24.925781-9.511718-34.4375 0-9.507813 9.507813-9.507813 24.925782 0 34.4375 9.511719 9.507813 24.925781 9.507813 34.4375 0 9.507812-9.511718 9.507812-24.929687 0-34.4375zm0 0" fill="#918bd7"/><path d="m268.007812 347.609375c-11.664062 11.664063-24.332031 21.511719-37.578124 29.519531-19.214844-8.941406-38.34375-22.226562-55.589844-39.472656s-30.53125-36.375-39.472656-55.589844c8.007812-13.246094 17.859374-25.914062 29.519531-37.574218 7.859375-7.863282 16.171875-14.894532 24.808593-21.089844 8.929688 20.21875 22.683594 40.4375 40.824219 58.578125 18.136719 18.136719 38.355469 31.894531 58.574219 40.820312-6.191406 8.636719-13.230469 16.949219-21.085938 24.808594zm0 0" fill="#4f4c5f"/><path d="m400.335938 293.03125c-9.066407-9.0625-23.761719-9.0625-32.828126 0-9.0625 9.066406-9.0625 23.761719 0 32.828125 9.066407 9.0625 23.761719 9.0625 32.828126 0 9.066406-9.066406 9.066406-23.761719 0-32.828125zm0 0" fill="#f8e86a"/><path d="m288.226562 392.480469c-6.988281-6.992188-18.324218-6.992188-25.316406 0-6.992187 6.992187-6.992187 18.324219 0 25.316406 6.992188 6.992187 18.328125 6.992187 25.316406 0 6.992188-6.992187 6.992188-18.324219 0-25.316406zm0 0" fill="#f8e86a"/><path d="m394.800781 14.578125c-9.507812-9.511719-24.925781-9.511719-34.433593 0-9.511719 9.507813-9.511719 24.925781 0 34.4375 9.507812 9.507813 24.925781 9.507813 34.433593 0 9.511719-9.511719 9.511719-24.929687 0-34.4375zm0 0" fill="#918bd7"/><path d="m219.464844 112.15625c-9.066406-9.0625-23.761719-9.0625-32.828125 0-9.066407 9.066406-9.066407 23.761719 0 32.828125 9.066406 9.066406 23.761719 9.066406 32.828125 0 9.0625-9.066406 9.0625-23.761719 0-32.828125zm0 0" fill="#f8e86a"/><path d="m120.015625 224.261719c-6.992187-6.988281-18.328125-6.988281-25.320313 0-6.988281 6.992187-6.988281 18.328125 0 25.320312 6.992188 6.992188 18.328126 6.992188 25.320313 0 6.992187-6.992187 6.992187-18.328125 0-25.320312zm0 0" fill="#f8e86a"/><path d="m305.34375 127.867188-6.214844 6.210937c-2.929687 2.929687-2.929687 7.679687 0 10.609375 2.796875 2.796875 7.648438 2.964844 10.609375 0l6.214844-6.210938c2.929687-2.929687 2.929687-7.679687 0-10.609374-2.929687-2.929688-7.679687-2.929688-10.609375 0zm0 0"/><path d="m373.113281 215.515625c1.9375 0 3.875-.714844 5.304688-2.144531l6.214843-6.214844c2.929688-2.929688 2.929688-7.679688 0-10.609375-2.929687-2.929687-7.679687-2.929687-10.609374 0l-6.214844 6.214844c-2.929688 2.929687-2.929688 7.679687 0 10.609375 1.429687 1.429687 3.367187 2.144531 5.304687 2.144531zm0 0"/><path d="m346.679688 189.300781c4.609374.011719 8.824218-3.019531 8.484374-8.035156-.277343-4.136719-3.847656-7.261719-7.988281-6.984375-2.296875.15625-4.644531-.769531-6.417969-2.542969-1.769531-1.773437-2.699218-4.113281-2.542968-6.417969.277344-4.132812-2.847656-7.710937-6.984375-7.988281-4.140625-.277343-7.707031 2.847657-7.988281 6.980469-.441407 6.628906 2.074218 13.199219 6.90625 18.035156 4.359374 4.355469 10.375 6.9375 16.53125 6.953125zm0 0"/><path d="m383.988281 278.78125c-7.898437 0-15.796875 2.960938-21.714843 8.882812-11.976563 11.972657-11.976563 31.460938 0 43.433594 11.847656 11.851563 31.601562 11.835938 43.4375 0 11.976562-11.972656 11.976562-31.460937 0-43.433594-5.925782-5.925781-13.824219-8.882812-21.722657-8.882812zm11.113281 41.707031c-6.042968 6.042969-16.191406 6.03125-22.21875 0-6.125-6.125-6.125-16.089843 0-22.21875 6.050782-6.050781 16.171876-6.042969 22.21875 0 6.125 6.128907 6.125 16.09375 0 22.21875zm0 0"/><path d="m275.636719 379.765625c-6.535157 0-13.066407 2.453125-17.960938 7.34375-9.792969 9.796875-9.789062 26.140625 0 35.929687 9.769531 9.769532 26.171875 9.753907 35.925781 0 9.90625-9.90625 9.90625-26.023437 0-35.925781-4.898437-4.898437-11.429687-7.347656-17.964843-7.347656zm7.355469 32.664063c-3.984376 3.984374-10.734376 3.972656-14.707032 0-4.019531-4.015626-4.015625-10.695313 0-14.710938s10.695313-4.011719 14.707032 0c4.054687 4.058594 4.054687 10.65625 0 14.710938zm0 0"/><path d="m181.398438 106.789062c-11.976563 11.972657-11.976563 31.460938 0 43.4375 11.835937 11.835938 31.613281 11.824219 43.4375 0 11.976562-11.976562 11.976562-31.464843 0-43.4375-11.839844-11.84375-31.613282-11.824218-43.4375 0zm32.828124 32.824219c-6.058593 6.058594-16.171874 6.050781-22.21875 0-6.125-6.125-6.125-16.089843 0-22.214843 6.042969-6.042969 16.1875-6.03125 22.21875 0 6.125 6.125 6.125 16.089843 0 22.214843zm0 0"/><path d="m107.421875 211.5625c-6.539063 0-13.078125 2.445312-17.960937 7.332031-9.90625 9.90625-9.90625 26.023438 0 35.929688 9.765624 9.765625 26.171874 9.753906 35.925781 0 9.792969-9.792969 9.785156-26.140625 0-35.929688-4.890625-4.890625-11.429688-7.332031-17.964844-7.332031zm7.355469 32.652344c-4.015625 4.015625-10.695313 4.011718-14.710938 0-4.054687-4.054688-4.054687-10.652344 0-14.707032 4.003906-4.007812 10.714844-3.996093 14.710938-.003906 4.019531 4.019532 4.011718 10.695313 0 14.710938zm0 0"/><path d="m28.363281 305.453125c20.207031 20.328125 48.289063 31.675781 76.640625 35.613281-.238281 1.324219-.460937 2.652344-.667968 3.980469-2.738282 17.8125 1.40625 34.210937 11.671874 46.175781 9.824219 11.453125 24.34375 17.761719 40.886719 17.761719 1.136719 0 14.621094-.898437 14.539063-1.492187 3.015625 21.714843 9.792968 41.007812 20.214844 57.4375 14.378906 22.667968 36.835937 40.253906 63.5 45.457031 5.515624 1.078125 11.089843 1.613281 16.675781 1.613281 14.347656 0 28.761719-3.53125 42.410156-10.472656 3.695313-1.875 5.164063-6.390625 3.289063-10.085938-1.878907-3.691406-6.394532-5.164062-10.085938-3.285156-15.949219 8.105469-33.039062 10.703125-49.414062 7.507812-22.59375-4.410156-41.550782-19.609374-53.707032-38.769531-9.453125-14.90625-15.5625-32.609375-18.199218-52.691406.589843-.160156 1.175781-.339844 1.765624-.503906 6.429688-1.804688 12.773438-3.960938 18.96875-6.457031 1.898438 18.53125 7.199219 35.027343 15.542969 48.183593 10.023438 15.800781 24.132813 26.179688 39.726563 29.226563 15.394531 3.003906 31.230468-1.117188 45.800781-11.910156 17.085937-12.65625 31.53125-34.011719 41.777344-61.757813 4.574219-12.382813 14.992187-21.777344 27.867187-25.136719 74.386719-19.398437 96.453125-57.039062 92.296875-85.792968-1.917969-13.273438-9.511719-25.988282-21.378906-35.796876-9.496094-7.84375-21.121094-13.359374-34.136719-16.265624 2.941406-3.996094 5.734375-8.265626 7.957032-12.710938.019531-.03125 2.171874-4.292969 3.117187-6.457031 11.953125 3.402343 22.753906 8.5625 32.179687 15.382812 18.597657 13.464844 30.476563 32.207031 33.453126 52.785157 8.351562 57.828124-50.355469 94.515624-108.082032 109.570312-6.109375 1.59375-11.039062 6.015625-13.1875 11.835938-9.804687 26.554687-23.605468 48.632812-39.90625 63.855468-3.027344 2.828125-3.191406 7.574219-.363281 10.601563 2.828125 3.03125 7.574219 3.191406 10.601563.363281 18.003906-16.808594 33.128906-40.886719 43.742187-69.621094.449219-1.21875 1.53125-2.160156 2.894531-2.515625 97.617188-25.457031 125.554688-81.898437 119.148438-126.238281-3.558594-24.628906-17.589844-46.929688-39.507813-62.789062-10.628906-7.695313-22.726562-13.53125-36.039062-17.414063 5.308593-19.90625 4.386719-41.140625-2.765625-60.585937 6.484375-3.15625 13.6875-5.035157 21.535156-5.613282.796875 7.148438 3.960938 13.765625 9.121094 18.925782 12.28125 12.28125 32.777344 12.269531 45.046875 0 12.277343-12.277344 12.265625-32.78125 0-45.046876-12.285157-12.285156-32.769531-12.273437-45.046875 0-3.179688 3.179688-5.59375 6.917969-7.171875 10.984376-10.804688.40625-20.75 2.78125-29.714844 7.089843-4.429687-8.039062-10.046875-15.59375-16.855469-22.402343-6.738281-6.738282-14.273437-12.394532-22.386718-16.886719 4.296874-8.953125 6.667968-18.890625 7.074218-29.679688 4.070313-1.578125 7.804688-3.996093 10.984375-7.175781 12.417969-12.417969 12.417969-32.625 0-45.042969-12.28125-12.28125-32.777343-12.269531-45.046875 0-12.417968 12.417969-12.417968 32.625 0 45.046875 5.160156 5.15625 11.78125 8.324219 18.925782 9.121094-.578126 7.824219-2.445313 15.011719-5.585938 21.484375-10.957031-4.042969-22.65625-6.160156-34.683594-6.160156-8.882812 0-17.585937 1.15625-25.945312 3.386719-3.882813-13.289063-9.714844-25.367188-17.398438-35.984376-15.859375-21.914062-38.160156-35.945312-62.789062-39.503906-44.335938-6.40625-100.78125 21.53125-126.234375 119.144532-.355469 1.363281-1.296875 2.449218-2.519531 2.898437-34.40625 12.707031-61.519532 31.46875-78.402344 54.261719-16.800782 22.679687-23.332032 49.117187-18.386719 74.445312 3.605469 18.46875 13.175781 34.949219 26.253906 48.105469zm452.40625-187.347656c4.347657 0 8.695313 1.609375 11.914063 4.824219 6.5 6.503906 6.496094 17.332031 0 23.828124-6.5 6.503907-17.332032 6.496094-23.828125.003907-6.476563-6.476563-6.464844-17.363281 0-23.828125 3.21875-3.21875 7.566406-4.828125 11.914062-4.828125zm-115.03125-98.289063c6.5-6.503906 17.335938-6.496094 23.828125 0 6.570313 6.566406 6.570313 17.257813 0 23.824219-6.5 6.5-17.335937 6.496094-23.828125 0-6.570312-6.566406-6.570312-17.253906 0-23.824219zm-200.542969 373.714844c-13.820312 1.464844-28.328124-1.03125-37.800781-12.078125-7.371093-8.589844-10.292969-20.707031-8.226562-34.128906 2.367187-15.386719 7.089843-30.3125 13.640625-44.421875.773437-1.664063 1.570312-3.324219 2.394531-4.96875 9.3125 16.476562 21.023437 31.585937 34.398437 44.964844 13.363282 13.371093 28.5 25.082031 44.964844 34.394531-15.390625 7.738281-32.128906 14.410156-49.371094 16.238281zm21.730469-158.664062c.601563 1.1875 1.21875 2.371093 1.847657 3.546874 9.53125 17.863282 22 34.582032 36.464843 48.761719.011719.015625.023438.03125.039063.042969.015625.015625.027344.027344.042968.042969 15.363282 15.355469 32.914063 28.480469 52.308594 38.308593-4.59375 5.792969-9.570312 11.375-14.863281 16.667969-10.015625 10.019531-21.011719 18.847657-32.726563 26.285157-1.132812-.5625-2.261718-1.136719-3.386718-1.726563-16.980469-8.910156-32.785156-20.851563-46.441406-34.507813-14.371094-14.367187-27.128907-31.460937-36.234376-49.828124 7.4375-11.71875 16.265626-22.714844 26.28125-32.730469 5.292969-5.292969 10.875-10.269531 16.667969-14.863281zm71.574219 9.683593c2.9375 3.351563 6.09375 6.511719 9.445312 9.449219 11.152344 9.78125 24.136719 16.84375 38.144532 20.855469-4.816406 13.359375-11.347656 26.230469-19.492188 38.40625-18.828125-9.191407-35.914062-21.855469-50.710937-36.652344-14.792969-14.796875-27.457031-31.886719-36.652344-50.710937 12.179687-8.140626 25.046875-14.675782 38.40625-19.492188 4.011719 14.007812 11.078125 26.992188 20.859375 38.144531zm196.511719 47.648438c1.695312 11.71875-3.230469 24.226562-13.863281 35.214843-13.835938 14.304688-37.132813 26.03125-67.367188 33.914063-17.617188 4.597656-31.882812 17.476563-38.15625 34.457031-9.230469 25-21.898438 43.984375-36.632812 54.902344-11.09375 8.214844-22.851563 11.414062-33.992188 9.238281-11.511719-2.25-22.140625-10.25-29.933594-22.535156-7.835937-12.351563-12.53125-28.433594-13.699218-46.738281 4.410156-2.21875 8.753906-4.601563 13.003906-7.164063v-.003906h.003906c14.039062-8.484375 27.160156-18.792969 39-30.636719 8.03125-8.027344 15.390625-16.6875 21.875-25.734375h.003906c11.050782-15.402343 19.664063-31.925781 25.664063-49.207031 4.234375.542969 8.53125.820312 12.867187.820312 25.859375 0 50.21875-9.746093 68.882813-27.5 31.015625 3.617188 49.75 23.023438 52.34375 40.972657zm-86.417969-190.972657c9.359375 4.195313 17.988281 10.0625 25.300781 17.375 32.585938 32.582032 32.578125 87.648438 0 120.222657-32.703125 32.707031-87.5 32.722656-120.222656 0-32.425781-32.433594-32.445313-87.777344 0-120.222657 24.617187-24.613281 63.1875-31.605468 94.921875-17.375zm-336.039062 90.605469c15.140624-20.441406 39.878906-37.425781 71.542968-49.117187 5.820313-2.148438 10.246094-7.078125 11.835938-13.183594 22.960937-88.046875 71.660156-113.5625 109.574218-108.085938 20.574219 2.976563 39.320313 14.855469 52.78125 33.453126 6.816407 9.417968 11.972657 20.207031 15.375 32.148437-6.746093 2.953125-13.167968 6.664063-19.164062 11.09375-5.101562-22.921875-18.167969-41.277344-36.445312-50.488281-3.699219-1.863282-8.210938-.375-10.074219 3.324218-1.863281 3.699219-.375 8.210938 3.324219 10.074219 18.953124 9.550781 27.785156 30.851563 29.960937 48.785157-17.75 18.667968-27.496094 43.023437-27.496094 68.878906 0 4.335937.28125 8.628906.820313 12.863281-17.273438 6.003906-33.800782 14.613281-49.199219 25.664063-9.050781 6.488281-17.710937 13.847656-25.742187 21.882812-11.839844 11.839844-22.148438 24.960938-30.636719 39.003906-2.5625 4.25-4.949219 8.59375-7.167969 13.003906-18.300781-1.171874-34.382812-5.863281-46.734375-13.699218-12.285156-7.792969-20.289063-18.421875-22.535156-29.929688-2.175781-11.148437 1.019531-22.902344 9.238281-33.996094 10.914062-14.734374 29.898438-27.402343 54.902344-36.636718 16.980468-6.269532 29.859375-20.535156 34.457031-38.152344 11.773437-45.15625 32.195313-74.492188 56.03125-80.484375 4.015625-1.011719 6.453125-5.085937 5.445313-9.105469-1.011719-4.015625-5.089844-6.457031-9.105469-5.445312-17.226563 4.332031-48.820313 21.945312-66.890625 91.25-3.359375 12.875-12.753906 23.289062-25.136719 27.863281-27.746094 10.246094-49.101563 24.695313-61.757813 41.777344-10.796874 14.574219-14.914062 30.410156-11.910156 45.800781 3.046875 15.597656 13.421875 29.707031 29.226563 39.730469 13.15625 8.34375 29.652343 13.644531 48.183593 15.542969-1.703124 4.226562-3.234374 8.527343-4.625 12.867187-.832031 2.601563-1.625 5.226563-2.335937 7.867187-20.082031-2.636718-37.785156-8.746093-52.691406-18.199218-19.199219-12.175782-34.351563-31.078125-38.769531-53.707032-4.128907-21.144531 1.453124-43.390624 15.71875-62.644531zm0 0"/></svg>