<svg height="511pt" viewBox="1 -12 511.9995 511" width="511pt" xmlns="http://www.w3.org/2000/svg"><path d="m166.75 479.269531c-61.992188-6.273437-111.265625-55.621093-117.441406-117.640625-3.808594 1.351563-7.898438 2.113282-12.175782 2.113282-9.925781 0-18.914062-3.996094-25.472656-10.453126-5.601562-5.523437-5.601562-14.640624 0-20.164062 6.558594-6.457031 15.546875-10.441406 25.472656-10.441406 5.660157 0 11.019532 1.304687 15.792969 3.621094-2.320312-4.773438-3.625-10.121094-3.625-15.789063 0-9.925781 3.984375-18.917969 10.441407-25.472656 5.523437-5.601563 14.640624-5.601563 20.164062 0 6.460938 6.554687 10.453125 15.546875 10.453125 25.472656 0 7.023437-2.007813 13.570313-5.464844 19.128906l4.8125 2.660157c3.789063 2.09375 7.8125 3.703124 11.972657 4.773437 4.160156 1.082031 8.445312 1.628906 12.777343 1.628906 28.222657 0 51.09375-22.871093 51.09375-51.09375v-2.804687c0-93.84375 75.570313-171.070313 169.40625-171.121094 93.652344-.050781 169.582031 75.855469 169.582031 169.496094 0 19.402344-2.417968 36.976562-6.664062 52.882812zm0 0" fill="#59c2e7"/><path d="m166.75 479.269531s44.675781-19.320312 44.675781-19.320312c-8.234375 0-16.46875.152343-24.671875-.683594-57.460937-5.8125-103.988281-48.628906-115.402344-104.246094-1.371093-6.671875-7.273437-11.304687-14.085937-11.28125-.042969 0-.085937 0-.128906 0-9.925781 0-18.914063-3.992187-25.472657-10.453125-2.597656-2.5625-3.976562-5.902344-4.164062-9.300781-7.886719 2.171875-18.066406 7.691406-19.777344 16.492187-.882812 4.546876.566406 9.488282 3.941406 12.8125 6.746094 6.65625 15.996094 10.453126 25.472657 10.453126 4.273437 0 8.367187-.761719 12.175781-2.113282.757812 7.636719 2.191406 15.21875 4.273438 22.605469 10.875 38.539063 39.945312 71.035156 77.214843 86.136719 11.289063 4.574218 23.355469 7.625 35.949219 8.898437zm0 0" fill="#00acdc"/><path d="m497.875 336.066406v.011719c-11.707031 43.8125-37.34375 74.964844-64.894531 96.796875-38.855469 30.800781-87.25 47.078125-136.839844 47.078125h-115.976563c-4.53125 0-9-.234375-13.414062-.683594 96.007812-192.578125 331.125-143.203125 331.125-143.203125zm0 0" fill="#e8e8e8"/><path d="m433.007812 432.855469c9.894532-7.859375 19.125-16.574219 27.390626-26.136719-2.449219 2.125-4.921876 4.179688-7.414063 6.152344-38.855469 30.800781-87.25 47.078125-136.84375 47.078125h-115.976563c-7.289062 0-14.558593-.625-21.75-1.824219-4.078124 6.703125-7.976562 13.746094-11.664062 21.144531 2.207031.226563 11.148438.683594 13.414062.683594h115.976563c12.398437 0 24.71875-1.019531 36.839844-3.023437 36.144531-5.988282 71.117187-21.160157 100-44.054688.007812-.007812.015625-.015625.027343-.019531zm0 0" fill="#c7c5cb"/><path d="m438.738281 277.945312h-18.203125c-4.144531 0-7.5-3.359374-7.5-7.503906 0-4.140625 3.355469-7.5 7.5-7.5h18.203125c4.144531 0 7.5 3.359375 7.5 7.5 0 4.144532-3.355469 7.503906-7.5 7.503906zm0 0" fill="#ffc9d3"/><path d="m386.792969 80.167969c3.039062-37.625 31.953125-51.367188 44.449219-37.34375 6 6.734375 3.160156 15.527343-2.644532 21.300781-6.640625 6.609375-16.132812 7.902344-24.34375 11.695312-4.359375 2.011719-8.671875 4.402344-12.691406 7.148438-2.128906 1.453125-4.976562-.234375-4.769531-2.800781zm0 0" fill="#59c2e7"/><path d="m349.753906 80.167969c-3.039062-37.625-31.953125-51.367188-44.449218-37.34375-6 6.734375-3.160157 15.527343 2.644531 21.300781 6.640625 6.609375 16.132812 7.902344 24.339843 11.695312 4.363282 2.011719 8.675782 4.402344 12.695313 7.148438 2.128906 1.453125 4.976563-.234375 4.769531-2.800781zm0 0" fill="#59c2e7"/><path d="m367.417969 46.601562c.476562.457032 1.230469.457032 1.707031 0 21.09375-20.367187 15.496094-38.601562-.851562-38.601562-16.347657 0-21.945313 18.234375-.855469 38.601562zm0 0" fill="#a7e0f5"/><path d="m449.761719 247.566406v-14.277344c0-4.140624-3.359375-7.5-7.5-7.5-4.144531 0-7.5 3.359376-7.5 7.5v14.277344c0 4.144532 3.355469 7.503906 7.5 7.503906 4.140625 0 7.5-3.359374 7.5-7.503906zm0 0"/><path d="m267.144531 287.644531c4.0625-.824219 6.6875-4.78125 5.867188-8.839843-.824219-4.0625-4.785157-6.683594-8.84375-5.867188-10.660157 2.160156-20.375 7.382812-28.089844 15.101562-13.785156 13.78125-19.320313 34.089844-14.445313 52.988282 1.382813 5.359375 5.566407 9.542968 10.921876 10.925781 4.539062 1.167969 9.160156 1.738281 13.753906 1.738281 14.527344 0 28.765625-5.707031 39.238281-16.183594 7.71875-7.71875 12.941406-17.433593 15.097656-28.09375.824219-4.0625-1.800781-8.019531-5.863281-8.839843-4.0625-.824219-8.019531 1.800781-8.839844 5.863281-1.570312 7.761719-5.375 14.835938-11 20.464844-10.050781 10.046875-24.855468 14.078125-38.636718 10.523437-.074219-.019531-.125-.070312-.144532-.144531-3.554687-13.785156.476563-28.589844 10.523438-38.636719 5.625-5.625 12.703125-9.429687 20.460937-11zm0 0"/><path d="m389.816406 90.964844c2.070313.007812 4.148438-.582032 5.9375-1.800782 11.765625-8.035156 27.882813-9.558593 38.09375-19.71875 9.710938-9.664062 10.929688-22.664062 2.957032-31.609374-4.535157-5.085938-10.847657-7.886719-17.78125-7.886719-17.328126 0-37.144532 17.386719-39.746094 49.613281-.496094 6.113281 4.433594 11.386719 10.539062 11.402344zm29.207032-46.015625c2.671874 0 4.882812.964843 6.578124 2.867187 3.980469 4.464844-1.675781 10.335938-2.332031 10.992188-5.789062 5.761718-15.015625 6.882812-22.199219 10.203125-1.804687.832031-3.570312 1.710937-5.285156 2.628906 3.277344-12.910156 11.242188-26.691406 23.238282-26.691406zm0 0"/><path d="m317.441406 29.945312c-6.933594 0-13.246094 2.800782-17.777344 7.890626-7.972656 8.945312-6.757812 21.945312 2.953126 31.609374 5.738281 5.707032 12.824218 8.171876 19.070312 10.34375 6.746094 2.347657 13.113281 5.332032 19.023438 9.371094 7.199218 4.914063 17.175781-.949218 16.476562-9.597656-2.597656-32.226562-22.417969-49.617188-39.746094-49.617188zm17.953125 39.066407c-7.144531-3.304688-16.429687-4.46875-22.195312-10.203125-.65625-.65625-6.316407-6.527344-2.335938-10.992188 1.695313-1.902344 3.910157-2.867187 6.582031-2.867187 11.996094 0 19.957032 13.78125 23.234376 26.691406-1.714844-.917969-3.480469-1.796875-5.285157-2.628906zm0 0"/><path d="m362.171875 51.996094c3.347656 3.230468 8.78125 3.226562 12.125 0 13.566406-13.101563 18.96875-27.605469 14.449219-38.796875-3.214844-7.953125-10.882813-12.699219-20.511719-12.699219-9.632813 0-17.300781 4.746094-20.511719 12.699219-4.523437 11.191406.878906 25.695312 14.449219 38.796875zm-.539063-33.179688c1.105469-2.738281 4.199219-3.3125 6.601563-3.3125 2.398437 0 5.492187.574219 6.601563 3.3125 1.421874 3.527344-.238282 10.074219-6.601563 17.71875-6.367187-7.648437-8.027344-14.191406-6.601563-17.71875zm0 0"/><path d="m165.953125 486.734375c4.710937.476563 9.476563.71875 14.167969.71875h115.976562c51.628906 0 101.882813-17.296875 141.503906-48.699219 34.144532-27.058594 56.847657-60.953125 67.480469-100.742187.003907-.011719.003907-.027344.007813-.042969 4.585937-17.179688 6.910156-35.613281 6.910156-54.785156 0-38.484375-12.140625-75.078125-35.105469-105.824219-22.203125-29.71875-53.832031-52.144531-89.0625-63.148437-3.953125-1.234376-8.164062.96875-9.398437 4.921874-1.234375 3.957032.96875 8.160157 4.921875 9.398438 32.242187 10.066406 61.195312 30.597656 81.519531 57.804688 16.679688 22.332031 27.109375 48.035156 30.707031 75.304687-5.652343.992187-13.332031 1.167969-17.929687-2.90625-3.101563-2.746094-7.84375-2.457031-10.589844.644531-2.746094 3.101563-2.460938 7.839844.640625 10.585938 6.355469 5.628906 14.34375 7.238281 21.40625 7.238281 2.785156 0 5.417969-.25 7.757813-.605469.085937 2.1875.132812 4.382813.132812 6.585938 0 15.402344-1.601562 30.253906-4.765625 44.257812-30.121094-4.871094-60.992187-5.699218-91.398437-3.417968-32.664063 2.445312-63.445313 8.800781-91.484376 18.890624-6.601562 2.375-13.054687 4.960938-19.351562 7.75-27.289062 12.09375-51.660156 28.050782-72.652344 47.59375-3.03125 2.824219-3.199218 7.570313-.378906 10.601563 2.75 2.953125 7.65625 3.121094 10.601562.378906 16.695313-15.542969 35.6875-28.6875 56.710938-39.277343 9.554688-4.816407 19.53125-9.101563 29.90625-12.84375 26.703125-9.636719 56.085938-15.726563 87.328125-18.097657 21.53125-1.636719 43.214844-1.464843 64.722656.40625 7.179688.621094 14.71875 1.484375 21.996094 2.59375.015625.003907.03125.007813.046875.007813-10.574219 33.21875-30.726562 61.769531-60 84.964844-36.980469 29.3125-83.921875 45.457031-132.179688 45.457031h-115.980468c-.445313 0-.886719 0-1.335938-.007813 8.367188-15.199218 18.164063-29.679687 29.398438-42.910156 2.683594-3.15625 2.296875-7.890625-.863282-10.570312-3.15625-2.683594-7.890624-2.296876-10.570312.859374-12.972656 15.269532-24.136719 32.09375-33.5 49.800782-.277344.523437-.566406 1.039062-.84375 1.566406-55.964844-8.007812-100.027344-53.632812-105.671875-110.304688-.476563-4.777343-5.449219-7.933593-9.976563-6.324218-10.332031 3.675781-22.058593 1.082031-29.867187-6.613282-2.601563-2.558593-2.605469-6.914062-.003906-9.476562 8.558593-8.4375 21.90625-10.667969 32.71875-5.417969 6.257812 3.039063 13.066406-3.765625 10.027343-10.023437-1.902343-3.917969-2.871093-8.128906-2.871093-12.511719 0-7.609375 2.941406-14.785156 8.28125-20.207031 2.5625-2.597656 6.917969-2.601563 9.480469-.003906 5.347656 5.429687 8.296874 12.605468 8.296874 20.210937 0 5.363281-1.5 10.609375-4.335937 15.171875-2.226563 3.578125-.933594 8.492188 2.742187 10.523438 10.410157 5.753906 21.136719 9.996093 33.191407 9.996093 33.761719 0 58.59375-28.777343 58.59375-61.398437 0-90.171875 72.632812-163.574219 161.910156-163.621094h.089844c6.738281 0 13.546875.421875 20.234375 1.257812 4.105468.515626 7.859375-2.40625 8.371094-6.519531.511718-4.109375-2.40625-7.855469-6.515626-8.371093-7.300781-.90625-14.734374-1.367188-22.09375-1.367188-.03125 0-.0625 0-.09375 0-97.542968.050781-176.902343 80.175781-176.902343 178.617188-.003907 24.738281-17.683594 46.398437-43.59375 46.398437-6.796875 0-13.5625-1.613281-19.632813-4.675781 2-5.078125 3.035156-10.503906 3.035156-16.011719 0-11.566406-4.476562-22.484375-12.613281-30.742187-8.355469-8.484376-22.5-8.460938-30.847656.003906-8.125 8.25-12.597656 19.164062-12.597656 30.738281 0 1.660156.089843 3.308594.273437 4.9375-13.074218-1.464844-26.308594 3.09375-35.679687 12.328125-8.480469 8.355469-8.464844 22.5.003906 30.847656 9.535156 9.40625 23.28125 14.011719 36.558594 12.21875 9.980469 61.4375 60.464843 109.550782 123.035156 115.886719zm0 0"/></svg>