<svg height="512pt" viewBox="-55 0 511 512" width="512pt" xmlns="http://www.w3.org/2000/svg"><path d="m151.539062 409.796875c-22.035156-9.464844-45.941406-6.386719-62.214843 6.058594-3.554688 2.722656-5.441407 7.121093-4.96875 11.574219 2.171875 20.367187 16.398437 39.828124 38.433593 49.292968 24.542969 10.542969 51.40625 5.523438 67.453126-10.660156.691406-22.785156-14.160157-45.722656-38.703126-56.265625zm0 0" fill="#55d47b"/><path d="m313.046875 415.855469c-16.269531-12.445313-40.175781-15.523438-62.210937-6.058594-24.542969 10.542969-39.394532 33.480469-38.703126 56.265625 16.046876 16.183594 42.910157 21.203125 67.453126 10.660156 22.035156-9.464844 36.257812-28.925781 38.433593-49.292968.472657-4.453126-1.417969-8.855469-4.972656-11.574219zm0 0" fill="#55d47b"/><path d="m181.824219 308.207031h38.726562v196.292969h-38.726562zm0 0" fill="#00c756"/><g fill="#fd5f7e"><path d="m337.789062 152.671875c-24.464843 24.464844-80.421874 40.757813-104.882812 16.296875-24.464844-24.464844-8.167969-80.421875 16.292969-104.886719 24.464843-24.460937 64.128906-24.464843 88.589843 0 24.464844 24.464844 24.464844 64.128907 0 88.589844zm0 0"/><path d="m249.199219 337.289062c-24.464844-24.460937-40.757813-80.417968-16.292969-104.882812 24.464844-24.460938 80.421875-8.167969 104.882812 16.292969 24.464844 24.464843 24.464844 64.128906 0 88.589843-24.460937 24.464844-64.125 24.464844-88.589843 0zm0 0"/><path d="m64.582031 248.699219c24.464844-24.464844 80.421875-40.757813 104.886719-16.292969 24.460938 24.464844 8.167969 80.421875-16.296875 104.882812-24.460937 24.464844-64.125 24.464844-88.589844 0-24.464843-24.460937-24.464843-64.125 0-88.589843zm0 0"/><path d="m153.171875 64.082031c24.464844 24.464844 40.757813 80.421875 16.296875 104.886719-24.464844 24.460938-80.421875 8.167969-104.886719-16.296875-24.460937-24.460937-24.464843-64.125 0-88.589844 24.464844-24.460937 64.128907-24.460937 88.589844 0zm0 0"/></g><path d="m263.828125 70.144531c0 34.59375-28.046875 85.683594-62.640625 85.683594-34.597656 0-62.644531-51.089844-62.644531-85.683594 0-34.597656 28.046875-62.644531 62.644531-62.644531s62.640625 28.046875 62.640625 62.644531zm0 0" fill="#ff748f"/><path d="m331.730469 263.328125c-34.597657 0-85.683594-28.042969-85.683594-62.640625s51.089844-62.644531 85.683594-62.644531c34.597656 0 62.644531 28.046875 62.644531 62.644531s-28.046875 62.640625-62.644531 62.640625zm0 0" fill="#ff748f"/><path d="m138.542969 331.230469c0-34.597657 28.046875-85.683594 62.644531-85.683594s62.640625 51.089844 62.640625 85.683594c0 34.597656-28.046875 62.644531-62.640625 62.644531-34.597656 0-62.644531-28.046875-62.644531-62.644531zm0 0" fill="#ff748f"/><path d="m70.640625 138.042969c34.597656 0 85.6875 28.046875 85.6875 62.644531s-51.089844 62.640625-85.6875 62.640625c-34.59375 0-62.640625-28.042969-62.640625-62.640625s28.046875-62.644531 62.640625-62.644531zm0 0" fill="#ff748f"/><path d="m308.6875 200.6875c0 59.371094-48.128906 107.5-107.5 107.5s-107.5-48.128906-107.5-107.5 48.128906-107.5 107.5-107.5 107.5 48.128906 107.5 107.5zm0 0" fill="#f8e86a"/><path d="m123.6875 200.6875c0-54.28125 40.230469-99.15625 92.5-106.453125-4.902344-.6875-9.910156-1.046875-15-1.046875-59.371094 0-107.5 48.128906-107.5 107.5s48.128906 107.5 107.5 107.5c5.089844 0 10.097656-.363281 15-1.046875-52.269531-7.296875-92.5-52.171875-92.5-106.453125zm0 0" fill="#f2c13b"/><path d="m139.136719 213.980469c4.140625 0 7.5-3.355469 7.5-7.5v-11.226563c0-4.144531-3.359375-7.5-7.5-7.5s-7.5 3.355469-7.5 7.5v11.226563c0 4.144531 3.359375 7.5 7.5 7.5zm0 0"/><path d="m263.238281 213.980469c4.140625 0 7.5-3.355469 7.5-7.5v-11.226563c0-4.144531-3.359375-7.5-7.5-7.5-4.144531 0-7.5 3.355469-7.5 7.5v11.226563c0 4.144531 3.355469 7.5 7.5 7.5zm0 0"/><path d="m201.1875 219.976562c8.132812 0 15.773438-3.40625 20.960938-9.339843 2.726562-3.121094 2.40625-7.855469-.710938-10.582031-3.121094-2.726563-7.855469-2.410157-10.582031.710937-2.339844 2.675781-5.863281 4.210937-9.667969 4.210937s-7.328125-1.535156-9.667969-4.214843c-2.726562-3.117188-7.464843-3.4375-10.582031-.710938-3.121094 2.726563-3.4375 7.464844-.710938 10.585938 5.1875 5.933593 12.828126 9.339843 20.960938 9.339843zm0 0"/><path d="m.5 200.6875c0 29.347656 18.125 54.53125 43.765625 64.976562-11.019531 25.996094-5.390625 56.527344 15.015625 76.929688 13.246094 13.246094 30.855469 20.542969 49.597656 20.542969 9.425782 0 18.726563-1.898438 27.332032-5.53125 7.058593 17.332031 20.847656 31.222656 38.113281 38.410156v19.304687c-5.800781-5.058593-12.460938-9.25-19.820313-12.414062-9.5-4.082031-19.429687-6.148438-29.515625-6.148438-14.851562 0-29.136719 4.667969-40.21875 13.144532-5.601562 4.285156-8.617187 11.308594-7.871093 18.324218 2.550781 23.882813 19 45.109376 42.933593 55.390626 9.496094 4.078124 19.425781 6.148437 29.507813 6.148437 8.761718 0 17.214844-1.582031 24.984375-4.621094v19.355469c0 4.140625 3.359375 7.5 7.5 7.5h38.726562c4.144531 0 7.5-3.359375 7.5-7.5v-19.355469c7.769531 3.035157 16.222657 4.621094 24.988281 4.621094 10.082032 0 20.007813-2.070313 29.503907-6.152344 23.933593-10.277343 40.382812-31.503906 42.933593-55.386719.75-7.015624-2.265624-14.039062-7.871093-18.324218-11.082031-8.476563-25.363281-13.144532-40.21875-13.144532-10.082031 0-20.011719 2.066407-29.511719 6.148438-7.359375 3.160156-14.019531 7.355469-19.824219 12.414062v-19.304687c17.265625-7.183594 31.054688-21.078125 38.113281-38.40625 8.769532 3.71875 18.050782 5.542969 27.285157 5.542969 18.152343 0 36.125-7.035156 49.644531-20.558594 6.109375-6.109375 10.984375-13.195312 14.484375-21.066406 1.6875-3.785156-.015625-8.214844-3.800781-9.898438-3.785156-1.6875-8.21875.015625-9.902344 3.800782-2.75 6.183593-6.582031 11.753906-11.386719 16.558593-16.484375 16.484375-41.371093 20.707031-62.152343 11.070313 2.628906-15.492188-.339844-31.386719-5.648438-45.996094-.046875-.132812-.089844-.265625-.136719-.398438 4.371094-2.894531 8.535157-6.089843 12.464844-9.542968 0 0 22.28125 22.28125 22.285156 22.285156 2.839844 2.839844 7.6875 2.917969 10.605469 0 2.929688-2.929688 2.929688-7.679688 0-10.605469l-22.285156-22.285156c3.449218-3.929687 6.644531-8.09375 9.539062-12.464844.121094-.183593 7.703125 2.550781 8.5 2.777344 12.226563 3.511719 25.261719 5.167969 37.886719 3.007813 2.832031 6.140624 4.53125 12.839843 4.964844 19.640624.261719 4.132813 3.824219 7.269532 7.960937 7.007813 4.132813-.261719 7.269532-3.828125 7.007813-7.960937-.5-7.867188-2.34375-15.625-5.386719-22.851563 25.644531-10.441406 43.78125-35.628906 43.78125-64.984375 0-29.347656-18.128906-54.527344-43.765625-64.976562 11.019531-25.992188 5.390625-56.523438-15.015625-76.929688-13.246094-13.246094-30.859375-20.542969-49.589844-20.542969-9.433594 0-18.734375 1.898438-27.335937 5.535157-10.449219-25.644532-35.628907-43.773438-64.980469-43.773438-29.347656 0-54.53125 18.125-64.976562 43.765625-25.996094-11.019531-56.527344-5.390625-76.929688 15.015625-6.390625 6.390625-11.417969 13.820312-14.9375 22.082031-1.621094 3.8125.148438 8.214844 3.960938 9.839844 3.8125 1.621094 8.214843-.152344 9.839843-3.960937 2.761719-6.488282 6.714844-12.328126 11.742188-17.355469 16.480469-16.484375 41.371093-20.707031 62.152343-11.066407-.660156 3.898438-.996093 7.867188-.996093 11.824219 0 11.65625 2.644531 23.257813 6.640625 34.160157.050781.136718.09375.273437.140625.410156-4.371094 2.894531-8.535157 6.089844-12.464844 9.542968l-22.285156-22.289062c-2.925781-2.929688-7.675781-2.929688-10.605469 0s-2.929688 7.679688 0 10.609375l22.285156 22.285156c-3.449218 3.929688-6.644531 8.089844-9.539062 12.464844-.140625-.050781-.28125-.09375-.421875-.144531-13.429688-4.90625-27.753907-7.746094-42.0625-6.179688-.292969.03125-3.824219.695313-3.90625.535156-2.960938-6.421874-4.683594-13.4375-5.019531-20.5625-.191407-4.136718-3.703126-7.332031-7.839844-7.136718-4.140625.191406-7.335938 3.703125-7.140625 7.839844.386719 8.273437 2.257812 16.4375 5.453125 24.027343-25.644532 10.441407-43.777344 35.625-43.777344 64.980469zm131.539062 142.363281c-7.21875 3.339844-15.128906 5.085938-23.164062 5.085938-14.730469 0-28.574219-5.734375-38.988281-16.148438-16.484375-16.484375-20.707031-41.371093-11.066407-62.15625 15.402344 2.621094 31.417969-.308593 45.953126-5.632812.148437-.050781.296874-.097657.445312-.152344 2.894531 4.375 6.085938 8.535156 9.539062 12.464844l-22.285156 22.285156c-2.929687 2.929687-2.929687 7.679687 0 10.605469 2.839844 2.839844 7.691406 2.917968 10.605469 0l22.285156-22.28125c3.929688 3.453125 8.089844 6.648437 12.464844 9.539062-.050781.132813-.089844.265625-.136719.398438-5.25 14.445312-8.207031 30.023437-5.746094 45.355468.035157.210938.058594.425782.09375.636719zm32.742188-235.070312c11.378906-4.6875 23.6875-7.292969 36.410156-7.292969 53.632813 0 99.996094 46.433594 99.996094 100 0 53.648438-46.390625 100-100 100-53.203125 0-100.011719-46.808594-100-100.007812.007812-40.917969 26.976562-77.605469 63.59375-92.699219zm-15.445312 366.785156c-8.03125 0-15.96875-1.660156-23.585938-4.933594-18.957031-8.144531-31.960938-24.695312-33.9375-43.199219-.195312-1.84375.597656-3.691406 2.070312-4.820312 8.480469-6.484375 19.523438-10.054688 31.105469-10.054688 8.035157 0 15.972657 1.65625 23.589844 4.929688 10.734375 4.609375 19.59375 11.890625 25.746094 21.132812v13.238282l-46.746094-20.082032c-3.808594-1.632812-8.21875.125-9.851563 3.933594-1.636718 3.804688.125 8.214844 3.929688 9.851563l52.667969 22.625v1.269531c-7.410157 4.007812-15.964844 6.109375-24.988281 6.109375zm104.457031-58.078125c7.617187-3.273438 15.558593-4.929688 23.59375-4.929688 11.578125 0 22.625 3.570313 31.101562 10.054688 1.476563 1.128906 2.269531 2.972656 2.070313 4.820312-1.972656 18.503907-14.976563 35.054688-33.9375 43.199219-7.613282 3.273438-15.550782 4.933594-23.582032 4.933594h-.003906c-9.019531 0-17.578125-2.105469-24.984375-6.109375v-1.269531l52.667969-22.625c3.804688-1.636719 5.5625-6.046875 3.929688-9.851563-1.632813-3.804687-6.042969-5.566406-9.851563-3.929687l-46.746094 20.078125v-13.238282c6.152344-9.238281 15.011719-16.523437 25.742188-21.132812zm-40.742188-16.320312v96.632812h-23.726562v-96.632812c3.707031.628906 7.476562.964843 11.238281.992187.417969.003906.835938.003906 1.253906 0 3.714844-.035156 7.535156-.363281 11.234375-.992187zm4.882813-16.601563c-10.8125 3.429687-22.675782 3.457031-33.484375.003906-17.945313-5.730469-31.929688-20.410156-36.664063-38.773437-3.429687-13.289063-1.265625-27.453125 3.144532-40.394532.042968-.128906.089843-.261718.132812-.394531 3.347656 1.621094 6.777344 3.066407 10.257812 4.351563 10.328126 3.8125 21.332032 6.167968 32.367188 6.878906v31.5c0 4.140625 3.359375 7.5 7.5 7.5s7.5-3.359375 7.5-7.5v-31.5c1.765625-.113281 3.527344-.269531 5.285156-.464844 12.839844-1.425781 25.640625-5.101562 37.335938-10.765625-.035156.019531 1.871094 6 2.054687 6.691407 3.007813 11.128906 4.121094 22.824218 1.226563 34.101562-4.734375 18.355469-18.714844 33.035156-36.65625 38.765625zm168.941406-183.078125c0 25.664062-17.625 47.289062-41.40625 53.410156-11.195312 2.878906-22.992188 1.753906-34.039062-1.222656-.554688-.148438-6.707032-2.097656-6.722657-2.066406 6.4375-13.292969 10.277344-27.882813 11.230469-42.621094h31.5c4.140625 0 7.5-3.359375 7.5-7.5 0-4.144531-3.359375-7.5-7.5-7.5h-31.5c-.191406-2.953125-.496094-5.898438-.914062-8.828125-1.667969-11.703125-5.160157-23.15625-10.3125-33.796875.132812-.042969.261718-.089844.394531-.132812 12.925781-4.378907 26.984375-6.59375 40.398437-3.144532 23.761719 6.132813 41.371094 27.75 41.371094 53.402344zm-116.542969-142.363281c7.222657-3.339844 15.132813-5.085938 23.167969-5.085938 14.726562 0 28.574219 5.734375 38.988281 16.148438 16.484375 16.484375 20.707031 41.371093 11.066407 62.15625-15.46875-2.628907-31.394532.332031-45.984376 5.640625-.136718.050781-.273437.09375-.414062.144531-2.894531-4.375-6.085938-8.535156-9.539062-12.464844l22.285156-22.285156c2.929687-2.929687 2.929687-7.679687 0-10.609375-2.929688-2.929688-7.675782-2.929688-10.605469 0l-22.285156 22.285156c-3.929688-3.453125-8.089844-6.648437-12.464844-9.542968.050781-.136719.09375-.273438.140625-.410157 5.308594-14.535156 8.265625-30.566406 5.644531-45.976562zm-69.144531-43.324219c25.652344 0 47.269531 17.609375 53.402344 41.371094 3.449218 13.375 1.234375 27.53125-3.148438 40.410156-.042968.128906-.085937.257812-.132812.386719-13.296875-6.441407-27.875-10.277344-42.621094-11.230469v-31.5c0-4.140625-3.359375-7.5-7.5-7.5s-7.5 3.359375-7.5 7.5v31.5c-11.050781.714844-21.96875 3.042969-32.355469 6.875-3.488281 1.285156-6.917969 2.730469-10.269531 4.355469-.042969-.128907-.085938-.257813-.128906-.386719-4.378906-12.886719-6.585938-27.027344-3.148438-40.40625 6.128906-23.765625 27.75-41.375 53.402344-41.375zm-144.316406 132.285156c13.449218-3.46875 27.441406-1.246094 40.398437 3.144532.132813.042968.265625.089843.398438.136718-2.835938 5.855469-5.167969 11.96875-6.976563 18.21875-2.296875 7.949219-3.71875 16.148438-4.253906 24.402344h-31.5c-4.140625 0-7.5 3.359375-7.5 7.5s3.359375 7.5 7.5 7.5h31.5c.714844 11.046875 3.046875 21.992188 6.882812 32.378906 1.285157 3.480469 2.730469 6.902344 4.347657 10.242188-.121094.042968-.246094.085937-.367188.128906-12.878906 4.375-27.019531 6.589844-40.394531 3.160156-23.78125-6.121094-41.40625-27.746094-41.40625-53.410156 0-25.652344 17.609375-47.269531 41.371094-53.402344zm0 0"/></svg>