<svg height="511pt" viewBox="-70 0 511 511.999" width="511pt" xmlns="http://www.w3.org/2000/svg"><path d="m163.089844 344.203125c0 42.988281-34.847656 77.835937-77.832032 77.835937-42.988281 0-77.835937-34.847656-77.835937-77.835937 0-42.984375 34.847656-77.832031 77.835937-77.832031 42.984376 0 77.832032 34.847656 77.832032 77.832031zm0 0" fill="#a7e0f5"/><path d="m364.210938 344.203125c0 42.988281-34.847657 77.835937-77.835938 77.835937-42.984375 0-77.832031-34.847656-77.832031-77.835937 0-42.984375 34.847656-77.832031 77.832031-77.832031 42.988281 0 77.835938 34.847656 77.835938 77.832031zm0 0" fill="#a7e0f5"/><path d="m346.949219 310.957031c1.710937-2.910156 3.316406-5.878906 4.863281-8.875-13.855469-21.480469-37.976562-35.710937-65.4375-35.710937-42.984375 0-77.832031 34.847656-77.832031 77.832031 0 42.988281 34.847656 77.832031 77.832031 77.832031 8.695312 0 17.050781-1.445312 24.855469-4.074218.65625-4.886719.992187-9.859376.992187-14.898438 0-7.054688-.648437-14.128906-1.917968-21.003906-1.347657-7.320313-3.375-14.429688-6.058594-21.285156 17.015625-13.910157 31.523437-30.789063 42.703125-49.816407zm0 0" fill="#59c2e7"/><path d="m163.089844 344.203125c0-42.984375-34.847656-77.832031-77.832032-77.832031-26.542968 0-49.972656 13.296875-64.019531 33.582031 1.707031 3.40625 3.515625 6.765625 5.441407 10.070313 10.855468 18.648437 24.921874 35.296874 41.398437 49.132812-3.039063 7.40625-5.308594 15.082031-6.742187 22.875-1.277344 6.898438-1.925782 13.972656-1.925782 21.03125 0 5.039062.335938 10.015625.988282 14.898438 7.808593 2.628906 16.164062 4.078124 24.859374 4.078124 42.984376-.003906 77.832032-34.847656 77.832032-77.835937zm0 0" fill="#59c2e7"/><g fill="#4f4c5f"><path d="m92.054688 423.617188c7.808593 29.085937 32.300781 48.941406 63.976562 56.5 5.363281 1.28125 10.125 4.351562 13.640625 8.597656l10.347656 12.5c3.625 4.382812 10.347657 4.382812 13.972657 0l11.128906-13.441406c3.375-4.078126 7.96875-6.945313 13.085937-8.296876 30.410157-8.007812 53.777344-27.574218 61.371094-55.859374zm0 0"/><path d="m301.882812 112.5625c-28.421874-31.183594-69.367187-50.75-114.875-50.75-45.511718 0-86.457031 19.566406-114.875 50.75v49.503906h229.75zm0 0"/><path d="m90.835938 387.488281c7.84375-42.640625 47.386718-75.066406 94.980468-75.066406 47.589844 0 87.132813 32.425781 94.980469 75.066406l-14.804687 25.257813-80.175782 15.589844-75.046875-14.910157zm0 0"/></g><path d="m72.132812 112.5625v48.367188c6.988282-17.988282 17.226563-34.351563 30-48.367188 25.257813-27.714844 60.414063-46.242188 99.875-50.023438-1.21875-.117187-2.445312-.21875-3.667968-.308593-3.773438-.285157-7.550782-.417969-11.332032-.417969-19.914062 0-38.949218 3.746094-56.445312 10.570312-3.75 1.460938-7.429688 3.0625-11.03125 4.804688-18.003906 8.695312-34.078125 20.757812-47.398438 35.375zm0 0" fill="#423e4f"/><path d="m92.816406 426.246094c3.875 12.488281 11.195313 23.6875 20.875 32.441406 5.019532 4.542969 10.691406 8.507812 16.921875 11.871094 6.53125 3.519531 13.417969 6.238281 20.550781 8.277344-14.175781-12.019532-24.523437-28.558594-29.109374-48.898438-.46875-2.066406-.871094-4.175781-1.21875-6.320312h-28.78125c.238281.882812.492187 1.757812.761718 2.628906zm0 0" fill="#423e4f"/><path d="m150.335938 318.777344c-19.875 7.421875-37.183594 21.351562-48.289063 39.492187-5.433594 8.875-9.308594 18.886719-11.210937 29.21875l19.933593 25.9375 9.042969 1.796875c-.265625-3.179687-.402344-6.429687-.402344-9.753906 0-6.320312.488282-12.527344 1.425782-18.539062 4.65625-30.140626 20.488281-55.996094 42.542968-72.027344-4.425781.992187-8.789062 2.289062-13.042968 3.875zm0 0" fill="#423e4f"/><path d="m301.882812 112.5625c-11.324218-4.078125-23.53125-6.300781-36.261718-6.300781-27.121094 0-51.886719 10.097656-70.746094 26.734375-4.480469 3.953125-11.257812 3.953125-15.738281 0-18.859375-16.636719-43.625-26.734375-70.746094-26.734375-12.726563 0-24.9375 2.222656-36.257813 6.300781-25.253906 27.710938-40.621093 64.59375-40.507812 105.078125.238281 84.828125 69.363281 154.285156 154.1875 154.921875 86.359375.648438 156.578125-69.160156 156.578125-155.367188 0-40.308593-15.351563-77.023437-40.507813-104.632812zm0 0" fill="#f8e86a"/><path d="m118.476562 269.078125h-20.917968c-4.140625 0-7.5-3.359375-7.5-7.5s3.359375-7.5 7.5-7.5h20.917968c4.140626 0 7.5 3.359375 7.5 7.5s-3.359374 7.5-7.5 7.5zm0 0" fill="#ff9db0"/><path d="m276.453125 269.078125h-20.917969c-4.144531 0-7.5-3.359375-7.5-7.5s3.355469-7.5 7.5-7.5h20.917969c4.144531 0 7.5 3.359375 7.5 7.5s-3.355469 7.5-7.5 7.5zm0 0" fill="#ff9db0"/><path d="m82.8125 31.386719c0 13.195312-10.695312 23.890625-23.886719 23.890625-13.191406 0-23.886719-10.695313-23.886719-23.890625 0-13.191407 10.695313-23.886719 23.886719-23.886719 13.191407 0 23.886719 10.695312 23.886719 23.886719zm0 0" fill="#f2c13b"/><path d="m338.972656 31.386719c0 13.195312-10.695312 23.890625-23.886718 23.890625-13.191407 0-23.886719-10.695313-23.886719-23.890625 0-13.191407 10.695312-23.886719 23.886719-23.886719 13.191406 0 23.886718 10.695312 23.886718 23.886719zm0 0" fill="#f2c13b"/><path d="m282.222656 403.0625c0 7.277344-.914062 14.140625-2.644531 20.554688-27.039063 13.824218-59.230469 21.203124-93.761719 21.203124s-66.714844-7.378906-93.761718-21.203124c-1.730469-6.414063-2.644532-13.277344-2.644532-20.554688 0-5.304688.488282-10.519531 1.421875-15.574219 27.292969 14.234375 59.925781 21.835938 94.984375 21.835938 35.046875 0 67.6875-7.601563 94.980469-21.835938.9375 5.054688 1.425781 10.269531 1.425781 15.574219zm0 0" fill="#f8e86a"/><path d="m90.835938 387.492188c-.9375 5.050781-1.425782 10.265624-1.425782 15.570312 0 7.28125.914063 14.140625 2.644532 20.554688 9.898437 5.0625 20.492187 9.246093 31.628906 12.535156-.597656-2.035156-1.152344-4.097656-1.628906-6.214844-1.730469-7.636719-2.644532-15.804688-2.644532-24.46875 0-2.042969.070313-4.066406.171875-6.082031-10.09375-3.222657-19.71875-7.1875-28.746093-11.894531zm0 0" fill="#f2c13b"/><path d="m202.089844 371.84375c-78.433594-7.550781-140.238282-74-140.464844-154.203125-.113281-40.484375 15.253906-77.367187 40.507812-105.078125 1.964844-2.15625 3.996094-4.25 6.082032-6.296875-12.667969.023437-24.816406 2.238281-36.082032 6.296875-2.367187 2.597656-4.648437 5.277344-6.839843 8.03125-21.824219 27.460938-33.769531 61.976562-33.667969 97.046875.109375 39.761719 15.359375 76.148437 40.265625 103.652344 27.148437 29.976562 65.609375 48.652343 106.015625 51.011719 4.058594.234374 20.339844-.09375 24.183594-.460938zm0 0" fill="#f2c13b"/><path d="m107.394531 246.546875c4.144531 0 7.5-3.359375 7.5-7.5v-15.359375c0-4.144531-3.355469-7.503906-7.5-7.503906-4.140625 0-7.5 3.359375-7.5 7.503906v15.359375c0 4.140625 3.359375 7.5 7.5 7.5zm0 0"/><path d="m265.402344 246.546875c4.140625 0 7.5-3.359375 7.5-7.5v-15.359375c0-4.144531-3.359375-7.503906-7.5-7.503906-4.144532 0-7.503906 3.359375-7.503906 7.503906v15.359375c0 4.140625 3.359374 7.5 7.503906 7.5zm0 0"/><path d="m186.398438 268.257812c7.671874 0 14.878906-3.210937 19.777343-8.816406 2.726563-3.117187 2.410157-7.855468-.710937-10.582031-3.117188-2.726563-7.859375-2.410156-10.585938.710937-2.046875 2.34375-5.140625 3.6875-8.480468 3.6875-3.34375 0-6.433594-1.34375-8.480469-3.6875-2.730469-3.121093-7.46875-3.4375-10.585938-.710937-3.121093 2.726563-3.4375 7.464844-.710937 10.582031 4.894531 5.605469 12.105468 8.816406 19.777344 8.816406zm0 0"/><path d="m15.75 358.609375c-.839844-4.058594-4.808594-6.664063-8.867188-5.824219-4.054687.839844-6.664062 4.808594-5.824218 8.863282 8.15625 39.382812 43.300781 67.964843 83.574218 67.964843.246094 0 .492188-.011719.738282-.015625 9.304687 28.714844 33.960937 49.707032 68.308594 57.902344 3.667968.875 7.078124 3.035156 9.601562 6.085938 0 0 10.34375 12.492187 10.351562 12.5 6.53125 7.890624 19.011719 7.878906 25.535157 0l11.128906-13.441407c2.351563-2.84375 5.542969-4.859375 9.21875-5.828125 32.851563-8.652344 56.496094-29.386718 65.53125-57.21875.246094.003906.496094.015625.742187.015625 47.0625 0 85.347657-38.289062 85.347657-85.347656 0-26.53125-12.246094-51.289063-33.039063-67.421875 7.359375-18.734375 11.214844-38.875 11.214844-59.609375 0-40.535156-14.972656-79.351563-42.164062-109.359375-.195313-.242188-.402344-.476562-.625-.691406-11.984376-13.074219-25.9375-23.964844-41.183594-32.40625 6.960937-9.246094 15.273437-17.140625 24.824218-23.582032 5.761719 7.066407 14.53125 11.589844 24.339844 11.589844 17.308594 0 31.390625-14.082031 31.390625-31.390625 0-17.3125-14.082031-31.394531-31.394531-31.394531-17.308594 0-31.390625 14.085938-31.390625 31.394531 0 2.085938.207031 4.121094.597656 6.09375-12.40625 8.058594-23.320312 18.464844-32.015625 30.535157-20.402344-8.929688-42.621094-13.703126-65.292968-13.703126-22.667969 0-44.886719 4.773438-65.289063 13.703126-8.695313-12.070313-19.609375-22.476563-32.019531-30.535157.390625-1.972656.601562-4.007812.601562-6.09375-.003906-17.308593-14.085937-31.394531-31.394531-31.394531-17.3125 0-31.394531 14.085938-31.394531 31.394531 0 17.308594 14.082031 31.390625 31.394531 31.390625 9.804687 0 18.574219-4.523437 24.335937-11.589844 9.550782 6.441407 17.863282 14.339844 24.828126 23.582032-15.386719 8.519531-29.449219 19.527344-41.503907 32.753906-27.5 30.179688-42.585937 69.308594-42.46875 110.171875.054688 20.277344 3.882813 39.71875 10.800781 57.660156-17.675781 12.933594-29.820312 32.238281-33.671874 53.851563-.726563 4.078125 1.992187 7.972656 6.070312 8.699218 4.078125.730469 7.972656-1.988281 8.699219-6.066406 2.976562-16.707031 11.976562-31.746094 25.117187-42.347656 11.039063 22.085938 27.125 41.585938 46.660156 56.679688 2.90625 2.246093 5.886719 4.40625 8.9375 6.457031-.019531.027343-.039062.0625-.058593.09375-11.519531 18.207031-16.78125 40.414062-14.035157 61.832031-32.085937-1.203125-59.714843-24.363281-66.257812-55.953125zm298.75-343.605469c9.039062 0 16.390625 7.351563 16.390625 16.390625 0 9.039063-7.351563 16.390625-16.390625 16.390625-9.035156 0-16.390625-7.351562-16.390625-16.390625 0-9.039062 7.355469-16.390625 16.390625-16.390625zm-256.203125 32.78125c-9.039063 0-16.394531-7.355468-16.394531-16.390625 0-9.039062 7.355468-16.390625 16.394531-16.390625 9.035156 0 16.390625 7.351563 16.390625 16.390625 0 9.039063-7.355469 16.390625-16.390625 16.390625zm41.207031 333.128906c2.109375-7.160156 5.273438-14.023437 9.296875-20.308593.042969-.0625.085938-.125.125-.191407 7.269531 3.960938 14.839844 7.363282 22.632813 10.15625.023437.007813.046875.015626.070312.023438 18.433594 6.484375 37.976563 9.792969 57.527344 9.515625.359375-.003906.722656-.007813 1.085938-.019531 25.46875-.582032 49.960937-6.992188 71.953124-18.578125.015626.027343.03125.050781.046876.078125 4.125 6.652344 7.246093 13.894531 9.269531 21.457031.035156.136719.070312.273437.105469.40625-7.453126 3.558594-15.167969 6.5625-23.042969 9.046875-3.949219 1.246094-6.140625 5.460938-4.894531 9.410156 1.246093 3.953125 5.457031 6.144532 9.410156 4.898438 7.105468-2.242188 14.113281-4.871094 20.914062-7.921875-.171875.078125.109375 3.484375.109375 3.804687.019531 5.308594-.464843 10.632813-1.597656 15.824219-.324219.15625-.644531.320313-.972656.472656-26.804688 12.785157-56.742188 18.410157-86.332031 18.410157-29.972657 0-60.246094-5.746094-87.308594-18.886719-.023438-.109375-.050782-.214844-.074219-.324219-1.316406-6.191406-1.738281-12.542969-1.441406-18.863281.003906-.144531.019531-.289063.027343-.433594.222657.101563.449219.191406.667969.289063 9.746094 4.316406 19.925781 7.796874 30.234375 10.503906 18.871094 4.921875 38.402344 7.21875 57.894532 7.21875 12.820312 0 25.578124-1.015625 37.917968-3.015625 4.089844-.664063 6.867188-4.515625 6.203125-8.605469-.664062-4.089844-4.519531-6.867188-8.605469-6.203125-11.546874 1.871094-23.496093 2.820313-35.519531 2.820313-29.597656 0-59.605469-5.628907-86.40625-18.433594.21875-.855469.453125-1.703125.703125-2.550782zm116.191406 91.394532c-6.730468 1.773437-12.59375 5.496094-16.957031 10.765625 0 0-11.121093 13.433593-11.128906 13.445312-.582031.703125-1.761719.792969-2.421875 0l-10.347656-12.5c-4.585938-5.539062-10.867188-9.488281-17.679688-11.113281-23.308594-5.5625-41.28125-17.832031-51.453125-34.648438 1.3125.503907 2.640625.988282 3.96875 1.46875 24.191407 8.683594 49.867188 12.675782 75.535157 12.675782 25.660156 0 51.398437-3.984375 75.578124-12.691406 1.304688-.46875 2.609376-.945313 3.898438-1.441407-9.824219 16.191407-26.921875 28.226563-48.992188 34.039063zm140.4375-128.042969c0 37.910156-30.144531 68.914063-67.71875 70.296875.476563-3.738281.71875-7.554688.71875-11.425781 0-17.304688-4.921874-34.507813-14-49.234375 9.4375-6.152344 18.308594-13.324219 26.460938-21.476563 12.339844-12.335937 22.449219-26.308593 30.140625-41.417969 15.414063 13.289063 24.398437 32.628907 24.398437 53.257813zm-169.734374-274.941406c32.34375 0 63.6875 10.691406 89.1875 29.9375-3.511719-.316407-7.035157-.480469-10.5625-.480469-27.636719 0-54.992188 10.328125-75.71875 28.613281-1.589844 1.40625-4.226563 1.40625-5.816407 0-20.917969-18.453125-47.808593-28.613281-75.71875-28.613281-3.492187 0-7.054687.164062-10.558593.480469 25.5-19.246094 56.84375-29.9375 89.1875-29.9375zm-110.636719 49.738281c4.214843-1.433594 8.523437-2.601562 12.898437-3.429688 16.671875-3.15625 33.925782-2.199218 50.074219 3.085938 12.742187 4.171875 24.605469 10.910156 34.828125 19.929688 7.234375 6.378906 18.449219 6.371093 25.667969 0 18.058593-15.929688 41.71875-24.863282 65.796875-24.863282 10.863281 0 21.71875 1.789063 32.003906 5.277344 24.050781 27.085938 37.277344 61.871094 37.277344 98.171875 0 51.742187-28.199219 101.179687-73.046875 127.558594-.03125.019531-.0625.035156-.089844.054687-45.4375 27.617188-105.519531 26.402344-150.734375-.867187-43.640625-26.316407-71.804688-75.015625-71.949219-126.320313-.101562-36.460937 13.121094-71.394531 37.273438-98.597656zm0 0"/></svg>