<svg height="512pt" viewBox="0 0 512 511" width="512pt" xmlns="http://www.w3.org/2000/svg"><path d="m95.761719 66.484375c-53.980469 45.582031-88.261719 113.761719-88.261719 189.941406 0 137.238281 111.261719 248.5 248.5 248.5 2.199219 0 4.390625-.03125 6.570312-.089843l54.429688-70.078126-31.335938-137.332031-83.332031-52.667969v-128zm0 0" fill="#a7e0f5"/><path d="m447.578125 98.144531c35.550781 42.992188 56.921875 98.140625 56.921875 158.28125 0 62.128907-22.808594 118.929688-60.5 162.507813h-101.667969l-56.667969-121.507813-83.332031-52.667969v-126l154-29.332031zm0 0" fill="#a7e0f5"/><path d="m47.5 256.425781c0-69.542969 28.574219-132.40625 74.617188-177.507812l-26.355469-12.433594c-30.367188 25.640625-54.496094 58.429687-69.796875 95.769531-12.191406 29.746094-18.464844 62.03125-18.464844 94.171875 0 41.144531 10.351562 82.289063 29.992188 118.449219 27.695312 50.976562 73.421874 91.53125 127.390624 112.8125 28.210938 11.125 58.953126 17.238281 91.117188 17.238281 2.199219 0 4.390625-.03125 6.570312-.089843l1.515626-1.949219c-122.167969-15.667969-216.585938-120.035157-216.585938-246.460938zm0 0" fill="#59c2e7"/><path d="m418.050781 389.375 25.949219 29.558594c-44.230469 51.121094-108.96875 84.019531-181.429688 85.902344l-2.441406-3.371094c-8.1875-11.308594-12.300781-24.628906-12.300781-37.96875 0-12.742188 3.75-25.5 11.292969-36.53125 9.640625-14.089844 13.320312-31.417969 10.238281-48.210938l-3.320313-18.089844c-.667968-3.648437-2.160156-7.039062-4.320312-9.949218-2.140625-2.910156-4.949219-5.328125-8.238281-7.039063-11.28125-5.851562-16.050781-19.472656-10.902344-31.082031l3.671875-8.238281c2.011719-4.539063-.199219-9.832031-4.828125-11.589844l-48.03125-18.269531c-6.082031-2.3125-10.902344-7.101563-13.242187-13.179688l-18.789063-48.710937c-.828125-2.140625-2.199219-3.992188-3.917969-5.390625-1.730468-1.398438-3.820312-2.351563-6.089844-2.710938-8.179687-1.308594-15.460937 5.300782-14.941406 13.5625l1.75 28.019532c.019532.308593.03125.617187.03125.929687 0 7.96875-6.472656 14.539063-14.5625 14.539063-6.75 0-12.609375-4.640626-14.167968-11.199219l-9.992188-42.101563c-2.359375-9.929687-.320312-20.390625 5.589844-28.707031l11.070312-15.582031c2.28125-3.210938 5.082032-6.019532 8.292969-8.320313l9.816406-7.019531c10.421875-7.441406 11.050781-22.691406 1.292969-30.96875l-13.492188-11.429688c-10.25-8.691406-18.230468-19.75-23.25-32.230468l-3.027343-7.511719c43.269531-36.53125 99.179687-58.558594 160.238281-58.558594 77.101562 0 146 35.109375 191.578125 90.21875l-14.546875 17.582031c-5.632812 6.796876-14.109375 10.578126-22.929688 10.21875l-23.171874-.949218c-5.390626-.222656-10.640626 1.828125-14.449219 5.648437-6.320313 6.320313-7.480469 16.140625-2.820313 23.761719l3.289063 5.359375c3.722656 6.078125 2.519531 13.949219-2.847657 18.640625-4.511718 3.9375-10.960937 4.730469-16.292968 1.988281l-24.527344-12.609375c-9.769531-5.019531-20.929688-6.640625-31.722656-4.621094l-6.019532 1.132813c-14 2.617187-26.1875 11.15625-33.449218 23.417969l-9.121094 15.398437c-4.019531 6.8125-4.257812 15.210938-.628906 22.230469l16 30.882812c2.648437 5.117188 9.359375 6.46875 13.78125 2.769532l16.238281-13.609375c2.839844-2.382813 6.339844-3.570313 9.832031-3.570313 3.378906 0 6.757813 1.109375 9.558594 3.347656 5.25 4.199219 7.140625 11.351563 4.648438 17.601563l-6.71875 16.890625c-.941407 2.378906-1.390626 4.828125-1.390626 7.25 0 7.367188 4.160157 14.378906 11.179688 17.730469 9.792969 4.667969 17.792969 12.417969 22.769531 22.058593l8.550781 16.53125c3.722657 7.1875 8.902344 13.398438 15.121094 18.289063s13.46875 8.46875 21.339844 10.390625c11.171875 2.730469 21.21875 8.828125 28.800781 17.46875zm0 0" fill="#55d47b"/><path d="m98.789062 73.996094c2.671876 6.636718 6.183594 12.863281 10.425782 18.554687 8.191406-9.328125 17.054687-18.054687 26.546875-26.066406 38.496093-32.5 87.003906-53.507813 140.234375-57.75-2.648438-.210937-5.308594-.371094-7.980469-.5-24.453125-1.195313-49.113281 1.21875-72.855469 7.195313-36.460937 9.179687-70.675781 26.804687-99.398437 51.054687zm0 0" fill="#00a52c"/><path d="m167.5 71.40625v14.660156c0 4.140625 3.359375 7.5 7.5 7.5 4.144531 0 7.5-3.359375 7.5-7.5v-14.660156c0-4.140625-3.355469-7.5-7.5-7.5-4.140625 0-7.5 3.359375-7.5 7.5zm0 0"/><path d="m329.5 71.40625v14.660156c0 4.140625 3.355469 7.5 7.5 7.5 4.140625 0 7.5-3.359375 7.5-7.5v-14.660156c0-4.140625-3.359375-7.5-7.5-7.5-4.144531 0-7.5 3.359375-7.5 7.5zm0 0"/><path d="m270.34375 80.109375c-3.488281 3.992187-8.714844 6.28125-14.34375 6.28125s-10.855469-2.289063-14.34375-6.28125c-2.726562-3.121094-7.464844-3.4375-10.585938-.710937-3.117187 2.726562-3.433593 7.464843-.710937 10.582031 6.339844 7.253906 15.683594 11.410156 25.640625 11.410156s19.300781-4.15625 25.640625-11.410156c2.722656-3.117188 2.40625-7.855469-.710937-10.582031-3.121094-2.726563-7.859376-2.40625-10.585938.710937zm0 0"/><path d="m453.359375 93.4375c-8.996094-10.875-19.007813-21.113281-29.753906-30.429688-3.128907-2.714843-7.867188-2.375-10.578125.75-2.714844 3.128907-2.375 7.867188.753906 10.582032 8.554688 7.414062 16.609375 15.449218 24.011719 23.941406-7.238281 8.746094-14.378907 20.996094-27.386719 20.242188-7.792969-.378907-15.601562-.703126-23.398438-.953126-7.402343-.242187-14.613281 2.613282-19.832031 7.84375-8.796875 8.800782-10.40625 22.359376-3.90625 32.988282 0 0 3.277344 5.339844 3.285157 5.351562 3.652343 5.945313-3.078126 13.25-9.316407 10.042969 0 0-24.527343-12.609375-24.527343-12.609375-15.050782-7.734375-32.546876-7.546875-48.488282-2.746094-13.601562 4.09375-25.269531 13.167969-32.585937 25.523438l-9.125 15.410156c-5.367188 9.09375-5.679688 20.117188-.828125 29.492188 0 0 15.992187 30.863281 15.996094 30.878906 4.769531 9.203125 17.289062 11.738281 25.257812 5.070312 0 0 16.203125-13.578125 16.242188-13.609375 6.042968-5.066406 15.179687 1.511719 12.253906 8.859375 0 0-6.726563 16.902344-6.730469 16.90625-5.199219 13.074219.847656 28.449219 13.539063 34.503906 8.246093 3.9375 15.148437 10.613282 19.335937 18.738282 6.539063 12.636718 12.214844 25.480468 23.074219 35.089844 8.242187 7.214843 18.183594 11.460937 28.625 14.4375 8.980468 2.558593 16.949218 7.597656 23.136718 14.652343l21.582032 24.582031c-20.859375 22.859376-45.515625 41.242188-73.382813 54.691407-29.621093 14.292969-61.332031 22.230469-94.308593 23.609375l-.097657-.140625c-7.113281-9.824219-10.875-21.433594-10.875-33.570313 0-11.578125 3.449219-22.746094 9.980469-32.292968 10.828125-15.828126 14.886719-34.933594 11.425781-53.800782l-3.320312-18.089844c-1.734375-9.457031-7.914063-17.890624-16.484375-22.292968-6.289063-3.265625-9.644532-10.074219-8.785156-16.785156.570312-4.449219 3.152343-8.78125 4.960937-12.839844 3.703125-8.320313-.523437-18.410156-9.019531-21.640625l-48.035156-18.269531c-4.089844-1.550782-7.332032-4.785157-8.90625-8.867188 0 0-18.792969-48.714844-18.792969-48.722656-2.675781-6.933594-9.207031-12.003906-16.582031-12.894532-12.457032-1.503906-23.636719 8.992188-22.847657 21.53125 0 0 1.75 28.039063 1.75 28.039063.265625 4.003906-3.046875 7.484375-7.042969 7.484375-3.289062 0-6.113281-2.234375-6.875-5.433594l-9.988281-42.101562c-1.859375-7.820313-.253906-16.070313 4.40625-22.632813 0 0 11.0625-15.570312 11.070313-15.578125 4.097656-5.765625 10.6875-9.53125 16.351562-13.582031 4.066406-2.9375 7.488282-7.128906 9.414063-11.914063 4.328125-10.765624 1.207031-23.378906-7.632813-30.878906l-13.488281-11.429687c-9.285156-7.871094-16.59375-18.007813-21.144531-29.316407l-.972656-2.414062c42.714843-34.4375 96.199218-53.34375 151.226562-53.34375 48.402344 0 95.09375 14.308594 135.03125 41.375 3.429688 2.324219 8.089844 1.429688 10.414062-2 2.324219-3.429688 1.429688-8.089844-2-10.414062-42.429687-28.761719-92.03125-43.960938-143.445312-43.960938-60.371094 0-118.996094 21.425781-165.078125 60.328125-57.78125 48.792969-90.921875 120.109375-90.921875 195.671875 0 43.847656 11.28125 87.117188 32.617188 125.128906 20.683593 36.839844 50.476562 68.308594 86.15625 91.011719 3.496093 2.222656 8.132812 1.191406 10.355468-2.304687 2.222656-3.492188 1.191406-8.128907-2.300781-10.351563-33.601563-21.378906-61.65625-51.011719-81.128906-85.699219-20.082031-35.773437-30.699219-76.503906-30.699219-117.785156 0-67.660156 28.226562-131.707031 77.796875-177.328125.015625.039063.035156.078125.050781.117187 5.410156 12.492188 13.914063 23.886719 24.34375 32.734376 0 0 13.46875 11.410156 13.488282 11.425781 5.953124 5.042969 5.535156 14.625-.800782 19.148437-7.175781 5.128906-14.667968 9.785156-19.863281 17.097656l-11.070313 15.582032c-7.160156 10.082031-9.628906 22.761718-6.773437 34.785156l9.992187 42.101562c2.375 9.988282 11.203126 16.964844 21.464844 16.964844 12.421875 0 22.816406-11.035156 22.015625-23.4375 0 0-1.75-28.023437-1.75-28.023437-.378906-6.039063 8.3125-7.84375 10.46875-2.289063l18.789063 48.707032c3.097656 8.050781 9.503906 14.429687 17.570312 17.496093 0 0 48.03125 18.269531 48.035156 18.269531.609376.234376.90625.925782.640626 1.527344-3.320313 7.453125-6.835938 14.507813-6.320313 22.90625.65625 10.746094 6.792969 20.859375 16.941406 26.121094 4.484375 2.324219 7.734375 6.726562 8.644531 11.691406l3.320313 18.089844c2.742187 14.945312-.472656 30.082031-9.054687 42.621094-8.242188 12.058594-12.601563 26.152344-12.601563 40.761718 0 11.71875 2.886719 23.476563 8.394531 33.824219-33.71875-.984375-66.15625-8.824219-96.523437-23.339843-3.734375-1.785157-8.214844-.203126-10 3.535156-1.789063 3.734375-.207031 8.214844 3.53125 10 67.929687 32.472656 148.875 33.027344 217.261719 1.542968 32.890624-15.144531 62.816406-37.628906 86.683593-65.214843 40.1875-46.476563 62.324219-105.933594 62.324219-167.417969 0-59.421875-20.824219-117.332031-58.640625-163.0625zm-62.332031 271.253906c-13.527344-3.304687-25.175782-12.472656-31.578125-24.835937-6.535157-12.640625-12.125-25.609375-23.460938-34.777344-3.464843-2.800781-7.25-5.210937-11.289062-7.136719-5.679688-2.710937-8.351563-9.609375-6.050781-15.4375 0 0 6.707031-16.863281 6.71875-16.886718 5.820312-14.636719-5.410157-31.226563-21.179688-31.226563-5.347656 0-10.550781 1.890625-14.644531 5.320313l-16.238281 13.609374c-.714844.59375-1.875.351563-2.304688-.472656l-15.996094-30.875c-2.460937-4.753906-2.300781-10.351562.417969-14.960937l9.121094-15.402344c6.113281-10.320313 16.589843-17.660156 28.382812-19.867187 11.121094-2.089844 21.605469-2.714844 32.109375 2.390624 8.539063 4.148438 16.902344 8.671876 25.347656 13.007813 7.925782 4.070313 17.941407 2.847656 24.652344-3.011719 8.144532-7.113281 9.957032-18.976562 4.308594-28.214844-2.296875-3.742187-5.191406-7.324218-5.023438-11.953124.230469-6.441407 5.867188-11.65625 12.304688-11.398438 0 0 23.167969.949219 23.171875.949219 10.347656.425781 20.589844-3.789063 27.640625-11.371094 3.542969-3.808594 6.714844-8.015625 10.027344-12.019531 32.003906 41.855468 49.535156 93.480468 49.535156 146.378906 0 55-18.8125 108.273438-53.144531 150.976562l-20.167969-22.972656c-8.640625-9.851562-19.933594-16.699218-32.660156-19.8125zm0 0"/></svg>