<svg height="512pt" viewBox="-3 0 512 512.001" width="512pt" xmlns="http://www.w3.org/2000/svg"><path d="m230.078125 46.769531c-17.683594-25.542969-46.394531-39.144531-76.191406-39.269531-4.65625-.019531-8.867188 2.894531-10.484375 7.261719-10.367188 27.933593-7.742188 59.59375 9.941406 85.136719 19.179688 27.703124 51.332031 41.359374 83.769531 39.011718 13.609375-29.539062 12.144531-64.441406-7.035156-92.140625zm0 0" fill="#00c756"/><path d="m176.34375 99.898438c-17.683594-25.542969-20.308594-57.203126-9.941406-85.140626.894531-2.414062 2.585937-4.378906 4.699218-5.65625-5.648437-1.035156-11.410156-1.578124-17.214843-1.601562-4.65625-.019531-8.867188 2.890625-10.484375 7.257812-10.367188 27.933594-7.742188 59.597657 9.941406 85.140626 19.179688 27.699218 51.332031 41.355468 83.769531 39.007812.148438-.320312.28125-.644531.429688-.96875-24.210938-3.859375-46.511719-16.824219-61.199219-38.039062zm0 0" fill="#00a52c"/><path d="m286.085938 29.339844-22.371094-6.746094c-7.3125-2.207031-15.144532 1.171875-18.59375 7.988281-12.703125 25.085938-17.882813 53.746094-17.457032 81.757813.289063 19.097656 2.441407 38.054687 6.828126 56.652344.089843.339843.132812.515624.132812.515624l36.695312-7.304687c.007813.023437-.035156-.21875-.050781-.421875-2.953125-37.148438-.042969-76.816406 22.578125-107.984375.050782-.074219.101563-.144531.15625-.214844 6.40625-8.71875 2.441406-21.117187-7.917968-24.242187zm0 0" fill="#de8957"/><path d="m250.664062 112.339844c-.425781-28.011719 4.753907-56.671875 17.457032-81.757813 1.082031-2.140625 2.597656-3.9375 4.394531-5.335937l-8.796875-2.652344c-7.316406-2.207031-15.148438 1.171875-18.597656 7.988281-12.703125 25.085938-17.882813 53.746094-17.457032 81.757813.289063 19.097656 2.441407 38.054687 6.832032 56.652344.085937.339843.128906.515624.128906.515624l22.015625-4.382812c-3.800781-17.355469-5.710937-35.007812-5.976563-52.785156zm0 0" fill="#c76d33"/><path d="m346.429688 109.003906c-30.132813.210938-58.160157 9.257813-81.636719 24.671875-7.183594 4.714844-16.457031 4.714844-23.644531 0-23.472657-15.414062-51.503907-24.460937-81.632813-24.671875-84.585937-.597656-152.585937 69.753906-152.011719 154.339844 1.019532 150.148438 69.472656 241.15625 133.40625 241.15625 64.414063 0 66.261719-15.929688 112.0625-15.929688 45.800782 0 47.648438 15.929688 112.0625 15.929688 63.929688 0 132.386719-91.007812 133.40625-241.15625.574219-84.585938-67.429687-154.9375-152.011718-154.339844zm0 0" fill="#fd5f7e"/><path d="m47.503906 263.34375c-.527344-77.445312 56.441406-142.949219 130.988282-153-6.21875-.824219-12.546876-1.296875-18.976563-1.339844-84.585937-.597656-152.585937 69.753906-152.011719 154.339844 1.019532 150.144531 69.472656 241.15625 133.40625 241.15625 10.695313 0 19.660156-.441406 27.394532-1.175781-60.007813-11.015625-119.847657-99.671875-120.800782-239.980469zm0 0" fill="#f9496e"/><path d="m150.484375 319.933594v-19.90625c0-4.140625-3.359375-7.5-7.5-7.5-4.144531 0-7.5 3.359375-7.5 7.5v19.90625c0 4.140625 3.355469 7.5 7.5 7.5 4.140625 0 7.5-3.359375 7.5-7.5zm0 0"/><path d="m370.460938 319.933594v-19.90625c0-4.140625-3.355469-7.5-7.5-7.5-4.140626 0-7.5 3.359375-7.5 7.5v19.90625c0 4.140625 3.359374 7.5 7.5 7.5 4.140624 0 7.5-3.359375 7.5-7.5zm0 0"/><path d="m252.972656 338.058594c12.742188 0 24.695313-5.3125 32.792969-14.574219 2.726563-3.117187 2.40625-7.855469-.710937-10.582031-3.121094-2.726563-7.855469-2.410156-10.582032.707031-5.25 6.003906-13.085937 9.449219-21.5 9.449219-8.417968 0-16.253906-3.445313-21.5-9.449219-2.726562-3.117187-7.464844-3.433594-10.585937-.710937-3.117188 2.726562-3.4375 7.464843-.710938 10.585937 8.097657 9.261719 20.050781 14.574219 32.796875 14.574219zm0 0"/><path d="m365.035156 497c-33.90625 0-49.488281-4.417969-64.554687-8.691406-31.917969-9.054688-63.214844-9.019532-95.015625 0-15.070313 4.273437-30.652344 8.691406-64.554688 8.691406-23.644531 0-48.183594-14.085938-69.101562-39.660156-2.625-3.207032-7.347656-3.683594-10.554688-1.058594-3.207031 2.621094-3.679687 7.347656-1.058594 10.554688 23.824219 29.125 52.488282 45.164062 80.714844 45.164062 35.984375 0 53.335938-4.921875 68.644532-9.261719 29.265624-8.300781 57.679687-8.269531 86.832031 0 15.308593 4.339844 32.65625 9.261719 68.648437 9.261719 35.238282 0 70.488282-24.738281 96.703125-67.878906 28.027344-46.113282 43.722657-110.300782 44.203125-180.726563.253906-37.4375-12.585937-74.0625-36.15625-103.125-2.609375-3.214843-7.332031-3.710937-10.546875-1.101562-3.21875 2.609375-3.710937 7.332031-1.101562 10.550781 21.382812 26.371094 33.035156 59.601562 32.804687 93.574219-.460937 67.753906-15.386718 129.207031-42.023437 173.039062-23.429688 38.554688-54.003907 60.667969-83.882813 60.667969zm0 0"/><path d="m.00390625 263.394531c.59765575 87.890625 23.26953175 144.945313 42.18749975 177.335938 2.058594 3.523437 6.738282 4.75 10.261719 2.691406 3.574219-2.085937 4.78125-6.683594 2.691406-10.257813-17.996093-30.8125-39.566406-85.292968-40.140625-169.871093-.269531-39.652344 15.007813-76.914063 43.023438-104.921875 27.273437-27.265625 63.316406-42.144532 101.433594-41.867188 27.390624.199219 54.667968 8.417969 77.570312 23.4375 9.394531 6.160156 21.890625 6.332032 31.398438.300782 23.289062-14.765626 50.386718-23.546876 78.050781-23.742188 33.304687-.210938 65.820312 11.453125 91.605469 32.910156 3.183593 2.648438 7.914062 2.214844 10.5625-.96875 2.648437-3.183594 2.214843-7.910156-.96875-10.558594-28.5-23.722656-64.492188-36.65625-101.304688-36.378906-23.527344.164063-46.484375 5.523438-67.429688 15.59375 2.539063-23.628906 9.433594-43 20.953126-58.875.003906-.003906.066406-.085937.066406-.089844 0 0 .078125-.109374.078125-.109374 9.273437-12.671876 3.273437-31.320313-11.792969-35.863282 0 0-22.367188-6.746094-22.367188-6.746094-10.707031-3.226562-22.417968 1.828126-27.457031 11.78125-1.847656 3.65625-3.546875 7.433594-5.125 11.296876-18.574219-24.054688-47.878906-38.359376-79.460937-38.492188-7.753906 0-14.773438 4.882812-17.46875 12.148438-11.25 30.316406-7.722656 63.703124 9.371094 89.871093-37 2.980469-71.5 18.929688-98.316407 45.746094-30.878906 30.867187-47.71875 71.929687-47.42187475 115.628906zm251.80468775-229.421875c1.785156-3.527344 5.957031-5.339844 9.742187-4.199218 0 0 22.34375 6.738281 22.367188 6.746093 5.347656 1.613281 7.296875 8.1875 4.042969 12.617188l-.117188.164062c-.003906.003907-.0625.085938-.066406.089844-14.796875 20.390625-22.863282 45.421875-24.605469 76.417969-.003906.121094-3.199219 2.097656-4.402344 2.644531-8.886719 4.039063-16.019531-2.925781-23.292969-6.980469-.40625-8.453125-.445312-16.917968.097657-25.367187 1.527343-22.753907 7.046875-43.988281 16.234375-62.132813zm-101.375-16.605468c.523437-1.414063 1.894531-2.367188 3.421875-2.367188 28.328125.121094 54.519531 13.59375 70.058593 36.039062 1.140626 1.648438 2.242188 3.375 3.289063 5.15625-3.984375 14.105469-6.292969 29.058594-6.898437 44.640626-.007813.191406-.019532.386718-.027344.578124l-33.761719-48.761718c-2.355469-3.402344-7.027344-4.253906-10.433594-1.894532-3.40625 2.355469-4.257812 7.027344-1.898437 10.433594l33.261718 48.042969c-9.796874-3.195313-19.875-5.402344-30.179687-6.613281-4.34375-.511719-8.714844-.847656-13.085937-1.003906-.035157 0-.066407-.003907-.101563-.003907-1.625-1.941406-3.15625-3.945312-4.566406-5.984375-15.542969-22.445312-18.9375-51.703125-9.078125-78.261718zm0 0"/></svg>