<svg height="512pt" viewBox="-61 0 512 512" width="512pt" xmlns="http://www.w3.org/2000/svg"><path d="m62.539062 117.078125s-55.039062 35.011719-55.039062 149.027344c0 114.011719 101.578125 238.394531 187.605469 238.394531 86.027343 0 187.605469-124.378906 187.605469-238.394531 0-114.011719-55.039063-149.027344-55.039063-149.027344zm0 0" fill="#fd5f7e"/><path d="m37.5 266.105469c0-114.015625 55.039062-149.027344 55.039062-149.027344h-30s-55.039062 35.015625-55.039062 149.027344c0 114.015625 101.578125 238.394531 187.605469 238.394531 4.953125 0 9.964843-.433594 15-1.230469-82.394531-13.082031-172.605469-129.714843-172.605469-237.164062zm0 0" fill="#f9496e"/><path d="m318.09375 92.277344c-13.640625-12.183594-41.046875-25.574219-96.027344-28.890625-4.441406-.269531-7.816406-4.101563-7.503906-8.539063l2.359375-33.375c.53125-7.550781-5.449219-13.972656-13.023437-13.972656h-17.585938c-7.574219 0-13.554688 6.421875-13.023438 13.972656l2.355469 33.375c.316407 4.4375-3.058593 8.269532-7.5 8.539063-54.980469 3.316406-82.386719 16.707031-96.027343 28.890625-21.214844 18.953125-5.289063 54.574218 22.828124 50.25.511719-.078125 1.023438-.167969 1.539063-.273438h.003906c12.222657-2.574218 24.804688 2.355469 32.027344 12.542969l2.40625 3.398437c10.023437 14.140626 29.558594 17.59375 43.820313 7.746094l2.371093-1.636718c5.414063-3.738282 11.703125-5.609376 17.992188-5.609376 6.285156 0 12.574219 1.871094 17.988281 5.609376l2.371094 1.636718c14.261718 9.847656 33.796875 6.394532 43.820312-7.746094l2.40625-3.394531c7.222656-10.191406 19.808594-15.121093 32.035156-12.546875.511719.105469 1.027344.195313 1.539063.273438 28.113281 4.324218 44.039063-31.296875 22.828125-50.25zm0 0" fill="#55d47b"/><path d="m102.117188 91.679688c8.433593-9.300782 22.140624-19.164063 44.359374-26.3125-40.761718 5.101562-62.648437 16.445312-74.359374 26.910156-21.214844 18.953125-5.289063 54.574218 22.828124 50.25.511719-.078125 1.023438-.171875 1.539063-.273438h.003906c.917969-.195312 1.835938-.332031 2.753907-.441406-9.171876-13.707031-10.132813-35.789062 2.875-50.132812zm0 0" fill="#00a52c"/><g fill="#f8e86a"><path d="m196.050781 202.3125c-.527343-.507812-1.363281-.507812-1.890625 0-23.410156 22.605469-17.199218 42.84375.945313 42.84375s24.355469-20.238281.945312-42.84375zm0 0"/><path d="m85.828125 181.585938c-.527344-.511719-1.367187-.511719-1.894531 0-23.410156 22.601562-17.195313 42.839843.945312 42.839843 18.144532 0 24.359375-20.238281.949219-42.839843zm0 0"/><path d="m304.382812 181.585938c.527344-.511719 1.367188-.511719 1.894532 0 23.410156 22.601562 17.195312 42.839843-.945313 42.839843-18.144531 0-24.359375-20.238281-.949219-42.839843zm0 0"/><path d="m196.050781 411.9375c-.527343-.511719-1.363281-.511719-1.890625 0-23.410156 22.601562-17.199218 42.839844.945313 42.839844s24.355469-20.238282.945312-42.839844zm0 0"/><path d="m106.558594 360.109375c-.527344-.507813-1.367188-.507813-1.894532 0-23.410156 22.605469-17.195312 42.84375.945313 42.84375 18.144531 0 24.359375-20.238281.949219-42.84375zm0 0"/><path d="m283.652344 360.109375c.527344-.507813 1.367187-.507813 1.894531 0 23.410156 22.605469 17.195313 42.84375-.945313 42.84375-18.144531 0-24.359374-20.238281-.949218-42.84375zm0 0"/></g><path d="m109.597656 283.609375c-4.144531 0-7.5 3.359375-7.5 7.5v15.476563c0 4.140624 3.355469 7.5 7.5 7.5 4.140625 0 7.5-3.359376 7.5-7.5v-15.476563c0-4.140625-3.359375-7.5-7.5-7.5zm0 0"/><path d="m288.113281 306.585938v-15.476563c0-4.140625-3.355469-7.5-7.5-7.5-4.140625 0-7.5 3.359375-7.5 7.5v15.476563c0 4.140624 3.359375 7.5 7.5 7.5 4.144531 0 7.5-3.359376 7.5-7.5zm0 0"/><path d="m168.355469 310.445312c6.609375 7.5625 16.359375 11.902344 26.75 11.902344s20.140625-4.339844 26.753906-11.902344c2.726563-3.117187 2.40625-7.855468-.710937-10.582031-3.121094-2.726562-7.859376-2.410156-10.585938.710938-3.761719 4.304687-9.394531 6.773437-15.457031 6.773437-6.058594 0-11.695313-2.46875-15.457031-6.773437-2.726563-3.121094-7.464844-3.4375-10.582032-.710938-3.121094 2.726563-3.4375 7.460938-.710937 10.582031zm0 0"/><path d="m195.105469 252.652344c10.339843 0 18.566406-5.074219 22-13.574219 4.886719-12.101563-1.035157-27.859375-15.84375-42.160156-1.660157-1.605469-3.847657-2.484375-6.15625-2.484375-2.308594 0-4.492188.878906-6.15625 2.484375-14.808594 14.300781-20.730469 30.058593-15.84375 42.160156 3.433593 8.5 11.660156 13.574219 22 13.574219zm0-40.398438c6.097656 7.179688 10.363281 15.582032 8.09375 21.203125-1.476563 3.652344-5.703125 4.195313-8.09375 4.195313-2.386719 0-6.617188-.542969-8.089844-4.195313-2.273437-5.621093 1.996094-14.023437 8.089844-21.203125zm0 0"/><path d="m91.035156 176.1875c-1.65625-1.601562-3.84375-2.484375-6.152344-2.484375-2.3125 0-4.496093.882813-6.15625 2.484375-14.8125 14.300781-20.734374 30.058594-15.84375 42.160156 3.433594 8.5 11.65625 13.578125 22 13.578125 10.339844 0 18.5625-5.078125 22-13.578125 4.886719-12.101562-1.035156-27.859375-15.847656-42.160156zm1.9375 36.542969c-1.476562 3.648437-5.703125 4.195312-8.089844 4.195312-2.390624 0-6.617187-.546875-8.09375-4.195312-2.273437-5.625 1.996094-14.027344 8.09375-21.207031 6.09375 7.179687 10.363282 15.582031 8.089844 21.207031zm0 0"/><path d="m327.328125 218.347656c4.890625-12.101562-1.03125-27.859375-15.84375-42.160156-1.660156-1.601562-3.84375-2.484375-6.152344-2.484375-2.308593 0-4.496093.882813-6.15625 2.484375-14.808593 14.300781-20.734375 30.058594-15.84375 42.160156 3.433594 8.5 11.65625 13.578125 22 13.578125 10.339844 0 18.5625-5.078125 21.996094-13.578125zm-13.90625-5.617187c-1.472656 3.648437-5.703125 4.195312-8.089844 4.195312-2.390625 0-6.617187-.546875-8.09375-4.195312-2.269531-5.625 2-14.027344 8.09375-21.207031 6.09375 7.179687 10.363281 15.582031 8.089844 21.207031zm0 0"/><path d="m195.105469 404.054688c-2.308594 0-4.496094.882812-6.15625 2.484374-14.808594 14.300782-20.730469 30.0625-15.84375 42.160157 3.433593 8.5 11.660156 13.578125 22 13.578125 10.339843 0 18.566406-5.078125 22-13.578125 4.886719-12.097657-1.035157-27.859375-15.84375-42.160157-1.660157-1.601562-3.847657-2.484374-6.15625-2.484374zm8.09375 39.027343c-1.476563 3.648438-5.703125 4.195313-8.09375 4.195313-2.386719 0-6.617188-.546875-8.089844-4.195313-2.273437-5.625 1.996094-14.027343 8.089844-21.207031 6.09375 7.179688 10.363281 15.582031 8.09375 21.207031zm0 0"/><path d="m111.765625 354.714844c-1.660156-1.601563-3.84375-2.484375-6.15625-2.484375-2.308594 0-4.492187.882812-6.15625 2.484375-14.808594 14.300781-20.730469 30.0625-15.84375 42.160156 3.4375 8.503906 11.660156 13.578125 22 13.578125 10.34375 0 18.566406-5.074219 22-13.578125 4.890625-12.101562-1.035156-27.859375-15.84375-42.160156zm1.9375 36.542968c-1.476563 3.648438-5.703125 4.195313-8.09375 4.195313-2.386719 0-6.617187-.546875-8.089844-4.195313-2.273437-5.625 1.996094-14.027343 8.089844-21.207031 6.097656 7.179688 10.367187 15.582031 8.09375 21.207031zm0 0"/><path d="m262.601562 396.875c3.433594 8.5 11.660157 13.578125 22 13.578125 10.339844 0 18.5625-5.074219 22-13.578125 4.886719-12.097656-1.035156-27.859375-15.84375-42.15625-1.660156-1.605469-3.847656-2.488281-6.15625-2.488281-2.308593 0-4.496093.882812-6.15625 2.484375-14.808593 14.300781-20.730468 30.058594-15.84375 42.160156zm22-26.824219c6.09375 7.179688 10.363282 15.582031 8.089844 21.207031-1.472656 3.648438-5.703125 4.195313-8.089844 4.195313-2.390624 0-6.617187-.546875-8.09375-4.195313-2.269531-5.625 2-14.027343 8.09375-21.207031zm0 0"/><path d="m320.71875 428.761719c3.230469 2.460937 8.023438 1.835937 10.507812-1.425781 37.488282-49.277344 58.984376-108.042969 58.984376-161.230469 0-100.828125-41.828126-142.214844-54.800782-152.625-.050781-10.046875-4.3125-19.640625-12.320312-26.792969-19.6875-17.59375-53.527344-27.949219-100.574219-30.789062-.050781-.003907-.210937-.011719-.351563-.171876-.132812-.152343-.125-.296874-.117187-.351562 0 0 2.355469-33.359375 2.355469-33.371094.828125-11.722656-8.761719-22.003906-20.503906-22.003906 0 0-17.578126 0-17.585938 0-11.75 0-21.332031 10.28125-20.503906 22.003906l2.359375 33.371094c.003906.054688.011719.199219-.121094.351562-.140625.160157-.300781.167969-.351563.171876-47.046874 2.839843-80.886718 13.195312-100.574218 30.789062-8.007813 7.152344-12.269532 16.75-12.316406 26.804688-7.066407 5.691406-22.769532 20.675781-35.625 49.730468-1.675782 3.789063.039062 8.21875 3.824218 9.894532 3.789063 1.675781 8.21875-.039063 9.894532-3.824219 8.238281-18.621094 18.257812-31.578125 25.742187-39.125 2.484375 5.125 6.164063 9.703125 10.691406 13.167969 6.53125 4.992187 14.765625 7.40625 22.953125 7.003906 3.644532-.179688 7.175782-1.285156 10.835938-1.257813 4.351562.035157 8.71875 1.316407 12.414062 3.609375 3.835938 2.375 6.5 6.03125 9.109375 9.617188 7.460938 10.246094 19.296875 16.742187 32.136719 16.742187 7.460938 0 14.839844-2.226562 21.128906-6.21875 5.28125-3.347656 10.742188-6.636719 17.195313-6.636719 6.136719 0 11.1875 2.523438 16.097656 5.917969 6.488281 4.476563 14.335937 6.9375 22.226563 6.9375 11.394531 0 22.535156-5.160156 29.898437-13.863281 4.816406-5.683594 8.835937-12.320312 16.332031-14.84375 9.304688-3.136719 18.96875 1.320312 28.390625-.929688 9.550781-2.277343 17.726563-8.734374 22.492188-17.277343.351562-.625.683593-1.265625 1-1.910157 4.84375 4.839844 11.332031 12.445313 17.777343 23.417969 11.8125 20.101563 25.890626 55.933594 25.890626 112.460938 0 49.972656-20.382813 105.429687-55.921876 152.148437-2.507812 3.296875-1.867187 8 1.429688 10.507813zm-243.605469-330.890625c11.765625-10.507813 37.183594-23.722656 91.484375-27 8.492188-.511719 15.128906-8.066406 14.53125-16.550782 0 0-2.351562-33.324218-2.355468-33.375-.21875-3.066406 2.296874-5.945312 5.539062-5.945312h17.589844c3.191406 0 5.761718 2.765625 5.539062 5.945312 0 0-2.355468 33.34375-2.355468 33.375-.601563 8.484376 6.058593 16.039063 14.53125 16.550782 54.296874 3.277344 79.71875 16.492187 91.480468 27 7.078125 6.324218 8.15625 14.519531 6.652344 20.996094-2.429688 10.480468-12.691406 17.976562-23.539062 16.214843-10.355469-1.679687-20.320313-.796875-29.429688 4.863281-5.714844 3.558594-9.769531 8.496094-13.609375 13.914063-7.507813 10.582031-22.757813 13.285156-33.441406 5.910156-7.441407-5.136719-15.433594-8.574219-24.625-8.574219-5.980469 0-12.007813 1.410157-17.363281 4.066407-3.800782 1.886719-7.011719 4.78125-10.859376 6.550781-7.285156 3.378906-16.054687 2.789062-22.875-1.417969-2.71875-1.679687-5.117187-3.929687-6.964843-6.535156-3.824219-5.398437-7.953125-10.402344-13.636719-13.929687-6.101562-3.785157-13.273438-5.851563-20.457031-5.851563-10.960938 0-20.722657 3.585937-28.488281-6.695313-6.726563-8.902343-5.714844-22.035156 2.652343-29.511718zm0 0"/><path d="m18.132812 187.164062c-4-1.074218-8.113281 1.296876-9.1875 5.296876-5.9375 22.082031-8.945312 46.859374-8.945312 73.644531 0 55.527343 23.027344 116.261719 63.175781 166.628906 39.566407 49.632813 88.886719 79.265625 131.929688 79.265625 37.300781 0 79.730469-22.363281 116.414062-61.355469 2.835938-3.015625 2.691407-7.761719-.324219-10.601562-3.019531-2.839844-7.765624-2.695313-10.601562.324219-33.859375 35.988281-72.308594 56.632812-105.488281 56.632812-38.519531 0-83.453125-27.519531-120.199219-73.617188-37.511719-47.058593-59.90625-105.851562-59.90625-157.277343 0-25.472657 2.835938-48.941407 8.429688-69.753907 1.074218-4-1.296876-8.113281-5.296876-9.1875zm0 0"/></svg>