<svg height="512pt" viewBox="-12 0 512 512.00177" width="512pt" xmlns="http://www.w3.org/2000/svg"><path d="m101.871094 410.109375c-21.59375-21.59375-56.601563-21.59375-78.195313 0-21.589843 21.59375-21.589843 56.601563 0 78.195313 21.59375 21.589843 56.601563 21.589843 78.195313 0 21.59375-21.59375 21.59375-56.601563 0-78.195313zm0 0" fill="#55d47b"/><path d="m34.992188 401.398438c4.21875 17.785156 13.246093 34.652343 27.09375 48.5 13.5625 13.5625 30.269531 22.835937 48.472656 27.148437 12.351562-21.171875 9.460937-48.789063-8.683594-66.9375-18.132812-18.128906-45.71875-21.027344-66.882812-8.710937zm0 0" fill="#00c756"/><path d="m185.328125 326.652344c-28.175781-28.175782-73.855469-28.175782-102.03125 0-28.175781 28.175781-28.175781 73.855468 0 102.03125 28.175781 28.175781 73.855469 28.175781 102.03125 0 28.175781-28.175782 28.175781-73.855469 0-102.03125zm0 0" fill="#55d47b"/><path d="m102.945312 312.695312c4.6875 22.976563 15.910157 44.867188 33.695313 62.648438 17.394531 17.394531 39.050781 28.972656 62.613281 33.769531 13.011719-26.878906 8.386719-60.152343-13.921875-82.460937-22.285156-22.285156-55.519531-26.925782-82.386719-13.957032zm0 0" fill="#00c756"/><path d="m290.582031 221.398438c-36.652343-36.652344-96.078125-36.652344-132.730469 0-36.652343 36.652343-36.652343 96.078124 0 132.730468 36.652344 36.65625 96.078126 36.65625 132.730469 0 36.65625-36.652344 36.65625-96.078125 0-132.730468zm0 0" fill="#55d47b"/><path d="m228.859375 96.972656s-19.074219-4.226562-33.140625-1.183594c-5.875 1.269532-10.109375 6.414063-10.339844 12.421876-.234375 6.117187 3.742188 11.636718 9.652344 13.25 10.261719 2.800781 20.972656 10.789062 20.972656 10.789062zm0 0" fill="#f2c13b"/><path d="m274.839844 50.996094s-4.230469-19.078125-1.183594-33.144532c1.269531-5.875 6.414062-10.109374 12.417969-10.339843 6.121093-.234375 11.640625 3.742187 13.253906 9.652343 2.800781 10.261719 10.785156 20.972657 10.785156 20.972657zm0 0" fill="#f2c13b"/><path d="m180.269531 204.816406c6.976563 30.6875 22.449219 58.855469 45.246094 81.65625 24.964844 24.964844 52.445313 39.953125 81.925781 44.734375 18.484375-35.386719 12.871094-80.082031-16.855468-109.808593-29.863282-29.867188-74.847657-35.390626-110.316407-16.582032zm0 0" fill="#00c756"/><path d="m431.207031 253.339844s103.054688-93.339844 11.917969-184.476563c-54.234375-54.234375-142.164062-54.234375-196.398438 0-54.234374 54.230469-54.230468 142.160157 0 196.394531 91.136719 91.136719 184.480469-11.917968 184.480469-11.917968zm0 0" fill="#55d47b"/><path d="m371.976562 64.484375c-34.914062-9.140625-68.792968 18.972656-65.023437 54.863281.289063 2.765625-.035156 5.703125-2.074219 7.773438-2.070312 2.101562-4.894531 2.253906-7.667968 1.964844-35.890626-3.765626-64 30.113281-54.859376 65.023437 4.605469 17.589844 13.789063 34.21875 27.546876 47.976563 14.398437 14.398437 29.421874 23.339843 44.65625 26.582031 12.046874 2.5625 24.90625 1.695312 38.222656-2.585938 26.582031-8.542969 47.097656-27.65625 52.75-33.3125l5.109375-5.109375c5.65625-5.652344 24.765625-26.164062 33.308593-52.746094 4.28125-13.316406 5.152344-26.175781 2.589844-38.226562-3.238281-15.230469-12.183594-30.257812-26.582031-44.65625-13.757813-13.757812-30.386719-22.941406-47.976563-27.546875zm0 0" fill="#f8e86a"/><path d="m296.753906 210.933594s7.363282 7.363281 7.367188 7.367187c2.820312 2.820313 7.671875 2.933594 10.605468 0 2.929688-2.925781 2.929688-7.675781 0-10.605469l-7.367187-7.367187c-2.929687-2.929687-7.675781-2.929687-10.605469 0-2.929687 2.925781-2.929687 7.675781 0 10.605469zm0 0"/><path d="m385.546875 136.875c2.8125 2.816406 7.683594 2.921875 10.605469 0 2.929687-2.925781 2.929687-7.675781 0-10.605469l-7.367188-7.367187c-2.929687-2.929688-7.679687-2.929688-10.609375 0-2.925781 2.925781-2.925781 7.675781 0 10.605468 0 0 7.363281 7.363282 7.371094 7.367188zm0 0"/><path d="m339.074219 189.304688c7.523437.507812 14.988281-2.472657 20.300781-7.785157 5.445312-5.445312 8.28125-12.84375 7.78125-20.296875-.277344-4.132812-3.851562-7.25-7.984375-6.980468-4.132813.277343-7.257813 3.851562-6.980469 7.984374.210938 3.136719-1.039062 6.300782-3.421875 8.6875-2.386719 2.386719-5.554687 3.632813-8.691406 3.421876-4.132813-.277344-7.707031 2.847656-7.984375 6.980468-.277344 4.136719 2.847656 7.710938 6.980469 7.988282zm0 0"/><path d="m297.980469 121.625c-20.132813-2.109375-40.027344 6.546875-52.382813 22.554688-11.429687 14.808593-15.261718 33.699218-10.515625 51.828124 5.078125 19.394532 15.277344 37.164063 29.5 51.382813 15.4375 15.4375 31.71875 25.066406 48.394531 28.613281 13.996094 2.980469 28.53125 1.570313 42.082032-2.785156 28.175781-9.054688 49.800781-29.1875 55.757812-35.144531l5.109375-5.109375c24.789063-24.789063 45.621094-61.683594 37.929688-97.835938-3.546875-16.675781-13.175781-32.960937-28.613281-48.398437-14.21875-14.222657-31.988282-24.421875-51.382813-29.5-21.507813-5.632813-44.859375 1.320312-59.75 17.855469-11.179687 12.417968-16.378906 28.417968-14.632813 45.046874.078126.738282.054688 1.25.007813 1.554688-.316406.019531-.859375.007812-1.503906-.0625zm12.222656 10.757812c2.328125-2.359374 4.941406-6.671874 4.191406-13.816406-1.296875-12.347656 2.5625-24.226562 10.863281-33.441406 8.515626-9.457031 20.648438-14.882812 33.289063-14.882812 3.847656 0 7.722656.503906 11.515625 1.5 16.820312 4.402343 32.234375 13.253906 44.574219 25.59375 20.523437 20.523437 31.34375 46.707031 22.15625 75.285156-12.144531 37.773437-48.398438 74.128906-86.328125 86.320312-28.480469 9.152344-54.6875-1.566406-75.277344-22.15625-12.339844-12.339844-21.191406-27.753906-25.59375-44.574218-3.5625-13.601563-.691406-27.765626 7.878906-38.867188 8.359375-10.832031 20.851563-17.046875 34.265625-17.046875 2.414063 0 4.941407.398437 7.402344.398437 4.523437 0 8.246094-1.449218 11.0625-4.3125zm0 0"/><path d="m107.164062 493.609375c10.09375-10.097656 16.285157-22.953125 17.925782-36.875 3.0625.359375 6.148437.5625 9.253906.5625 4.539062 0 9.105469-.386719 13.648438-1.179687 4.082031-.707032 6.816406-4.589844 6.105468-8.671876-.707031-4.082031-4.585937-6.816406-8.671875-6.105468-20.476562 3.570312-42.140625-3.253906-56.839843-17.953125-24.792969-24.796875-24.921876-66.507813 0-91.429688 10.210937-10.207031 23.367187-16.617187 37.558593-18.402343 3.375 12.917968 9.289063 25.03125 17.492188 35.726562.011719.015625.019531.027344.03125.039062 5.488281 7.097657 11.859375 13.515626 18.980469 18.980469.011718.011719.027343.023438.042968.035157 10.695313 8.199218 22.808594 14.113281 35.726563 17.488281-1.785157 14.191406-8.195313 27.351562-18.40625 37.558593-3.089844 3.089844-6.492188 5.871094-10.109375 8.265626-3.457032 2.285156-4.402344 6.9375-2.121094 10.390624 2.285156 3.457032 6.941406 4.402344 10.394531 2.121094 4.457031-2.945312 8.644531-6.371094 12.441407-10.167968 12.386718-12.386719 20.21875-28.292969 22.5625-45.464844 3.636718.390625 7.3125.59375 11.023437.59375 27.074219 0 52.527344-10.542969 71.671875-29.683594 13.648438-13.648438 22.9375-30.542969 27.144531-49.1875 1.78125.089844 7.1875.125 8.09375.105469 57.585938-1.421875 101.304688-47.285157 105.386719-51.707031 4.421875-4.082032 50.28125-47.800782 51.707031-105.386719.796875-32.316407-12.589843-62.5-39.796875-89.703125-12.945312-12.945313-27.945312-23.214844-44.582031-30.523438-3.792969-1.667968-8.21875.054688-9.882813 3.847656-1.664062 3.792969.058594 8.21875 3.851563 9.886719 14.921875 6.554688 28.382813 15.773438 40.007813 27.394531 24.160156 24.160157 36.070312 50.617188 35.40625 78.636719-1.25 52.730469-46.601563 94.570313-47.054688 94.980469-.179688.164062-.355469.339844-.519531.519531-.417969.457031-42.253907 45.808594-94.984375 47.058594-26.628906.632813-51.449219-11.089844-71.167969-28.402344-37.886719-33.257812-54.683594-86.363281-41.195313-135.132812 11.9375-43.15625 47.105469-78.523438 90.074219-90.960938 19.941407-5.769531 41.265625-6.824219 62.324219-2.632812 4.0625.808593 8.011719-1.828125 8.820312-5.890625.808594-4.0625-1.828124-8.011719-5.890624-8.820313-21.222657-4.226562-42.699219-3.671875-63.046876 1.234375-1.867187-3.496094-3.265624-6.792968-4.023437-9.566406-2.507813-9.199219-11.117187-15.546875-20.773437-15.171875-9.46875.363281-17.472657 7.046875-19.464844 16.25-1.984375 9.179687-1.285156 19.875-.292969 27.488281-8.792969 5.632813-17.050781 12.25-24.605469 19.804688-7.617187 7.617187-14.210937 15.882812-19.792968 24.605468-4.085938-.535156-9.019532-.976562-14.136719-.976562-4.96875 0-9.460938.425781-13.363281 1.269531-9.203126 1.992188-15.882813 9.996094-16.25 19.464844-.371094 9.691406 5.867187 18.234375 15.171874 20.773437 2.789063.761719 6.105469 2.171876 9.621094 4.054688-4.4375 18.527344-5.222656 37.753906-2.359375 56.535156-18.089843 4.355469-34.484375 13.527344-47.765625 26.808594-19.144531 19.144531-29.6875 44.597656-29.6875 71.671875 0 3.710937.207032 7.386719.597656 11.027344-17.171874 2.339843-33.082031 10.171875-45.464843 22.558593-17.871094 17.871094-25.4375 42.191407-22.738281 65.542969-13.929688 1.648438-26.820313 7.851563-36.878907 17.914063-24.484375 24.480468-24.484375 64.316406 0 88.800781 11.859375 11.859375 27.628907 18.390625 44.398438 18.390625 16.773437 0 32.542969-6.53125 44.402343-18.390625zm173.105469-457.910156c-.375-5.222657-.390625-11.210938.703125-16.261719.542969-2.507812 2.753906-4.332031 5.375-4.433594l.226563-.003906c2.578125 0 4.839843 1.703125 5.503906 4.140625.933594 3.421875 2.335937 6.832031 3.863281 9.957031-4.933594 1.746094-15.28125 6.40625-15.671875 6.601563zm-87.410156 72.796875c.101563-2.625 1.921875-4.835938 4.429687-5.375 2.859376-.621094 14.3125-.84375 16.261719-.703125-2.5 5.082031-4.707031 10.316406-6.601562 15.671875-3.125-1.527344-6.539063-2.929688-9.960938-3.863282-2.535156-.691406-4.234375-3.046874-4.128906-5.730468zm-29.71875 118.207031c11.175781-11.175781 24.9375-18.945313 40.121094-22.707031 3.078125 11.847656 7.625 23.179687 13.496093 33.800781 17.4375 31.566406 47.910157 58.992187 83.09375 68.726563.675782.1875 8.152344 2.105468 8.199219 1.921874-3.738281 15.285157-11.523437 29.125-22.78125 40.382813-16.3125 16.3125-37.996093 25.292969-61.0625 25.292969-22.578125 0-45.089843-9.320313-61.0625-25.292969-16.023437-16.019531-25.292969-38.402344-25.292969-61.0625-.003906-23.066406 8.980469-44.753906 25.289063-61.0625zm-134.171875 188.710937c7.96875-7.96875 18.269531-12.773437 29.375-13.78125 3.824219 12.144532 10.632812 23.355469 19.636719 32.355469 9.015625 9.015625 20.199219 15.8125 32.363281 19.640625-1 11.101563-5.789062 21.375-13.789062 29.375-9.023438 9.027344-21.027344 13.996094-33.792969 13.996094-12.761719 0-24.765625-4.972656-33.792969-13.996094-18.632812-18.636718-18.632812-48.953125 0-67.589844zm0 0"/></svg>