<svg height="511pt" viewBox="0 -88 511.99918 511" width="511pt" xmlns="http://www.w3.org/2000/svg"><path d="m39.070312 211.050781s2.582032 37.09375-19.199218 69.652344c-6.808594 10.171875-7.027344 23.386719-.425782 33.691406 6.1875 9.667969 17.253907 15.089844 28.675782 13.992188 27.164062-2.609375 77.738281-12.539063 115.148437-49.6875v-26.964844zm0 0" fill="#55d47b"/><path d="m472.929688 211.050781s-2.582032 37.09375 19.199218 69.652344c6.808594 10.171875 7.027344 23.386719.425782 33.691406-6.1875 9.667969-17.253907 15.089844-28.675782 13.992188-27.167968-2.609375-77.738281-12.539063-115.148437-49.6875v-26.964844zm0 0" fill="#55d47b"/><path d="m167.617188 58.597656c-83.449219 0-128.546876 116.695313-128.546876 116.695313v21.625l64.808594 31.230469 35.484375-23.558594zm0 0" fill="#de8957"/><path d="m344.378906 58.597656c83.453125 0 128.550782 116.695313 128.550782 116.695313v21.625l-64.808594 31.230469-35.484375-23.558594zm0 0" fill="#de8957"/><path d="m430.433594 217.394531c-.082032-41.578125-2.285156-87.660156-14.984375-127.933593-19.15625-17.585938-42.929688-30.863282-71.070313-30.863282l28.257813 145.992188 35.484375 23.558594zm0 0" fill="#c76d33"/><path d="m85.753906 139.941406c-3.574218 27.59375-4.152344 55.597656-4.191406 77.453125l22.316406 10.753907 35.484375-23.558594 28.253907-145.992188c-28.164063 0-51.949219 13.296875-71.117188 30.910156-4.769531 15.058594-8.324219 31.753907-10.746094 50.433594zm0 0" fill="#c76d33"/><path d="m348.726562 251.734375v26.964844c8.285157 8.226562 17.214844 15.109375 26.390626 20.882812 6.496093-3.351562 12.4375-6.964843 17.785156-10.84375 28.386718-20.601562 36.25-45.191406 37.382812-63.71875zm0 0" fill="#00c756"/><path d="m119.097656 288.738281c5.347656 3.878907 11.289063 7.492188 17.785156 10.84375 9.175782-5.769531 18.105469-12.65625 26.390626-20.882812v-26.964844l-81.558594-26.714844c1.132812 18.527344 8.996094 43.117188 37.382812 63.71875zm0 0" fill="#00c756"/><path d="m139.363281 204.589844c-7.40625-1.097656-14.761719-2.429688-22.027343-3.90625-23.789063-4.839844-56.863282-13.742188-78.160157-25.332032-.027343-.011718-.0625-.035156-.105469-.058593-7.136718-4.285157-16.328124-2.667969-21.4375 3.902343-2.179687 2.800782-4.519531 5.8125-6.734374 8.660157-6.226563 8.003906-3.335938 18.085937 4.117187 23.902343 19.832031 14.78125 51.769531 26.601563 74.648437 35.910157 16 6.507812 32.695313 11.957031 49.699219 16.035156zm0 0" fill="#e8e8e8"/><path d="m372.636719 204.589844c7.40625-1.097656 14.761719-2.429688 22.027343-3.90625 23.789063-4.839844 56.863282-13.742188 78.160157-25.332032.023437-.011718.058593-.035156.105469-.058593 7.132812-4.285157 16.328124-2.667969 21.4375 3.902343 2.179687 2.800782 4.519531 5.8125 6.734374 8.660157 6.226563 8.003906 3.335938 18.085937-4.121093 23.902343-19.828125 14.78125-51.765625 26.601563-74.644531 35.910157-16 6.507812-32.695313 11.957031-49.699219 16.035156zm0 0" fill="#e8e8e8"/><path d="m430.058594 191.933594c-12.398438 3.640625-24.816406 6.597656-35.394532 8.75-7.265624 1.476562-14.621093 2.8125-22.027343 3.90625v59.113281c17.003906-4.078125 33.699219-9.527344 49.699219-16.035156 1.21875-.496094 2.464843-1 3.734374-1.511719 3.304688-9.5 4.367188-18.503906 4.367188-26.140625.003906-9.164063-.097656-18.5625-.378906-28.082031zm0 0" fill="#c7c5cb"/><path d="m139.363281 204.589844c-7.40625-1.097656-14.761719-2.429688-22.027343-3.90625-10.582032-2.152344-23.007813-5.113282-35.410157-8.753906-.292969 10.101562-.367187 19.601562-.367187 28.085937 0 7.636719 1.0625 16.640625 4.371094 26.140625 1.265624.511719 2.515624 1.015625 3.734374 1.511719 16 6.507812 32.695313 11.957031 49.699219 16.035156zm0 0" fill="#c7c5cb"/><path d="m256 8c-132.425781 0-144.441406 109.871094-144.441406 212.015625 0 38.304687 40.765625 57.710937 78.980468 67.492187 42.914063 10.980469 88.003907 10.980469 130.917969 0 38.21875-9.78125 78.980469-29.1875 78.980469-67.492187.003906-102.144531-12.015625-212.015625-144.4375-212.015625zm0 0" fill="#55d47b"/><path d="m192.945312 239.320312h-19.246093c-4.144531 0-7.5-3.355468-7.5-7.5 0-4.140624 3.355469-7.5 7.5-7.5h19.246093c4.140626 0 7.5 3.359376 7.5 7.5 0 4.144532-3.359374 7.5-7.5 7.5zm0 0" fill="#fd5f7e"/><path d="m338.300781 239.320312h-19.246093c-4.144532 0-7.5-3.355468-7.5-7.5 0-4.140624 3.355468-7.5 7.5-7.5h19.246093c4.144531 0 7.5 3.359376 7.5 7.5 0 4.144532-3.355469 7.5-7.5 7.5zm0 0" fill="#fd5f7e"/><g fill="#00a52c"><path d="m326.984375 81.003906-1.019531-4.449218c-2.851563-12.472657-15.300782-20.25-27.761719-17.347657l-4.21875.980469c-7.875 1.835938-14.21875 7.652344-16.726563 15.339844l-.09375.289062c-3.34375 10.265625.863282 21.480469 10.136719 27.007813l5.328125 3.179687c7.886719 4.699219 17.808594 4.285156 25.273438-1.054687 7.582031-5.421875 11.160156-14.863281 9.082031-23.945313zm0 0"/><path d="m256.320312 115.082031-2.007812-4.675781c-3.445312-8.003906-12.65625-11.785156-20.730469-8.511719l-1.824219.742188c-4.035156 1.636719-7.226562 4.847656-8.84375 8.890625l-4.160156 10.398437c-2.949218 7.375-.042968 15.800781 6.824219 19.789063 5.742187 3.335937 12.949219 2.78125 18.109375-1.394532l7.992188-6.464843c5.578124-4.511719 7.476562-12.183594 4.640624-18.773438zm0 0"/><path d="m201.890625 57.878906-1.539063 3.867188c-2.640624 6.621094.5 14.132812 7.066407 16.910156l1.480469.625c3.28125 1.386719 6.984374 1.375 10.257812-.027344l8.417969-3.609375c5.972656-2.558593 9.164062-9.109375 7.5-15.390625-1.390625-5.25-5.878907-9.097656-11.28125-9.667968l-8.359375-.882813c-5.835938-.613281-11.371094 2.726563-13.542969 8.175781zm0 0"/></g><path d="m183.320312 218.550781c4.144532 0 7.5-3.359375 7.5-7.5v-14.132812c0-4.140625-3.355468-7.5-7.5-7.5-4.140624 0-7.5 3.359375-7.5 7.5v14.132812c0 4.140625 3.359376 7.5 7.5 7.5zm0 0"/><path d="m328.679688 189.417969c-4.144532 0-7.5 3.359375-7.5 7.5v14.132812c0 4.140625 3.355468 7.5 7.5 7.5 4.140624 0 7.5-3.359375 7.5-7.5v-14.132812c0-4.140625-3.359376-7.5-7.5-7.5zm0 0"/><path d="m273.9375 219.625c-3.121094-2.726562-7.859375-2.40625-10.585938.710938-1.769531 2.023437-4.449218 3.1875-7.351562 3.1875s-5.582031-1.160157-7.351562-3.1875c-2.730469-3.117188-7.464844-3.4375-10.585938-.710938-3.117188 2.726562-3.4375 7.464844-.707031 10.585938 4.617187 5.28125 11.414062 8.3125 18.644531 8.3125s14.027344-3.03125 18.644531-8.3125c2.726563-3.121094 2.410157-7.859376-.707031-10.585938zm0 0"/><path d="m283.460938 109.269531c12.378906 7.375 26.039062 10.914063 38.804687 1.78125 10.070313-7.203125 14.792969-19.65625 12.03125-31.722656-3.550781-15.507813-13.585937-28.230469-30.832031-28.230469-14.433594 0-28.699219 7.992188-33.335938 22.105469l-.09375.289063c-4.464844 13.691406 1.054688 28.402343 13.425782 35.777343zm.835937-31.128906s.09375-.285156.09375-.289063c2.527344-7.765624 11.328125-11.753906 19.074219-11.753906 7.3125 0 13.558594 4.988282 15.191406 12.128906 1.773438 7.75 2.136719 15.433594-5.117188 20.621094-2.664062 1.90625-5.800781 2.914063-9.078124 2.914063-5.035157 0-9.167969-2.90625-13.320313-5.378907-6.304687-3.757812-9.121094-11.261718-6.84375-18.242187zm0 0"/><path d="m230.722656 94.839844c-6.539062 2.417968-12.171875 7.394531-14.773437 13.902344 0 0-4.15625 10.386718-4.160157 10.394531-6.042968 15.113281 5.566407 32.246093 21.828126 32.246093 9.425781 0 15.917968-6.144531 22.78125-11.695312 10.472656-8.46875 9.617187-21.050781 4.804687-32.242188-3.71875-8.644531-12.199219-14.226562-21.605469-14.226562-3.015625 0-6.03125.566406-8.875 1.621094zm16.570313 18.601562c.816406 1.464844 1.480469 3.074219 2.136719 4.601563 3.289062 7.644531-5.554688 12.480469-10.457032 16.445312-2.675781 2.164063-6.648437 2.472657-9.625.742188-3.625-2.105469-5.1875-6.628907-3.628906-10.519531 0 0 3.976562-9.941407 4.152344-10.382813 1.425781-3.566406 5.949218-6.109375 9.726562-6.109375 3.886719 0 6.085938 2.328125 7.695313 5.222656zm0 0"/><path d="m204.496094 85.5625c9.679687 4.089844 16.949218.871094 26.035156-3.019531 9.324219-3.996094 14.394531-14.40625 11.792969-24.210938-2.175781-8.199219-9.304688-14.308593-17.742188-15.203125-3.511719 0-7.003906-.996094-10.53125-.996094-10.804687 0-16.996093 7.636719-20.664062 16.835938-4.121094 10.332031.863281 22.265625 11.109375 26.59375zm2.820312-21.042969c1.398438-3.507812 2.839844-7.378906 7.234375-7.355469 2.792969.011719 5.675781.589844 8.453125.882813 5.59375.589844 6.78125 8.492187 1.617188 10.707031 0 0-8.40625 3.605469-8.421875 3.609375-4.65625 1.996094-10.886719-2.808593-8.882813-7.84375zm0 0"/><path d="m10.402344 217.671875c.046875.035156.089844.066406.132812.101563 5.878906 4.378906 12.726563 8.484374 20.039063 12.339843-1.765625 13.0625-6.195313 30.359375-16.9375 46.417969-8.488281 12.683594-8.6875 29.132812-.507813 41.90625 7.621094 11.90625 21.644532 18.761719 35.710938 17.414062 13.125-1.261718 26.1875-3.632812 38.828125-7.054687 3.996093-1.082031 6.359375-5.199219 5.277343-9.199219-1.082031-3.996094-5.199218-6.363281-9.199218-5.28125-11.824219 3.203125-24.050782 5.421875-36.339844 6.601563-8.648438.832031-16.941406-3.21875-21.644531-10.566407-4.964844-7.75-4.828125-17.753906.339843-25.480468 10.972657-16.398438 16.171876-33.785156 18.582032-47.828125 10.683594 4.910156 21.589844 9.308593 32.5 13.683593 17.457031 7 35.148437 13.699219 53.359375 18.484376 5.535156 4.210937 11.972656 8.125 19.230469 11.6875-11.648438 9.851562-25.203126 18.101562-40.421876 24.589843-3.8125 1.625-5.582031 6.027344-3.960937 9.839844 1.625 3.808594 6.03125 5.582031 9.84375 3.957031 19.070313-8.128906 35.785156-18.84375 49.777344-31.871094 7.265625 2.722657 15.15625 5.179688 23.671875 7.355469 21.960937 5.621094 44.609375 8.472657 67.316406 8.472657s45.355469-2.851563 67.316406-8.472657c8.511719-2.175781 16.398438-4.632812 23.664063-7.351562 38.710937 36.058593 89.097656 45.832031 116.179687 48.433593 1.203125.113282 2.425782.171876 3.632813.171876 13.035156 0 25.027343-6.574219 32.078125-17.585938 8.179687-12.773438 7.980468-29.222656-.507813-41.90625-10.742187-16.058594-15.171875-33.359375-16.9375-46.417969 7.3125-3.855469 14.160157-7.960937 20.039063-12.339843.042968-.035157.085937-.066407.128906-.101563 11.425781-8.914063 13.757812-23.710937 5.425781-34.421875l-6.734375-8.660156c-4.535156-5.832032-11.390625-9.179688-18.804687-9.179688-1.484375 0-2.957031.148438-4.40625.417969-5.339844-12.011719-18.117188-38.019531-38.148438-62.351563-2.632812-3.195312-7.359375-3.65625-10.554687-1.019531-3.199219 2.632813-3.65625 7.355469-1.023438 10.554688 18.65625 22.664062 30.875 47.476562 35.933594 58.765625-.082031.042968-.164062.082031-.25.121094-17.527344 8.265624-36.390625 13.664062-55.1875 18.171874-.113281.027344-.226562.054688-.335938.078126-.921874-29.054688-3.714843-62.101563-12.964843-92.164063-.296875-.972656-.609375-1.941406-.917969-2.90625-.066406-.195313-.125-.390625-.1875-.582031-1.863281-5.726563-3.964844-11.289063-6.324219-16.660156 6.945313 3.917968 13.785157 8.804687 20.460938 14.632812 3.121093 2.726562 7.859375 2.402344 10.582031-.71875 2.726562-3.121094 2.402344-7.859375-.71875-10.582031-13.402344-11.699219-27.535156-20.082031-42.046875-24.953125-9.9375-14.980469-22.359375-27.007813-37.085937-35.878906-21.851563-13.160157-49.542969-19.835938-82.304688-19.835938s-60.453125 6.675781-82.304688 19.839844c-14.726562 8.871094-27.152343 20.902344-37.09375 35.882812-57.71875 19.359375-91.964843 87.617188-101.6875 109.605469-1.445312-.269531-2.914062-.414063-4.394531-.414063-7.414062 0-14.269531 3.34375-18.804687 9.175782l-6.738282 8.660156c-8.328124 10.710938-5.996093 25.507812 5.425782 34.421875zm456.914062 19.371094c2.410156 14.042969 7.609375 31.433593 18.582032 47.828125 5.167968 7.730468 5.304687 17.730468.339843 25.480468-4.277343 6.683594-11.546875 10.671876-19.445312 10.671876-.730469 0-1.46875-.035157-2.199219-.105469-23.992188-2.304688-67.609375-10.597657-102.371094-40.015625 7.257813-3.566406 13.695313-7.476563 19.234375-11.691406 22.058594-5.796876 43.253907-14.316407 64.335938-22.914063 7.230469-2.949219 14.425781-5.992187 21.523437-9.253906zm21.128906-53.242188 6.734376 8.660157c3.707031 4.761718 1.179687 10.238281-2.75 13.339843-16.566407 13.074219-37.964844 20.828125-57.339844 28.648438-10.886719 4.398437-21.738282 8.910156-32.835938 12.757812-.484375.164063-.96875.328125-1.453125.492188 4.726563-8.421875 7.140625-18.039063 7.140625-27.683594 0-4.84375-.027344-9.6875-.09375-14.53125.035156-.007813.074219-.019531.109375-.027344 9.347657-2.179687 18.632813-4.628906 27.820313-7.421875 13.738281-4.175781 28.457031-8.890625 40.964844-16.285156 3.855468-2.28125 8.914062-1.539062 11.703124 2.050781zm-232.445312-168.300781c51.074219 0 86.691406 16.851562 108.433594 51.40625 27.089844 43.050781 28.320312 99.671875 28.496094 148.980469.144531 39.613281-40.429688 55.933593-73.332032 64.351562-41.496094 10.621094-85.699218 10.621094-127.195312 0-31.996094-8.183593-69.863282-24.457031-73.113282-55.824219-.945312-9.140624-.191406-18.683593.035157-27.859374 1.066406-43.546876 4.40625-91.777344 28.238281-129.648438 21.746094-34.554688 57.363281-51.40625 108.4375-51.40625zm-131.113281 62.332031c-6.5 14.734375-11.363281 31.613281-14.730469 51.171875-3.335938 19.210938-4.839844 38.683594-5.558594 58.15625-.039062 1.003906-.074218 2-.105468 2.992188-.117188-.027344-.230469-.054688-.347657-.082032-14.40625-3.464843-28.710937-7.53125-42.5625-12.824218-4.25-1.625-12.765625-5.414063-12.863281-5.460938 8.074219-18.003906 34.371094-70.394531 76.167969-93.953125zm-108.066407 114.628907s6.722657-8.644532 6.738282-8.664063c1.738281-2.234375 4.527344-3.460937 7.34375-3.351563 3.046875.117188 5.648437 2.042969 8.289062 3.375 15.027344 7.574219 31.269532 12.769532 47.453125 17.230469 5.765625 1.585938 11.574219 3.054688 17.398438 4.410157.035156.007812.074219.015624.105469.023437-.0625 5.09375-.085938 9.96875-.085938 14.53125 0 9.644531 2.414062 19.265625 7.140625 27.683594-.5-.167969-.996094-.335938-1.496094-.507813-22.523437-7.804687-45.128906-16.917968-66.507812-27.476562-8.789063-4.339844-16.988281-8.980469-23.625-13.914063-3.929688-3.101562-6.457031-8.582031-2.753907-13.339843zm0 0"/></svg>