<svg height="512pt" viewBox="-9 0 512 512.00053" width="512pt" xmlns="http://www.w3.org/2000/svg"><path d="m434.691406 426.871094c-17.007812-58.636719 2.742188-102.761719-38.699218-149.523438-63.578126-71.730468-158.90625-73.296875-180.015626-87.367187-21.109374-14.074219-45.152343-59.8125-49.84375-120.207031-4.691406-60.398438-53.359374-62.15625-53.359374-62.15625v52.1875s-65.671876 20.523437-88.542969 43.390624c-11.78125 11.78125-15.625 30.878907-16.582031 46.628907-.851563 14.011719 11.167968 25.378906 25.105468 23.65625l80.019532-9.890625s30.703124 113.917968 90.152343 176.863281l.003907-.003906c-.152344.847656-.304688 1.703125-.441407 2.570312-9.96875 62.742188 55.117188 82.09375 55.117188 82.09375v48.667969h-58.636719c-19.628906 0-31.644531 8.644531-38.59375 16.742188-4.667969 5.441406-.730469 13.859374 6.4375 13.859374h119.882812c13.402344 0 24.269532-10.867187 24.269532-24.273437v-46.785156c65.675781-8.796875 73.296875-77.988281 73.296875-77.988281s4.261719 95.035156 29.476562 121.421874c25.214844 26.386719 72.550781 26.929688 72.550781 26.929688s-34.59375-18.179688-51.597656-76.816406zm0 0" fill="#dd8858"/><path d="m139.132812 69.773438c4.691407 60.394531 31.542969 122.148437 53.324219 135.160156 36.808594 21.996094 102.648438 12.441406 175.863281 75.847656 47.230469 40.90625 22.363282 87.453125 39.367188 146.089844 11.78125 40.621094 32 61.820312 43.3125 71.015625 18.742188 5.609375 35.289062 5.800781 35.289062 5.800781s-34.59375-18.179688-51.601562-76.816406c-17.003906-58.636719 2.746094-102.761719-38.699219-149.523438-63.574219-71.730468-158.90625-73.296875-180.015625-87.367187-21.105468-14.074219-45.148437-59.8125-49.839844-120.207031-4.691406-60.394532-53.359374-62.15625-53.359374-62.15625v9.804687c12.089843 8.347656 24.140624 23.792969 26.359374 52.351563zm0 0" fill="#d97f4a"/><path d="m310.964844 433.320312c-14.910156 0-27 12.089844-27 27v19.789063c0 13.40625-10.867188 24.273437-24.269532 24.273437h27c13.402344 0 24.269532-10.867187 24.269532-24.273437zm0 0" fill="#d97f4a"/><path d="m143.8125 247.328125s11.984375 24.449219-9.96875 58.542969c-14.738281 22.886718-28.171875 55.925781-4.945312 75.566406 7.535156 6.367188 19.097656 2 20.476562-7.765625 1.957031-13.816406 7.257812-32.742187 21.328125-46.214844 24.75-23.695312 31.066406-26.851562 32.121094-47.386719" fill="#dd8858"/><path d="m202.46875 279.871094c-11.480469-6.371094-25.832031-1.578125-31.464844 10.285156-5.929687 12.488281-14.855468 25.386719-27.300781 37.300781-14.070313 13.472657-19.371094 32.398438-21.324219 46.214844-.023437.15625-.054687.308594-.082031.464844 1.769531 2.605469 3.960937 5.074219 6.667969 7.351562 7.476562 6.296875 19.042968 1.859375 20.414062-7.816406 1.953125-13.816406 7.253906-32.742187 21.328125-46.214844 24.746094-23.695312 31.0625-26.855469 32.117188-47.390625zm0 0" fill="#d97f4a"/><path d="m124.710938 200.675781c3.914062-1.359375 5.980468-5.636719 4.621093-9.550781-6.152343-17.671875-9.335937-29.414062-9.367187-29.527344-.972656-3.609375-4.460938-5.949218-8.164063-5.496094l-80.058593 9.894532c-9.15625 1.136718-17.265626-6.589844-16.707032-15.765625.808594-13.304688 3.964844-31.359375 14.40625-41.800781 21.304688-21.304688 84.878906-41.355469 85.519532-41.554688 3.128906-.980469 5.261718-3.882812 5.261718-7.160156v-43.289063c3.792969 1.035157 8.578125 2.820313 13.445313 5.867188 14.808593 9.277343 23.203125 25.417969 24.957031 47.972656 2.238281 28.855469 8.949219 56.511719 19.398438 79.980469 9.5625 21.480468 21.558593 37.792968 33.78125 45.945312 7.085937 4.722656 19.179687 7.734375 35.917968 11.90625 32.320313 8.058594 81.164063 20.230469 121.914063 54.089844 3.144531 2.613281 7.953125 2.167969 10.566406-.976562 2.648437-3.183594 2.210937-7.917969-.976563-10.5625-43.382812-36.054688-94.230468-48.726563-127.875-57.109376-14.113281-3.515624-26.300781-6.554687-31.222656-9.835937-25.785156-17.191406-43.226562-71.875-46.542968-114.597656-2.667969-34.328125-18.847657-51.320313-31.949219-59.527344-14.300781-8.957031-28.066407-9.5546875-28.644531-9.57421875-4.1875-.12890625-7.773438 3.29687475-7.773438 7.49999975v46.761719c-16.417969 5.5-66.136719 23.304687-86.386719 43.554687-11.054687 11.050782-17.367187 28.378907-18.7773435 51.5-.5429685 8.933594 2.8828125 17.570313 9.3984375 23.691407 6.492187 6.101562 15.289063 8.972656 24.128906 7.878906l73.699219-9.109375c1.582031 5.308594 4.203125 13.71875 7.875 24.277344 1.363281 3.910156 5.640625 5.984375 9.554688 4.617187zm0 0"/><path d="m489.933594 497.175781c-.078125-.042969-8.101563-4.433593-17.957032-15.464843-9.117187-10.203126-21.71875-28.347657-29.984374-56.851563-6.0625-20.910156-7.28125-39.96875-8.460938-58.398437-2.066406-32.230469-4.011719-62.675782-31.847656-94.082032-2.746094-3.101562-7.492188-3.386718-10.59375-.636718-3.097656 2.746093-3.386719 7.492187-.636719 10.589843 24.417969 27.550781 26.125 54.214844 28.101563 85.085938 1.230468 19.238281 2.503906 39.132812 9.027343 61.621093 9.019531 31.113282 22.832031 51.453126 34.40625 64.023438-14.070312-3.132812-31.183593-9.292969-42.738281-21.386719-2.863281-3-7.613281-3.105469-10.609375-.242187-2.996094 2.863281-3.101563 7.613281-.238281 10.609375 27.09375 28.355469 75.859375 29.234375 77.925781 29.257812.027344.003907.054687.003907.085937.003907 3.417969 0 6.390626-2.320313 7.246094-5.636719.863282-3.34375-.683594-6.851563-3.726562-8.492188zm0 0"/><path d="m406.84375 447.914062c-12.347656-36.515624-14.988281-92.308593-15.011719-92.871093-.179687-3.914063-3.335937-7.035157-7.253906-7.164063-.082031 0-.164063-.003906-.246094-.003906-3.8125 0-7.035156 2.871094-7.457031 6.683594-.015625.15625-1.847656 16.015625-11.140625 32.917968-12.21875 22.226563-30.96875 35.175782-55.726563 38.492188-3.722656.496094-6.507812 3.675781-6.507812 7.4375v46.808594c0 9.25-7.527344 16.777344-16.777344 16.777344h-119.9375c-.730468 0-1.253906-.886719-.746094-1.472657 8.046876-9.378906 19.121094-14.132812 32.917969-14.132812h58.664063c4.144531 0 7.503906-3.359375 7.503906-7.503907v-48.691406c0-3.320312-2.183594-6.246094-5.367188-7.191406-.148437-.046875-14.933593-4.527344-28.609374-16.070312-17.804688-15.023438-24.957032-34.433594-21.261719-57.691407 8.890625-55.949219 56.34375-60.980469 58.367187-61.167969 4.117188-.363281 7.164063-3.988281 6.816406-8.109374-.351562-4.128907-3.992187-7.199219-8.113281-6.839844-.632812.054687-15.707031 1.433594-32.042969 11.234375-12.445312 7.46875-27.652343 21.171875-35.746093 45.542969-2.144531-2.589844-4.273438-5.28125-6.390625-8.066407 11.851562-11.660156 16.640625-19.050781 17.53125-36.367187.210937-4.136719-2.972656-7.667969-7.109375-7.878906-4.171875-.214844-7.667969 2.972656-7.878907 7.109374-.769531 14.96875-3.910156 17.925782-21.347656 34.339844-2.554687 2.40625-5.375 5.058594-8.484375 8.039063-15.695312 15.027343-21.484375 35.8125-23.574219 50.601562-.550781 3.875-5.226562 5.617188-8.214843 3.089844-20.261719-17.132813-4.679688-48.585937 6.410156-65.808594 23.742187-36.867187 11.230469-64.210937 10.429687-65.875-3.710937-8.101562-7.34375-16.570312-10.796874-25.167969-1.546876-3.847656-5.921876-5.707031-9.761719-4.164062-3.84375 1.546875-5.710938 5.914062-4.164063 9.757812 3.558594 8.863282 7.304688 17.589844 11.132813 25.945313.007812.015625.019531.035156.03125.050781.007812.019532.015625.039063.023437.058594.40625.863281 9.640625 21.527344-9.507812 51.269531-23.75 36.882813-24.988282 67.210938-3.484375 85.394531 5.570312 4.707032 13.269531 6.039063 20.09375 3.441407 6.894531-2.628907 11.628906-8.570313 12.664062-15.890625 1.761719-12.441406 6.503907-29.804688 19.097657-41.867188 2.128906-2.035156 4.109374-3.910156 5.972656-5.667968 4.300781 5.589843 8.675781 10.832031 13.082031 15.664062-4.136719 27.96875 5.027344 52.328125 26.550781 70.496094 10.8125 9.125 22.167969 14.472656 28.648438 17.058594v35.917968h-51.164063c-22.886719 0-36.726562 10.53125-44.308593 19.367188-4.078126 4.753906-4.980469 11.25-2.359376 16.953125 2.636719 5.738281 8.191407 9.300781 14.496094 9.300781h119.9375c17.527344 0 31.785156-14.257812 31.785156-31.785156v-40.460938c26.242188-5.296875 47.027344-20.765625 60.378907-45.046875.417969-.757812.824219-1.519531 1.214843-2.277343 2.332032 18.8125 6.210938 41.613281 12.527344 60.296874 1.328125 3.925782 5.585938 6.03125 9.511719 4.703126 3.925781-1.332032 6.03125-5.589844 4.703125-9.515626zm0 0"/><path d="m73.441406 110.824219c0 10.609375 6.6875 18.917969 15.226563 18.917969 8.542969 0 15.230469-8.308594 15.230469-18.917969 0-10.605469-6.6875-18.914063-15.230469-18.914063-8.539063 0-15.226563 8.308594-15.226563 18.914063zm0 0"/></svg>