<svg height="512pt" viewBox="-52 0 512 512" width="512pt" xmlns="http://www.w3.org/2000/svg"><path d="m186.082031 301.296875v-59.179687c34.457031-7.054688 55.648438-27.019532 56.570313-67.871094.945312-41.941406-39.773438-83.984375-39.773438-83.984375s36.851563 15.820312 64.9375-13.640625c0 0-15.941406-34.617188-70.027344-20.441406v-32.230469c0-9.121094-7.394531-16.511719-16.511718-16.511719-9.121094 0-16.511719 7.390625-16.511719 16.511719v32.230469h-54.261719v-32.230469c0-9.121094-7.394531-16.511719-16.511718-16.511719-9.121094 0-16.511719 7.390625-16.511719 16.511719v32.230469c-54.085938-14.175782-70.03125 20.441406-70.03125 20.441406 28.085937 29.460937 64.941406 13.640625 64.941406 13.640625s-40.722656 42.042969-39.777344 83.984375c.921875 40.851562 22.117188 60.816406 56.574219 67.871094v247.378906c0 8.320312 6.746094 15.066406 15.066406 15.066406h18.3125c8.324219 0 15.066406-6.746094 15.066406-15.066406v-31.890625h53.515626v31.890625c0 8.320312 6.742187 15.066406 15.0625 15.066406h18.316406c8.320312 0 15.066406-6.746094 15.066406-15.066406v-31.890625h71.832031v31.890625c0 8.320312 6.742188 15.066406 15.066407 15.066406h18.3125c8.320312 0 15.066406-6.746094 15.066406-15.066406v-46.832032c0-52.089843-38.554688-96.136718-90.183594-103.035156l-56.679688-7.570312c-15.414062-2.058594-26.925781-15.210938-26.925781-30.761719zm0 0" fill="#ffc265"/><path d="m122.566406 477.5625h-18.3125c-8.320312 0-15.066406-6.746094-15.066406-15.066406v27c0 8.320312 6.746094 15.066406 15.066406 15.066406h18.3125c8.324219 0 15.066406-6.746094 15.066406-15.066406v-27c0 8.320312-6.742187 15.066406-15.066406 15.066406zm0 0" fill="#ffb541"/><path d="m344.804688 477.5625h-18.3125c-8.324219 0-15.066407-6.746094-15.066407-15.066406v27c0 8.320312 6.742188 15.066406 15.066407 15.066406h18.3125c8.320312 0 15.066406-6.746094 15.066406-15.066406v-27c0 8.320312-6.746094 15.066406-15.066406 15.066406zm0 0" fill="#ffb541"/><path d="m224.527344 477.5625h-18.316406c-8.320313 0-15.0625-6.746094-15.0625-15.066406v27c0 8.320312 6.742187 15.066406 15.0625 15.066406h18.316406c8.320312 0 15.066406-6.746094 15.066406-15.066406v-27c0 8.320312-6.746094 15.066406-15.066406 15.066406zm0 0" fill="#ffb541"/><g fill="#ad5e2e"><path d="m186.082031 242.117188s-39.507812 8.824218-34.109375 45.621093c3.230469 22.050781 20.214844 29.246094 37.753906 28.144531-2.332031-4.367187-3.644531-9.339843-3.644531-14.585937zm0 0"/><path d="m135.820312 336.820312c-9.996093-16.152343-30.238281-18.085937-46.632812-16.488281v92.492188c51.570312-2.859375 62.460938-50.4375 46.632812-76.003907zm0 0"/><path d="m235.085938 393.265625c0-15.105469-25.460938-27.347656-40.5625-27.347656-15.105469 0-21.421876 7.6875-21.421876 22.789062 0 15.101563 13.15625 33.269531 28.257813 33.269531s33.726563-13.609374 33.726563-28.710937zm0 0"/><path d="m288.5 425.765625c3.742188 9.554687 22.878906 10.992187 32.433594 7.253906 9.550781-3.742187 11.644531-10.167969 7.902344-19.71875-3.738282-9.554687-16.558594-17.789062-26.109376-14.050781-9.554687 3.742188-17.964843 16.964844-14.226562 26.515625zm0 0"/><path d="m269.6875 339.628906-30.914062-4.128906c1.878906 21.164062 10.488281 42.785156 36.996093 46.382812 19.726563 2.675782 32.359375-8.535156 40.453125-23.878906-13.410156-9.5625-29.230468-16.0625-46.535156-18.375zm0 0"/></g><path d="m95.355469 122.785156c-8.535157 0-15.222657 8.304688-15.222657 18.902344 0 10.601562 6.6875 18.90625 15.222657 18.90625 8.53125 0 15.214843-8.304688 15.214843-18.90625 0-10.597656-6.683593-18.902344-15.214843-18.902344zm0 0"/><path d="m181.011719 160.59375c8.535156 0 15.21875-8.304688 15.21875-18.90625 0-10.597656-6.683594-18.902344-15.21875-18.902344-8.53125 0-15.21875 8.304688-15.21875 18.902344.003906 10.601562 6.6875 18.90625 15.21875 18.90625zm0 0"/><path d="m114.292969 206.773438c4.140625 0 7.5-3.359376 7.5-7.5v-7.230469c0-4.140625-3.359375-7.496094-7.5-7.496094s-7.496094 3.355469-7.496094 7.496094v7.230469c0 4.140624 3.355469 7.5 7.496094 7.5zm0 0"/><path d="m158.535156 184.546875c-4.144531 0-7.5 3.355469-7.5 7.496094v7.230469c0 4.144531 3.359375 7.5 7.5 7.5s7.496094-3.359376 7.496094-7.5v-7.230469c0-4.140625-3.355469-7.496094-7.496094-7.496094zm0 0"/><path d="m408.976562 419.535156c-5.128906-26.507812-21.132812-45.335937-46.277343-54.445312-13.882813-5.03125-26.863281-5.710938-32.761719-5.722656-16.53125-14.703126-37.132812-24.234376-59.277344-27.191407l-56.664062-7.570312c-11.636719-1.550781-20.414063-11.578125-20.414063-23.320313v-53.207031c36.648438-9.507813 55.667969-34.253906 56.554688-73.640625.222656-9.800781-1.597657-20.292969-5.410157-31.191406-1.367187-3.910156-5.644531-5.96875-9.554687-4.601563-3.910156 1.367188-5.96875 5.644531-4.601563 9.554688 3.214844 9.191406 4.757813 17.90625 4.574219 25.898437-.777343 34.496094-16.84375 53.773438-50.5625 60.675782-.027343.003906-.050781.011718-.074219.019531-.019531.003906-.039062.007812-.058593.011719-.464844.101562-11.542969 2.636718-21.898438 10.296874-14.398437 10.652344-20.617187 25.765626-17.988281 43.714844 3.144531 21.445313 18.722656 34.40625 41.105469 34.648438 6.019531 8.511718 15.40625 14.546875 26.34375 16.007812l19.996093 2.671875c5.121094 34.660157 25.792969 44.839844 42.730469 47.136719 2.105469.285156 4.335938.457031 6.652344.457031 11.6875 0 25.582031-4.382812 36.847656-20.667969 3.628907 3.078126 7.058594 6.417969 10.226563 10.039063 15.394531 17.585937 23.867187 40.140625 23.867187 63.507813 0 4.144531 3.359375 7.5 7.5 7.5s7.496094-3.355469 7.496094-7.5c0-24.210938-7.878906-47.664063-22.328125-66.902344 17.539062 3.191406 42.851562 13.597656 49.25 46.671875.695312 3.585937 3.835938 6.078125 7.355469 6.078125.472656 0 .953125-.046875 1.433593-.140625 4.066407-.789063 6.726563-4.722657 5.9375-8.789063zm-249.574218-132.894531c-2.839844-19.375 9.851562-29.25 19.183594-33.8125v48.457031c0 2.226563.203124 4.414063.574218 6.546875-8.613281-1.628906-17.65625-6.859375-19.757812-21.191406zm117.355468 87.78125c-15.839843-2.152344-25.4375-12.066406-29.171874-30.199219l21.089843 2.816406c13.363281 1.785157 26.070313 6.34375 37.398438 13.246094-11.382813 16.566406-24.660157 14.765625-29.316407 14.136719zm0 0"/><path d="m228.597656 419.074219c8.882813-7.183594 13.980469-16.601563 13.980469-25.84375 0-9.554688-6.484375-18.703125-18.257813-25.761719-9.335937-5.597656-20.753906-9.074219-29.796874-9.074219-13.1875 0-28.914063 5.253907-28.914063 30.28125 0 18.460938 15.949219 40.757813 35.75 40.757813 9.03125 0 19.214844-3.871094 27.238281-10.359375zm-47.992187-30.398438c0-9.914062 2.21875-15.285156 13.917969-15.285156 12.753906 0 33.054687 10.832031 33.054687 19.839844 0 9.066406-12.964844 21.207031-26.21875 21.207031-9.0625 0-20.753906-12.492188-20.753906-25.761719zm0 0"/><path d="m301.265625 441.726562c2.585937.4375 5.269531.648438 7.925781.648438 5.25 0 10.390625-.832031 14.445313-2.417969 13.234375-5.183593 17.554687-15.632812 12.152343-29.429687-2.464843-6.300782-7.617187-12.050782-14.132812-15.78125-7.257812-4.152344-15.164062-5.066406-21.691406-2.511719-12.820313 5.019531-23.917969 22.296875-18.46875 36.226563h.003906c2.683594 6.859374 9.703125 11.570312 19.765625 13.265624zm4.167969-35.527343c2.246094-.882813 5.527344-.296875 8.773437 1.5625 3.492188 2 6.410157 5.152343 7.617188 8.230469 1.15625 2.953124 1.515625 5.308593 1.007812 6.625-.574219 1.503906-2.855469 2.664062-4.664062 3.375-3.550781 1.390624-9.476563 1.78125-14.410157.945312-4.964843-.835938-7.78125-2.628906-8.296874-3.945312-1.960938-5.015626 3.535156-14.273438 9.972656-16.792969zm0 0"/><path d="m359.832031 463.289062c-4.140625 0-7.496093 3.355469-7.496093 7.496094v18.65625c0 4.167969-3.394532 7.5625-7.566407 7.5625h-18.308593c-4.171876 0-7.566407-3.394531-7.566407-7.5625v-31.886718c0-4.140626-3.355469-7.496094-7.496093-7.496094h-71.8125c-4.144532 0-7.5 3.355468-7.5 7.496094v31.886718c0 4.167969-3.390626 7.5625-7.5625 7.5625h-18.3125c-4.171876 0-7.5625-3.394531-7.5625-7.5625v-31.886718c0-4.140626-3.359376-7.496094-7.5-7.496094h-53.5c-4.140626 0-7.496094 3.355468-7.496094 7.496094v31.886718c0 4.167969-3.394532 7.5625-7.566406 7.5625h-18.308594c-4.171875 0-7.566406-3.394531-7.566406-7.5625v-69.851562c21.390624-2.949219 37.839843-13.734375 46.757812-30.84375 9.261719-17.761719 8.765625-39.699219-1.257812-55.890625-8.566407-13.84375-24.210938-20.824219-45.5-20.464844v-70.269531c0-3.5625-2.503907-6.632813-5.996094-7.347656-33.71875-6.902344-49.789063-26.179688-50.566406-60.675782-.863282-38.242187 37.273437-78.183594 37.65625-78.578125 2.484374-2.570312 2.816406-6.53125.789062-9.472656s-5.847656-4.046875-9.132812-2.636719c-.300782.128906-28.753907 11.980469-52.285157-7.910156 6.058594-7.519531 22.660157-21.394531 58.433594-12.019531 2.246094.589843 4.640625.105469 6.484375-1.316407 1.839844-1.417968 2.914062-3.609374 2.914062-5.933593v-32.226563c0-4.96875 4.042969-9.007812 9.011719-9.007812 4.964844 0 9.007813 4.039062 9.007813 9.007812v32.226563c0 4.140625 3.355468 7.496093 7.496094 7.496093h54.25c4.140624 0 7.5-3.355468 7.5-7.496093v-32.226563c0-4.96875 4.039062-9.007812 9.007812-9.007812s9.007812 4.039062 9.007812 9.007812v32.226563c0 2.324219 1.078126 4.515625 2.917969 5.933593 1.839844 1.421876 4.238281 1.90625 6.484375 1.316407 35.84375-9.394531 52.394532 4.472656 58.445313 12.015625-23.292969 19.75-51.082031 8.425781-52.300781 7.914062-3.28125-1.40625-7.097657-.304687-9.128907 2.632813-2.027343 2.941406-1.699219 6.902343.78125 9.472656.105469.109375 10.773438 11.21875 20.679688 27.265625 2.175781 3.523438 6.796875 4.613281 10.320312 2.441406 3.523438-2.175781 4.617188-6.796875 2.441407-10.320312-2.941407-4.761719-5.921876-9.101563-8.71875-12.910156 14.644531.851562 34.136718-2.445313 51.019531-20.152344 2.121093-2.226563 2.667969-5.519532 1.382812-8.3125-.503906-1.089844-5.257812-10.871094-17.496093-18.710938-16.566407-10.605468-36.046876-10.691406-51.832032-7.90625v-22.90625c0-13.234375-10.765625-24.003906-24.003906-24.003906s-24.003906 10.769531-24.003906 24.003906v24.726563h-39.253906v-24.726563c0-13.234375-10.769532-24.003906-24.003907-24.003906-13.238281 0-24.007812 10.769531-24.007812 24.003906v22.898438c-25.242188-4.496094-41.945313 1.582031-51.828125 7.914062-12.238282 7.839844-16.992188 17.621094-17.496094 18.710938-1.285156 2.792968-.7382812 6.085937 1.382812 8.3125 16.867188 17.691406 36.339844 20.988281 50.980469 20.15625-12.433593 16.917968-28.523437 44.371094-27.890625 72.441406.886719 39.386719 19.90625 64.132812 56.554688 73.640625v100.035156c0 4.140625 3.359375 7.496094 7.5 7.496094s7.496094-3.355469 7.496094-7.496094v-20.738281c12.238281-.234375 25.933593 2.355469 32.75 13.371094 7.183593 11.601562 7.46875 28.105468.710937 41.070312-6.296875 12.078125-18.027344 19.917969-33.460937 22.578125v-26.289062c0-4.140625-3.355469-7.496094-7.496094-7.496094-4.144532 0-7.5 3.355469-7.5 7.496094v111.335937c0 12.4375 10.121094 22.558594 22.5625 22.558594h18.308594c12.441406 0 22.5625-10.121094 22.5625-22.558594v-24.386718h38.503906v24.386718c0 12.4375 10.117187 22.558594 22.558594 22.558594h18.3125c12.4375 0 22.558593-10.121094 22.558593-22.558594v-24.386718h56.816407v24.386718c0 12.4375 10.121093 22.558594 22.5625 22.558594h18.308593c12.441407 0 22.5625-10.121094 22.5625-22.558594v-18.65625c0-4.140625-3.355469-7.496094-7.5-7.496094zm0 0"/></svg>