<svg height="512pt" viewBox="-10 0 512 512.00043" width="512pt" xmlns="http://www.w3.org/2000/svg"><path d="m379.511719 207.097656c-57.363281-44.179687-161.585938-84.28125-226.222657-63.277344-39.472656 12.832032-46.589843 44.941407-46.15625 68 11.230469.335938 22.496094 3.894532 32.335938 10.988282l175.089844 126.261718c10.976562 6.394532 21.050781 15.121094 29.160156 27.617188l3.925781 1.605469c-.011719-2.039063.253907-4.109375.859375-6.148438 3.367188-11.328125 15.367188-17.734375 26.628906-14.164062 20.863282 6.613281 41.519532 17.488281 53.96875 43.53125 93.957032-48.296875 5.65625-151.867188-49.589843-194.414063zm0 0" fill="#ffc265"/><path d="m379.511719 207.097656c27.136719 20.898438 62.246093 56.519532 79.816406 93.082032 62.453125-41.515626-6.066406-121.15625-49.609375-154.691407-47.167969-36.324219-132.859375-69.300781-186.003906-52.027343-26.449219 8.597656-35.230469 27.71875-37.382813 44.765624 63.167969-2.714843 144.824219 31.628907 193.179688 68.871094zm0 0" fill="#ffc265"/><path d="m459.328125 300.179688c7-4.652344 12.339844-9.785157 16.269531-15.277344-16.160156-39.019532-54.121094-77.992188-83.03125-100.257813-49.835937-38.382812-135.039062-73.679687-198.925781-68.507812-4.234375 7.082031-6.386719 14.777343-7.308594 22.089843 63.167969-2.714843 144.824219 31.628907 193.179688 68.871094 27.136719 20.898438 62.246093 56.519532 79.816406 93.082032zm0 0" fill="#ffb541"/><path d="m429.097656 401.507812c9.734375-5 17.507813-10.597656 23.566406-16.660156-64.210937-96.46875-105.039062-51.589844-105.039062-51.589844s-184.421875-134.71875-205.691406-142.53125c-10.933594-4.015624-22.164063-4.074218-32.207032-2.417968-2.117187 8.148437-2.726562 16.273437-2.589843 23.511718 11.226562.335938 22.496093 3.894532 32.335937 10.988282l175.085938 126.261718c10.976562 6.394532 21.050781 15.121094 29.160156 27.617188l3.925781 1.605469c-.015625-2.039063.25-4.109375.859375-6.148438 3.363282-11.328125 15.363282-17.734375 26.628906-14.164062 20.863282 6.613281 41.519532 17.488281 53.964844 43.527343zm0 0" fill="#ffb541"/><g fill="#ff6930"><path d="m179.695312 348.257812c-5.148437 11.339844-1.34375 24.695313 8.949219 31.699219 14.953125 10.175781 34.640625 27.933594 41.929688 54.117188 12.375 44.457031-3.667969 69.664062 12.375 69.664062s42.625-49.957031 30.25-99.914062c-9.421875-38.03125-33.832031-55.953125-59.332031-68.09375-12.875-6.128907-28.277344-.457031-34.171876 12.527343zm0 0"/><path d="m257.65625 353.894531c-3.359375 11.304688 1.941406 23.339844 12.503906 28.574219 15.347656 7.605469 36.117188 21.707031 46.351563 45.320312 17.371093 40.097657 5.597656 65.824219 20.644531 63.742188 15.046875-2.078125 33.5-52.386719 15.414062-97.644531-13.773437-34.453125-38.996093-48.09375-64.488281-56.175781-12.871093-4.078126-26.582031 3.242187-30.425781 16.183593zm0 0"/><path d="m348.503906 372.140625c-2.9375 9.894531 1.699219 20.425781 10.945313 25.007813 13.429687 6.65625 31.605469 18.996093 40.5625 39.660156 15.203125 35.09375 4.898437 57.605468 18.066406 55.785156s29.316406-45.847656 13.488281-85.453125c-12.050781-30.148437-34.125-42.089844-56.433594-49.160156-11.265624-3.570313-23.265624 2.832031-26.628906 14.160156zm0 0"/></g><path d="m273.199219 403.824219c-1.621094-6.542969-3.695313-12.476563-6.132813-17.902344 3.082032 41.558594-17.324218 78.792969-31.429687 81.636719.726562 23.394531-4.105469 36.179687 7.3125 36.179687 16.042969 0 42.625-49.957031 30.25-99.914062zm0 0" fill="#ff5426"/><path d="m352.570312 393.886719c-4.90625-12.273438-11.269531-21.894531-18.578124-29.578125.191406.464844.390624.914062.578124 1.382812 15.472657 38.71875 4.203126 81.125-8.800781 93.878906 3.460938 21.21875.84375 33.421876 11.386719 31.960938 15.046875-2.078125 33.5-52.386719 15.414062-97.644531zm0 0" fill="#ff5426"/><path d="m431.566406 407.140625c-4.046875-10.128906-9.230468-18.195313-15.171875-24.71875 11.335938 32.679687 1.910157 67.320313-8.988281 78.210937 4.117188 21.023438.800781 33.324219 10.671875 31.960938 13.167969-1.820312 29.316406-45.847656 13.488281-85.453125zm0 0" fill="#ff5426"/><path d="m161.425781 337.207031c-7.128906-7.253906-15.769531-12.855469-25.171875-16.734375-15.386718-6.34375-35.464844-9.320312-58.3125 2.035156-48.496094 24.109376-84.160156 107.59375-63.9375 122.015626 14.890625 10.617187 31.257813-15.203126 50.328125-23.335938 14.40625-6.140625 30.480469 4.742188 30.132813 20.398438-.464844 20.722656-18.355469 45.515624-2.96875 55.394531 20.902344 13.417969 85.164062-50.710938 89.527344-104.695313 2.019531-24.980468-7.699219-42.972656-19.597657-55.078125zm0 0" fill="#ff6930"/><path d="m91.671875 430.484375c1.488281-5.359375 2.675781-10.753906 2.792969-15.898437.347656-15.65625-15.726563-26.539063-30.132813-20.398438-19.066406 8.132812-35.4375 33.953125-50.328125 23.335938-1.480468-1.054688-2.65625-2.492188-3.554687-4.242188-3.671875 14.730469-2.972657 26.589844 3.554687 31.242188 14.890625 10.617187 31.257813-15.203126 50.328125-23.335938 10.628907-4.53125 22.160157.210938 27.339844 9.296875zm0 0" fill="#ff5426"/><path d="m91.496094 469.980469c-1.117188-.71875-2.042969-1.523438-2.828125-2.390625-3.714844 12.40625-6.308594 23.527344 2.828125 29.390625 20.902344 13.417969 85.164062-50.710938 89.527344-104.691407.578124-7.152343.191406-13.730468-.933594-19.761718-9.050782 52.28125-68.621094 110.273437-88.59375 97.453125zm0 0" fill="#ff5426"/><path d="m70.539062 317.015625 7.402344 5.492187c22.847656-11.355468 42.925782-8.378906 58.3125-2.035156 9.402344 3.878906 18.042969 9.480469 25.171875 16.734375 5.960938 6.0625 11.363281 13.609375 15.027344 22.765625l1.03125.238282c-.234375-4 .457031-8.089844 2.210937-11.953126 5.894532-12.984374 21.296876-18.65625 34.171876-12.527343 16.75 7.976562 33.015624 18.464843 44.886718 35.492187l.320313.023438c-2.539063-5.253906-3.1875-11.402344-1.417969-17.351563 3.84375-12.945312 17.554688-20.261719 30.429688-16.183593 9.023437 2.863281 18.011718 6.425781 26.472656 11.359374l-175.089844-126.261718c-27.148438-19.578125-65.167969-12.359375-83.25 15.808594-16.585938 25.832031-10.328125 60.097656 14.320312 78.398437zm0 0" fill="#ff6930"/><path d="m258.753906 371.222656.320313.023438c-2.539063-5.253906-3.1875-11.402344-1.417969-17.351563 3.84375-12.945312 17.554688-20.261719 30.425781-16.183593 9.027344 2.863281 18.015625 6.425781 26.476563 11.359374l-66.394532-47.878906c-20.824218 2.199219-29.136718 11.167969-29.136718 11.167969-23.902344-15.46875-47.101563-2.460937-47.101563-2.460937s-15.816406-20.386719-57.472656-23.902344c-22.773437-1.921875-45.074219 4.984375-60.609375 11.636718 3.945312 7.40625 9.539062 14.070313 16.695312 19.382813l7.402344 5.496094c22.847656-11.359375 42.925782-8.382813 58.3125-2.035157 9.402344 3.875 18.042969 9.476563 25.171875 16.730469 5.960938 6.0625 11.363281 13.609375 15.027344 22.765625l1.03125.238282c-.234375-3.996094.460937-8.089844 2.210937-11.953126 5.894532-12.984374 21.296876-18.65625 34.175782-12.527343 16.746094 7.976562 33.011718 18.464843 44.882812 35.492187zm0 0" fill="#ff5426"/><path d="m409.71875 145.488281c15.203125 11.710938 33.445312 29.042969 48.101562 48.410157 51.964844-28.777344.609376-85.871094-31.21875-109.066407-33.109374-24.132812-92.664062-45.253906-128.90625-32.402343-21.007812 7.445312-25.273437 24.28125-25.148437 37.117187 47.828125 4.722656 102.753906 29.4375 137.171875 55.941406zm0 0" fill="#ffc265"/><path d="m426.597656 84.832031c10.144532 7.386719 22.261719 18.222657 32.394532 30.480469 8.269531-34.039062 17.09375-92.894531-16.808594-104.730469-31.0625-10.839843-67.902344 18.800781-90.238282 41.339844 27.308594 5.921875 55.433594 18.902344 74.652344 32.910156zm0 0" fill="#ffc265"/><path d="m458.992188 115.3125c2.390624-9.835938 4.824218-21.746094 6.261718-33.992188-6.75-6.601562-13.664062-12.386718-19.84375-16.890624-18.492187-13.476563-45.230468-26.007813-71.550781-32.214844-8.15625 6.421875-15.613281 13.347656-21.917969 19.707031 27.308594 5.921875 55.4375 18.902344 74.65625 32.910156 10.144532 7.390625 22.261719 18.222657 32.394532 30.480469zm0 0" fill="#ffb541"/><path d="m424.128906 124.527344c-36.636718-28.214844-96.519531-54.402344-146.335937-56.597656-4.15625 7.015624-5.308594 14.867187-5.246094 21.621093 47.832031 4.71875 102.757813 29.433594 137.171875 55.9375 15.203125 11.710938 33.445312 29.042969 48.101562 48.410157 8.589844-4.757813 14.339844-10.289063 17.839844-16.308594-15.160156-21.230469-35.121094-40.421875-51.53125-53.0625zm0 0" fill="#ffb541"/><path d="m106.3125 245.488281c-8.558594 0-15.265625 8.328125-15.265625 18.964844 0 10.632813 6.707031 18.960937 15.265625 18.960937 8.5625 0 15.269531-8.328124 15.269531-18.960937s-6.707031-18.964844-15.269531-18.964844zm0 0"/><path d="m492.617188 259.054688c.734374-21.140626-9.351563-43.308594-23.347657-63.316407 11.039063-8.007812 17.332031-18.078125 18.695313-30.050781 2.132812-18.679688-8.429688-37.722656-20.175782-52.628906 3.832032-16.542969 7.769532-39.175782 6.78125-59.402344-.917968-18.875-6.757812-43.027344-29.324218-50.90625-32.804688-11.445312-69.476563 14.917969-95.421875 40.378906-16.417969-3.15625-36.914063-4.628906-54.492188 1.605469-17.125 6.070313-27.46875 18.773437-29.746093 36.199219-19.558594-1.046875-34.097657 1.585937-44.265626 4.890625-22.640624 7.355469-36.910156 22.839843-41.589843 44.96875-10.492188.847656-20.230469 2.675781-29.042969 5.539062-31.628906 10.28125-49.65625 34.296875-51.367188 68.035157-.289062.023437-.578124.042968-.863281.070312l-3.664062-26.683594c-.5625-4.113281-4.359375-6.984375-8.472657-6.429687-4.117187.566406-6.996093 4.359375-6.429687 8.476562l3.808594 27.769531c-4.0625 1.363282-7.960938 3.121094-11.660157 5.242188l-16.328124-26.253906c-2.191407-3.523438-6.832032-4.605469-10.359376-2.414063-3.527343 2.195313-4.609374 6.832031-2.414062 10.363281l16.964844 27.28125c-3.976563 3.722657-7.539063 7.972657-10.582032 12.714844-18.324218 28.535156-11.84375 66.511719 14.558594 87.445313-14.742187 9.921875-28.953125 25.128906-40.835937 43.867187-12.996094 20.5-21.542969 42.699219-22.863281 59.386719-1.226563 15.457031 4.089843 22.675781 8.765624 26.007813 14.183594 10.113281 28.429688-1.300782 39.875-10.472657 5.886719-4.722656 11.976563-9.605469 17.917969-12.136719 4.488281-1.914062 9.40625-1.425781 13.496094 1.339844 4.082031 2.765625 6.363281 7.148438 6.253906 12.027344-.144531 6.460938-2.410156 13.925781-4.605469 21.148438-4.265624 14.035156-9.574218 31.5 5.085938 40.914062 8.421875 5.402344 19.101562 2.585938 27.402344-1.523438 15-7.429687 32.4375-23.613281 46.644531-43.296874 15.960937-22.121094 25.660156-45.527344 27.308594-65.910157.101562-1.25.164062-2.476562.214843-3.695312 13.324219 9.894531 28.726563 25.414062 34.742188 47.015625 5.691406 20.449218 5.058594 36.484375 4.601562 48.191406-.410156 10.410156-.707031 17.929688 4.203126 23.035156 2.648437 2.753906 6.296874 4.152344 10.851562 4.152344 6.691406 0 13.667969-4.394531 20.175781-12.707031 15.644531-19.996094 26.671875-59.679688 17.464844-96.835938-.507813-2.066406-1.074219-4.054687-1.667969-6.011719 11.757813 7.691407 24.019532 18.957032 30.90625 34.847657 7.96875 18.386719 9.453125 33.472656 10.539063 44.488281.976562 9.917969 1.679687 17.082031 7.078125 21.335938 3.136718 2.46875 7.144531 3.105468 11.023437 2.570312 6.402344-.886719 12.476563-5.980469 17.566407-14.734375 10.050781-17.289063 15.34375-46.890625 9.1875-75.742187 10.65625 6.65625 22.09375 16.675781 28.355468 31.132812 6.914063 15.953125 8.207032 29.070312 9.148438 38.648438.878906 8.910156 1.511718 15.34375 6.550781 19.316406 2.945313 2.324218 6.703125 2.949218 10.355469 2.445312 5.898437-.820312 11.453125-5.433594 16.054687-13.351562 10.679688-18.375 15.304688-52.433594 3.589844-82.171875 23.777344-13.945313 36.894531-32.699219 38.996094-55.832031 1.308593-14.359376-1.671875-29.964844-8.871094-46.644532 14.796875-11.589844 22.617187-26.253906 23.226563-43.699218zm-192.257813-200.144532c22.851563-8.097656 68.960937-2.070312 112.871094 25.136719 3.53125 2.1875 8.167969 1.097656 10.355469-2.433594s1.097656-8.167969-2.429688-10.355469c-16.019531-9.921874-35.265625-18.417968-53.917969-23.886718 19.867188-18.0625 49.25-38.722656 73.046875-30.417969 24.867188 8.679687 20.734375 53.085937 15.117188 82.042969-3.445313-3.53125-6.617188-6.511719-9.171875-8.808594-3.085938-2.78125-7.84375-2.527344-10.621094.558594-2.78125 3.085937-2.527344 7.84375.558594 10.625 24.984375 22.480468 38.757812 45.886718 36.851562 62.609375-.882812 7.730469-5.089843 14.230469-12.792969 19.742187-14.90625-18.488281-32.175781-34.316406-45.433593-44.523437-25.371094-19.539063-59.402344-36.839844-93.371094-47.46875-15.234375-4.765625-28.800781-7.714844-40.832031-9.351563 1.675781-11.507812 8.289062-19.394531 19.769531-23.46875zm-127.027344 333.175782c-3.261719 40.355468-41.664062 85.070312-65.632812 96.9375-6.769531 3.347656-10.945313 3.40625-12.601563 2.34375-4.582031-2.941407-3.078125-9.863282 1.179688-23.875 2.488281-8.191407 5.0625-16.664063 5.253906-25.183594.222656-9.941406-4.585938-19.222656-12.863281-24.824219-4.953125-3.351563-10.660157-5.0625-16.40625-5.0625-3.863281 0-7.746094.773437-11.421875 2.339844-7.839844 3.34375-14.75 8.878906-21.429688 14.234375-11.425781 9.160156-17.296875 13.125-21.730468 9.964844-1.601563-1.140626-3.101563-5.042969-2.503907-12.570313 2.113281-26.660156 29.359375-78.925781 65.613281-96.945313 17.296876-8.601562 34.394532-9.199218 52.265626-1.824218 8.824218 3.640625 16.480468 8.71875 22.75 15.101562 13.191406 13.414063 19.089843 30.027344 17.527343 49.363282zm77.933594 97.933593c-4.375 5.589844-7.492187 6.902344-8.296875 6.933594-.417969-2.269531-.21875-7.355469-.054688-11.546875.472657-11.988281 1.183594-30.097656-5.140624-52.816406-7.894532-28.359375-28.867188-47.453125-45.070313-58.480469-3.1875-2.167969-5.492187-5.183594-6.78125-8.554687-.246094-.898438-.503906-1.78125-.777344-2.652344-.792969-3.679688-.453125-7.613282 1.199219-11.257813 2.027344-4.464843 5.683594-7.847656 10.285156-9.53125 2.023438-.738281 4.117188-1.105469 6.199219-1.105469 2.636719 0 5.257813.585938 7.710937 1.753907 22.285157 10.613281 46.300782 26.433593 55.4375 63.3125 8.992188 36.300781-3.871093 70.089843-14.710937 83.945312zm92.070313-13.191406c-3.03125 5.398437-5.59375 7.34375-6.59375 7.828125-.613282-2.191406-1.050782-6.644531-1.414063-10.347656-1.117187-11.328125-2.800781-28.449219-11.707031-48.996094-11.128906-25.6875-33.359375-40.9375-50.050782-49.207031-2.59375-1.285157-4.714843-3.160157-6.285156-5.382813-.25-.398437-.507812-.792968-.765625-1.183594-2.277343-3.882812-2.980469-8.628906-1.621093-13.207031 1.292968-4.347656 4.210937-7.914062 8.214843-10.039062 2.445313-1.296875 5.105469-1.953125 7.785157-1.953125 1.6875 0 3.382812.261718 5.035156.785156 8.039062 2.550781 16.375 5.714844 24.375 10.285156l.054687.039063c.390625.28125.808594.507812 1.230469.707031 13.589844 8.066406 26.089844 20.371094 34.308594 40.933594 12.878906 32.222656 5.519531 65.339844-2.566406 79.738281zm80.859374.121094c-2.257812 4.6875-4.339843 7.109375-5.585937 8.1875-.371094-2.015625-.667969-5.035157-.921875-7.617188-.984375-9.972656-2.464844-25.042969-10.316406-43.160156-9.855469-22.742187-29.5-36.222656-44.246094-43.53125-6.019531-2.980469-9.007812-9.792969-7.105469-16.195313 0 0 0 0 0-.003906 1.058594-3.558594 3.445313-6.476562 6.726563-8.21875 2.003906-1.0625 4.179687-1.597656 6.375-1.597656 1.378906 0 2.765625.210938 4.121094.640625 19.214843 6.089844 40.402343 16.191406 51.890624 44.929687 9.746094 24.382813 6.550782 51-.9375 66.566407zm23.710938-211.011719c-16.757812-23.144531-39.867188-46.816406-63.40625-64.945312-28.414062-21.882813-66.6875-41.871094-105-54.84375-3.9375-1.335938-8.207031.777343-9.539062 4.710937-1.332032 3.9375.78125 8.207031 4.714843 9.539063 36.804688 12.460937 73.488281 31.601562 100.644531 52.511718 22.4375 17.285156 44.453126 39.828125 60.398438 61.851563 19.894531 27.472656 29.421875 52.8125 27.5625 73.273437-1.609375 17.660156-11.898438 32.304688-30.605469 43.609375-14.617187-24.859375-36.574219-34.726562-54.886719-40.53125-7.386718-2.34375-15.230468-1.628906-22.089843 2.007813-4.949219 2.625-8.921875 6.53125-11.589844 11.296875-7.738281-9.4375-16.539063-16.359375-25.550781-21.609375l-65.988282-47.585938c-3.367187-2.425781-8.070312-1.667968-10.5 1.703125-2.433593 3.367188-1.667968 8.070313 1.699219 10.5l31.121094 22.445313c-3.035156.59375-6.003906 1.636718-8.824219 3.132812-7.296875 3.867188-12.683594 10.257813-15.269531 18.0625-10.820313-9.914062-22.820313-16.664062-33.792969-21.890625-8.0625-3.839843-17.132812-4.261719-25.535156-1.195312-7.117188 2.601562-12.984375 7.429687-16.871094 13.789062-2.632812-3.683593-5.390625-6.878906-8.0625-9.59375-7.699218-7.835937-17.035156-14.046875-27.738281-18.460937-20.359375-8.398438-40.675781-8.292969-60.464844.289062l-3.832031-2.847656c-21.460938-15.933594-26.960938-46.035156-12.519531-68.527344 9.730469-15.15625 26.300781-23.894531 44.300781-23.4375.070312.003906.140625.015625.214844.019532 10.191406.300781 19.964844 3.621093 28.257812 9.601562l84.601563 61.007812c1.328125.960938 2.867187 1.421876 4.390625 1.421876 2.335937 0 4.636718-1.082032 6.109375-3.125 2.429687-3.367188 1.667969-8.070313-1.703125-10.5l-84.601563-61.007813c-8.714843-6.285156-18.695312-10.304687-29.207031-11.804687 1.410156-27.566407 15.179688-45.773438 40.992188-54.164063 23.609374-7.671875 55.097656-7.140625 91.070312 1.539063 4.042969.972656 8.101562-1.511719 9.078125-5.550782.972656-4.039062-1.511719-8.101562-5.550781-9.078125-19.441406-4.6875-37.777344-7.125-54.542969-7.304687 4.277344-14.773438 14.515625-24.894532 30.578125-30.117188 22.746094-7.390625 55.046875-5.277344 90.957031 5.957032 31.867188 9.96875 65.019531 26.804687 88.6875 45.03125 17.808594 13.714843 35.433594 31.632812 48.363281 49.167968 16.011719 21.707032 24.175782 41.851563 23.601563 58.246094-.414063 11.953125-5.347656 21.945312-15.003906 30.359375-4.105469-7.460937-8.992188-15.113281-14.667969-22.953125zm0 0"/></svg>