<svg height="511pt" viewBox="0 -20 511.9999 511" width="511pt" xmlns="http://www.w3.org/2000/svg"><path d="m339.335938 180.347656c10.042968.199219 26.574218-6.957031 44.953124-14.285156 9.570313-12.292969 17.367188-24.3125 21.761719-33.574219 16.046875-33.820312 6.355469-72.011719-21.648437-85.300781s-63.714844 3.355469-79.765625 37.175781c-8.1875 17.25-16.328125 49.667969-18.628907 79.050781 16.230469 9.628907 33.523438 16.546876 53.328126 16.933594zm0 0" fill="#ffe9c8"/><path d="m384.402344 47.1875c-10.816406-5.132812-22.785156-5.785156-34.328125-2.71875 2.460937.703125 4.886719 1.597656 7.253906 2.71875 28.003906 13.289062 37.695313 51.480469 21.644531 85.300781-3.515625 7.40625-13.882812 29.535157-22.792968 44.386719 8.273437-2.730469 17.90625-6.742188 28.109374-10.8125 9.570313-12.292969 17.367188-24.3125 21.761719-33.574219 16.046875-33.820312 6.355469-72.011719-21.648437-85.300781zm0 0" fill="#ffdca7"/><path d="m280.316406 159.90625c11.601563-28.410156 18.917969-63.90625 18.917969-84.101562 0-37.4375-25.125-67.78125-56.125-67.78125-30.996094 0-56.125 30.34375-56.125 67.78125 0 7.480468 1.003906 17.0625 2.859375 27.605468 33.390625 9.976563 60.34375 37.257813 90.472656 56.496094zm0 0" fill="#ffe9c8"/><path d="m243.109375 8.023438c-4.667969 0-9.203125.699218-13.539063 1.996093 24.457032 7.316407 42.589844 33.988281 42.589844 65.785157 0 16.742187-5.035156 44.003906-13.367187 69.027343 7.078125 5.253907 14.207031 10.402344 21.523437 15.074219 11.601563-28.414062 18.917969-63.90625 18.917969-84.101562 0-37.4375-25.128906-67.78125-56.125-67.78125zm0 0" fill="#ffdca7"/><path d="m164.089844 99.5625c-89.242188 0-95.613282 71.054688-120.46875 115.929688-24.859375 44.878906-97.03125 134 76.96875 198.570312 174.003906 64.574219 350.265625-36.027344 362.914062-181.644531 12.710938-146.296875-107.941406-51.359375-144.167968-52.070313-68.53125-1.34375-107.042969-80.785156-175.246094-80.785156zm0 0" fill="#ffc265"/><path d="m483.503906 196.316406c-12.648437 145.617188-188.914062 246.21875-362.914062 181.644532-74.058594-27.480469-103.515625-59.414063-111.011719-90.488282-8.828125 41.25 7.695313 88.25 111.011719 126.589844 174 64.574219 350.265625-36.027344 362.914062-181.644531 1.261719-14.519531 1.207032-26.65625.054688-36.75-.019532.21875-.035156.429687-.054688.648437zm0 0" fill="#ffb541"/><path d="m255.429688 142.324219c10.980468 59.320312 9.636718 170.464843-108.6875 280.207031 30.652343 8.523438 61.117187 12.101562 90.480468 11.382812 99.085938-96.472656 109.773438-193.039062 103.089844-253.570312-.332031.007812-.660156.011719-.976562.003906-32.625-.640625-58.449219-18.980468-83.90625-38.023437zm0 0" fill="#8c808a"/><path d="m175.769531 393.058594c-8.792969 9.8125-18.433593 19.648437-29.027343 29.472656 30.652343 8.523438 61.117187 12.101562 90.480468 11.382812 13.421875-13.066406 25.207032-26.132812 35.5625-39.117187-30.976562 4.523437-63.707031 4.226563-97.015625-1.738281zm0 0" fill="#7b7179"/><path d="m409.386719 370.574219c41.792969-35.578125 69.390625-83.722657 74.117187-138.160157 8.011719-92.21875-36.96875-88.578124-80.390625-73.46875 12.457031 51.632813 22.535157 127.679688 6.273438 211.628907zm0 0" fill="#8c808a"/><path d="m483.558594 195.65625c-.019532.21875-.03125.433594-.050782.65625-4.496093 51.765625-29.671874 97.835938-68.066406 132.824219-1.359375 13.539062-3.328125 27.375-6.054687 41.4375 41.792969-35.578125 69.390625-83.722657 74.121093-138.160157 1.257813-14.519531 1.207032-26.660156.050782-36.757812zm0 0" fill="#7b7179"/><path d="m483.695312 196.914062c11.691407-21.597656 27.621094-55.351562 17.671876-63-8.984376-6.910156-29.378907 6.464844-44.878907 18.875 14.101563 4.574219 24.433594 17.332032 27.207031 44.125zm0 0" fill="#ff6930"/><path d="m505.953125 127.949219c-10.195313-7.839844-26.5-2.5625-51.148437 16.59375-15.144532-3.425781-32.894532.253906-50.308594 6.003906 3.398437-5.351563 6.230468-10.371094 8.347656-14.835937 8.511719-17.9375 10.710938-37.617188 6.195312-55.421876-4.652343-18.324218-15.804687-32.492187-31.410156-39.894531-27.386718-13-61.160156-1.117187-81.328125 26.535157-3.726562-37.351563-30.636719-66.429688-63.191406-66.429688-35.09375 0-63.648437 33.78125-63.648437 75.300781 0 5.09375.441406 11.101563 1.277343 17.707031-2.984375-.527343-6.027343-.914062-9.125-1.160156v-23.222656c0-4.15625-3.367187-7.523438-7.523437-7.523438-4.152344 0-7.519532 3.367188-7.519532 7.523438v23.089844c-17.300781.78125-32.378906 4.324218-45.449218 10.703125l-10.03125-30.59375c-1.296875-3.949219-5.542969-6.097657-9.492188-4.804688-3.945312 1.296875-6.097656 5.542969-4.800781 9.492188l11.089844 33.824219c-4.476563 3.230468-8.671875 6.875-12.589844 10.949218-16.621094 17.285156-25.78125 39.203125-34.640625 60.398438-4.457031 10.660156-8.664062 20.726562-13.617188 29.667968-2.019531 3.644532-4.402343 7.664063-6.925781 11.917969-21.636719 36.480469-57.847656 97.542969 5.371094 152.332031 3.136719 2.71875 7.886719 2.378907 10.609375-.757812 2.71875-3.140625 2.378906-7.890625-.757812-10.613281-53.722657-46.554688-23.992188-96.6875-2.28125-133.289063 2.578124-4.351562 5.019531-8.460937 7.144531-12.304687 5.351562-9.660157 9.714843-20.101563 14.335937-31.152344 8.328125-19.917969 16.933594-40.515625 31.605469-55.773437 16.257813-16.90625 38.484375-25.128907 67.953125-25.128907 31.78125 0 56.863281 18.804688 83.421875 38.714844.339844.253906.683594.507813 1.023437.765625 3.71875 21.472656 4.660157 43.523438 2.78125 65.59375-.347656 4.082031 2.769532 7.785156 6.855469 8.128906 4.082031.347656 7.785157-2.769531 8.132813-6.855468 1.550781-18.238282 1.285156-36.46875-.777344-54.410157 20.308594 14.296875 41.988281 26.511719 67.933594 28.554688 5.195312 60.910156-8.90625 149.644531-99.410156 238.902343-3.726563.058594-7.453126.035157-11.175782-.046874 1.976563-12.3125 1.351563-21.707032 1.292969-22.5-.308594-4.140626-3.90625-7.246094-8.046875-6.9375-4.136719.304687-7.25 3.90625-6.957031 8.042968.011719.175782.585937 9.203125-1.457031 20.660156-15.386719-1.144531-30.734376-3.503906-46-7.066406 54.390624-53.378906 88.179687-112.429687 100.480468-175.710937.792969-4.078125-1.867187-8.023438-5.945312-8.816407-4.078125-.792968-8.027344 1.867188-8.820313 5.945313-12.1875 62.6875-46.757812 121.238281-102.746093 174.097656-7.183594-2.109375-14.34375-4.484375-21.472657-7.132812-21.167969-7.855469-39.484375-16.425781-54.441406-25.472657-3.558594-2.152343-8.179687-1.011718-10.328125 2.542969-2.152344 3.550781-1.011719 8.175781 2.539062 10.328125 12.757813 7.714844 27.75 15.070313 44.691407 21.933594.984375 9.84375 5.039062 31.539062 21.75 47.890625 2.925781 2.867187 7.769531 2.8125 10.632812-.113281 2.90625-2.96875 2.855469-7.730469-.113281-10.636719-9.863281-9.648437-14.175781-22.070313-16.070312-30.96875 26.972656 9.644531 54.332031 15.636719 81.832031 17.941406-2.542969 6.683594-6.222657 13.316407-11.554688 18.882813-2.871093 3-2.769531 7.761718.230469 10.632812 2.960938 2.835938 7.800781 2.730469 10.636719-.230468 8.128906-8.492188 13.1875-18.628907 16.324219-28.371094 3.382812.109375 6.769531.1875 10.15625.1875 10.613281 0 21.238281-.550782 31.855468-1.648438 10.601563-1.097656 21.097656-2.761718 31.429688-4.960937 1.277344 7.113281 4.050781 16.878906 10.050781 23.339843 2.789063 3 7.628906 3.183594 10.628906.394532 3.046875-2.828125 3.222657-7.585938.394531-10.628906-3.523437-3.792969-5.453124-11.085938-6.390624-16.625 20-5.335938 39.234374-12.730469 57.238281-22.019532 1.558593 7.289063 1.929687 15.410156-.375 23.523438-1.132813 3.996094 1.183593 8.15625 5.179687 9.292968 3.945313 1.117188 8.171875-1.238281 9.292969-5.179687 3.566406-12.554687 2.367187-24.808594-.464844-35.164063 2.308594-1.367187 4.59375-2.765624 6.855469-4.195312 61.539062-38.964844 100.105469-98.960938 105.8125-164.617188 1.125-12.988281 1.261719-24.503906.394531-34.601562 21.414063-40 25.902344-61.792969 14.558594-70.519531zm-9.304687 11.839843c1.0625 2.125.578124 11.832032-10.066407 34.75-3.558593-10.015624-8.882812-17.617187-16.015625-22.898437-.019531-.015625-.042968-.027344-.058594-.042969 16.824219-11.976562 24.449219-12.746094 26.140626-11.808594zm-115.46875-85.804687c11.484374 5.449219 19.75 16.105469 23.277343 30.003906 3.660157 14.417969 1.8125 30.496094-5.203125 45.273438-3.929687 8.285156-11.054687 19.351562-19.667968 30.585937-1.324219.527344-2.644532 1.058594-3.941407 1.582032-14.773437 5.9375-28.710937 11.542968-36.160156 11.398437-16.65625-.324219-31.441406-5.652344-45.558594-13.503906 2.824219-28.84375 10.761719-57.527344 17.503907-71.738281 14.246093-30.019532 45.539062-45.089844 69.75-33.601563zm-184.667969 43.667969c-1.3125-8.402344-2.007813-15.894532-2.007813-21.847656 0-33.230469 21.804688-60.261719 48.605469-60.261719s48.605469 27.03125 48.605469 60.261719c0 15.894531-5.25 45.542968-15.054688 72.648437-6.703125-4.636719-13.363281-9.628906-20.121094-14.691406-18.757812-14.0625-37.953124-28.449219-60.027343-36.109375zm279.503906 134.113281c-3.804687 43.746094-23.449219 84.863281-55.515625 118.0625.953125-6.625 1.769531-13.28125 2.4375-19.9375.414062-4.132813-2.601562-7.820313-6.730469-8.234375-4.144531-.40625-7.820312 2.601562-8.238281 6.730469-1.28125 12.8125-3.128906 25.632812-5.476562 38.15625-7.902344 6.582031-16.363282 12.746093-25.347657 18.433593-1.355469.855469-2.738281 1.679688-4.113281 2.515626-3.835938-8.238282-7.691406-13.519532-8.074219-14.035157-2.472656-3.335937-7.183593-4.035156-10.519531-1.558593-3.335938 2.472656-4.035156 7.183593-1.558594 10.519531.078125.109375 3.632813 4.976562 7.015625 12.511719-30.382812 16.03125-64.59375 26.34375-100.097656 30.015624-1.179687.121094-2.363281.234376-3.546875.339844 37.808594-40.140625 64.46875-83.5625 79.332031-129.308594 11.640625-35.824218 15.976563-72.511718 12.914063-109.171874 9.203125-1.96875 20.363281-6.4375 32.757812-11.417969 5.289063-2.128907 10.828125-4.355469 16.453125-6.472657 9.722657 43.277344 13.855469 86.925782 12.28125 129.871094-.148437 4.09375 3.148438 7.640625 7.242188 7.789063 4.097656.148437 7.640625-3.144531 7.792969-7.238281 1.640624-44.800782-2.75-90.316407-13.03125-135.410157 19.238281-6.082031 37.898437-8.882812 49.617187-.199219 12.667969 9.382813 17.511719 32.273438 14.40625 68.039063zm0 0"/><path d="m89.800781 220.570312c-8.558593 0-15.265625 8.328126-15.265625 18.957032 0 10.632812 6.707032 18.960937 15.265625 18.960937 8.558594 0 15.265625-8.328125 15.265625-18.960937 0-10.628906-6.707031-18.957032-15.265625-18.957032zm0 0"/><path d="m180.773438 258.488281c8.558593 0 15.265624-8.328125 15.265624-18.960937 0-10.628906-6.707031-18.957032-15.265624-18.957032-8.558594 0-15.265626 8.328126-15.265626 18.957032 0 10.632812 6.707032 18.960937 15.265626 18.960937zm0 0"/><path d="m117.882812 265.117188c0-4.171876-3.382812-7.558594-7.558593-7.558594-4 0-7.265625 3.113281-7.53125 7.042968h-.007813c-.160156 1.050782-1.394531 10.5 5.503906 18.546876 5.679688 6.632812 14.808594 9.996093 27.132813 9.996093 12.320313 0 21.453125-3.363281 27.132813-9.996093 6.894531-8.050782 5.664062-17.496094 5.5-18.546876h-.007813c-.265625-3.929687-3.53125-7.042968-7.53125-7.042968-4.171875 0-7.558594 3.386718-7.558594 7.558594 0 .628906.085938 1.234374.230469 1.816406.054688.726562.144531 3.957031-2.160156 6.550781-2.691406 3.019531-8.085938 4.617187-15.605469 4.617187s-12.917969-1.597656-15.605469-4.617187c-2.3125-2.601563-2.214844-5.839844-2.160156-6.558594.144531-.578125.226562-1.183593.226562-1.808593zm0 0"/></svg>