<svg height="512pt" viewBox="0 -10 512.00026 512" width="512pt" xmlns="http://www.w3.org/2000/svg"><g fill="#8c808a"><path d="m176.5625 78.035156 55.421875 109.164063h45.078125c-3.816406-2.203125-45.105469-124.039063-103.253906-151.003907 6.117187 19.527344 2.753906 41.839844 2.753906 41.839844zm0 0"/><path d="m69.316406 91.585938 66.359375-33.488282.3125-27.378906c-42.292969 1.273438-59.386719 15.96875-88.402343-7.121094 0 0-6.835938 47.070313 21.730468 67.988282zm0 0"/><path d="m489.140625 290.71875c1.027344-64.265625-59.785156-83.320312-59.789063-83.320312 20.527344 14.34375 32.15625 37.160156 36.636719 71.054687 2.769531 20.9375 2.414063 50.800781.605469 81.023437 22.496094 11.878907 36.941406 3.738282 36.941406 3.738282s-15.425781-8.226563-14.394531-72.496094zm0 0"/></g><path d="m135.675781 58.097656-117.738281 59.417969c-6.996094 3.53125-10.671875 11.34375-9.015625 19 3.535156 16.320313 13.332031 42.207031 40.152344 46.675781 39.691406 6.613282 75.871093-4.644531 75.871093-4.644531s65.054688 119.496094 65.054688 150.847656v128.605469c0 14.6875 11.902344 26.59375 26.589844 26.59375 14.683594 0 26.589844-11.90625 26.589844-26.59375v-128.605469h124.28125s11.195312 27.429688 38.628906 38.066407v92.417968c0 13.648438 11.0625 24.714844 24.714844 24.714844 11.976562 0 22.222656-8.585938 24.332031-20.378906 6.324219-35.3125 17.449219-135.878906 10.851562-185.761719-8.957031-67.738281-46.464843-91.253906-126.519531-91.253906s-107.484375 0-107.484375 0l-55.421875-109.164063s9.03125-59.886718-29.402344-69.296875c-5.566406-1.363281-10.949218 2.828125-11.015625 8.554688zm0 0" fill="#dd8858"/><path d="m149.5625 78.035156 43.199219 85.089844c7.5 14.769531 22.660156 24.074219 39.222656 24.074219l-55.421875-109.164063s9.019531-59.796875-29.316406-69.277344c-5.597656-1.382812-11.035156 2.769532-11.101563 8.535157l-.003906.292969c19.597656 19.5 13.421875 60.449218 13.421875 60.449218zm0 0" fill="#d97f4a"/><path d="m465.988281 278.449219c-8.953125-67.738281-46.464843-91.25-126.515625-91.25-9.773437 0-18.753906 0-27 0 80.050782 0 117.5625 23.511719 126.515625 91.25 6.597657 49.886719-4.527343 150.453125-10.851562 185.765625-1.238281 6.925781-5.296875 12.726562-10.847657 16.351562 3.882813 2.542969 8.527344 4.027344 13.515626 4.027344 11.980468 0 22.222656-8.589844 24.332031-20.378906 6.324219-35.3125 17.449219-135.878906 10.851562-185.765625zm0 0" fill="#d97f4a"/><path d="m216.183594 458c0 9.757812-5.257813 18.28125-13.09375 22.910156 3.960937 2.335938 8.574218 3.683594 13.5 3.683594 14.6875 0 26.59375-11.90625 26.59375-26.589844v-128.609375c-14.914063 0-27 12.089844-27 27zm0 0" fill="#d97f4a"/><path d="m104.03125 116.054688c0 10.644531 6.714844 18.984374 15.28125 18.984374 8.574219 0 15.285156-8.339843 15.285156-18.984374 0-10.644532-6.710937-18.984376-15.285156-18.984376-8.566406 0-15.28125 8.339844-15.28125 18.984376zm0 0"/><path d="m36.691406 130.382812c-3.976562 1.207032-6.222656 5.414063-5.015625 9.394532l2.175781 7.15625c1.191407 3.925781 5.464844 6.210937 9.394532 5.015625 3.976562-1.207031 6.222656-5.414063 5.015625-9.394531l-2.175781-7.15625c-1.207032-3.980469-5.410157-6.226563-9.394532-5.015626zm0 0"/><path d="m508.640625 357.375c-.902344-.851562-11.894531-12.378906-11.03125-66.355469 1.039063-64.898437-55.125-87.386719-64.171875-90.582031-21.074219-14.324219-50.871094-21.007812-93.628906-21.007812h-58.230469c-1.105469-2.414063-2.621094-5.90625-4.105469-9.335938-5.59375-12.898438-14.957031-34.496094-26.941406-56.679688-1.976562-3.65625-6.542969-5.019531-10.203125-3.046874-3.660156 1.976562-5.023437 6.546874-3.046875 10.207031 11.679688 21.609375 20.523438 42.011719 26.375 55.511719.53125 1.230468 1.023438 2.335937 1.484375 3.34375h-28.628906l-52.511719-103.433594c.480469-4.414063 1.230469-14.191406.125-25.289063 12.527344 9.617188 25.304688 24.453125 38.136719 44.335938 2.226562 3.445312 6.960937 4.46875 10.410156 2.242187 3.496094-2.253906 4.5-6.914062 2.246094-10.410156-18.191407-28.175781-36.78125-47.292969-55.308594-56.898438-5.789063-15.804687-16.355469-25.90625-31.097656-29.515624-10.15625-2.484376-20.261719 5.386718-20.382813 15.820312l-.070312 6.386719c-10.136719.667969-18.726563 1.996093-26.472656 3.195312-20.925782 3.234375-32.457032 5.019531-50.152344-9.058593-4.46875-3.554688-11.320313-.824219-12.140625 4.8125-.273438 1.894531-5.8125 42.320312 16.207031 67.5l-41.914062 21.15625c-10.058594 5.074218-15.414063 16.339843-13.019532 27.390624 6.511719 30.078126 23.003906 48.792969 46.433594 52.699219 31.925781 5.320313 61.324219-.273437 73.625-3.277343 25.769531 47.890624 61.578125 121.738281 61.578125 142.644531v39.636719c0 4.160156 3.371094 7.53125 7.527344 7.53125 4.160156 0 7.53125-3.371094 7.53125-7.53125v-39.636719c0-32.457031-59.453125-142.605469-66.234375-155.058594-1.714844-3.15625-5.421875-4.660156-8.851563-3.589844-.34375.105469-35.046875 10.699219-72.703125 4.425781-21.699218-3.617187-30.570312-24.308593-34.1875-41.03125-.941406-4.347656 1.148438-8.773437 5.082032-10.757812l118.214843-59.660156c2.511719-1.269532 4.105469-3.828125 4.136719-6.636719l.46875-40.96875c.011719-.890625.867188-1.574219 1.738281-1.363281 31.429688 7.695312 23.945313 60.617187 23.867188 61.140625-.234375 1.550781.023437 3.136719.730469 4.53125l55.648437 109.605469c1.285156 2.53125 3.878906 4.121093 6.714844 4.121093h107.917969c78.957031 0 111.363281 23.058594 119.566406 85.078125.542968 4.121094 4.332031 7.027344 8.449218 6.476563 4.125-.542969 7.023438-4.328125 6.480469-8.453125-1.917969-14.492188-5.074219-27.054688-9.578125-37.921875 12.148438 14.070312 18.144532 31.207031 17.824219 51.109375-.597656 37.46875 4.230469 57.476562 9.265625 68.121094-4.214844.066406-9.828125-.707032-16.554688-3.578126.882813-16.214843 1.324219-32.277343 1.0625-46.917968-.074218-4.15625-3.523437-7.4375-7.664062-7.394532-4.15625.074219-7.46875 3.503907-7.394531 7.664063.960937 53.96875-7.820313 127.644531-12.734375 155.09375-1.480469 8.261719-8.636719 14.257813-17.019532 14.257813-9.53125 0-17.285156-7.753907-17.285156-17.285157v-92.789062c0-3.109375-1.910156-5.898438-4.808594-7.023438-24.042968-9.320312-34.4375-33.816406-34.53125-34.046875-1.15625-2.832031-3.914062-4.683594-6.972656-4.683594h-124.78125c-4.15625 0-7.527344 3.371094-7.527344 7.53125v129.128907c0 10.566406-8.601562 19.167969-19.167968 19.167969-10.570313 0-19.167969-8.601563-19.167969-19.167969v-59.367188c0-4.160156-3.375-7.53125-7.53125-7.53125s-7.53125 3.371094-7.53125 7.53125v59.367188c0 18.871093 15.355469 34.226562 34.230469 34.226562s34.230468-15.355469 34.230468-34.226562v-121.597657h112.527344c4.445313 8.394532 15.683594 25.929688 35.976563 35.636719v87.84375c0 17.835938 14.507812 32.347657 32.347656 32.347657 15.683594 0 29.078125-11.214844 31.839844-26.664063 3.246093-18.113281 8.140625-55.992187 10.917969-95.382813 6.390624 2.132813 12.078124 2.875 16.886718 2.875 10.363282 0 16.640625-3.421874 17.074219-3.667968 4.832031-2.722656 5.0625-9.84375.40625-12.871094zm-439.070313-275.359375c-13.207031-12.363281-15.832031-32.617187-15.988281-45.6875 17.480469 9.496094 32.339844 7.199219 50.308594 4.421875 7.105469-1.101562 14.964844-2.304688 23.996094-2.960938l-.171875 14.886719zm0 0"/></svg>