<svg height="512pt" viewBox="0 -35 512.00029 512" width="512pt" xmlns="http://www.w3.org/2000/svg"><path d="m121.015625 340.210938s-72.097656-38.699219-111.898437-57.472657v-77.707031s42.054687-8.296875 61.582031-24.800781c19.527343-16.503907 36.796875-64.570313 76.601562-75.835938v-66.839843s42.808594-1.5 62.335938 53.320312c0 0 130.675781-39.800781 212.535156 4.507812 80.3125 43.472657 125.203125 197.519532 12.6875 330.988282-4.105469 4.875-10.160156 7.691406-16.535156 7.691406h-31.722657c-10.648437 0-19.710937-7.761719-21.34375-18.285156l-9.175781-59.042969s-78.105469 3.003906-144.195312-2.253906l-4.5 59.605469c-.851563 11.269531-10.242188 19.976562-21.542969 19.976562h-31.390625c-10.609375 0-19.652344-7.707031-21.328125-18.1875zm0 0" fill="#ffcb9d"/><path d="m211.488281 356.15625c-14.808593-.714844-27.515625 10.445312-28.632812 25.230469l-2.464844 32.699219c-.851563 11.269531-10.242187 19.976562-21.542969 19.976562h27c11.300782 0 20.691406-8.707031 21.542969-19.976562l4.371094-57.917969c-.089844-.003907-.183594-.007813-.273438-.011719zm0 0" fill="#ffba7e"/><path d="m422.171875 95.382812c-33.3125-18.03125-74.707031-22.132812-112.089844-20.65625 29.488281 1.242188 59.644531 6.882813 85.089844 20.65625 80.3125 43.472657 125.203125 197.519532 12.6875 330.984376-4.105469 4.875-10.160156 7.695312-16.535156 7.695312h27c6.375 0 12.425781-2.820312 16.535156-7.695312 112.515625-133.464844 67.625-287.511719-12.6875-330.984376zm0 0" fill="#ffba7e"/><path d="m486.832031 151.324219c10.351563-9.300781 21.773438-24.101563 24.574219-45.46875 2.605469-19.886719-3.855469-33.21875-9.734375-40.90625-.789063-1.03125-1.621094-2.027344-2.492187-2.992188-.890626-30.492187-23.496094-57.917969-24.609376-59.253906-2.671874-3.191406-7.425781-3.617187-10.625-.949219-3.195312 2.667969-3.625 7.425782-.964843 10.625.195312.234375 14.164062 17.25 19.285156 37.441406-3.082031-1.339843-6.296875-2.363281-9.574219-3.019531-17.203125-3.441406-31.828125 3.742188-35.554687 17.480469-2.925781 10.789062-.277344 21.234375 7.261719 28.660156 8.183593 8.054688 20.640624 11.199219 31.742187 8.003906 8.324219-2.398437 14.890625-8.109374 18.792969-16.117187 1.890625 6.171875 2.324218 12.832031 1.503906 19.066406-1.707031 13.035157-7.574219 24.46875-17.433594 34.085938-14.042968-21.738281-31.925781-39.070313-52.183594-50.039063-14.234374-7.703125-30.769531-13.460937-49.140624-17.109375-4.089844-.8125-8.0625 1.84375-8.871094 5.933594-.8125 4.085937 1.84375 8.058594 5.933594 8.871094 16.882812 3.355469 31.988281 8.597656 44.890624 15.582031 60.609376 32.804688 100.941407 133.390625 60.417969 238.691406-1.398437 3.632813.289063 7.867188 3.816407 9.53125 3.917968 1.851563 8.71875-.070312 10.273437-4.109375 19.902344-51.71875 22.734375-107.363281 7.972656-156.683593-3.972656-13.265626-9.128906-25.78125-15.28125-37.324219zm-3.8125-77.828125c-1.625 6.851562-5.445312 11.328125-11.054687 12.941406-5.765625 1.660156-12.746094-.085938-16.972656-4.25-2.546876-2.507812-5.183594-6.960938-3.285157-13.953125 2.035157-7.5 11.832031-7.867187 18.019531-6.632813 5.6875 1.140626 10.386719 3.410157 14.1875 6.453126-.175781 1.820312-.46875 3.640624-.894531 5.441406zm0 0"/><path d="m52.9375 297.214844c-14.953125-7.644532-27.652344-13.976563-37.84375-18.859375v-67.375c12.875-3.0625 42.839844-11.335938 59.300781-25.25 7.332031-6.199219 14.074219-15.917969 21.214844-26.210938 13.59375-19.589843 29-41.796875 53.054687-48.609375 3.25-.917968 5.492188-3.882812 5.492188-7.261718v-58.917969c11.875 2.367187 35.179688 11.648437 48.074219 47.847656 1.351562 3.796875 5.449219 5.863281 9.308593 4.6875.664063-.203125 67.371094-20.230469 134-15.464844 4.15625.300781 7.769532-2.832031 8.066407-6.992187.296875-4.15625-2.832031-7.769532-6.992188-8.066406-57.5625-4.113282-113.65625 9.070312-132.722656 14.179687-11.109375-26.371094-27.613281-39.085937-39.949219-45.164063-14.757812-7.273437-27.074218-6.929687-27.597656-6.914062-4.0625.140625-7.28125 3.476562-7.28125 7.542969v61.804687c-26.042969 9.746094-42.480469 33.441406-55.859375 52.722656-6.554687 9.449219-12.746094 18.375-18.554687 23.285157-17.910157 15.140625-58.160157 23.242187-58.5625 23.320312-3.535157.699219-6.085938 3.800781-6.085938 7.40625v78.199219c0 2.921875 1.683594 5.578125 4.328125 6.824219 10.6875 5.042969 24.730469 12.007812 41.738281 20.703125 3.667969 1.875 8.285156.378906 10.15625-3.28125 1.898438-3.714844.425782-8.261719-3.285156-10.15625zm0 0"/><path d="m478.175781 363.441406c-3.703125-1.917968-8.257812-.464844-10.171875 3.238282-10.039062 19.410156-22.75 38.296874-37.777344 56.125-2.710937 3.214843-6.675781 5.058593-10.875 5.058593h-31.921874c-7.042969 0-12.941407-5.050781-14.023438-12.011719l-9.230469-59.417968c-.589843-3.785156-3.949219-6.53125-7.75-6.382813-.78125.027344-78.910156 2.945313-144.222656-2.25-4.109375-.324219-7.8125 2.84375-8.125 6.957031l-4.527344 59.984376c-.554687 7.359374-6.773437 13.121093-14.152343 13.121093h-31.589844c-7.011719 0-12.90625-5.023437-14.011719-11.949219l-12.1875-76.140624c-.371094-2.328126-1.808594-4.34375-3.882813-5.460938-.195312-.105469-19.839843-10.644531-43.984374-23.242188-3.695313-1.929687-8.253907-.496093-10.183594 3.199219-1.925782 3.695313-.496094 8.253907 3.199218 10.183594 18.277344 9.535156 33.96875 17.890625 40.539063 21.398437l11.59375 72.449219c2.289063 14.289063 14.449219 24.65625 28.921875 24.65625h31.585938c15.230468 0 28.058593-11.894531 29.207031-27.082031l3.960937-52.464844c53.113282 3.695313 112.117188 2.492188 131.714844 1.9375l8.210938 52.820313c2.230468 14.363281 14.402343 24.789062 28.941406 24.789062h31.921875c8.65625 0 16.828125-3.796875 22.410156-10.425781 15.753906-18.6875 29.09375-38.511719 39.644531-58.921875 1.917969-3.703125.46875-8.253906-3.234375-10.167969zm0 0"/><path d="m107.203125 201.386719c0 10.667969 6.730469 19.027343 15.320313 19.027343 8.589843 0 15.316406-8.359374 15.316406-19.027343s-6.726563-19.027344-15.316406-19.027344c-8.589844 0-15.320313 8.359375-15.320313 19.027344zm0 0"/></svg>