<svg height="512pt" viewBox="0 -32 512.00051 512" width="512pt" xmlns="http://www.w3.org/2000/svg"><path d="m220.167969 7.644531c-77.480469 0-108.652344 55.1875-98.398438 111.101563 11.183594 60.984375 67.238281 54.808594 28.5 100.285156-38.742187 45.476562-85.128906 146.78125 30.316407 199.597656 128.378906 58.734375 383.273437 2.265625 311-217.902344-3.089844-9.410156-14.835938-12.398437-22.210938-5.792968-9.542969 8.550781-22.597656 17.085937-35.253906 15.140625-24.109375-3.707031-66.03125-32.832031-141.46875 7.742187-82.113282 44.164063 11.714844-67.585937 11.714844-123.847656 0-34.898438-22.226563-86.324219-84.199219-86.324219zm0 0" fill="#ffe9c8"/><path d="m180.585938 391.628906c-48.035157-21.976562-68.046876-52.34375-72.257813-83.59375-4.988281 40.089844 10.410156 82.296875 72.257813 110.59375 116.070312 53.101563 335.546874 12.027344 323.152343-159.054687-11.386719 148.308593-213.453125 182.242187-323.152343 132.054687zm0 0" fill="#ffdca7"/><path d="m137.679688 106.648438c1.535156 12.304687 19.984374 9.085937 20.4375 24.527343.453124 15.441407-14.839844 44.867188-78.945313 35.511719-74.839844-10.925781-90.699219-110.679688-48.679687-114.996094 27.632812-2.835937 14.53125 34.066406 50.414062 35.882813 35.878906 1.816406 43.414062-24.707031 55.460938-13.492188 10 9.3125-.050782 21.667969 1.3125 32.566407zm0 0" fill="#ffa812"/><path d="m153.121094 120.828125c-8.546875 13.203125-29.527344 25.339844-73.949219 18.855469-40.847656-5.960938-64.125-38.390625-70.007813-67.316406-7.855468 30.949218 15.335938 86.339843 70.007813 94.316406 64.109375 9.359375 79.398437-20.066406 78.945313-35.507813-.148438-5.046875-2.222657-8.09375-4.996094-10.347656zm0 0" fill="#ff9a00"/><path d="m269.195312 319.34375c-16.289062-8.132812-24.03125-19.171875-24.222656-19.449219-2.308594-3.425781-6.957031-4.339843-10.390625-2.042969-3.449219 2.304688-4.375 6.964844-2.070312 10.410157.378906.570312 9.535156 14.042969 29.113281 24.074219 10.964844 5.617187 26.683594 10.828124 47.28125 10.828124 12.703125 0 27.265625-1.984374 43.695312-7.078124 47.09375-14.597657 70.507813-56.390626 76.308594-76.453126 1.152344-3.980468-1.144531-8.140624-5.125-9.292968-3.976562-1.152344-8.140625 1.140625-9.292968 5.125-5.023438 17.371094-25.355469 53.582031-66.332032 66.285156-30.355468 9.410156-56.925781 8.601562-78.964844-2.40625zm0 0"/><path d="m139.027344 168.894531c1.898437 2.101563 3.757812 4.070313 5.472656 5.875 6.027344 6.339844 10.785156 11.347657 11.550781 16.339844.824219 5.410156-2.957031 12.949219-11.5625 23.050781-4.730469 5.554688-9.308593 11.59375-13.605469 17.949219-2.320312 3.433594-1.417968 8.097656 2.015626 10.417969 3.390624 2.296875 8.132812 1.371094 10.421874-2.011719 3.984376-5.894531 8.222657-11.488281 12.59375-16.621094 26.460938-31.0625 13.347657-44.859375-.535156-59.464843-1.175781-1.238282-2.375-2.503907-3.574218-3.796876 8.925781-7.96875 14.066406-19.082031 13.753906-29.734374-.371094-12.59375-9.039063-17.28125-14.773438-20.386719-4.574218-2.476563-5.539062-3.292969-5.734375-4.867188-.324219-2.601562.5-5.984375 1.378907-9.566406 1.921874-7.875 4.5625-18.660156-5.023438-27.582031-2.570312-2.394532-5.121094-3.746094-7.609375-4.363282 12.914063-31.382812 43.699219-49.121093 86.351563-49.121093 25.507812 0 45.507812 9.140625 59.441406 27.175781 10.835937 14.027344 17.304687 33.355469 17.304687 51.699219 0 20.75-14.9375 52.046875-26.941406 77.195312-15.199219 31.84375-24.375 51.0625-14.3125 60.652344 2.566406 2.445313 5.796875 3.691406 9.964844 3.691406 7.070312 0 16.839843-3.589843 30.625-11.003906 11.34375-6.101563 22.539062-10.894531 33.269531-14.242187 3.957031-1.234376 6.164062-5.441407 4.929688-9.398438-1.234376-3.957031-5.441407-6.167969-9.398438-4.929688-11.644531 3.632813-23.726562 8.796876-35.910156 15.351563-14.226563 7.648437-20.382813 9.03125-22.726563 9.199219.015625-7.058594 10.203125-28.40625 17.101563-42.855469 13.3125-27.894531 28.40625-59.507813 28.40625-83.660156 0-37.738281-24.4375-93.886719-91.757813-93.886719-53.082031 0-91.667969 25.769531-103.910156 69.101562-.421875.269532-.839844.535157-1.246094.796876-7.601562 4.875-17.058593 10.9375-33.816406 10.09375-14.4375-.734376-18.058594-7.847657-22.644531-16.859376-4.488282-8.816406-10.628906-20.890624-28.949219-19.015624-17.753906 1.820312-29.082031 16.9375-29.5625 39.441406-.390625 18.355468 6.652344 39.03125 18.839844 55.304687 10.195312 13.613281 28.730469 30.777344 59.117187 35.210938 7.324219 1.070312 15.5 1.839843 23.871094 1.839843 12.738281 0 25.90625-1.800781 37.183594-7.019531zm-58.886719-9.671875c-25.316406-3.695312-40.769531-18.003906-49.269531-29.355468-10.246094-13.683594-16.171875-30.871094-15.847656-45.988282.148437-6.984375 2.015624-23.386718 16.089843-24.832031.820313-.082031 1.574219-.125 2.273438-.125 5.84375 0 7.714843 3.0625 11.761719 11.019531 5.128906 10.074219 12.148437 23.871094 35.265624 25.039063 21.566407 1.09375 34.273438-7.054688 42.679688-12.449219 2.515625-1.617188 5.964844-3.828125 7.019531-3.828125h.003907c.09375.03125.46875.226563 1.058593.777344 2.75 2.558593 2.613281 5.078125.667969 13.03125-1.101562 4.523437-2.355469 9.652343-1.6875 14.992187v.003906c1.195312 9.550782 8.589844 13.554688 13.480469 16.203126 5.421875 2.933593 6.8125 4.066406 6.914062 7.625.070313 2.355468-.355469 10.628906-8.769531 18.121093-8.253906 7.355469-25.648438 15.015625-61.640625 9.765625zm0 0"/><path d="m101.179688 105.394531c-6.101563 1.496094-12.40625 1.457031-12.542969 1.460938-4.125-.066407-7.539063 3.273437-7.589844 7.414062-.050781 4.144531 3.269531 7.542969 7.414063 7.59375.027343.003907.117187.003907.257812.003907 1.464844 0 8.699219-.097657 16.035156-1.894532 4.023438-.984375 6.488282-5.046875 5.503906-9.074218-.988281-4.023438-5.050781-6.488282-9.078124-5.503907zm0 0"/><path d="m200.40625 85.355469c0 10.609375 6.691406 18.917969 15.230469 18.917969 8.542969 0 15.234375-8.308594 15.234375-18.917969s-6.695313-18.917969-15.234375-18.917969c-8.542969 0-15.230469 8.308594-15.230469 18.917969zm0 0"/><path d="m498.863281 198.371094c-2.226562-6.785156-7.675781-11.941406-14.578125-13.789063-6.988281-1.867187-14.378906-.097656-19.78125 4.742188-7.738281 6.933593-19.082031 14.871093-29.128906 13.324219-4.199219-.644532-9.386719-2.289063-15.398438-4.1875-15.332031-4.84375-36.332031-11.484376-64.039062-8.914063-4.128906.378906-7.164062 4.035156-6.78125 8.164063.382812 4.125 4.027344 7.164062 8.164062 6.78125 24.6875-2.289063 43.234376 3.570312 58.132813 8.28125 6.601563 2.085937 12.300781 3.890624 17.640625 4.710937 12.734375 1.960937 26.664062-3.753906 41.425781-16.980469 2.324219-2.082031 4.886719-1.6875 5.882813-1.421875.957031.257813 3.277344 1.152344 4.199218 3.96875 15.191407 46.273438 16.328126 87.378907 3.375 122.171875-11.367187 30.539063-33.183593 55.5625-64.84375 74.363282-3.5625 2.117187-4.738281 6.722656-2.621093 10.285156 2.089843 3.515625 6.765625 4.710937 10.285156 2.621094 43.242187-25.683594 109.585937-87.652344 68.066406-214.121094zm0 0"/><path d="m397.230469 412.5625c-65.214844 27.320312-153.039063 27.058594-213.570313-.632812-33.230468-15.203126-54.683594-35.574219-63.761718-60.546876-11.378907-31.292968-1.339844-63.96875 9.085937-85.871093 1.777344-3.742188.191406-8.21875-3.550781-10-3.746094-1.78125-8.222656-.195313-10.003906 3.550781-11.65625 24.488281-22.789063 61.273438-9.636719 97.449219 10.503906 28.890625 34.601562 52.128906 71.625 69.066406 30.804687 14.09375 69.746093 22.046875 109.648437 22.394531.953125.007813 1.902344.011719 2.859375.011719 40.3125 0 79.367188-7.441406 113.109375-21.578125 3.820313-1.601562 5.621094-6 4.019532-9.824219-1.601563-3.820312-6-5.621093-9.824219-4.019531zm0 0"/></svg>