<svg height="512pt" viewBox="-27 0 512 512.001" width="512pt" xmlns="http://www.w3.org/2000/svg"><path d="m187.457031 504.292969c-11.445312 0-20.722656-9.277344-20.722656-20.722657v-95.535156h41.441406v95.535156c0 11.445313-9.273437 20.722657-20.71875 20.722657zm0 0" fill="#d8d1d7"/><path d="m270.34375 504.292969c-11.441406 0-20.722656-9.277344-20.722656-20.722657v-95.535156h41.445312v95.535156c.003906 11.445313-9.277344 20.722657-20.722656 20.722657zm0 0" fill="#d8d1d7"/><g fill="#e6e2e6"><path d="m228.902344 504.292969c-11.445313 0-20.726563-9.277344-20.726563-20.722657v-95.535156h41.445313v95.535156c.003906 11.445313-9.277344 20.722657-20.71875 20.722657zm0 0"/><path d="m165.636719 388.035156c-13.417969 0-25.304688-5.636718-33.695313-14.511718-1.082031 6.660156-2.738281 14.195312-5.28125 21.628906-5.179687 15.117187-14.917968 35.21875-39.59375 35.289062-.054687 0-.105468 0-.15625 0-12.308594 0-22.925781-4.101562-30.710937-11.863281-7.511719-7.492187-11.652344-17.707031-11.652344-28.761719 0-10.179687-8.25-18.433594-18.429687-18.433594-10.179688 0-18.433594 8.253907-18.433594 18.433594 0 20.917969 7.984375 40.40625 22.484375 54.863282 14.636719 14.59375 34.78125 22.625 56.746093 22.625h.253907c19.933593-.058594 37.664062-7.328126 51.273437-21.027344 13.511719-13.601563 23.007813-33.199219 28.273438-58.242188zm0 0"/><path d="m292.164062 388.035156c13.417969 0 25.304688-5.636718 33.699219-14.511718 1.078125 6.660156 2.734375 14.195312 5.277344 21.628906 5.179687 15.117187 14.917969 35.21875 39.597656 35.289062h.152344c12.308594 0 22.925781-4.101562 30.710937-11.863281 7.515626-7.492187 11.652344-17.707031 11.652344-28.761719 0-10.179687 8.25-18.433594 18.429688-18.433594 10.183594 0 18.433594 8.253907 18.433594 18.433594 0 20.917969-7.984376 40.40625-22.484376 54.863282-14.636718 14.59375-34.78125 22.625-56.746093 22.625-.082031 0-.167969 0-.25 0-19.9375-.058594-37.667969-7.328126-51.277344-21.027344-13.507813-13.601563-23.007813-33.199219-28.273437-58.242188zm0 0"/></g><path d="m312.160156 194.554688h-166.519531l-25.640625 138.628906c-5.277344 28.53125 16.621094 54.851562 45.636719 54.851562h126.527343c29.015626 0 50.914063-26.320312 45.636719-54.851562zm0 0" fill="#cac0c9"/><path d="m166.714844 388.035156h-1.078125c-13.417969 0-25.304688-5.636718-33.695313-14.511718-1.039062 6.394531-2.613281 13.597656-4.992187 20.738281 7.058593 10.628906 18.414062 18.273437 31.800781 20.253906 3.273438-8 5.9375-16.832031 7.964844-26.480469zm0 0" fill="#d8d1d7"/><path d="m166.734375 388.035156h41.441406v27h-41.441406zm0 0" fill="#cac0c9"/><path d="m208.179688 415.035156h41.445312v-27h-41.445312zm0 0" fill="#d8d1d7"/><path d="m249.625 388.035156h41.445312v27h-41.445312zm0 0" fill="#cac0c9"/><path d="m330.851562 394.265625c-2.378906-7.144531-3.953124-14.347656-4.988281-20.742187-8.394531 8.875-20.28125 14.511718-33.699219 14.511718h-1.078124c2.027343 9.648438 4.691406 18.480469 7.964843 26.480469 13.386719-1.980469 24.742188-9.625 31.800781-20.25zm0 0" fill="#d8d1d7"/><path d="m228.902344 194.554688h95.546875c18.757812 0 29.929687-20.925782 19.492187-36.511719l-92.6875-138.402344c-10.65625-15.910156-34.050781-15.910156-44.707031 0l-92.6875 138.402344c-10.4375 15.585937.734375 36.511719 19.492187 36.511719zm0 0" fill="#e6e2e6"/><path d="m343.636719 157.589844c-4.117188 5.890625-10.914063 9.964844-19.1875 9.964844h-191.097657c-8.273437 0-15.070312-4.074219-19.1875-9.964844l-.304687.453125c-10.4375 15.585937.734375 36.511719 19.492187 36.511719h191.097657c18.757812 0 29.929687-20.925782 19.492187-36.511719zm0 0" fill="#d8d1d7"/><path d="m317.152344 221.554688-4.992188-27h-166.519531l-4.992187 27zm0 0" fill="#bbb0ba"/><path d="m431.847656 363.972656c-14.308594 0-25.953125 11.640625-25.953125 25.953125 0 9.054688-3.355469 17.390625-9.453125 23.46875-.78125.78125-1.613281 1.527344-2.46875 2.214844-3.222656 2.601563-3.730468 7.328125-1.125 10.554687 2.601563 3.226563 7.328125 3.730469 10.554688 1.128907 1.261718-1.019531 2.488281-2.117188 3.640625-3.269531 8.941406-8.914063 13.863281-21.027344 13.863281-34.097657 0-6.03125 4.910156-10.941406 10.941406-10.941406s10.941406 4.910156 10.941406 10.941406c0 18.929688-7.210937 36.542969-20.296874 49.59375-13.226563 13.1875-31.511719 20.453125-51.492188 20.453125h-.234375c-17.914063-.050781-33.824219-6.5625-46.011719-18.828125-10.945312-11.019531-19.09375-26.515625-24.28125-46.136719 7.363282-1.136718 14.363282-3.773437 20.597656-7.726562.902344 3.628906 1.917969 7.113281 3.050782 10.417969 3.414062 9.964843 13.804687 40.300781 46.769531 40.390625h.113281c4.140625 0 7.421875-3.351563 7.425782-7.496094.007812-4.140625-3.417969-7.503906-7.5625-7.515625-15.355469-.042969-25.394532-9.371094-32.542969-30.246094-1.773438-5.167969-3.234375-10.863281-4.371094-16.964843 10.085937-12.3125 14.210937-28.316407 11.3125-43.984376l-24.019531-129.871093h3.277344c11.460937 0 21.933593-6.28125 27.332031-16.390625 5.398437-10.109375 4.792969-22.308594-1.585938-31.832032l-92.761719-138.515624c-6.402343-9.5625-17.097656-15.273438-28.605468-15.273438-11.511719 0-22.207032 5.710938-28.609375 15.273438l-92.761719 138.511718c-6.378906 9.527344-6.988281 21.722656-1.589844 31.832032 5.398438 10.113281 15.871094 16.394531 27.332032 16.394531h3.277343l-24.019531 129.871093c-2.898438 15.667969 1.230469 31.667969 11.316406 43.984376-1.136718 6.101562-2.601562 11.796874-4.375 16.964843-7.148437 20.875-17.183594 30.203125-32.523437 30.246094h-.152344c-10.289063 0-19.085937-3.347656-25.4375-9.683594-6.097656-6.078125-9.453125-14.414062-9.453125-23.46875 0-14.308593-11.644531-25.953125-25.953125-25.953125-14.3125 0-25.953125 11.640625-25.953125 25.953125 0 22.945313 8.777344 44.335938 24.707031 60.222657 16.058594 16.015624 38.113281 24.835937 62.09375 24.835937h.273438c21.984375-.0625 41.5625-8.105469 56.621093-23.261719 5.878907-5.921875 11.039063-12.878906 15.480469-20.800781v10.28125c0 4.144531 3.359375 7.507813 7.503907 7.507813 4.148437 0 7.507812-3.363282 7.507812-7.507813v-45.554687h26.46875v88.105468c0 7.296875-5.9375 13.234375-13.234375 13.234375s-13.234375-5.9375-13.234375-13.234375v-12.527344c0-4.144531-3.359375-7.507812-7.503906-7.507812-4.148438 0-7.507813 3.363281-7.507813 7.507812v12.527344c0 15.574219 12.671875 28.246094 28.246094 28.246094 8.191406 0 15.574219-3.507812 20.738281-9.09375 5.164063 5.585938 12.550782 9.09375 20.742188 9.09375 8.1875 0 15.574218-3.507812 20.738281-9.097656 5.164063 5.589844 12.546875 9.097656 20.738281 9.097656 15.574219 0 28.246094-12.671875 28.246094-28.246094v-52.832031c4.441406 7.921875 9.597656 14.878906 15.480469 20.800781 15.054687 15.15625 34.636719 23.199219 56.644531 23.257813h.25c23.980469 0 46.035156-8.820313 62.09375-24.832031 15.933594-15.890626 24.707031-37.277344 24.707031-60.222657 0-14.3125-11.640625-25.953125-25.953125-25.953125zm-304.554687-29.363281 24.527343-132.597656h100.839844c4.148438 0 7.507813-3.359375 7.507813-7.503907 0-4.148437-3.359375-7.507812-7.507813-7.507812h-119.386718c-5.996094 0-11.265626-3.160156-14.089844-8.449219-2.824219-5.292969-2.515625-11.425781.820312-16.410156l92.761719-138.515625c3.664063-5.472656 9.546875-8.613281 16.136719-8.613281 6.585937 0 12.46875 3.140625 16.136718 8.613281l92.761719 138.515625c3.335938 4.984375 3.640625 11.117187.816407 16.410156-2.824219 5.289063-8.089844 8.449219-14.089844 8.449219h-41.839844c-4.144531 0-7.507812 3.359375-7.507812 7.503906 0 4.144532 3.363281 7.507813 7.507812 7.507813h23.296875l24.523437 132.597656c2.113282 11.410156-.933593 23.070313-8.355468 31.992187-7.421875 8.917969-18.332032 14.035157-29.9375 14.035157h-126.628906c-11.601563 0-22.511719-5.117188-29.933594-14.035157-7.425782-8.917968-10.472656-20.578124-8.359375-31.992187zm5.75 106.53125c-12.183594 12.269531-28.097657 18.777344-45.992188 18.828125h-.25c-19.980469 0-38.265625-7.261719-51.492187-20.453125-13.089844-13.050781-20.296875-30.664063-20.296875-49.589844 0-6.035156 4.910156-10.941406 10.941406-10.941406s10.9375 4.90625 10.9375 10.941406c0 13.070313 4.925781 25.179688 13.867187 34.097657 9.226563 9.199218 21.6875 14.0625 36.035157 14.0625h.175781c32.902344-.089844 43.292969-30.421876 46.707031-40.390626 1.132813-3.304687 2.148438-6.789062 3.050781-10.417968 6.234376 3.953125 13.234376 6.589844 20.601563 7.726562-5.191406 19.625-13.339844 35.117188-24.285156 46.136719zm95.859375 55.847656c-7.300782 0-13.234375-5.9375-13.234375-13.234375v-88.105468h26.464843v88.105468c0 7.296875-5.933593 13.234375-13.230468 13.234375zm54.710937-13.234375c0 7.296875-5.9375 13.234375-13.234375 13.234375s-13.230468-5.9375-13.230468-13.234375v-88.105468h26.464843zm0 0"/><path d="m187.421875 355.199219c8.542969 0 15.234375-8.3125 15.234375-18.925781 0-10.609376-6.691406-18.921876-15.234375-18.921876s-15.234375 8.3125-15.234375 18.921876c0 10.613281 6.691406 18.925781 15.234375 18.925781zm0 0"/><path d="m270.378906 355.199219c8.542969 0 15.234375-8.3125 15.234375-18.925781 0-10.609376-6.691406-18.921876-15.234375-18.921876-8.542968 0-15.234375 8.3125-15.234375 18.921876 0 10.613281 6.691407 18.925781 15.234375 18.925781zm0 0"/></svg>