<svg height="512pt" viewBox="-57 0 512 512.001" width="512pt" xmlns="http://www.w3.org/2000/svg"><path d="m345.34375 113.941406c-12.167969-23.558594-25.621094-42.398437-39.300781-57.464844-1.242188-1.371093-2.515625-2.699218-3.796875-4.011718 3.859375-7.710938 9.339844-14.585938 15.875-19.480469 19.550781-14.640625 47.269531-10.65625 61.90625 8.894531 14.636718 19.550782 10.65625 47.265625-8.894532 61.90625-7.210937 5.394532-16.367187 8.875-25.789062 10.15625zm0 0" fill="#8c808a"/><path d="m345.34375 113.941406c-4.03125-7.804687-8.207031-15.074218-12.480469-21.878906 8.265625-1.574219 16.179688-4.816406 22.558594-9.589844 15.765625-11.804687 21.398437-32.113281 15.316406-49.789062 3.449219 2.527344 6.59375 5.59375 9.289063 9.195312 14.636718 19.550782 10.65625 47.265625-8.898438 61.90625-7.207031 5.394532-16.363281 8.875-25.785156 10.15625zm0 0" fill="#7b7179"/><path d="m330.460938 277.25h-.03125c-29.417969 16.980469-73.78125 25.105469-131.636719 25.105469-57.851563 0-102.214844-8.125-131.632813-25.105469h-.03125s-42.03125 79.203125-42.03125 151.144531c0 74.523438 173.699219 74.523438 173.699219 74.523438s173.695313 0 173.695313-74.523438c0-71.941406-42.03125-151.144531-42.03125-151.144531zm0 0" fill="#e6e2e6"/><path d="m198.792969 475.914062s-159.8125 0-172.847657-65.773437c-.546874 6.101563-.847656 12.203125-.847656 18.253906 0 74.519531 173.695313 74.519531 173.695313 74.519531s173.699219 0 173.699219-74.519531c0-6.050781-.300782-12.152343-.847657-18.253906-13.035156 65.773437-172.851562 65.773437-172.851562 65.773437zm0 0" fill="#d8d1d7"/><path d="m198.792969 302.355469c-57.828125 0-102.179688-8.121094-131.597657-25.085938-.609374 64.347657 2.117188 225.644531 44.75 225.644531 53.257813 0 51.917969-154.132812 51.917969-154.132812h69.863281s-1.34375 154.132812 51.917969 154.132812c42.632813 0 45.355469-161.296874 44.75-225.644531-29.417969 16.964844-73.773437 25.085938-131.601562 25.085938zm0 0" fill="#8c808a"/><path d="m198.792969 302.355469c-57.828125 0-102.179688-8.121094-131.597657-25.085938-.074218 7.742188-.097656 16.890625-.011718 26.992188 29.417968 16.972656 73.773437 25.09375 131.609375 25.09375 57.835937 0 102.195312-8.121094 131.613281-25.09375.085938-10.101563.058594-19.25-.011719-26.992188-29.417969 16.964844-73.773437 25.085938-131.601562 25.085938zm0 0" fill="#7b7179"/><path d="m52.246094 113.941406c12.164062-23.558594 25.621094-42.398437 39.300781-57.464844 1.242187-1.371093 2.515625-2.699218 3.796875-4.011718-3.859375-7.710938-9.339844-14.585938-15.878906-19.480469-19.550782-14.640625-47.265625-10.65625-61.902344 8.894531-14.640625 19.550782-10.65625 47.265625 8.894531 61.90625 7.210938 5.394532 16.367188 8.875 25.789063 10.15625zm0 0" fill="#8c808a"/><path d="m52.246094 113.941406c4.027344-7.804687 8.203125-15.074218 12.480468-21.878906-8.265624-1.574219-16.179687-4.816406-22.558593-9.589844-15.765625-11.804687-21.398438-32.113281-15.316407-49.789062-3.449218 2.527344-6.59375 5.59375-9.289062 9.195312-14.636719 19.550782-10.65625 47.269532 8.894531 61.90625 7.210938 5.394532 16.367188 8.875 25.789063 10.15625zm0 0" fill="#7b7179"/><path d="m198.792969 302.355469c150.546875 0 209.886719-54.945313 151.644531-178.109375-13.449219-28.445313-28.777344-50.570313-44.394531-67.769532-57.367188-63.191406-157.128907-63.191406-214.496094 0-15.617187 17.199219-30.945313 39.324219-44.394531 67.769532-58.242188 123.164062 1.097656 178.109375 151.640625 178.109375zm0 0" fill="#e6e2e6"/><path d="m198.792969 275.355469c-104.585938 0-165.132813-26.53125-172.835938-84.019531-8.96875 76.238281 53.066407 111.019531 172.835938 111.019531 119.773437 0 181.808593-34.78125 172.839843-111.019531-7.703124 57.488281-68.25 84.019531-172.839843 84.019531zm0 0" fill="#d8d1d7"/><path d="m144.566406 148.722656c0-22.957031-17.746094-36.699218-40.226562-31.050781-22.265625 5.589844-45.730469 36.492187-45.730469 59.449219 0 22.957031 26.625 33.574218 46.03125 25.785156 21.875-8.785156 39.925781-31.226562 39.925781-54.183594zm0 0" fill="#8c808a"/><path d="m253.023438 148.722656c0-22.957031 17.746093-36.699218 40.222656-31.050781 22.265625 5.589844 45.734375 36.492187 45.734375 59.449219 0 22.957031-26.625 33.574218-46.03125 25.785156-21.875-8.785156-39.925781-31.226562-39.925781-54.183594zm0 0" fill="#8c808a"/><path d="m387.195312 36.023438c-8.332031-11.128907-20.496093-18.34375-34.257812-20.324219-13.761719-1.976563-27.46875 1.523437-38.597656 9.855469-4.902344 3.671874-9.3125 8.320312-13.054688 13.664062-27.949218-25.082031-64.515625-39.21875-102.492187-39.21875-37.972657 0-74.539063 14.136719-102.488281 39.21875-3.742188-5.34375-8.152344-9.992188-13.058594-13.664062-11.125-8.332032-24.832032-11.832032-38.59375-9.855469-13.761719 1.980469-25.925782 9.195312-34.257813 20.324219-8.332031 11.128906-11.832031 24.835937-9.855469 38.59375 1.980469 13.761718 9.195313 25.929687 20.324219 34.261718 5.539063 4.144532 12.210938 7.398438 19.394531 9.507813-.289062.605469-.585937 1.203125-.875 1.8125-26.699218 56.472656-30.007812 101.261719-9.824218 133.128906 6.527344 10.308594 15.546875 19.246094 26.925781 26.785156-4.425781 9.070313-12.8125 27.285157-20.828125 50.367188-1.277344 3.679687.550781 7.855469 4.128906 9.402343 3.976563 1.71875 8.707032-.359374 10.128906-4.449218 3.003907-8.652344 6.085938-16.632813 8.980469-23.675782.351563 26.550782 1.488281 57.371094 4.289063 86.84375 3.265625 34.335938 8.148437 60.507813 14.769531 79-30.792969-11.773437-46.390625-27.921874-46.390625-48.132812 0-19.582031 3.238281-41.667969 9.621094-65.648438 1.070312-4.027343-1.324219-8.164062-5.355469-9.234374-4.023437-1.070313-8.160156 1.324218-9.234375 5.351562-6.71875 25.246094-10.125 48.640625-10.125 69.53125 0 17.160156 7.804688 32.058594 23.191406 44.289062 11.511719 9.144532 27.460938 16.832032 47.417969 22.878907 5.550781 8.378906 13.804687 15.363281 24.328125 15.363281 6.796875 0 13.121094-1.9375 18.890625-5.761719 36.203125 5.691407 67.164063 5.761719 68.496094 5.761719 1.335937 0 32.296875-.070312 68.496093-5.761719 5.773438 3.820313 12.097657 5.761719 18.894532 5.761719 10.523437 0 18.777344-6.984375 24.328125-15.363281 19.957031-6.046875 35.90625-13.734375 47.417969-22.878907 15.386718-12.230468 23.191406-27.128906 23.191406-44.289062 0-6.109375-.296875-12.515625-.878906-19.039062-.371094-4.152344-4.042969-7.191407-8.1875-6.84375-4.152344.371093-7.214844 4.035156-6.84375 8.1875.542968 6.078124.816406 12.03125.816406 17.695312 0 20.210938-15.597656 36.359375-46.390625 48.132812 6.621093-18.492187 11.507812-44.664062 14.769531-79.003906 2.800781-29.460937 3.9375-60.269531 4.292969-86.816406 7.65625 18.664062 16.664062 44.003906 22.171875 70.945312.84375 4.136719 5.078125 6.816407 9.183594 5.816407 3.890624-.945313 6.40625-4.921875 5.605468-8.84375-9.179687-44.894531-27.210937-84.582031-34.539062-99.566407 8.816406-5.832031 16.195312-12.507812 22.089844-19.996093 17.8125-22.621094 22.351562-52.695313 13.496093-89.386719-.980469-4.050781-5.054687-6.539062-9.109375-5.566406-4.050781.980468-6.542968 5.054687-5.566406 9.105468 7.71875 31.96875 4.125 57.710938-10.675781 76.511719-23.140625 29.390625-74.46875 44.292969-152.558594 44.292969-82.890625 0-135.542969-16.769531-156.488281-49.84375-17.230469-27.210938-13.625-67.113281 10.722656-118.601562 12.117188-25.621094 26.730469-47.945313 43.4375-66.34375 26.082031-28.734376 63.382812-45.210938 102.324219-45.210938 38.945312 0 76.242187 16.476562 102.332031 45.210938 16.707031 18.402343 31.320312 40.722656 43.433594 66.34375 3.203125 6.769531 6.089844 13.4375 8.578125 19.8125 1.515625 3.882812 5.886719 5.804687 9.773437 4.285156 3.882813-1.515625 5.800782-5.890625 4.285156-9.773438-2.617187-6.703125-5.640624-13.691406-8.992187-20.773437-.285156-.609375-.582031-1.207031-.875-1.8125 7.183594-2.109375 13.859375-5.363281 19.398437-9.507813 11.128907-8.332031 18.34375-20.5 20.324219-34.261718 1.976563-13.757813-1.523437-27.464844-9.855469-38.59375zm-188.402343 274.164062c40.53125 0 74.703125-3.988281 101.570312-11.859375 8.433594-2.46875 16.222657-5.355469 23.371094-8.628906.222656 108.671875-10.667969 184.238281-29.472656 203.222656-2.65625 2.679687-5.296875 3.984375-8.078125 3.984375-5.460938 0-10.339844-2.246094-14.921875-6.867188-25.183594-25.398437-30.03125-110.117187-29.769531-140.617187.035156-4.164063-3.316407-7.574219-7.484376-7.609375-.023437 0-.042968 0-.066406 0-4.136718 0-7.507812 3.335938-7.542968 7.480469-.039063 4.425781-.535157 102.214843 27.789062 143.582031-30.347656 3.96875-55.109375 4.03125-55.394531 4.03125-.28125 0-25.007813-.054688-55.390625-4.03125 28.324218-41.367188 27.828125-139.160156 27.789062-143.582031-.035156-4.148438-3.40625-7.480469-7.542968-7.480469-.023438 0-.046876 0-.070313 0-4.164063.035156-7.515625 3.441406-7.480469 7.613281.265625 30.488281-4.5625 115.1875-29.765625 140.609375-4.585937 4.625-9.464843 6.871094-14.925781 6.871094-2.78125 0-5.421875-1.304688-8.078125-3.984375-18.804687-18.984375-29.699219-94.554687-29.472656-203.226563 5.699219 2.609376 11.785156 4.980469 18.304687 7.078126 27.65625 8.902343 63.535156 13.414062 106.632813 13.414062zm-151.53125-205.570312c-6.511719-1.535157-12.546875-4.226563-17.351563-7.820313-7.902344-5.917969-13.027344-14.554687-14.429687-24.324219-1.40625-9.769531 1.082031-19.503906 6.996093-27.402344 5.914063-7.902343 14.550782-13.027343 24.320313-14.429687 9.769531-1.40625 19.503906 1.078125 27.402344 6.996094 4.269531 3.195312 8.078125 7.4375 11.195312 12.410156-.035156.039063-.070312.074219-.105469.113281-14.207031 15.648438-26.953124 33.917969-38.027343 54.457032zm334.847656-32.144532c-1.402344 9.769532-6.527344 18.40625-14.429687 24.324219-4.804688 3.59375-10.839844 6.285156-17.351563 7.820313-11.074219-20.539063-23.820313-38.808594-38.027344-54.457032-.035156-.039062-.070312-.074218-.105469-.109375 3.117188-4.976562 6.921876-9.214843 11.191407-12.414062 7.902343-5.917969 17.632812-8.394531 27.402343-6.996094 9.773438 1.40625 18.410157 6.53125 24.324219 14.429687 5.914063 7.898438 8.398438 17.632813 6.996094 27.402344zm0 0"/><path d="m101.914062 109.488281c-25.621093 6.433594-51.722656 40.320313-51.722656 67.144531 0 11.742188 5.480469 21.921876 15.4375 28.652344 11.875 8.027344 27.960938 9.621094 41.238282 4.292969 26.019531-10.445313 44.90625-36.320313 44.90625-61.523437 0-13.5-5.171876-24.964844-14.5625-32.289063-9.46875-7.386719-22-9.613281-35.296876-6.277344zm-.671874 86.082031c-8.644532 3.472657-19.558594 2.351563-27.15625-2.789062-4.015626-2.714844-8.800782-7.722656-8.800782-16.152344 0-19.804687 21.472656-47.773437 40.308594-52.503906 7.539062-1.894531 16.015625-1.390625 22.335938 3.539062 5.644531 4.402344 8.753906 11.640626 8.753906 20.390626-.003906 18.976562-15.238282 39.40625-35.441406 47.515624zm0 0"/><path d="m104.042969 141.304688c-8.589844 0-15.316407 8.355468-15.316407 19.023437s6.726563 19.023437 15.316407 19.023437c8.589843 0 15.316406-8.355468 15.316406-19.023437s-6.726563-19.023437-15.316406-19.023437zm0 0"/><path d="m295.671875 109.488281c-13.292969-3.339843-25.824219-1.105469-35.292969 6.277344-9.390625 7.324219-14.5625 18.789063-14.5625 32.289063 0 25.203124 18.886719 51.078124 44.910156 61.523437 13.269532 5.328125 29.363282 3.734375 41.234376-4.292969 9.957031-6.730468 15.441406-16.90625 15.441406-28.652344-.003906-26.824218-26.109375-60.710937-51.730469-67.144531zm27.832031 83.292969c-7.597656 5.140625-18.511718 6.257812-27.15625 2.789062-20.203125-8.109374-35.4375-28.535156-35.4375-47.515624 0-8.746094 3.105469-15.988282 8.75-20.390626 6.320313-4.929687 14.792969-5.433593 22.335938-3.535156 18.835937 4.730469 40.308594 32.699219 40.308594 52.503906.003906 8.429688-4.785157 13.433594-8.800782 16.148438zm0 0"/><path d="m293.546875 141.304688c-8.589844 0-15.316406 8.355468-15.316406 19.023437s6.726562 19.023437 15.316406 19.023437c8.585937 0 15.316406-8.355468 15.316406-19.023437s-6.726562-19.023437-15.316406-19.023437zm0 0"/><path d="m178.402344 208.542969c-2.550782.710937-5.78125-.753907-9.59375-4.328125-3.042969-2.851563-7.816406-2.695313-10.667969.34375-2.851563 3.039062-2.695313 7.816406.34375 10.667968 9.851563 9.234376 18.445313 9.375 23.921875 7.871094 7.210938-1.988281 12.59375-7.765625 16.386719-13.730468 3.796875 5.964843 9.179687 11.742187 16.390625 13.730468 8.902344 2.449219 17.519531-1.871094 23.921875-7.871094 3.039062-2.851562 3.195312-7.628906.34375-10.667968-2.851563-3.039063-7.625-3.195313-10.667969-.34375-3.8125 3.570312-7.039062 5.027344-9.585938 4.332031-4.066406-1.113281-8.144531-7.300781-10.832031-13.253906 8.035157-2.925781 14.027344-9.242188 14.027344-16.007813 0-2.652344-1.023437-9.058594-10.507813-11.304687-3.144531-.746094-7.054687-1.0625-13.089843-1.0625-6.03125 0-9.945313.316406-13.089844 1.0625-9.484375 2.246093-10.507813 8.652343-10.507813 11.304687 0 6.765625 5.992188 13.082032 14.023438 16.007813-2.519531 5.597656-6.5 12.0625-10.816406 13.25zm0 0"/></svg>