<svg height="512pt" viewBox="-18 0 512 512.001" width="512pt" xmlns="http://www.w3.org/2000/svg"><path d="m368.769531 256.171875c-35.085937 25.023437-90.054687 29.0625-130.664062 29.0625-40.613281 0-95.578125-4.039063-130.664063-29.0625-21.253906 38.242187-52.710937 104.578125-46.601562 153.011719 9.082031 72.003906 94.398437 74.601562 177.265625 74.601562 82.867187 0 168.179687-2.597656 177.261719-74.601562 6.109374-48.433594-25.347657-114.769532-46.597657-153.011719zm0 0" fill="#e6e2e6"/><g fill="#d8d1d7"><path d="m238.105469 456.785156c-82.828125 0-168.097657-2.59375-177.25-74.496094-.984375 9.347657-1.085938 18.398438-.015625 26.894532 9.082031 72.003906 94.398437 74.601562 177.265625 74.601562 82.867187 0 168.179687-2.597656 177.261719-74.601562 1.070312-8.496094.96875-17.546875-.015626-26.894532-9.152343 71.902344-94.421874 74.496094-177.246093 74.496094zm0 0"/><path d="m468.140625 133.03125c.316406-28.066406-24.832031-44.183594-24.832031-44.183594 5.6875-39.203125-24.863282-69.957031-66.433594-66.925781-19.171875 1.394531-32.9375 11.1875-42.152344 21.199219 41.078125 32.871094 68.355469 85.625 68.351563 144.011718 0 15.714844-3.222657 28.933594-8.863281 40.066407 13.464843 5.632812 28.429687 8.03125 42.476562 1.929687 35.648438-15.488281 14.894531-54.933594 14.894531-54.933594s16.25-14.144531 16.558594-41.164062zm0 0"/><path d="m73.132812 187.132812c-.003906-58.390624 27.273438-111.140624 68.351563-144.011718-9.214844-10.011719-22.980469-19.804688-42.152344-21.199219-41.570312-3.03125-72.121093 27.722656-66.433593 66.925781 0 0-25.148438 16.117188-24.832032 44.183594.308594 27.019531 16.558594 41.167969 16.558594 41.167969s-20.753906 39.445312 14.894531 54.929687c14.046875 6.101563 29.011719 3.703125 42.476563-1.929687-5.636719-11.132813-8.863282-24.351563-8.863282-40.066407zm0 0"/></g><path d="m436.6875 202.128906c-11.429688 4.964844-23.464844 4.300782-34.808594.847656-1.414062 9.011719-4.035156 17.054688-7.667968 24.222657 13.464843 5.632812 28.429687 8.03125 42.476562 1.929687 24.347656-10.578125 22.386719-32.328125 18.695312-45.058594-2.722656 7.007813-8.3125 13.550782-18.695312 18.058594zm0 0" fill="#cac0c9"/><path d="m39.519531 202.128906c-10.378906-4.507812-15.972656-11.050781-18.695312-18.058594-3.6875 12.730469-5.652344 34.480469 18.695312 45.058594 14.046875 6.101563 29.011719 3.703125 42.476563-1.929687-3.632813-7.167969-6.253906-15.210938-7.667969-24.222657-11.339844 3.453126-23.378906 4.117188-34.808594-.847656zm0 0" fill="#cac0c9"/><path d="m238.105469 8.105469c89.191406 0 164.976562 81.695312 164.96875 179.027343-.007813 87.964844-100.554688 98.101563-164.96875 98.101563-64.417969 0-164.964844-10.140625-164.972657-98.101563-.007812-97.332031 75.78125-179.027343 164.972657-179.027343zm0 0" fill="#e6e2e6"/><path d="m378.753906 274.925781c-3.449218-6.765625-6.832031-13.074219-9.984375-18.753906-35.085937 25.023437-90.054687 29.0625-130.664062 29.0625-40.613281 0-95.578125-4.039063-130.664063-29.0625-3.15625 5.679687-6.539062 11.988281-9.988281 18.753906 33.820313 32.414063 95.9375 37.308594 140.652344 37.308594 44.714843 0 106.828125-4.894531 140.648437-37.308594zm0 0" fill="#d8d1d7"/><path d="m123.808594 369.46875s3.117187 134.375 44.714844 134.425781c36.859374.042969 43.832031-123.621093 43.832031-123.621093" fill="#e6e2e6"/><path d="m352.398438 369.46875s-3.117188 134.375-44.714844 134.425781c-36.859375.042969-43.832032-123.621093-43.832032-123.621093" fill="#e6e2e6"/><path d="m168.644531 467.78125c-18.53125-.023438-31.027343-12.089844-39.445312-39.398438 5.574219 36.121094 16.816406 75.484376 39.324219 75.511719 21.808593.023438 33.152343-43.253906 38.785156-78.605469-8.40625 28.4375-20.746094 42.511719-38.664063 42.492188zm0 0" fill="#d8d1d7"/><path d="m307.566406 467.78125c18.527344-.023438 31.023438-12.089844 39.445313-39.398438-5.578125 36.121094-16.816407 75.484376-39.328125 75.511719-21.808594.023438-33.152344-43.253906-38.78125-78.605469 8.402344 28.4375 20.742187 42.511719 38.664062 42.492188zm0 0" fill="#d8d1d7"/><path d="m154.652344 110.351562c-8.554688 0-15.257813 8.324219-15.257813 18.953126 0 10.628906 6.703125 18.953124 15.257813 18.953124 8.554687 0 15.257812-8.324218 15.257812-18.953124 0-10.625-6.703125-18.953126-15.257812-18.953126zm0 0"/><path d="m306.296875 129.304688c0 10.628906 6.703125 18.953124 15.257813 18.953124 8.558593 0 15.257812-8.324218 15.257812-18.953124 0-10.628907-6.699219-18.953126-15.257812-18.953126-8.554688 0-15.257813 8.328126-15.257813 18.953126zm0 0"/><path d="m216.125 217.710938c-2.410156.660156-5.480469-.738282-9.128906-4.15625-3.027344-2.839844-7.785156-2.6875-10.625.339843-2.839844 3.03125-2.6875 7.789063.34375 10.628907 9.625 9.023437 18.039062 9.15625 23.398437 7.683593 6.953125-1.914062 12.160157-7.425781 15.855469-13.15625 3.695312 5.730469 8.902344 11.242188 15.851562 13.15625 8.714844 2.394531 17.132813-1.808593 23.402344-7.683593 3.027344-2.839844 3.183594-7.597657.34375-10.628907-2.839844-3.027343-7.597656-3.179687-10.628906-.339843-3.640625 3.414062-6.710938 4.8125-9.117188 4.15625-3.144531-.859376-6.300781-4.914063-8.761718-9.464844 5.199218-.53125 10.386718-1.835938 14.988281-5.054688 8.699219-6.085937 12.925781-17.417968 12.925781-34.652344 0-16.863281-3.769531-34.226562-10.34375-47.628906-7.53125-15.347656-17.707031-23.800781-28.660156-23.800781s-21.132812 8.453125-28.660156 23.800781c-6.574219 13.40625-10.347656 30.765625-10.347656 47.628906 0 17.234376 4.230468 28.570313 12.929687 34.652344 4.597656 3.21875 9.796875 4.519532 15 5.046875-.003906.003907-.003906.007813-.007813.011719-2.808593 5.253906-6 8.699219-8.757812 9.460938zm0 0"/><path d="m78.246094 236.417969c4.101562 6.675781 9.148437 12.800781 15.171875 18.320312 1.292969 1.183594 2.644531 2.328125 4.027343 3.460938-6.488281 11.964843-12.421874 23.863281-17.675781 35.441406-1.582031 3.492187-.207031 7.730469 3.121094 9.632813 3.792969 2.167968 8.769531.550781 10.574219-3.421876 4.882812-10.761718 10.382812-21.816406 16.375-32.953124 12.652344 7.625 27.957031 13.601562 45.761718 17.828124 3.988282.949219 8.105469-1.59375 9.050782-5.578124.960937-4.039063-1.539063-8.089844-5.578125-9.050782-52.464844-12.449218-78.238281-39.195312-78.789063-81.765625-.054687-4.117187-3.410156-7.417969-7.515625-7.417969-.035156 0-.066406 0-.097656 0-4.152344.054688-7.476563 3.460938-7.421875 7.613282.160156 12.46875 2.277344 23.898437 6.269531 34.257812-11.011719 3.304688-20.90625 3.109375-29.476562-.613281-7.796875-3.386719-12.6875-8.144531-14.960938-14.542969-4.796875-13.511718 3.613281-29.976562 3.6875-30.121094 1.625-3.085937.914063-6.882812-1.714843-9.171874-.136719-.117188-13.75-12.238282-14.015626-35.679688-.265624-23.480469 21.234376-37.75 21.429688-37.875 2.484375-1.59375 3.808594-4.492188 3.382812-7.410156-2.320312-15.988282 2.066407-30.871094 12.34375-41.914063 11.0625-11.882812 27.921876-17.933593 46.261719-16.59375 11.71875.855469 22.316407 5.351563 31.605469 13.367188-9.824219 8.648437-18.828125 18.429687-26.746094 29.113281-2.46875 3.335938-1.769531 8.046875 1.570313 10.515625 3.335937 2.472656 8.042969 1.773437 10.515625-1.566406 14.691406-19.835938 33.425781-36.273438 54.179687-47.527344 21.6875-11.765625 44.742188-17.730469 68.523438-17.730469 23.777343 0 46.832031 5.964844 68.523437 17.730469 20.75 11.253906 39.484375 27.6875 54.179688 47.527344 2.433594 3.292969 7.21875 4.003906 10.515625 1.566406 3.335937-2.472656 4.035156-7.179687 1.566406-10.515625-7.914063-10.6875-16.921875-20.464844-26.746094-29.117188 9.292969-8.011718 19.890625-12.507812 31.605469-13.363281 18.335938-1.339843 35.199219 4.710938 46.265625 16.59375 10.277344 11.039063 14.660156 25.925781 12.339844 41.914063-.582031 4.003906 2.234375 7.839844 6.222656 8.496094 4.09375.671874 8.0625-2.230469 8.65625-6.339844 2.988281-20.585938-2.769531-39.875-16.214844-54.316406-14.183593-15.230469-35.453125-23.019532-58.363281-21.34375-15.6875 1.144531-30.203125 7.605468-42.351562 18.777343-6.574219-4.875-13.433594-9.257812-20.507813-13.097656-23.914063-12.972656-49.382813-19.546875-75.691406-19.546875-26.3125 0-51.777344 6.574219-75.691407 19.546875-7.078124 3.835937-13.9375 8.222656-20.511718 13.097656-12.144532-11.171875-26.660156-17.632812-42.351563-18.777343-22.902343-1.675782-44.179687 6.109374-58.359375 21.34375-12.453125 13.375-18.3125 30.90625-16.738281 49.777343-7.863281 6.316407-24.730469 22.796875-24.44921875 47.835938.24609375 21.675781 9.67968775 36.078125 15.23046875 42.691406-2.996094 7.640625-7.378906 22.769531-2.355469 37.042969 4.667969 13.265625 16.667969 22.128906 29.917969 25.785156 4.527344 1.246094 9.226563 1.84375 13.925781 1.84375 6.855469 0 14.046875-1.269531 21.523438-3.769531zm0 0"/><path d="m476.203125 132.824219c.097656-8.628907-1.863281-17.050781-5.835937-25.039063-1.847657-3.71875-6.359376-5.230468-10.078126-3.382812s-5.234374 6.359375-3.386718 10.078125c2.902344 5.832031 4.335937 11.949219 4.265625 18.171875-.261719 23.109375-13.488281 35.210937-14.015625 35.683594-2.617188 2.277343-3.324219 6.070312-1.722656 9.148437.085937.167969 8.492187 16.628906 3.695312 30.144531-2.273438 6.398438-7.164062 11.15625-14.960938 14.542969-8.566406 3.71875-18.453124 3.917969-29.460937.617187 3.988281-10.355468 6.09375-21.789062 6.253906-34.261718.054688-4.152344-3.269531-7.558594-7.421875-7.613282-4.144531-.078124-7.558594 3.265626-7.613281 7.417969-.308594 23.800781-8.371094 42.292969-24.644531 56.53125-13.648438 11.941407-33.253906 20.746094-58.273438 26.171875-3.953125.855469-6.558594 4.832032-5.78125 8.796875.796875 4.078125 4.910156 6.769531 8.96875 5.898438 19.714844-4.277344 36.503906-10.597657 50.179688-18.839844 12.761718 23.710937 28.210937 56.285156 36.582031 88.175781 1.074219 4.078125 5.429687 6.496094 9.460937 5.28125 3.816407-1.144531 6.09375-5.253906 5.082032-9.101562-8.925782-33.996094-25.402344-68.449219-38.730469-93.042969.816406-.667969 1.628906-1.335937 2.414063-2.023437 6.734374-5.894532 12.3125-12.5 16.773437-19.765626 7.480469 2.503907 14.671875 3.773438 21.53125 3.773438 14.523437 0 30.097656-6.140625 38.859375-18.125 2.121094-2.902344 3.792969-6.117188 4.984375-9.507812 5.023437-14.269532.644531-29.398438-2.355469-37.039063 5.550782-6.613281 14.984375-21.015625 15.230469-42.691406zm0 0"/><path d="m415.007812 375.109375c-4.128906.433594-7.125 4.132813-6.691406 8.261719.964844 9.171875.96875 17.664062.011719 25.234375-2.316406 18.386719-10.035156 32.382812-23.589844 42.789062-9.695312 7.445313-22.378906 13.082031-38.523437 17.109375 2.703125-8.734375 5.070312-18.789062 7.082031-30.09375 6.023437-33.859375 6.855469-67.097656 6.886719-68.496094.097656-4.152343-3.1875-7.59375-7.339844-7.691406-4.136719-.121094-7.59375 3.191406-7.691406 7.339844-.007813.335938-.84375 33.625-6.683594 66.355469-6.917969 38.78125-18.082031 61.03125-30.628906 61.046875-.003906 0-.007813 0-.011719 0-10.597656 0-21.21875-20.855469-28.410156-55.796875-6.199219-30.09375-7.984375-60.714844-8-61.019531-.234375-4.148438-3.804688-7.347657-7.929688-7.082032-4.144531.234375-7.316406 3.78125-7.082031 7.925782.074219 1.289062 1.851562 31.898437 8.253906 63.066406 2.582032 12.566406 5.523438 23.347656 8.835938 32.394531-11.84375.304687-23.902344.355469-35.394532.355469-11.488281 0-23.546874-.050782-35.394531-.355469 3.316407-9.046875 6.257813-19.828125 8.839844-32.394531 6.402344-31.167969 8.179687-61.777344 8.253906-63.066406.234375-4.144532-2.9375-7.691407-7.082031-7.925782-4.148438-.269531-7.695312 2.9375-7.929688 7.082032-.015624.304687-1.800781 30.925781-8 61.019531-7.191406 34.941406-17.8125 55.796875-28.410156 55.796875-.003906 0-.007812 0-.011718 0-12.546876-.015625-23.710938-22.265625-30.628907-61.046875-5.839843-32.734375-6.675781-66.023438-6.683593-66.355469-.097657-4.148438-3.53125-7.453125-7.691407-7.339844-4.152343.097656-7.4375 3.539063-7.34375 7.691406.035157 1.398438.867188 34.636719 6.890625 68.496094 2.011719 11.300782 4.378906 21.351563 7.078125 30.085938-38.367187-9.628906-58.191406-28.816406-62.113281-59.890625-2.679688-21.238281 2.121094-48.621094 14.269531-81.386719 1.445313-3.894531-.542969-8.222656-4.433593-9.664062-3.894532-1.445313-8.21875.542968-9.664063 4.433593-12.996094 35.058594-18.074219 64.835938-15.085937 88.5 5.078124 40.277344 32.363281 64.757813 83.398437 74.835938.214844.460937.425781.929687.648437 1.375 8.171876 16.773437 18.71875 25.285156 31.34375 25.300781h.027344c10.890625 0 20.082032-6.839844 27.710938-20.703125 13.992187.472656 28.402344.546875 42.011718.546875 13.609376 0 28.019532-.074219 42.011719-.546875 7.632813 13.863281 16.820313 20.703125 27.714844 20.703125h.027344c12.625-.015625 23.171875-8.527344 31.34375-25.300781.222656-.449219.4375-.921875.652343-1.382813 51.023438-10.121094 78.324219-34.625 83.394532-74.828125 1.101562-8.71875 1.109375-18.371093.023437-28.6875-.433593-4.128906-4.132812-7.140625-8.261719-6.691406zm0 0"/></svg>