<svg height="512" viewBox="0 0 54 60" width="512" xmlns="http://www.w3.org/2000/svg"><g id="Page-1" fill="none" fill-rule="evenodd"><g id="020---Happy-Sheep" fill-rule="nonzero" transform="translate(-1)"><g id="Icons" transform="translate(2)"><path id="Shape" d="m44.39 29.07c1.2751941 1.0462854 1.8055292 2.7510103 1.3489332 4.3360507-.456596 1.5850405-1.8125493 2.7463901-3.4489332 2.9539493.3105245.6706333.4709244 1.4009644.47 2.14.000801.5186711-.0767401 1.0344884-.23 1.53-.680999 2.1935293-2.7131997 3.6862436-5.01 3.68-.05 0-.1-.02-.15-.02.0959893.3452847.1464168.7016389.15 1.06-.0026528 1.7587192-1.1069038 3.327281-2.761691 3.9229148s-3.505398.0906624-4.628309-1.2629148c-.2906708 2.057758-2.0518139 3.5876125-4.13 3.5876125s-3.8393292-1.5298545-4.13-3.5876125c-1.122911 1.3535772-2.9735218 1.8585486-4.628309 1.2629148s-2.7590382-2.1641956-2.761691-3.9229148c.0035832-.3583611.0540107-.7147153.15-1.06-.05 0-.1.02-.15.02-2.2968003.0062436-4.329001-1.4864707-5.01-3.68-.15325986-.4955116-.23080103-1.0113289-.23-1.53-.00092435-.7390356.15947546-1.4693667.47-2.14-1.63638393-.2075592-2.99233719-1.3689088-3.44893321-2.9539493-.45659602-1.5850404.07373909-3.2897653 1.34893321-4.3360507-1.75857966-.225275-3.17797492-1.5463268-3.52872468-3.2842353-.35074975-1.7379084.44517305-3.5060621 1.97872468-4.3957647-.86874129-.9856196-1.20438203-2.3319119-.9-3.61.40815512-1.7312216 1.87019289-3.0125129 3.64-3.19-.39495636-.640564-.60599607-1.3774731-.61-2.13.00262347-1.5085621.81847248-2.8984942 2.1343505-3.63621477 1.3158779-.73772057 2.9272972-.7085877 4.2156495.07621477-.0353157-.20153459-.0553726-.40544688-.06-.61.0066187-2.3080931 1.8819017-4.1744248 4.19-4.17.5862215.0038569 1.1652025.12987041 1.7.37 1.0617398-2.1380079 3.2428743-3.49012876 5.63-3.49012876s4.5682602 1.35212086 5.63 3.49012876c.5347975-.24012959 1.1137785-.3661431 1.7-.37 2.3080983-.0044248 4.1833813 1.8619069 4.19 4.17-.0046274.20455312-.0246843.40846541-.06.61 1.2883523-.78480247 2.8997716-.81393534 4.2156495-.07621477 1.315878.73772057 2.131727 2.12765267 2.1343505 3.63621477-.0040039.7525269-.2150436 1.489436-.61 2.13 1.7698071.1774871 3.2318449 1.4587784 3.64 3.19.304382 1.2780881-.0312587 2.6243804-.9 3.61 1.5335516.8897026 2.3294744 2.6578563 1.9787247 4.3957647-.3507498 1.7379085-1.770145 3.0589603-3.5287247 3.2842353z" fill="#f5f5f5"/><g fill="#cfd8dc"><path id="Shape" d="m33.53 5.6c.641101.74940532.9923423 1.70378842.99 2.69-.0046274.20455312-.0246843.40846541-.06.61.911256-.56121485 2.0055866-.74456009 3.05-.511 0-.033.01-.065.01-.1.0131966-1.3805506-.6641474-2.67643459-1.8051965-3.45367389-1.1410492-.77723929-2.594949-.93307753-3.8748035-.41532611.6537241.24472132 1.2350389.65060975 1.69 1.18z"/><path id="Shape" d="m28.63 4.49c.909577-.42330874 1.9456935-.48654757 2.9-.177-1.3374955-2.54305495-4.2470344-3.83393001-7.03-3.119 1.7956767.43522047 3.3073076 1.64159707 4.13 3.296z"/><path id="Shape" d="m48 24.96c-.0056328-1.4709366-.7893029-2.8290445-2.06-3.57.8687413-.9856196 1.204382-2.3319119.9-3.61-.4081551-1.7312216-1.8701929-3.0125129-3.64-3.19.3949564-.640564.6059961-1.3774731.61-2.13-.0082687-2.3074042-1.8825826-4.17277159-4.19-4.17-.5111245.0031505-1.0171535.1018465-1.492.291 1.6100458.61408128 2.6760359 2.1558321 2.682 3.879-.0040039.7525269-.2150436 1.489436-.61 2.13 1.7698071.1774871 3.2318449 1.4587784 3.64 3.19.304382 1.2780881-.0312587 2.6243804-.9 3.61 1.5335516.8897026 2.3294744 2.6578563 1.9787247 4.3957647-.3507498 1.7379085-1.770145 3.0589603-3.5287247 3.2842353 1.2751941 1.0462854 1.8055292 2.7510103 1.3489332 4.3360507-.456596 1.5850405-1.8125493 2.7463901-3.4489332 2.9539493.3105245.6706333.4709244 1.4009644.47 2.14.000801.5186711-.0767401 1.0344884-.23 1.53-.680999 2.1935293-2.7131997 3.6862436-5.01 3.68-.05 0-.1-.02-.15-.02.0959893.3452847.1464168.7016389.15 1.06-.0033168 1.7150597-1.0580938 3.2525649-2.657 3.873.4660686.1904252.9635912.2921681 1.467.3 1.1087673.0031866 2.1733301-.4344892 2.9592236-1.2166314s1.2286579-1.8445988 1.2307764-2.9533686c-.0035832-.3583611-.0540107-.7147153-.15-1.06.05 0 .1.02.15.02 2.2968003.0062436 4.329001-1.4864707 5.01-3.68.1532599-.4955116.230801-1.0113289.23-1.53.0009244-.7390356-.1594755-1.4693667-.47-2.14 1.6363839-.2075592 2.9923372-1.3689088 3.4489332-2.9539493.456596-1.5850404-.0737391-3.2897653-1.3489332-4.3360507 2.0607012-.2788063 3.6008427-2.0335437 3.61-4.113z"/></g><path id="Shape" d="m14.48 8.29c.0046274.20455312.0246843.40846541.06.61-1.2883523-.78480247-2.8997716-.81393534-4.2156495-.07621477-1.31587802.73772057-2.13172703 2.12765267-2.1343505 3.63621477.00400393.7525269.21504364 1.489436.61 2.13-1.76980711.1774871-3.23184488 1.4587784-3.64 3.19-4.55-1.44-5.16-5-5.16-7.34 0-3.09 4-2 4-2 1.52459139-1.21969829 3.20634086-2.22874797 5-3 1.9579307-.58013333 4.0420693-.58013333 6 0l.47.16c-.641101.74940532-.9923423 1.70378842-.99 2.69z" fill="#ffe0b2"/><path id="Shape" d="m52 10.44c0 2.35-.61 5.91-5.16 7.34-.4081551-1.7312216-1.8701929-3.0125129-3.64-3.19.3949564-.640564.6059961-1.3774731.61-2.13-.0026235-1.5085621-.8184725-2.8984942-2.1343505-3.63621477-1.3158779-.73772057-2.9272972-.7085877-4.2156495.07621477.0353157-.20153459.0553726-.40544688.06-.61.0023423-.98621158-.348899-1.94059468-.99-2.69l.47-.16c1.9579307-.58013333 4.0420693-.58013333 6 0 1.7936591.77125203 3.4754086 1.78030171 5 3 0 0 4-1.09 4 2z" fill="#ffe0b2"/><path id="Shape" d="m48 8.44c-1.5245914-1.21969829-3.2063409-2.22874797-5-3-1.4331227-.44649675-2.9490529-.56105498-4.433-.335.4866183.06915077.9661577.18125523 1.433.335 1.7936591.77125203 3.4754086 1.78030171 5 3 0 0 4-1.09 4 2 .1522247 2.3473707-.8457656 4.6223113-2.676 6.1.2399167.3820411.4143175.801482.516 1.241 4.55-1.431 5.16-4.991 5.16-7.341 0-3.09-4-2-4-2z" fill="#dfc49c"/><path id="Shape" d="m40 27.32c0 7.84-3.23 15.68-14 15.68s-14-7.84-14-15.68c-.0746831-4.0357478.8785435-8.0241579 2.77-11.59 1.170537.5386037 2.5552105.255191 3.42-.7.4315186 1.1804634 1.553142 1.9667973 2.81 1.97.8339007-.0010935 1.6288183-.3531803 2.19-.97.4287764 1.1825897 1.5520781 1.9701668 2.81 1.9701668s2.3812236-.7875771 2.81-1.9701668c.5611817.6168197 1.3560993.9689065 2.19.97 1.256858-.0032027 2.3784814-.7895366 2.81-1.97.8647895.955191 2.249463 1.2386037 3.42.7 1.8914565 3.5658421 2.8446831 7.5542522 2.77 11.59z" fill="#ffe0b2"/><path id="Shape" d="m37.23 15.73c-1.170537.5386037-2.5552105.255191-3.42-.7-.1323911.3467045-.3265291.666541-.573.944.342586-.023513.6785306-.1060614.993-.244 1.8914565 3.5658421 2.8446831 7.5542522 2.77 11.59 0 7.46-2.939 14.9-12.5 15.61.488.036.977.07 1.5.07 10.77 0 14-7.84 14-15.68.0746831-4.0357478-.8785435-8.0241579-2.77-11.59z" fill="#dfc49c"/><path id="Shape" d="m48.04 55.42c.6164659.7185696.9568068 1.6332358.96 2.58.0030533.3377372-.0406959.6742693-.13 1h-45.74c-.08930412-.3257307-.13305328-.6622628-.13-1 .00319316-.9467642.34353407-1.8614304.96-2.58-1.54952269-.9151058-2.29396337-2.7547763-1.81690539-4.4899578.47705799-1.7351815 2.05734792-2.9357078 3.85690539-2.9300422h.02c-1.09263634-1.4321314-1.32614951-3.3428874-.61056052-4.9960017s2.26857898-2.7905409 4.06056052-2.9739983c.680999 2.1935293 2.7131997 3.6862436 5.01 3.68.05 0 .1-.02.15-.02-.0959893.3452847-.1464168.7016389-.15 1.06.0026528 1.7587192 1.1069038 3.327281 2.761691 3.9229148s3.505398.0906624 4.628309-1.2629148c.2906708 2.057758 2.0518139 3.5876125 4.13 3.5876125s3.8393292-1.5298545 4.13-3.5876125c1.122911 1.3535772 2.9735218 1.8585486 4.628309 1.2629148s2.7590382-2.1641956 2.761691-3.9229148c-.0035832-.3583611-.0540107-.7147153-.15-1.06.05 0 .1.02.15.02 2.2968003.0062436 4.329001-1.4864707 5.01-3.68 1.7919815.1834574 3.3449715 1.320884 4.0605605 2.9739983s.4820758 3.5638703-.6105605 4.9960017h.02c1.7995575-.0056656 3.3798474 1.1948607 3.8569054 2.9300422s-.2673827 3.574852-1.8169054 4.4899578z" fill="#f5f5f5"/><path id="Shape" d="m50 52c0-2.209139-1.790861-4-4-4h-.02c1.0926363-1.4321314 1.3261495-3.3428874.6105605-4.9960017s-2.268579-2.7905409-4.0605605-2.9739983c-.1144165.3586233-.2683627.7034092-.459 1.028 2.1616182 1.6696367 2.5678615 4.7721017.909 6.942h.02c1.7995575-.0056656 3.3798474 1.1948607 3.8569054 2.9300422s-.2673827 3.574852-1.8169054 4.4899578c.6164659.7185696.9568068 1.6332358.96 2.58.0030533.3377372-.0406959.6742693-.13 1h3c.0893041-.3257307.1330533-.6622628.13-1-.0031932-.9467642-.3435341-1.8614304-.96-2.58 1.2137139-.7116382 1.9595478-2.0130422 1.96-3.42z" fill="#cfd8dc"/><path id="Shape" d="m29 33.83v2.17c0 1.6568542-1.3431458 3-3 3s-3-1.3431458-3-3v-2.17c.3218508.110748.6596329.168171 1 .17 2 0 2-1 2-2 0 1 0 2 2 2 .3403671-.001829.6781492-.059252 1-.17z" fill="#ef314c"/></g><g id="Icons_copy" fill="#000"><path id="Shape" d="m6.068 18.445c0 .088-.02.174-.02.263.00221616.8589808.22242507 1.7033443.64 2.454-1.07788224.9669863-1.69196293 2.3479403-1.688 3.796.01170104 1.9518652 1.1212701 3.7308884 2.869 4.6-.5036214.8075024-.77009142 1.7403207-.769 2.692.01294495 2.1306148 1.33017795 4.0356219 3.319 4.8-.1172703.4744247-.1767023.9612966-.177 1.45.0071944.249876.0302408.4990435.069.746-2.55911204.7423938-4.31752167 3.0893874-4.311 5.754-.00011256.7709991.15143063 1.5344914.446 2.247-1.68304222.54567-2.95063619 1.9427158-3.33059276 3.6707262-.37995657 1.7280103.18468563 3.5279299 1.48359276 4.7292738-.39427135.7215171-.60028596 1.5307865-.599 2.353-.00316365.4293377.05303486.8570521.167 1.271.12142714.4313037.51492927.7291885.963.729h45.74c.4480707.0001885.8415729-.2976963.963-.729.1139651-.4139479.1701637-.8416623.167-1.271.0011476-.8226388-.2052176-1.6322779-.6-2.354 1.3006752-1.200669 1.8664168-3.0014301 1.4860834-4.7302183-.3803334-1.7287883-1.6495957-3.1258485-3.3340834-3.6697817.2952012-.7120361.4474255-1.475196.448-2.246.0070364-2.6634991-1.7494736-5.0101345-4.307-5.754.0387592-.2469565.0618056-.496124.069-.746-.0002977-.4887034-.0597297-.9755753-.177-1.45 1.988822-.7643781 3.3060551-2.6693852 3.319-4.8-.0004831-.9513895-.2683329-1.8834931-.773-2.69 1.7483702-.8694354 2.8580519-2.6494129 2.869-4.602.0049755-1.4492158-.608763-2.8316735-1.687-3.8.4168186-.7509119.6366541-1.5951631.639-2.454 0-.089-.016-.174-.02-.262 2.468-.996 5.068-3.188 5.068-8.002.0556485-.96299342-.3611079-1.89276693-1.117-2.492-1.0890797-.6674628-2.3979632-.87704233-3.641-.583-1.5021236-1.1798214-3.159728-2.14692557-4.926-2.874-2.1252611-.64016595-4.3903696-.65162694-6.522-.033-.9490492-.85717087-2.1821585-1.33210143-3.461-1.333-.4190456-.00025973-.8365258.05112762-1.243.153-1.3514893-2.04478161-3.6389482-3.27484162-6.09-3.27484162s-4.7385107 1.23006001-6.09 3.27484162c-.4064742-.10187238-.8239544-.15325973-1.243-.153-1.2786029.00119392-2.5114985.47568597-3.461 1.332-2.1321355-.61817252-4.3976208-.60601677-6.523.035-1.76598493.72660528-3.42327717 1.69338713-4.925 2.873-1.24301627-.29459757-2.55211308-.08498388-3.641.583-.75589206.59923307-1.17264848 1.52900658-1.117 2.492 0 4.805 2.6 7 5.068 8.005zm41.932 26.555c-.004236.8678626-.2918177 1.7105928-.819 2.4-.2241137.3048199-.2570096.7100211-.085 1.047.1735488.3394943.5227186.5530904.904.553 1.6568542 0 3 1.3431458 3 3 .003369 1.0541091-.556349 2.0298027-1.468 2.559-.2533339.1494943-.4279991.4029442-.4775133.6929011-.0495142.2899568.0311453.587007.2205133.8120989.463406.5390559.7203377 1.2251522.725 1.936h-44c.00466231-.7108478.26159404-1.3969441.725-1.936.18936798-.2250919.27002751-.5221421.22051329-.8120989-.04951422-.2899569-.22417942-.5434068-.47751329-.6929011-.911651-.5291973-1.47136898-1.5048909-1.468-2.559.00211723-.7984675.32161393-1.5633309.8880903-2.1260558.56647636-.5627248 1.33344581-.8771324 2.1319097-.8739442.37877206 0 .72503518-.2140024.89442719-.5527864.16939202-.338784.13283605-.744196-.09442719-1.0472136-.79820685-1.0422362-1.03035158-2.4113608-.6203181-3.6584626.41003348-1.2471019 1.40935989-2.2113322 2.6703181-2.5765374.8783327 1.8385774 2.5996281 3.131976 4.61 3.464v.121c.0093729 2.8587462 2.3312404 5.1703241 5.19 5.167.9579609-.0003401 1.8967039-.2687998 2.71-.775.8751792 1.7514959 2.6650223 2.8580011 4.623 2.8580011s3.7478208-1.1065052 4.623-2.8580011c.8132961.5062002 1.7520391.7746599 2.71.775 2.8587596.0033241 5.1806271-2.3082538 5.19-5.167 0-.041 0-.081 0-.121 2.0103719-.332024 3.7316673-1.6254226 4.61-3.464 1.7023579.4976309 2.8701973 2.0614102 2.864 3.835zm-3.317-38.612c1.6844835.73427477 3.2647747 1.68749298 4.7 2.835.2497007.19703204.577812.26450804.885.182.7922693-.24277624 1.6450446-.19599056 2.406.132.142.109.331.32.331.9 0 3-1.174 4.977-3.563 6.039-.5790733-1.1947803-1.5961694-2.1205527-2.84-2.585.1402023-.465818.2119523-.9495414.213-1.436-.0099236-2.85874614-2.3322393-5.16987744-5.191-5.166-.3933316.0001692-.7853053.04614557-1.168.137-.0794446-.42394095-.2128635-.83596011-.397-1.226 1.5323269-.33058246 3.1235676-.26588668 4.624.188zm-24.016-1.263c.4464499.00121001.8876584.09626573 1.295.279.4890293.21642176 1.0617818.00979028 1.3-.469.8938901-1.79820595 2.7288705-2.93523228 4.737-2.93523228s3.8431099 1.13702633 4.737 2.93523228c.2382182.47879028.8109707.68542176 1.3.469.9821507-.44085119 2.1206104-.35520089 3.0257453.22763739s1.4541906 1.58381997 1.4592547 2.66036261c-.0050279.15503804-.0217419.30947606-.05.462-.058597.38389117.1103563.7669937.4333407.9826024s.7415887.22473109 1.0736593.0233976c.4934165-.30425176 1.0613227-.46621405 1.641-.468 1.7546506-.00498504 3.1821842 1.4113645 3.191 3.166-.0029847.5695727-.1628334 1.1273132-.462 1.612-.1766134.2927589-.1914125.6554591-.0392372.9616334.1521754.3061744.4502298.5133795.7902372.5493666 1.6126523.1555283 2.8455952 1.5068822 2.853 3.127-.0036416.7478895-.2762437 1.469504-.768 2.033-.1913655.2244467-.2738847.5219267-.2254886.8128818.0483961.2909552.2227706.5457046.4764886.6961182.9665509.5596972 1.5626138 1.5910954 1.565 2.708-.014928 1.5777704-1.185533 2.9055066-2.749 3.118-.3922775.0548526-.7152082.3360708-.8234516.7170876s.0186037.7900129.3234516 1.0429124c.7233138.593459 1.14452 1.4783952 1.149 2.414-.0147107 1.5789293-1.1871271 2.9072703-2.752 3.118-.3132923.0429129-.5878277.2314788-.7403248.5084955s-.1649849.6098391-.0336752.8975045c.2511639.5408442.3821689 1.1296843.384 1.726-.0042346 2.3087398-1.8633995 4.1852843-4.172 4.211-.039 0-.151-.017-.191-.018-.3135292-.001856-.6112923.137296-.811.379-.1958918.2467168-.2640729.571318-.184.876.0741316.2603907.1141328.5293062.119.8-.0071152 1.3347755-.8475496 2.5228571-2.1037854 2.97402-1.2562359.4511628-2.6605175.0692455-3.5152146-.95602-.2542243-.301741-.6621073-.4257894-1.0412818-.3166822-.3791744.1091072-.6587467.4309703-.7137182.8216822-.2205229 1.5660019-1.5605474 2.7305466-3.142 2.7305466s-2.9214771-1.1645447-3.142-2.7305466c-.0543758-.3910242-.3337146-.7134588-.713-.823-.0900988-.0256845-.183312-.0388083-.277-.039-.295193.0002558-.575191.1309215-.765.357-.853194 1.0306365-2.2605192 1.4165152-3.5200605.9651758-1.2595413-.4513393-2.101499-1.6432177-2.1059395-2.9811758.0048672-.2706938.0448684-.5396093.119-.8.080789-.305639.0122956-.6314806-.1847122-.8787254-.1970078-.2472447-.499326-.3867718-.8152878-.3762746-.0418936-.0023257-.0838693.002752-.124.015-2.3315593.0049842-4.2270791-1.8784564-4.237-4.21.0018311-.5963157.1328361-1.1851558.384-1.726.1313097-.2876654.1188219-.6204878-.0336752-.8975045s-.4270325-.4655826-.7403248-.5084955c-1.563287-.2125418-2.73357091-1.5403967-2.748-3.118.00595525-.936596.42944305-1.8217039 1.155-2.414.3048479-.2528995.431695-.6618956.3234516-1.0429124s-.4311741-.662235-.8234516-.7170876c-1.56584562-.2097744-2.73965005-1.5382398-2.755-3.118.00238624-1.1169046.5984491-2.1483028 1.565-2.708.25371804-.1504136.42809251-.405163.47648862-.6961182.04839612-.2909551-.03412307-.5884351-.22548862-.8128818-.49175635-.563496-.76435839-1.2851105-.768-2.033.00735356-1.6197703 1.23974343-2.9709916 2.852-3.127.3400074-.0359871.6380618-.2431922.7902372-.5493666.1521753-.3061743.1373762-.6688745-.0392372-.9616334-.2991666-.4846868-.4590153-1.0424273-.462-1.612.0088158-1.7546355 1.4363494-3.17098504 3.191-3.166.5796773.00178595 1.1475835.16374824 1.641.468.3336509.1967353.7509058.18309952 1.071-.035.3216421-.22003215.4890874-.60465127.431-.99-.0267835-.14627479-.0424948-.29436159-.047-.443.0082662-1.75502669 1.4359609-3.17198346 3.191-3.167zm-17.337 4.413c.7599456-.33264894 1.61401558-.38161514 2.407-.138.30715275.08365781.63578544.01607459.885-.182 1.43298036-1.147338 3.01131284-2.1002554 4.694-2.834 1.501159-.45026271 3.0918101-.51355852 4.624-.184-.1818586.3897107-.3132527.80103152-.391 1.224-.3826947-.09085443-.7746684-.1368308-1.168-.137-2.8587607-.00387744-5.18107637 2.30725386-5.191 5.166.00104766.4864586.07279772.970182.213 1.436-1.24331093.4642358-2.26026593 1.3891636-2.84 2.583-2.389-1.062-3.563-3.042-3.563-6.032 0-.581.188-.793.33-.902z"/><path id="Shape" d="m16 13c0-.5522847-.4477153-1-1-1s-1 .4477153-1 1c.0040608 1.1887613.540086 2.313277 1.461 3.065-1.6757749 3.5122072-2.5179822 7.363911-2.461 11.255 0 10.6 5.468 16.68 15 16.68s15-6.08 15-16.68c.0569822-3.891089-.7852251-7.7427928-2.461-11.255.920914-.751723 1.4569392-1.8762387 1.461-3.065 0-.5522847-.4477153-1-1-1s-1 .4477153-1 1c0 1.1045695-.8954305 2-2 2-.5564477.0000066-1.0870265-.2349589-1.461-.647-.23653-.255139-.5886675-.3690048-.9297992-.300656s-.6222211.3090871-.7422008.635656c-.2873148.7842827-1.0317586 1.3074269-1.867 1.312-.5564477.0000066-1.0870265-.2349589-1.461-.647-.23653-.255139-.5886675-.3690048-.9297992-.300656s-.6222211.3090871-.7422008.635656c-.2831555.787571-1.030074 1.3127571-1.867 1.3127571s-1.5838445-.5251861-1.867-1.3127571c-.1199797-.3265689-.4010691-.5673072-.7422008-.635656s-.6932692.045517-.9297992.300656c-.3739735.4120411-.9045523.6470066-1.461.647-.8352414-.0045731-1.5796852-.5277173-1.867-1.312-.1199797-.3265689-.4010691-.5673072-.7422008-.635656s-.6932692.045517-.9297992.300656c-.3739735.4120411-.9045523.6470066-1.461.647-.530433 0-1.0391408-.2107137-1.4142136-.5857864-.3750727-.3750728-.5857864-.8837806-.5857864-1.4142136zm3.9 3.512c1.2024775 1.5036449 3.3116958 1.9254885 5 1 .7540331.9406827 1.8944089 1.4880998 3.1 1.4880998s2.3459669-.5474171 3.1-1.4880998c1.6883042.9254885 3.7975225.5036449 5-1 .7997108.4458703 1.7319848.5926237 2.63.414 1.5402153 3.2459468 2.3167252 6.8014729 2.27 10.394 0 5.48-1.688 14.68-13 14.68s-13-9.2-13-14.68c-.0467252-3.5925271.7297847-7.1480532 2.27-10.394.8980152.1786237 1.8302892.0318703 2.63-.414z"/><path id="Shape" d="m18 26c.5522847 0 1-.4477153 1-1 0-1.1045695.8954305-2 2-2s2 .8954305 2 2c0 .5522847.4477153 1 1 1s1-.4477153 1-1c0-2.209139-1.790861-4-4-4s-4 1.790861-4 4c0 .5522847.4477153 1 1 1z"/><path id="Shape" d="m32 26c.5522847 0 1-.4477153 1-1 0-1.1045695.8954305-2 2-2s2 .8954305 2 2c0 .5522847.4477153 1 1 1s1-.4477153 1-1c0-2.209139-1.790861-4-4-4s-4 1.790861-4 4c0 .5522847.4477153 1 1 1z"/><path id="Shape" d="m25.293 28.707c.4993772.4860188 1.0924002.8653766 1.743 1.115-.0175515.0580741-.0296045.1176696-.036.178v2c0 .981 0 1-1 1-.8966897-.1041252-1.6833649-.6461818-2.1-1.447-.2468713-.4942948-.8477051-.6948713-1.342-.448-.4942948.2468713-.6948713.8477052-.448 1.342.445197.8214216 1.0987569 1.5111946 1.895 2v1.553c0 2.209139 1.790861 4 4 4s4-1.790861 4-4v-1.55c.7980795-.4881211 1.4534206-1.1779538 1.9-2 .2485281-.4934664.0499664-1.0949718-.4435-1.3435-.4934664-.2485281-1.0949718-.0499664-1.3435.4435-.4196289.8066386-1.2141891 1.350601-2.118 1.45-1 0-1-.019-1-1v-2c-.0063955-.0603304-.0184485-.1199259-.036-.178.6505998-.2496234 1.2436228-.6289812 1.743-1.115.3550623-.3942928.3403581-.9972533-.0335016-1.3737701s-.9767009-.3954908-1.3734984-.0432299c-.3511209.3632656-.8045884.6109286-1.3.71-.49538-.0985528-.9489018-.3458967-1.3-.709-.3929089-.3784551-1.0166378-.3721707-1.4018415.0141242-.3852036.3862949-.3897235 1.0100391-.0101585 1.4018758zm4.707 6.293v1c0 1.1045695-.8954305 2-2 2s-2-.8954305-2-2v-1c.6999088.039114 1.395754-.1296284 2-.485.604246.3553716 1.3000912.524114 2 .485z"/></g></g></g></svg>