<svg height="512" viewBox="0 0 49 60" width="512" xmlns="http://www.w3.org/2000/svg"><g id="Page-1" fill="none" fill-rule="evenodd"><g id="043---Winking-Chick-in-Eggshell" fill-rule="nonzero"><g id="Icons" transform="translate(1 1)"><path id="Shape" d="m37.84 8.52-4.56-1.01-2.28-.51-.38.51-2.62 3.49-5-3-5 3-2.62-3.49-.38-.51-2.28.51-4.56 1.01c.34-.44.69-.87 1.06-1.29 3.84-4.42 8.61-7.23 13.78-7.23s9.94 2.81 13.78 7.23c.37.42.72.85 1.06 1.29z" fill="#02a9f4"/><path id="Shape" d="m33.78 7.23c.137.155.261.319.393.478l3.667.812c-.34-.44-.69-.87-1.06-1.29-3.84-4.42-8.61-7.23-13.78-7.23-.5011746.00283515-1.0018582.0318748-1.5.087 4.591.484 8.815 3.154 12.28 7.143z" fill="#0377bc"/><path id="Shape" d="m39.43 51.32c-4.3175601 4.4024708-10.2653194 6.8206712-16.43 6.68-6.1646806.1406712-12.1124399-2.2775292-16.43-6.68l4.43-3.32 4 3 4-3 4 3 4-3 4 3 4-3z" fill="#3f51b5"/><path id="Shape" d="m35 48-1.5 1.125 2.93 2.2c-3.9460133 4.0343456-9.2905063 6.3994538-14.93 6.607.5.029.993.068 1.5.068 6.1646806.1406712 12.1124399-2.2775292 16.43-6.68z" fill="#283593"/><path id="Shape" d="m45.68 37.68c-.5720878 5.0977658-2.7624951 9.8781108-6.25 13.64l-4.43-3.32-4 3-4-3-4 3-4-3-4 3-4-3-4.43 3.32c-3.4875049-3.7618892-5.67791221-8.5422342-6.25-13.64l2.68-2.68 6 6 4-3 5 5 5-4 5 4 5-5 4 3 6-6z" fill="#02a9f4"/><path id="Shape" d="m43 35-1.5 1.5 1.18 1.18c-.526433 4.4816352-2.2763528 8.7318852-5.058 12.285l1.808 1.355c3.4875049-3.7618892 5.6779122-8.5422342 6.25-13.64z" fill="#0377bc"/><path id="Shape" d="m42 31c.0200503 1.9383529-.2289917 3.8701111-.74 5.74l-4.26 4.26-4-3-5 5-5-4-5 4-5-5-4 3-4.26-4.26c-.51100833-1.8698889-.76005033-3.8016471-.74-5.74 0-9.01 4.68-18.96 11.38-23.49l2.62 3.49 5-3 5 3 2.62-3.49c6.7 4.53 11.38 14.48 11.38 23.49z" fill="#ffdc00"/><path id="Shape" d="m30.62 7.51-1.113 1.482c5.672 4.987 9.493 13.874 9.493 22.008.0200503 1.9383529-.2289917 3.8701111-.74 5.74l-2.974 2.974 1.714 1.286 4.26-4.26c.5110083-1.8698889.7600503-3.8016471.74-5.74 0-9.01-4.68-18.96-11.38-23.49z" fill="#fec108"/><path id="Shape" d="m10.95 39.54-1.95 1.46-4.26-4.26c-.51100833-1.8698889-.76005033-3.8016471-.74-5.74-.00058216-1.2984014.0929966-2.5951357.28-3.88 2.62-.03 5.43 4.32 6.39 10.05.13.81.23 1.6.28 2.37z" fill="#ff9801"/><path id="Shape" d="m14 27h-1c-.5522847 0-1-.4477153-1-1s.4477153-1 1-1h1c.5522847 0 1 .4477153 1 1s-.4477153 1-1 1z" fill="#e91e63"/><path id="Shape" d="m33 27h-1c-.5522847 0-1-.4477153-1-1s.4477153-1 1-1h1c.5522847 0 1 .4477153 1 1s-.4477153 1-1 1z" fill="#e91e63"/><path id="Shape" d="m45.33 20.81c-1.19 2.66-2.59 3.88-3.99 4.13-.611662-2.8503328-1.5968351-5.6074725-2.93-8.2 1.92-3.78 5.46-7.54 7.34-6.69 2.02.9 1.38 6.72-.42 10.76z" fill="#ff9801"/><path id="Shape" d="m45.75 10.05c-.8313831-.22329668-1.7193282-.0136169-2.363.558 1.2 1.774.517 6.669-1.057 10.2-.3690382.8605918-.845489 1.6710286-1.418 2.412.154.57.3 1.142.428 1.718 1.4-.25 2.8-1.47 3.99-4.13 1.8-4.038 2.44-9.858.42-10.758z" fill="#f57c00"/><circle id="Oval" cx="16" cy="21" fill="#02a9f4" r="2"/><path id="Shape" d="m23 30c2-1 3-4 3-4-.9121629-.7898475-1.9200781-1.461791-3-2-1.0799219.538209-2.0878371 1.2101525-3 2 0 0 1 3 3 4z" fill="#ff9801"/></g><g id="Icons_copy" fill="#000"><path id="Shape" d="m29 24c.5522847 0 1-.4477153 1-1s.4477153-1 1-1 1 .4477153 1 1 .4477153 1 1 1 1-.4477153 1-1c0-1.6568542-1.3431458-3-3-3s-3 1.3431458-3 3c0 .5522847.4477153 1 1 1z"/><path id="Shape" d="m47.244 22.217c1.829-4.107 2.851-10.772-.082-12.078-2.428-1.1-5.689 2.244-7.757 5.581-1.3085478-2.26164-2.9362873-4.3228372-4.833-6.12l4.052.9c.4110088.090838.8348987-.0854246 1.060319-.4409038.2254204-.35547919.2041047-.81406045-.053319-1.1470962-.353-.457-.716-.9-1.1-1.333-4.301-4.96-9.326-7.579-14.531-7.579s-10.23 2.619-14.53 7.569c-.385.436-.748.882-1.1 1.339-.26029514.33275375-.28339787.79318553-.0577189 1.1503236.22567898.3571381.6514461.5339248 1.0637189.4416764l4.052-.9c-5.584 5.175-9.428 14.082-9.428 22.4-.00105425 1.0148483.06073063 2.0287883.185 3.036-.32161104-.0691465-.65648143.0273353-.892.257l-2.68 2.68c-.22131783.2211069-.32640763.533046-.284.843 1.781 12.87 11.071 21.184 23.671 21.184s21.89-8.314 23.671-21.184c.0424076-.309954-.0626822-.6218931-.284-.843l-2.68-2.68c-.2355186-.2296647-.570389-.3261465-.892-.257.1242694-1.0072117.1860543-2.0211517.185-3.036-.005169-1.8074716-.1758821-3.6106708-.51-5.387 1.467-.64 2.728-2.104 3.754-4.396zm-23.244-20.217c5.214 0 9.348 3.005 12.118 5.893l-3.9-.869c-.3837444-.08570432-.7820982.06142832-1.018.376l-2.459 3.279-4.226-2.536c-.3169325-.1904131-.7130675-.1904131-1.03 0l-4.226 2.536-2.459-3.279c-.2359018-.31457168-.6342556-.46170432-1.018-.376l-3.9.869c2.766-2.886 6.901-5.893 12.118-5.893zm-7.823 7.9 2.023 2.7c.3076581.4100708.8755904.521066 1.315.257l4.485-2.691 4.485 2.691c.4394096.264066 1.0073419.1530708 1.315-.257l2.023-2.7c5.939 4.516 10.177 13.617 10.177 22.1.0147015 1.7643715-.2021491 3.5230463-.645 5.231l-3.449 3.449-3.306-2.48c-.3981261-.2984997-.9551508-.2588644-1.307.093l-4.367 4.367-4.3-3.441c-.3653328-.2925003-.8846672-.2925003-1.25 0l-4.3 3.441-4.367-4.367c-.3521309-.3530014-.9104989-.3926716-1.309-.093l-.648.486c-.032-.226-.057-.439-.1-.681-.936-5.585-3.441-9.827-6.236-10.711 1.204-6.97 4.913-13.707 9.761-17.394zm-9.532 27.331c-.44285093-1.7079537-.65970149-3.4666285-.645-5.231 0-.878.058-1.763.146-2.649 1.727.875 3.745 4.253 4.537 8.977.1.645.17 1.21.22 1.745l-.809.607zm2.49 15.169 2.865-2.15 3.4 2.55c.3555556.2666667.8444444.2666667 1.2 0l3.4-2.55 3.4 2.55c.3555556.2666667.8444444.2666667 1.2 0l3.4-2.55 3.4 2.55c.3555556.2666667.8444444.2666667 1.2 0l3.4-2.55 2.865 2.15c-4.0483184 3.7123353-9.3735266 5.7184682-14.865 5.6-5.4914734.1184682-10.8166816-1.8876647-14.865-5.6zm36.483-13.369c-.6143554 4.400455-2.4721467 8.534084-5.355 11.915l-3.663-2.746c-.3555556-.2666667-.8444444-.2666667-1.2 0l-3.4 2.55-3.4-2.55c-.3555556-.2666667-.8444444-.2666667-1.2 0l-3.4 2.55-3.4-2.55c-.3555556-.2666667-.8444444-.2666667-1.2 0l-3.4 2.55-3.4-2.55c-.3555556-.2666667-.8444444-.2666667-1.2 0l-3.663 2.746c-2.88285334-3.380916-4.74064464-7.514545-5.355-11.915l1.618-1.617 5.293 5.293c.35184919.3518644.9088739.3914997 1.307.093l3.306-2.48 4.387 4.387c.3602699.3604945.9340154.3923692 1.332.074l4.375-3.501 4.375 3.5c.3979846.3183692.9717301.2864945 1.332-.074l4.387-4.387 3.306 2.481c.3981261.2984997.9551508.2588644 1.307-.093l5.293-5.293zm-2.572-14.431c-.5936856-2.3594825-1.4385088-4.6485512-2.52-6.828 2.008-3.72 4.941-6.2 5.817-5.812 1.029.459.962 5.2-.926 9.438-.4700015 1.2709552-1.29245 2.3816596-2.371 3.202z"/><path id="Shape" d="m17 25c1.2133867 0 2.3072956-.7309265 2.7716386-1.8519497s.2076757-2.4113767-.6503183-3.2693706c-.8579939-.857994-2.1483474-1.1146613-3.2693706-.6503183s-1.8519497 1.5582519-1.8519497 2.7716386c0 1.6568542 1.3431458 3 3 3zm0-4c.5522847 0 1 .4477153 1 1s-.4477153 1-1 1-1-.4477153-1-1 .4477153-1 1-1z"/><path id="Shape" d="m23.553 31.9c.2814108.1406214.6125892.1406214.894 0 2.344-1.172 3.455-4.44 3.5-4.579.1195324-.3593148.0258526-.7553247-.242-1.023-.9875069-.8672005-2.0833128-1.6026677-3.26-2.188-.2814108-.1406214-.6125892-.1406214-.894 0-1.1766872.5853323-2.2724931 1.3207995-3.26 2.188-.2678526.2676753-.3615324.6636852-.242 1.023.051.134 1.16 3.402 3.504 4.579zm.447-5.769c.6311272.3416451 1.2364099.7290127 1.811 1.159-.4014725.9717317-1.0211199 1.8380748-1.811 2.532-.7878426-.6959427-1.4068298-1.5621828-1.81-2.533.5748906-.4287501 1.1797738-.8157417 1.81-1.158z"/></g></g></g></svg>