<svg height="512" viewBox="0 0 48 60" width="512" xmlns="http://www.w3.org/2000/svg"><g id="Page-1" fill="none" fill-rule="evenodd"><g id="041---Chick-in-Egg" fill-rule="nonzero"><g id="Icons" transform="translate(1 1)"><path id="Shape" d="m46 33c0 16.016-10.3 25-23 25s-23-8.984-23-25 10.3-33 23-33 23 16.984 23 33z" fill="#cfd8dc"/><path id="Shape" d="m43 33c0 16.016-8.954 25-20 25s-20-8.984-20-25 8.954-33 20-33 20 16.984 20 33z" fill="#f5f5f5"/><path id="Shape" d="m9 14 1 5-4 3 1 2-2 4 3 2 1 5 10-4 8 6 2-5-3-3 3-5-5-5 2-8-5 3-4-4-2 3z" fill="#ffdc00"/><path id="Shape" d="m29 24-5-5 2-8-3.529 2.118-1.471 5.882 5 5-3 5 3 3-1.308 3.269 2.308 1.731 2-5-3-3z" fill="#fec108"/><circle id="Oval" cx="17" cy="21" fill="#02a9f4" r="2"/><path id="Shape" d="m15 27h-1c-.5522847 0-1-.4477153-1-1s.4477153-1 1-1h1c.5522847 0 1 .4477153 1 1s-.4477153 1-1 1z" fill="#e91e63"/></g><g id="Icons_copy" fill="#000"><path id="Shape" d="m24 0c-13.736 0-24 17.95-24 34 0 15.552 9.645 26 24 26s24-10.448 24-26c0-16.05-10.264-34-24-34zm0 58c-13.159 0-22-9.645-22-24 0-14.8 9.61-32 22-32s22 17.2 22 32c0 14.355-8.841 24-22 24z"/><path id="Shape" d="m18 19c-.3464231-.0009915-.6900965-.0615402-1.016-.179-.0922518-.5095-.5581674-.8643146-1.0738571-.8177882-.5156898.0465265-.9105745.479004-.9101429.9967882-.0086404.4831695.1984766.9450587.565 1.26-.8003208 1.1265257-.7256882 2.6544447.1806131 3.6976089.9063014 1.0431642 2.4088049 1.3305486 3.6361026.6954787 1.2272978-.6350699 1.8605251-2.0275963 1.5324287-3.3699548-.3280965-1.3423585-1.5322737-2.2857904-2.9141444-2.2831328zm0 4c-.5522847 0-1-.4477153-1-1s.4477153-1 1-1 1 .4477153 1 1-.4477153 1-1 1z"/><path id="Shape" d="m23.618 27 .277-.553c.2468713-.4942949.0462949-1.0951287-.448-1.342s-1.0951287-.0462949-1.342.448l-1 2c-.1549383.3100616-.1382634.6782442.0440684.9730309.1823318.2947868.5043136.4741307.8509316.4739691h2c.5522847 0 1-.4477153 1-1s-.4477153-1-1-1z"/><path id="Shape" d="m33.8 23.783-1.356-.678c-.2814108-.1406214-.6125892-.1406214-.894 0l-1.356.678-4.09-4.09 1.863-7.451c.0982179-.3924899-.0497463-.8054902-.3748594-1.0463148-.3251132-.2408245-.7633068-.2620151-1.1101406-.0536852l-4.33 2.6-2.935-2.942.683-1.353c.1184032-.23712719.1378258-.51156041.054-.763l-1-3c-.174522-.5246705-.7413295-.80852195-1.266-.63399997s-.808522.74132946-.634 1.26599997l.869 2.607-.79 1.577-1.725 2.587-5.573.929c-.26722172.0447747-.50483706.1960665-.65846426.4192501-.15362721.2231836-.21011515.4991535-.15653574.7647499l.876 4.382-3.496 2.618c-.38672184.2897854-.51088935.8146562-.295 1.247l.777 1.553-1.777 3.553c-.22532955.4510807-.0795797.9993573.34 1.279l2.655 1.768.814 4.068-1.622 1.622c-.18791945.1883913-.29300594.4439098-.292.71v1.382l-1.447.723c-.49429485.2468713-.69487128.8477051-.448 1.342s.84770515.6948713 1.342.448l2-1c.33905165-.1694246.55317662-.515974.553-.895v-1.586l1.561-1.561 9.289-3.716 7.361 5.521.572 1.145-.49.49c-.2678526.2676753-.3615324.6636852-.242 1.023l1 3c.174522.5246705.7413295.8085219 1.266.634.5246705-.174522.808522-.7413295.634-1.266l-.8-2.413.563-.564c.3044429-.3041447.3801654-.7689521.188-1.154l-.8-1.6 1.834-4.583c.1481863-.3713999.0608749-.7953716-.222-1.078l-2.448-2.448 2.449-4.081 1.285-.645 1.553.777c.3850479.1921654.8498553.1164429 1.154-.188l2-2c.3789722-.3923789.3735524-1.0160848-.0121814-1.4018186s-1.0094397-.3911536-1.4018186-.0121814zm-7.66 5.7c-.2363948.3934817-.1745423.8973731.15 1.222l2.534 2.534-1.271 3.176-6.953-5.215c-.2792398-.2097938-.6477046-.258695-.972-.129l-8.883 3.554-.765-3.825c-.05178137-.2599461-.20464466-.4887016-.425-.636l-2.266-1.511 1.606-3.21c.14062139-.2814108.14062139-.6125892 0-.894l-.627-1.249 3.332-2.5c.3093006-.2318685.457261-.6212381.38-1l-.8-3.988 4.982-.83c.2722932-.0454424.5136882-.2014262.667-.431l1.323-1.986 3.138 3.138c.3246269.3245423.8285183.3863948 1.222.15l2.932-1.753-1.414 5.658c-.0849609.3405678.0148568.7007466.263.949l4.448 4.448z"/></g></g></g></svg>