<svg height="512" viewBox="0 0 60 60" width="512" xmlns="http://www.w3.org/2000/svg"><g id="Page-1" fill="none" fill-rule="evenodd"><g id="048---Rabbit-in-Eggshell" fill-rule="nonzero"><g id="Icons" transform="translate(1 1)"><path id="Shape" d="m43.84 8.52-1.14-.25-3.42-.76-2.28-.51-3 4-5-3-5 3-3-4-2.28.51-3.42.76-1.14.25c.34-.44.69-.87 1.06-1.29 3.84-4.42 8.61-7.23 13.78-7.23s9.94 2.81 13.78 7.23c.37.42.72.85 1.06 1.29z" fill="#ffeb3a"/><path id="Shape" d="m42.78 7.23c-3.84-4.42-8.61-7.23-13.78-7.23-.5011746.00283515-1.0018582.0318748-1.5.087 4.591.484 8.815 3.154 12.28 7.143.137.156.261.32.393.478l2.527.562 1.14.25c-.34-.44-.69-.87-1.06-1.29z" fill="#fdd834"/><path id="Shape" d="m45.43 51.32c-4.3175601 4.4024708-10.2653194 6.8206712-16.43 6.68-6.1646806.1406712-12.1124399-2.2775292-16.43-6.68l4.43-3.32 4 3 4-3 4 3 4-3 4 3 4-3z" fill="#ff9801"/><path id="Shape" d="m41 48-1.5 1.125 2.929 2.2c-3.9457655 4.0341118-9.2898562 6.3992004-14.929 6.607.5.029.993.068 1.5.068 6.1646806.1406712 12.1124399-2.2775292 16.43-6.68z" fill="#f57c00"/><path id="Shape" d="m51.68 37.68c-.5720878 5.0977658-2.7624951 9.8781108-6.25 13.64l-4.43-3.32-4 3-4-3-4 3-4-3-4 3-4-3-4.43 3.32c-3.4875049-3.7618892-5.67791221-8.5422342-6.25-13.64l2.68-2.68 2.52 2.52 3.48 3.48 2.2-1.65c.8552608.4714416 1.824515.6964471 2.8.65.3143083.0005789.628316-.0194642.94-.06l3.06 3.06 5-4 5 4 3.06-3.06c.311684.0405358.6256917.0605789.94.06.975485.0464471 1.9447392-.1785584 2.8-.65l2.2 1.65 3.48-3.48 2.52-2.52z" fill="#ffdc00"/><path id="Shape" d="m49 35-1.5 1.5 1.18 1.18c-.526433 4.4816352-2.2763528 8.7318852-5.058 12.285l1.808 1.355c3.4875049-3.7618892 5.6779122-8.5422342 6.25-13.64z" fill="#fec108"/><path id="Shape" d="m49 27c-.5389934-.5436002-1.2417238-.8949654-2-1-.0128985 1.2462861-.1198692 2.4898199-.32 3.72-.03.17-.06.35-.1.52-.4158053 1.1801991-1.2824142 2.1474928-2.41 2.69-.997955.5137881-2.0833533.8360157-3.2.95-.6209587-1.0766014-1.7312343-1.7794022-2.97-1.88-1.49 0-2.78 1.26-3.47 2.76-1.6.15-3.43.24-5.53.24s-3.93-.09-5.53-.24c-.69-1.5-1.98-2.76-3.47-2.76-1.2387657.1005978-2.3490413.8033986-2.97 1.88-1.1166467-.1139843-2.202045-.4362119-3.2-.95-1.1275858-.5425072-1.9941947-1.5098009-2.41-2.69-.04-.17-.07-.35-.1-.52-.2001308-1.2301801-.3071015-2.4737139-.32-3.72-.7582762.1050346-1.46100658.4563998-2 1 0-6 3-8 6-11 2.13-2.13 3.25-6.26 3.72-8.49l2.28-.51 3 4 5-3 5 3 3-4 2.28.51c.47 2.23 1.59 6.36 3.72 8.49 3 3 6 5 6 11z" fill="#f5f5f5"/><path id="Shape" d="m43 16c-2.13-2.13-3.25-6.26-3.72-8.49l-2.28-.51-.642.856c.507 2.287 1.612 6.114 3.642 8.144 3 3 6 5 6 11-.5389934-.5436002-1.2417238-.8949654-2-1-.0128985 1.2462861-.1198692 2.4898199-.32 3.72-.03.17-.06.35-.1.52-.4158053 1.1801991-1.2824142 2.1474928-2.41 2.69-.2249596.1220437-.4566657.2312193-.694.327.1792556.1956692.3443403.4038631.494.623 1.1166467-.1139843 2.202045-.4362119 3.2-.95 1.1275858-.5425072 1.9941947-1.5098009 2.41-2.69.04-.17.07-.35.1-.52.2001308-1.2301801.3071015-2.4737139.32-3.72.7582762.1050346 1.4610066.4563998 2 1 0-6-3-8-6-11z" fill="#cfd8dc"/><path id="Shape" d="m18.72 7.51c-.47 2.23-1.59 6.36-3.72 8.49-3 3-6 5-6 11 .53899342-.5436002 1.2417238-.8949654 2-1 .0128985 1.2462861.1198692 2.4898199.32 3.72-1.52 1.53-3.74 3.28-6.32 3.28-2 0-5-.03-5-7 0-8.14 8.87-14.95 15.3-17.73z" fill="#f5f5f5"/><path id="Shape" d="m15.561 8.212c-.54 2.313-1.635 5.862-3.561 7.788-3 3-6 5-6 11 .53899342-.5436002 1.24172379-.8949654 2-1 .01289854 1.2462861.1198692 2.4898199.32 3.72-1.36449194 1.5021777-3.12591035 2.5879408-5.081 3.132.57942325.1164124 1.17027448.1660694 1.761.148 2.58 0 4.8-1.75 6.32-3.28-.2001308-1.2301801-.3071015-2.4737139-.32-3.72-.7582762.1050346-1.46100658.4563998-2 1 0-6 3-8 6-11 2.13-2.13 3.25-6.26 3.72-8.49z" fill="#cfd8dc"/><path id="Shape" d="m58 26c0 6.97-3 7-5 7-2.58 0-4.8-1.75-6.32-3.28.2001308-1.2301801.3071015-2.4737139.32-3.72.7582762.1050346 1.4610066.4563998 2 1 0-6-3-8-6-11-2.13-2.13-3.25-6.26-3.72-8.49l3.42.76c6.43 2.78 15.3 9.59 15.3 17.73z" fill="#f5f5f5"/><path id="Shape" d="m42.7 8.27-3.42-.76c.045.213.1.457.159.7l.261.058c6.43 2.782 15.3 9.592 15.3 17.732 0 5.087-1.6 6.472-3.239 6.852.4066254.0928871.8219365.1424965 1.239.148 2 0 5-.03 5-7 0-8.14-8.87-14.95-15.3-17.73z" fill="#cfd8dc"/><path id="Shape" d="m42 37c.0541473.9426475-.4046552 1.8411357-1.2 2.35-.8552608.4714416-1.824515.6964471-2.8.65-.3143083.0005789-.628316-.0194642-.94-.06-1.76-.2-3.06-1.06-3.06-2.94.0146499-.7759509.1953722-1.5397581.53-2.24.69-1.5 1.98-2.76 3.47-2.76 1.2387657.1005978 2.3490413.8033986 2.97 1.88.6382317.9183093.9960543 2.0021989 1.03 3.12z" fill="#f5f5f5"/><path id="Shape" d="m40.97 33.88c-.6209587-1.0766014-1.7312343-1.7794022-2.97-1.88-.530881.0091722-1.0493152.1622831-1.5.443.5885189.3665927 1.0901418.8569548 1.47 1.437.6382317.9183093.9960543 2.0021989 1.03 3.12.0541473.9426475-.4046552 1.8411357-1.2 2.35-.3943667.2390607-.8270594.4082134-1.279.5.175.036.353.069.539.09.311684.0405358.6256917.0605789.94.06.975485.0464471 1.9447392-.1785584 2.8-.65.7953448-.5088643 1.2541473-1.4073525 1.2-2.35-.0339457-1.1178011-.3917683-2.2016907-1.03-3.12z" fill="#cfd8dc"/><path id="Shape" d="m37.06 39.94-3.06 3.06-5-4-5 4-3.06-3.06c1.76-.2 3.06-1.06 3.06-2.94-.0146499-.7759509-.1953722-1.5397581-.53-2.24 1.6.15 3.43.24 5.53.24s3.93-.09 5.53-.24c-.3346278.7002419-.5153501 1.4640491-.53 2.24 0 1.88 1.3 2.74 3.06 2.94z" fill="#cfd8dc"/><path id="Shape" d="m24 37c0 1.88-1.3 2.74-3.06 2.94-.311684.0405358-.6256917.0605789-.94.06-.975485.0464471-1.9447392-.1785584-2.8-.65-.7953448-.5088643-1.2541473-1.4073525-1.2-2.35.0339457-1.1178011.3917683-2.2016907 1.03-3.12.6209587-1.0766014 1.7312343-1.7794022 2.97-1.88 1.49 0 2.78 1.26 3.47 2.76.3346278.7002419.5153501 1.4640491.53 2.24z" fill="#f5f5f5"/><g fill="#cfd8dc"><path id="Shape" d="m23.47 34.76c-.69-1.5-1.98-2.76-3.47-2.76-.5309578.0086708-1.0495231.1618205-1.5.443.8709266.5610053 1.5563699 1.3671841 1.97 2.317.3346278.7002419.5153501 1.4640491.53 2.24.0483008 1.4681774-1.0579039 2.7187459-2.521 2.85.8100525.1630248 1.6412035.1934204 2.461.09 1.76-.2 3.06-1.06 3.06-2.94-.0146499-.7759509-.1953722-1.5397581-.53-2.24z"/><path id="Shape" d="m17.2 39.35-2.2 1.65-3.48-3.48c.4569376-1.6684551 1.2422766-3.2289338 2.31-4.59.997955.5137881 2.0833533.8360157 3.2.95-.6382317.9183093-.9960543 2.0021989-1.03 3.12-.0541473.9426475.4046552 1.8411357 1.2 2.35z"/><path id="Shape" d="m46.48 37.52-3.48 3.48-2.2-1.65c.7953448-.5088643 1.2541473-1.4073525 1.2-2.35-.0339457-1.1178011-.3917683-2.2016907-1.03-3.12 1.1166467-.1139843 2.202045-.4362119 3.2-.95 1.0677234 1.3610662 1.8530624 2.9215449 2.31 4.59z"/></g><path id="Shape" d="m44.17 32.93c-.7531008.3946351-1.5626482.6705559-2.4.818.7579733 1.1633482 1.3345687 2.43523 1.71 3.772l-2.194 2.194 1.714 1.286 3.48-3.48c-.4569376-1.6684551-1.2422766-3.2289338-2.31-4.59z" fill="#7f8e94"/><path id="Shape" d="m20 24h-1c-.5522847 0-1-.4477153-1-1s.4477153-1 1-1h1c.5522847 0 1 .4477153 1 1s-.4477153 1-1 1z" fill="#e91e63"/><path id="Shape" d="m39 24h-1c-.5522847 0-1-.4477153-1-1s.4477153-1 1-1h1c.5522847 0 1 .4477153 1 1s-.4477153 1-1 1z" fill="#e91e63"/></g><g id="Icons_copy" fill="#000"><path id="Shape" d="m45.758 9.138c-.0322003-.08184022-.0748905-.15915316-.127-.23-.353-.457-.716-.9-1.1-1.333-4.3-4.956-9.326-7.575-14.531-7.575s-10.231 2.619-14.53 7.569c-.385.436-.748.882-1.1 1.339-.0521095.07084684-.0947997.14815978-.127.23-5.697 2.916-14.243 9.422-14.243 17.862 0 8 4.053 8 6 8 2.19902918-.1133498 4.28515-1.0088709 5.882-2.525.3836553.6736046.9021229 1.2608382 1.523 1.725-.5170231.7835488-.9526192 1.6178829-1.3 2.49l-1.395-1.4c-.3904999-.3903819-1.02350015-.3903819-1.414 0l-2.68 2.68c-.22095424.2212934-.32566571.5332078-.283.843 1.777 12.873 11.067 21.187 23.667 21.187s21.89-8.314 23.67-21.184c.0426657-.3097922-.0620458-.6217066-.283-.843l-2.68-2.68c-.3904999-.3903819-1.0235001-.3903819-1.414 0l-1.395 1.4c-.3473908-.8727462-.7829828-1.7077427-1.3-2.492.6200804-.4639882 1.1370028-1.0517406 1.518-1.726 1.597414 1.5164911 3.684292 2.4120327 5.884 2.525 1.947 0 6 0 6-8 0-8.44-8.546-14.946-14.242-17.862zm-15.758-7.138c5.215 0 9.349 3.005 12.119 5.893l-3.9-.869c-.384064-.08612959-.7829308.06104795-1.019.376l-2.459 3.279-4.226-2.536c-.3169325-.1904131-.7130675-.1904131-1.03 0l-4.226 2.536-2.459-3.279c-.2359018-.31457168-.6342556-.46170432-1.018-.376l-3.9.869c2.765-2.885 6.901-5.893 12.118-5.893zm-28 25c0-7.646 8.725-14.208 14.632-16.783l1.745-.387c-.539 2.029-1.527 4.906-3.084 6.463-.376.376-.752.735-1.122 1.09-2.659 2.547-5.171 4.952-5.171 10.617.00166161.4018897.24375628.7637369.61460537.918621.37084908.154884.79838883.0727076 1.08539463-.208621.1095771-.1049171.2265444-.2018328.35-.29.035.559.1 1.235.2 1.936-1.837 1.744-3.602 2.644-5.25 2.644-1.875 0-4 0-4-6zm13.157 8.186c.4371367.1700928.8859666.3084514 1.343.414-.3197617.7603067-.4895426 1.575255-.5 2.4-.0173933.7999926.2208161 1.5846826.68 2.24l-.586.44-2.428-2.428c.3534624-1.0857749.8552036-2.1175245 1.491-3.066zm10.843 2.814c-.0023606-.3788523-.0412066-.7565965-.116-1.128 1.3.084 2.679.128 4.116.128s2.813-.044 4.116-.128c-.0747934.3714035-.1136394.7491477-.116 1.128-.0611394 1.4792506.7923281 2.8442425 2.149 3.437l-1.223 1.223-4.3-3.441c-.3653328-.2925003-.8846672-.2925003-1.25 0l-4.3 3.441-1.223-1.223c1.3558879-.5933798 2.2084743-1.9582328 2.147-3.437zm16 0c0 .495 0 2-3 2s-3-1.505-3-2c0-1.746 1.455-4 3-4s3 2.254 3 4zm-21 2c-3 0-3-1.505-3-2 0-1.746 1.455-4 3-4s3 2.254 3 4c0 .495 0 2-3 2zm-5.865 12.4 2.865-2.15 3.4 2.55c.3555556.2666667.8444444.2666667 1.2 0l3.4-2.55 3.4 2.55c.3555556.2666667.8444444.2666667 1.2 0l3.4-2.55 3.4 2.55c.3555556.2666667.8444444.2666667 1.2 0l3.4-2.55 2.865 2.15c-4.0485391 3.7119762-9.3735977 5.7180527-14.865 5.6-5.4914023.1180527-10.8164609-1.8880238-14.865-5.6zm34.865-14.986 1.617 1.617c-.6140144 4.4003639-2.4714605 8.5339968-5.354 11.915l-3.663-2.746c-.3555556-.2666667-.8444444-.2666667-1.2 0l-3.4 2.55-3.4-2.55c-.3555556-.2666667-.8444444-.2666667-1.2 0l-3.4 2.55-3.4-2.55c-.3555556-.2666667-.8444444-.2666667-1.2 0l-3.4 2.55-3.4-2.55c-.3555556-.2666667-.8444444-.2666667-1.2 0l-3.663 2.746c-2.8825395-3.3810032-4.7399856-7.5146361-5.354-11.915l1.617-1.617 5.293 5.293c.3518492.3518644.9088739.3914997 1.307.093l1.726-1.295c.8489114.3433643 1.7584293.5117305 2.674.495.194 0 .368-.023.552-.034l2.741 2.741c.3602699.3604945.9340154.3923692 1.332.074l4.375-3.501 4.375 3.5c.3979846.3183692.9717301.2864945 1.332-.074l2.741-2.741c.184.011.358.034.552.034.9155707.0167305 1.8250886-.1516357 2.674-.495l1.726 1.296c.3981261.2984997.9551508.2588644 1.307-.093zm-6.094 3.266-.586-.44c.4591839-.6553174.6973933-1.4400074.68-2.24-.0110781-.822738-.1808498-1.6356046-.5-2.394.4577677-.1077748.9072464-.2481324 1.345-.42.6351146.9487226 1.136495 1.9804222 1.49 3.066zm2.724-9.75c-.3386245.9381416-1.0376668 1.7023367-1.942 2.123-.7129511.3674764-1.4804528.6176827-2.273.741-.8137491-1.0774536-2.0660554-1.735327-3.415-1.794-1.7757038.131808-3.3455021 1.2027491-4.116 2.808-1.516.126-3.151.192-4.884.192s-3.368-.066-4.884-.192c-.7704979-1.6052509-2.3402962-2.676192-4.116-2.808-1.3489446.058673-2.6012509.7165464-3.415 1.794-.7975283-.1250134-1.5697369-.3775766-2.287-.748-.8723035-.407603-1.5531381-1.1368127-1.9-2.035-.034-.139-.058-.285-.088-.464-.1913521-1.1729846-.2949727-2.358605-.31-3.547 0-.5522847-.4477153-1-1-1-.3016985.0032292-.6010158.0538465-.887.15.456-3.506 2.251-5.225 4.442-7.323.38-.364.766-.733 1.152-1.12 2.125-2.124 3.286-5.921 3.849-8.361l1.032-.229 2.612 3.483c.3076581.4100708.8755904.521066 1.315.257l4.485-2.691 4.485 2.691c.4394096.264066 1.0073419.1530708 1.315-.257l2.612-3.483 1.032.229c.563 2.44 1.724 6.237 3.849 8.361.386.387.772.756 1.152 1.12 2.191 2.1 3.986 3.817 4.443 7.323-.2863511-.0960638-.5859832-.1466773-.888-.15-.5522847 0-1 .4477153-1 1-.0142798 1.2014486-.1185718 2.4001382-.312 3.586-.024.14-.048.286-.058.344zm7.37 2.07c-1.647 0-3.413-.9-5.251-2.644.1-.7.162-1.375.2-1.936.1221269.0871672.2377642.183086.346.287.2861786.2844828.7152951.3690913 1.08804.2145279.3727449-.1545635.6160703-.5180086.61696-.9215279 0-5.665-2.512-8.07-5.171-10.617-.37-.355-.746-.714-1.122-1.09-1.557-1.557-2.545-4.434-3.084-6.463l1.745.387c5.907 2.575 14.632 9.137 14.632 16.783 0 6-2.125 6-4 6z"/><path id="Shape" d="m26 22c.5522847 0 1-.4477153 1-1 0-1.6568542-1.3431458-3-3-3s-3 1.3431458-3 3c0 .5522847.4477153 1 1 1s1-.4477153 1-1 .4477153-1 1-1 1 .4477153 1 1 .4477153 1 1 1z"/><path id="Shape" d="m39 21c0-1.6568542-1.3431458-3-3-3s-3 1.3431458-3 3c0 .5522847.4477153 1 1 1s1-.4477153 1-1 .4477153-1 1-1 1 .4477153 1 1 .4477153 1 1 1 1-.4477153 1-1z"/><path id="Shape" d="m34 25c-.5522847 0-1 .4477153-1 1-.0114174.4050817-.2640764.7640291-.6415552.9114443-.3774789.1474152-.806527.0546919-1.0894448-.2354443-.0532552-.0543231-.0989951-.1155338-.136-.182-.0871567-.150042-.1330441-.3204809-.133-.494v-2c.5522847 0 1-.4477153 1-1s-.4477153-1-1-1h-2c-.5522847 0-1 .4477153-1 1s.4477153 1 1 1v2c0 .5522847-.4477153 1-1 1s-1-.4477153-1-1-.4477153-1-1-1-1 .4477153-1 1c-.0040501 1.18507.6928725 2.2604605 1.776229 2.7408208 1.0833564.4803602 2.3482377.2748335 3.223771-.5238208.5438464.5042321 1.258368.7839673 2 .783 1.6568542 0 3-1.3431458 3-3 0-.2652165-.1053568-.5195704-.2928932-.7071068s-.4418903-.2928932-.7071068-.2928932z"/><path id="Shape" d="m21 23h-1c-.5522847 0-1 .4477153-1 1s.4477153 1 1 1h1c.5522847 0 1-.4477153 1-1s-.4477153-1-1-1z"/><path id="Shape" d="m40 23h-1c-.5522847 0-1 .4477153-1 1s.4477153 1 1 1h1c.5522847 0 1-.4477153 1-1s-.4477153-1-1-1z"/></g></g></g></svg>