<svg height="512" viewBox="0 0 60 60" width="512" xmlns="http://www.w3.org/2000/svg"><g id="Page-1" fill="none" fill-rule="evenodd"><g id="019---Happy-Sheep" fill-rule="nonzero"><g id="Icons" transform="translate(1 1)"><path id="Shape" d="m50 37c0 5.7-2.03 9.62-4.87 12.31-1.0942552 1.0306781-2.3178387 1.9147509-3.64 2.63-3.8658621 1.985081-8.1443443 3.033292-12.49 3.06-4.3456557-.026708-8.6241379-1.074919-12.49-3.06-1.3221613-.7152491-2.5457448-1.5993219-3.64-2.63-2.84-2.69-4.87-6.61-4.87-12.31-.01028737-3.0405318.2237995-6.0769728.7-9.08.27313996-1.7114367.63698576-3.4071584 1.09-5.08.4721671-1.7431057 1.0841511-3.4452907 1.83-5.09.4412898.1654011.9087313.2500826 1.38.25.943357-.0025811 1.8560835-.3351249 2.58-.94.7930744 1.3261657 2.2811645 2.0744881 3.8186662 1.9203097 1.5375016-.1541784 2.8473746-1.1830766 3.3613338-2.6403097.4499392.6305647 1.0761506 1.1141391 1.8 1.39-.8103193 1.5457862-.7495105 3.4035169.1601618 4.8930029.9096724 1.4894861 2.5346023 2.3919626 4.2798382 2.3769971 6 0 7-3 7-5v-3.36c.8018073.9149469 1.9772303 1.4141027 3.1923885 1.3556816 1.2151583-.0584211 2.337275-.6680355 3.0476115-1.6556816.5601361 1.5960377 2.0685276 2.6631444 3.76 2.66.2963029.0024708.5918064-.0311091.88-.1.5187643 1.2866523.962836 2.602173 1.33 3.94.4530142 1.6728416.81686 3.3685633 1.09 5.08.4762005 3.0030272.7102874 6.0394682.7 9.08z" fill="#ffe0b2"/><g fill="#dfc49c"><path id="Shape" d="m49.3 27.92c-.27314-1.7114367-.6369858-3.4071584-1.09-5.08-.367164-1.337827-.8112357-2.6533477-1.33-3.94-.2881936.0688909-.5836971.1024708-.88.1-1.6914724.0031444-3.1998639-1.0639623-3.76-2.66-.507218.7083658-1.2347647 1.2287956-2.069 1.48.7471332.7560073 1.7661011 1.1810275 2.829 1.18.2963029.0024708.5918064-.0311091.88-.1.5187643 1.2866523.962836 2.602173 1.33 3.94.4530142 1.6728416.81686 3.3685633 1.09 5.08.4762005 3.0030272.7102874 6.0394682.7 9.08 0 5.7-2.03 9.62-4.87 12.31-1.0942552 1.0306781-2.3178387 1.9147509-3.64 2.63-3.4108431 1.7647145-7.1558488 2.7893944-10.99 3.007.566.037 1.076.053 1.5.053 4.3456557-.026708 8.6241379-1.074919 12.49-3.06 1.3221613-.7152491 2.5457448-1.5993219 3.64-2.63 2.84-2.69 4.87-6.61 4.87-12.31.0102874-3.0405318-.2237995-6.0769728-.7-9.08z"/><path id="Shape" d="m16.51 51.94c-1 3.75-3.47 6.06-6.51 6.06-4 0-10-2-10-11 .12224654-5.4610935 1.13558461-10.8655632 3-16 1.19-3.57 4.62-9.63 5.68-11.46.50061637 1.0516609.87327825 2.1595746 1.11 3.3-1.22543347 4.6190604-1.82743934 9.3812968-1.79 14.16 0 7.94 3.94 12.43 8.51 14.94z"/><path id="Shape" d="m58 47c0 9-6 11-10 11-3.04 0-5.51-2.31-6.51-6.06 4.57-2.51 8.51-7 8.51-14.94.0374393-4.7787032-.5645665-9.5409396-1.79-14.16.2367218-1.1404254.6093836-2.2483391 1.11-3.3 1.06 1.83 4.49 7.89 5.68 11.46 1.8644154 5.1344368 2.8777535 10.5389065 3 16z"/></g><path id="Shape" d="m54 15c0 1.6568542-1.3431458 3-3 3-.2852459.0031852-.5690613-.0407386-.84-.13-.29.54-.58 1.1-.84 1.67-.5006164 1.0516609-.8732782 2.1595746-1.11 3.3-.367164-1.337827-.8112357-2.6533477-1.33-3.94-.2881936.0688909-.5836971.1024708-.88.1-1.6914724.0031444-3.1998639-1.0639623-3.76-2.66-.7103365.9876461-1.8324532 1.5972605-3.0476115 1.6556816-1.2151582.0584211-2.3905812-.4407347-3.1923885-1.3556816v3.36c0 2-1 5-7 5-1.7452359.0149655-3.3701658-.887511-4.2798382-2.3769971-.9096723-1.489486-.9704811-3.3472167-.1601618-4.8930029-.7238494-.2758609-1.3500608-.7594353-1.8-1.39-.5139592 1.4572331-1.8238322 2.4861313-3.3613338 2.6403097-1.5375017.1541784-3.0255918-.594144-3.8186662-1.9203097-.7239165.6048751-1.636643.9374189-2.58.94-.4712687.0000826-.9387102-.0845989-1.38-.25-.7458489 1.6447093-1.3578329 3.3468943-1.83 5.09-.23672175-1.1404254-.60938363-2.2483391-1.11-3.3-.26-.57-.55-1.13-.84-1.67-.27093872.0892614-.55475407.1331852-.84.13-1.30073531.0003081-2.45348558-.8376385-2.85454563-2.0749999-.40106006-1.2373615.04094996-2.5922101 1.09454563-3.3550001-.15694431-.5086438-.23781884-1.0376981-.24-1.57 0-1.65685425 1.34314575-3 3-3 .00026141-1.47747229.81493976-2.83448472 2.1188235-3.52933125 1.3038837-.69484654 2.8846131-.61435959 4.1111765.20933125.39541-1.13845718 1.2843244-2.037119 2.4184018-2.4449208 1.1340773-.4078018 2.3917294-.28102176 3.4215982.3449208.979132-1.41543493 2.5202177-2.34084781 4.2297547-2.53994283 1.709537-.19909501 3.4220431.34740013 4.7002453 1.49994283 1.2782022-1.1525427 2.9907083-1.69903784 4.7002453-1.49994283 1.709537.19909502 3.2506227 1.1245079 4.2297547 2.53994283 1.0298688-.62594256 2.2875209-.7527226 3.4215982-.3449208 1.1340774.4078018 2.0229918 1.30646362 2.4184018 2.4449208 1.2265634-.82369084 2.8072928-.90417779 4.1111765-.20933125 1.3038837.69484653 2.1185621 2.05185896 2.1188235 3.52933125 1.6568542 0 3 1.34314575 3 3-.0021812.5323019-.0830557 1.0613562-.24 1.57.7800475.5634698 1.241479 1.4677265 1.24 2.43z" fill="#f5f5f5"/><path id="Shape" d="m52.76 12.57c.1569443-.5086438.2378188-1.0376981.24-1.57 0-1.65685425-1.3431458-3-3-3 .007383-1.33043776-.6510046-2.57644006-1.7542887-3.3200013-1.1032842-.74356124-2.5053031-.88617541-3.7357113-.3799987 1.5043413.61326357 2.4883596 2.07545938 2.49 3.7 1.6568542 0 3 1.34314575 3 3-.0021812.5323019-.0830557 1.0613562-.24 1.57 1.0535957.76279 1.4956057 2.1176386 1.0945456 3.3550001-.40106 1.2373614-1.5538103 2.075308-2.8545456 2.0749999-.2852459.0031852-.5690613-.0407386-.84-.13-.187.348-.362.714-.541 1.076.087-.014.176-.025.261-.046.5187643 1.2866523.962836 2.602173 1.33 3.94.2367218-1.1404254.6093836-2.2483391 1.11-3.3.26-.57.55-1.13.84-1.67.2709387.0892614.5547541.1331852.84.13 1.3007353.0003081 2.4534856-.8376385 2.8545456-2.0749999.4010601-1.2373615-.0409499-2.5922101-1.0945456-3.3550001z" fill="#cfd8dc"/><path id="Shape" d="m33 20c0 1.766-.785 4.307-5.1 4.88.3616646.0770994.7302185.1173053 1.1.12 6 0 7-3 7-5v-2c-1.1503547.0052645-2.2458212-.491347-3-1.36z" fill="#cfd8dc"/><path id="Shape" d="m12.87 49.31c.01 1.61-1 4.69-2.87 4.69-6 0-6-5.27-6-7 .12171195-5.0291656 1.06412074-10.0046787 2.79-14.73.54333121-1.4892151 1.18129855-2.9421774 1.91-4.35-.4762005 3.0030272-.71028737 6.0394682-.7 9.08 0 5.7 2.03 9.62 4.87 12.31z" fill="#ef314c"/><path id="Shape" d="m54 47c0 1.73 0 7-6 7-1.87 0-2.88-3.08-2.87-4.69 2.84-2.69 4.87-6.61 4.87-12.31.0102874-3.0405318-.2237995-6.0769728-.7-9.08.7287015 1.4078226 1.3666688 2.8607849 1.91 4.35 1.7258793 4.7253213 2.6682881 9.7008344 2.79 14.73z" fill="#ef314c"/><path id="Shape" d="m33 43.83v2.17c0 2.209139-1.790861 4-4 4s-4-1.790861-4-4v-2.17c.3218508.110748.6596329.168171 1 .17 1.2791476-.1013664 2.4144512-.8582354 3-2 .5855488 1.1417646 1.7208524 1.8986336 3 2 .3403671-.001829.6781492-.059252 1-.17z" fill="#ef314c"/></g><g id="Icons_copy" fill="#000"><path id="Shape" d="m11 60c3.163 0 5.807-2.143 7.109-5.664 7.5294388 3.5520375 16.2525612 3.5520375 23.782 0 1.302 3.521 3.946 5.664 7.109 5.664 5.317 0 11-3.152 11-12-.1252753-5.568242-1.1560873-11.0789658-3.052-16.316-1.5377071-3.8662418-3.376695-7.60574-5.5-11.184.083-.171.165-.347.249-.511.1.008.2.011.3.011 1.6056712.0003858 3.0559518-.9594058 3.683164-2.4375076.6272123-1.4781018.3097776-3.1879992-.806164-4.3424924.0822192-.4015027.1244257-.8101684.126-1.22-.0020862-1.854055-1.2761563-3.46443003-3.08-3.893-.2653391-1.46291294-1.1679599-2.73186003-2.4628721-3.46242245s-2.847782-.84695177-4.2371279-.31757755c-.9144736-1.44808916-2.5073343-2.32642729-4.22-2.327-.6105971-.0021788-1.2162587.10939045-1.786.329-2.3585153-2.63661372-6.3153336-3.09482135-9.214-1.067-2.8986664-2.02782135-6.8554847-1.56961372-9.214 1.067-.5697413-.21960955-1.1754029-.3311788-1.786-.329-1.7133765-.00011343-3.3071468.87830994-4.222 2.327-1.3893459-.52937422-2.9422157-.41298487-4.2371279.31757755-1.29491222.73056242-2.19753298 1.99950951-2.4628721 3.46242245-1.80304921.4293591-3.07613466 2.0395351-3.078 3.893.0005869.4097319.04178835.8183966.123 1.22-1.11594157 1.1544932-1.43337626 2.8643906-.80616403 4.3424924.62721224 1.4781018 2.07749281 2.4378934 3.68316403 2.4375076.1 0 .2 0 .3-.011.084.164.166.34.249.511-2.12330501 3.57826-3.9622929 7.3177582-5.5 11.184-1.89489 5.237205-2.92468786 10.7479239-3.049 16.316 0 8.848 5.683 12 11 12zm-1-22c-.03600804-4.6876868.5535255-9.3592271 1.753-13.891.3920321-1.4202996.871616-2.8149671 1.436-4.176 1.0827206.1743693 2.1927732-.0088841 3.162-.522 1.0076345 1.0827387 2.4436773 1.6626749 3.9206175 1.5833152 1.4769403-.0793597 2.8425712-.8098369 3.7283825-1.9943152.084.063.178.114.266.172-.1954747.5703329-.2951564 1.1690988-.295 1.772-.0185631 1.6070804.6097933 3.1541402 1.7437047 4.2931296 1.1339114 1.1389895 2.678148 1.7742523 4.2852953 1.7628704 7.221 0 8-4.2 8-6v-1.42c1.6492303.7230086 3.5600754.5013505 5-.58.9999845 1.3170634 2.5795514 2.0635506 4.232 2 .372.985.712 2.028 1.011 3.109 1.2010469 4.5315472 1.7919298 9.2031205 1.757 13.891 0 16.523-17.953 17-20 17s-20-.477-20-17zm2.854 12.648c-.0784229 1.1009628-.4923374 2.1514539-1.186 3.01-.1622492.2058249-.4061584.3307006-.668.342-4.432 0-5-3.207-5-6 .06697486-4.1667155.75625375-8.3000293 2.045-12.263-.027.749-.045 1.501-.045 2.263-.18039372 4.7025069 1.57386731 9.2735604 4.854 12.648zm39.1-14.912c1.2890673 3.963267 1.9786818 8.0969089 2.046 12.264 0 2.793-.568 6-5 6-.2618416-.0112994-.5057508-.1361751-.668-.342-.6936626-.8585461-1.1075771-1.9090372-1.186-3.01 3.2801327-3.3744396 5.0343937-7.9454931 4.854-12.648 0-.762-.018-1.515-.045-2.264zm3.1-3.42c1.8234677 5.034349 2.8183837 10.3311112 2.946 15.684 0 9.025-6.294 10-9 10-2.4 0-4.344-1.73-5.323-4.641.5951686-.3616499 1.170342-.7552247 1.723-1.179.2563562 1.0741139.7775323 2.0669612 1.516 2.888.5398194.5800251 1.2917954.9163214 2.084.932 3.193 0 7-1.388 7-8-.1201966-5.1360486-1.0798719-10.2178348-2.841-15.044-.5363832-1.4856262-1.1690585-2.9346997-1.894-4.338-.2666667-1.642-.6083333-3.2363333-1.025-4.783.072-.328.153-.651.251-.967 1.7559039 3.0300801 3.2805689 6.1883865 4.561 9.448zm-47.054-14.316c-.86708002.0007636-1.63589009-.5572756-1.90385649-1.3819103-.26796639-.8246347.02595461-1.7280101.72785649-2.2370897.34636057-.2494784.49617984-.6913047.373-1.1-.12910504-.4148042-.19550481-.8465712-.197-1.281 0-1.1045695.8954305-2 2-2 .55228475 0 1-.44771525 1-1 .000072-1.10827258.6111507-2.12622627 1.5892352-2.64739691s2.1638265-.46064977 3.0837648.15739691c.2570018.17207245.5791626.21554114.8725786.1177358.293416-.09780535.5250634-.32587675.6274214-.6177358.4171824-1.20437742 1.5524162-2.01152985 2.827-2.01.547669-.00177531 1.0850347.14883941 1.552.435.4522848.27436561 1.0400084.14901965 1.341-.286.8150757-1.1785169 2.0979582-1.94920856 3.5212087-2.11536612s2.8491627.28829553 3.9137913 1.24736612c.3812205.34593181.9627795.34593181 1.344 0 1.0646286-.95907059 2.4905408-1.41352368 3.9137913-1.24736612s2.706133.93684922 3.5212087 2.11536612c.3009916.43501965.8887152.56036561 1.341.286.4669653-.28616059 1.004331-.43677531 1.552-.435 1.2726976-.00069341 2.4061566.80484915 2.824 2.007.102358.29185905.3340054.51993045.6274214.6177358.293416.09780534.6155768.05433665.8725786-.1177358.9204781-.62002282 2.1080552-.68121685 3.0873866-.1590883.9793313.52212855 1.5903987 1.54226626 1.5886134 2.6520883 0 .55228475.4477153 1 1 1 1.1045695 0 2 .8954305 2 2-.002566.4342446-.0699763.8656707-.2 1.28-.1231798.4086953.0266394.8505216.373 1.1.7023473.5084907.9970341 1.4116367.7297484 2.2365081s-1.035653 1.3835527-1.9027484 1.3834919c-.1739311.0029131-.3471825-.0224161-.513-.075-.4631469-.1602721-.9741973.0387285-1.207.47-.361.67-.734 1.412-1.075 2.2-.132-.359-.258-.729-.4-1.075-.1874155-.4619592-.6864584-.7153194-1.17-.594-.2078524.050495-.4211062.0753467-.635.074-1.2658536.0031622-2.3951782-.7947869-2.815-1.989-.1227915-.3533184-.4324988-.6085698-.802766-.6616155s-.7391825.1049841-.956234.4096155c-.495112.6924844-1.2638982 1.1388504-2.11075 1.2255255-.8468518.086675-1.6901218-.1946974-2.31525-.7725255v-1.212c0-.5522847-.4477153-1-1-1s-1 .4477153-1 1v5c0 2.654-2.019 4-6 4-1.0794579.019401-2.120061-.4026632-2.8810182-1.1685286-.7609573-.7658654-1.1763224-1.8091606-1.1499818-2.8884714-.053199-.8113815.2522746-1.6052482.8356461-2.1716825s1.3858914-.8483923 2.1953539-.7713175c.5522847 0 1-.4477153 1-1s-.4477153-1-1-1c-1.3819433-.0594543-2.7250355.4658036-3.7 1.447-.2784145-.1861395-.5226575-.4188808-.722-.688-.2171787-.3040648-.5857614-.4616824-.955641-.4086621-.3698795.0530203-.6793427.3078321-.802359.6606621-.3860494 1.0900112-1.3667363 1.8591364-2.5173448 1.9742829-1.1506085.1151464-2.2642604-.4443891-2.8586552-1.4362829-.1492926-.2520138-.401572-.4259005-.6902159-.4757397s-.5846265.0293809-.8097841.2167397c-.827131.6905297-1.9588256.8896805-2.972.523-.4886462-.1824492-1.0354544.0413242-1.256.514-.217.465-.55 1.232-.926 2.257-.339-.786-.709-1.523-1.068-2.189-.23280272-.4312715-.74385306-.6302721-1.207-.47-.16645533.0527986-.34039969.0781303-.515.075zm-3.052 14.316c1.28043105-3.2596135 2.80509613-6.4179199 4.561-9.448.1.316.179.639.251.967-.414 1.5446667-.75566667 3.139-1.025 4.783-.72772124 1.4124111-1.36240573 2.8708493-1.9 4.366-1.75686649 4.8174271-2.71449152 9.8896308-2.835 15.016 0 6.612 3.807 8 7 8 .793253-.0148707 1.5464612-.3512339 2.087-.932.7373841-.8213581 1.2575149-1.8141789 1.513-2.888.551685.4236851 1.1258549.8172585 1.72 1.179-.976 2.911-2.92 4.641-5.32 4.641-2.706 0-9-.975-9-10 .12825841-5.352999 1.12385039-10.6497645 2.948-15.684z"/><path id="Shape" d="m36.451 42.112c-.491065-.2496781-1.0915738-.0551723-1.343.435-.416959.8050647-1.2072591 1.349802-2.108 1.453-.8353249-.0715695-1.5825567-.5479299-2-1.275v-1.915c.6363559-.2497616 1.2166306-.6236938 1.707-1.1.3714882-.391981.3646377-1.0081027-.0154743-1.3917268-.3801121-.3836241-.9961448-.3961407-1.3915257-.0282732-.3511209.3632656-.8045884.6109286-1.3.71-.49538-.0985528-.9489018-.3458967-1.3-.709-.3929089-.3784551-1.0166378-.3721707-1.4018415.0141242-.3852036.3862949-.3897235 1.0100391-.0101585 1.4018758.491573.4779393 1.0736137.852934 1.712 1.103v1.917c-.419439.7248469-1.1657434 1.1998696-2 1.273-.8966897-.1041252-1.6833649-.6461818-2.1-1.447-.1596977-.3197527-.4778505-.5300187-.8346134-.5515928-.3567628-.0215741-.6979349.1488214-.895.447-.1970651.2981787-.2200843.6788401-.0603866.9985928.445197.8214216 1.0987569 1.5111946 1.895 2v1.553c0 2.7614237 2.2385763 5 5 5s5-2.2385763 5-5v-1.55c.7980795-.4881211 1.4534206-1.1779538 1.9-2 .2435677-.4948826.0404385-1.093532-.454-1.338zm-3.451 4.888c0 1.6568542-1.3431458 3-3 3s-3-1.3431458-3-3v-1c1.1420139-.0156773 2.22714-.5010904 3-1.342.77286.8409096 1.8579861 1.3263227 3 1.342z"/><path id="Shape" d="m25 34c0 .5522847.4477153 1 1 1s1-.4477153 1-1c-.0000001-3.8659932-3.1340068-6.9999999-7-6.9999999s-6.9999999 3.1340067-7 6.9999999c0 .5522847.4477153 1 1 1s1-.4477153 1-1c0-2.7614237 2.2385763-5 5-5s5 2.2385763 5 5z"/><path id="Shape" d="m47 34c-.0000001-3.8659932-3.1340068-6.9999998-7-6.9999998s-6.9999999 3.1340066-7 6.9999998c0 .5522847.4477153 1 1 1s1-.4477153 1-1c.0000001-2.7614237 2.2385763-4.9999999 5-4.9999999s4.9999999 2.2385762 5 4.9999999c0 .5522847.4477153 1 1 1s1-.4477153 1-1z"/></g></g></g></svg>