<svg height="512" viewBox="0 0 54 60" width="512" xmlns="http://www.w3.org/2000/svg"><g id="Page-1" fill="none" fill-rule="evenodd"><g id="013---Happy-Chick" fill-rule="nonzero"><g id="Icons" transform="translate(1 1)"><path id="Shape" d="m34 7c-.22-.07-.44-.14-.64-.19-.01 0-.01-.01-.02-.01h-.01c-5.26-1.41-5.38 3.2-8.22 3.2-1.1043019.0096699-2.1650338-.43026222-2.9383422-1.21865955s-1.1926631-1.85743154-1.1616578-2.96134045c.0092485-.27923917.0597968-.55556961.15-.82.99-3 4.94-2 4.94-2s0-3 1.97-3c5.93 0 5.93 7 5.93 7z" fill="#ffeb3a"/><path id="Shape" d="m51.32 22.5c-1.0671316 2.8216528-2.9202241 5.278562-5.34 7.08-.31 11.77-9.13 19.42-19.98 19.42s-19.67-7.65-19.98-19.42c-2.41977588-1.801438-4.27286845-4.2583472-5.34-7.08-.85048609-2.9450937-.83660161-6.0725737.04-9.01.17332365-.6500132.66063308-1.1700465 1.2980267-1.3851919.63739362-.2151455 1.34017596-.0968151 1.8719733.3151919 1.90052545 1.4253489 3.48401964 3.2301917 4.65 5.3 2.63-5.62 7.12-10.13 12.47-11.9-.0310053 1.10390891.3883494 2.17294312 1.1616578 2.96134045s1.8340403 1.22832945 2.9383422 1.21865955c2.84 0 2.96-4.61 8.22-3.2h.01c.01 0 .01.01.02.01 4.4781134 2.42278884 8.0291802 6.2586442 10.1 10.91 1.1659804-2.0698083 2.7494745-3.8746511 4.65-5.3.5317973-.412007 1.2345797-.5303374 1.8719733-.3151919.6373936.2151454 1.1247031.7351787 1.2980267 1.3851919.8766016 2.9374263.8904861 6.0649063.04 9.01z" fill="#ffdc00"/><path id="Shape" d="m30.33 6.8h.01c.01 0 .01.01.02.01 4.4781134 2.42278884 8.0291802 6.2586442 10.1 10.91.4709956-.8725831 1.0302558-1.6945516 1.669-2.453-2.0779514-3.5809638-5.1151373-6.51008688-8.769-8.457-.01 0-.01-.01-.02-.01h-.01c-1.0475903-.33895054-2.1728004-.35567193-3.23-.048.081.019.149.026.23.048z" fill="#fec108"/><path id="Shape" d="m51.28 13.49c-.1733236-.6500132-.6606331-1.1700465-1.2980267-1.3851919-.6373936-.2151455-1.340176-.0968151-1.8719733.3151919-.095.073-.2.157-.294.235.2193599.2371181.3784982.5234985.464.835.8766016 2.9374263.8904861 6.0649063.04 9.01-1.0671316 2.8216528-2.9202241 5.278562-5.34 7.08-.3 11.221-8.33 18.68-18.48 19.354.5.033.994.066 1.5.066 10.85 0 19.67-7.65 19.98-19.42 2.4197759-1.801438 4.2728684-4.2583472 5.34-7.08.8504861-2.9450937.8366016-6.0725737-.04-9.01z" fill="#fec108"/><path id="Shape" d="m30 24s-.85 5.07-3.31 7.44c-.3862983.3682542-.9937017.3682542-1.38 0-2.46-2.37-3.31-7.44-3.31-7.44l3.55 1.89c.2812389.1500445.6187611.1500445.9 0z" fill="#ef314c"/><path id="Shape" d="m30 24-3.55 1.89c-.2812389.1500445-.6187611.1500445-.9 0l-3.55-1.89 3.4-2.55c.3544214-.2700476.8455786-.2700476 1.2 0z" fill="#ff9801"/></g><g id="Icons_copy" fill="#000"><path id="Shape" d="m53.245 14.227c-.2607265-.9722877-.9905258-1.7497053-1.9444163-2.0712865-.9538904-.3215813-2.0054111-.144693-2.8015837.4712865-1.5090601 1.1516481-2.8409201 2.5185482-3.953 4.057-1.9958776-3.7411215-4.9500048-6.88471312-8.56-9.109-.139-2.842-1.7-7.575-6.913-7.575-1.639 0-2.562 1.332-2.865 2.852-1.781-.125-4.184.353-5 2.835-.043955.13715596-.0800141.27671807-.108.418-5.0204323 2.02336642-9.1515854 5.7757034-11.647 10.579-1.11203403-1.5382-2.44390673-2.9047762-3.953-4.056-.79617264-.6159795-1.84769326-.7928678-2.80158375-.4712865-.95389049.3215812-1.68368976 1.0989988-1.94441625 2.0712865-.92970802 3.1279439-.93769371 6.4576326-.023 9.59 1.06293525 2.862633 2.89940422 5.3741471 5.305 7.255.1630661 8.0602244 5.0937766 15.2551649 12.552 18.316-.6374818 1.1716771-1.1109113 2.4254071-1.407 3.726-2.1.553-3.8 3.018-4.013 3.33-.306518.4595009-.1825009 1.080482.277 1.387s1.080482.1825009 1.387-.277c.4344702-.6290947.9442553-1.2026868 1.518-1.708-.2327811 1.034844-.3501641 2.0922978-.35 3.153 0 .5522847.4477153 1 1 1s1-.4477153 1-1c-.0018375-1.1874989.1710126-2.3688098.513-3.506.3254262.795217.4909137 1.6467811.487 2.506 0 .5522847.4477153 1 1 1s1-.4477153 1-1c0-1.833-.5-3.906-1.815-4.682.2709265-1.1461264.717542-2.2434379 1.324-3.253 4.2375566 1.2465853 8.7444434 1.2465853 12.982 0 .606458 1.0095621 1.0530735 2.1068736 1.324 3.253-1.315.776-1.815 2.849-1.815 4.682 0 .5522847.4477153 1 1 1s1-.4477153 1-1c-.0029596-.8595166.1639011-1.7111516.491-2.506.3411459 1.1372791.5126587 2.3186622.509 3.506 0 .5522847.4477153 1 1 1s1-.4477153 1-1c.0003446-1.0593358-.116703-2.1154476-.349-3.149.5722341.5035562 1.0815856 1.0743522 1.517 1.7.3067942.4595009.9279991.5832941 1.3875.2765.4595009-.3067942.5832942-.9279991.2765-1.3875-.208-.312-1.911-2.777-4.013-3.33-.2960887-1.3005929-.7695182-2.5543229-1.407-3.726 7.4558637-3.0602785 12.3857379-10.2522152 12.551-18.31 2.4064105-1.8815377 4.2432731-4.3941552 5.306-7.258.9138879-3.1321914.9055552-6.4614225-.024-9.589zm-30.138-7.914c.40848-1.00804034 1.4437972-1.61536077 2.523-1.48.4110724.00066497.82084.04626923 1.222.136.299315.07662386.6172414.01058746.8612832-.17889689.2440417-.18948435.3867909-.48113597.3867168-.79010311 0-.02.054-2 .976-2 3.434 0 4.475 2.893 4.79 4.665-3.241-.612-4.749.95-5.888 2.13-.743.769-1.2 1.205-1.866 1.205-1.000198.0172706-1.9448352-.45878763-2.526-1.273-.5290046-.68520278-.7063028-1.57872627-.479-2.414zm28.265 16.868c-1.0038663 2.6366331-2.7416837 4.9307048-5.008 6.611-.2353822.1839008-.3762305.4633967-.384.762-.28 10.688-8.264 18.446-18.98 18.446s-18.7-7.758-18.98-18.446c-.00776948-.2986033-.14861778-.5780992-.384-.762-2.26553137-1.679585-4.00295991-3.9725604-5.007-6.608-.78881497-2.7574073-.76937833-5.6833157.056-8.43.08704894-.3294796.33452948-.5927567.658-.7.3191173-.1084997.67147658-.0478909.936.161 1.78685534 1.340926 3.27763567 3.0363099 4.379 4.98.16891258.3427302.5265454.5510867.908.529.37876722-.0097823.7194754-.2327914.88-.576 2.1067096-4.8391685 5.921835-8.7329672 10.717-10.938.5899428 2.2444343 2.6253712 3.8041338 4.946 3.79 1.3137451-.0945181 2.5207939-.7577559 3.305-1.816 1.084-1.123 2.054-2.085 4.6-1.422 4.2328956 2.321378 7.5855696 5.9695455 9.542 10.383.1608096.3428192.5014599.5654032.88.575.3803675.0176007.735721-.1894279.908-.529 1.1013643-1.9436901 2.5921447-3.639074 4.379-4.98.2645234-.2088909.6168827-.2694997.936-.161.3232889.1072083.5704747.3705721.657.7.8255738 2.7469958.8450106 5.6732799.056 8.431z"/><path id="Shape" d="m23 21c.5522847 0 1-.4477153 1-1 0-1.6568542-1.3431458-3-3-3s-3 1.3431458-3 3c0 .5522847.4477153 1 1 1s1-.4477153 1-1 .4477153-1 1-1 1 .4477153 1 1 .4477153 1 1 1z"/><path id="Shape" d="m33 17c-1.6568542 0-3 1.3431458-3 3 0 .5522847.4477153 1 1 1s1-.4477153 1-1 .4477153-1 1-1 1 .4477153 1 1 .4477153 1 1 1 1-.4477153 1-1c0-1.6568542-1.3431458-3-3-3z"/><path id="Shape" d="m31.6 24.2-3.4-2.549c-.712102-.5303522-1.687898-.5303522-2.4 0l-3.4 2.549c-.2988497.2242896-.447726.5964801-.386.965.036.22.93 5.426 3.605 8 .7746807.7332241 1.9873193.7332241 2.762 0 2.675-2.573 3.569-7.778 3.6-8 .0628456-.3675427-.0840194-.7395234-.381-.965zm-4.6-.95 2.148 1.611-2.126 1.139-2.163-1.149zm0 8.467c-1.2010348-1.375302-2.0579241-3.0164162-2.5-4.788l1.585.842c.5732303.3052451 1.2607697.3052451 1.834 0l1.585-.842c-.4432482 1.7719549-1.3015251 3.413101-2.504 4.788z"/></g></g></g></svg>