<svg height="512" viewBox="0 0 61 56" width="512" xmlns="http://www.w3.org/2000/svg"><g id="Page-1" fill="none" fill-rule="evenodd"><g id="032---Winking-Sheep" fill-rule="nonzero" transform="translate(-1 -1)"><g id="Icons" transform="translate(1 2)"><path id="Shape" d="m50 15c-.0038574 3.3121094-2.6878906 5.9961426-6 6-1.0570401-.0011028-2.0951626-.2804646-3.01-.81-.0789106 2.610892-1.8400508 4.8698311-4.3528367 5.583197-2.5127858.713366-5.1981555-.2832336-6.6371633-2.463197-1.4390078 2.1799634-4.1243775 3.176563-6.6371633 2.463197-2.5127859-.7133659-4.2739261-2.972305-4.3528367-5.583197-.9148374.5295354-1.9529599.8088972-3.01.81-3.3111977-.0060539-5.9939461-2.6888023-6-6 0-3.3137085 2.6862915-6 6-6 .0336447-.00163868.0673461.00173146.1.01-.0634641-.33299962-.0969316-.67102061-.1-1.01-.0066523-2.15685989 1.374564-4.07335922 3.4227897-4.74927369 2.0482257-.67591448 4.2988266.04208517 5.5772103 1.77927369v-.03c0-2.76142375 2.2385763-5 5-5s5 2.23857625 5 5v.03c1.2783837-1.73718852 3.5289846-2.45518817 5.5772103-1.77927369 2.0482257.67591447 3.429442 2.5924138 3.4227897 4.74927369-.0030684.33897939-.0365359.67700038-.1 1.01.0326539-.00826854.0663553-.01163868.1-.01 3.3137085 0 6 2.6862915 6 6z" fill="#f5f5f5"/><path id="Shape" d="m44 9c-.0336447-.00163868-.0673461.00173146-.1.01.0634641-.33299962.0969316-.67102061.1-1.01 0-2.76142375-2.2385763-5-5-5-.5165982.00170801-1.0296499.08541645-1.52.248 2.0872473.64240884 3.5137137 2.56813855 3.52 4.752-.0030684.33897939-.0365359.67700038-.1 1.01.0326539-.00826854.0663553-.01163868.1-.01 3.3137085 0 6 2.6862915 6 6-.0048625 2.2436493-1.2576556 4.2982299-3.25 5.33-.3948035.2053504-.811864.3647259-1.243.475 2.2544992.5891716 4.6462273-.1802737 6.1342926-1.9734695s1.8033084-4.2857911.8085339-6.3929962c-.9947744-2.1072051-3.1196328-3.44787138-5.4498265-3.4385343z" fill="#cfd8dc"/><path id="Shape" d="m37.99 20.19c-.0858607 2.6640195-1.9188781 4.9520326-4.5 5.617 1.6265922.4209132 3.3551802.1394466 4.7642118-.7757584s2.3689968-2.3800281 2.6457882-4.0372416c-1.0224509-.0171308-2.0237821-.2937872-2.91-.804z" fill="#cfd8dc"/><path id="Shape" d="m50 37c0 14-11.58 17-20 17s-20-3-20-17c-.01357823-2.6497201.1971742-5.2958342.63-7.91.4626157-3.0274282 1.3444111-5.9757213 2.62-8.76.8489364.4425956 1.7926194.6725111 2.75.67 1.0570401-.0011028 2.0951626-.2804646 3.01-.81.0789106 2.610892 1.8400508 4.8698311 4.3528367 5.583197 2.5127858.713366 5.1981555-.2832336 6.6371633-2.463197 1.4390078 2.1799634 4.1243775 3.176563 6.6371633 2.463197 2.5127859-.7133659 4.2739261-2.972305 4.3528367-5.583197.9148374.5295354 1.9529599.8088972 3.01.81.9573806.0025111 1.9010636-.2274044 2.75-.67 1.2755889 2.7842787 2.1573843 5.7325718 2.62 8.76.4328258 2.6141658.6435782 5.2602799.63 7.91z" fill="#ffe0b2"/><path id="Shape" d="m49.37 29.09c-.4626157-3.0274282-1.3444111-5.9757213-2.62-8.76-.8342235.4336931-1.7597889.6623421-2.7.667 1.1085848 2.5900838 1.8879987 5.3089617 2.32 8.093.4328258 2.6141658.6435782 5.2602799.63 7.91 0 13.185-10.271 16.612-18.5 16.967.508.022 1.01.033 1.5.033 8.42 0 20-3 20-17 .0135782-2.6497201-.1971742-5.2958342-.63-7.91z" fill="#dfc49c"/><path id="Shape" d="m13.25 20.33c-1.2755889 2.7842787-2.1573843 5.7325718-2.62 8.76-.5555584.3236583-1.14173977.5916269-1.75.8-2.054872.7476099-4.35375141.3181324-6.0001062-1.1209421s-2.37946446-3.6598509-1.9134261-5.7962562c.46603835-2.1364054 2.05742183-3.8501136 4.1535323-4.4728017 1.87537453-.5099512 3.83388559-.6391586 5.76-.38.5696178.9423177 1.3902294 1.7075294 2.37 2.21z" fill="#ffe0b2"/><path id="Shape" d="m10.88 18.12c-1.16202248-.1348071-2.33477665-.1505555-3.5-.047.168.015.336.027.5.047.56961775.9423177 1.39022939 1.7075294 2.37 2.21-1.27558886 2.7842787-2.15738427 5.7325718-2.62 8.76-.55555844.3236583-1.14173977.5916269-1.75.8-.129.043-.259.074-.389.107 1.11629164.2923951 2.2933767.2552313 3.389-.107.60826023-.2083731 1.1944416-.4763417 1.75-.8.4626157-3.0274282 1.3444111-5.9757213 2.62-8.76-.9797706-.5024706-1.8003822-1.2676823-2.37-2.21z" fill="#dfc49c"/><path id="Shape" d="m7 26.2c-.98278183.000738-1.82046953-.7126698-1.97622495-1.6830311-.15575542-.9703612.41658168-1.9100961 1.35022495-2.2169689.82333651-.2202019 1.6739899-.3212297 2.526-.3 1.1394038-.02127 2.2750298.1373464 3.365.47-1.2177475 1.57877-2.81206602 2.8268563-4.637 3.63-.20263197.06673-.41466372.100493-.628.1z" fill="#e91e63"/><path id="Shape" d="m58.7 26.08c-1.041575 3.144814-4.4347884 4.8503738-7.58 3.81-.6082602-.2083731-1.1944416-.4763417-1.75-.8-.4626157-3.0274282-1.3444111-5.9757213-2.62-8.76.9797706-.5024706 1.8003822-1.2676823 2.37-2.21 1.9261144-.2591586 3.8846255-.1299512 5.76.38 3.1429794 1.0441417 4.8505955 4.4325528 3.82 7.58z" fill="#ffe0b2"/><path id="Shape" d="m54.88 18.5c-1.7101102-.4704056-3.4933902-.6152526-5.257-.427.7658692.0579758 1.5228824.2011945 2.257.427 2.5311312.8281729 4.2120994 3.2273109 4.1262277 5.8891001-.0858716 2.6617891-1.91798 4.9475923-4.4972277 5.6108999 3.140929.832055 6.3728812-.9899956 7.2868821-4.1080644.9140008-3.1180688-.8228111-6.3966154-3.9158821-7.3919356z" fill="#dfc49c"/><path id="Shape" d="m53 26.2c-.2136555.0003932-.4260006-.033366-.629-.1-1.8225412-.8029474-3.4149812-2.0495337-4.632-3.626 1.0884561-.3336725 2.2227169-.4936367 3.361-.474.8506649-.0206408 1.6999148.0803802 2.522.3.9329256.3066352 1.5052098 1.245225 1.350544 2.214995-.1546659.9697699-.9905186 1.6837799-1.972544 1.685005z" fill="#e91e63"/><circle id="Oval" cx="19" cy="35" fill="#02a9f4" r="3"/><ellipse id="Oval" cx="30" cy="40" fill="#607d8b" rx="3" ry="2"/><g fill="#e91e63"><path id="Shape" d="m19 43c-.4043959-.0000863-.7689341-.2437275-.923678-.6173454-.1547439-.373618-.0692299-.8036603.216678-1.0896546l1-1c.3923789-.3789722 1.0160848-.3735524 1.4018186.0121814s.3911536 1.0094397.0121814 1.4018186l-1 1c-.1874927.1875494-.4418052.2929434-.707.293z"/><path id="Shape" d="m15 43c-.4043959-.0000863-.7689341-.2437275-.923678-.6173454-.1547439-.373618-.0692299-.8036603.216678-1.0896546l1-1c.3923789-.3789722 1.0160848-.3735524 1.4018186.0121814s.3911536 1.0094397.0121814 1.4018186l-1 1c-.1874927.1875494-.4418052.2929434-.707.293z"/><path id="Shape" d="m41 43c-.2651948-.0000566-.5195073-.1054506-.707-.293l-1-1c-.3789722-.3923789-.3735524-1.0160848.0121814-1.4018186s1.0094397-.3911536 1.4018186-.0121814l1 1c.2859079.2859943.3714219.7160366.216678 1.0896546-.1547439.3736179-.5192821.6172591-.923678.6173454z"/><path id="Shape" d="m45 43c-.2651948-.0000566-.5195073-.1054506-.707-.293l-1-1c-.3789722-.3923789-.3735524-1.0160848.0121814-1.4018186s1.0094397-.3911536 1.4018186-.0121814l1 1c.2859079.2859943.3714219.7160366.216678 1.0896546-.1547439.3736179-.5192821.6172591-.923678.6173454z"/></g></g><g id="Icons_copy" fill="#000"><path id="Shape" d="m8 33.2c.74184696-.0003542 1.47884873-.1195304 2.183-.353.059-.019.128-.052.188-.073-.2523031 2.0656639-.37620776 4.1449913-.371 6.226 0 16.246 14.686 18 21 18s21-1.754 21-18c.0048438-2.0827208-.1197295-4.1637304-.373-6.231.058.02.124.053.18.071 2.3919901.8523453 5.0579911.3424584 6.9666386-1.3324069 1.9086475-1.6748652 2.7605892-4.2520228 2.2262445-6.7344782-.5343448-2.4824554-2.3711694-4.4808601-4.7998831-5.2221149-1.4578773-.4255711-2.9757129-.6090086-4.493-.543.5872296-1.9510124.2942325-4.0611203-.8023448-5.7783291-1.0965772-1.7172089-2.8876403-2.8706801-4.9046552-3.1586709v-.071c-.0033074-3.31233757-2.6876624-5.99669262-6-6-1.1891108-.00322139-2.3514923.35263814-3.335 1.021-.8407112-2.40925069-3.1132782-4.0231907-5.665-4.0231907s-4.8242888 1.61394001-5.665 4.0231907c-.9835077-.66836186-2.1458892-1.02422139-3.335-1.021-3.3123376.00330738-5.9966926 2.68766243-6 6v.071c-2.0157366.2898028-3.8049592 1.4440212-4.9000382 3.1609899-1.0950791 1.7169687-1.38718082 3.8260477-.7999618 5.7760101-1.51660738-.0654453-3.03369364.1179833-4.491.543-3.26613539 1.075181-5.26772493 4.3633791-4.72272957 7.7584689.54499537 3.3950898 3.47517559 5.8916175 6.91372957 5.8905311zm23 21.8c-7.1 0-19-2.079-19-16-.012457-2.5954174.1939407-5.1872642.617-7.748.411783-2.61747 1.1390791-5.17543 2.166-7.618 1.4312202.4849059 2.9818147.4880668 4.415.009.5975454 2.4728308 2.4896508 4.4268035 4.9419832 5.1035741s5.078783-.0302154 6.8600168-1.8465741c1.780908 1.8152693 4.4062007 2.5219214 6.8576939 1.845891 2.4514931-.6760304 4.3435286-2.6283932 4.9423061-5.099891 1.4331853.4790668 2.9837798.4759059 4.415-.009 1.0275792 2.4444928 1.755214 5.0044778 2.167 7.624.4229702 2.5577337.6297013 5.1465555.618 7.739 0 13.921-11.9 16-19 16zm24.565-33.551c1.7487628.5181486 3.0766437 1.9474253 3.4649432 3.7295232.3882996 1.7820979-.2245945 3.6342481-1.5992723 4.8329601-1.3746777 1.198712-3.2930164 1.5537838-5.0056709.9265167-.4018528-.1409259-.7920467-.3131194-1.167-.515-.164-.93-.36-1.83-.58-2.707.722478.5596776 1.5247109 1.0079843 2.38 1.33.7556014.249322 1.5792991.1882617 2.2898793-.1697477s1.2498323-.9836398 1.4991207-1.7392523c.2496299-.7557302.1887256-1.5796834-.1693069-2.290497s-.9838467-1.250225-1.7396931-1.499503c-.9244426-.2512776-1.8802487-.3681433-2.838-.347-.9611601-.0060002-1.920021.0946148-2.859.3-.077-.19-.158-.377-.239-.564.6485554-.4552697 1.2155339-1.0168388 1.677-1.661 1.6377423-.1809114 3.294872-.0540661 4.886.374zm-4.929 3.634c.4859355-.0565217.97479-.0842368 1.464-.083.7442053-.0200425 1.4876008.0630805 2.209.247.3394023.1121814.5931749.3969102.6657242.746932.0725492.3500217-.0471469.7121597-.314.95s-.6403219.3152494-.9797242.203068c-1.1346556-.4924114-2.1673618-1.1924132-3.045-2.064zm-33.651-13.083.1.005c.3020026-.000116.5888299-.1323854.785-.362.1932201-.2335389.2700874-.5421115.209-.839-.2416675-1.17778652.0592719-2.40180768.8195201-3.33326192.7602481-.93145425 1.8991556-1.47153018 3.1014799-1.47073808 1.2656026-.00015669 2.4549636.60493071 3.2 1.628.2582582.34434433.7078856.48479734 1.1162278.3486833.4083421-.13611405.6837722-.51825289.6837722-.9486833 0-.021 0-.046 0-.071 0-2.209139 1.790861-4 4-4s4 1.790861 4 4v.071c0 .43043041.2754301.81256925.6837722.9486833.4083422.13611404.8579696-.00433897 1.1162278-.3486833.7450364-1.02306929 1.9343974-1.62815669 3.2-1.628 1.2011157.00005513 2.3386302.53985133 3.0982611 1.47024897.759631.93039764 1.060962 2.15290281.8207389 3.32975103-.0600296.2940834.01521.5995785.2049475.8321474.1897374.232569.4739049.3676137.7740525.3678526h.116c2.1036932.0017927 3.9812566 1.3201641 4.6972404 3.2982681.7159839 1.978104.1172272 4.1927908-1.4979542 5.5406474-1.6151814 1.3478565-3.9012731 1.5405535-5.7192862.4820845-.3043312-.1759567-.6787022-.1791929-.9860298-.0085236-.3073275.1706692-.5024693.4901748-.5139702.8415236-.0653335 2.1755158-1.5318292 4.0582911-3.6251598 4.6541977-2.0933305.5959066-4.3315454-.2322519-5.5328402-2.0471977-.1853247-.2790222-.4980394-.446727-.833-.446727s-.6476753.1677048-.833.446727c-1.2012948 1.8149458-3.4395097 2.6431043-5.5328402 2.0471977-2.0933306-.5959066-3.5598263-2.4786819-3.6251598-4.6541977-.0115009-.3513488-.2066427-.6708544-.5139702-.8415236-.3073276-.1706693-.6816986-.1674331-.9860298.0085236-1.8172744 1.0580284-4.1023345.8659484-5.7174819-.4806061s-2.2151711-3.5597799-1.5013278-5.5377429c.7138432-1.9779631 2.5889812-3.2979072 4.6918097-3.302651zm-10.548 9.449c1.58881719-.4294726 3.24399834-.5576814 4.88-.378.4614661.6441612 1.0284446 1.2057303 1.677 1.661-.081.187-.162.374-.239.564-.9378235-.2037467-1.8953249-.3030183-2.855-.296-.95649847-.0211303-1.9110305.0960811-2.834.348-1.01820695.335651-1.78000128 1.1890123-1.99842244 2.2386309s.13971422 2.1360324.93950001 2.85 1.91971549.9470201 2.93792243.6113691c.85571858-.3221936 1.6583036-.7708457 2.381-1.331-.22.878-.416 1.778-.581 2.708-.3772156.2034681-.77014192.3763557-1.175.517-1.7156008.6351265-3.64109635.2826137-5.02041151-.919119s-1.99221565-3.0608055-1.59803677-4.847225c.39417889-1.7864196 1.73249889-3.2149496 3.48944828-3.724656zm4.927 3.634c-.8795118.8716287-1.91386002 1.5715942-3.05 2.064-.52467051.1728651-1.09013486-.1123295-1.26299998-.637s.11232948-1.0901349.63699998-1.263c.72231593-.1844883 1.46678115-.267618 2.212-.247.48921-.0012368.9780645.0264783 1.464.083z"/><path id="Shape" d="m20 33c-2.209139 0-4 1.790861-4 4s1.790861 4 4 4 4-1.790861 4-4-1.790861-4-4-4zm0 6c-1.1045695 0-2-.8954305-2-2s.8954305-2 2-2 2 .8954305 2 2-.8954305 2-2 2z"/><path id="Shape" d="m31 45c2.243 0 4-1.318 4-3s-1.757-3-4-3-4 1.318-4 3 1.757 3 4 3zm0-4c1.221 0 2 .592 2 1s-.779 1-2 1-2-.592-2-1 .779-1 2-1z"/><path id="Shape" d="m45 38h-3.149l2.774-2.219c.2790244-.223291.4177293-.5784781.3638658-.9317659-.0538634-.3532877-.2921121-.6510032-.625-.781-.3328878-.1299967-.7098414-.0725251-.9888658.1507659l-5 4c-.3317791.2653089-.4597225.7112818-.3190546 1.1121292.140668.4008475.5192416.6690701.9440546.6688708h6c.5522847 0 1-.4477153 1-1s-.4477153-1-1-1z"/><path id="Shape" d="m35 47c-.5522847 0-1 .4477153-1 1s-.4477153 1-1 1-1-.4477153-1-1-.4477153-1-1-1-1 .4477153-1 1-.4477153 1-1 1-1-.4477153-1-1-.4477153-1-1-1-1 .4477153-1 1c.000815 1.1826788.6963988 2.2545129 1.7761985 2.7369675 1.0797998.4824545 2.3422848.2854855 3.2238015-.5029675.8815167.788453 2.1440017.985422 3.2238015.5029675 1.0797997-.4824546 1.7753835-1.5542887 1.7761985-2.7369675 0-.5522847-.4477153-1-1-1z"/></g></g></g></svg>