<svg height="55" viewBox="0 0 61 55" width="61" xmlns="http://www.w3.org/2000/svg"><g id="Page-1" fill="none" fill-rule="evenodd"><g id="030---Happy-Rabbit" fill-rule="nonzero"><path id="Shape" d="m50 38c0 9.94-8.95 16-20 16s-20-6.06-20-16c.0905969-4.4594882 1.6831512-8.7579756 4.52-12.2-1.8621241-1.9143734-3.3779418-4.1373472-4.48-6.57 4.64-7.1 6.96-18.23 6.96-18.23 6.17 5.49 7.64 13.33 7.95 17.71 1.6423388-.4693512 3.3419121-.7083011 5.05-.71 1.7188047-.0006294 3.4290652.2417697 5.08.72.31-4.38 1.78-12.23 7.95-17.72 0 0 2.32 11.13 6.96 18.23-1.1027593 2.4431008-2.6258794 4.6736255-4.5 6.59 2.8279395 3.4386389 4.416515 7.7288496 4.51 12.18z" fill="#ffdc00"/><path id="Shape" d="m45.49 25.82c1.8741206-1.9163745 3.3972407-4.1468992 4.5-6.59-4.64-7.1-6.96-18.23-6.96-18.23-.8654487.77482653-1.6651864 1.62005331-2.391 2.527.966 3.7 3.081 10.7 6.351 15.7-1.1027593 2.4431008-2.6258794 4.6736255-4.5 6.59 2.8285702 3.4394417 4.4171849 7.7308147 4.51 12.183 0 9.484-8.154 15.423-18.5 15.948.5.026.994.052 1.5.052 11.05 0 20-6.06 20-16-.093485-4.4511504-1.6820605-8.7413611-4.51-12.18z" fill="#fec108"/><path id="Shape" d="m20.185 22.276-.694.492c-.7953589.57606-1.8927037.4824516-2.579-.22-1.9122443-2.3061173-3.4208367-4.9189371-4.462-7.728v-.01c1.366556-3.0085867 2.4998926-6.11774008 3.39-9.3 4.6 5.273 5.155 12.4 5.187 15.1.0105526.6600475-.3043075 1.2830368-.842 1.666z" fill="#e91e63"/><path id="Shape" d="m17 1s-.38 1.84-1.16 4.51c-.8901074 3.18225992-2.023444 6.2914133-3.39 9.3v.01c-.6968535 1.525734-1.5022536 2.9995159-2.41 4.41-2.17 3.33-4.85 5.77-8.04 5.77-1 0-1-8-1-10s0-4 4-8c3.54-3.54 6-6 12-6z" fill="#ffeb3a"/><path id="Shape" d="m47.57 14.8c-1.02216 2.8183491-2.5284326 5.4366441-4.451 7.737-.6838611.7087074-1.7836705.809541-2.585.237l-.682-.48c-.5394815-.3751785-.8584594-.9929175-.852-1.65.027-2.675.565-9.836 5.189-15.134.8912898 3.17744063 2.0215102 6.282956 3.381 9.29z" fill="#e91e63"/><path id="Shape" d="m44.19 5.51c-.7934041.91432175-1.4935428 1.90557078-2.09 2.959.7033952 2.1551844 1.5280437 4.2688887 2.47 6.331-1.0195633 2.8019622-2.5151923 5.4068802-4.421 7.7l.385.271c.8013295.572541 1.9011389.4717074 2.585-.237 1.9222664-2.2994518 3.4285256-4.9167082 4.451-7.734-1.359149-3.0070725-2.4890349-6.11258722-3.38-9.29z" fill="#ad1457"/><path id="Shape" d="m59.03 15c0 2 0 10-1 10-3.19 0-5.87-2.44-8.04-5.77-.9110887-1.4171791-1.7198122-2.8976109-2.42-4.43-1.359149-3.0070725-2.4890349-6.11258722-3.38-9.29-.78-2.67-1.16-4.51-1.16-4.51 6 0 8.47 2.46 12 6 4 4 4 6 4 8z" fill="#ffeb3a"/><path id="Shape" d="m55.03 7c-3.53-3.54-6-6-12-6 0 0 .021.1.055.255 3.915.715 6.082 2.874 8.945 5.745 4 4 4 6 4 8 0 1.683 0 7.6-.6 9.437.8181665.366183 1.7036404.5579221 2.6.563 1 0 1-8 1-10s0-4-4-8z" fill="#fdd834"/><path id="Shape" d="m31 40h-2c-.5522847 0-1-.4477153-1-1s.4477153-1 1-1h2c.5522847 0 1 .4477153 1 1s-.4477153 1-1 1z" fill="#e91e63"/><path id="Shape" d="m26 42h8v2c0 2.209139-1.790861 4-4 4s-4-1.790861-4-4z" fill="#bb193b"/><g fill="#e91e63"><path id="Shape" d="m19 43c-.4043959-.0000863-.7689341-.2437275-.923678-.6173454-.1547439-.373618-.0692299-.8036603.216678-1.0896546l1-1c.3923789-.3789722 1.0160848-.3735524 1.4018186.0121814s.3911536 1.0094397.0121814 1.4018186l-1 1c-.1874927.1875494-.4418052.2929434-.707.293z"/><path id="Shape" d="m15 43c-.4043959-.0000863-.7689341-.2437275-.923678-.6173454-.1547439-.373618-.0692299-.8036603.216678-1.0896546l1-1c.3923789-.3789722 1.0160848-.3735524 1.4018186.0121814s.3911536 1.0094397.0121814 1.4018186l-1 1c-.1874927.1875494-.4418052.2929434-.707.293z"/><path id="Shape" d="m41 43c-.2651948-.0000566-.5195073-.1054506-.707-.293l-1-1c-.3789722-.3923789-.3735524-1.0160848.0121814-1.4018186s1.0094397-.3911536 1.4018186-.0121814l1 1c.2859079.2859943.3714219.7160366.216678 1.0896546-.1547439.3736179-.5192821.6172591-.923678.6173454z"/><path id="Shape" d="m45 43c-.2651948-.0000566-.5195073-.1054506-.707-.293l-1-1c-.3789722-.3923789-.3735524-1.0160848.0121814-1.4018186s1.0094397-.3911536 1.4018186-.0121814l1 1c.2859079.2859943.3714219.7160366.216678 1.0896546-.1547439.3736179-.5192821.6172591-.923678.6173454z"/></g><path id="Shape" d="m19 33c-2.209139 0-4 1.790861-4 4 0 .5522847.4477153 1 1 1s1-.4477153 1-1c0-1.1045695.8954305-2 2-2s2 .8954305 2 2c0 .5522847.4477153 1 1 1s1-.4477153 1-1c0-2.209139-1.790861-4-4-4z" fill="#000"/><path id="Shape" d="m37 37c0 .5522847.4477153 1 1 1s1-.4477153 1-1c0-1.1045695.8954305-2 2-2s2 .8954305 2 2c0 .5522847.4477153 1 1 1s1-.4477153 1-1c0-2.209139-1.790861-4-4-4s-4 1.790861-4 4z" fill="#000"/><path id="Shape" d="m34 41h-8c-.5522847 0-1 .4477153-1 1v2c0 2.7614237 2.2385763 5 5 5s5-2.2385763 5-5v-2c0-.5522847-.4477153-1-1-1zm-1 3c0 1.6568542-1.3431458 3-3 3s-3-1.3431458-3-3v-1h6z" fill="#000"/><path id="Shape" d="m43.033 0c-.2447327.00706338-.4799918.09616598-.668.253-5.944 5.289-7.686 12.647-8.174 17.213-2.7509109-.607026-5.6010891-.607026-8.352 0-.488-4.571-2.231-11.92-8.174-17.209-.1909497-.15029084-.4226079-.23981887-.665-.257-6.415 0-9.191 2.777-12.707 6.293-4.293 4.293-4.293 6.638-4.293 8.707 0 10.26.756 11 2 11 3.1 0 5.724-2 7.9-4.868.9005251 1.719099 2.012485 3.3188432 3.31 4.762-2.6575586 3.4835836-4.13260645 7.7251345-4.21 12.106 0 10.009 8.636 17 21 17s21-6.991 21-17c-.0802193-4.3716839-1.5513826-8.6040805-4.2-12.083 1.3088954-1.4477665 2.4285283-3.0559787 3.332-4.786 2.177 2.869 4.802 4.869 7.901 4.869 1.244 0 2-.74 2-11 0-2.069 0-4.414-4.294-8.708-3.515-3.516-6.293-6.292-12.706-6.292zm-40.539 23.976c-.181-.701-.494-2.804-.494-8.976 0-1.844 0-3.586 3.707-7.293 3.166-3.166 5.343-5.343 10.036-5.665-1.59 6.731-6.366 21.258-13.249 21.934zm40.982 2.192c-.3042178.195156-.4794522.5392835-.4583434.9001003s.2352753.6821632.5601743.8405141.7099611.1290596 1.0071691-.0766144c.25-.167.5-.352.744-.547 2.312915 3.1005019 3.5966683 6.8475508 3.671 10.715 0 8.832-7.813 15-19 15s-19-6.168-19-15c.0719131-3.8735921 1.3576569-7.6269426 3.676-10.731.261.21.518.4.776.568.4622623.3037566 1.0832434.1752623 1.387-.287s.1752623-1.0832434-.287-1.387c-.4790821-.3203927-.9273439-.6846263-1.339-1.088-1.6588283-1.6936505-3.0208433-3.6543571-4.029-5.8.422-.672.823-1.371 1.205-2.09 1.0006833 2.380921 2.4235653 4.5613182 4.2 6.436.3310424.3323609.695279.6299158 1.087.888.2984954.1964961.6791459.2188206.9985642.058564.3194184-.1602566.5290772-.4787474.5500001-.8355.0209228-.3567527-.1500689-.6975679-.4485643-.894064-.2888305-.1890069-.5569732-.4078783-.8-.653-1.9426925-2.1398516-3.4485699-4.6386637-4.433-7.356 1.042881-2.3255381 1.9445187-4.7118726 2.7-7.146 4.236 6.137 3.773 13.871 3.769 13.943-.0373346.3590221.12171.7103008.4161374.9191148s.6785369.2427513 1.0050161.0887966c.3264792-.1539548.5446524-.471905.5708465-.8319114.008-.095.664-9.544-5.049-16.51.252-.9.456-1.687.615-2.329 4.665 4.937 6.899 13.129 6.43 18.96-.0428021.5522847.3702153 1.0346979.9225 1.0775s1.0346979-.3702153 1.0775-.9225c.048791-.86598.048791-1.73402 0-2.6 2.641529-.6270822 5.3934106-.625027 8.034.006-.0486708.862981-.0486708 1.728019 0 2.591.0278667.3561938.2436437.6704637.56605.8244273.3224062.1539636.7024605.1242302.997-.078s.4588167-.5462335.43095-.9024273c-.458-5.724 1.637-13.884 6.434-18.966.158.643.363 1.431.615 2.33-5.718 6.969-5.062 16.417-5.054 16.517.0450112.5506279.5278721.9605112 1.0785.9155s.9605112-.5278721.9155-1.0785c-.006-.084-.469-7.823 3.77-13.961.7565174 2.4288788 1.6581386 4.8101606 2.7 7.131-1.619 3.964-3.513 6.887-5.229 8.033-.4161531.3210009-.5128025.9093661-.2212074 1.3466271.2915952.4372611.8719125.5741792 1.3282074.3133729 2.246-1.5 4.077-4.723 5.277-7.332.383.722.786 1.424 1.21 2.1-1.252 2.488-3.059 5.354-5.376 6.9zm14.063-2.192c-6.885-.676-11.659-15.209-13.249-21.934 4.692.322 6.868 2.5 10.036 5.665 3.707 3.707 3.707 5.449 3.707 7.293 0 6.172-.312 8.275-.494 8.976z" fill="#000"/></g></g></svg>