<svg height="512" viewBox="0 0 60 58" width="512" xmlns="http://www.w3.org/2000/svg"><g id="Page-1" fill="none" fill-rule="evenodd"><g id="003---Excited-Chick" fill-rule="nonzero" transform="translate(-1 -1)"><g id="Icons" transform="translate(1 2)"><path id="Shape" d="m51 24.39c0 .29-.01 6.77-.02 7.06-.0276565.8097825-.0977527 1.617558-.21 2.42-1.48 10.68-10.21 16.13-20.77 16.13s-19.29-5.45-20.77-16.13c-.11224732-.802442-.18234354-1.6102175-.21-2.42-.01-.29-.02-6.77-.02-7.06-.01611873-2.2074993.29733446-4.405042.93-6.52 1.8993139-6.3074782 6.9335282-11.17893213 13.3-12.87.7905744 2.89093666 2.7615031 5.3155782 5.43 6.68.4141308.2136916.8739999.3235111 1.34.32 1.6568542 0 3-1.3431458 3-3 .0273173-1.01165028.7412646-1.87416469 1.73-2.09.9634742-.24477317 1.7449479-.9477256 2.09-1.88 6.3469887 1.68819518 11.3632039 6.5491916 13.25 12.84.6326655 2.114958.9461187 4.3125007.93 6.52z" fill="#ffdc00"/><path id="Shape" d="m50.07 17.87c-1.8867961-6.2908084-6.9030113-11.15180482-13.25-12.84-.128629.32229886-.3108682.62050838-.539.882 5.2207176 2.14779099 9.1877105 6.544612 10.789 11.958.6326655 2.114958.9461187 4.3125007.93 6.52 0 .29-.01 6.77-.02 7.06-.0276565.8097825-.0977527 1.617558-.21 2.42-1.409 10.168-9.4 15.584-19.27 16.081.5.025.994.049 1.5.049 10.56 0 19.29-5.45 20.77-16.13.1122473-.802442.1823435-1.6102175.21-2.42.01-.29.02-6.77.02-7.06.0161187-2.2074993-.2973345-4.405042-.93-6.52z" fill="#fec108"/><path id="Shape" d="m36.82 5.03c-.3450521.9322744-1.1265258 1.63522683-2.09 1.88-.9887354.21583531-1.7026827 1.07834972-1.73 2.09 0 1.6568542-1.3431458 3-3 3-.4660001.0035111-.9258692-.1063084-1.34-.32-2.6684969-1.3644218-4.6394256-3.78906334-5.43-6.68-.1544294-.65541077-.2316212-1.3266434-.23-2 0-1.65685421 1.3431458-2.99999991 3-2.99999991s3 1.3431457 3 2.99999991c-.0025871.20217916.0209407.40384626.07.6 1.1048489-1.25315457 2.5730065-2.13055356 4.2-2.51 1.0778324-.27145053 2.2174141.07526737 2.9614242.90101376.74401.82574639.9704991 1.99517464.5885758 3.03898624z" fill="#ffeb3a"/><path id="Shape" d="m36.91 3.27c-.1935685-.77180389-.6858277-1.43509165-1.3684717-1.84392791-.6826441-.40883627-1.4997459-.5297263-2.2715283-.33607209-.2863449.07857291-.568395.1720333-.845.28.7416605.39454271 1.2813039 1.0849956 1.485 1.9.1950436.77185348.0747561 1.58960135-.3342899 2.27259562-.409046.68299426-1.0731877 1.17502725-1.8457101 1.36740438-.9887354.21583531-1.7026827 1.07834972-1.73 2.09-.0000747 1.0384816-.5372159 2.0030663-1.42 2.55-.027.017-.058.022-.085.037.054.029.113.067.165.093.4141308.2136916.8739999.3235111 1.34.32 1.6568542 0 3-1.3431458 3-3 .0273173-1.01165028.7412646-1.87416469 1.73-2.09.7725224-.19237713 1.4366641-.68441012 1.8457101-1.36740438.409046-.68299427.5293335-1.50074214.3342899-2.27259562z" fill="#fdd834"/><path id="Shape" d="m9.02 31.45c.02765646.8097825.09775268 1.617558.21 2.42-1.07338283.2060814-2.1803365.1546749-3.23-.15-4-.98-2-5.92-2-5.92-.79469837.0201615-1.56339365-.2838932-2.12927093-.8422254-.56587727-.5583323-.88022211-1.3228772-.87072907-2.1177746-.1199466-1.5861799.65051283-3.1078372 2-3.95-1.35063708-.8363271-2.12209254-2.3560944-2-3.94 0-2.96 3-3.95 3-3.95l5.93 4.87c-.63266554 2.114958-.94611873 4.3125007-.93 6.52 0 .29.01 6.77.02 7.06z" fill="#ff9801"/><path id="Shape" d="m59 24.84c.009493.7948974-.3048518 1.5594423-.8707291 2.1177746-.5658773.5583322-1.3345725.8623869-2.1292709.8422254 0 0 2 4.94-2 5.92-1.0496635.3046749-2.1566172.3560814-3.23.15.1122473-.802442.1823435-1.6102175.21-2.42.01-.29.02-6.77.02-7.06.0161187-2.2074993-.2973345-4.405042-.93-6.52l5.93-4.87s3 .99 3 3.95c.1220925 1.5839056-.6493629 3.1036729-2 3.94 1.3494872.8421628 2.1199466 2.3638201 2 3.95z" fill="#ff9801"/><path id="Shape" d="m57 20.89c1.3506371-.8363271 2.1220925-2.3560944 2-3.94 0-2.96-3-3.95-3-3.95l-1.286 1.056c.8252264.734604 1.2938554 1.7892014 1.286 2.894.1220925 1.5839056-.6493629 3.1036729-2 3.94 1.3494872.8421628 2.1199466 2.3638201 2 3.95.009493.7948974-.3048518 1.5594423-.8707291 2.1177746-.5658773.5583322-1.3345725.8623869-2.1292709.8422254 0 0 2 4.94-2 5.92-.078.019-.142.026-.218.043 0 .035-.007.072-.012.107 1.0733828.2060814 2.1803365.1546749 3.23-.15 4-.98 2-5.92 2-5.92.7946984.0201615 1.5633936-.2838932 2.1292709-.8422254.5658773-.5583323.8802221-1.3228772.8707291-2.1177746.1199466-1.5861799-.6505128-3.1078372-2-3.95z" fill="#f57c00"/><circle id="Oval" cx="20" cy="22" fill="#ff9801" r="7"/><circle id="Oval" cx="40" cy="22" fill="#ff9801" r="7"/><path id="Shape" d="m34 31s-1 8-4 8-4-8-4-8 2 2 4 2 4-2 4-2z" fill="#ef314c"/><path id="Shape" d="m34 31s-2 2-4 2-4-2-4-2 2-2 4-2 4 2 4 2z" fill="#ff9801"/><g fill="#ff5722"><path id="Shape" d="m23 24h-6c-.5522847 0-1-.4477153-1-1s.4477153-1 1-1h4.266c-.978584-.9643301-2.1870307-1.6630333-3.511-2.03-.5357162-.1347575-.8607575-.6782838-.726-1.214s.6782838-.8607575 1.214-.726c.185.046 4.546 1.173 5.706 4.654.1015762.3049726.0503565.6401819-.1376576.9009053-.1880141.2607235-.4898988.4151721-.8113424.4150947z"/><path id="Shape" d="m43 24h-6c-.3214436.0000774-.6233283-.1543712-.8113424-.4150947-.1880141-.2607234-.2392338-.5959327-.1376576-.9009053 1.16-3.481 5.521-4.608 5.706-4.654.5357162-.1347575 1.0792425.1902838 1.214.726s-.1902838 1.0792425-.726 1.214c-1.3239693.3669667-2.532416 1.0656699-3.511 2.03h4.266c.5522847 0 1 .4477153 1 1s-.4477153 1-1 1z"/></g></g><g id="Icons_copy" fill="#000"><path id="Shape" d="m3.713 30.6c-.37217447 1.3357237-.27438835 2.7587412.277 4.031.57019863 1.0673651 1.58700503 1.8245614 2.773 2.065.75375346.1931361 1.52794578.2951979 2.306.304.121 0 .234-.013.352-.019 1.441 7.713 6.745 13.179 14.579 15.176v3.308l-2.555 1.7c-.4595009.306518-.583518.9274991-.277 1.387.3065181.4595009.9274991.583518 1.387.277l3-2c.2771873-.1849339.4440493-.4957847.445-.829v-3.424c3.309363.5653359 6.690637.5653359 10 0v3.424c-.00005.3342785.1669303.6464754.445.832l3 2c.297245.1982824.6776931.2229246.9980331.0646441.3203401-.1582805.5319049-.4754371.555-.832s-.1457881-.6983617-.4430331-.8966441l-2.555-1.703v-3.308c7.835-2 13.138-7.463 14.58-15.179.117.006.23.019.351.019.7784602-.0095104 1.5529783-.1122424 2.307-.306 1.1856231-.2407113 2.2020154-.9978723 2.772-2.065.5513883-1.2722588.6491745-2.6952763.277-4.031 1.6661985-.4703491 2.7897188-2.0253874 2.713-3.755.0500638-1.4505934-.4610439-2.8646458-1.427-3.948.9662169-1.0808121 1.4774799-2.4931447 1.427-3.942 0-3.641-3.536-4.85-3.687-4.9-.3254535-.1073358-.6832038-.0405406-.948.177l-4.841 3.973c-2.1665424-5.6505342-6.7865751-10.00817375-12.554-11.841.1320857-1.29146958-.3765781-2.56577116-1.3616867-3.41128951-.9851087-.84551835-2.3218027-1.15508664-3.5783133-.82871049-1.1784226.2834329-2.290647.79284864-3.275 1.5-.668381-1.82079449-2.5467301-2.89970275-4.4562827-2.55965218-1.9095527.34005058-3.2999812 2.00105837-3.2987173 3.94065218.0028655.44277507.0362781.88482481.1 1.323-5.7975473 1.82886032-10.444796 6.2014637-12.623 11.877l-4.842-3.973c-.26479622-.2175406-.62254648-.2843358-.948-.177-.151.05-3.687 1.259-3.687 4.9-.05047992 1.4488553.46078305 2.8611879 1.427 3.942-.96595615 1.0833542-1.47706377 2.4974066-1.427 3.948-.07909869 1.7314411 1.04491147 3.2892289 2.713 3.76zm53.446-14.437c1.0897013.5079945 1.8013737 1.5853607 1.841 2.787.1089292 1.2004208-.4425068 2.3653294-1.44 3.042-.3355308.1676391-.5490385.5089425-.553.884-.0021241.3762032.2042106.7226608.536.9 1.0082174.6790945 1.5666049 1.8533562 1.457 3.064.0271141.5347627-.1763095 1.0554944-.5587345 1.4302709s-.9071596.5676398-1.4412655.5297291c-.3325081.0000082-.6432641.1652899-.8291383.4409933-.1858743.2757034-.2225522.6257635-.0978617.9340067.4712486 1.1239181.5265567 2.3789854.156 3.54-.3061712.5495137-.8456068.9299887-1.466 1.034-.6208705.1583514-1.2592562.2376456-1.9.236.048-.495.1-.988.118-1.5.012-.328.021-7.03.021-7.095.0029173-2.0747452-.2708283-4.1406163-.814-6.143zm-30.159-13.163c1.1045695 0 2 .8954305 2 2-.0142927 1.34861047.4430612 2.65983314 1.293 3.707.3923789.37897221 1.0160848.37355237 1.4018186-.01218142.3857338-.3857338.3911536-1.00943969.0121814-1.40181858-.3125909-.37909636-.5161905-.83607215-.589-1.322.9320976-.94271701 2.1101221-1.60483607 3.4-1.911 1.0630058-.24647353 2.1273739.40461715 2.3920302 1.46324245s-.3680964 2.13399618-1.4220302 2.41675755c-1.4405238.3164922-2.4720779 1.58520421-2.488 3.06.0001498.6933461-.358812 1.3373057-.9486264 1.7017885-.5898143.3644829-1.3263254.3974839-1.9463736.0872115-1.896-.949-5.105-3.656-5.105-7.789 0-1.1045695.8954305-2 2-2zm-3.427 5.27c1.0473852 2.7197414 3.0524338 4.9630628 5.638 6.308 1.2397037.6180657 2.7109391.5507271 3.889-.178 1.1816791-.7222901 1.9016786-2.0080575 1.9-3.393.0132093-.5587149.4193964-1.03022694.97-1.126.9533214-.23906806 1.7837561-.82393646 2.33-1.641 7.962 2.635 12.7 9.36 12.7 18.15 0 .492-.01 6.71-.02 7.026-.443 12.965-10.611 17.584-19.98 17.584s-19.537-4.619-19.98-17.584c-.01-.316-.02-6.534-.02-7.026 0-8.741 4.684-15.438 12.573-18.12zm-19.12 13.73c-1.00560148-.674496-1.56280763-1.8441304-1.453-3.05.03829246-1.2017776.74990156-2.2796333 1.84-2.787l4.974 4.085c-.54323574 2.0020301-.81698325 4.0675795-.814 6.142 0 .065.009 6.767.021 7.094.017.512.07 1.006.118 1.5-.64077883.0022266-1.27923768-.0770767-1.9-.236-.61920867-.1035355-1.1580265-.482363-1.465-1.03-.37718904-1.1613237-.32250475-2.4197725.154-3.544.12423649-.3070974.0883248-.6557894-.09589566-.9311189-.18422045-.2753295-.49283693-.4415572-.82410434-.4438811-.53517359.0399622-1.06174164-.1518068-1.44587804-.5265694-.38413641-.3747625-.58885316-.8964332-.56212196-1.4324306-.10718577-1.2038596.44475662-2.3716213 1.443-3.053.33532086-.1689607.54773293-.5115234.55-.887.00201828-.3772543-.20617877-.7242494-.54-.9z"/><path id="Shape" d="m21 32c4.418278 0 8-3.581722 8-8s-3.581722-8-8-8-8 3.581722-8 8c.0049599 4.4162219 3.5837781 7.9950401 8 8zm0-14c3.3137085 0 6 2.6862915 6 6s-2.6862915 6-6 6-6-2.6862915-6-6c.0033074-3.3123376 2.6876624-5.9966926 6-6z"/><path id="Shape" d="m41 32c4.418278 0 8-3.581722 8-8s-3.581722-8-8-8-8 3.581722-8 8c.0049599 4.4162219 3.5837781 7.9950401 8 8zm0-14c3.3137085 0 6 2.6862915 6 6s-2.6862915 6-6 6-6-2.6862915-6-6c.0033074-3.3123376 2.6876624-5.9966926 6-6z"/><path id="Shape" d="m26.008 33.124c.185 1.482 1.292 8.876 4.992 8.876s4.807-7.394 4.992-8.876c.0382749-.306133-.0668977-.6127942-.285-.831-.234-.235-2.36-2.293-4.707-2.293s-4.473 2.058-4.707 2.293c-.2181023.2182058-.3232749.524867-.285.831zm4.992 6.876c-1.03 0-1.989-2.311-2.565-4.725.783333.4466288 1.6637693.695485 2.565.725.9012307-.029515 1.781667-.2783712 2.565-.725-.576 2.414-1.535 4.725-2.565 4.725zm2.436-7c-.6979786.5622829-1.5442708.9096935-2.436 1-.8917292-.0903065-1.7380214-.4377171-2.436-1 .6982442-.5618335 1.5443976-.9091871 2.436-1 .8916024.0908129 1.7377558.4381665 2.436 1z"/></g></g></g></svg>