<svg height="512" viewBox="0 0 44 60" width="512" xmlns="http://www.w3.org/2000/svg"><g id="Page-1" fill="none" fill-rule="evenodd"><g id="021---Bunny" fill-rule="nonzero"><g id="Icons" transform="translate(0 1)"><path id="Shape" d="m28.42 37.34c-2.1071192.4684994-4.261634.6899915-6.42.66-2.158366.0299915-4.3128808-.1915006-6.42-.66-9.86-2.36-8.31-10.45-5.28-14.34 1.77-2.26 2.71-4.73 3.96-6.76 1.0527571-2.0277327 2.9495159-3.485088 5.18-3.98 1.6890623-.3466688 3.4309377-.3466688 5.12 0 2.2304841.494912 4.1272429 1.9522673 5.18 3.98 1.25 2.03 2.19 4.5 3.96 6.76 3.03 3.89 4.58 11.98-5.28 14.34z" fill="#f5f5f5"/><g fill="#cfd8dc"><path id="Shape" d="m33.7 23c-1.77-2.26-2.71-4.73-3.96-6.76-1.0527571-2.0277327-2.9495159-3.485088-5.18-3.98-.8409593-.1819134-1.6996386-.269123-2.56-.26-.501319.0000118-1.0021969.0297306-1.5.089.3560986.03829.7099252.0953696 1.06.171 2.2304841.494912 4.1272429 1.9522673 5.18 3.98 1.25 2.03 2.19 4.5 3.96 6.76 3.03 3.89 4.58 11.98-5.28 14.34-1.6161636.3654712-3.2637701.5744359-4.92.624.486.02.979.036 1.5.036 2.158366.0299915 4.3128808-.1915006 6.42-.66 9.86-2.36 8.31-10.45 5.28-14.34z"/><path id="Shape" d="m19.44 12.26c-2.2304841.494912-4.1272429 1.9522673-5.18 3.98-.89-1.97-2.87-4.57-7.37-6.24-8.96-3.33-6.06-10-2.02-10 4.20767665.16722372 8.1865815 1.9595232 11.1 5 1.8 1.78 2.88 4.96 3.47 7.26z"/><path id="Shape" d="m37.11 10c-4.5 1.67-6.48 4.27-7.37 6.24-1.0527571-2.0277327-2.9495159-3.485088-5.18-3.98.59-2.3 1.67-5.48 3.47-7.26 2.9134185-3.0404768 6.8923233-4.83277628 11.1-5 4.04 0 6.94 6.67-2.02 10z"/></g><path id="Shape" d="m39.13 0c-.6422201.00627228-1.2830468.06109522-1.917.164 3.392 1.042 5.028 6.814-3.1 9.836-2.3519236.7883474-4.4427027 2.206411-6.045 4.1.6501299.6357064 1.2124352 1.3554034 1.672 2.14.89-1.97 2.87-4.57 7.37-6.24 8.96-3.33 6.06-10 2.02-10z" fill="#7f8e94"/><path id="Shape" d="m35 58h-26c-6.374 0-6.236-14-2-14 1.11555121-.0181723 2.20448986.3412832 3.09 1.02-.42721546-1.3938506-.11431861-2.9093269.83-4.02.6946354-.5643728 1.5470254-.8997393 2.44-.96.6410807-.9769729 1.3853592-1.8821765 2.22-2.7 4.2343549.883993 8.6056451.883993 12.84 0 .8346408.8178235 1.5789193 1.7230271 2.22 2.7.8929746.0602607 1.7453646.3956272 2.44.96.9443186 1.1106731 1.2572155 2.6261494.83 4.02.8855101-.6787168 1.9744488-1.0381723 3.09-1.02 4.227 0 4.379 14-2 14z" fill="#f5f5f5"/><path id="Shape" d="m27.64 40.04c.8929746.0602607 1.7453646.3956272 2.44.96.9443186 1.1106731 1.2572155 2.6261494.83 4.02.8855101-.6787168 1.9744488-1.0381723 3.09-1.02h.037c.1278373-1.0911476-.2209233-2.184441-.957-3-.6946354-.5643728-1.5470254-.8997393-2.44-.96-.6410807-.9769729-1.3853592-1.8821765-2.22-2.7-.8468758.1956824-1.7042861.3425907-2.568.44.6598249.7005633 1.2580388 1.4566949 1.788 2.26z" fill="#cfd8dc"/><path id="Shape" d="m37 44c-.6479455.0026804-1.2897833.1254196-1.893.362 1.26.88 1.893 3.256 1.893 5.638 0 3-1 8-5 8h3c4 0 5-5 5-8s-1-6-3-6z" fill="#cfd8dc"/><circle id="Oval" cx="16" cy="25" fill="#02a9f4" r="2"/><circle id="Oval" cx="28" cy="25" fill="#02a9f4" r="2"/></g><g id="Icons_copy" fill="#000"><path id="Shape" d="m37.458 11.938c6.851-2.547 6.68-6.656 6.464-7.855-.4203713-2.32897533-2.4258244-4.03771179-4.792-4.083-4.4713562.16188521-8.703847 2.05897369-11.8 5.289-1.7117927 1.95299197-2.9108029 4.3011825-3.489 6.833-1.2199345-.1626698-2.4560655-.1626698-3.676 0-.5789349-2.53165579-1.7786326-4.87950303-3.491-6.832-3.0970951-3.23116569-7.33114832-5.12867008-11.804-5.29-2.36617562.04528821-4.37162875 1.75402467-4.792 4.083-.216 1.2-.387 5.308 6.464 7.855 3.848 1.427 5.687 3.566 6.576 5.259-.359.623-.7 1.27-1.035 1.924-.7209134 1.4984364-1.5806727 2.9260118-2.568 4.264-2.123 2.723-3.472 7.1-1.7 10.728.82 1.679 2.5 3.559 5.936 4.733-.336.4-.662.823-.973 1.269-.970344.1254593-1.8783269.5473221-2.6 1.208-.75622754.8156389-1.19048166 1.8781756-1.222 2.99-.63148272-.2065473-1.29159686-.3121791-1.956-.313-2.763 0-4 3.516-4 7 0 4.152 1.571 9 6 9h26c4.429 0 6-4.848 6-9 0-3.484-1.237-7-4-7-.6668276.0001196-1.3294079.1061054-1.963.314-.0377791-1.1274299-.483762-2.202764-1.255-3.026-.714824-.6424685-1.6085758-1.0516686-2.562-1.173-.311-.446-.637-.868-.973-1.269 3.431-1.174 5.116-3.054 5.936-4.733 1.774-3.632.425-8-1.7-10.728-.9873273-1.3379882-1.8470866-2.7655636-2.568-4.264-.34-.654-.676-1.3-1.035-1.924.891-1.697 2.73-3.832 6.578-5.259zm-30.22-1.875c-3.638-1.354-5.582-3.457-5.192-5.626.24061414-1.38133451 1.4223254-2.40110445 2.824-2.437 3.94713023.15923908 7.6772156 1.84889602 10.4 4.711 1.4348295 1.68675304 2.4437656 3.6933082 2.942 5.851-1.5363114.5207546-2.88121 1.4901545-3.861 2.783-1.7360567-2.4848631-4.2323173-4.3385463-7.113-5.282zm22.569 31.53c.1620264.2442064.4230233.4050448.714.44.6580185.0294753 1.2924804.2536078 1.823.644.6714978.7786538.9090727 1.8415481.633 2.832-.823186.7583583-1.4756261 1.6831598-1.914 2.713-1.0927919.5032013-2.2809256.7657912-3.484.77-.157.008-.321.008-.494.008-1.329-.011-2.085-.508-2.085-1 0-.829.066-1.357.974-1.7.662419-.2198742 1.3583721-.3214238 2.056-.3.5522847 0 1-.4477153 1-1s-.4477153-1-1-1c-.9405117-.0265933-1.8780405.1177462-2.767.426-1.4847237.5313521-2.4175966 2.0046563-2.263 3.574 0 1.491 1.384 3 4.03 3 .228 0 .445 0 .637-.01.8713494-.0266971 1.7376117-.1433158 2.585-.348-.088.3766667-.1673333.7743333-.238 1.193-.0685105.3564798.0615399.7220917.3397811.9552298.2782412.233138.6609723.2971853.9999569.1673356.3389846-.1298498.5809814-.4332023.632262-.7925654.633-3.8 2.142-5.832 4.468-6.109-1.0526267 2.1584082-1.5522712 4.544606-1.454 6.944 0 .5522847.4477153 1 1 1s1-.4477153 1-1c-.0983258-2.0604327.3138858-4.1132461 1.2-5.976.5686633 1.2462469.8424163 2.6067995.8 3.976 0 .716-.112 7-4 7h-4c-1.038 0-3-.418-3-2 0-.5522847-.4477153-1-1-1s-1 .4477153-1 1c-.0081538.7121864.2011635 1.4099107.6 2h-9.2c.3988365-.5900893.6081538-1.2878136.6-2 0-.5522847-.4477153-1-1-1s-1 .4477153-1 1c0 1.582-1.962 2-3 2h-4c-3.888 0-4-6.284-4-7-.04241634-1.3692005.2313367-2.7297531.8-3.976.88611425 1.8627539 1.29832577 3.9155673 1.2 5.976 0 .5522847.44771525 1 1 1s1-.4477153 1-1c.09827124-2.399394-.40137329-4.7855918-1.454-6.944 2.326.277 3.835 2.313 4.468 6.109.1024647.5331533.6116119.8871593 1.1470763.7975532.5354645-.0896062.9016193-.5900877.8249237-1.1275532-.0666667-.418-.146-.8146667-.238-1.19.8428664.202901 1.7044402.3181796 2.571.344.206.011.423.011.651.011 2.646 0 4.03-1.509 4.03-3 .1543095-1.5704124-.7799308-3.0443353-2.266-3.575-.8880478-.3076628-1.8245456-.4516612-2.764-.425-.5522847 0-1 .4477153-1 1s.4477153 1 1 1c.695953-.023178 1.3905529.0763407 2.052.294.912.349.978.877.978 1.706 0 .485-.711 1-2.03 1-.192 0-.375 0-.562-.009-1.1987458-.0045733-2.382496-.2668331-3.471-.769-.4383739-1.0298402-1.090814-1.9546417-1.914-2.713-.2747305-.9751457-.0501797-2.0230494.6-2.8.5344211-.4119589 1.182893-.6490685 1.857-.679.2909767-.0349552.5519736-.1957936.714-.44.5137992-.7694645 1.0950946-1.4916497 1.737-2.158 1.9979751.3982836 4.0318185.5886318 6.069.568 2.0374114.0216885 4.0715926-.1676545 6.07-.565.6419054.6663503 1.2232008 1.3885355 1.737 2.158zm3.1-16.978c1.684 2.16 2.865 5.779 1.477 8.62-1.521 3.118-5.803 4.765-12.384 4.765s-10.863-1.647-12.385-4.765c-1.388-2.841-.207-6.46 1.477-8.62 1.0650081-1.4333099 1.9915002-2.9645163 2.767-4.573 1.818-3.508 3.132-6.042 8.141-6.042s6.323 2.534 8.141 6.042c.7754998 1.6084837 1.7019919 3.1396901 2.767 4.573zm-3.256-9.27c-.97979-1.2928455-2.3246886-2.2622454-3.861-2.783.4987843-2.1579915 1.5080291-4.1648214 2.943-5.852 2.7227091-2.86032847 6.4512633-4.54942055 10.397-4.71 1.4016746.03589555 2.5833859 1.05566549 2.824 2.437.39 2.169-1.551 4.272-5.192 5.626-2.879581.9440262-5.374717 2.797656-7.11 5.282z"/><path id="Shape" d="m4.553 4.105c-.48445692.24359857-.68354334.83105941-.447 1.319.23857408.49153303.82504815.70386944 1.323.479.064-.029 1.595-.684 4.016.929.45950091.30651804 1.080482.18250091 1.387-.277s.1825009-1.08048196-.277-1.387c-3.444-2.295-5.9-1.114-6.002-1.063z"/><path id="Shape" d="m38.568 5.9c.4970563.24272912 1.0967708.03655624 1.3395-.46050002.2427291-.49705626.0365563-1.09677082-.4605-1.33949998-.1-.051-2.56-1.232-6 1.063-.4595009.30651804-.583518.92749909-.277 1.387s.9274991.58351804 1.387.277c2.393-1.592 3.918-.966 4.011-.927z"/><path id="Shape" d="m26.013 32.007h-.013c-.5436474.0030748-.9864984.4375116-1 .981.0291128.2741498-.0663894.5468874-.2601664.7429897-.193777.1961024-.465356.294851-.7398336.2690103-.3457883-.01565-.685317-.0978159-1-.242v-2.758c.5522847 0 1-.4477153 1-1s-.4477153-1-1-1h-2c-.5522847 0-1 .4477153-1 1s.4477153 1 1 1v2.758c-.314683.1441841-.6542117.22635-1 .242-.2741851.0261168-.5456088-.0722548-.7393932-.267977-.1937844-.1957223-.2894505-.4681113-.2606068-.742023-.0017863-.3572656-.1940359-.6864396-.5043301-.8635254-.3102943-.1770858-.6914921-.1751798-1 .005s-.4974562.5112598-.4956699.8685254c-.0234737.8026156.2850527 1.5793921.8528303 2.1471697s1.3445541.876304 2.1471697.8528303c.6979398-.0134408 1.3829799-.1905237 2-.517.6170201.3264763 1.3020602.5035592 2 .517.8026156.0234737 1.5793921-.2850527 2.1471697-.8528303s.876304-1.3445541.8528303-2.1471697c-.0005356-.545859-.4411543-.9891562-.987-.993z"/><path id="Shape" d="m19 26c0-1.6568542-1.3431458-3-3-3s-3 1.3431458-3 3 1.3431458 3 3 3 3-1.3431458 3-3zm-3 1c-.5522847 0-1-.4477153-1-1s.4477153-1 1-1 1 .4477153 1 1-.4477153 1-1 1z"/><path id="Shape" d="m28 23c-1.6568542 0-3 1.3431458-3 3s1.3431458 3 3 3 3-1.3431458 3-3-1.3431458-3-3-3zm0 4c-.5522847 0-1-.4477153-1-1s.4477153-1 1-1 1 .4477153 1 1-.4477153 1-1 1z"/></g></g></g></svg>