<svg height="512" viewBox="0 0 52 60" width="512" xmlns="http://www.w3.org/2000/svg"><g id="Page-1" fill="none" fill-rule="evenodd"><g id="047---Happy-Rabbit-in-Basket" fill-rule="nonzero"><g id="Icons" transform="translate(1 1)"><path id="Shape" d="m50 37v3c-.0032948 1.1032019-.8967981 1.9967052-2 2h-46c-1.10320187-.0032948-1.9967052-.8967981-2-2v-3c.0032948-1.1032019.89679813-1.9967052 2-2h3.13c.1805544.6904981.53916695 1.3215182 1.04 1.83.75233113.7476392 1.76935734 1.1681058 2.83 1.17h2c1.8238506.0014703 3.416779-1.233358 3.87-3h20.26c.1805544.6904981.539167 1.3215182 1.04 1.83.7523311.7476392 1.7693573 1.1681058 2.83 1.17h2c1.8238506.0014703 3.416779-1.233358 3.87-3h3.13c1.1032019.0032948 1.9967052.8967981 2 2z" fill="#ff9801"/><path id="Shape" d="m48 35h-3c1.1032019.0032948 1.9967052.8967981 2 2v3c-.0032948 1.1032019-.8967981 1.9967052-2 2h3c1.1032019-.0032948 1.9967052-.8967981 2-2v-3c-.0032948-1.1032019-.8967981-1.9967052-2-2z" fill="#f57c00"/><path id="Shape" d="m2 42h46v4c0 6.627417-5.372583 12-12 12h-22c-6.627417 0-12-5.372583-12-12z" fill="#ff5722"/><path id="Shape" d="m45 42v4c0 6.627417-5.372583 12-12 12h3c6.627417 0 12-5.372583 12-12v-4z" fill="#d84315"/><path id="Shape" d="m35.81 14.23c1.92 3.13 4.19 8.02 4.19 11.18.0249783 1.568544-.2534619 3.1271299-.82 4.59h-.18c-2.209139 0-4 1.790861-4 4-.0030533.3377372.0406959.6742693.13 1h-20.26c.0893041-.3257307.1330533-.6622628.13-1 .0013291-1.0612728-.4196715-2.0794609-1.1701053-2.8298947s-1.7686219-1.1714344-2.8298947-1.1701053h-.18c-.5665381-1.4628701-.84497832-3.021456-.82-4.59 0-3.16 2.27-8.05 4.19-11.18-.9789727-.734245-1.8595191-1.5912654-2.62-2.55-2.29189286-3.0928531-3.41169264-6.89875489-3.16-10.74.01810416-.28544323.15756716-.54947251.38312912-.72533438.22556197-.17586187.51563128-.24672219.79687088-.19466562 14.43 2.75 15.41 13.81 15.41 13.81s.98-11.06 15.41-13.81c.2812396-.05205657.5713089.01880375.7968709.19466562.2255619.17586187.3650249.43989115.3831291.72533438.2516926 3.84124511-.8681071 7.6471469-3.16 10.74-.7604809.9587346-1.6410273 1.815755-2.62 2.55z" fill="#cfd8dc"/><path id="Shape" d="m38.43 11.68c2.2918929-3.0928531 3.4116926-6.89875489 3.16-10.74-.0181042-.28544323-.1575672-.54947251-.3831291-.72533438-.225562-.17586187-.5156313-.24672219-.7968709-.19466562-.694.132-1.347.289-1.98.457.092682.13779698.1478296.29738042.16.463.2516926 3.84124511-.8681071 7.6471469-3.16 10.74-.7604809.9587346-1.6410273 1.815755-2.62 2.55 1.92 3.13 4.19 8.02 4.19 11.18.0249783 1.568544-.2534619 3.1271299-.82 4.59h-.18c-2.209139 0-4 1.790861-4 4-.0030533.3377372.0406959.6742693.13 1h3c-.0893041-.3257307-.1330533-.6622628-.13-1 0-2.209139 1.790861-4 4-4h.18c.5665381-1.4628701.8449783-3.021456.82-4.59 0-3.16-2.27-8.05-4.19-11.18.9789727-.734245 1.8595191-1.5912654 2.62-2.55z" fill="#7f8e94"/><path id="Shape" d="m15 34c.0030533.3377372-.0406959.6742693-.13 1-.453221 1.766642-2.0461494 3.0014703-3.87 3h-2c-1.06064266-.0018942-2.07766887-.4223608-2.83-1.17-.50083305-.5084818-.8594456-1.1395019-1.04-1.83-.08930412-.3257307-.13305328-.6622628-.13-1 0-2.209139 1.790861-4 4-4h2c1.0612728-.0013291 2.0794609.4196715 2.8298947 1.1701053s1.1714344 1.7686219 1.1701053 2.8298947z" fill="#f5f5f5"/><path id="Shape" d="m45 34c.0030533.3377372-.0406959.6742693-.13 1-.453221 1.766642-2.0461494 3.0014703-3.87 3h-2c-1.0606427-.0018942-2.0776689-.4223608-2.83-1.17-.500833-.5084818-.8594456-1.1395019-1.04-1.83-.0893041-.3257307-.1330533-.6622628-.13-1 0-2.209139 1.790861-4 4-4h2c1.0612728-.0013291 2.0794609.4196715 2.8298947 1.1701053s1.1714344 1.7686219 1.1701053 2.8298947z" fill="#f5f5f5"/><path id="Shape" d="m43.83 31.17c-.7523311-.7476392-1.7693573-1.1681058-2.83-1.17h-2c-.1675801.0063715-.3345846.0234059-.5.051 2.0035325.2301674 3.5121567 1.9323266 3.5 3.949.0030533.3377372-.0406959.6742693-.13 1-.4052684 1.5691212-1.7200072 2.7368116-3.326 2.954.151009.0239348.3032531.0392927.456.046h2c1.8238506.0014703 3.416779-1.233358 3.87-3 .0893041-.3257307.1330533-.6622628.13-1-.0018942-1.0606427-.4223608-2.0776689-1.17-2.83z" fill="#cfd8dc"/><path id="Shape" d="m27 28v1c-.0081672 1.1011688-.8988312 1.9918328-2 2-1.1032019-.0032948-1.9967052-.8967981-2-2v-1c1.0728748-.0730087 1.9269913-.9271252 2-2 .0730087 1.0728748.9271252 1.9269913 2 2z" fill="#bb193b"/></g><g id="Icons_copy" fill="#000"><path id="Shape" d="m49 35h-2c-.0033061-2.7600532-2.2399468-4.9966939-5-5h-.449c.3041132-1.1722475.4550366-2.3789622.449-3.59 0-3.17-2.006-7.7-3.893-10.943.7747-.6498833 1.4822433-1.3758522 2.112-2.167 2.4503666-3.2773258 3.6449294-7.32436409 3.367-11.407-.0311917-.5745269-.3083074-1.10778953-.7605343-1.46352097-.452227-.35573145-1.0357525-.49946764-1.6014657-.39447903-9.741 1.865-13.666 7.459-15.224 11.187-1.558-3.728-5.483-9.322-15.224-11.187-.5655497-.10497433-1.14891686.03863342-1.60110844.3941456-.45219157.35551217-.72942396.88850615-.76089156 1.4628544-.27815509 4.08312526.91680564 8.1306644 3.368 11.408.6297812.7901935 1.3369625 1.5154647 2.111 2.165-1.887 3.246-3.893 7.775-3.893 10.945-.00603658 1.2110378.1448868 2.4177525.449 3.59h-.449c-2.76005315.0033061-4.99669388 2.2399468-5 5h-2c-1.65685425 0-3 1.3431458-3 3v3c.00525139 1.2667854.80564914 2.3937454 2 2.816v3.184c.00826602 7.1762751 5.82372494 12.991734 13 13h22c7.1762751-.008266 12.991734-5.8237249 13-13v-3.184c1.1943509-.4222546 1.9947486-1.5492146 2-2.816v-3c0-1.6568542-1.3431458-3-3-3zm-4 0c0 1.6568542-1.3431458 3-3 3h-2c-1.6568542 0-3-1.3431458-3-3s1.3431458-3 3-3h2c1.6568542 0 3 1.3431458 3 3zm-29.484-18.344c.6667138.4269791 1.3693724.7950383 2.1 1.1.5108634.2098682 1.0951318-.0341366 1.305-.545s-.0341366-1.0951318-.545-1.305c-1.9749287-.8364783-3.7055191-2.1600531-5.03-3.847-2.1234225-2.90762679-3.1653483-6.46524112-2.946-10.059 13.467 2.572 14.564 12.5 14.6 12.921.0462545.515588.4783414.9106468.996.9106468s.9497455-.3950588.996-.9106468c.009-.1 1.072-10.336 14.592-12.926.2314147 3.59497643-.8066095 7.1571018-2.933 10.065-1.3250065 1.6868312-3.0558847 3.010363-5.031 3.847-.4418105.1814848-.6936015.650075-.6011006 1.1186653.092501.4685903.5034676.8063504.9811006.8063347.1303975.0005567.2595922-.0249423.38-.075.7306276-.3049617 1.4332862-.6730209 2.1-1.1 1.784 3.109 3.52 7.209 3.52 9.753.0114858 1.2370617-.1752115 2.4679807-.553 3.646-2.5246459.2758957-4.4391228 2.404336-4.447 4.944h-18c-.0078772-2.539664-1.9223541-4.6681043-4.447-4.944-.3777885-1.1780193-.5644858-2.4089383-.553-3.646 0-2.544 1.736-6.644 3.516-9.754zm-5.516 15.344h2c1.6568542 0 3 1.3431458 3 3s-1.3431458 3-3 3h-2c-1.65685425 0-3-1.3431458-3-3s1.34314575-3 3-3zm38 15c-.0024916 1.014895-.1458599 2.0245311-.426 3h-8.574v-6h9zm-11 3h-10v-6h10zm-12 0h-10v-6h10zm-12 0h-8.574c-.28014012-.9754689-.42350845-1.985105-.426-3v-3h9zm-7.786 2h7.786v5.809c-3.35468543-.626543-6.22992925-2.7717127-7.786-5.809zm9.786 0h10v6h-10zm12 6v-6h10v6zm12-.191v-5.809h7.786c-1.5560707 3.0372873-4.4313146 5.182457-7.786 5.809zm11-16.809c0 .5522847-.4477153 1-1 1h-46c-.55228475 0-1-.4477153-1-1v-3c0-.5522847.44771525-1 1-1h2.424c.79428839 1.819948 2.59027644 2.9973877 4.576 3h2c1.9857236-.0026123 3.7817116-1.180052 4.576-3h18.848c.7942884 1.819948 2.5902764 2.9973877 4.576 3h2c1.9857236-.0026123 3.7817116-1.180052 4.576-3h2.424c.5522847 0 1 .4477153 1 1z"/><path id="Shape" d="m22 14.832c.3423873-.0011305.6603946-.1773541.8428617-.4670713.1824671-.2897173.2040251-.6526479.0571383-.9619287-2.965-6.245-9.2-9.341-9.465-9.469-.4970563-.24217685-1.0963231-.03555626-1.3385.46150001-.2421768.49705627-.0355563 1.09632312.4615 1.33849999.058.029 5.878 2.933 8.536 8.531.1671975.3480723.5198573.5687767.906.567z"/><path id="Shape" d="m29.571 14.735c.4987215.236766 1.0949597.0245912 1.332-.474 2.658-5.6 8.478-8.5 8.536-8.531.4970562-.24217688.7036768-.84144372.4615-1.33849998-.2421769-.49705626-.8414437-.70367685-1.3385-.46150002-.264.128-6.5 3.224-9.465 9.469-.1149668.2399229-.1295891.5157682-.0406315.766501s.2741611.4556818.5146315.569499z"/><path id="Shape" d="m16 26c.5522847 0 1-.4477153 1-1s.4477153-1 1-1 1 .4477153 1 1 .4477153 1 1 1 1-.4477153 1-1c0-1.6568542-1.3431458-2.9999999-3-2.9999999s-3 1.3431457-3 2.9999999c0 .2652165.1053568.5195704.2928932.7071068s.4418903.2928932.7071068.2928932z"/><path id="Shape" d="m31 25c0 .5522847.4477153 1 1 1s1-.4477153 1-1 .4477153-1 1-1 1 .4477153 1 1 .4477153 1 1 1 1-.4477153 1-1c0-1.6568542-1.3431458-3-3-3s-3 1.3431458-3 3z"/><path id="Shape" d="m24 28c-.4926367-.0993298-.9435153-.3458659-1.293-.707-.3923789-.3789722-1.0160848-.3735524-1.4018186.0121814s-.3911536 1.0094397-.0121814 1.4018186c.4901013.4773829 1.0703944.8523468 1.707 1.103v.19c0 1.6568542 1.3431458 3 3 3s3-1.3431458 3-3v-.19c.6363559-.2497616 1.2166306-.6236938 1.707-1.1.3714882-.391981.3646377-1.0081027-.0154743-1.3917268-.3801121-.3836241-.9961448-.3961407-1.3915257-.0282732-.3511209.3632656-.8045884.6109286-1.3.71-.5197071-.0716897-.9283103-.4802929-1-1v-1c.5522847 0 1-.4477153 1-1s-.4477153-1-1-1h-2c-.5522847 0-1 .4477153-1 1s.4477153 1 1 1v1c-.0716897.5197071-.4802929.9283103-1 1zm2 3c-.5522847 0-1-.4477153-1-1v-.211c.3702739-.1514599.7093173-.3701429 1-.645.2906827.2748571.6297261.4935401 1 .645v.211c0 .5522847-.4477153 1-1 1z"/></g></g></g></svg>