<svg height="512" viewBox="0 0 59 60" width="512" xmlns="http://www.w3.org/2000/svg"><g id="Page-1" fill="none" fill-rule="evenodd"><g id="042---Rabbit" fill-rule="nonzero" transform="translate(0 -1)"><g id="Icons" transform="translate(0 2)"><path id="Shape" d="m57 39s1 1 1 4c0 1.92-1.24 3.92-4.22 4.67-.38 2.65-1.41 6.53-4.21 8.05.63 1.02.61 2.28-2.57 2.28-1.1623812.0715369-2.3275413-.0847236-3.43-.46-.7663594.363683-1.6140065.5221861-2.46.46h-15.11c-2.5176988.0436685-5.0221796-.3731801-7.39-1.23-.71 1.23-2.38 1.23-4.61 1.23-3 0-6 0-6-3 0-.27.01-.53.02-.77-3.14-1.68-6.02-6.36-6.02-16.23 0-3.92.31-8.37 2.35-12.28 1.4242255-2.7434977 3.6169036-5.0126241 6.31-6.53.7526474-.4483012 1.5343858-.8458519 2.34-1.19 2.9125713-1.2163079 6.0563194-1.7795201 9.21-1.65-1.61-5.59 1.79-10.35 1.79-10.35 5.7032021 2.23162649 10.7253264 5.9129091 14.57 10.68-.03-.19-.06-.38-.08-.56-.614247-5.3695669-.4424405-10.79999954.51-16.12 8 3 12 8 12 13-.0065373 1.632724-.4299129 3.2367323-1.23 4.66 4.71 2.16 8.23 6.37 8.23 12.34.1033707 3.0325627-.233466 6.0640933-1 9z" fill="#cfd8dc"/><path id="Shape" d="m58 30c0-5.97-3.52-10.18-8.23-12.34.8000871-1.4232677 1.2234627-3.027276 1.23-4.66 0-5-4-10-12-13 0 0-.088.445-.206 1.206 6.137 3.036 9.206 7.415 9.206 11.794-.0065373 1.632724-.4299129 3.2367323-1.23 4.66 4.71 2.16 8.23 6.37 8.23 12.34.1033707 3.0325627-.233466 6.0640933-1 9 0 0 1 1 1 4 0 1.92-1.24 3.92-4.22 4.67-.38 2.65-1.41 6.53-4.21 8.05.535.866.593 1.9-1.346 2.2.5901508.0583041 1.1829972.0850089 1.776.08 3.18 0 3.2-1.26 2.57-2.28 2.8-1.52 3.83-5.4 4.21-8.05 2.98-.75 4.22-2.75 4.22-4.67 0-3-1-4-1-4 .766534-2.9359067 1.1033707-5.9674373 1-9z" fill="#7f8e94"/><path id="Shape" d="m10.66 19.19c-2.6930964 1.5173759-4.8857745 3.7865023-6.31 6.53-2.18269123-.7625201-3.55792592-2.9220924-3.32570289-5.2224512.23222303-2.3003587 2.01133266-4.1414975 4.30238569-4.4523896 2.29105304-.3108921 4.49647037.9895531 5.3333172 3.1448408z" fill="#7f8e94"/><ellipse id="Oval" cx="52" cy="36.5" fill="#02a9f4" rx="2" ry="2.5"/><ellipse id="Oval" cx="37" cy="37.5" fill="#02a9f4" rx="2" ry="2.5"/><g fill="#e91e63"><path id="Shape" d="m54 43h-1c-.5522847 0-1-.4477153-1-1s.4477153-1 1-1h1c.5522847 0 1 .4477153 1 1s-.4477153 1-1 1z"/><path id="Shape" d="m36 44h-1c-.5522847 0-1-.4477153-1-1s.4477153-1 1-1h1c.5522847 0 1 .4477153 1 1s-.4477153 1-1 1z"/></g></g><g id="Icons_copy" fill="#000"><path id="Shape" d="m51.094 19.2c.5910551-1.3216745.8996396-2.7521985.906-4.2 0-5.757-4.729-10.966-12.649-13.937-.2740759-.10276109-.5794146-.08028142-.8354861.0615102-.2560714.14179163-.4371631.38865773-.4955139.6754898-.8212605 4.57597112-1.0831819 9.2348124-.78 13.874-3.5952795-3.8082454-8.0052858-6.75406126-12.9-8.617-.4220047-.15382768-.8947971-.00740928-1.156.358-1.9016597 2.9365767-2.6881892 6.4573341-2.217 9.924-2.8748535.0265761-5.7165487.6170671-8.364 1.738-.529.227-1.037.479-1.532.74-1.32419632-2.1170507-3.82262856-3.1907469-6.2698951-2.6944745-2.44726653.4962723-4.33007028 2.4584235-4.72495581 4.9240806-.39488553 2.4656572.78097163 4.9176659 2.95085091 6.1533939-1.757 3.908-2.027 8.13-2.027 11.8 0 11.008 3.545 15.2 6.009 16.791 0 .073-.009.134-.009.209 0 4 4.046 4 7 4 1.885 0 3.806-.005 4.951-1.049 2.2784746.7242714 4.6583622 1.0784354 7.049 1.049h15.11c.8571774.0290253 1.7122193-.1025718 2.521-.388 1.0982741.2918572 2.2331336.4225564 3.369.388 1.943 0 3.137-.447 3.65-1.368.2551686-.4772684.3129742-1.0355773.161-1.555 2.339-1.75 3.39-4.931 3.85-7.625 2.97-1.001 4.339-3.233 4.339-5.452.0795909-1.4523521-.2333647-2.8993399-.906-4.189.6634055-2.8885309.9677065-5.8479087.906-8.811.0490754-5.4330225-3.025915-10.4115043-7.906-12.8zm-45.094-.2c1.35397287.0073752 2.61322422.6960166 3.35 1.832-2.21268855 1.4163725-4.06552552 3.3280949-5.412 5.584-1.53923519-.924524-2.27207105-2.7627481-1.79107077-4.4926696.48100029-1.7299215 2.05752563-2.9260336 3.85307077-2.9233304zm50.269 22.682c.007.008.731.874.731 3.318 0 1.846-1.571 4-6 4-1.4430546-.001652-2.8845734-.0941684-4.316-.277-1.6672182-.321234-3.389035-.2082828-5 .328-3.871 1.289-7.659.994-9.084-.034-.3659462-.208868-.5941554-.5956826-.6-1.017 0-.5522847-.4477153-1-1-1s-1 .4477153-1 1c.0061289 1.0632553.5425969 2.0532825 1.43 2.639 1.5487786.9219603 3.3373545 1.3610092 5.137 1.261 1.9546634-.0126995 3.8949999-.3346826 5.749-.954 1.3345594-.4390869 2.7607547-.5214801 4.137-.239 1.5079402.1937798 3.0266605.2916432 4.547.293.5160269-.0012825 1.03155-.0323341 1.544-.093-.4 1.873-1.2 4.185-2.768 5.464-.024-.026-.044-.053-.069-.078-.3923789-.3789722-1.0160848-.3735524-1.4018186.0121814s-.3911536 1.0094397-.0121814 1.4018186c.1634616.1612422.3065297.3419245.426.538.0793829.1273019.1425393.2640288.188.407 0 0-.314.348-1.907.348-.6121471.0045868-1.2239891-.0288107-1.832-.1.085607-.4555403.0268754-.9264419-.168-1.347-.158024-.3224865-.4768371-.5354742-.8352525-.5580026-.3584153-.0225283-.7013887.1488625-.8985495.4490237-.1971608.3001611-.2182297.6829949-.055198 1.0029789.0084214.0365208.0084214.0744792 0 .111 0 .005-.294.442-2.1.442-3 0-3-.464-3-1v-1c0-.5522847-.4477153-1-1-1s-1 .4477153-1 1v1c-.0003658.3380358.0457323.6745179.137 1h-10.248c-2.0674453.0247579-4.1268432-.2617846-6.109-.85.0736847-.3788708.1101913-.7640323.109-1.15.1317971-1.7879825-.8762791-3.465306-2.517-4.188-.2790151-.1404478-.5396481-.3147629-.776-.519-.3923789-.3789722-1.0160848-.3735524-1.4018186.0121814s-.3911536 1.0094397-.0121814 1.4018186c.3597429.3346128.7634679.6185661 1.2.844 1.0166412.3592559 1.6444827 1.3795503 1.507 2.449 0 1.84-.655 2-4 2-3.751 0-5-.289-5-2 0-2.374.683-3.259.729-3.315.3792316-.3973315.3670116-1.0261618-.02737047-1.4084598-.39438206-.3822979-1.0232882-.3749492-1.40862953.0164598-.526468.6316815-.87846178 1.3901402-1.021 2.2-1.963-1.734-4.272-5.647-4.272-14.493 0-3.724.266-8.04 2.238-11.82 1.33691114-2.5799102 3.40063399-4.7114272 5.936-6.131.7156996-.4266695 1.459391-.8045288 2.226-1.131 2.5599435-1.0769274 5.3150369-1.6124887 8.092-1.573.4107276 1.1536571.9831011 2.2431869 1.7 3.236.5516044.7795158 1.1937607 1.4908223 1.913 2.119-.4591143.9827868-.8192242 2.0088488-1.075 3.063-.1334945.5356925.1923791 1.0782184.728 1.212.0793647.0180538.1606207.0264481.242.025.4585975-.0005854.8580197-.3130332.969-.758.1976444-.8048029.4625767-1.5915716.792-2.352 2.0683724 1.1708934 4.4125675 1.766524 6.789 1.725 1.6120725.0069023 3.216783-.2177235 4.765-.667.5246705-.1739697.8089697-.7403295.635-1.265s-.7403295-.8089697-1.265-.635c-.341.111-8.372 2.669-12.872-3.632-2.5445333-3.6233343-2.7015654-8.4096729-.4-12.192 10.049 4 15.674 13.193 15.731 13.288.2892402.4622053.8954316.6075113 1.3627839.3266637.4673523-.2808477.6235797-.8843167.3512161-1.3566637-.7095759-1.1254771-1.4905077-2.2043521-2.338-3.23-.013-.088-.027-.173-.038-.268-.5554081-4.8580887-.4545025-9.76882726.3-14.6 6.418 2.708 10.218 6.992 10.218 11.616-.0059624 1.465325-.3870678 2.9047122-1.107 4.181-.6338526 1.1540862-1.4796266 2.1783107-2.493 3.019-.4418278.3313708-.5313708.9581722-.2 1.4s.9581722.5313708 1.4.2c.9956509-.8032726 1.8570949-1.7599076 2.552-2.834 4.216223 2.0532869 6.8794582 6.3444868 6.848 11.034.0936223 2.9248915-.2258592 5.8483655-.949 8.684-.1024148.3480706-.0202242.7243375.218.998z"/><path id="Shape" d="m45 21c.2651948-.0000566.5195073-.1054506.707-.293 1.4379909-1.5569845 2.2539952-3.5879206 2.293-5.707 0-.5522847-.4477153-1-1-1s-1 .4477153-1 1c-.0422399 1.5905386-.6478878 3.1144039-1.709 4.3-.2812046.2868755-.3634474.7141762-.2088184 1.0849369s.5161103.6130023.9178184.6150631z"/><path id="Shape" d="m29.515 14.143c-.472347-.2723636-1.075816-.1161362-1.3566637.3512161-.2808476.4673523-.1355416 1.0735437.3266637 1.3627839 2.7350861 1.5940934 5.014916 3.8639377 6.621 6.592.2485281.4940187.8504813.6930281 1.3445.4445s.6930281-.8504813.4445-1.3445c-1.7647365-3.0756063-4.310619-5.630458-7.38-7.406z"/><path id="Shape" d="m52 35c-1.7886565.1503745-3.1249538 1.7093881-3 3.5-.1249538 1.7906119 1.2113435 3.3496255 3 3.5 1.7886565-.1503745 3.1249538-1.7093881 3-3.5.1249538-1.7906119-1.2113435-3.3496255-3-3.5zm0 5c-.533 0-1-.7-1-1.5s.467-1.5 1-1.5 1 .7 1 1.5-.467 1.5-1 1.5z"/><path id="Shape" d="m37 36c-1.7886565.1503745-3.1249538 1.7093881-3 3.5-.1249538 1.7906119 1.2113435 3.3496255 3 3.5 1.7886565-.1503745 3.1249538-1.7093881 3-3.5.1249538-1.7906119-1.2113435-3.3496255-3-3.5zm0 5c-.533 0-1-.7-1-1.5s.467-1.5 1-1.5 1 .7 1 1.5-.467 1.5-1 1.5z"/><path id="Shape" d="m46.293 40.293-.293.293-.293-.293c-.3923789-.3789722-1.0160848-.3735524-1.4018186.0121814s-.3911536 1.0094397-.0121814 1.4018186l.707.707v1.586c0 .5522847.4477153 1 1 1s1-.4477153 1-1v-1.586l.707-.707c.3789722-.3923789.3735524-1.0160848-.0121814-1.4018186s-1.0094397-.3911536-1.4018186-.0121814z"/><path id="Shape" d="m30 40h-2c-.5522847 0-1 .4477153-1 1s.4477153 1 1 1h2c.5522847 0 1-.4477153 1-1s-.4477153-1-1-1z"/><path id="Shape" d="m29.553 43.105-2 1c-.4942948.2468713-.6948713.8477051-.448 1.342.2468713.4942948.8477052.6948713 1.342.448l2-1c.4942948-.2468713.6948713-.8477051.448-1.342-.2468713-.4942948-.8477052-.6948713-1.342-.448z"/></g></g></g></svg>