<svg viewBox="-33 0 512 512.04805" xmlns="http://www.w3.org/2000/svg"><g fill="#f6e06a"><path d="m121.480469 455.53125c0 9.121094-7.394531 16.519531-16.515625 16.519531-9.125 0-16.519532-7.398437-16.519532-16.519531 0-9.125 7.394532-16.519531 16.519532-16.519531 9.121094 0 16.515625 7.394531 16.515625 16.519531zm0 0"/><path d="m58.050781 367.9375c0 9.121094-7.394531 16.515625-16.519531 16.515625-9.121094 0-16.515625-7.394531-16.515625-16.515625 0-9.125 7.394531-16.519531 16.515625-16.519531 9.125 0 16.519531 7.394531 16.519531 16.519531zm0 0"/><path d="m40.5625 73.148438c0 9.125-7.394531 16.519531-16.519531 16.519531s-16.519531-7.394531-16.519531-16.519531c0-9.121094 7.394531-16.519532 16.519531-16.519532s16.519531 7.398438 16.519531 16.519532zm0 0"/><path d="m438.136719 63.90625c0 9.125-7.394531 16.519531-16.519531 16.519531-9.121094 0-16.519532-7.394531-16.519532-16.519531 0-9.121094 7.398438-16.515625 16.519532-16.515625 9.125 0 16.519531 7.394531 16.519531 16.515625zm0 0"/><path d="m438.136719 360.746094c0 9.125-7.394531 16.519531-16.519531 16.519531-9.121094 0-16.519532-7.394531-16.519532-16.519531s7.398438-16.519532 16.519532-16.519532c9.125 0 16.519531 7.394532 16.519531 16.519532zm0 0"/></g><path d="m178.980469 466.429688c-1.382813 0-2.777344-.027344-4.203125-.082032-9.183594-.355468-16.34375-8.089844-15.988282-17.273437.355469-9.1875 8.085938-16.335938 17.277344-15.992188 16.859375.652344 31.074219-1.863281 47.496094-39.8125 3.65625-8.4375 13.457031-12.3125 21.890625-8.664062 8.433594 3.652343 12.316406 13.449219 8.664063 21.886719-18.300782 42.28125-40.269532 59.9375-75.136719 59.9375zm0 0" fill="#bebfc0"/><path d="m277.566406 504.550781c-7.90625 0-15.464844-4.53125-18.953125-12.199219-11.617187-25.546874-17.9375-45.472656-21.816406-68.78125-1.890625-11.332031 5.769531-22.054687 17.101563-23.941406 11.332031-1.886718 22.054687 5.769532 23.945312 17.105469 3.285156 19.722656 8.511719 36.09375 18.652344 58.390625 4.757812 10.460938.132812 22.796875-10.328125 27.554688-2.792969 1.269531-5.722657 1.871093-8.601563 1.871093zm0 0" fill="#dfe3e5"/><path d="m366.59375 472.136719c-9.109375 0-17.472656-6.027344-20.03125-15.234375-6.566406-23.59375-13.082031-39.496094-23.246094-56.722656-5.835937-9.894532-2.546875-22.652344 7.347656-28.492188 9.898438-5.835938 22.65625-2.546875 28.492188 7.347656 12.007812 20.351563 19.972656 39.679688 27.496094 66.714844 3.078125 11.070312-3.398438 22.542969-14.46875 25.621094-1.867188.519531-3.742188.765625-5.589844.765625zm0 0" fill="#dfe3e5"/><path d="m169.175781 397.375c-20.582031 0-41.378906-6.488281-59.464843-19.066406-9.433594-6.5625-11.761719-19.53125-5.199219-28.964844 6.558593-9.433594 19.527343-11.757812 28.960937-5.195312 6.375 4.433593 29.1875 18.121093 55.09375 8.027343 10.703125-4.167969 22.769532 1.125 26.941406 11.832031 4.171876 10.707032-1.128906 22.769532-11.835937 26.941407-11.058594 4.308593-22.742187 6.425781-34.496094 6.425781zm0 0" fill="#dfe3e5"/><path d="m356.269531 332.042969c-8.5 0-16.476562-5.246094-19.554687-13.695313-3.929688-10.800781 1.636718-22.738281 12.4375-26.667968 26.121094-9.507813 34.234375-34.84375 36.097656-42.382813 2.757812-11.15625 14.039062-17.964844 25.191406-15.207031 11.15625 2.757812 17.964844 14.039062 15.207032 25.195312-8.308594 33.601563-31.585938 60.332032-62.265626 71.496094-2.347656.855469-4.75 1.261719-7.113281 1.261719zm0 0" fill="#dfe3e5"/><path d="m387.535156 317.714844c-.957031-5.792969-2.449218-11.5625-4.515625-17.246094-3.054687-8.394531-7.222656-16.21875-12.359375-23.375-5.257812 5.851562-12.246094 11.214844-21.507812 14.585938-10.796875 3.929687-16.367188 15.871093-12.433594 26.667968 3.074219 8.449219 11.050781 13.695313 19.550781 13.695313 2.363281 0 4.765625-.40625 7.117188-1.261719 8.703125-3.167969 16.808593-7.589844 24.148437-13.066406zm0 0" fill="#cacdcf"/><path d="m368.097656 395.539062c-2.734375-5.539062-5.683594-10.984374-8.941406-16.503906-5.835938-9.898437-18.59375-13.1875-28.492188-7.347656-9.894531 5.839844-13.183593 18.59375-7.347656 28.492188 5 8.46875 9.113282 16.625 12.785156 25.527343 12.757813-8.210937 23.558594-18.519531 31.996094-30.167969zm0 0" fill="#cacdcf"/><path d="m277.84375 416.734375c-1.890625-11.335937-12.609375-18.992187-23.945312-17.105469-11.335938 1.886719-18.992188 12.609375-17.101563 23.941406 1.054687 6.351563 2.304687 12.449219 3.78125 18.476563 9.167969 2.289063 18.730469 3.460937 28.484375 3.460937h.007812c5.148438 0 10.285157-.332031 15.390626-.984374-2.910157-9.1875-5-18.082032-6.617188-27.789063zm0 0" fill="#cacdcf"/><path d="m168.011719 378.722656c2.351562 6.457032 5.355469 12.582032 8.953125 18.324219 9.105468-.734375 18.097656-2.742187 26.707031-6.097656 10.707031-4.171875 16.007813-16.234375 11.835937-26.941407-4.171874-10.707031-16.238281-16-26.941406-11.832031-9.222656 3.59375-18.046875 4.164063-25.886718 3.21875.789062 7.835938 2.542968 15.65625 5.332031 23.328125zm0 0" fill="#cacdcf"/><path d="m370.824219 304.914062c-17.324219-47.605468-74.042969-70.667968-126.683594-51.507812s-81.269531 73.28125-63.945313 120.886719c17.328126 47.605469 74.046876 70.667969 126.6875 51.507812 52.640626-19.15625 81.269532-73.28125 63.941407-120.886719zm0 0" fill="#dfe3e5"/><path d="m214.417969 416.808594 157.535156-57.335938c1.722656-5.625 2.898437-11.382812 3.488281-17.199218l-174.75 63.605468c4.191406 4.074219 8.789063 7.730469 13.726563 10.929688zm0 0" fill="#d16283"/><path d="m311.339844 360.175781c0 15.648438-12.6875 28.332031-28.332032 28.332031-15.648437 0-28.335937-12.683593-28.335937-28.332031 0-15.648437 12.6875-28.332031 28.335937-28.332031 15.644532 0 28.332032 12.683594 28.332032 28.332031zm0 0" fill="#a2d3ee"/><path d="m397.675781 123.050781c-33.78125-92.820312-140.644531-139.136719-238.6875-103.457031-98.042969 35.683594-150.136719 139.855469-116.355469 232.675781 33.78125 92.816407 140.644532 139.136719 238.6875 103.453125 98.042969-35.679687 150.136719-139.851562 116.355469-232.671875zm0 0" fill="#a2d3ee"/><path d="m341.457031 252.921875c-16.304687 27.882813-42.0625 50.457031-74.789062 62.371094-32.722657 11.910156-66.96875 11.171875-97.382813.292969-2.625 8.238281-4.214844 16.75-4.644531 25.347656-.578125 11.710937 7.652344 22.046875 19.183594 24.167968 31.753906 5.835938 65.429687 3.558594 97.957031-8.28125 32.53125-11.839843 59.792969-31.742187 80.367188-56.621093 7.472656-9.039063 7.132812-22.246094-.839844-30.847657-5.855469-6.3125-12.542969-11.804687-19.851563-16.429687zm0 0" fill="#7f9ae6"/><path d="m220.660156 323.949219c-17.675781.378906-35.074218-2.53125-51.371094-8.363281-2.628906 8.238281-4.21875 16.75-4.644531 25.347656-.582031 11.710937 7.648438 22.046875 19.179688 24.167968 16.511719 3.035157 33.542969 3.851563 50.660156 2.296876-9.914063-9.414063-14.574219-27.265626-13.824219-43.449219zm0 0" fill="#5e78bf"/><path d="m172.597656 178.582031c-4.238281 1.542969-8.988281 1.808594-13.65625.472657l-32.371094-9.28125c-14.175781-4.0625-29.050781 2.117187-36.171874 15.03125l-11.4375 20.738281c-5.90625 10.707031-19.375 14.601562-30.082032 8.695312-10.710937-5.90625-14.601562-19.375-8.699218-30.082031l11.4375-20.738281c8.246093-14.953125 21.472656-26.796875 37.242187-33.347657 15.773437-6.554687 33.496094-7.570312 49.910156-2.867187l32.371094 9.28125c11.757813 3.367187 18.554687 15.628906 15.183594 27.386719-2.027344 7.082031-7.292969 12.371094-13.726563 14.710937zm0 0" fill="#495059"/><path d="m250.859375 150.097656c-6.4375 2.34375-13.863281 1.675782-19.976563-2.445312-10.136718-6.839844-12.8125-20.601563-5.972656-30.742188l18.835938-27.914062c9.550781-14.15625 23.785156-24.769532 40.074218-29.886719 16.292969-5.117187 34.035157-4.546875 49.964844 1.605469l22.089844 8.535156c11.410156 4.40625 17.082031 17.230469 12.675781 28.636719s-17.226562 17.082031-28.632812 12.675781l-22.09375-8.535156c-13.753907-5.316406-29.121094-.488282-37.367188 11.734375l-18.835937 27.917969c-2.714844 4.027343-6.523438 6.875-10.761719 8.417968zm0 0" fill="#495059"/><path d="m271.710938 329.140625c105.628906-38.445313 135.621093-104.160156 95.964843-166.886719-42.613281-67.40625-107.492187-89.183594-179.613281-62.933594s-107.824219 84.632813-97.136719 163.664063c9.9375 73.542969 75.15625 104.601563 180.785157 66.15625zm0 0" fill="#ddaf89"/><path d="m179.058594 235.648438c-4.589844-12.609376-21.140625-18.15625-36.96875-12.394532-15.828125 5.761719-24.941406 20.648438-20.355469 33.253906 4.585937 12.605469 21.140625 18.15625 36.96875 12.394532 15.828125-5.761719 24.941406-20.648438 20.355469-33.253906zm0 0" fill="#ffdbdb"/><path d="m282.585938 197.953125c4.585937 12.605469 21.136718 18.15625 36.96875 12.394531 15.828124-5.761718 24.941406-20.652344 20.351562-33.257812-4.585938-12.605469-21.136719-18.152344-36.96875-12.390625-15.828125 5.761719-24.941406 20.648437-20.351562 33.253906zm0 0" fill="#ffdbdb"/><path d="m238.988281 192.464844c-10.796875 1.007812-21.148437 4.773437-30.0625 10.941406-3.691406 2.554688-6.335937 6.359375-7.4375 10.710938-1.488281 5.878906 2.703125 11.667968 8.753907 12.089843l16.777343 1.167969c4.996094.34375 9.90625-1.441406 13.511719-4.921875l12.101562-11.675781c4.363282-4.210938 3.851563-11.34375-1.066406-14.886719-3.640625-2.625-8.109375-3.84375-12.578125-3.425781zm0 0" fill="#495059"/><path d="m421.617188 87.925781c13.246093 0 24.019531-10.773437 24.019531-24.019531 0-13.242188-10.773438-24.015625-24.019531-24.015625-13.242188 0-24.019532 10.773437-24.019532 24.015625 0 13.246094 10.777344 24.019531 24.019532 24.019531zm0-33.035156c4.976562 0 9.019531 4.042969 9.019531 9.015625 0 4.976562-4.046875 9.019531-9.019531 9.019531-4.972657 0-9.019532-4.042969-9.019532-9.019531 0-4.972656 4.046875-9.015625 9.019532-9.015625zm-380.085938 289.027344c-13.242188 0-24.019531 10.773437-24.019531 24.015625 0 13.246094 10.777343 24.019531 24.019531 24.019531 13.246094 0 24.019531-10.773437 24.019531-24.019531 0-13.242188-10.773437-24.015625-24.019531-24.015625zm0 33.035156c-4.972656 0-9.019531-4.046875-9.019531-9.019531s4.046875-9.015625 9.019531-9.015625c4.976562 0 9.019531 4.042969 9.019531 9.015625 0 4.976562-4.046875 9.019531-9.019531 9.019531zm6.53125-303.804687c0-13.242188-10.777344-24.019532-24.019531-24.019532-13.246094 0-24.0195315 10.777344-24.0195315 24.019532 0 13.246093 10.7734375 24.019531 24.0195315 24.019531 13.242187 0 24.019531-10.773438 24.019531-24.019531zm-33.039062 0c0-4.972657 4.046874-9.019532 9.019531-9.019532 4.972656 0 9.019531 4.046875 9.019531 9.019532 0 4.972656-4.046875 9.019531-9.019531 9.019531-4.972657 0-9.019531-4.046875-9.019531-9.019531zm194.699218 160.539062 16.777344 1.167969c.578125.039062 1.160156.0625 1.738281.0625.394531 0 .789063-.011719 1.183594-.03125l7.238281 19.886719c-8.140625 1.21875-16.539062-.242188-23.882812-4.300782-3.625-2.003906-8.1875-.6875-10.191406 2.933594-2 3.625-.6875 8.191406 2.9375 10.195312 7.921874 4.375 16.722656 6.597657 25.558593 6.597657 6.082031 0 12.179688-1.054688 18.019531-3.179688 14.328126-5.210937 25.691407-16.378906 31.183594-30.628906 1.488282-3.867187-.4375-8.207031-4.304687-9.695313-3.867188-1.492187-8.203125.4375-9.695313 4.300782-3.011718 7.828125-8.507812 14.347656-15.527344 18.644531l-7.238281-19.890625c.769531-.589844 1.515625-1.21875 2.21875-1.898438l12.105469-11.675781c3.683594-3.554687 5.585938-8.523437 5.222656-13.625-.367187-5.105469-2.960937-9.75-7.109375-12.742187-5.113281-3.6875-11.386719-5.394532-17.664062-4.808594-12.050781 1.121094-23.679688 5.355469-33.632813 12.238281-5.183594 3.585938-8.890625 8.925781-10.441406 15.039063-1.253906 4.960937-.253906 10.1875 2.746094 14.332031s7.648437 6.726563 12.757812 7.078125zm-.964844-17.726562c.65625-2.597657 2.230469-4.863282 4.433594-6.386719 7.839844-5.421875 17-8.757813 26.492188-9.640625.34375-.035156.6875-.050782 1.03125-.050782 2.3125 0 4.578125.726563 6.46875 2.089844.734375.53125.890625 1.257813.917968 1.644532.027344.390624-.023437 1.132812-.675781 1.761718l-12.105469 11.679688c-2.070312 2-4.90625 3.03125-7.78125 2.832031l-16.777343-1.167969c-.902344-.0625-1.421875-.597656-1.648438-.914062-.226562-.3125-.578125-.972656-.355469-1.847656zm-103.796874 215.550781c-13.242188 0-24.019532 10.773437-24.019532 24.019531 0 13.242188 10.777344 24.019531 24.019532 24.019531 13.246093 0 24.019531-10.777343 24.019531-24.019531 0-13.246094-10.773438-24.019531-24.019531-24.019531zm0 33.039062c-4.972657 0-9.019532-4.046875-9.019532-9.019531s4.046875-9.019531 9.019532-9.019531c4.976562 0 9.019531 4.046875 9.019531 9.019531s-4.042969 9.019531-9.019531 9.019531zm283.375-17.40625c-4.097657-.640625-7.933594 2.148438-8.578126 6.242188-.808593 5.140625-4.570312 9.363281-9.582031 10.757812-1.175781.328125-2.378906.492188-3.578125.492188-5.945312 0-11.214844-4.007813-12.808594-9.746094-4.253906-15.277344-8.546874-27.476563-13.628906-38.648437 7.546875-5.664063 14.339844-12.167969 20.179688-19.429688 4.585937 9.070312 8.511718 18.3125 12.066406 28.421875 1.085938 3.082031 3.980469 5.011719 7.074219 5.011719.828125 0 1.667969-.140625 2.488281-.429688 3.910156-1.375 5.960938-5.65625 4.585938-9.5625-4.726563-13.4375-10.070313-25.453125-16.652344-37.472656.617187-1.078125 1.242187-2.15625 1.824218-3.257812 8.460938-15.996094 12.355469-33.113282 11.589844-49.984376 24.449219-14.640624 42.410156-39.320312 49.613282-68.453124 1.8125-7.34375.660156-14.949219-3.246094-21.421876-3.90625-6.472656-10.101563-11.039062-17.441406-12.851562-.824219-.207031-1.660157-.359375-2.5-.488281.195312-.753907.40625-1.503907.59375-2.261719 8.386718-34.636719 6.445312-70.457031-5.613282-103.585938-17.050781-46.84375-52.320312-83.863281-99.3125-104.230468-46.847656-20.304688-99.761718-21.621094-148.988281-3.703125-101.773437 37.042969-155.976563 145.730469-120.832031 242.285156 4.957031 13.628906 11.558594 26.601563 19.609375 38.558594 2.3125 3.433593 6.976562 4.34375 10.410156 2.03125 3.4375-2.316407 4.34375-6.976563 2.03125-10.410157-7.371094-10.945312-13.414063-22.824218-17.957031-35.308593-3.742188-10.28125-6.367188-20.71875-7.957032-31.183594 1.109376.832031 2.28125 1.601563 3.527344 2.289063 4.527344 2.496093 9.429688 3.679687 14.265625 3.679687 9.011719 0 17.789063-4.121094 23.503907-11.519531-2.117188 15.96875-1.96875 33.003906.464843 51.023437 4.515625 33.386719 20.011719 58.957031 44.816407 73.949219 8.925781 5.394531 18.90625 9.347656 29.824218 11.890625.179688.703125.378906 1.402344.605469 2.085937-26.507813-8.277343-50.628906-22.503906-70.117187-41.675781-2.953126-2.902343-7.703126-2.867187-10.605469.085938-2.90625 2.953125-2.867188 7.699219.085937 10.605469 7.410156 7.289062 15.433594 13.910156 23.964844 19.839843-1.367188 1.300781-2.621094 2.722657-3.707031 4.289063-8.914063 12.816406-5.742188 30.492187 7.070312 39.402344 19.195313 13.355468 41.242188 20.414062 63.75 20.414062 6.351563 0 12.683594-.589844 18.886719-1.738281 3.96875 4.882812 8.417969 9.335937 13.265625 13.324219-8.132813 8.949218-15.671875 9.488281-24.984375 9.125-13.300781-.492188-24.539062 9.90625-25.050781 23.195312-.25 6.445312 2.027343 12.601562 6.40625 17.332031 4.382812 4.734375 10.34375 7.476563 16.789062 7.726563 1.523438.058594 3.035157.089844 4.492188.089844 23.097656 0 41.28125-7.335938 56.207031-22.882813 3.921875 14.066406 9.238281 28.21875 16.597656 44.40625 4.582032 10.082031 14.703125 16.59375 25.78125 16.59375 4.050782 0 7.988282-.855469 11.703125-2.542969 14.207031-6.460937 20.511719-23.277344 14.050781-37.484375-5.902343-12.980469-9.96875-23.574219-12.988281-33.96875 6.390625-1.183593 12.785157-2.90625 19.121094-5.210937 6.292969-2.289063 12.296875-5.082032 17.996094-8.296875 4.363281 9.898437 8.0625 20.628906 11.886719 34.367187 3.394531 12.203125 14.601562 20.726563 27.257812 20.726563 2.558594 0 5.117188-.351563 7.601562-1.042969 10.65625-2.964844 18.65625-11.945312 20.378907-22.875.644531-4.089844-2.148438-7.929688-6.238281-8.574219zm17.019531-206.152343c1.105469-.007813 2.207031.113281 3.289062.378906 3.449219.851562 6.363281 3 8.199219 6.042968 1.835938 3.042969 2.378906 6.617188 1.523438 10.070313-5.691407 23.015625-19.054688 42.777344-37.300782 55.636719-.839844-3.632813-1.898437-7.230469-3.1875-10.78125-.746094-2.042969-1.566406-4.070313-2.464844-6.070313 13.003907-16.808593 23.125-35.480469 29.941407-55.277343zm-29.808594-140.402344c.496094-1.289063.894531-2.597656 1.207031-3.917969 5.511719 9.085937 10.167969 18.753906 13.875 28.933594 11.042969 30.34375 12.816406 63.167969 5.128906 94.925781-.925781 3.820312-1.984374 7.605469-3.167968 11.351562-.03125.09375-.058594.1875-.089844.28125-4.652344 14.644532-11.273438 28.660157-19.636719 41.722657-.253906-.640625-.546875-1.273438-.84375-1.902344 6.730469-8.96875 11.832031-18.414063 15.203125-28.285156 9.363282-27.429688 4.796875-56.976563-13.207031-85.453125-9.710937-15.363282-20.542969-28.507813-32.425781-39.378906 2.085937.460937 4.203125.695312 6.316406.695312 4.078125 0 8.148438-.851562 11.988281-2.550781 7.238281-3.203125 12.796875-9.035157 15.652344-16.421875zm-14.261719-16.609375c1.582032 3.574219 1.679688 7.554687.269532 11.203125-1.410157 3.648437-4.15625 6.53125-7.730469 8.113281-3.578125 1.582031-7.554688 1.679687-11.203125.269531l-22.09375-8.535156c-6-2.320312-12.425782-3.117188-18.730469-2.359375-3.414063-1.5-6.878906-2.871094-10.40625-4.09375-10.230469-3.546875-20.765625-5.851563-31.574219-6.921875 7.457032-6.996094 16.445313-12.308594 26.25-15.394531 14.679688-4.605469 30.667969-4.09375 45.019532 1.449219l22.089843 8.535156c3.644531 1.410156 6.527344 4.15625 8.109375 7.734375zm-199.734375-57.34375c45.605469-16.601563 94.578125-15.402344 137.894531 3.371093 15.386719 6.667969 29.390626 15.28125 41.765626 25.539063l-4.722657-1.828125c-17.507812-6.761719-37.007812-7.390625-54.917969-1.765625-16.410156 5.15625-30.945312 15.425781-41.335937 29.101563-17.644531.632812-35.929687 4.371093-54.738281 11.21875-18.804688 6.84375-35.214844 15.734374-49.140625 26.589843-16.753907-3.796875-34.488281-2.320312-50.375 4.277344-17.332031 7.203125-31.867188 20.21875-40.929688 36.65625l-2.425781 4.394531c11.039062-60.175781 54.773438-114.203125 118.925781-137.554687zm-77.71875 154.546875-11.4375 20.734375c-3.898437 7.070312-12.824219 9.652343-19.894531 5.753906s-9.648438-12.824219-5.75-19.894531l11.433594-20.738282c7.429687-13.472656 19.347656-24.140624 33.554687-30.046874 9.492188-3.941407 19.796875-5.648438 30.003907-5.082032-7.589844 7.769532-14.179688 16.308594-19.738282 25.601563-1.917968 3.203125-3.691406 6.480469-5.339844 9.824219-5.316406 3.472656-9.726562 8.214843-12.832031 13.847656zm52.230469 143.917968c-20.785156-12.5625-33.824219-34.390624-37.707031-63.121093-4.378907-32.402344-.746094-61.117188 10.40625-85.332031.367187-.5625.648437-1.175782.851562-1.808594 7.644531-15.90625 18.589844-29.824219 32.695313-41.511719.472656-.308594.914062-.660156 1.304687-1.070313 13.074219-10.558593 28.777344-19.25 47.015625-25.890624 18.246094-6.640626 35.859375-10.070313 52.667969-10.386719.554687.058593 1.117187.046875 1.667969-.019531.28125 0 .566406-.007813.847656-.007813 18.035156 0 35.097656 3.652344 50.953125 10.832031.550781.34375 1.144531.617188 1.773437.808594 24.097657 11.382812 45.332032 31.042969 62.796876 58.667969 15.492187 24.507812 19.535156 49.609375 11.691406 72.59375-3.230469 9.453125-8.351563 18.507812-15.273438 27.097656-.414062.394531-.769531.832031-1.074218 1.296875-18.035157 21.679688-47.660157 40.332031-87.535157 54.84375-39.851562 14.507812-74.523437 19.265625-102.269531 14.257812-.546875-.164062-1.117188-.273437-1.707031-.308593-10.820313-2.132813-20.558594-5.777344-29.105469-10.941407zm33.113281 64.773438c-19.433593 0-38.511719-6.128906-55.183593-17.726562-6.023438-4.1875-7.515626-12.496094-3.324219-18.519532 1.269531-1.828125 2.984375-3.28125 4.957031-4.269531 17.117188 9.839844 35.863281 17.066406 55.539062 21.34375.59375 2.078125 1.257813 4.132813 1.988282 6.148437 1.589844 4.363282 3.496094 8.523438 5.667968 12.496094-3.195312.347656-6.417968.527344-9.644531.527344zm11.464844-33.726562c-.171875-.101563-.347656-.195313-.53125-.28125-1.488281-.851563-2.820313-1.933594-3.949219-3.199219 4.332032.378906 8.78125.574219 13.347656.574219 25.042969 0 53.546876-5.6875 84.765626-17.050782 36.925781-13.4375 65.816406-30.523437 85.753906-50.460937-.050782 1.695312-.371094 3.382812-.964844 5-.085938.1875-.164062.378906-.234375.574219-.601563 1.457031-1.410156 2.847656-2.460937 4.117187-20.332032 24.585937-47.007813 43.382813-77.148438 54.351563s-62.660156 13.722656-94.035156 7.953124c-1.621094-.300781-3.144532-.84375-4.542969-1.578124zm121.246094 12.832031c-2.351563 5.042969-6.527344 8.867187-11.753907 10.773437-5.230468 1.902344-10.886718 1.65625-15.933593-.695312-4.175781-1.949219-7.496094-5.160156-9.601563-9.167969 6.664063-1.65625 13.261719-3.660156 19.75-6.023437 6.492188-2.363282 12.828125-5.074219 19-8.089844.96875 4.425781.488282 9.023437-1.460937 13.203125zm-122.90625 89.949219c-1.265625 0-2.582031-.023438-3.914063-.074219-2.4375-.09375-4.699218-1.132813-6.355468-2.925781-1.660157-1.792969-2.523438-4.125-2.429688-6.566407.195312-5.035156 4.480469-8.964843 9.492188-8.785156 12.222656.46875 25.140624-.457031 37.90625-15.457031 5.363281 3.183594 11.054687 5.882812 16.996093 8.078125-13.480469 17.992187-29.125 25.730469-51.695312 25.730469zm104.085937 36.921874c-1.753906.792969-3.601562 1.199219-5.5 1.199219-5.210937 0-9.96875-3.066406-12.125-7.804687-8.757812-19.261719-14.332031-34.914063-18.167968-51.386719 7.117187 1.40625 14.453124 2.152344 21.910156 2.152344 2.015625 0 4.039062-.0625 6.070312-.167969 3.292969 11.835938 7.847656 23.945312 14.414063 38.386719 3.035156 6.679687.074219 14.582031-6.601563 17.621093zm21.257813-77.105468c-47.960938 17.457031-99.664063-2.777344-116.359375-45.140625 2.765625.355469 5.542968.65625 8.332031.898437h.070313c7.023437.769532 14.078124 1.160156 21.128906 1.160156 10.734375 0 21.457031-.898437 32.0625-2.664062 3.339844 8.726562 9.816406 15.691406 18.304687 19.652344 4.816407 2.246094 9.960938 3.375 15.121094 3.375 4.132813 0 8.28125-.722656 12.277344-2.179688 8.996093-3.273437 16.175781-9.855468 20.222656-18.527344 3.960937-8.496093 4.441406-18 1.382813-26.835937 15.859374-9.359375 30.34375-20.90625 42.960937-34.335937.011719-.011719.023437-.019532.035156-.03125 1.542969-1.570313 3.058594-3.164063 4.542969-4.773438 6.875 20.5 4.808594 42.847656-5.9375 63.164062-11.207031 21.1875-30.4375 37.609376-54.144531 46.238282zm117.292969-82.019532c-13.242188 0-24.019532 10.773438-24.019532 24.019532 0 13.242187 10.777344 24.019531 24.019532 24.019531 13.246093 0 24.019531-10.777344 24.019531-24.019531 0-13.246094-10.773438-24.019532-24.019531-24.019532zm0 33.039063c-4.972657 0-9.019532-4.046875-9.019532-9.019531s4.046875-9.019532 9.019532-9.019532c4.976562 0 9.019531 4.046876 9.019531 9.019532s-4.046875 9.019531-9.019531 9.019531zm-142.410157-196.359375c1.105469 3.042969 3.984375 4.9375 7.046875 4.9375.851563 0 1.71875-.148438 2.566406-.457031 3.890626-1.414063 5.898438-5.71875 4.480469-9.613281l-3.683593-10.121094c-1.417969-3.890625-5.71875-5.902344-9.613282-4.480469-3.890625 1.417969-5.898437 5.71875-4.480468 9.613281zm-113.34375 41.253906-3.683593-10.121094c-1.417969-3.894531-5.714844-5.902343-9.613282-4.484374-3.890625 1.417968-5.898437 5.722656-4.480468 9.613281l3.683593 10.121093c1.109375 3.046876 3.984375 4.9375 7.046875 4.9375.851563 0 1.71875-.148437 2.566406-.453124 3.890626-1.417969 5.898438-5.722657 4.480469-9.613282zm0 0"/></svg>