<svg viewBox="-37 0 512 512.00271" xmlns="http://www.w3.org/2000/svg"><path d="m98.351562 422.46875c-11.964843 0-24.304687-2.753906-37.46875-8.128906-10.613281-4.335938-15.703124-16.453125-11.367187-27.066406 4.332031-10.613282 16.453125-15.699219 27.0625-11.367188 19.488281 7.957031 37.214844 11.066406 72.644531-26.398438 7.875-8.328124 21.011719-8.695312 29.34375-.816406 8.328125 7.875 8.695313 21.015625.820313 29.34375-28.515625 30.152344-53.796875 44.433594-81.035157 44.433594zm0 0" fill="#495059"/><path d="m173.875 504.5c-13.417969 0-24.78125-10.332031-25.839844-23.933594-2.714844-34.894531-1.625-60.941406 3.765625-89.902344 2.621094-14.089843 16.171875-23.386718 30.253907-20.761718 14.089843 2.621094 23.386718 16.167968 20.765624 30.253906-4.5625 24.515625-5.417968 45.929688-3.046874 76.382812 1.113281 14.289063-9.570313 26.769532-23.855469 27.882813-.683594.054687-1.367188.078125-2.042969.078125zm0 0" fill="#ddaf89"/><path d="m292.113281 504.5c-.675781 0-1.355469-.023438-2.042969-.078125-14.285156-1.113281-24.964843-13.597656-23.855468-27.882813 2.371094-30.453124 1.515625-51.867187-3.046875-76.382812-2.621094-14.089844 6.675781-27.636719 20.765625-30.257812 14.082031-2.621094 27.632812 6.675781 30.253906 20.761718 5.390625 28.964844 6.480469 55.011719 3.765625 89.90625-1.058594 13.601563-12.425781 23.933594-25.839844 23.933594zm0 0" fill="#ddaf89"/><path d="m93.195312 342.738281c-33.535156 0-62.707031-17.246093-82.058593-49.933593-7.300781-12.328126-3.222657-28.246094 9.109375-35.546876 12.332031-7.300781 28.246094-3.21875 35.546875 9.109376 14.054687 23.746093 33.988281 30.117187 60.941406 19.472656 13.324219-5.269532 28.402344 1.273437 33.664063 14.601562 5.265624 13.328125-1.269532 28.398438-14.597657 33.664063-14.679687 5.796875-29 8.632812-42.605469 8.632812zm0 0" fill="#ddaf89"/><path d="m116.734375 285.839844c-21.882813 8.644531-39.136719 6.070312-52.378906-7.914063l-37.273438 36.125c17.992188 18.863281 40.808594 28.6875 66.113281 28.6875 13.601563 0 27.925782-2.835937 42.601563-8.632812 13.328125-5.265625 19.867187-20.335938 14.601563-33.664063-5.261719-13.328125-20.339844-19.867187-33.664063-14.601562zm0 0" fill="#495059"/><path d="m393.773438 417.269531c-1.152344 0-2.320313-.074219-3.492188-.234375-14.203125-1.910156-24.167969-14.96875-22.257812-29.171875 3.679687-27.351562-8.023438-44.699219-35.769532-53.042969-13.726562-4.125-21.507812-18.59375-17.378906-32.320312 4.125-13.722656 18.597656-21.503906 32.316406-17.378906 52.367188 15.746094 79.378906 56.738281 72.261719 109.65625-1.75 13.03125-12.890625 22.492187-25.679687 22.492187zm0 0" fill="#ddaf89"/><path d="m347.191406 285.125c-13.71875-4.128906-28.191406 3.652344-32.316406 17.375-4.128906 13.726562 3.652344 28.195312 17.375 32.320312 27.75 8.34375 39.449219 25.691407 35.773438 53.042969-.433594 3.207031-.253907 6.359375.441406 9.335938 3.257812-6.363281 5.105468-13.558594 5.105468-21.183594v-79.652344c-7.890624-4.550781-16.699218-8.328125-26.378906-11.238281zm0 0" fill="#d1a582"/><path d="m347.191406 285.125c-13.71875-4.128906-28.191406 3.652344-32.316406 17.375-4.128906 13.726562 3.652344 28.195312 17.375 32.320312 23.792969 7.152344 35.773438 20.933594 36.394531 41.953126l51.914063 2.976562c.53125-45.59375-26.074219-80.410156-73.367188-94.625zm0 0" fill="#495059"/><path d="m314.1875 390.660156c-2.621094-14.085937-16.171875-23.382812-30.253906-20.761718-14.089844 2.621093-23.386719 16.167968-20.765625 30.257812 2.078125 11.164062 3.378906 21.691406 3.964843 32.714844 18.429688-4.234375 35.421876-11.8125 50.15625-21.988282-.800781-6.679687-1.824218-13.367187-3.101562-20.222656zm0 0" fill="#d1a582"/><path d="m182.054688 369.898438c-14.082032-2.621094-27.632813 6.675781-30.253907 20.761718-1.277343 6.851563-2.300781 13.539063-3.101562 20.222656 14.730469 10.175782 31.722656 17.753907 50.15625 21.988282.585937-11.023438 1.886719-21.550782 3.960937-32.714844 2.625-14.089844-6.671875-27.632812-20.761718-30.257812zm0 0" fill="#d1a582"/><path d="m359.484375 308.769531c0-63.175781-56.632813-114.390625-126.488281-114.390625-69.859375 0-126.492188 51.214844-126.492188 114.390625s56.632813 114.390625 126.492188 114.390625c69.855468 0 126.488281-51.214844 126.488281-114.390625zm0 0" fill="#ddaf89"/><path d="m116.734375 285.839844c-8.851563 3.496094-16.941406 5.15625-24.320313 4.96875v51.914062c.261719 0 .519532.015625.78125.015625 13.601563 0 27.925782-2.835937 42.601563-8.632812 13.328125-5.265625 19.867187-20.335938 14.601563-33.664063-5.261719-13.328125-20.339844-19.867187-33.664063-14.601562zm0 0" fill="#41464f"/><path d="m105.976562 277.0625v98.957031c0 18.269531 14.8125 33.082031 33.082032 33.082031h53.027344c6.214843 0 11.253906-5.039062 11.253906-11.253906v-120.785156zm0 0" fill="#495059"/><path d="m373.574219 296.378906c-7.894531-4.554687-16.695313-8.34375-26.382813-11.253906-13.71875-4.128906-28.191406 3.652344-32.316406 17.375-4.128906 13.726562 3.652344 28.195312 17.378906 32.320312 23.789063 7.152344 35.769532 20.933594 36.390625 41.953126l4.902344.277343c.007813-.34375.027344-.6875.027344-1.035156zm0 0" fill="#41464f"/><path d="m360.011719 277.0625v98.957031c0 18.269531-14.8125 33.082031-33.082031 33.082031h-53.03125c-6.214844 0-11.25-5.039062-11.25-11.253906v-120.785156zm0 0" fill="#495059"/><path d="m288.355469 277.0625h-25.707031v120.785156c0 6.214844 5.039062 11.25 11.253906 11.25h14.453125zm0 0" fill="#fff"/><path d="m177.628906 277.0625h25.710938v120.785156c0 6.214844-5.039063 11.25-11.253906 11.25h-14.457032zm0 0" fill="#fff"/><path d="m347.234375 235.324219c-30.996094 25.722656-70.8125 41.191406-114.238281 41.191406-43.429688 0-83.246094-15.46875-114.242188-41.191406-6.59375 8.535156-12.089844 17.828125-16.253906 27.722656-5.679688 13.480469-.441406 29.101563 12.167969 36.503906 34.722656 20.382813 75.15625 32.074219 118.328125 32.074219 43.167968 0 83.601562-11.691406 118.324218-32.074219 12.609376-7.402343 17.847657-23.023437 12.171876-36.503906-4.167969-9.894531-9.664063-19.1875-16.257813-27.722656zm0 0" fill="#7f9ae6"/><path d="m175.386719 267.035156c-20.875-7.089844-40.023438-17.925781-56.636719-31.710937-6.589844 8.539062-12.085938 17.828125-16.253906 27.722656-5.675782 13.480469-.441406 29.101563 12.171875 36.503906 18.054687 10.601563 37.664062 18.820313 58.386719 24.300781-7.601563-15.261718-5.449219-38.167968 2.332031-56.816406zm0 0" fill="#5e78bf"/><path d="m185.855469 91.609375c-5.105469 0-10.261719-1.554687-14.710938-4.785156l-30.839843-22.402344c-13.503907-9.8125-31.71875-8.996094-44.292969 1.984375l-20.195313 17.628906c-10.425781 9.105469-26.261718 8.03125-35.363281-2.394531-9.105469-10.429687-8.03125-26.265625 2.394531-35.367187l20.191406-17.632813c14.5625-12.714844 33.21875-20.191406 52.527344-21.054687 19.316406-.863282 38.5625 4.914062 54.199219 16.273437l30.84375 22.40625c11.199219 8.132813 13.683594 23.808594 5.546875 35.007813-4.902344 6.753906-12.546875 10.335937-20.300781 10.335937zm0 0" fill="#495059"/><path d="m280.132812 91.609375c-7.753906 0-15.398437-3.582031-20.300781-10.335937-8.136719-11.199219-5.652343-26.875 5.546875-35.011719l30.839844-22.402344c15.640625-11.359375 34.894531-17.132813 54.199219-16.277344 19.3125.867188 37.964843 8.34375 52.527343 21.058594l20.195313 17.628906c10.425781 9.105469 11.5 24.941407 2.394531 35.367188-9.105468 10.429687-24.9375 11.503906-35.367187 2.398437l-20.191407-17.632812c-12.578124-10.976563-30.789062-11.792969-44.296874-1.984375l-30.839844 22.40625c-4.445313 3.230469-9.601563 4.785156-14.707032 4.785156zm0 0" fill="#495059"/><path d="m232.996094 290.132812c127.242187 0 184.585937-58.289062 166.691406-140.363281-19.234375-88.203125-79.8125-136.484375-166.691406-136.484375-86.882813 0-147.460938 48.28125-166.695313 136.484375-17.894531 82.074219 39.449219 140.363281 166.695313 140.363281zm0 0" fill="#ddaf89"/><path d="m268.328125 336.082031c0 19.511719-15.820313 35.332031-35.332031 35.332031-19.515625 0-35.335938-15.820312-35.335938-35.332031 0-19.515625 15.820313-35.332031 35.335938-35.332031 19.511718 0 35.332031 15.816406 35.332031 35.332031zm0 0" fill="#f6e06a"/><path d="m172.722656 156.605469c0-14.679688-14.941406-26.578125-33.371094-26.578125-18.433593 0-33.375 11.898437-33.375 26.578125 0 14.679687 14.941407 26.578125 33.375 26.578125 18.429688 0 33.371094-11.898438 33.371094-26.578125zm0 0" fill="#ffdbdb"/><path d="m360.011719 156.605469c0-14.679688-14.941407-26.578125-33.375-26.578125-18.429688 0-33.371094 11.898437-33.371094 26.578125 0 14.679687 14.941406 26.578125 33.371094 26.578125 18.433593 0 33.375-11.898438 33.375-26.578125zm0 0" fill="#ffdbdb"/><g fill="#495059"><path d="m250.496094 134.640625c-11.476563-3.007813-23.527344-3.007813-35.003906 0-4.75 1.242187-8.894532 4.167969-11.65625 8.226563-3.730469 5.488281-1.585938 13.011718 4.476562 15.707031l16.816406 7.476562c5.007813 2.226563 10.722656 2.226563 15.730469 0l16.816406-7.476562c6.058594-2.695313 8.203125-10.21875 4.472657-15.707031-2.761719-4.058594-6.898438-6.984376-11.652344-8.226563zm0 0"/><path d="m172.625 150.054688h-27.652344c-12.363281 0-22.882812-9.019532-24.765625-21.242188l-2.980469-19.332031c-1.101562-7.15625 4.4375-13.613281 11.679688-13.613281h59.789062c7.242188 0 12.78125 6.457031 11.679688 13.613281l-2.980469 19.332031c-1.886719 12.222656-12.402343 21.242188-24.769531 21.242188zm0 0"/><path d="m293.359375 150.054688h27.652344c12.367187 0 22.882812-9.019532 24.769531-21.242188l2.976562-19.332031c1.105469-7.15625-4.433593-13.613281-11.675781-13.613281h-59.789062c-7.242188 0-12.78125 6.457031-11.675781 13.613281l2.976562 19.332031c1.882812 12.222656 12.402344 21.242188 24.765625 21.242188zm0 0"/></g><path d="m243.910156 172.90625 16.8125-7.480469c4.925782-2.1875 8.597656-6.417969 10.074219-11.601562.4375-1.539063.640625-3.105469.667969-4.664063 5.796875 5.253906 13.488281 8.394532 21.894531 8.394532h27.652344c16.179687 0 29.714843-11.609376 32.179687-27.601563l2.980469-19.328125c.859375-5.578125-.753906-11.234375-4.429687-15.515625-3.675782-4.285156-9.015626-6.742187-14.660157-6.742187h-59.789062c-5.644531 0-10.988281 2.457031-14.660157 6.742187-2.921874 3.402344-4.535156 7.671875-4.644531 12.082031h-49.988281c-.109375-4.40625-1.722656-8.679687-4.644531-12.082031-3.671875-4.285156-9.015625-6.742187-14.660157-6.742187h-59.792968c-5.640625 0-10.984375 2.457031-14.660156 6.742187-3.671876 4.28125-5.285157 9.9375-4.425782 15.515625l2.976563 19.328125c2.464843 15.992187 16 27.601563 32.179687 27.601563h27.652344c8.410156 0 16.097656-3.140626 21.894531-8.394532.027344 1.5625.230469 3.125.667969 4.664063 1.480469 5.183593 5.152344 9.414062 10.078125 11.605469l16.8125 7.476562c1.113281.496094 2.257813.902344 3.414063 1.238281v24.542969c-9.304688-1.695312-17.859376-6.492188-24.183594-13.75-2.722656-3.121094-7.460938-3.445312-10.582032-.726562-3.125 2.722656-3.449218 7.460937-.726562 10.582031 10.847656 12.445312 26.515625 19.582031 42.992188 19.582031 16.476562 0 32.144531-7.136719 42.992187-19.582031 2.722656-3.121094 2.394531-7.859375-.726563-10.582031-3.125-2.71875-7.859374-2.394532-10.582031.726562-6.328125 7.257812-14.878906 12.054688-24.183593 13.75v-24.542969c1.160156-.335937 2.300781-.742187 3.417968-1.238281zm30.105469-68.035156c.484375-.5625 1.550781-1.503906 3.277344-1.503906h59.789062c1.726563 0 2.792969.941406 3.277344 1.503906.480469.566406 1.25 1.761718.988281 3.46875l-2.980468 19.328125c-1.328126 8.625-8.625 14.886719-17.355469 14.886719h-27.648438c-8.726562 0-16.027343-6.261719-17.355469-14.886719l-2.980468-19.328125c-.261719-1.707032.507812-2.902344.988281-3.46875zm-81.054687 3.46875-2.980469 19.328125c-1.332031 8.625-8.628907 14.886719-17.355469 14.886719h-27.652344c-8.726562 0-16.023437-6.261719-17.351562-14.886719l-2.980469-19.328125c-.261719-1.707032.507813-2.902344.988281-3.464844.480469-.5625 1.550782-1.507812 3.273438-1.507812h59.792968c1.726563 0 2.792969.945312 3.273438 1.507812.484375.5625 1.253906 1.757812.992188 3.464844zm11.535156 23.304687c.113281-.558593.222656-1.121093.308594-1.691406l1.195312-7.761719h53.984375l1.199219 7.761719c.085937.570313.191406 1.132813.308594 1.691406-2.730469-1.945312-5.804688-3.398437-9.097657-4.261719-12.691406-3.320312-26.109375-3.320312-38.800781 0-3.292969.863282-6.371094 2.316407-9.097656 4.261719zm33.316406 27.554688c-3.0625 1.363281-6.578125 1.363281-9.636719 0l-16.816406-7.476563c-1.167969-.519531-1.59375-1.484375-1.742187-2.011718-.152344-.523438-.296876-1.566407.421874-2.625 1.742188-2.5625 4.355469-4.40625 7.351563-5.191407 5.105469-1.335937 10.355469-2.003906 15.605469-2.003906 5.246094 0 10.496094.667969 15.601562 2.003906 2.996094.785157 5.609375 2.628907 7.351563 5.191407.71875 1.058593.574219 2.101562.425781 2.625-.152344.527343-.578125 1.492187-1.746094 2.011718zm190.261719-118.578125-20.191407-17.628906c-15.839843-13.828126-36.125-21.957032-57.128906-22.898438-19.402344-.867188-38.800781 4.457031-55.066406 15.050781-19.03125-6.222656-39.972656-9.359375-62.691406-9.359375-22.722656 0-43.664063 3.136719-62.695313 9.355469-16.265625-10.589844-35.664062-15.917969-55.066406-15.0507812-21.003906.9414062-41.289063 9.0742182-57.125 22.9023442l-20.195313 17.628906c-13.523437 11.8125-14.921874 32.421875-3.113281 45.949218 6.429688 7.367188 15.46875 11.132813 24.554688 11.132813 7.375 0 14.777343-2.492187 20.839843-7.554687-9.410156 17.027343-16.507812 36.398437-21.222656 58.023437-8.058594 36.957031-1.542968 69.867187 18.84375 95.175781 5.074219 6.300782 10.949219 12.0625 17.570313 17.296875-2.988281 7.40625-3.371094 15.328125-1.511719 22.660157-13.089844.082031-23.285156-6.664063-31.628906-20.757813-4.554688-7.6875-11.824219-13.144531-20.480469-15.359375-8.652344-2.21875-17.65625-.933594-25.339844 3.617188-7.691406 4.550781-13.144531 11.824218-15.363281 20.480468s-.933594 17.65625 3.617188 25.339844c5.011718 8.464844 10.683593 15.992188 16.925781 22.542969.03125.035156.058593.070312.089843.101562.011719.015625.027344.027344.042969.042969 19.230469 20.113281 43.871094 30.925781 71.457031 30.925781 1.742188 0 3.507813-.054687 5.28125-.144531v23.339844c-6.101562.199218-11.921874-1.554688-19.066406-4.472656-14.421875-5.890626-30.949218 1.054687-36.839844 15.476562-5.890624 14.425781 1.050782 30.953125 15.476563 36.84375 14.3125 5.847656 27.496094 8.6875 40.304687 8.6875 14.324219 0 28.113282-3.589844 41.960938-10.9375-1.296875 14.59375-1.535156 29.523438-.761719 46.160156.191407 4.019532 3.507813 7.152344 7.488281 7.152344.117188 0 .234376-.003906.355469-.007812 4.136719-.191407 7.332031-3.703126 7.140625-7.839844-.808594-17.382813-.46875-32.78125 1.078125-47.894532h14.882813c6.855468 3.292969 14.019531 6.042969 21.394531 8.195313-1.3125 15.613281-1.175781 32.0625.402344 52.324219.789062 10.144531-6.820313 19.035156-16.960938 19.824218-5.710937.449219-11.292969-1.796874-15.117187-6.019531-2.78125-3.070312-7.523438-3.304687-10.59375-.523437-3.070313 2.78125-3.304688 7.523437-.523438 10.59375 6.335938 6.996094 15.367188 11.007812 24.777344 11.007812.867188 0 1.75-.035156 2.621094-.101562 18.386718-1.433594 32.183594-17.554688 30.75-35.945313-1.457032-18.730469-1.652344-33.5-.582032-47.683593 8.640626 1.574218 17.464844 2.390624 26.328126 2.390624 8.863281 0 17.6875-.816406 26.328124-2.390624 1.070313 14.179687.875 28.949218-.585937 47.683593-1.429687 18.390625 12.367187 34.511719 30.746094 35.941407.867187.070312 1.75.101562 2.628906.101562 17.335937 0 31.972656-13.550781 33.320313-30.851562 1.910156-24.550782 1.929687-44.851563.015624-64.546876h1.480469c14.246094 0 26.796875-7.390624 34.039063-18.527343.996094 4.859375 3.078125 9.472656 6.179687 13.535156 5.417969 7.101563 13.277344 11.671875 22.132813 12.863281 1.488281.199219 2.996094.300782 4.492187.300782 16.65625 0 30.890625-12.464844 33.113281-28.992188.699219-5.210938 1.066407-10.347656 1.140626-15.398438.003906-.070312.015624-.136718.019531-.203124.019531-.324219.011719-.640626-.011719-.957032.097656-18.863281-4.15625-36.4375-12.601562-51.511718-9.691407-17.304688-24.925782-31.40625-44.304688-41.152344 2.898438-8.203125 2.910156-17.402344-.527344-25.921875 9.003906-7.109375 16.585938-15.171875 22.65625-24.171875 2.3125-3.4375 1.40625-8.097656-2.03125-10.414063-3.429687-2.3125-8.09375-1.40625-10.410156 2.027344-6.144531 9.121094-14.171875 17.171875-23.96875 24.117187-.023438.015626-.046875.03125-.070312.046876-8.453126 5.984374-18.214844 11.148437-29.273438 15.4375-25.589844 9.925781-57.386719 14.957031-94.507812 14.957031-53.28125 0-95.21875-10.273438-123.25-29.949219-.394532-.359375-.832032-.675781-1.308594-.949219-7.296875-5.285156-13.636719-11.214843-18.9375-17.796875-17.441406-21.652344-22.929688-50.203125-15.867188-82.574218 7.960938-36.515626 23.09375-65.976563 45.042969-87.789063.140625-.128906.273437-.265625.402344-.40625 3.171875-3.125 6.480469-6.09375 9.933593-8.898437 12.457032-10.125 26.507813-17.96875 42.050782-23.515626.476562-.121093.941406-.285156 1.386718-.5 18.203126-6.296874 38.433594-9.472656 60.546876-9.472656 22.113281 0 42.34375 3.175782 60.546874 9.476563.445313.210937.910157.375 1.382813.492187 15.546875 5.546875 29.597656 13.390625 42.050781 23.519532 3.453125 2.804687 6.761719 5.765624 9.929688 8.890624.132812.140626.265625.28125.410156.414063 21.949219 21.8125 37.082031 51.273437 45.042969 87.789063 3.789062 17.378906 4.023437 33.625.695312 48.285156-.917969 4.039062 1.613281 8.058594 5.652344 8.976562 4.039063.914063 8.058594-1.617187 8.972656-5.652344 3.820313-16.824218 3.597657-35.261718-.664062-54.804687-4.714844-21.621094-11.8125-40.992187-21.21875-58.019531 6.0625 5.0625 13.460937 7.554687 20.839843 7.550781 9.082032 0 18.121094-3.769531 24.550782-11.128906 11.8125-13.53125 10.414062-34.140625-3.109375-45.953125zm-16.054688 353.160156c-1.226562 9.113281-9.070312 15.988281-18.246093 15.988281-.828126 0-1.667969-.054687-2.492188-.167969-4.886719-.65625-9.21875-3.175781-12.210938-7.09375-2.984374-3.914062-4.269531-8.761718-3.613281-13.644531.1875-1.410156.328125-2.792969.441407-4.164062l36.839843 2.113281c-.171875 2.300781-.402343 4.617188-.71875 6.96875zm-44.507812-92.195312c27.511719 14.964843 43.316406 39.621093 45.324219 70.207031l-37.3125-2.136719c-1.140626-7.730469-3.808594-14.589844-8.011719-20.511719zm-349.921875-12.601563c-2.511719-4.238281-3.21875-9.203125-1.996094-13.976563 1.222656-4.773437 4.230469-8.785156 8.472656-11.292968 4.242188-2.511719 9.203125-3.222656 13.976563-2 4.773437 1.226562 8.785156 4.234375 11.292969 8.472656 1.53125 2.582031 3.132812 4.976562 4.796874 7.203125l-26.613281 25.792969c-3.566406-4.328125-6.886719-9.058594-9.929687-14.199219zm178.25 108.863281c0 2.066406-1.683594 3.75-3.753906 3.75h-53.027344c-13.113282 0-23.949219-9.917968-25.410156-22.648437 0-.011719 0-.027344-.003907-.039063-.105469-.949218-.167969-1.914062-.167969-2.894531v-68.507813c23.910157 13.644532 49.664063 22.984376 76.703126 27.816407-.003907.253906-.019532.503906-.019532.757812 0 7.738281 2.074219 15 5.679688 21.273438zm37.152344 17.8125c-9.84375 0-19.632813-1.109375-29.113282-3.253906 4.242188-3.441406 6.960938-8.6875 6.960938-14.558594v-25.121094c6.46875 3.925782 14.050781 6.1875 22.152344 6.1875 8.105468 0 15.6875-2.261718 22.15625-6.1875v25.121094c0 5.871094 2.71875 11.117188 6.957031 14.558594-9.480469 2.144531-19.265625 3.253906-29.113281 3.253906zm77.484374 64.324219c-.742187 9.542969-8.808593 17.015625-18.363281 17.015625-.488281 0-.976562-.019531-1.460937-.054688-10.140625-.789062-17.75-9.683593-16.960938-19.824218 1.578125-20.265625 1.714844-36.714844.402344-52.324219 7.378906-2.15625 14.539062-4.90625 21.398438-8.199219h14.875c1.972656 19.265625 1.996093 39.128906.109374 63.386719zm42.035157-103.96875c0 14.105469-11.476563 25.582031-25.582031 25.582031h-53.027344c-2.070313 0-3.753906-1.683594-3.753906-3.75v-40.496094c3.605468-6.269531 5.679687-13.53125 5.679687-21.269531 0-.253906-.015625-.507812-.019531-.757812 27.039062-4.832031 52.792968-14.171875 76.703125-27.816407zm-19.585938-94.351563c9.015625-3.496093 17.277344-7.546874 24.796875-12.113281 2.050782 9.046875-1.945312 18.6875-10.199218 23.53125-23.175782 13.605469-48.242188 22.839844-74.601563 27.519531-4.023437-10.335937-11.941406-18.734374-21.945313-23.382812 31.410157-1.421875 58.921876-6.625 81.949219-15.554688zm-72.097656 54.417969c0 15.347657-12.488281 27.832031-27.835937 27.832031-15.347657 0-27.832032-12.484374-27.832032-27.832031 0-15.347656 12.484375-27.832031 27.832032-27.832031 15.347656 0 27.835937 12.484375 27.835937 27.832031zm-152.570313-66.496093c26.753907 16.273437 62.824219 25.652343 106.746094 27.640624-10.003906 4.648438-17.917968 13.042969-21.9375 23.375-26.359375-4.679687-51.429687-13.914062-74.601562-27.519531-8.242188-4.835937-12.238282-14.460937-10.207032-23.496093zm11.3125 142.015624c-7.027343 2.25-14.066406 3.367188-21.21875 3.367188-10.824218 0-22.15625-2.476562-34.632812-7.574219-6.765625-2.765625-10.023438-10.519531-7.261719-17.285156 2.765625-6.765625 10.519531-10.027344 17.285157-7.261719 7.582031 3.09375 16.328124 6.175782 26.65625 5.503906 3.191406 9.972657 10.136718 18.28125 19.171874 23.25zm-21.09375-113.507812v36.984375c-1.777343.101563-3.542968.160156-5.28125.160156-20.835937 0-39.761718-7.382812-55.296874-21.226562l26.589843-25.769531c9.65625 7.734374 21.015625 11.03125 33.988281 9.851562zm21.074219-255.460938c-3.332031 2.707032-6.539062 5.554688-9.628906 8.527344-6.941406 1.574219-13.414063 4.855469-18.84375 9.59375l-20.191406 17.628906c-7.296875 6.371094-18.414063 5.617188-24.785157-1.675781-6.371093-7.296875-5.617187-18.417969 1.679688-24.785156l20.191406-17.632813c13.289063-11.597656 30.3125-18.421874 47.929688-19.210937 12.5-.5625 24.996094 1.960937 36.308594 7.179687-11.753907 5.453126-22.660157 12.242188-32.660157 20.375zm300.335938 34.074219c-6.371094 7.292969-17.488281 8.046875-24.785157 1.679688l-20.191406-17.632813c-5.429687-4.738281-11.902344-8.019531-18.84375-9.59375-3.089844-2.96875-6.296875-5.820312-9.628906-8.527344-10-8.132812-20.902344-14.921874-32.660156-20.375 11.308594-5.21875 23.800781-7.742187 36.304687-7.179687 17.621094.789063 34.644531 7.613281 47.933594 19.210937l20.191406 17.628907c7.296875 6.375 8.050781 17.492187 1.679688 24.789062zm0 0"/><path d="m343.71875 103.148438c-4.144531 0-7.5-3.359376-7.5-7.5v-25.082032c0-4.144531 3.355469-7.5 7.5-7.5 4.140625 0 7.5 3.355469 7.5 7.5v25.082032c0 4.140624-3.359375 7.5-7.5 7.5zm0 0" fill="#fff"/><path d="m356.257812 90.605469h-25.082031c-4.140625 0-7.5-3.359375-7.5-7.5s3.359375-7.5 7.5-7.5h25.082031c4.144532 0 7.5 3.359375 7.5 7.5s-3.355468 7.5-7.5 7.5zm0 0" fill="#fff"/></svg>