<svg viewBox="0 -24 512.00082 512" xmlns="http://www.w3.org/2000/svg"><path d="m56.910156 379.820312c-9.367187 0-19.03125-2.15625-29.335937-6.367187-8.3125-3.394531-12.296875-12.882813-8.902344-21.191406 3.390625-8.3125 12.878906-12.296875 21.191406-8.902344 15.257813 6.230469 29.136719 8.664063 56.878907-20.667969 6.171874-6.523437 16.457031-6.8125 22.980468-.644531 6.519532 6.167969 6.808594 16.457031.640625 22.976563-22.328125 23.609374-42.125 34.796874-63.453125 34.796874zm0 0" fill="#495059"/><g fill="#ddaf89"><path d="m206.308594 444.050781c-.527344 0-1.0625-.019531-1.597656-.0625-11.1875-.871093-19.550782-10.644531-18.679688-21.832031 1.855469-23.839844 1.1875-40.609375-2.382812-59.808594-2.054688-11.03125 5.222656-21.636718 16.253906-23.691406 11.035156-2.050781 21.640625 5.226562 23.691406 16.257812 4.222656 22.683594 5.074219 43.078126 2.949219 70.398438-.828125 10.648438-9.730469 18.738281-20.234375 18.738281zm0 0"/><path d="m126.417969 444.050781c-.53125 0-1.0625-.019531-1.601563-.0625-11.1875-.871093-19.550781-10.644531-18.679687-21.832031 1.734375-22.234375 1.640625-37.820312 1.515625-59.390625-.019532-3-.039063-6.105469-.050782-9.355469-.050781-11.222656 9.007813-20.359375 20.226563-20.410156h.09375c11.175781 0 20.265625 9.039062 20.3125 20.230469.015625 3.230469.035156 6.316406.050781 9.296875.132813 22.558594.230469 38.855468-1.632812 62.78125-.832032 10.652344-9.730469 18.742187-20.234375 18.742187zm0 0"/><path d="m290.515625 333.058594c-22.417969 0-42.953125-9.378906-59.613281-27.628906-7.5625-8.289063-6.976563-21.140626 1.3125-28.703126 8.289062-7.566406 21.136718-6.976562 28.703125 1.308594 12.878906 14.113282 27.484375 17.742188 45.960937 11.429688 10.617188-3.632813 22.167969 2.03125 25.796875 12.648437 3.632813 10.617188-2.03125 22.167969-12.648437 25.796875-10.074219 3.445313-19.964844 5.148438-29.511719 5.148438zm0 0"/></g><path d="m148.234375 353.230469c-.046875-11.191407-9.136719-20.230469-20.316406-20.230469-.027344 0-.058594 0-.089844 0-11.222656.050781-20.277344 9.1875-20.230469 20.410156.015625 3.246094.035156 6.355469.050782 9.355469.039062 6.386719.070312 12.238281.058593 17.90625 12.277344 6.28125 25.96875 10.519531 40.515625 12.199219.179688-9.703125.125-19.269532.0625-30.34375-.019531-2.980469-.035156-6.066406-.050781-9.296875zm0 0" fill="#d1a582"/><path d="m223.59375 354.914062c-2.050781-11.03125-12.65625-18.308593-23.691406-16.257812-11.03125 2.054688-18.308594 12.660156-16.253906 23.691406 1.824218 9.828125 2.890624 19.023438 3.246093 28.851563 14.449219-2.960938 27.851563-8.476563 39.621094-16-.671875-6.722657-1.640625-13.398438-2.921875-20.285157zm0 0" fill="#d1a582"/><path d="m260.917969 278.035156c-7.566407-8.285156-20.414063-8.875-28.703125-1.308594-8.289063 7.5625-8.875 20.414063-1.3125 28.703126 10.507812 11.511718 22.5625 19.484374 35.65625 23.808593 5.246094-11.882812 8.144531-24.859375 8.144531-38.449219 0-.671874-.011719-1.339843-.027344-2.007812-4.839843-2.398438-9.398437-5.96875-13.757812-10.746094zm0 0" fill="#d1a582"/><path d="m261.382812 290.792969c0-49.46875-44.34375-89.574219-99.042968-89.574219-54.699219 0-99.042969 40.105469-99.042969 89.574219s44.34375 89.570312 99.042969 89.570312c54.699218 0 99.042968-40.101562 99.042968-89.570312zm0 0" fill="#ddaf89"/><path d="m251.792969 233.28125c-24.269531 20.140625-55.445313 32.253906-89.453125 32.253906-34.003906 0-65.179688-12.113281-89.453125-32.253906-5.164063 6.683594-9.464844 13.960938-12.726563 21.707031-4.445312 10.554688-.347656 22.785157 9.527344 28.585938 27.1875 15.957031 58.847656 25.113281 92.652344 25.113281 33.804687 0 65.464844-9.15625 92.652344-25.113281 9.875-5.800781 13.972656-18.03125 9.53125-28.585938-3.265626-7.746093-7.566407-15.023437-12.730469-21.707031zm0 0" fill="#7f9ae6"/><path d="m117.230469 258.113281c-16.34375-5.554687-31.335938-14.039062-44.34375-24.832031-5.164063 6.683594-9.464844 13.960938-12.726563 21.707031-4.445312 10.554688-.347656 22.785157 9.527344 28.585938 14.136719 8.296875 29.492188 14.734375 45.71875 19.023437-5.953125-11.949218-4.265625-29.886718 1.824219-44.484375zm0 0" fill="#5e78bf"/><path d="m125.609375 122.390625c-3.980469 0-7.996094-1.214844-11.460937-3.730469l-24.035157-17.457031c-10.519531-7.644531-24.714843-7.007813-34.511719 1.546875l-15.734374 13.738281c-8.128907 7.09375-20.464844 6.257813-27.558594-1.867187-7.09375-8.128906-6.257813-20.464844 1.867187-27.558594l15.734375-13.738281c11.347656-9.90625 25.882813-15.734375 40.929688-16.410157 15.050781-.671874 30.046875 3.832032 42.234375 12.683594l24.03125 17.457032c8.726562 6.339843 10.664062 18.554687 4.324219 27.28125-3.824219 5.261718-9.78125 8.054687-15.820313 8.054687zm0 0" fill="#495059"/><path d="m199.070312 122.390625c-6.042968 0-11.996093-2.792969-15.820312-8.054687-6.335938-8.726563-4.402344-20.941407 4.324219-27.28125l24.035156-17.457032c12.1875-8.851562 27.1875-13.351562 42.230469-12.683594 15.046875.675782 29.585937 6.5 40.929687 16.40625l15.738281 13.738282c8.125 7.097656 8.960938 19.433594 1.867188 27.5625-7.09375 8.125-19.433594 8.960937-27.558594 1.863281l-15.734375-13.738281c-9.800781-8.550782-23.992187-9.1875-34.515625-1.542969l-24.035156 17.457031c-3.464844 2.515625-7.480469 3.730469-11.460938 3.730469zm0 0" fill="#495059"/><path d="m162.339844 277.082031c99.152344 0 143.835937-45.417969 129.890625-109.375-14.988281-68.726562-62.191407-106.347656-129.890625-106.347656-67.699219 0-114.902344 37.621094-129.890625 106.347656-13.945313 63.957031 30.738281 109.375 129.890625 109.375zm0 0" fill="#ddaf89"/><path d="m206.308594 312.175781c0 15.28125-12.386719 27.667969-27.664063 27.667969-15.28125 0-27.667969-12.386719-27.667969-27.667969 0-15.277343 12.386719-27.664062 27.667969-27.664062 15.277344 0 27.664063 12.386719 27.664063 27.664062zm0 0" fill="#f6e06a"/><path d="m126.308594 173.132812c0-12.742187-12.976563-23.074218-28.980469-23.074218s-28.976563 10.332031-28.976563 23.074218c0 12.746094 12.972657 23.078126 28.976563 23.078126s28.980469-10.332032 28.980469-23.078126zm0 0" fill="#ffdbdb"/><path d="m288.933594 173.132812c0-12.742187-12.972656-23.074218-28.976563-23.074218-16.003906 0-28.980469 10.332031-28.980469 23.074218 0 12.746094 12.976563 23.078126 28.980469 23.078126 16.003907 0 28.976563-10.332032 28.976563-23.078126zm0 0" fill="#ffdbdb"/><path d="m193.839844 154.058594c-9.964844-2.605469-20.429688-2.605469-30.394532 0-4.125 1.082031-7.71875 3.621094-10.121093 7.148437-3.238281 4.761719-1.375 11.296875 3.886719 13.636719l14.601562 6.492188c4.347656 1.933593 9.3125 1.933593 13.660156 0l14.601563-6.492188c5.261719-2.339844 7.125-8.875 3.886719-13.636719-2.398438-3.527343-5.992188-6.066406-10.121094-7.148437zm0 0" fill="#495059"/><path d="m259.507812 91.164062h-194.335937l17.949219-64.574218c3.785156-13.613282 17.734375-21.71875 31.4375-18.269532l30.804687 7.753907c11.144531 2.804687 22.808594 2.804687 33.953125 0l30.808594-7.753907c13.699219-3.449218 27.648438 4.65625 31.433594 18.269532zm0 0" fill="#495059"/><path d="m65.171875 91.164062h194.335937l-9.105468-32.761718h-176.125zm0 0" fill="#f3e5b7"/><path d="m269.046875 91.164062h-213.414063c-7.375 0-13.355468 5.980469-13.355468 13.355469 0 7.378907 5.980468 13.355469 13.355468 13.355469h213.414063c7.375 0 13.355469-5.976562 13.355469-13.355469 0-7.375-5.980469-13.355469-13.355469-13.355469zm0 0" fill="#495059"/><path d="m311.308594 330.238281c-8.734375-3.179687-13.242188-12.839843-10.0625-21.574219l21.628906-59.421874c3.179688-8.734376 12.839844-13.242188 21.574219-10.0625 8.738281 3.183593 13.242187 12.84375 10.0625 21.578124l-21.625 59.417969c-3.179688 8.738281-12.839844 13.242188-21.578125 10.0625zm0 0" fill="#444f58"/><path d="m389.261719 229.71875c0 22.84375-18.519531 41.363281-41.367188 41.363281-22.847656 0-41.367187-18.519531-41.367187-41.363281 0-22.847656 18.519531-41.367188 41.367187-41.367188 22.847657 0 41.367188 18.519532 41.367188 41.367188zm0 0" fill="#a2d3ee"/><path d="m339.140625 437.320312c0-10.324218-18.757813-18.6875-41.898437-18.6875-23.144532 0-41.902344 8.363282-41.902344 18.6875 0 10.320313 18.757812 18.6875 41.902344 18.6875 23.140624 0 41.898437-8.367187 41.898437-18.6875zm0 0" fill="#dfe3e5"/><path d="m410.519531 386.066406c0-10.320312-18.761719-18.6875-41.902343-18.6875-23.140626 0-41.898438 8.367188-41.898438 18.6875 0 10.320313 18.757812 18.6875 41.898438 18.6875 23.140624 0 41.902343-8.367187 41.902343-18.6875zm0 0" fill="#dfe3e5"/><path d="m504.5 423.734375c0-10.320313-18.761719-18.6875-41.902344-18.6875s-41.898437 8.367187-41.898437 18.6875 18.757812 18.6875 41.898437 18.6875 41.902344-8.367187 41.902344-18.6875zm0 0" fill="#dfe3e5"/><path d="m71.132812 317.28125c-8.53125 0-16.46875-5.414062-19.289062-13.953125-3.519531-10.65625 2.265625-22.144531 12.921875-25.664063 19.066406-6.296874 27.089844-16.894531 36.382813-29.164062 8.527343-11.261719 18.191406-24.023438 35.71875-31.199219 10.382812-4.253906 22.25.71875 26.5 11.105469 4.25 10.382812-.722657 22.246094-11.105469 26.5-6.902344 2.824219-11.386719 8.441406-18.71875 18.125-10.53125 13.90625-24.953125 32.953125-56.035157 43.21875-2.117187.699219-4.265624 1.03125-6.375 1.03125zm0 0" fill="#c49b7a"/><path d="m401.300781 366c-8.851562-3.949219-20.460937-6.121094-32.683593-6.121094-12.222657 0-23.828126 2.171875-32.683594 6.121094-14.546875 6.488281-16.71875 15.355469-16.71875 20.066406 0 4.707032 2.171875 13.574219 16.71875 20.0625 8.855468 3.949219 20.460937 6.125 32.683594 6.125 12.222656 0 23.832031-2.175781 32.683593-6.125 14.546875-6.488281 16.71875-15.355468 16.71875-20.0625 0-4.710937-2.171875-13.578125-16.71875-20.066406zm-32.683593 31.253906c-23.675782 0-34.398438-8.582031-34.398438-11.1875 0-2.605468 10.722656-11.1875 34.398438-11.1875 23.679687 0 34.402343 8.582032 34.402343 11.1875 0 2.605469-10.722656 11.1875-34.402343 11.1875zm126.664062 6.417969c-8.855469-3.949219-20.460938-6.125-32.683594-6.125-12.21875 0-23.828125 2.175781-32.683594 6.125-14.542968 6.484375-16.714843 15.355469-16.714843 20.0625s2.171875 13.578125 16.714843 20.0625c8.855469 3.949219 20.464844 6.125 32.683594 6.125 12.222656 0 23.832032-2.175781 32.6875-6.125 14.542969-6.484375 16.714844-15.355469 16.714844-20.0625s-2.171875-13.578125-16.71875-20.0625zm-32.683594 31.25c-23.675781 0-34.398437-8.582031-34.398437-11.1875s10.722656-11.1875 34.398437-11.1875c23.679688 0 34.402344 8.582031 34.402344 11.1875s-10.722656 11.1875-34.402344 11.1875zm-227.03125-295.042969v10.234375c0 4.144531 3.359375 7.5 7.5 7.5 4.144532 0 7.5-3.355469 7.5-7.5v-10.234375c0-4.140625-3.355468-7.5-7.5-7.5-4.140625 0-7.5 3.359375-7.5 7.5zm94.359375 277.375c-8.855469-3.949218-20.464843-6.125-32.683593-6.125-12.222657 0-23.832032 2.175782-32.6875 6.125-14.542969 6.488282-16.714844 15.355469-16.714844 20.066406 0 4.707032 2.171875 13.574219 16.714844 20.0625 8.855468 3.949219 20.464843 6.125 32.6875 6.125 12.21875 0 23.828124-2.175781 32.683593-6.125 14.542969-6.488281 16.714844-15.355468 16.714844-20.0625 0-4.710937-2.171875-13.578124-16.714844-20.066406zm-32.683593 31.25c-23.679688 0-34.402344-8.578125-34.402344-11.183594 0-2.605468 10.722656-11.1875 34.402344-11.1875 23.675781 0 34.398437 8.582032 34.398437 11.1875 0 2.605469-10.722656 11.183594-34.398437 11.183594zm-39.476563-114.570312c10.335937 4.398437 21.320313 6.625 32.75 6.625 6.851563 0 13.914063-.832032 21.023437-2.457032 1.832032.429688 3.6875.667969 5.542969.667969 3.503907 0 6.996094-.769531 10.269531-2.292969 5.890626-2.75 10.359376-7.625 12.582032-13.734374l16.332031-44.871094c4.191406-.734375 8.320313-2.019532 12.28125-3.867188 11.832031-5.515625 20.804687-15.308594 25.269531-27.574218 4.460938-12.265626 3.882813-25.535157-1.632812-37.363282-5.515625-11.832031-15.308594-20.804687-27.574219-25.269531-25.320313-9.214844-53.417969 3.886719-62.632813 29.207031-4.464843 12.265625-3.886718 25.535156 1.632813 37.363282 1.847656 3.964843 4.183594 7.597656 6.921875 10.855468l-7.902344 21.71875c-12.804687 3.9375-22.691406 2.199219-31.921875-5.800781 3.414063-7.019531 4.105469-15.277344 1.503907-22.992187 6.429687-5.328126 11.921874-11.332032 16.414062-18.003907 2.3125-3.4375 1.398438-8.097656-2.035156-10.410156-3.4375-2.3125-8.097656-1.402344-10.410156 2.035156-18.148438 26.964844-58.578126 41.816407-113.839844 41.816407-5.523438 0-10.925782-.152344-16.183594-.445313 3.316406-3.878906 5.84375-6.023437 8.949219-7.292969 14.191406-5.8125 21.015625-22.085937 15.203125-36.285156-.664063-1.625-1.472656-3.160156-2.40625-4.601562.074218-.050782.152344-.089844.226562-.140626 3.058594-2.28125 6.691406-3.488281 10.515625-3.488281 6.707031 0 10.09375.949219 11.753907 1.75 3.734374 1.792969 8.210937.21875 10.007812-3.515625 1.792969-3.734375.21875-8.214844-3.515625-10.007812-2.9375-1.410156-6.496094-2.34375-10.746094-2.828125v-13.628907c.804688-.261718 1.597657-.566406 2.378907-.914062l14.597656-6.492188c4.546875-2.019531 7.9375-5.921874 9.296875-10.707031 1.363281-4.78125.542969-9.886719-2.253907-14-3.417968-5.027343-8.542968-8.644531-14.425781-10.183593-11.183593-2.929688-23.007812-2.929688-34.191406 0-5.882813 1.539062-11.003906 5.15625-14.421875 10.183593-2.796875 4.113281-3.621094 9.21875-2.257812 14 1.363281 4.785157 4.75 8.6875 9.296874 10.710938l14.601563 6.492187c.78125.34375 1.574219.648438 2.378906.910156v14.105469c-4.304687 1.007813-8.363281 2.886719-11.984375 5.589844-.90625.675781-1.609375 1.519531-2.113281 2.453125-.566406-.285156-1.140625-.558594-1.730469-.804688-6.855468-2.875-14.417968-2.90625-21.289062-.085937-19.429688 7.953125-30.199219 22.179687-38.859375 33.613281-3.40625 4.496094-6.539063 8.632813-10.054688 12.335938-37.949219-16.375-54.035156-47.101563-45.335937-87.003906 3.585937-16.441407 9.152344-31.191407 16.550781-43.929688h212.023437c7.398438 12.738281 12.964844 27.488281 16.550782 43.929688 2.308594 10.601562 2.898437 20.695312 1.746094 30-.507813 4.113281 2.410156 7.859374 6.523437 8.367187.3125.039063.621094.058594.929687.058594 3.730469 0 6.964844-2.78125 7.433594-6.578125 1.363282-10.992188.695313-22.78125-1.976562-35.042969-3.183594-14.59375-7.824219-28.019531-13.835938-40.097656 3.761719 1.851562 7.84375 2.78125 11.921875 2.777343 7.539063 0 15.042969-3.128906 20.378907-9.238281 9.800781-11.230469 8.644531-28.339843-2.585938-38.140625l-15.734375-13.738281c-12.234375-10.679687-27.800781-17.082031-43.984375-18.148437l-6.933594-24.945313c-4.914062-17.675781-22.699218-28.011719-40.492187-23.535156l-30.808594 7.757812c-9.910156 2.496094-20.382813 2.496094-30.289063 0l-30.808593-7.757812c-17.792969-4.480469-35.578125 5.859375-40.492188 23.535156l-6.933593 24.945313c-16.183594 1.066406-31.753907 7.46875-43.984376 18.148437l-15.734374 13.738281c-11.226563 9.804688-12.386719 26.914063-2.585938 38.140625 5.335938 6.113281 12.839844 9.242188 20.378906 9.242188 4.078125 0 8.160156-.929688 11.921875-2.78125-6.011719 12.078125-10.652343 25.507812-13.835937 40.097656-7.917969 36.308594 1.972656 66.980469 27.371094 87.957031-2.425782 7.101563-2.09375 14.769532.773437 21.5625-2.867187 2.402344-5.246094 5.378906-6.976563 8.820313-3.339843 6.636719-3.898437 14.175781-1.566406 21.230469 2.761719 8.363281 9.195313 14.703124 17.160156 17.507812 1.78125 4.574219 3.957032 9.023438 6.476563 13.304688-10.253906 5.390624-17.078125 3.429687-25.660156-.078126-5.875-2.394531-12.332031-2.363281-18.183594.09375-5.847656 2.457032-10.390625 7.046876-12.789063 12.917969-2.398437 5.875-2.367187 12.332031.089844 18.183594 2.457032 5.847656 7.046875 10.390625 12.921875 12.789063 11.40625 4.660156 21.929688 6.921874 32.171875 6.921874 14.703125 0 28.929688-4.804687 43.289063-14.644531.039062 11.710938-.03125 21.632813-.523438 32.574219-.1875 4.136719 3.011719 7.644531 7.152344 7.832031.117187.003907.230469.007813.34375.007813 3.988281 0 7.304687-3.140625 7.488281-7.164063.429688-9.570312.546875-18.320312.550782-28.050781 8.132812 3.667969 16.714843 6.363281 25.605468 8.019531-.101562 12.113281-.484375 23.925781-1.644531 38.835938-.539063 6.964843-6.660156 12.351562-13.769531 11.78125-3.101563-.238281-6.003906-1.597657-8.171875-3.816407-2.894531-2.964843-7.644531-3.023437-10.605469-.128906-2.964844 2.894532-3.023438 7.640625-.128906 10.605469 4.710937 4.824219 11.007812 7.773437 17.738281 8.296875.722656.058594 1.457031.085938 2.183594.085938 14.417969 0 26.589843-11.273438 27.710937-25.660157 1.140625-14.652343 1.550782-26.371093 1.671875-38.226562 2.171875.117187 4.347657.195312 6.539063.195312 5.722656 0 11.335937-.417969 16.816406-1.214843.644531 10.371093.445312 21.480468-.601562 34.925781-1.191407 15.292969 10.28125 28.703125 25.570312 29.894531.726562.058594 1.460938.085938 2.183594.085938 14.421875 0 26.59375-11.273438 27.710937-25.660157 1.863281-23.90625 1.457031-42.8125-1.375-62.226562 10.34375-8.296875 18.914063-18.390625 25.121094-29.734375zm58.304687-115.800782c5-13.734374 18.019532-22.285156 31.859376-22.285156 3.835937 0 7.738281.660156 11.546874 2.046875 8.5 3.09375 15.289063 9.3125 19.109376 17.511719 3.824218 8.195312 4.226562 17.394531 1.132812 25.894531s-9.316406 15.285157-17.511719 19.109375c-3.722656 1.738282-7.652343 2.757813-11.632812 3.078125-.167969.003907-.339844.015625-.507813.035157-4.613281.296874-9.28125-.355469-13.753906-1.984376-4.484375-1.628906-8.484375-4.140624-11.832031-7.34375-.109375-.109374-.21875-.21875-.335938-.324218-2.847656-2.800782-5.203125-6.113282-6.945312-9.839844-3.820313-8.199219-4.222657-17.398438-1.128907-25.898438zm-7.773437 93.09375 14.417969-39.621093c2.660156 1.59375 5.492187 2.949219 8.46875 4.03125 2.976562 1.085937 6.015625 1.859375 9.074218 2.351562l-14.421874 39.625c-.851563 2.34375-2.566407 4.210938-4.824219 5.265625-2.167969 1.011719-4.589844 1.144532-6.851563.402344-.09375-.035156-.195312-.0625-.289062-.089844-2.34375-.855468-4.210938-2.566406-5.265625-4.828125-1.054688-2.257812-1.164063-4.792969-.308594-7.136719zm-148.035156-143.234374c-.617188-.273438-.867188-.757813-.96875-1.113282-.101563-.355468-.140625-.898437.234375-1.457031 1.378906-2.027344 3.445312-3.484375 5.816406-4.105469 4.351562-1.136718 8.824219-1.707031 13.296875-1.707031 4.476563 0 8.949219.570313 13.300781 1.707031 2.375.621094 4.4375 2.078125 5.816406 4.109375.378907.554688.335938 1.097657.234376 1.453125-.101563.355469-.351563.839844-.964844 1.113282l-14.601563 6.492187c-2.402343 1.070313-5.160156 1.070313-7.566406 0zm129.578125-89.019532 15.734375 13.734375c4.996093 4.363281 5.511719 11.980469 1.148437 16.976563-4.363281 5-11.980468 5.511718-16.976562 1.152344l-.667969-.582032c.523437-1.824218.820313-3.746094.820313-5.734375 0-11.5-9.355469-20.855469-20.855469-20.855469h-3.835938l-5.164062-18.585937c10.984375 1.738281 21.378906 6.546875 29.796875 13.894531zm-199.492188-50.375c2.714844-9.769531 12.542969-15.480468 22.378906-13.007812l30.808594 7.757812c12.304688 3.101563 25.308594 3.101563 37.613282 0l30.808593-7.757812c9.828125-2.472656 19.660157 3.238281 22.375 13.007812l15.308594 55.066406h-174.601563zm169.132813 70.066406c.011719 0 .019531.003907.027343.003907.007813 0 .019532-.003907.027344-.003907h9.511719c3.226563 0 5.855469 2.628907 5.855469 5.855469 0 1.210938-.371094 2.339844-1.003906 3.273438-.035157.050781-.074219.09375-.109376.144531-.773437 1.074219-1.90625 1.875-3.21875 2.230469-.101562.023437-.199218.046875-.296874.074219-.398438.085937-.808594.132812-1.226563.132812h-213.414063c-.417968 0-.828124-.046875-1.222656-.132812-.101562-.027344-.199218-.050782-.304687-.074219-1.3125-.359375-2.4375-1.15625-3.214844-2.230469-.035156-.046875-.074219-.09375-.109375-.144531-.632812-.933594-1-2.0625-1-3.273438 0-3.226562 2.625-5.855469 5.851562-5.855469zm-223.878907 11.589844-.667968.582032c-4.996094 4.363281-12.613282 3.847656-16.976563-1.148438-4.363281-5-3.847656-12.613281 1.148438-16.976562l15.734375-13.738282c8.417968-7.347656 18.8125-12.15625 29.796875-13.890625l-5.167969 18.582031h-3.835938c-11.496093 0-20.851562 9.355469-20.851562 20.855469 0 1.992188.296875 3.910157.820312 5.734375zm233.214844 183.890625c6.699219 3.875 13.882813 5.824219 21.628906 5.824219 2.003907 0 4.050782-.144531 6.128907-.402344l-2.375 6.53125c-2.222657 6.109375-1.933594 12.714844.8125 18.605469.113281.238281.246093.457031.363281.691406-1.632812.109375-3.253906.164063-4.859375.164063-9.292969 0-18.226563-1.792969-26.640625-5.335938 2.894531-8.269531 4.601562-17.019531 4.941406-26.078125zm-10.027344-30.628906c.070313 3.804687-1.285156 7.53125-3.800781 10.421875-.015625.015625-.027343.03125-.042969.046875-1.058593 1.207031-2.304687 2.273437-3.75 3.121094-13.183593 7.738281-27.273437 13.695312-41.964843 17.75-2.847657-5.011719-6.890625-9.253907-11.742188-12.347657 24.371094-3.042968 44.957031-9.421874 61.300781-18.992187zm-80.144531 28.496094c11.117188 0 20.164063 9.046875 20.164063 20.164062 0 11.121094-9.046875 20.167969-20.164063 20.167969-11.121093 0-20.167969-9.046875-20.167969-20.167969 0-11.117187 9.046876-20.164062 20.167969-20.164062zm-21.699219-7.476563c-5.164062 4.058594-9.167968 9.53125-11.421874 15.828125-7.507813-.710937-14.9375-1.90625-22.246094-3.558593 4.621094-4.613282 8.46875-9.210938 11.792968-13.445313 7.011719.65625 14.335938 1.046875 21.875 1.175781zm-85.195312-17.9375c-1.558594.828125-3.214844 1.613282-5 2.34375-.628906-1.789062-.917969-3.675781-.863281-5.566406 1.898437 1.113281 3.847656 2.191406 5.863281 3.222656zm-12.785156 34.375c-1.074219-3.25-.816406-6.722656.722656-9.78125 1.335938-2.65625 3.507812-4.71875 6.183594-5.917968.058594-.019532.113281-.050782.167968-.074219.351563-.152344.710938-.292969 1.078126-.414063 21.285156-7.027344 30.378906-19.039062 40.011718-31.761718 8.335938-11.003907 16.953125-22.382813 32.582032-28.78125 1.570312-.644532 3.210937-.964844 4.855468-.964844 1.679688 0 3.355469.335937 4.953125 1.003906 3.15625 1.324219 5.609375 3.796875 6.90625 6.964844 2.679688 6.542968-.464843 14.039062-7.007812 16.71875-8.695313 3.5625-13.972657 10.125-21.855469 20.539062-6.15625 8.132813-13.199219 17.425782-23.800781 25.648438-.300781.191406-.585938.414062-.855469.652344-7.308594 5.523437-16.277344 10.535156-27.75 14.324218-1.3125.429688-2.664062.648438-4.023438.648438-.675781 0-1.339843-.050782-1.992187-.152344-.132813-.03125-.265625-.058594-.402344-.078125-4.515625-.855469-8.289062-4.082031-9.773437-8.574219zm-2.054688 71.347656c-8.261718 0-16.929687-1.902343-26.5-5.8125-2.164062-.882812-3.855468-2.554687-4.761718-4.710937s-.917969-4.535156-.035157-6.703125c.886719-2.164062 2.558594-3.855469 4.714844-4.757812 2.15625-.90625 4.535156-.917969 6.699219-.035157 11.074218 4.519531 23.25 7.988281 39.96875-1.460937 3.785156 4.617187 8.007812 8.933594 12.628906 12.878906-11.097656 7.199219-21.664062 10.601562-32.714844 10.601562zm162.15625 52.40625c-.515625 6.632813-6.121094 11.824219-12.757812 11.824219-.335938 0-.671875-.011719-1.015625-.039062-7.046875-.550781-12.332031-6.726563-11.785157-13.773438 1.179688-15.121093 1.332032-27.515625.464844-39.242187 8.796875-2.5 17.105469-6.015625 24.765625-10.386719 1.785157 15.835937 1.859375 31.910156.328125 51.617187zm-56.726562-51.863281c-20.140625 0-39.246094-5.753906-55.25-16.644531-12.421875-8.445312-22.320313-19.75-28.582032-32.460938.453126-.125.90625-.238281 1.351563-.386718 11.808594-3.898438 21.417969-9.054688 29.378906-14.699219 11.179688 3.230469 22.699219 5.4375 34.382813 6.574219 1.558594 17.957031 16.667968 32.097656 35.023437 32.097656 19.390625 0 35.167969-15.773438 35.167969-35.167969 0-1.003906-.054688-2-.136719-2.984375 13.972657-3.894531 27.441407-9.382812 40.179688-16.359375-1.210938 44.3125-41.796875 80.03125-91.515625 80.03125zm-55.621094-232.984375v10.234375c0 4.144531 3.359375 7.5 7.5 7.5s7.5-3.355469 7.5-7.5v-10.234375c0-4.140625-3.359375-7.5-7.5-7.5s-7.5 3.359375-7.5 7.5zm0 0"/></svg>