<svg viewBox="0 0 512 512.00108" xmlns="http://www.w3.org/2000/svg"><path d="m58.425781 421.792969c-13.164062 0-26.394531-3.675781-40.398437-10.878907-9.515625-4.894531-13.261719-16.570312-8.371094-26.085937 4.894531-9.511719 16.574219-13.257813 26.085938-8.367187 17.46875 8.984374 33.691406 13.316406 69.675781-18.628907 8-7.101562 20.242187-6.375 27.34375 1.625 7.105469 8 6.378906 20.242188-1.625 27.34375-26.578125 23.601563-49.539063 34.992188-72.710938 34.992188zm0 0" fill="#495059"/><g fill="#ddaf89"><path d="m237.003906 504.5c-.632812 0-1.265625-.023438-1.90625-.074219-13.332031-1.039062-23.300781-12.6875-22.261718-26.019531 2.210937-28.414062 1.414062-48.398438-2.839844-71.277344-2.449219-13.144531 6.226562-25.785156 19.375-28.234375 13.148437-2.445312 25.785156 6.226563 28.230468 19.378907 5.03125 27.027343 6.050782 51.332031 3.515626 83.890624-.988282 12.691407-11.59375 22.335938-24.113282 22.335938zm0 0"/><path d="m149.84375 504.5c-.632812 0-1.265625-.023438-1.90625-.074219-13.332031-1.039062-23.300781-12.6875-22.261719-26.019531 2.210938-28.414062 1.414063-48.398438-2.839843-71.277344-2.449219-13.148437 6.226562-25.789062 19.371093-28.234375 13.15625-2.445312 25.789063 6.226563 28.234375 19.375 5.03125 27.03125 6.050782 51.339844 3.515625 83.894531-.988281 12.695313-11.59375 22.335938-24.113281 22.335938zm0 0"/><path d="m314.859375 391.800781c-12.710937 0-30.578125-4.121093-47.96875-22.128906-9.292969-9.617187-9.027344-24.945313.589844-34.234375 9.621093-9.292969 24.949219-9.023438 34.238281.59375 7.355469 7.613281 12.050781 7.40625 13.59375 7.335938 6.769531-.304688 16.289062-6.882813 24.257812-16.761719 8.394532-10.410157 23.640626-12.039063 34.046876-3.644531 10.40625 8.394531 12.039062 23.640624 3.644531 34.046874-10.019531 12.421876-31.109375 33.453126-59.785157 34.738282-.84375.035156-1.71875.054687-2.617187.054687zm0 0"/></g><path d="m142.207031 378.894531c-13.144531 2.449219-21.820312 15.089844-19.371093 28.234375 1.761718 9.476563 2.921874 18.460938 3.53125 27.746094 14.613281 8.492188 31.171874 14.417969 48.914062 17.101562.078125-18.855468-1.484375-35.679687-4.835938-53.707031-2.449218-13.148437-15.082031-21.820312-28.238281-19.375zm0 0" fill="#d1a582"/><path d="m262.175781 437.738281c-.578125-13.375-2.082031-26.089843-4.574219-39.46875-2.445312-13.148437-15.082031-21.820312-28.230468-19.375-13.148438 2.445313-21.824219 15.085938-19.375 28.234375 2.847656 15.3125 4.140625 29.339844 4.023437 45.453125 17.328125-2.066406 33.605469-7.222656 48.15625-14.84375zm0 0" fill="#d1a582"/><path d="m328.597656 337.414062c-4.789062 3.621094-9.472656 5.78125-13.285156 5.953126-1.542969.070312-6.238281.277343-13.59375-7.335938-9.289062-9.617188-24.617188-9.882812-34.238281-.59375-9.617188 9.292969-9.882813 24.621094-.589844 34.238281 16.117187 16.6875 32.644531 21.445313 45.097656 22.054688 9.902344-16.1875 15.839844-34.65625 16.609375-54.316407zm0 0" fill="#d1a582"/><path d="m314.898438 333.066406c0-58.957031-52.847657-106.746094-118.035157-106.746094-65.191406 0-118.035156 47.789063-118.035156 106.746094 0 58.953125 52.84375 106.746094 118.035156 106.746094 65.1875 0 118.035157-47.792969 118.035157-106.746094zm0 0" fill="#ddaf89"/><path d="m298.785156 267.789062c-30.910156 21.390626-69.179687 32.535157-109.550781 29-40.375-3.53125-76.128906-21.148437-102.851563-47.582031-6.824218 7.398438-12.6875 15.589844-17.367187 24.449219-6.371094 12.066406-2.777344 27.015625 8.347656 34.925781 30.617188 21.769531 67.253907 35.929688 107.386719 39.441407 40.132812 3.507812 78.671875-4.074219 112.605469-20.195313 12.328125-5.855469 18.464843-19.953125 14.285156-32.945313-3.070313-9.535156-7.421875-18.621093-12.855469-27.09375zm0 0" fill="#7f9ae6"/><path d="m136.449219 283.292969c-18.828125-8.292969-35.746094-19.921875-50.066407-34.085938-6.824218 7.398438-12.6875 15.589844-17.367187 24.449219-6.371094 12.066406-2.777344 27.015625 8.347656 34.925781 15.921875 11.320313 33.480469 20.558594 52.300781 27.335938-5.828124-14.804688-1.960937-35.925781 6.785157-52.625zm0 0" fill="#5e78bf"/><path d="m171.808594 99.917969c-5.230469-.457031-10.371094-2.511719-14.636719-6.21875l-29.574219-25.703125c-12.949218-11.257813-31.675781-12.054688-45.535156-1.9375l-22.257812 16.242187c-11.496094 8.390625-27.609376 5.871094-36-5.621093-8.390626-11.496094-5.871094-27.613282 5.621093-36.003907l22.257813-16.242187c16.050781-11.714844 35.824218-17.703125 55.675781-16.855469 19.855469.84375 39.042969 8.488281 54.042969 21.519531l29.574218 25.707032c10.738282 9.332031 11.878907 25.609374 2.542969 36.347656-5.625 6.472656-13.773437 9.460937-21.710937 8.765625zm0 0" fill="#495059"/><path d="m268.347656 108.363281c-7.941406-.695312-15.445312-5.050781-19.863281-12.402343-7.328125-12.199219-3.378906-28.027344 8.820313-35.355469l33.585937-20.175781c17.035156-10.234376 37.265625-14.421876 56.960937-11.8125 19.695313 2.617187 38.128907 11.945312 51.902344 26.269531l19.097656 19.863281c9.863282 10.257812 9.542969 26.566406-.714843 36.429688-10.257813 9.863281-26.566407 9.542968-36.429688-.714844l-19.097656-19.863282c-11.894531-12.367187-30.472656-14.835937-45.179687-6l-33.589844 20.179688c-4.847656 2.910156-10.265625 4.039062-15.492188 3.582031zm0 0" fill="#495059"/><path d="m202.292969 307.433594c130.300781 11.398437 194.242187-43.152344 183.269531-128.804688-11.792969-92.042968-69.503906-146.910156-158.46875-154.691406-88.964844-7.785156-155.324219 36.226562-182.921875 124.824219-25.679687 82.445312 27.820313 147.269531 158.121094 158.671875zm0 0" fill="#ddaf89"/><path d="m258.601562 358.871094c0 18.210937-14.761718 32.972656-32.972656 32.972656-18.210937 0-32.972656-14.761719-32.972656-32.972656 0-18.207032 14.761719-32.96875 32.972656-32.96875 18.210938 0 32.972656 14.761718 32.972656 32.96875zm0 0" fill="#f6e06a"/><path d="m164.269531 149.828125c1.363281-15.550781-13.363281-29.542969-32.894531-31.253906-19.527344-1.707031-36.460938 9.511719-37.824219 25.066406-1.359375 15.550781 13.367188 29.542969 32.894531 31.25 19.53125 1.710937 36.464844-9.511719 37.824219-25.0625zm0 0" fill="#ffdbdb"/><path d="m291.996094 160.976562c-1.359375 15.550782 13.367187 29.546876 32.894531 31.253907 19.527344 1.710937 36.464844-9.511719 37.824219-25.0625s-13.367188-29.542969-32.894532-31.253907c-19.527343-1.710937-36.460937 9.511719-37.824218 25.0625zm0 0" fill="#ffdbdb"/><path d="m248.714844 133.757812c-11.878906-4.246093-24.652344-5.367187-37.089844-3.246093-5.148438.878906-9.804688 3.589843-13.109375 7.636719-4.460937 5.46875-2.886719 13.640624 3.285156 17.058593l17.125 9.480469c5.097657 2.824219 11.15625 3.351562 16.667969 1.457031l18.507812-6.363281c6.671876-2.292969 9.640626-10.070312 6.199219-16.226562-2.550781-4.558594-6.667969-8.039063-11.585937-9.796876zm0 0" fill="#495059"/><path d="m218.265625 268.210938c-25.691406-2.246094-45.023437-21.144532-43.179687-42.210938 1.84375-21.0625 24.164062-36.316406 49.851562-34.070312 75.367188 6.59375 172.585938 57.855468 221.238281 143.265624 8.667969 15.214844 8.222657 33.976563-1.140625 48.773438-10.089844 15.941406-30.511718 21.808594-47.523437 13.652344l-5.382813-2.582032c-13.691406-6.566406-29.875-5.132812-42.203125 3.730469-11.382812 8.1875-27.410156.664063-28.230469-13.332031-2.484374-42.402344-19.746093-109.902344-103.429687-117.226562zm0 0" fill="#a0d9bb"/><path d="m130.945312 417.503906c-.707031 0-1.421874-.03125-2.136718-.09375-28.289063-2.476562-50.324219-15.820312-62.050782-37.574218-13.304687-24.683594-9.972656-52.941407-.769531-70 6.347657-11.769532 21.035157-16.160157 32.804688-9.8125 11.769531 6.351562 16.164062 21.039062 9.8125 32.808593-2.550781 4.730469-3.699219 15.710938.78125 24.027344 1.433593 2.660156 5.792969 10.746094 23.644531 12.308594 13.320312 1.164062 23.175781 12.910156 22.007812 26.230469-1.101562 12.605468-11.675781 22.105468-24.09375 22.105468zm0 0" fill="#c49b7a"/><path d="m175.789062 235.949219c3.855469 16.769531 20.925782 30.378906 42.476563 32.261719 83.683594 7.324218 100.945313 74.824218 103.425781 117.226562.820313 13.996094 16.851563 21.519531 28.230469 13.332031 5.828125-4.191406 12.519531-6.699219 19.402344-7.507812-26.820313-140.554688-144.546875-153.390625-193.535157-155.3125zm0 0" fill="#f6e06a"/><path d="m446.175781 335.195312c-48.65625-85.410156-145.871093-136.671874-221.238281-143.265624-18.394531-1.609376-35.058594 5.757812-43.714844 17.804687 146.859375 10.941406 235.023438 95.914063 246.085938 188.917969 7.09375-2.808594 13.371094-7.804688 17.726562-14.683594 9.359375-14.796875 9.808594-33.558594 1.140625-48.773438zm0 0" fill="#7f9ae6"/><path d="m469.925781 250.359375c-14.476562 0-31.539062 11.792969-31.539062 22.957031 0 11.167969 5.171875 22.605469 27.402343 26.96875 22.234376 4.363282 34.644532-11.148437 37.746094-19.421875 3.101563-8.273437.515625-30.503906-33.609375-30.503906zm0 0" fill="#7f9ae6"/><path d="m330.835938 420.820312c-13.074219-1.214843-25.03125 1.5625-28.722657 12.527344-2.574219 7.644532 4.773438 24.058594 21.007813 28.066406 16.234375 4.011719 30.039062-4.421874 32.179687-15.949218 2.136719-11.527344-8.082031-23.121094-24.464843-24.644532zm0 0" fill="#f6e06a"/><path d="m506.800781 258.15625c-4.835937-6.980469-15.160156-15.296875-36.875-15.296875-17.574219 0-39.039062 14.054687-39.039062 30.457031 0 22.945313 18.195312 31.332032 33.457031 34.328125 3.15625.617188 6.164062.902344 9.03125.902344 20.199219 0 33.097656-14.15625 37.183594-25.050781 2.410156-6.429688 2.1875-16.761719-3.757813-25.339844zm-10.289062 20.074219c-1.984375 5.296875-11.117188 18.253906-29.277344 14.695312-10.554687-2.074219-21.347656-6.023437-21.347656-19.609375 0-5.539062 12.117187-15.457031 24.039062-15.457031 12.050781 0 20.539063 3.054687 24.546875 8.839844 3.007813 4.34375 2.847656 9.378906 2.039063 11.53125zm-164.984375 135.121093c-25.808594-2.398437-33.960938 10-36.523438 17.601563-1.863281 5.539063-.734375 12.929687 3.019532 19.769531 4.929687 8.980469 13.421874 15.535156 23.300781 17.976563 3.296875.8125 6.617187 1.214843 9.871093 1.214843 6.972657 0 13.644532-1.839843 19.15625-5.394531 6.621094-4.269531 10.996094-10.550781 12.320313-17.6875 1.285156-6.933593-.488281-14.03125-4.992187-19.988281-5.714844-7.5625-15.246094-12.480469-26.152344-13.492188zm16.398437 30.746094c-.5625 3.03125-2.585937 5.808594-5.699219 7.8125-4.628906 2.984375-10.9375 3.796875-17.304687 2.226563-8.265625-2.042969-12.367187-8.117188-13.75-10.632813-2.136719-3.894531-2.238281-6.910156-1.953125-7.761718 2.046875-6.078126 9.105469-7.695313 16.035156-7.695313 1.660156 0 3.3125.09375 4.886719.238281 6.714844.625 12.390625 3.398438 15.574219 7.601563 1.367187 1.808593 2.859375 4.703125 2.210937 8.210937zm102.496094-100.898437c-4.082031.699219-6.820313 4.578125-6.121094 8.660156 1.679688 9.757813-.3125 19.734375-5.605469 28.097656-8.054687 12.726563-24.363281 17.414063-37.9375 10.902344l-5.386718-2.585937c-16.175782-7.753907-35.265625-6.0625-49.828125 4.40625-3.117188 2.246093-7.058594 2.59375-10.539063.9375-3.425781-1.628907-5.605468-4.851563-5.824218-8.617188-.707032-12.101562-2.691407-27.390625-7.539063-43.039062-.097656-.433594-.230469-.855469-.398437-1.257813-2.363282-7.394531-5.375-14.851563-9.199219-22.074219-.0625-.117187-.121094-.230468-.191407-.347656-1.574218-2.949219-3.28125-5.863281-5.144531-8.714844-18.917969-28.957031-48.457031-45.386718-87.789062-48.828125-10.703125-.933593-20.40625-5.175781-27.324219-11.9375-6.519531-6.375-9.730469-14.238281-9.035156-22.144531.6875-7.910156 5.214844-15.097656 12.742187-20.238281 7.988281-5.460938 18.28125-7.949219 28.984375-7.015625 35.292969 3.089844 74.523438 16.191406 110.457032 36.898437 11.488281 6.621094 22.433593 13.890625 32.757812 21.726563.066406.050781.132812.101562.203125.152344 25.183594 19.144531 46.648437 41.664062 63.113281 66.398437 2.296875 3.449219 6.953125 4.382813 10.402344 2.085937 3.445312-2.292968 4.382812-6.949218 2.085938-10.398437-16.261719-24.429687-37.109376-46.789063-61.433594-66.070313 10.890625-20.679687 14.652344-45.027343 11.128906-72.519531-2.945312-22.980469-8.632812-43.785156-16.992188-62.3125l.289063.300781c6.160156 6.402344 14.441406 10.027344 23.328125 10.203126.222656.003906.445312.003906.667969.003906 8.636719 0 16.796875-3.28125 23.039062-9.285156 6.40625-6.160157 10.027344-14.441407 10.203125-23.328126.175782-8.882812-3.121094-17.300781-9.277344-23.707031l-19.101562-19.863281c-14.945312-15.542969-34.945312-25.664062-56.320312-28.503906-19.785157-2.621094-40.121094 1.101562-57.703126 10.5-18.933593-8.085938-40.105468-13.183594-63.386718-15.21875s-45.015625-.695313-65.066406 3.980468c-15.683594-12.3125-35.0625-19.511718-55.003907-20.3593745-21.539062-.9101565-43 5.5781245-60.414062 18.2890625l-22.257813 16.246094c-14.816406 10.8125-18.070312 31.664062-7.257812 46.480468 6.503906 8.914063 16.640625 13.644532 26.914062 13.644532 6.800782 0 13.664063-2.078125 19.566406-6.386719l.335938-.246094c-11.449219 16.796875-20.660156 36.300781-27.550781 58.417969-11.542969 37.0625-7.832031 71.285156 10.738281 98.972656 4.824219 7.191406 10.578125 13.867188 17.21875 20.023438-.898438 1.53125-1.765625 3.074218-2.585938 4.628906-5.289062 10.015625-5.242187 21.933594-.234374 31.859375-1.015626 1.324219-1.945313 2.742187-2.761719 4.261719-9.179688 17.011718-13.085938 44.082031-2.960938 69.167968-5.597656-.296874-10.863281-2.367187-17.253906-5.652343-13.175781-6.773438-29.40625-1.566407-36.183594 11.609375-3.28125 6.382812-3.882812 13.660156-1.691406 20.492187 2.195313 6.835938 6.917969 12.40625 13.300781 15.691407 15.320313 7.875 29.65625 11.707031 43.832032 11.707031 13.71875 0 27.308593-3.59375 41.433593-10.960938 5.597657 2.238281 11.582031 3.960938 17.902344 5.132813 1.679687 13.867187 2.019531 27.808594 1.097656 44.457031-.226562 4.136719 2.941407 7.675781 7.078125 7.902344.140625.007812.277344.011719.417969.011719 3.953125 0 7.261719-3.09375 7.484375-7.085938.746094-13.554688.703125-25.445312-.179688-36.949219 10.667969 5.6875 22.105469 9.851563 34.058594 12.425781.25 11.359376-.15625 23.394532-1.242187 37.355469-.671875 8.648438-7.980469 15.417969-16.636719 15.417969-.4375 0-.882812-.015625-1.324219-.050781-3.300781-.257813-6.414062-1.46875-9.003906-3.5-3.257813-2.554688-7.972656-1.988281-10.53125 1.269531-2.554687 3.257812-1.988281 7.972656 1.269531 10.53125 4.929688 3.863281 10.839844 6.167969 17.105469 6.652344.824219.066406 1.660156.097656 2.488281.097656 16.4375 0 30.3125-12.847656 31.589844-29.253906 1.042969-13.378906 1.472656-25.089844 1.332031-36.15625 4.644531.464844 9.34375.722656 14.097657.722656 3.226562 0 6.441406-.121094 9.632812-.339844.136719 9.25-.234375 19.253906-1.136719 30.851563-1.355469 17.4375 11.722657 32.722656 29.15625 34.078125.824219.066406 1.664063.097656 2.488281.097656 16.4375 0 30.3125-12.847656 31.589844-29.253906 1.675782-21.5 1.800782-39.054688.390625-56.164063 4.226563-2.699219 8.289063-5.644531 12.160157-8.835937 7.316406-6.035156 13.761718-12.765625 19.253906-20.042969 4.761718 1.058594 9.605468 1.601563 14.460937 1.601563 1.007813 0 1.988281-.023438 2.957031-.066407.355469-.015625.722657-.050781 1.082032-.074219 2.425781 3.351563 5.699218 6.113282 9.660156 8 3.542969 1.6875 7.285156 2.519532 10.996094 2.519532 5.179687 0 10.304687-1.625 14.75-4.820313 10.105468-7.269531 23.355468-8.441406 34.578125-3.058593l5.386719 2.582031c20.433593 9.800781 44.984374 2.742187 57.101562-16.402344 7.285156-11.511719 10.023438-25.242187 7.714844-38.664063-.707032-4.085937-4.582032-6.832031-8.667969-6.121093zm-156.269531-25.425781c.527344.808593 1.042968 1.628906 1.546875 2.453124-.507813.296876-1.027344.574219-1.5625.828126-11.652344 5.535156-23.84375 10-36.304688 13.304687-.386719-.507813-.785156-1.007813-1.199219-1.5-6.949218-8.28125-16.707031-13.359375-27.476562-14.304687-17.035156-1.488282-32.550781 7.855468-39.757812 22.300781-1.355469-.089844-2.695313-.191407-3.996094-.304688-23.121094-2.023437-45.457032-7.734375-66.484375-16.976562.835937-12.042969-5.265625-24.054688-16.5625-30.152344-9-4.851563-19.320313-4.890625-28.003907-1.015625-1.601562-4.980469-1.214843-10.492188 1.296876-15.246094.347656-.660156.707031-1.316406 1.074218-1.972656 29.359375 21.503906 71.6875 35.058594 124.914063 39.714844 11.636719 1.019531 22.855469 1.527344 33.632812 1.527344 19.640625 0 37.789063-1.710938 54.289063-5.074219 1.605468 2.050781 3.136718 4.1875 4.59375 6.417969zm-70.742188 66.472656c-6.78125-.59375-12.921875-3.789063-17.292968-9-4.375-5.214844-6.457032-11.816406-5.863282-18.59375 1.160156-13.242188 12.304688-23.253906 25.355469-23.253906.742187 0 1.488281.035156 2.238281.101562 6.777344.589844 12.917969 3.789062 17.292969 9s6.457031 11.816406 5.863281 18.59375c-1.226562 13.988281-13.605468 24.378906-27.59375 23.152344zm-.851562-226.121094-17.125-9.480469c-1.355469-.75-1.773438-1.960937-1.898438-2.617187-.125-.652344-.191406-1.929688.792969-3.136719 2.15625-2.640625 5.195313-4.414063 8.558594-4.984375 3.664062-.625 7.367187-.933594 11.066406-.933594 7.554687 0 15.089844 1.292969 22.234375 3.847656 3.214844 1.148438 5.898438 3.421876 7.5625 6.398438.761719 1.355469.472656 2.601562.234375 3.222656-.238281.625-.855469 1.742188-2.324219 2.246094l-18.507812 6.363281c-3.496094 1.207031-7.359375.867188-10.59375-.925781zm124.304687-122.070312c18.019531 2.390624 34.882813 10.925781 47.484375 24.027343l19.097656 19.863281c3.382813 3.519532 5.191407 8.140626 5.09375 13.019532-.09375 4.878906-2.082031 9.425781-5.601562 12.808594-3.515625 3.378906-8.132812 5.1875-13.015625 5.097656-4.878906-.097656-9.425781-2.085938-12.808594-5.605469l-19.097656-19.859375c-5.125-5.328125-11.449219-9.253906-18.40625-11.476562-2.90625-3.332032-5.941406-6.546876-9.121094-9.628907-9.605469-9.3125-20.28125-17.308593-31.964843-23.984375 12.191406-4.457031 25.402343-5.976562 38.339843-4.261718zm-291.480469 40.1875c-8.132812 5.9375-19.582031 4.152343-25.519531-3.984376-5.9375-8.132812-4.148437-19.582031 3.984375-25.519531l22.257813-16.246093c14.683593-10.714844 32.769531-16.1875 50.933593-15.421876 13.039063.558594 25.785157 4.347657 37.023438 10.859376-12.667969 4.539062-24.566406 10.5625-35.648438 18.066406-3.667968 2.484375-7.214843 5.121094-10.65625 7.898437-7.234374.980469-14.144531 3.746094-20.117187 8.105469zm4.828126 160.90625c-15.957032-23.789063-19.023438-53.578126-8.878907-86.15625 11.441407-36.722657 29.59375-65.566407 54.0625-85.964844.15625-.121094.308594-.253906.457031-.386719 3.527344-2.917969 7.1875-5.660156 10.972657-8.222656 13.683593-9.269531 28.792969-16.050781 45.226562-20.34375.507813-.082031 1.007813-.207031 1.492188-.390625 19.222656-4.824219 40.238281-6.261719 62.898437-4.273438 22.667969 1.980469 43.121094 7.050782 61.21875 15.140625.4375.257813.894532.464844 1.371094.628907 15.441406 7.082031 29.148438 16.386718 41.015625 27.890624 3.285156 3.183594 6.414063 6.519532 9.378906 10.003907.125.160156.25.316406.386719.464843 20.550781 24.335938 33.421875 55.894532 38.308594 94.042969 2.992187 23.367188.167968 43.992188-8.390625 61.453125-8.789063-6.3125-17.964844-12.238281-27.496094-17.730468-35.296875-20.339844-73.761719-33.710938-109.183594-38.058594l.960938-10.96875c1.355469-.25 2.699219-.585938 4.019531-1.039063l18.507812-6.363281c5.289063-1.820312 9.464844-5.855469 11.460938-11.082031 1.996094-5.222657 1.574219-11.015625-1.15625-15.898438-3.433594-6.140625-8.976562-10.832031-15.605469-13.199219-13.0625-4.671874-27.195312-5.90625-40.871093-3.574218-6.9375 1.179687-13.210938 4.835937-17.660157 10.289062-3.535156 4.332032-4.957031 9.964844-3.898437 15.457032 1.058594 5.488281 4.46875 10.191406 9.359375 12.902343l17.121093 9.480469c1.222657.675781 2.488282 1.242188 3.78125 1.722656l-.988281 11.269532c-11.445312.324218-22.332031 3.699218-31.242187 9.789062-11.304688 7.726562-18.132813 18.847656-19.222656 31.316406-1.089844 12.46875 3.699218 24.605469 13.492187 34.179688 9.390625 9.179687 22.355469 14.917968 36.503906 16.15625 24.222657 2.117187 44.125 9.734375 59.46875 22.695312-21.910156 3.4375-46.769531 3.976563-74.136719 1.582032-54.074218-4.730469-95.835937-18.804688-122.847656-41.113282-.367187-.378906-.78125-.730468-1.242187-1.035156-.003907-.003906-.007813-.003906-.007813-.007812-7.367187-6.261719-13.605468-13.148438-18.636718-20.65625zm-1.78125 177.144531c-11.734376 0-23.828126-3.289063-36.972657-10.050781-2.820312-1.449219-4.90625-3.910157-5.875-6.929688s-.703125-6.234375.746094-9.050781c2.992187-5.824219 10.164063-8.125 15.984375-5.132813 8.605469 4.425782 18.742188 8.824219 31.84375 6.867188 5.164062 7.636718 11.59375 14.148437 19.117188 19.417968-8.460938 3.269532-16.671876 4.878907-24.84375 4.878907zm71.03125-4.355469c-1.632813-.144531-3.242188-.324219-4.828126-.546875 0 0-.003906 0-.007812 0-23.351562-3.253906-41.445312-14.890625-51.265625-33.113281-11.980469-22.226563-9.019531-47.59375-.773437-62.878906 3.019531-5.59375 8.789062-8.773438 14.738281-8.773438 2.675781 0 5.390625.644531 7.90625 2 8.109375 4.375 11.148437 14.535156 6.773437 22.644531-3.9375 7.296875-4.722656 20.941407.78125 31.148438 5.117188 9.492187 15.074219 14.953125 29.589844 16.222656 9.179688.804687 15.996094 8.925781 15.191406 18.105469-.789062 9.042968-8.910156 15.992187-18.105468 15.191406zm124.179687 71.644531c-.671875 8.644531-7.980469 15.417969-16.636719 15.417969-.4375 0-.882812-.019531-1.324218-.050781-9.1875-.714844-16.082032-8.773438-15.367188-17.960938.992188-12.753906 1.371094-23.703125 1.15625-33.890625 11.519531-2.085937 22.632812-5.628906 33.039062-10.527344.804688 14.230469.519532 29.183594-.867187 47.011719zm37.53125-96.746093c-.039063.054687-.074219.105468-.109375.160156-5.316406 7.757812-11.84375 14.894531-19.464844 21.179687-20.433594 16.851563-46.976562 26.136719-74.734375 26.136719-6.894531 0-13.671875-.578125-20.296875-1.671875-.179687-.035156-.363281-.070313-.550781-.09375-10.472656-1.78125-20.53125-4.910156-29.972656-9.324219 9.09375-4.894531 15.5-14.117187 16.46875-25.167968 1.523437-17.417969-11.410157-32.832032-28.828125-34.355469-13.820313-1.210938-16.738282-6.621094-17.695313-8.398438-2.699219-5.003906-2.40625-11.703125-1.402343-15.261719 22.027343 9.46875 45.371093 15.34375 69.511718 17.457032.394532.035156.800782.0625 1.199219.097656-.871094 10.679688 2.433594 21.078125 9.328125 29.296875 6.949219 8.277344 16.707031 13.359375 27.476562 14.300781 1.195313.105469 2.378907.15625 3.558594.15625 20.734375 0 38.445313-15.910156 40.285156-36.945312.429688-4.910156-.03125-9.753906-1.308593-14.363282 12.320312-3.453124 24.378906-7.941406 35.9375-13.433593.6875-.324219 1.351562-.679688 2.011719-1.042969 1.550781 3.582031 2.90625 7.203125 4.09375 10.820312-1.828126 14.441407-7.160157 28.21875-15.507813 40.453126zm18.097656-.84375c1.472657-2.695313 2.832031-5.445313 4.066407-8.238282.335937 2.976563.589843 5.832032.769531 8.535156-1.617188-.023437-3.230469-.121093-4.835938-.296874zm-173.542969-255.695313c1.480469 1.769531 3.605469 2.679687 5.746094 2.679687 1.703125 0 3.414063-.574218 4.816406-1.753906l5.316407-4.460937 4.457031 5.316406c1.484375 1.765625 3.609375 2.679687 5.75 2.679687 1.703125 0 3.414062-.578124 4.816406-1.757812 3.175782-2.660156 3.585938-7.390625.925782-10.566406l-4.460938-5.3125 5.316406-4.457032c3.171875-2.664062 3.585938-7.394531.921875-10.566406-2.660156-3.171875-7.390625-3.585937-10.566406-.925781l-5.3125 4.460937-4.460937-5.316406c-2.660157-3.171875-7.390626-3.585937-10.566407-.921875-3.171875 2.660157-3.585937 7.390625-.921875 10.566407l4.457032 5.3125-5.3125 4.457031c-3.171876 2.664062-3.585938 7.394531-.921876 10.566406zm157.214844 13.757813c1.484375 1.765624 3.609375 2.675781 5.75 2.675781 1.699219 0 3.410156-.574219 4.816406-1.753907l5.3125-4.457031 4.460938 5.3125c1.484375 1.769531 3.609375 2.679688 5.75 2.679688 1.699219 0 3.410156-.578125 4.816406-1.753907 3.171875-2.664062 3.585938-7.394531.921875-10.566406l-4.457031-5.316406 5.3125-4.457031c3.175781-2.664063 3.589844-7.394531.925781-10.566407-2.664062-3.171874-7.394531-3.585937-10.566406-.925781l-5.3125 4.460938-4.460937-5.316407c-2.660157-3.171874-7.394532-3.585937-10.566407-.921874-3.171875 2.660156-3.585937 7.394531-.921875 10.566406l4.457032 5.3125-5.3125 4.460937c-3.175782 2.660157-3.585938 7.390625-.925782 10.566407zm0 0"/></svg>