<svg viewBox="-35 0 512 512.00182" xmlns="http://www.w3.org/2000/svg"><path d="m78.628906 421.664062c27.503906 0 53.03125-14.417968 81.828125-44.867187 7.953125-8.410156 7.582031-21.679687-.828125-29.632813-8.410156-7.949218-21.679687-7.582031-29.632812.828126-35.773438 37.828124-53.675782 34.691406-73.351563 26.65625-10.722656-4.378907-22.953125.761718-27.332031 11.480468-4.375 10.714844.765625 22.953125 11.480469 27.328125 13.292969 5.425781 25.753906 8.207031 37.835937 8.207031zm0 0" fill="#495059"/><g fill="#ddaf89"><path d="m269.792969 504.5c13.578125 0 25.066406-10.476562 26.101562-24.238281l.023438-.332031c2.730469-36.332032 4.699219-62.578126-.808594-93.253907-2.558594-14.242187-16.191406-23.703125-30.417969-21.15625-14.242187 2.558594-23.714844 16.175781-21.160156 30.417969 4.332031 24.125 2.664062 46.378906.132812 80.066406l-.023437.332032c-1.085937 14.429687 9.734375 27.003906 24.164063 28.089843.667968.050781 1.332031.074219 1.988281.074219zm0 0"/><path d="m167.265625 504.5c13.578125 0 25.066406-10.476562 26.097656-24.238281l.027344-.332031c2.726563-36.332032 4.699219-62.578126-.808594-93.253907-2.558593-14.242187-16.1875-23.703125-30.417969-21.15625-14.242187 2.558594-23.71875 16.175781-21.160156 30.417969 4.332032 24.125 2.664063 46.378906.132813 80.066406l-.027344.332032c-1.082031 14.429687 9.738281 27.003906 24.167969 28.089843.667968.050781 1.328125.074219 1.988281.074219zm0 0"/><path d="m366.78125 366.695312c23.515625 0 46.949219-10 62.253906-27.191406 9.621094-10.8125 8.65625-27.375-2.15625-36.992187-10.808594-9.621094-27.371094-8.65625-36.988281 2.152343-5.183594 5.820313-16.628906 11.046876-27.640625 9.277344-8.484375-1.371094-14.613281-6.683594-18.734375-16.246094-5.730469-13.285156-21.148437-19.417968-34.433594-13.683593-13.289062 5.730469-19.414062 21.144531-13.6875 34.433593 11.292969 26.1875 32.070313 42.960938 58.503907 47.226563 4.261718.6875 8.574218 1.023437 12.882812 1.023437zm0 0"/></g><path d="m162.164062 365.519531c14.230469-2.546875 27.859376 6.914063 30.417969 21.15625 3.054688 17.007813 3.804688 32.65625 3.40625 49.414063-18.894531-2.261719-36.636719-7.914063-52.46875-16.273438-.300781-8.074218-1.074219-15.875-2.511719-23.878906-2.5625-14.242188 6.914063-27.859375 21.15625-30.417969zm0 0" fill="#d1a582"/><path d="m264.691406 365.519531c14.226563-2.546875 27.859375 6.914063 30.417969 21.15625 1.585937 8.824219 2.535156 17.28125 3.042969 25.71875-15.332032 10.171875-32.949219 17.628907-52.011719 21.582031.273437-13.421874-.351563-25.480468-2.609375-38.039062-2.554688-14.242188 6.917969-27.859375 21.160156-30.417969zm0 0" fill="#d1a582"/><path d="m309.082031 284.011719c13.289063-5.738281 28.703125.394531 34.433594 13.683593 3.21875 7.464844 7.667969 12.328126 13.496094 14.761719-.839844 18.085938-5.722657 35.230469-13.855469 50.691407-21.3125-6.628907-38.046875-22.175782-47.761719-44.707032-5.726562-13.285156.398438-28.699218 13.6875-34.429687zm0 0" fill="#d1a582"/><path d="m342.316406 306.855469c0-63.792969-57.1875-115.507813-127.726562-115.507813-70.542969 0-127.726563 51.714844-127.726563 115.507813s57.183594 115.507812 127.726563 115.507812c70.539062 0 127.726562-51.714843 127.726562-115.507812zm0 0" fill="#ddaf89"/><path d="m99.230469 232.691406c31.300781 25.976563 71.503906 41.59375 115.359375 41.59375 43.851562 0 84.054687-15.617187 115.359375-41.59375 6.65625 8.621094 12.203125 18.003906 16.410156 27.996094 5.734375 13.609375.445313 29.382812-12.289063 36.859375-35.058593 20.582031-75.890624 32.390625-119.480468 32.390625-43.59375 0-84.421875-11.808594-119.484375-32.390625-12.734375-7.476563-18.019531-23.25-12.289063-36.859375 4.207032-9.992188 9.757813-19.375 16.414063-27.996094zm0 0" fill="#7f9ae6"/><path d="m156.417969 264.714844c-21.078125-7.160156-40.414063-18.101563-57.1875-32.023438-6.65625 8.621094-12.207031 18.003906-16.414063 27.996094-5.730468 13.609375-.445312 29.386719 12.289063 36.863281 18.230469 10.699219 38.03125 19.003907 58.960937 24.535157-7.679687-15.410157-5.503906-38.542969 2.351563-57.371094zm0 0" fill="#5e78bf"/><path d="m167.609375 91.328125c-5.089844 0-10.226563-1.550781-14.660156-4.773437l-30.734375-22.324219c-13.460938-9.777344-31.613282-8.964844-44.144532 1.976562l-20.125 17.570313c-10.394531 9.074218-26.175781 8.003906-35.25-2.390625-9.074218-10.390625-8.003906-26.171875 2.390626-35.246094l20.125-17.570313c14.511718-12.671874 33.101562-20.125 52.347656-20.984374 19.25-.859376 38.429687 4.898437 54.019531 16.21875l30.734375 22.328124c11.164062 8.109376 13.636719 23.730469 5.53125 34.894532-4.886719 6.726562-12.507812 10.300781-20.234375 10.300781zm0 0" fill="#495059"/><path d="m261.566406 91.328125c-7.726562 0-15.34375-3.574219-20.230468-10.304687-8.109376-11.160157-5.632813-26.78125 5.527343-34.890626l30.738281-22.328124c15.585938-11.320313 34.773438-17.078126 54.015626-16.222657 19.246093.863281 37.835937 8.316407 52.351562 20.988281l20.125 17.570313c10.390625 9.074219 11.460938 24.855469 2.386719 35.246094-9.074219 10.394531-24.855469 11.464843-35.246094 2.390625l-20.125-17.574219c-12.53125-10.9375-30.683594-11.753906-44.144531-1.976563l-30.738282 22.328126c-4.433593 3.222656-9.570312 4.773437-14.660156 4.773437zm0 0" fill="#495059"/><path d="m214.589844 289.179688c126.8125 0 183.964844-58.09375 166.128906-139.890626-19.167969-87.90625-79.542969-136.023437-166.128906-136.023437-86.585938 0-146.960938 48.117187-166.128906 136.023437-17.835938 81.796876 39.3125 139.890626 166.128906 139.890626zm0 0" fill="#ddaf89"/><path d="m266.097656 334.433594c0 19.707031-15.972656 35.679687-35.679687 35.679687-19.703125 0-35.675781-15.972656-35.675781-35.679687 0-19.703125 15.972656-35.675782 35.675781-35.675782 19.707031 0 35.679687 15.972657 35.679687 35.675782zm0 0" fill="#f6e06a"/><path d="m376.597656 159.199219c0-16.890625-17.195312-30.585938-38.40625-30.585938-21.210937 0-38.410156 13.695313-38.410156 30.585938 0 16.894531 17.199219 30.589843 38.410156 30.589843 21.210938 0 38.40625-13.695312 38.40625-30.589843zm0 0" fill="#ffdbdb"/><path d="m161.054688 159.199219c0-16.890625-17.195313-30.585938-38.40625-30.585938-21.210938 0-38.40625 13.695313-38.40625 30.585938 0 16.894531 17.195312 30.589843 38.40625 30.589843 21.210937 0 38.40625-13.695312 38.40625-30.589843zm0 0" fill="#ffdbdb"/><path d="m210.277344 133.917969c13.207031-3.457031 27.078125-3.457031 40.285156 0 5.46875 1.433593 10.234375 4.796875 13.414062 9.472656 4.292969 6.3125 1.824219 14.972656-5.152343 18.074219l-19.351563 8.605468c-5.761718 2.5625-12.34375 2.5625-18.105468 0l-19.351563-8.605468c-6.976563-3.101563-9.445313-11.761719-5.152344-18.074219 3.179688-4.675781 7.945313-8.039063 13.414063-9.472656zm0 0" fill="#495059"/><path d="m53.351562 283.164062 52.421876-9.242187c12.164062-2.144531 20.285156-13.742187 18.140624-25.90625l-19.605468-111.175781c-2.144532-12.164063-13.742188-20.285156-25.902344-18.140625l-52.421875 9.242187c-12.164063 2.144532-20.285156 13.742188-18.140625 25.90625l19.605469 111.175782c2.140625 12.164062 13.742187 20.285156 25.902343 18.140624zm0 0" fill="#495059"/><path d="m87.59375 144.816406c0 3.941406-3.195312 7.140625-7.136719 7.140625-3.945312 0-7.140625-3.199219-7.140625-7.140625s3.195313-7.136718 7.140625-7.136718c3.941407 0 7.136719 3.195312 7.136719 7.136718zm0 0" fill="#7f9ae6"/><path d="m118.824219 219.160156 2.605469 14.769532-96.464844 17.007812-2.605469-14.773438zm0 0" fill="#dfe3e5"/><path d="m78.828125 184.878906c0 8.714844-7.066406 15.777344-15.78125 15.777344s-15.78125-7.0625-15.78125-15.777344 7.066406-15.78125 15.78125-15.78125 15.78125 7.066406 15.78125 15.78125zm0 0" fill="#dfe3e5"/><path d="m104.597656 346.101562c-1.773437 0-3.578125-.183593-5.382812-.574218-25.09375-5.355469-48.613282-22.804688-66.226563-49.140625-14.558593-21.765625-23.453125-46.933594-23.785156-67.324219-.234375-14.175781 11.070313-25.859375 25.25-26.09375h.429687c13.984376 0 25.433594 11.21875 25.664063 25.253906.136719 8.394532 4.929687 24.371094 15.125 39.613282 9.996094 14.945312 22.488281 24.960937 34.261719 27.472656 13.871094 2.960937 22.710937 16.601562 19.75 30.472656-2.574219 12.058594-13.226563 20.320312-25.085938 20.320312zm0 0" fill="#c49b7a"/><path d="m308.308594 115.125v13.5625c0 4.144531 3.355468 7.5 7.5 7.5 4.140625 0 7.5-3.355469 7.5-7.5v-13.5625c0-4.140625-3.359375-7.5-7.5-7.5-4.144532 0-7.5 3.359375-7.5 7.5zm-170.777344 0v13.5625c0 4.144531 3.359375 7.5 7.5 7.5 4.144531 0 7.5-3.355469 7.5-7.5v-13.5625c0-4.140625-3.355469-7.5-7.5-7.5-4.140625 0-7.5 3.359375-7.5 7.5zm305.574219 205c-.523438-8.988281-4.515625-17.230469-11.238281-23.214844-13.878907-12.355468-35.222657-11.113281-47.582032 2.765625-3.820312 4.296875-12.878906 8.140625-20.839844 6.859375-3.976562-.640625-9.054687-2.5625-13.042968-11.808594-.242188-.5625-.523438-1.109374-.800782-1.664062 6.820313-9.945312 8.605469-22.945312 3.914063-34.671875 7.964844-6.554687 14.097656-13.339844 18.804687-19.820313 2.4375-3.351562 1.691407-8.039062-1.660156-10.476562-3.351562-2.433594-8.039062-1.6875-10.472656 1.660156-5.480469 7.542969-12.308594 14.3125-20.394531 20.296875-.007813.003907-.015625.011719-.019531.015625-9.292969 6.871094-20.257813 12.699219-32.851563 17.414063-25.179687 9.421875-56.246094 14.199219-92.332031 14.199219-34.203125 0-63.792969-4.28125-88.191406-12.722657 4.539062-6.519531 6.28125-14.417969 4.902343-22.246093l-19.605469-111.175782c-2.859374-16.214844-18.382812-27.089844-34.59375-24.222656l-9.363281 1.648438c11.902344-27.859376 29.371094-49.832032 52.054688-65.421876 25.84375-17.765624 57.738281-26.773437 94.796875-26.773437 22.035156 0 42.195312 3.164063 60.332031 9.4375.445313.210937.910156.378906 1.382813.496094 15.488281 5.527343 29.488281 13.34375 41.898437 23.429687 3.441406 2.796875 6.742187 5.757813 9.902344 8.871094.128906.136719.257812.273438.398437.402344 21.875 21.734375 36.953125 51.089844 44.886719 87.480468 4.054687 18.601563 4.023437 35.859376-.09375 51.296876-1.066406 4 1.3125 8.109374 5.316406 9.179687.644531.171875 1.296875.253906 1.9375.253906 3.3125 0 6.347657-2.214843 7.242188-5.570312 4.738281-17.765625 4.824219-37.398438.253906-58.351563-4.6875-21.503906-11.738281-40.773437-21.085937-57.714844 5.859374 4.851563 13.09375 7.464844 20.65625 7.464844.746093 0 1.492187-.027344 2.242187-.078125 8.65625-.585937 16.566406-4.507812 22.273437-11.042969 5.707032-6.535156 8.523438-14.902343 7.9375-23.558593-.585937-8.65625-4.507812-16.566407-11.042968-22.269531l-20.125-17.574219c-15.789063-13.78125-36.011719-21.886719-56.949219-22.824219-19.34375-.867188-38.675781 4.445312-54.882813 14.996094-18.96875-6.199219-39.839843-9.320313-62.480468-9.320313-22.628906 0-43.523438 3.167969-62.457032 9.335938-16.214843-10.566407-35.5625-15.886719-54.90625-15.011719-20.9375.9375-41.164062 9.042969-56.949218 22.828125l-20.125 17.570313c-13.492188 11.777343-14.882813 32.335937-3.105469 45.828124 6.414063 7.34375 15.425781 11.105469 24.488281 11.105469 7.351563 0 14.730469-2.484375 20.777344-7.527343-4.5 8.15625-8.492188 16.871093-11.941406 26.128906l-25.691406 4.53125c-16.214844 2.859375-27.082032 18.375-24.222657 34.59375l9.171875 52.003906c-5.054687 5.933594-8.0625 13.648438-7.925781 22.03125.355469 21.773438 9.722656 48.453125 25.050781 71.371094 16.46875 24.617187 37.949219 41.953125 61.28125 49.683594 2.359375 5.699218 5.152344 11.164062 8.339844 16.378906-15.136719 8.6875-25.050781 5.917968-36.894531 1.082031-14.527344-5.929687-31.175781 1.0625-37.109375 15.589844-5.933594 14.527343 1.058594 31.175781 15.589844 37.105469 14.445312 5.898437 27.75 8.765624 40.667968 8.765624 19.203125 0 37.804688-6.554687 56.65625-19.949218 1.519532 15.136718.925782 30.945312-.664062 53.191406-.292969 4.132812 2.816406 7.71875 6.949218 8.015625.179688.015625.359376.019531.539063.019531 3.898437 0 7.191406-3.015625 7.476563-6.964844 1.210937-16.957031 2.121093-32.652343 1.214843-48.164062 11.746094 5.714844 24.457031 9.886719 37.785157 12.257812.023437 15.863282-1.238282 32.675782-2.671876 51.796876l-.027343.332031c-.726563 9.703125-8.90625 17.300781-18.617188 17.300781-.46875 0-.953125-.019531-1.429687-.050781-5.738282-.433594-10.882813-3.421875-14.109375-8.199219-2.316407-3.433594-6.976563-4.335938-10.410157-2.019531-3.433593 2.320312-4.339843 6.980469-2.019531 10.414062 5.808594 8.601563 15.070313 13.980469 25.429688 14.761719.855469.066406 1.707031.09375 2.539062.09375 17.515625 0 32.265625-13.691406 33.578125-31.171875l.023438-.335937c1.40625-18.679688 2.640625-35.203126 2.710937-51.035157 3.640625.269531 7.308594.410157 11.007813.410157 8.226562 0 16.285156-.671876 24.109375-1.960938.015625 13.816406-1.125 29.078125-2.511719 47.539062l-.027344.332032c-1.390625 18.527344 12.550782 34.734375 31.097656 36.128906.855469.066406 1.707032.09375 2.539063.09375 17.515625 0 32.261719-13.691406 33.574219-31.171875l.027344-.335937c2.316406-30.855469 4.164062-55.558594 1.066406-81.808594 11.117187-9.015625 20.59375-19.667969 27.964844-31.542969 6.390624 2.796875 13.179687 4.792969 20.273437 5.9375 4.601563.742187 9.335937 1.121094 14.078125 1.121094 25.929688 0 51.296875-11.105469 67.855469-29.710938 5.984375-6.722656 8.992187-15.375 8.46875-24.363281zm-111.824219-305.046875c17.554688.785156 34.515625 7.582031 47.753906 19.140625l20.125 17.570312c3.515625 3.074219 5.628906 7.328126 5.945313 11.988282.3125 4.65625-1.203125 9.160156-4.273438 12.679687-3.074219 3.515625-7.328125 5.628907-11.988281 5.941407-4.652344.316406-9.160156-1.199219-12.679688-4.273438l-20.125-17.566406c-5.410156-4.726563-11.863281-7.996094-18.785156-9.570313-3.078125-2.957031-6.269531-5.792969-9.589844-8.492187-9.953124-8.09375-20.804687-14.855469-32.503906-20.285156 11.257813-5.183594 23.6875-7.691407 36.121094-7.132813zm9.414062 252.550781c1.875 9.050782-2.175781 18.613282-10.421874 23.453125-19.050782 11.183594-39.511719 19.484375-60.902344 24.734375-4.347656-9.058594-11.769532-16.371094-20.902344-20.589844 42.210938-3.796874 71.675781-14.628906 92.226562-27.597656zm-110.277343 38.628906c15.539062 0 28.179687 12.640626 28.179687 28.179688 0 15.535156-12.640625 28.175781-28.179687 28.175781-15.535157 0-28.175781-12.640625-28.175781-28.175781 0-15.539062 12.640624-28.179688 28.175781-28.179688zm-20.835938-9.625c-9.484375 5.25-16.789062 13.960938-20.207031 24.414063-18.457031-2.023437-36.546875-6.269531-53.902344-12.664063-3.929687-10.042968-12.660156-17.996093-23.972656-20.410156-3.765625-.800781-7.726562-2.664062-11.675781-5.386718l7.253906-1.28125c1.898437-.332032 3.738281-.847657 5.503906-1.519532 26.5 10.730469 59.089844 16.390625 97 16.847656zm-156.570312-218.507812c-7.261719 6.34375-18.328125 5.589844-24.664063-1.667969-6.339844-7.261719-5.589844-18.328125 1.667969-24.667969l20.125-17.570312c13.238281-11.558594 30.199219-18.355469 47.753906-19.140625 12.4375-.558594 24.859375 1.945313 36.113281 7.125-15.75 7.28125-29.863281 16.917969-42.171874 28.800781-6.886719 1.582032-13.308594 4.847656-18.699219 9.554688zm-25.726563 57.203125 29.84375-5.261719c.011719 0 .019532-.003906.03125-.003906l22.546875-3.976562c8.070313-1.425782 15.792969 3.984374 17.214844 12.054687l19.605469 111.179687c.6875 3.90625-.183594 7.851563-2.460938 11.101563-2.277344 3.253906-5.683594 5.425781-9.59375 6.113281l-18.109375 3.191406c-1.535156-1.90625-3.027343-3.921874-4.457031-6.058593-9.984375-14.929688-13.761719-29.449219-13.859375-35.570313-.296875-17.992187-15.171875-32.628906-33.164063-32.628906l-.554687.003906c-3.921875.0625-7.675781.816406-11.152344 2.128906l-7.945312-45.054687c-1.425781-8.074219 3.984375-15.792969 12.054687-17.21875zm11.9375 156.890625c-13.792968-20.617188-22.210937-44.269531-22.523437-63.277344-.164063-10.019531 7.855469-18.304687 17.855469-18.472656h.328124c9.855469 0 18.003907 8.019531 18.164063 17.878906.160156 9.773438 5.289063 27.066406 16.390625 43.660156 2.53125 3.78125 5.230469 7.269532 8.042969 10.453126.1875.242187.386719.472656.601562.691406 9.347657 10.375 19.964844 17.289062 30.289063 19.492187 9.800781 2.089844 16.070312 11.769531 13.980468 21.570313-1.78125 8.335937-9.246093 14.386718-17.753906 14.386718-1.273437 0-2.558594-.136718-3.816406-.40625-23.175781-4.945312-45.035156-21.273437-61.558594-45.976562zm39.40625 121.945312c-10.9375 0-22.386718-2.5-34.996094-7.648437-6.875-2.808594-10.179687-10.679687-7.375-17.550781 2.804688-6.871094 10.679688-10.179688 17.550782-7.375 14.097656 5.757812 29.632812 10.144531 51.1875-2.644532 5.707031 7.179688 12.214844 13.742188 19.40625 19.585938-15.550782 10.621094-30.285156 15.632812-45.773438 15.632812zm209.808594 65.199219-.023438.335938c-.726562 9.699219-8.90625 17.300781-18.621093 17.300781-.464844 0-.949219-.019531-1.425781-.054688-10.28125-.769531-18.019532-9.765624-17.25-20.046874l.027343-.332032c1.515625-20.210937 2.75-36.675781 2.527344-51.945312 13.195313-3.628906 25.546875-9.042969 36.707031-15.941406 1.722656 21.738281.140625 42.96875-1.941406 70.683593zm-73.847656-64.496093c-25.117188 0-48.84375-7.007813-68.503906-19.242188-.132813-.089844-.273438-.175781-.414063-.257812-1.363281-.855469-2.710937-1.734376-4.035156-2.644532-.308594-.246094-.632813-.46875-.972657-.660156-10.730468-7.507812-20.054687-16.664062-27.484374-27.140625-.089844-.144531-.171876-.289063-.273438-.429687-.078125-.113282-.171875-.214844-.257812-.324219-2.367188-3.402344-4.542969-6.941407-6.496094-10.605469 14.882812-.707031 27.726562-11.511719 30.867187-26.21875.171875-.796875.300781-1.589844.410157-2.386719 16.15625 5.386719 32.851562 9.054688 49.847656 10.953125.78125 23.125 19.828125 41.703125 43.140625 41.703125 23.808593 0 43.179687-19.371093 43.179687-43.179687 0-1.402344-.074218-2.789063-.203125-4.160156 21.496094-5.324219 42.105469-13.542969 61.402344-24.496094.003906.359375.019531.71875.019531 1.078125 0 59.558593-53.933594 108.011719-120.226562 108.011719zm208.84375-80.351563c-13.757813 15.453125-34.9375 24.679687-56.652344 24.679687-3.941406 0-7.875-.3125-11.6875-.929687-5.433594-.875-10.632812-2.363281-15.542969-4.410156 5.269531-11.558594 8.660157-23.996094 9.816407-37.003907 3.453124 2.285157 7.351562 3.792969 11.695312 4.496094 13.804688 2.21875 27.765625-4.207031 34.429688-11.699218 6.855468-7.699219 18.703124-8.390626 26.402343-1.535157 3.730469 3.320313 5.945313 7.898438 6.238281 12.882813.289063 4.988281-1.378906 9.789062-4.699218 13.519531zm-230.332032-141.964844c-2.722656-3.121093-7.457031-3.449219-10.582031-.726562-3.121093 2.722656-3.449219 7.457031-.726562 10.582031 12.265625 14.074219 29.992187 22.148438 48.625 22.148438 18.636719 0 36.359375-8.074219 48.628906-22.148438 2.71875-3.125 2.394531-7.859375-.730469-10.582031-3.121094-2.722657-7.859375-2.398438-10.582031.726562-7.75 8.894531-18.339844 14.65625-29.816406 16.421875v-30.445312c1.566406-.40625 3.105469-.9375 4.601562-1.601563l19.351563-8.605469c5.363281-2.386718 9.359375-6.988281 10.96875-12.632812 1.605468-5.640625.636718-11.660156-2.664063-16.511719-4.199219-6.179687-10.488281-10.621093-17.714843-12.511719-14.417969-3.773437-29.664063-3.773437-44.082032 0-7.226562 1.890626-13.515625 6.332032-17.714844 12.511719-3.300781 4.851563-4.269531 10.871094-2.664062 16.511719 1.609375 5.644531 5.605469 10.246094 10.96875 12.632812l19.351562 8.605469c1.496094.664063 3.035157 1.195313 4.601563 1.601563v30.445312c-11.480469-1.765625-22.066406-7.527344-29.820313-16.421875zm11.960938-37.9375c-1.765625-.785156-2.410156-2.238281-2.636719-3.035156-.226562-.796875-.445312-2.375.640625-3.96875 2.160156-3.179687 5.394532-5.460937 9.109375-6.433594 5.96875-1.5625 12.105469-2.34375 18.246094-2.34375 6.136719 0 12.273437.78125 18.242187 2.34375 3.714844.972657 6.949219 3.253907 9.109376 6.433594 1.085937 1.59375.867187 3.171875.640624 3.96875-.226562.796875-.875 2.25-2.636718 3.035156l-19.351563 8.605469c-3.816406 1.695312-8.195312 1.695312-12.011719 0zm0 0"/></svg>