<svg viewBox="-30 0 512 512.00164" xmlns="http://www.w3.org/2000/svg"><path d="m381.011719 398.316406c-19.148438 0-40.019531-7.386718-64.710938-22.222656-9.167969-5.507812-12.136719-17.402344-6.628906-26.570312 5.511719-9.167969 17.40625-12.136719 26.574219-6.628907 41.238281 24.773438 56.382812 17.535157 71.898437 5.492188 8.453125-6.558594 20.613281-5.023438 27.175781 3.421875 6.558594 8.449218 5.023438 20.617187-3.425781 27.175781-16.585937 12.875-32.984375 19.332031-50.882812 19.332031zm0 0" fill="#495059"/><g fill="#ddaf89"><path d="m216.3125 504.5c-6.003906 0-12.015625-2.21875-16.703125-6.691406-26.65625-25.425782-32.34375-65.441406-14.15625-99.578125 6.289063-11.796875 20.953125-16.265625 32.75-9.980469 11.796875 6.289062 16.265625 20.949219 9.980469 32.75-6.058594 11.363281-8.421875 29.125 4.84375 41.777344 9.671875 9.226562 10.035156 24.550781.808594 34.222656-4.757813 4.988281-11.136719 7.5-17.523438 7.5zm0 0"/><path d="m334.039062 480.136719c-3.757812 0-7.570312-.875-11.136718-2.726563-11.863282-6.164062-16.488282-20.777344-10.324219-32.640625 7.800781-15.027343.828125-35.503906-15.238281-44.714843-11.59375-6.652344-15.605469-21.445313-8.953125-33.042969 6.648437-11.59375 21.441406-15.609375 33.039062-8.957031 38.554688 22.109374 53.859375 71.019531 34.117188 109.027343-4.308594 8.300781-12.757813 13.054688-21.503907 13.054688zm0 0"/><path d="m103.949219 376.230469c-26.878907 0-52.070313-10.433594-67.328125-26.292969-9.269532-9.636719-8.972656-24.960938.664062-34.230469 9.632813-9.265625 24.957032-8.972656 34.226563.664063 9.195312 9.558594 37.476562 18.699218 61.109375 2.894531 11.113281-7.433594 26.148437-4.449219 33.578125 6.664063 7.433593 11.113281 4.449219 26.144531-6.664063 33.578124-17.5 11.703126-36.949218 16.722657-55.585937 16.722657zm0 0"/><path d="m330.023438 335.070312c-7.78125-1.574218-14.628907-6.9375-17.75-14.871093-4.898438-12.441407 1.21875-26.496094 13.664062-31.390625 37.808594-14.878906 66.988281-32.152344 76.152344-45.085938 7.726562-10.90625 22.839844-13.488281 33.746094-5.753906 10.910156 7.730469 13.484374 22.839844 5.757812 33.746094-19.179688 27.0625-63.839844 48.730468-97.929688 62.144531-4.507812 1.773437-9.226562 2.101563-13.640624 1.210937zm0 0"/></g><path d="m372.589844 298.308594c-1.664063-9.429688-4.523438-18.421875-8.417969-26.863282-11.140625 5.886719-24.082031 11.792969-38.238281 17.363282-12.441406 4.894531-18.558594 18.949218-13.660156 31.390625 3.121093 7.933593 9.96875 13.296875 17.75 14.871093 4.414062.890626 9.132812.5625 13.636718-1.210937 9.609375-3.78125 20.058594-8.214844 30.539063-13.246094.222656-7.359375-.289063-14.820312-1.609375-22.304687zm0 0" fill="#d1a582"/><path d="m321.425781 358.054688c-11.597656-6.652344-26.390625-2.636719-33.039062 8.957031-6.652344 11.597656-2.640625 26.390625 8.953125 33.042969 8.503906 4.875 14.457031 12.90625 17.023437 21.613281 13.902344-8.449219 26.160157-19.261719 36.132813-32.085938.457031-.585937.898437-1.175781 1.34375-1.769531-7.25-11.972656-17.523438-22.367188-30.414063-29.757812zm0 0" fill="#d1a582"/><path d="m223.359375 441.414062c-.3125-7.445312 1.792969-14.730468 4.824219-20.414062 6.285156-11.796875 1.816406-26.460938-9.980469-32.75-11.800781-6.285156-26.460937-1.816406-32.75 9.980469-4.921875 9.234375-8.078125 18.902343-9.5625 28.59375 14.332031 7.550781 30.394531 12.601562 47.46875 14.589843zm0 0" fill="#d1a582"/><path d="m166.199219 325.929688c-7.429688-11.113282-22.464844-14.097657-33.578125-6.664063-6.675782 4.464844-13.726563 6.9375-20.609375 7.972656.128906 5.542969.667969 11.125 1.65625 16.726563 1.890625 10.722656 5.300781 20.890625 10.015625 30.339844 12.265625-2.417969 24.472656-7.183594 35.851562-14.796876 11.113282-7.429687 14.097656-22.464843 6.664063-33.578124zm0 0" fill="#d1a582"/><path d="m360.144531 300.515625c-10.234375-58.046875-70.558593-95.929687-134.742187-84.613281-64.1875 11.3125-107.921875 67.539062-97.691406 125.585937 10.230468 58.042969 70.558593 95.925781 134.742187 84.613281 64.1875-11.316406 107.921875-67.542968 97.691406-125.585937zm0 0" fill="#ddaf89"/><path d="m337.007812 235.003906c-24.3125 28.65625-58.386718 49.316406-98.289062 56.351563-39.902344 7.039062-78.988281-.726563-111.636719-19.335938-4.675781 8.910157-8.21875 18.339844-10.445312 28.105469-3.03125 13.300781 4.3125 26.808594 17.097656 31.566406 35.203125 13.101563 74.25 17.292969 113.914063 10.300782 39.664062-6.996094 74.917968-24.289063 103.519531-48.640626 10.386719-8.84375 12.667969-24.046874 5.269531-35.511718-5.433594-8.414063-11.988281-16.0625-19.429688-22.835938zm0 0" fill="#7f9ae6"/><path d="m184.253906 291.980469c-20.328125-3.132813-39.675781-9.988281-57.171875-19.960938-4.675781 8.910157-8.21875 18.339844-10.445312 28.105469-3.03125 13.300781 4.3125 26.808594 17.097656 31.566406 18.304687 6.8125 37.652344 11.191406 57.582031 12.867188-9.457031-12.789063-11.191406-34.1875-7.0625-52.578125zm0 0" fill="#5e78bf"/><path d="m160.742188 118.808594c-5 .878906-10.308594.246094-15.21875-2.148438l-34.039063-16.597656c-14.90625-7.265625-32.585937-3.328125-42.996094 9.582031l-16.714843 20.734375c-8.628907 10.707032-24.308594 12.386719-35.015626 3.757813-10.707031-8.632813-12.386718-24.308594-3.757812-35.015625l16.714844-20.734375c12.054687-14.949219 29.015625-25.484375 47.761718-29.664063 18.746094-4.175781 38.574219-1.84375 55.835938 6.574219l34.039062 16.597656c12.359376 6.027344 17.496094 20.9375 11.46875 33.296875-3.632812 7.453125-10.496093 12.277344-18.078124 13.617188zm0 0" fill="#495059"/><path d="m252.976562 102.542969c-7.582031 1.339843-15.679687-.847657-21.644531-6.609375-9.890625-9.554688-10.164062-25.320313-.609375-35.210938l26.308594-27.238281c13.34375-13.8125 31.183594-22.785156 50.21875-25.273437 19.042969-2.484376 38.585938 1.613281 55.023438 11.539062l22.800781 13.765625c11.769531 7.109375 15.550781 22.414063 8.445312 34.1875-7.109375 11.773437-22.417969 15.554687-34.191406 8.445313l-22.796875-13.765626c-14.199219-8.570312-32.160156-6.226562-43.679688 5.699219l-26.308593 27.242188c-3.792969 3.925781-8.566407 6.339843-13.566407 7.21875zm0 0" fill="#495059"/><path d="m241.109375 304.90625c124.492187-21.949219 170.542969-88.871094 138.871094-166.085938-34.03125-82.976562-101.628907-119.761718-186.632813-104.777343-85 14.988281-135.941406 72.675781-139.542968 162.289062-3.351563 83.390625 62.808593 130.527344 187.304687 108.574219zm0 0" fill="#ddaf89"/><path d="m281.332031 346.085938c0 18.207031-14.757812 32.964843-32.964843 32.964843-18.203126 0-32.960938-14.757812-32.960938-32.964843 0-18.207032 14.757812-32.964844 32.960938-32.964844 18.207031 0 32.964843 14.757812 32.964843 32.964844zm0 0" fill="#f6e06a"/><path d="m155.183594 164.992188c-2.550782-14.464844-19.34375-23.597657-37.507813-20.394532-18.167969 3.203125-30.824219 17.523438-28.273437 31.992188 2.546875 14.464844 19.339844 23.59375 37.507812 20.390625 18.164063-3.199219 30.820313-17.523438 28.273438-31.988281zm0 0" fill="#ffdbdb"/><path d="m273.996094 144.023438c2.550781 14.46875 19.34375 23.597656 37.507812 20.394531 18.167969-3.199219 30.824219-17.523438 28.273438-31.988281-2.550782-14.464844-19.339844-23.597657-37.507813-20.394532-18.164062 3.199219-30.820312 17.523438-28.273437 31.988282zm0 0" fill="#ffdbdb"/><path d="m228.023438 129.824219c-11.832032-.96875-23.710938 1.125-34.5 6.082031-4.464844 2.050781-8.039063 5.652344-10.054688 10.136719-2.722656 6.054687.695312 13.097656 7.140625 14.699219l17.871094 4.449218c5.320312 1.324219 10.957031.328125 15.503906-2.734375l15.273437-10.292969c5.503907-3.710937 6.308594-11.496093 1.679688-16.253906-3.429688-3.527344-8.015625-5.6875-12.914062-6.085937zm0 0" fill="#495059"/><path d="m233.679688 263.425781c55.550781-9.796875 86.242187-53.878906 66.503906-78.691406-19.34375-24.324219-48.355469-4.398437-80.164063 1.210937-31.8125 5.609376-65.886719-3.191406-75.746093 26.28125-10.0625 30.066407 33.855468 60.992188 89.40625 51.199219zm0 0" fill="#fff"/><path d="m174.039062 190.117188 3.402344 69.007812c4.589844 1.730469 9.539063 3.144531 14.785156 4.175781l-3.679687-74.605469c-5.054687.308594-9.933594.703126-14.507813 1.421876zm90.832032-16.019532c-4.546875.875-9.265625 2.167969-14.125 3.605469l22.042968 71.304687c4.574219-2.777343 8.734376-5.808593 12.449219-9.019531zm-44.851563 11.847656c-2.359375.414063-4.726562.75-7.097656 1.027344l13.660156 77.488282c2.34375-.273438 4.707031-.617188 7.097657-1.039063 2.464843-.433594 4.878906-.9375 7.242187-1.503906l-13.664063-77.484375c-2.394531.570312-4.808593 1.082031-7.238281 1.511718zm0 0" fill="#dfe3e5"/><path d="m281.667969 107.363281c5.960937-1.046875 11.652343 2.941407 12.703125 8.894531.71875 4.078126 4.609375 6.800782 8.6875 6.082032s6.800781-4.609375 6.082031-8.6875c-2.484375-14.097656-15.976563-23.546875-30.074219-21.058594-14.101562 2.484375-23.546875 15.976562-21.0625 30.074219.644532 3.640625 3.808594 6.199219 7.378906 6.199219.433594 0 .871094-.039063 1.3125-.113282 4.078126-.71875 6.800782-4.609375 6.082032-8.6875-1.046875-5.953125 2.941406-11.652344 8.890625-12.703125zm144.777343 300.632813c-4.089843.648437-6.882812 4.488281-6.234374 8.582031.703124 4.4375-.273438 11.5625-2.277344 16.570313-1.539063 3.847656.332031 8.210937 4.179687 9.75.914063.363281 1.855469.539062 2.78125.539062 2.976563 0 5.792969-1.785156 6.96875-4.71875 2.511719-6.28125 4.464844-16.292969 3.164063-24.492188-.648438-4.089843-4.484375-6.878906-8.582032-6.230468zm-213.125-135.285156c7.125 0 14.402344-.621094 21.664063-1.898438 35.625-6.285156 66.039063-27.601562 75.683594-53.046875 5.277343-13.9375 3.640625-27.324219-4.613281-37.699219-17.324219-21.78125-40.714844-14.664062-63.328126-7.777344-5.441406 1.65625-11.015624 3.34375-16.628906 4.703126l-1.105468-6.488282c1.09375-.535156 2.160156-1.140625 3.183593-1.828125l15.273438-10.292969c4.472656-3.011718 7.355469-7.816406 7.910156-13.179687.554687-5.367187-1.285156-10.660156-5.046875-14.523437-4.691406-4.824219-10.972656-7.785157-17.679688-8.332032-13.082031-1.066406-26.308593 1.265625-38.238281 6.742188-6.117187 2.808594-11.007812 7.738281-13.765625 13.875-2.214844 4.917968-2.128906 10.523437.226563 15.375 2.355469 4.851562 6.707031 8.378906 11.941406 9.683594l17.871094 4.445312c1.171875.292969 2.359375.496094 3.546875.625l1.113281 6.507812c-5.769531.648438-11.613281.972657-17.320313 1.277344-23.605468 1.265625-48.019531 2.574219-56.847656 28.96875-4.207031 12.574219-1.167968 25.714844 8.558594 37.003906 14.144531 16.410157 39.761719 25.859376 67.601562 25.859376zm-3.03125-114.800782-17.871093-4.445312c-1.242188-.308594-1.832031-1.1875-2.070313-1.679688-.242187-.496094-.566406-1.5-.039062-2.667968 1.269531-2.828126 3.523437-5.101563 6.34375-6.398438 8.082031-3.707031 16.894531-5.625 25.761718-5.625 1.664063 0 3.332032.066406 4.996094.203125 3.09375.253906 5.988282 1.617187 8.152344 3.839844.894531.917969.929688 1.972656.875 2.519531-.058594.546875-.308594 1.574219-1.371094 2.289062l-15.273437 10.289063c-2.785157 1.875-6.246094 2.484375-9.503907 1.675781zm-58.90625 56.695313c5.335938-15.941407 19.265626-17.453125 43.429688-18.75 8.597656-.460938 17.488281-.9375 26.464844-2.515625h.003906s0-.003906.003906-.003906c.011719 0 .023438-.003907.035156-.003907 8.992188-1.585937 17.523438-4.183593 25.773438-6.695312 11.742188-3.574219 21.023438-6.195313 28.691406-6.195313 7.449219 0 13.371094 2.476563 18.53125 8.960938 6.1875 7.78125 4.679688 16.828125 2.320313 23.046875-6.515625 17.207031-28.914063 37.355469-64.261719 43.589843-35.34375 6.230469-63.28125-5.042968-75.292969-18.980468-4.339843-5.039063-8.851562-13.023438-5.699219-22.453125zm296.328126 61.445312c10.109374-14.265625 6.726562-34.09375-7.539063-44.203125-6.90625-4.898437-15.3125-6.8125-23.664063-5.386718-8.347656 1.425781-15.640624 6.015624-20.539062 12.925781-4.34375 6.132812-14.878906 14.039062-29.480469 22.242187-.382812-1.164062-.828125-2.3125-1.34375-3.445312 10.191407-10.058594 17.054688-20.191406 21.660157-29.414063 1.851562-3.707031.34375-8.210937-3.359376-10.0625-3.703124-1.851562-8.210937-.34375-10.0625 3.359375-8.875 17.78125-24.304687 33.191406-45.851562 45.800782-23.023438 13.472656-52.535156 23.449218-87.722656 29.652343-48.582032 8.566407-89.050782 6.691407-119.277344-5.273437-.484375-.261719-1.003906-.472656-1.554688-.628906-10.644531-4.382813-19.988281-10.039063-27.921874-16.972657-20.785157-18.164062-31.074219-45.140625-29.753907-78.011719 1.488281-37.09375 11.207031-68.519531 28.917969-93.640624.113281-.148438.214844-.300782.316406-.453126 2.5625-3.609374 5.292969-7.082031 8.1875-10.425781 10.4375-12.050781 22.824219-22.144531 37.070313-30.25.445312-.199219.871093-.441406 1.273437-.726562 16.714844-9.300781 35.957032-15.894531 57.585938-19.707031s41.964844-4.199219 60.855468-1.175782c.476563.128906.957032.210938 1.445313.246094 16.15625 2.746094 31.25 7.992188 45.179687 15.746094 3.867188 2.15625 7.628907 4.492187 11.277344 7.007812.136719.105469.273438.203125.417969.296875 25.238281 17.550781 45.125 43.761719 59.214844 78.113281 7.492187 18.261719 10.386719 35.839844 8.605469 52.25-.449219 4.117188 2.527343 7.820313 6.644531 8.265626 4.121093.449218 7.816406-2.527344 8.265625-6.644532 2.054687-18.921875-1.1875-38.960937-9.636719-59.5625-8.308594-20.261718-18.546875-37.9375-30.625-52.9375 4.90625 2.773438 10.332031 4.210938 15.851563 4.210938 2.605468 0 5.230468-.320313 7.828124-.960938 8.402344-2.074218 15.492188-7.296875 19.964844-14.707031 4.476563-7.410156 5.796875-16.117187 3.71875-24.519531-2.074218-8.402344-7.296875-15.492188-14.707031-19.964844l-22.796875-13.765625c-17.890625-10.800781-39.15625-15.261719-59.875-12.554687-19.136719 2.5-37.199219 11.058593-51.285156 24.21875-19.695313-2.800782-40.722656-2.253907-62.949219 1.664062-22.226563 3.921875-42.171875 10.597656-59.71875 19.964844-17.742187-7.550782-37.644531-9.414063-56.480469-5.21875-20.398437 4.546875-38.851562 16.007812-51.96875 32.277344l-16.714844 20.734374c-11.214843 13.90625-9.019531 34.347657 4.886719 45.5625 5.980469 4.816407 13.164063 7.160157 20.308594 7.160157 9.167969 0 18.253906-3.871094 24.625-11.3125-6.21875 18.226562-9.792969 38.328125-10.671875 60.207031-1.511719 37.566406 10.546875 68.65625 34.871094 89.910156 7.972656 6.96875 17.132812 12.796875 27.390625 17.492188-.441407 5.675781.539062 11.265625 2.710937 16.332031-15.660156 2.535156-29.777344-3.820313-34.367187-8.59375-5.871094-6.101563-13.765625-9.554687-22.234375-9.71875-8.46875-.160156-16.492188 2.980469-22.597656 8.851563-6.101563 5.871093-9.554688 13.769531-9.71875 22.234374-.164063 8.46875 2.976562 16.492188 8.847656 22.597657 17.226562 17.902343 44.414062 28.59375 72.734375 28.59375 10.324219 0 20.464843-1.453125 30.238281-4.289063 8.792969 14.398438 21.101562 26.839844 36.34375 36.480469-5.695312 21.558594-3.605469 43.792969 6.089844 63.226563 1.316406 2.628906 3.964844 4.152343 6.71875 4.152343 1.125 0 2.269531-.253906 3.34375-.789062 3.707031-1.851563 5.210937-6.355469 3.359375-10.0625-7.511719-15.054688-9.507813-32.199219-5.882813-49.066407 10.179688 4.78125 20.984375 8.195313 32.148438 10.175782-1.886719 13.179687 2.167968 25.703125 11.542968 34.644531 3.226563 3.082031 5.0625 7.234375 5.167969 11.695313.105469 4.464843-1.53125 8.695312-4.609375 11.925781-3.183594 3.339843-7.480468 5.175781-12.09375 5.175781-3.164062 0-6.242187-.886719-8.894531-2.558594-3.503906-2.210937-8.136719-1.164062-10.347656 2.335938-2.210938 3.503906-1.164063 8.132812 2.339843 10.347656 5.054688 3.191406 10.898438 4.875 16.902344 4.875 8.753906 0 16.902344-3.488281 22.945313-9.820312 5.847656-6.128907 8.957031-14.167969 8.757812-22.632813-.203125-8.46875-3.6875-16.351563-9.816406-22.195313-7.386719-7.050781-8.046875-15.550781-7.015625-22.019531 2.804688.175781 5.628906.273438 8.460938.273438 7.988281 0 16.066406-.703125 24.132812-2.125 14.8125-2.613281 28.8125-7.519531 41.519531-14.417969 3.65625 7.359375 4.011719 15.726562.621094 22.25-3.902344 7.519531-4.644531 16.105469-2.089844 24.179688 2.554688 8.074218 8.101563 14.671874 15.617188 18.574218 4.5 2.339844 9.546875 3.574219 14.59375 3.574219 11.894531 0 22.683593-6.550781 28.160156-17.097656 10.527344-20.269531 12.066406-43.992188 5.378906-65.789063 4.5625.710938 9.019531 1.066406 13.433594 1.066406 1.730469 0 3.453125-.078124 5.167969-.1875-.472656 4.058594-1.273438 8.324219-2.667969 12.003907-1.46875 3.875.480469 8.203125 4.355469 9.671875.875.332031 1.773437.488281 2.65625.488281 3.027344 0 5.878906-1.84375 7.015625-4.84375 2.449219-6.460937 3.476562-13.734375 3.949219-19.851563 11.855468-3.191406 23.433593-9.214843 35.003906-18.191406 11.703125-9.082031 13.835937-25.996094 4.75-37.699218-6.601563-8.503907-17.339844-11.945313-27.210938-9.707032-.984375-3.480468-2.074218-6.808594-3.160156-9.636718-1.480469-3.867188-5.816406-5.804688-9.683594-4.324219-3.867187 1.484375-5.804687 5.820312-4.320312 9.6875 1.332031 3.476562 2.582031 7.5625 3.59375 11.550781-9.167969 6.605469-18.316406 10.171875-35.976563 3.785156 1.699219-5.546875 2.9375-11.191406 3.710938-16.894531 39.066406-17.582031 65.808593-36.28125 79.511719-55.621094zm-139.488282-260.40625c17.367188-2.265625 35.183594 1.472657 50.175782 10.523438l22.796874 13.765625c3.980469 2.402344 6.785157 6.210937 7.898438 10.726562 1.117188 4.511719.40625 9.1875-1.996094 13.167969-2.402344 3.976563-6.210937 6.785156-10.722656 7.898437-4.507812 1.113282-9.1875.40625-13.167969-2l-22.800781-13.765624c-6.128906-3.703126-13.027344-5.796876-20.097656-6.144532-3.535156-2.371094-7.160156-4.601562-10.882813-6.675781-11.160156-6.214844-22.96875-10.96875-35.375-14.277344 10.136719-7.011719 21.886719-11.609375 34.171875-13.21875zm-262.285156 110.027344c-6.023438 7.46875-17.003906 8.648437-24.472656 2.625s-8.644532-17-2.625-24.46875l16.71875-20.734375c10.988281-13.632812 26.457031-23.238281 43.550781-27.050781 12.09375-2.691407 24.707031-2.390625 36.632813.738281-10.527344 7.347656-19.996094 15.855469-28.359376 25.511719-2.792968 3.222656-5.433593 6.5625-7.945312 9.996093-6.519531 2.746094-12.289062 7.074219-16.785156 12.648438zm306.964844 143.214844c1.28125 6.792969-1.058594 14.039062-6.597656 18.753906-18.933594 16.121094-40.277344 28.585937-63.523438 37.128906-2.855469-4.605469-6.632812-8.632812-11.203125-11.832031-2.816406-1.972656-5.824219-3.554688-8.960937-4.738281 41.800781-9.628907 70.539062-23.957031 90.285156-39.3125zm-108.953125 52.121093c1.492187-.265624 2.988281-.394531 4.472656-.394531 5.179687 0 10.226563 1.582031 14.554687 4.613281 5.570313 3.902344 9.289063 9.738282 10.472657 16.4375 2.4375 13.828126-6.828125 27.0625-20.65625 29.5s-27.0625-6.828124-29.5-20.65625c-2.4375-13.828124 6.828125-27.0625 20.65625-29.5zm-140 47.722657c-23.960938 0-47.6875-9.195313-61.921875-23.992188-3.09375-3.21875-4.75-7.445312-4.664063-11.90625.085938-4.464843 1.902344-8.625 5.121094-11.71875 3.214844-3.09375 7.460937-4.726562 11.90625-4.664062 4.460937.085937 8.621094 1.90625 11.714844 5.125 5.332031 5.539062 14.519531 10.140625 24.578125 12.3125 7.007812 1.511719 17.195312 2.453125 28.453125-.480469.269531 3.148438.65625 6.289062 1.203125 9.378906 1.410156 8 3.71875 15.707032 6.839844 23.039063-7.539063 1.925781-15.320313 2.90625-23.230469 2.90625zm19.785156-59.445313c17.605469 5.652344 37.808594 8.507813 60.328125 8.503906 12.03125 0 24.738281-.832031 38.046875-2.464843-6.757813 5.789062-11.496094 13.707031-13.339844 22.5-24.773437-.082031-49.109375-4.488281-72.417969-13.160157-6.820312-2.539062-11.496093-8.550781-12.617187-15.378906zm180.625 92.96875c-.363281.183594-.710937.402344-1.046875.648438-12.621094 7.710937-26.890625 13.117187-42.136719 15.804687-11.5625 2.039063-23.128906 2.414063-34.363281 1.203125-.390625-.070312-.777344-.121094-1.160156-.128906-15.058594-1.773438-29.5-6.421875-42.515625-13.789062-.019531-.011719-.042969-.023438-.0625-.035157-1.421875-.804687-2.828125-1.640625-4.214844-2.511719-14.886719-9.347656-26.558594-21.726562-34.300781-36.09375-.132813-.292968-.28125-.574218-.445313-.839843-4.3125-8.207031-7.359375-17.042969-9-26.332031 0-.011719 0-.019532-.003906-.027344 23.683594 8.316406 48.3125 12.570312 73.371094 12.671875.015625.097656.023437.191406.042969.285156 3.457031 19.605469 20.570312 33.441406 39.828124 33.441406 2.324219 0 4.679688-.203125 7.046876-.617187 21.972656-3.875 36.695312-24.90625 32.820312-46.878906-.015625-.09375-.039062-.1875-.054688-.285157 23.507813-8.667969 45.199219-21.085937 64.609376-37 0 .007813.003906.019531.003906.027344 1.394531 7.917969 1.71875 15.875 1.011718 23.742187-.035156.246094-.054687.492188-.066406.742188-.777344 7.941406-2.609375 15.78125-5.457031 23.378906-.019531.042969-.046875.082032-.0625.128906-.125.273438-.222656.554688-.308594.835938-3.46875 8.953125-8.347656 17.5625-14.585937 25.582031-8.023438 10.316407-17.828125 19.085938-28.949219 26.046875zm44.527344 61.375c-2.886719 5.558594-8.574219 9.007813-14.847657 9.007813-2.6875 0-5.269531-.632813-7.679687-1.882813-3.960937-2.058594-6.882813-5.535156-8.230469-9.789062-1.34375-4.253906-.953125-8.777344 1.105469-12.738282 5.878906-11.328124 5.289063-25.191406-1.144531-37.09375 9.328125-6.554687 17.734375-14.300781 24.972656-23.109374 2.011719 2.9375 3.8125 5.984374 5.386719 9.117187.101562.25.222656.492187.351562.730469 10.226563 20.914062 10.625 45.460937.085938 65.757812zm54.140625-102.671875c.730468 3.332031 3.671875 5.84375 7.222656 5.886719.035156.003906.066406.003906.097656.003906 4.097656 0 7.445313-3.296875 7.496094-7.40625.027344-2.082031-.191406-4.578125-.585938-7.285156 4.390626-1.042969 9.195313.460938 12.136719 4.253906 4.011719 5.167969 3.070313 12.636719-2.097656 16.648438-11.605469 9.007812-22.710937 14.429687-34.203125 16.625-.015625.003906-.027344.007812-.042969.007812-3.957031.753906-7.957031 1.128906-12.039062 1.128906-6.53125 0-13.253907-.945312-20.457031-2.878906-2.382813-4.417968-5.148438-8.671875-8.277344-12.722656 2.574218-4.121094 4.859375-8.351562 6.855468-12.664062 20.238282 7.3125 33.371094 4.390624 43.894532-1.597657zm-38.210938-73.328125c1.460938-3.058594 2.464844-6.304687 2.992188-9.625 14.78125-7.828125 32.523437-18.832031 40.398437-29.945312 2.582031-3.640625 6.425781-6.058594 10.824219-6.8125 4.402344-.75 8.828125.257812 12.46875 2.839844 7.515625 5.328124 9.300781 15.777343 3.972656 23.292968-11.171875 15.765625-34.003906 32.027344-66.359375 47.347656-.140625-5.171874-.652343-10.355468-1.566406-15.53125-.683594-3.878906-1.605469-7.757812-2.730469-11.566406zm-229.386718-154.476562c5.949218-1.050782 11.648437 2.9375 12.699218 8.890625.71875 4.078125 4.605469 6.808593 8.6875 6.085937 4.078125-.71875 6.800782-4.609375 6.082032-8.691406-2.484376-14.097656-15.976563-23.546875-30.074219-21.058594-14.097657 2.484375-23.546875 15.976563-21.0625 30.078125.644531 3.636719 3.808593 6.199219 7.378906 6.199219.433594 0 .871094-.039062 1.3125-.117188 4.078125-.71875 6.800781-4.609374 6.082031-8.6875-1.046875-5.953124 2.941406-11.652343 8.894532-12.699218zm0 0"/></svg>