<svg viewBox="0 -44 511.98692 511" xmlns="http://www.w3.org/2000/svg"><path d="m444.527344 350.984375c-21.65625 0-41.757813-11.351563-64.433594-35.332031-6.261719-6.621094-5.972656-17.070313.652344-23.332032 6.625-6.261718 17.070312-5.96875 23.332031.652344 28.171875 29.789063 42.265625 27.316406 57.761719 20.988282 8.441406-3.445313 18.074218.601562 21.523437 9.039062 3.445313 8.441406-.601562 18.074219-9.042969 21.523438-10.464843 4.273437-20.277343 6.460937-29.792968 6.460937zm0 0" fill="#495059"/><g fill="#ddaf89"><path d="m290.46875 416.21875c-9.167969 0-17.539062-6.15625-19.953125-15.441406-8.019531-30.808594-4.605469-53.253906 2.984375-77.476563 3.40625-10.875 14.984375-16.929687 25.859375-13.519531 10.871094 3.40625 16.925781 14.984375 13.515625 25.859375-5.769531 18.410156-8.015625 33.269531-2.429688 54.746094 2.871094 11.023437-3.742187 22.292969-14.769531 25.160156-1.738281.453125-3.488281.671875-5.207031.671875zm0 0"/><path d="m382.828125 416.210938c-5.285156 0-10.570313-2.019532-14.601563-6.058594-21.414062-21.457032-23.046874-62.265625-18.914062-84.457032 2.082031-11.203124 12.847656-18.597656 24.054688-16.511718 11.203124 2.085937 18.59375 12.855468 16.511718 24.058594-3.242187 17.414062.429688 40.625 7.554688 47.761718 8.050781 8.066406 8.035156 21.128906-.027344 29.179688-4.027344 4.019531-9.304688 6.027344-14.578125 6.027344zm0 0"/><path d="m261.71875 281.855469c-31.210938 8.59375-65.378906.359375-91.394531-22.03125-8.636719-7.433594-9.613281-20.460938-2.179688-29.097657 7.433594-8.636718 20.460938-9.609374 29.097657-2.179687 5.835937 5.023437 26.945312 20.84375 53.523437 13.523437 10.984375-3.023437 22.34375 3.429688 25.367187 14.414063 3.027344 10.988281-3.425781 22.34375-14.414062 25.371094zm0 0"/></g><path d="m250.765625 242.070312c-9.039063 2.488282-17.441406 2.296876-24.828125.769532-1.09375 5.765625-1.667969 11.691406-1.667969 17.738281 0 8.304687 1.082031 16.382813 3.109375 24.125 11.484375 1.144531 23.105469.242187 34.339844-2.851563 10.988281-3.023437 17.441406-14.382812 14.414062-25.367187-3.023437-10.984375-14.382812-17.4375-25.367187-14.414063zm0 0" fill="#d1a582"/><path d="m373.367188 309.1875c-11.207032-2.089844-21.972657 5.304688-24.054688 16.507812-1.886719 10.132813-2.5625 24.144532-.714844 38.421876 14.386719-1.285157 27.996094-5.035157 40.316406-10.78125-.46875-6.769532-.203124-13.804688.964844-20.089844 2.085938-11.203125-5.308594-21.976563-16.511718-24.058594zm0 0" fill="#d1a582"/><path d="m299.359375 309.78125c-10.875-3.410156-22.449219 2.644531-25.855469 13.519531-2.089844 6.664063-3.859375 13.195313-5.164062 19.800781 11.515625 8.101563 24.765625 14.230469 39.144531 17.835938.660156-8.367188 2.609375-16.421875 5.394531-25.296875 3.40625-10.875-2.648437-22.453125-13.519531-25.859375zm0 0" fill="#d1a582"/><path d="m438.046875 260.578125c0-50.234375-45.03125-90.957031-100.578125-90.957031-55.550781 0-100.582031 40.722656-100.582031 90.957031s45.03125 90.957031 100.582031 90.957031c55.546875 0 100.578125-40.722656 100.578125-90.957031zm0 0" fill="#ddaf89"/><path d="m428.308594 202.179688c-24.652344 20.453124-56.308594 32.75-90.839844 32.75-34.535156 0-66.191406-12.296876-90.839844-32.75-5.242187 6.785156-9.613281 14.175781-12.925781 22.042968-4.515625 10.714844-.351563 23.140625 9.679687 29.027344 27.605469 16.203125 59.757813 25.503906 94.085938 25.503906 34.324219 0 66.476562-9.300781 94.085938-25.503906 10.027343-5.886719 14.1875-18.308594 9.675781-29.027344-3.3125-7.867187-7.679688-15.257812-12.921875-22.042968zm0 0" fill="#7f9ae6"/><path d="m291.660156 227.394531c-16.597656-5.640625-31.820312-14.253906-45.03125-25.214843-5.242187 6.785156-9.613281 14.175781-12.925781 22.042968-4.511719 10.714844-.351563 23.140625 9.679687 29.027344 14.355469 8.425781 29.945313 14.964844 46.425782 19.320312-6.046875-12.136718-4.335938-30.351562 1.851562-45.175781zm0 0" fill="#5e78bf"/><path d="m297.847656 78.6875c-4.292968 0-8.625-1.308594-12.363281-4.023438l-25.921875-18.832031c-11.351562-8.246093-26.664062-7.558593-37.230469 1.667969l-16.972656 14.820312c-8.765625 7.652344-22.074219 6.75-29.726563-2.015624-7.652343-8.765626-6.75-22.074219 2.011719-29.726563l16.972657-14.820313c12.242187-10.683593 27.921874-16.96875 44.152343-17.695312 16.234375-.726562 32.410157 4.128906 45.554688 13.679688l25.921875 18.828124c9.414062 6.839844 11.503906 20.015626 4.664062 29.425782-4.121094 5.679687-10.546875 8.691406-17.0625 8.691406zm0 0" fill="#495059"/><path d="m377.085938 78.6875c-6.515626 0-12.941407-3.011719-17.0625-8.6875-6.839844-9.414062-4.75-22.589844 4.664062-29.429688l25.921875-18.828124c13.144531-9.546876 29.328125-14.402344 45.554687-13.679688 16.230469.726562 31.910157 7.011719 44.148438 17.699219l16.972656 14.816406c8.765625 7.652344 9.667969 20.960937 2.015625 29.726563-7.652343 8.765624-20.960937 9.667968-29.726562 2.015624l-16.972657-14.820312c-10.566406-9.226562-25.878906-9.914062-37.230468-1.667969l-25.921875 18.832031c-3.738281 2.714844-8.070313 4.023438-12.363281 4.023438zm0 0" fill="#495059"/><path d="m337.46875 245.550781c106.949219 0 155.148438-48.996093 140.105469-117.980469-16.164063-74.136718-67.082031-114.714843-140.105469-114.714843-73.027344 0-123.941406 40.582031-140.109375 114.714843-15.042969 68.984376 33.15625 117.980469 140.109375 117.980469zm0 0" fill="#ddaf89"/><path d="m365.5625 282.296875c0 15.515625-12.578125 28.09375-28.09375 28.09375-15.519531 0-28.097656-12.578125-28.097656-28.09375 0-15.519531 12.578125-28.097656 28.097656-28.097656 15.515625 0 28.09375 12.578125 28.09375 28.097656zm0 0" fill="#f6e06a"/><path d="m281.742188 102.023438c0-11.25-11.449219-20.371094-25.578126-20.371094-14.125 0-25.574218 9.121094-25.574218 20.371094 0 11.246093 11.449218 20.367187 25.574218 20.367187 14.128907 0 25.578126-9.121094 25.578126-20.367187zm0 0" fill="#ffdbdb"/><path d="m425.285156 102.023438c0-11.25-11.453125-20.371094-25.578125-20.371094-14.128906 0-25.578125 9.121094-25.578125 20.371094 0 11.246093 11.449219 20.367187 25.578125 20.367187 14.125 0 25.578125-9.121094 25.578125-20.367187zm0 0" fill="#ffdbdb"/><path d="m341.351562 85.1875c-8.796874-2.304688-18.035156-2.304688-26.828124 0-3.644532.953125-6.816407 3.191406-8.933594 6.304688-2.859375 4.203124-1.214844 9.972656 3.429687 12.039062l12.886719 5.730469c3.839844 1.707031 8.222656 1.707031 12.058594 0l12.886718-5.730469c4.644532-2.066406 6.289063-7.835938 3.429688-12.039062-2.117188-3.113282-5.289062-5.351563-8.929688-6.304688zm0 0" fill="#495059"/><path d="m327.851562 186.753906c15.851563 0 28.703126-11.929687 28.703126-32.789062 0-23.207032-9.21875-28.207032-28.703126-28.207032-19.484374 0-28.703124 4.996094-28.703124 28.207032 0 20.859375 12.847656 32.789062 28.703124 32.789062zm0 0" fill="#d16283"/><path d="m327.851562 160.019531c-10.21875 0-19.511718 2.902344-26.523437 7.640625 4.3125 12.296875 14.5625 19.09375 26.523437 19.09375 11.960938 0 22.207032-6.796875 26.519532-19.09375-7.011719-4.738281-16.304688-7.640625-26.519532-7.640625zm0 0" fill="#eb9898"/><path d="m369.351562 247.175781-36.585937 6.449219 18.929687 83.113281c.785157 3.445313 4.128907 5.664063 7.605469 5.050781l15.269531-2.691406c3.476563-.613281 5.859376-3.84375 5.417969-7.347656zm0 0" fill="#d16283"/><path d="m373.375 246.464844-44.636719 7.867187c-6.449219 1.140625-12.601562-3.167969-13.742187-9.621093l-5.796875-32.882813c-1.136719-6.449219 3.171875-12.605469 9.621093-13.742187l44.636719-7.871094c6.453125-1.136719 12.605469 3.171875 13.742188 9.625l5.796875 32.882812c1.140625 6.453125-3.167969 12.605469-9.621094 13.742188zm0 0" fill="#495059"/><path d="m356.570312 312.46875c-11.382812-.546875-20.164062-10.222656-19.609374-21.601562.546874-11.382813 10.222656-20.164063 21.601562-19.613282 27.535156 1.332032 44.675781-18.71875 49.273438-24.898437 6.800781-9.140625 19.726562-11.035157 28.867187-4.234375 9.144531 6.804687 11.039063 19.730468 4.234375 28.871094-20.492188 27.535156-52.03125 43.039062-84.367188 41.476562zm0 0" fill="#c49b7a"/><path d="m98.570312 228.058594h.066407c3.519531.003906 6.402343-2.769532 6.402343-6.285156v-51.90625c0-9.066407 6.464844-16.847657 15.378907-18.511719l37.890625-7.066407c4.5-.839843 8.660156 2.613282 8.660156 7.191407v18.09375c0 6.195312-4.417969 11.511719-10.507812 12.648437l-17.519532 3.265625c-3.613281.675781-6.234375 3.828125-6.234375 7.503907v60.414062c0 14-15.28125 25.347656-34.136719 25.347656-18.851562 0-34.136718-11.351562-34.136718-25.347656 0-14 15.285156-25.347656 34.136718-25.347656zm0 0" fill="#a0d9bb"/><path d="m41.636719 128.9375h.066406c3.515625.003906 6.402344-2.769531 6.402344-6.289062v-51.90625c0-9.066407 6.460937-16.847657 15.375-18.507813l37.894531-7.070313c4.5-.835937 8.65625 2.617188 8.65625 7.195313v18.089844c0 6.195312-4.414062 11.511719-10.507812 12.648437l-17.515626 3.265625c-3.617187.675781-6.234374 3.828125-6.234374 7.503907v60.414062c0 14-15.285157 25.347656-34.136719 25.347656-18.855469 0-34.136719-11.347656-34.136719-25.347656s15.28125-25.34375 34.136719-25.34375zm0 0" fill="#f6e06a"/><path d="m370.660156 91.277344c4.140625 0 7.5-3.355469 7.5-7.5 0-3.660156 2.976563-6.640625 6.640625-6.640625 3.660157 0 6.636719 2.980469 6.636719 6.640625 0 4.144531 3.359375 7.5 7.5 7.5 4.144531 0 7.5-3.355469 7.5-7.5 0-11.929688-9.707031-21.640625-21.636719-21.640625-11.933593 0-21.640625 9.710937-21.640625 21.640625 0 4.144531 3.359375 7.5 7.5 7.5zm-196.191406 78.296875v-18.09375c0-4.417969-1.953125-8.570313-5.351562-11.394531-3.398438-2.824219-7.839844-3.980469-12.183594-3.171876l-37.890625 7.070313c-12.460938 2.324219-21.503907 13.207031-21.503907 25.882813v50.699218c-22.480468.4375-40.605468 15-40.605468 32.839844 0 18.109375 18.679687 32.847656 41.636718 32.847656 22.957032 0 41.636719-14.738281 41.636719-32.847656v-60.414062c0-.0625.046875-.117188.109375-.128907l17.519532-3.269531c9.636718-1.796875 16.632812-10.214844 16.632812-20.019531zm-75.898438 58.484375.003907 2.875-.003907.113281zm56.515626-53.210938-17.519532 3.269532c-7.164062 1.335937-12.359375 7.589843-12.359375 14.875v60.414062c0 9.675781-12.199219 17.847656-26.636719 17.847656s-26.636718-8.171875-26.636718-17.847656c0-9.667969 12.1875-17.839844 26.617187-17.847656.03125.003906.0625 0 .09375.003906 3.734375 0 7.238281-1.445312 9.863281-4.070312 2.601563-2.59375 4.03125-6.046876 4.03125-9.71875v-51.90625c0-5.453126 3.890626-10.136719 9.25-11.136719l37.675782-7.027344v17.871094c.003906 2.582031-1.839844 4.800781-4.378906 5.273437zm109.347656-91.070312c0-3.660156 2.976562-6.640625 6.640625-6.640625 3.660156 0 6.636719 2.980469 6.636719 6.640625 0 4.144531 3.359374 7.5 7.5 7.5 4.144531 0 7.5-3.355469 7.5-7.5 0-11.929688-9.707032-21.640625-21.636719-21.640625-11.933594 0-21.640625 9.710937-21.640625 21.640625 0 4.144531 3.355468 7.5 7.5 7.5 4.140625 0 7.5-3.355469 7.5-7.5zm237.789062-48.847656-16.976562-14.820313c-13.511719-11.796875-30.824219-18.738281-48.746094-19.539063-16.363281-.722656-32.71875 3.707032-46.496094 12.535157-15.972656-5.152344-33.519531-7.75-52.535156-7.75-19.019531 0-36.566406 2.597656-52.539062 7.75-13.777344-8.824219-30.132813-13.261719-46.496094-12.535157-17.921875.800782-35.234375 7.742188-48.746094 19.539063l-16.972656 14.820313c-11.867188 10.359374-13.09375 28.441406-2.730469 40.308593 5.636719 6.460938 13.566406 9.765625 21.535156 9.765625 4.882813 0 9.769531-1.253906 14.164063-3.769531-6.820313 13.335937-12.058594 28.261719-15.652344 44.738281-4.964844 22.773438-3.5 43.515625 4.359375 61.644532 1.644531 3.800781 6.058594 5.550781 9.863281 3.902343 3.800782-1.648437 5.546875-6.066406 3.898438-9.867187-6.582032-15.183594-7.746094-32.84375-3.464844-52.484375 6.617188-30.335938 19.195312-54.761719 37.011719-72.738281.453125-.355469.859375-.765626 1.21875-1.210938 12.039062-11.792969 26.414062-20.691406 42.902343-26.550781.316407-.085938.628907-.195313.933594-.324219 15.183594-5.265625 32.128906-7.988281 50.710938-7.988281 18.578125 0 35.519531 2.722656 50.699218 7.984375.316407.132812.640626.25.96875.335937 16.476563 5.859375 30.847657 14.753907 42.882813 26.539063.359375.449218.761719.859375 1.21875 1.21875 17.820313 17.972656 30.398437 42.402344 37.011719 72.734375 5.460937 25.050781 2.128906 46.621093-9.910156 64.109375-13.332032 19.367187-37.316407 33.003906-69.742188 39.785156-.050781-.546875-.113281-1.09375-.210938-1.640625l-5.796874-32.882813c-1.855469-10.515624-11.914063-17.558593-22.433594-15.707031l-9.6875 1.707031c7.285156-7.152343 11.585937-17.828124 11.585937-30.574218 0-13.671875-3.050781-22.710938-9.605469-28.449219-5.3125-4.652344-12.175781-6.371094-19.011718-6.964844v-1.8125c.53125-.1875 1.058594-.390625 1.578125-.621093l12.886719-5.730469c4.25-1.890625 7.417968-5.542969 8.695312-10.015625 1.273438-4.472656.503906-9.246094-2.109375-13.09375-3.136719-4.613282-7.839844-7.933594-13.234375-9.34375-.003906 0-.003906 0-.003906 0-10.015625-2.625-20.605469-2.625-30.625 0-5.394532 1.410156-10.097656 4.730468-13.234375 9.34375-2.617188 3.847656-3.382813 8.621094-2.109375 13.09375 1.273437 4.472656 4.445312 8.125 8.695312 10.015625l12.886719 5.730469c.519531.230468 1.042969.433593 1.574219.621093v1.8125c-15.71875 1.351563-28.789063 8.222657-28.789063 35.417969 0 18.179688 8.753907 32.148438 22.441407 37.6875-8.5625 3.207031-13.917969 12.160156-12.273438 21.480469l4.105469 23.289062c-35.261719-3.824219-63.066407-14.457031-80.789063-30.988281-3.027344-2.828125-7.773437-2.660156-10.601562.367188-2.824219 3.03125-2.660156 7.777343.371094 10.601562 3.285156 3.066406 6.828124 5.9375 10.609374 8.621094-.886718 3.210937-1.230468 6.492187-1.058593 9.726562-11.335938-3.105468-19.605469-9.554687-22.316407-11.886718-11.757812-10.117188-29.554687-8.785157-39.671874 2.972656-10.117188 11.757812-8.785157 29.554687 2.972656 39.671875 20.050781 17.257812 44.660156 26.765625 69.847656 27.144531 5.738281 15.125 15.410156 28.59375 27.90625 39.375-4.71875 18.097656-7.757812 40.558594.070312 70.636719 3.222657 12.394531 14.414063 21.054687 27.210938 21.054687 2.386719 0 4.773438-.308594 7.097656-.914062 7.273438-1.894532 13.371094-6.503906 17.175782-12.984375 3.804687-6.476563 4.859374-14.050781 2.964843-21.324219-2.988281-11.484375-3.714843-21.078125-2.246093-31.515625 7.105468 1.34375 14.46875 2.054687 22.007812 2.054687 1.019531 0 2.027344-.035156 3.042969-.0625 1.394531 16.511719 6.347656 40.386719 22.410156 56.476563 5.3125 5.328125 12.386719 8.261719 19.910156 8.261719 7.503907 0 14.5625-2.917969 19.871094-8.21875 2.09375-2.089844 3.835937-4.476563 5.175781-7.089844 1.886719-3.6875.429688-8.207031-3.257812-10.09375-3.683594-1.886719-8.207032-.429688-10.09375 3.253906-.625 1.21875-1.4375 2.332032-2.417969 3.3125-2.480469 2.472656-5.773437 3.835938-9.277344 3.835938-3.511719 0-6.8125-1.371094-9.292969-3.855469-9.949218-9.96875-16.382812-26.9375-18.074218-47.199219 9.011718-1.371094 17.664062-3.765625 25.8125-7.046875.429687 11.5625 2.878906 22.886719 6.785156 30.082031 1.359375 2.503907 3.933594 3.925782 6.597656 3.925782 1.207032 0 2.433594-.292969 3.570313-.910156 3.640625-1.976563 4.992187-6.53125 3.015625-10.171876-3.519532-6.484374-5.492188-18.972656-4.945313-30.3125.679688-.402343 1.347657-.816406 2.015625-1.230468 15.355469 11.078125 30.519532 16.492187 46.214844 16.492187 10.386719 0 21.0625-2.296875 32.628906-7.019531 5.9375-2.425781 10.574219-7.015625 13.058594-12.929688 2.480469-5.910156 2.515625-12.433593.089844-18.371093-5.003906-12.253907-19.046875-18.152344-31.300782-13.148438-8.488281 3.46875-15.660156 5.523438-26.1875.039063 4.886719-8.335938 8.492188-17.429688 10.605469-27.085938 1.207031-1.46875 2.386719-2.964844 3.53125-4.5 4.488281-6.027344 6.355469-13.441406 5.269531-20.875-.550781-3.757812-1.828124-7.292968-3.734374-10.453125 2.328124-6.121093 2.660156-12.871093.917968-19.171875 9.417969-6.644531 17.234375-14.394531 23.285156-23.1875 14.277344-20.742187 18.5-46.957031 12.207032-75.808594-3.589844-16.476562-8.828125-31.402343-15.648438-44.738281 4.390625 2.515625 9.28125 3.769531 14.164063 3.769531 7.96875 0 15.898437-3.308593 21.535156-9.765624 10.359375-11.871094 9.132813-29.953126-2.730469-40.3125zm-260.863281 1.664062c-2.738281 2.226562-5.359375 4.578125-7.90625 7.015625-5.929687 1.394531-11.441406 4.214844-16.054687 8.242187l-16.972657 14.820313c-5.636719 4.917969-14.222656 4.335937-19.144531-1.300781-4.917969-5.632813-4.335938-14.222656 1.296875-19.140625l16.972656-14.820313c10.964844-9.574218 25.011719-15.203125 39.554688-15.855468 9.445312-.421876 18.882812 1.289062 27.578125 4.882812-9.066406 4.421875-17.515625 9.808594-25.324219 16.15625zm-66.144531 217.546875c-5.488282-4.726563-6.109375-13.035156-1.386719-18.519531 4.722656-5.488282 13.03125-6.109375 18.519531-1.390625 5.253906 4.519531 18.921875 14.691406 37.546875 16.832031-.332031 3.167969-.507812 6.351562-.507812 9.515625 0 5.765625.554687 11.410156 1.601562 16.90625-20.097656-1.324219-39.609375-9.433594-55.773437-23.34375zm208.578125-4.570313c4.742187-.769531 9.347656-1.667968 13.808593-2.691406-4.109374 4.355469-10.53125 9.898438-19.039062 13.433594l-.910156-7.253906c2.257812-.777344 4.332031-1.957032 6.140625-3.488282zm-19.035157-51.96875c.257813-.042968.511719-.066406.761719-.066406 2.078125 0 3.921875 1.492188 4.292969 3.605469l5.800781 32.882813c.417969 2.367187-1.171875 4.636718-3.539062 5.054687l-44.636719 7.867187c-2.371094.417969-4.636719-1.167968-5.054688-3.535156l-.011718-.074218c-.003906-.011719-.003906-.023438-.007813-.039063 0-.007813-.003906-.019531-.007812-.03125l-5.769531-32.738281c-.421876-2.371094 1.167968-4.636719 3.535156-5.054688zm-.882812 66.125c-1.605469.09375-3.253906.117188-4.949219.035157-5.558593-.269531-10.816406 1.109375-15.320312 3.695312l-1.78125-7.8125 21.070312-3.714843zm-32.578125 38.214844c-8.351563-2.628906-14.425781-10.4375-14.425781-19.644531 0-7.730469 4.207031-14.511719 10.625-18.035156l3.925781 17.238281c-1.113281 2.800781-1.800781 5.828125-1.953125 9.003906-.191406 3.964844.445312 7.839844 1.828125 11.4375zm-19.230469-205.265625c-.070312-.03125-.28125-.125-.363281-.417969-.085937-.292968.042969-.484374.085937-.546874 1.101563-1.613282 2.742188-2.777344 4.632813-3.269532 3.765625-.988281 7.640625-1.480468 11.515625-1.480468 3.871094 0 7.746094.492187 11.511719 1.480468 1.890625.492188 3.535156 1.652344 4.628906 3.269532.042969.0625.175781.253906.089844.546874-.082031.292969-.292969.386719-.363281.417969l-12.886719 5.730469c-1.894531.84375-4.070313.84375-5.964844 0zm-5.417968 57.289063c0-17.992188 4.773437-20.707032 21.203124-20.707032h.085938c16.355469.011719 21.113281 2.75 21.113281 20.707032 0 15.363281-8.320312 25.289062-21.203125 25.289062-12.878906 0-21.199218-9.929687-21.199218-25.289062zm-63.308594 89.625c-.015625-.015625-.027344-.03125-.042969-.046875-2.441406-2.804688-3.808594-6.386719-3.882813-10.070313 18.894532 9.792969 42.398438 15.953125 70.253907 18.390625.90625 1.667969 2.03125 3.1875 3.351562 4.5-3.53125 3.324219-6.363281 7.351563-8.285156 11.859375-20.34375-3.757812-39.679687-10.949218-57.554687-21.441406-1.480469-.871094-2.757813-1.960938-3.839844-3.191406zm58.46875 158.640625c-1.777344 3.023437-4.625 5.175781-8.019532 6.058593-1.09375.285157-2.210937.429688-3.320312.429688-5.96875 0-11.191406-4.042969-12.695312-9.832031-6.175782-23.742188-4.914063-41.730469-1.496094-57.195313 7.5625 4.746094 15.8125 8.640625 24.589844 11.527344-2.058594 13.027344-1.3125 25.078125 2.324218 39.054688.882813 3.394531.390625 6.929687-1.382812 9.957031zm35.660156-58.195313c-50.628906 0-91.941406-36.425781-93.054688-81.585937 17.992188 9.882812 37.273438 16.757812 57.476563 20.5.351563 19.328125 16.167969 34.941406 35.578125 34.941406.742188 0 1.480469-.035156 2.222656-.082031l4.691406 20.597656c.441407 1.941406 1.269532 3.691406 2.378907 5.207031-3.0625.269531-6.160157.421875-9.292969.421875zm21.351562-9.773437-3.265624-14.347657c.21875.015626.433593.035157.652343.046876 1.613281.078124 3.222657.117187 4.832031.117187 3.304688 0 6.59375-.171875 9.859376-.492187l1.546874 12.273437zm36.253907-8.070313c-.515625.269532-1 .609375-1.449219 1.003906-2 1.355469-4.058594 2.640626-6.175781 3.847657-.007813-.074219-.007813-.152344-.019531-.230469l-1.734376-13.800781c11.273438-2.824219 22.078126-7.570313 32-14.007813-.316406.480469-.648437.949219-.972656 1.421875-.167968.195313-.332031.398438-.484375.613281-.1875.265626-.347656.539063-.496093.820313-5.605469 7.796875-12.613282 14.652344-20.667969 20.332031zm48.640625-.753906c7.894531.320312 14.742187-1.992188 20.960937-4.535156 4.597657-1.878906 9.863281.335937 11.742188 4.933594.910156 2.226562.898437 4.675781-.035157 6.890624-.929687 2.21875-2.667968 3.941407-4.898437 4.851563-9.730469 3.972656-18.550781 5.90625-26.957031 5.90625-11.269532 0-22.042969-3.472656-33.359375-10.828125 4.757812-4.035156 9.113281-8.460938 13.015625-13.234375 6.699218 3.777344 13.136718 5.757813 19.53125 6.015625zm-8.792969-58.925781c-19 25.53125-48.164063 39.917969-77.988281 38.464843-2.625-.125-5.097656-1.011718-7.164063-2.542968 0 0-.003906-.003906-.003906-.003906-.691406-.511719-1.332031-1.09375-1.921875-1.742188-2.359375-2.597656-3.5625-5.957031-3.394531-9.460938.097656-2.003906.65625-3.878906 1.546875-5.542968 0-.003906.003906-.007813.003906-.011719 2.226562-4.144531 6.597656-6.941406 11.558594-6.941406.210937 0 .425781.003906.640625.015625 31.25 1.503906 50.496093-20.984375 55.65625-27.914063 2.09375-2.8125 5.15625-4.644531 8.625-5.152343 3.472656-.507813 6.933593.363281 9.746093 2.457031 2.816407 2.09375 4.644532 5.160156 5.15625 8.628906.507813 3.472656-.367187 6.933594-2.460937 9.746094zm58.730469-201.140625c-4.917969 5.636718-13.507813 6.21875-19.144532 1.300781l-16.972656-14.820313c-4.613281-4.027343-10.125-6.847656-16.050781-8.246093-2.546875-2.433594-5.171875-4.789063-7.910156-7.015625-7.808594-6.347656-16.257813-11.730469-25.324219-16.152344 8.691406-3.597656 18.132812-5.308594 27.578125-4.882812 14.542969.648437 28.589844 6.28125 39.554687 15.855468l16.972657 14.816406c5.636719 4.921876 6.21875 13.511719 1.296875 19.144532zm-410.382813 88.910156v-60.410156c0-.066406.046875-.121094.109375-.132813l17.519532-3.265625c9.636718-1.796875 16.632812-10.21875 16.632812-20.023437v-18.089844c0-4.421875-1.949219-8.574219-5.347656-11.398437-3.402344-2.824219-7.84375-3.976563-12.1875-3.167969l-37.890625 7.066406c-12.457031 2.324219-21.5 13.210937-21.5 25.882813v50.703124c-22.484375.433594-40.605469 14.996094-40.605469 32.835938 0 18.113281 18.679688 32.847656 41.636719 32.847656s41.632812-14.734375 41.632812-32.847656zm-41.632812-25.34375v3.054688zm26.632812-35.066406v60.410156c0 9.675781-12.195312 17.847656-26.632812 17.847656-14.441407 0-26.636719-8.171875-26.636719-17.847656 0-9.667969 12.183594-17.839844 26.613281-17.84375h.097657c3.734374 0 7.234374-1.445312 9.863281-4.070312 2.597656-2.59375 4.03125-6.046876 4.03125-9.71875v-51.90625c0-5.453126 3.890625-10.136719 9.25-11.136719l37.675781-7.027344v17.871094c0 2.582031-1.84375 4.804687-4.382812 5.277343l-17.519532 3.265626c-7.160156 1.335937-12.359375 7.59375-12.359375 14.878906zm0 0"/></svg>