<svg viewBox="0 -28 511.99993 511" xmlns="http://www.w3.org/2000/svg"><path d="m109.976562 366.683594c-10.457031 0-21.238281-2.40625-32.746093-7.105469-9.273438-3.785156-13.722657-14.375-9.933594-23.652344 3.789063-9.277343 14.378906-13.722656 23.652344-9.9375 17.03125 6.957031 32.523437 9.675781 63.488281-23.066406 6.878906-7.277344 18.363281-7.601563 25.644531-.714844 7.28125 6.882813 7.601563 18.363281.714844 25.644531-24.917969 26.347657-47.015625 38.832032-70.820313 38.832032zm0 0" fill="#495059"/><g fill="#ddaf89"><path d="m188.867188 438.378906c-.609376 0-1.222657-.027344-1.839844-.074218-12.484375-1.003907-21.792969-11.933594-20.789063-24.421876 1.894531-23.609374 2.460938-43.757812-.570312-71.199218-1.375-12.449219 7.601562-23.65625 20.046875-25.03125 12.453125-1.363282 23.65625 7.601562 25.03125 20.050781 3.414062 30.917969 2.75 54.265625.699218 79.808594-.953124 11.867187-10.878906 20.867187-22.578124 20.867187zm0 0"/><path d="m272.679688 438.378906c-.609376 0-1.21875-.027344-1.839844-.074218-12.484375-1.003907-21.789063-11.933594-20.789063-24.421876 1.894531-23.605468 2.460938-43.753906-.570312-71.199218-1.375-12.449219 7.601562-23.65625 20.046875-25.03125 12.453125-1.363282 23.65625 7.601562 25.03125 20.050781 3.414062 30.921875 2.75 54.269531.703125 79.808594-.957031 11.867187-10.882813 20.867187-22.582031 20.867187zm0 0"/><path d="m115.882812 293.316406c-14.550781 0-27.765624-3.5-38.492187-10.363281-10.550781-6.75-13.632813-20.773437-6.886719-31.324219 6.75-10.546875 20.773438-13.628906 31.324219-6.882812 5.640625 3.605468 16.113281 4.203125 27.335937 1.550781 12.179688-2.867187 24.402344 4.671875 27.28125 16.859375 2.878907 12.191406-4.671874 24.402344-16.859374 27.28125-8.152344 1.921875-16.109376 2.878906-23.703126 2.878906zm0 0"/></g><path d="m294.558594 337.703125c-1.375-12.449219-12.578125-21.410156-25.03125-20.050781-12.449219 1.375-21.421875 12.582031-20.050782 25.03125 1.460938 13.21875 2.082032 24.738281 2.128907 35.773437 16.332031-2.9375 31.523437-8.820312 44.878906-17.019531-.378906-7.488281-.996094-15.324219-1.925781-23.734375zm0 0" fill="#d1a582"/><path d="m185.714844 317.652344c-12.445313 1.375-21.421875 12.582031-20.046875 25.03125.933593 8.464844 1.523437 16.230468 1.839843 23.625 13.8125 7.046875 29.238282 11.746094 45.636719 13.503906.003907-12.953125-.683593-26.574219-2.398437-42.109375-1.375-12.449219-12.578125-21.410156-25.03125-20.050781zm0 0" fill="#d1a582"/><path d="m338.199219 267.316406c0-55.214844-49.492188-99.972656-110.546875-99.972656-61.054688 0-110.550782 44.757812-110.550782 99.972656s49.496094 99.972656 110.550782 99.972656c61.054687 0 110.546875-44.757812 110.546875-99.972656zm0 0" fill="#ddaf89"/><path d="m327.496094 203.128906c-27.09375 22.480469-61.890625 36-99.84375 36-37.957032 0-72.753906-13.519531-99.84375-36-5.761719 7.460938-10.566406 15.582032-14.207032 24.226563-4.960937 11.78125-.386718 25.433593 10.636719 31.90625 30.34375 17.8125 65.683594 28.03125 103.414063 28.03125 37.726562 0 73.066406-10.21875 103.410156-28.03125 11.023438-6.472657 15.597656-20.125 10.636719-31.90625-3.640625-8.648438-8.445313-16.769531-14.203125-24.226563zm0 0" fill="#7f9ae6"/><path d="m177.304688 230.84375c-18.246094-6.199219-34.980469-15.667969-49.5-27.71875-5.757813 7.460938-10.5625 15.582031-14.203126 24.230469-4.960937 11.78125-.386718 25.433593 10.636719 31.902343 15.777344 9.261719 32.914063 16.449219 51.027344 21.238282-6.644531-13.335938-4.761719-33.359375 2.039063-49.652344zm0 0" fill="#5e78bf"/><path d="m186.953125 80.621094c-4.410156 0-8.859375-1.34375-12.699219-4.132813l-26.625-19.34375c-11.660156-8.46875-27.386718-7.765625-38.242187 1.714844l-17.433594 15.21875c-9.003906 7.863281-22.675781 6.933594-30.535156-2.066406-7.859375-9.003907-6.933594-22.675781 2.066406-30.535157l17.433594-15.222656c12.574219-10.976562 28.679687-17.433594 45.351562-18.179687 16.675781-.746094 33.289063 4.246093 46.792969 14.050781l26.625 19.34375c9.671875 7.023438 11.816406 20.558594 4.792969 30.226562-4.234375 5.832032-10.835938 8.925782-17.527344 8.925782zm0 0" fill="#495059"/><path d="m268.347656 80.621094c-6.695312 0-13.292968-3.09375-17.527344-8.925782-7.023437-9.667968-4.878906-23.203124 4.789063-30.226562l26.628906-19.339844c13.503907-9.808594 30.125-14.796875 46.792969-14.054687 16.671875.75 32.777344 7.203125 45.347656 18.179687l17.433594 15.222656c9.003906 7.859376 9.929688 21.53125 2.070312 30.535157-7.859374 9.003906-21.53125 9.929687-30.535156 2.066406l-17.433594-15.21875c-10.855468-9.480469-26.582031-10.183594-38.242187-1.714844l-26.625 19.34375c-3.839844 2.789063-8.292969 4.132813-12.699219 4.132813zm0 0" fill="#495059"/><path d="m227.652344 252.015625c109.855468 0 159.363281-50.324219 143.914062-121.183594-16.605468-76.152343-68.90625-117.832031-143.914062-117.832031-75.011719 0-127.3125 41.683594-143.914063 117.832031-15.453125 70.859375 34.054688 121.183594 143.914063 121.183594zm0 0" fill="#ddaf89"/><path d="m258.53125 291.1875c0 17.054688-13.824219 30.878906-30.878906 30.878906-17.054688 0-30.882813-13.824218-30.882813-30.878906s13.828125-30.882812 30.882813-30.882812c17.054687 0 30.878906 13.828124 30.878906 30.882812zm0 0" fill="#f6e06a"/><path d="m186.214844 145.523438c0-13.984376-14.230469-25.316407-31.789063-25.316407-17.554687 0-31.789062 11.332031-31.789062 25.316407 0 13.980468 14.234375 25.316406 31.789062 25.316406 17.558594 0 31.789063-11.335938 31.789063-25.316406zm0 0" fill="#ffdbdb"/><path d="m364.613281 145.523438c0-13.984376-14.230469-25.316407-31.789062-25.316407-17.554688 0-31.789063 11.332031-31.789063 25.316407 0 13.980468 14.234375 25.316406 31.789063 25.316406 17.558593 0 31.789062-11.335938 31.789062-25.316406zm0 0" fill="#ffdbdb"/><path d="m260.296875 124.597656c-10.929687-2.859375-22.414063-2.859375-33.34375 0-4.527344 1.1875-8.46875 3.96875-11.101563 7.839844-3.550781 5.226562-1.511718 12.394531 4.261719 14.960938l16.019531 7.121093c4.769532 2.121094 10.214844 2.121094 14.984376 0l16.015624-7.121093c5.777344-2.566407 7.816407-9.734376 4.265626-14.960938-2.628907-3.871094-6.574219-6.652344-11.101563-7.839844zm0 0" fill="#495059"/><path d="m43.597656 195.199219 56.148438-66.910157 36.105468 30.300782-56.148437 66.90625zm0 0" fill="#7f9ae6"/><path d="m99.75 128.28125-56.144531 66.914062-28.128907-23.605468c-9.445312-7.925782-10.675781-22.003906-2.75-31.449219l27.445313-32.710937c7.925781-9.441407 22.007813-10.675782 31.449219-2.75zm0 0" fill="#d16283"/><path d="m348.773438 438.5 26.160156 8.628906c21.894531 7.226563 41.378906-15.996094 30.460937-36.300781l-13.042969-24.265625c-8.257812-15.359375-19.359374-29.003906-32.71875-40.214844l-223.773437-187.769531-56.144531 66.914063 223.773437 187.769531c13.359375 11.207031 28.726563 19.773437 45.285157 25.238281zm0 0" fill="#f6e06a"/><path d="m113.304688 185.441406 228.890624 192.078125-9.640624 11.488281-228.894532-192.078124zm0 0" fill="#edcc5f"/><path d="m308.78125 417.476562c12.070312 9.15625 25.578125 16.265626 39.992188 21.023438l26.160156 8.632812c21.894531 7.222657 41.378906-16 30.460937-36.304687l-13.042969-24.261719c-7.1875-13.371094-16.535156-25.441406-27.644531-35.734375zm0 0" fill="#ddaf89"/><path d="m352.085938 439.589844 22.847656 7.539062c21.894531 7.226563 41.378906-15.996094 30.460937-36.300781l-11.390625-21.191406zm0 0" fill="#495059"/><path d="m89.585938 286.527344c-4.179688 0-8.410157-1.152344-12.191407-3.574219-11.785156-7.535156-30.863281-26.023437-26.253906-65.1875 1.460937-12.441406 12.730469-21.339844 25.167969-19.875 12.441406 1.464844 21.335937 12.730469 19.875 25.171875-1.3125 11.152344.585937 18.445312 5.644531 21.683594 10.550781 6.746094 13.632813 20.769531 6.886719 31.320312-4.328125 6.765625-11.648438 10.460938-19.128906 10.460938zm0 0" fill="#ddaf89"/><path d="m117.652344 257.324219-11.90625-9.988281c-1.269532 6.488281-1.945313 13.164062-1.945313 19.980468 0 8.777344 1.097657 17.324219 3.171875 25.535156 2.90625.300782 5.878906.464844 8.910156.464844 1.636719 0 3.292969-.054687 4.960938-.144531-2.433594-8.246094-3.742188-16.914063-3.742188-25.855469 0-3.371094.1875-6.703125.550782-9.992187zm0 0" fill="#d1a582"/><path d="m323.84375 359.511719c-6.0625 0-12.109375-2.414063-16.574219-7.195313-8.550781-9.152344-8.0625-23.503906 1.089844-32.050781 7.917969-7.398437 16.503906-24.160156 10.808594-38.261719-4.695313-11.613281.914062-24.828125 12.523437-29.519531 11.617188-4.691406 24.832032.914063 29.523438 12.523437 9.601562 23.757813 6.84375 61.550782-21.894532 88.398438-4.371093 4.082031-9.929687 6.105469-15.476562 6.105469zm0 0" fill="#c49b7a"/><path d="m165.453125 109.042969v11.226562c0 4.140625 3.355469 7.5 7.5 7.5s7.5-3.359375 7.5-7.5v-11.226562c0-4.144531-3.355469-7.5-7.5-7.5s-7.5 3.355469-7.5 7.5zm48.261719 63.234375c-2.722656-3.125-7.460938-3.449219-10.582032-.726563-3.125 2.71875-3.449218 7.457031-.726562 10.582031 10.398438 11.929688 25.421875 18.773438 41.21875 18.773438s30.820312-6.84375 41.222656-18.773438c2.71875-3.125 2.394532-7.863281-.726562-10.582031-3.125-2.722656-7.863282-2.398437-10.582032.726563-5.878906 6.742187-13.792968 11.234375-22.414062 12.898437v-22.683593c1.03125-.308594 2.046875-.675782 3.039062-1.121094l16.019532-7.117188c4.785156-2.128906 8.355468-6.242187 9.792968-11.28125 1.4375-5.039062.570313-10.417968-2.375-14.75-3.652343-5.371094-9.121093-9.234375-15.40625-10.878906h.003907c-12.152344-3.179688-24.996094-3.179688-37.144531 0-6.28125 1.640625-11.75 5.507812-15.402344 10.878906-2.949219 4.332032-3.8125 9.710938-2.378906 14.75 1.4375 5.039063 5.007812 9.152344 9.796874 11.277344l16.015626 7.121094c.992187.445312 2.011718.8125 3.039062 1.121094v22.683593c-8.621094-1.664062-16.535156-6.15625-22.410156-12.898437zm9.449218-31.734375c-.980468-.433594-1.339843-1.242188-1.464843-1.683594s-.246094-1.320313.355469-2.207031c1.613281-2.367188 4.027343-4.074219 6.800781-4.800782 4.832031-1.265624 9.800781-1.894531 14.769531-1.894531 4.972656 0 9.941406.628907 14.773438 1.894531 2.773437.726563 5.1875 2.429688 6.800781 4.800782.601562.886718.480469 1.765625.351562 2.207031-.125.441406-.480469 1.25-1.460937 1.683594l-16.019532 7.125c-2.824218 1.253906-6.066406 1.253906-8.890624-.003907zm287.546876 285.015625c-2.320313-3.429688-6.984376-4.328125-10.414063-2.007813-12.523437 8.476563-25.09375 7.332031-48.863281 2.945313-3.171875-.585938-6.5-1.289063-9.722656-1.96875-8.628907-1.824219-17.464844-3.683594-25.769532-3.898438-.34375-4.53125-1.632812-9.0625-3.9375-13.351562l-11.308594-21.035156c-.015624-.027344-.03125-.054688-.046874-.082032l-1.691407-3.148437c-8.742187-16.265625-20.351562-30.535157-34.5-42.410157l-3.203125-2.683593c15.144532-25.902344 15.109375-55.445313 6.914063-75.71875-3.371094-8.339844-10.074219-14.351563-17.957031-17.132813 1.5625-6.367187 1.21875-13.117187-1.113282-19.367187 3.683594-3.054688 7.089844-6.300781 10.183594-9.746094 2.769531-3.082031 2.515625-7.824219-.570312-10.59375-3.082032-2.769531-7.824219-2.511719-10.589844.574219-19.53125 21.753906-53.734375 34.820312-99.023438 37.871094l-108.414062-90.96875c-.003906-.003907-.003906-.003907-.003906-.003907l-36.101563-30.292969s-.003906-.003906-.003906-.003906c-.003907 0-.003907 0-.003907-.003906l-8.871093-7.441406c19.394531-61.042969 66.070312-94.59375 131.949219-94.59375 18.953124 0 36.265624 2.734375 51.78125 8.058594.496093.238281 1.015624.414062 1.542968.542968 16.855469 6.015625 31.550782 15.136719 43.878906 27.191406.398438.507813.855469.96875 1.375 1.363282 18.300782 18.488281 31.210938 43.605468 38.007813 74.777344 3.820313 17.515624 3.421875 33.578124-1.1875 47.746093-1.28125 3.9375.871094 8.167969 4.8125 9.449219.769531.25 1.550781.371094 2.320313.371094 3.160156 0 6.101562-2.015625 7.128906-5.183594 5.445312-16.730469 5.976562-35.429688 1.582031-55.582031-3.738281-17.140625-9.203125-32.65625-16.347656-46.488281 4.511719 2.730468 9.660156 4.175781 14.996093 4.175781.667969 0 1.339844-.023438 2.011719-.066407 7.765625-.527343 14.859375-4.046874 19.980469-9.910156 5.121094-5.863281 7.648438-13.367187 7.125-21.136718-.527344-7.765626-4.046875-14.859376-9.910156-19.980469l-17.433594-15.222657c-13.847656-12.085937-31.585938-19.195312-49.949219-20.019531-16.804687-.765625-33.589843 3.816407-47.71875 12.894531-16.414062-5.308593-34.449219-7.980468-53.996093-7.980468-19.507813 0-37.519532 2.703125-53.941407 8.011718-14.144531-9.101562-30.953125-13.6875-47.773437-12.925781-18.363282.824219-36.101563 7.933594-49.945313 20.023438l-17.433593 15.222656c-12.105469 10.566406-13.355469 29.011719-2.785157 41.117187 5.753907 6.585938 13.839844 9.960938 21.96875 9.960938 5.21875-.003906 10.457031-1.398438 15.101563-4.222656-3.578125 6.925781-6.742188 14.277344-9.484375 22.046875l-6.910157-5.796875c-12.597656-10.570313-31.445312-8.921875-42.019531 3.675781l-27.445312 32.707031c-5.121094 6.105469-7.558594 13.835938-6.863281 21.773438.691406 7.933594 4.4375 15.125 10.539062 20.246094l28.121094 23.597656s.003906.003906.007812.007812c0 0 .003906 0 .007813.003906l7.648437 6.417969c-1.414062 2.964844-2.355468 6.167969-2.75 9.527344-5.070312 43.113281 16.296875 63.796875 29.554688 72.3125.035156.019531.070312.046875.105468.066406 11.703126 7.488281 26.265626 11.46875 42.128907 11.539063 2.242187 6.214844 5.089843 12.179687 8.480469 17.839844-12.246094 6.691406-20.4375 4.375-30.175782.398437-13.089844-5.347656-28.085937.953125-33.433594 14.042969-5.34375 13.089844.957032 28.089844 14.046876 33.433594 12.625 5.15625 24.261718 7.660156 35.578124 7.660156 16.78125 0 33.023438-5.695313 49.457032-17.339844 1.019531 13.824219 1.121094 26.871094.339844 41.550781-.21875 4.136719 2.957031 7.667969 7.09375 7.886719.132812.007812.269531.011719.402343.011719 3.960938 0 7.269531-3.101563 7.484375-7.101563.667969-12.601562.707032-24.054687.113282-35.761718 9.570312 4.375 19.875 7.59375 30.703124 9.46875.265626 13.445312-.234374 27-1.601562 44.015624-.628906 7.832032-7.261719 13.964844-15.101562 13.964844-.417969 0-.824219-.015625-1.238282-.050781-3.722656-.296875-7.191406-1.949219-9.761718-4.644531-2.859376-2.996094-7.605469-3.105469-10.605469-.25-2.996094 2.859375-3.109375 7.605468-.25 10.601562 5.121093 5.367188 12.011719 8.648438 19.421875 9.246094.8125.0625 1.628906.097656 2.433594.097656 15.601562 0 28.804687-12.195312 30.054687-27.765625 1.339844-16.710937 1.871094-30.214843 1.679687-43.519531 2.332032.125 4.679688.195312 7.046876.195312 5.480468 0 10.972656-.359374 16.394531-1.046874.234375 11.875-.21875 23.964843-1.46875 39.542968-1.332031 16.585938 11.078125 31.164063 27.675781 32.496094.8125.0625 1.628906.097656 2.429688.097656 14.328124 0 26.625-10.289062 29.503906-24.023437 13.277344 10.460937 28.136718 18.453125 44.238281 23.765625l26.164063 8.632812c3.542968 1.167969 7.121093 1.738282 10.640624 1.738282 9.492188 0 18.515626-4.152344 24.984376-11.867188 2.21875-2.644531 3.972656-5.507812 5.253906-8.503906 7.367187-.167969 16.378906 1.726562 25.144531 3.582031 3.3125.699219 6.738281 1.421875 10.097656 2.042969 11.15625 2.058594 20.847657 3.617187 29.746094 3.617187 10.863281 0 20.542969-2.320312 30.25-8.890625 3.429687-2.320312 4.328125-6.984375 2.007813-10.414062zm-182.015626-409.988282c14.980469.671876 29.453126 6.472657 40.753907 16.335938l17.433593 15.21875c2.84375 2.484375 4.550782 5.929688 4.808594 9.699219.253906 3.765625-.972656 7.410156-3.457031 10.253906-2.484375 2.847656-5.929687 4.554687-9.695313 4.808594-3.765624.261719-7.410156-.972657-10.257812-3.457031l-17.433594-15.222657c-4.726562-4.125-10.375-7.007812-16.453125-8.429687-2.625-2.515625-5.332031-4.941406-8.15625-7.238282-8.121093-6.601562-16.921875-12.195312-26.371093-16.765624 9.070312-3.820313 18.949218-5.640626 28.828124-5.203126zm25.566407 252.25c7.242187 17.917969 6.625 44.734376-9.007813 67.320313-.039062.0625-.082031.121094-.121094.183594-3.0625 4.394531-6.679687 8.628906-10.933593 12.601562-2.820313 2.632813-6.496094 4.085938-10.355469 4.085938-4.253906 0-8.191406-1.710938-11.09375-4.816407-2.769531-2.960937-4.21875-6.824218-4.078125-10.878906.136719-4.050781 1.84375-7.804687 4.808594-10.574218 2.972656-2.777344 6.21875-6.886719 8.933593-11.808594.253907-.386719.46875-.789063.640626-1.203125 4.957031-9.539063 7.785156-21.851563 3.066406-33.539063-1.519532-3.757812-1.484375-7.882812.097656-11.613281 1.585938-3.730469 4.527344-6.621094 8.285156-8.140625 1.855469-.75 3.773438-1.105469 5.667969-1.105469 6.003906 0 11.707031 3.589844 14.089844 9.488281zm-57.972657 15.585938c4.75-1.625 9.4375-3.421875 14.058594-5.378906.355469 2.300781.972656 4.574218 1.863282 6.785156 1.5625 3.863281 1.578124 8.234375.644531 12.496094zm39.75-48.425781c.363282 2.96875-.011718 6.003906-1.117187 8.816406-2.03125.359375-4.050781.929687-6.039063 1.730469-7.011718 2.835937-12.59375 8.070312-15.855468 14.835937-9.765625 4.699219-19.941406 8.601563-30.347656 11.625l-17.4375-14.636719c28.253906-3.449218 52.140624-11.015624 70.796874-22.371093zm-249.019531-166.550781c-5.875 5.125-14.824219 4.523437-19.953125-1.351563-5.125-5.875-4.523437-14.824219 1.351563-19.953125l17.4375-15.21875c11.296875-9.863281 25.769531-15.667969 40.75-16.339844 9.902343-.4375 19.800781 1.390625 28.882812 5.226563-7.664062 3.703125-14.914062 8.054687-21.714843 13.089843-4.535157 3.363282-8.828126 7.003907-12.894532 10.898438-6.066406 1.421875-11.707031 4.304688-16.425781 8.425781zm-44.335937 116.199218-22.386719-18.78125c-3.03125-2.546875-4.894531-6.121094-5.238281-10.066406s.867187-7.789062 3.410156-10.820312l27.445312-32.707032c5.253907-6.265625 14.625-7.085937 20.886719-1.828125l15.527344 13.03125c.011719.007813.023437.015625.03125.023438l6.824219 5.726562zm11.488281 9.640625 46.503906-55.421875 24.617188 20.65625-31.925781 38.050782c-4.523438-3.917969-10.109376-6.394532-16.179688-7.109376-7.535156-.890624-14.972656 1.039063-21.09375 5.433594zm27.335937 82.414063c-.027343-.019532-.0625-.039063-.089843-.058594-23.992188-15.355469-24.601563-42.921875-22.828125-57.984375.347656-2.976563 1.542968-5.714844 3.425781-7.957031.007813-.011719.015625-.015625.019531-.023438.027344-.03125.046875-.0625.070313-.09375.640625-.75 1.359375-1.441406 2.152343-2.066406 3.179688-2.511719 7.148438-3.628906 11.175782-3.160156 4.027344.472656 7.628906 2.488281 10.140625 5.667968 2.511719 3.183594 3.632812 7.152344 3.160156 11.179688-1.675781 14.242188 1.371094 23.960938 9.046875 28.871094.03125.023437.066406.042968.101562.066406.632813.398438 1.328126.765625 2.046876 1.121094l9.914062 8.316406c-.152344 2.257812-.238281 4.515625-.238281 6.753906 0 6.261719.597656 12.394532 1.730469 18.363282-11.3125-.644532-21.546876-3.722657-29.828126-8.996094zm28.46875 82.5c-9.335937 0-19.117187-2.140625-29.910156-6.546875-5.429687-2.21875-8.046875-8.445313-5.828125-13.875 2.21875-5.433594 8.449219-8.046875 13.875-5.828125 12.292969 5.019531 25.824219 8.863281 44.5-1.945313 4.558594 5.625 9.703125 10.835938 15.355469 15.550781-12.894531 8.585938-25.148438 12.644532-37.992188 12.644532zm117.671876.605468c-54.644532 0-99.484376-38.371093-102.835938-86.664062l103.273438 86.65625c-.144532 0-.292969.007812-.4375.007812zm60.136718 57.125c-.628906 7.828126-7.265625 13.964844-15.105468 13.964844-.414063 0-.824219-.019531-1.238282-.050781-8.34375-.671875-14.582031-8.003906-13.914062-16.34375.867187-10.839844 1.363281-20.066406 1.519531-28.722656l29.230469 24.527343c-.152344 2.1875-.316406 4.394532-.492188 6.625zm-165.28125-165.304687c-.003906-.007813-.011718-.011719-.019531-.019531l-13.554687-11.371094c-.019532-.019531-.039063-.035156-.058594-.050781l-4.511719-3.785157c-.957031-2.265624-1.453125-6.269531-.730469-12.445312.546875-4.636719.019532-9.234375-1.484375-13.511719l34.640625-41.28125 169.496094 142.226563c-.992188 1.304687-2.019531 2.457031-3.042969 3.410156-12.160156 11.359375-12.8125 30.492188-1.453125 42.652344 5.6875 6.085937 13.726563 9.578125 22.058594 9.578125 7.671875 0 14.988281-2.886719 20.59375-8.125 2.976562-2.78125 5.691406-5.667969 8.167969-8.644531l1.644531 1.378906-46.503906 55.421875zm197.242188 164.472656 45.492187-54.214843c7.699219 8.046874 14.308594 17.039062 19.738281 26.859374l-35.355468 42.132813c-10.613282-3.644531-20.613282-8.59375-29.875-14.777344zm76.976562 18.402344c-3.792968 4.519531-10.890625 8.34375-19.4375 5.523437l-12.339844-4.070312 27.691407-33.003906 6.152343 11.445312c4.261719 7.929688 1.726563 15.582032-2.066406 20.105469zm-89.925781-325.441406v11.226562c0 4.140625 3.359375 7.5 7.5 7.5 4.144531 0 7.5-3.359375 7.5-7.5v-11.226562c0-4.144531-3.355469-7.5-7.5-7.5-4.140625 0-7.5 3.355469-7.5 7.5zm0 0"/></svg>