<svg viewBox="0 -2 512.00266 512" xmlns="http://www.w3.org/2000/svg"><path d="m136.953125 431.714844c-9.988281 0-20.292969-2.296875-31.28125-6.785156-8.863281-3.621094-13.113281-13.738282-9.492187-22.597657 3.617187-8.859375 13.734374-13.109375 22.59375-9.492187 16.273437 6.644531 31.070312 9.242187 60.648437-22.035156 6.578125-6.957032 17.546875-7.261719 24.5-.6875 6.957031 6.578124 7.261719 17.546874.683594 24.5-23.804688 25.175781-44.914063 37.097656-67.652344 37.097656zm0 0" fill="#495059"/><path d="m170.078125 357.214844c-32.683594 9.335937-68.640625 1.027344-96.179687-22.21875-9.140626-7.71875-10.296876-21.386719-2.578126-30.527344 7.71875-9.144531 21.386719-10.296875 30.527344-2.582031 6.179688 5.214843 28.5 21.617187 56.332032 13.667969 11.503906-3.289063 23.492187 3.375 26.777343 14.878906 3.285157 11.503906-3.375 23.492187-14.878906 26.78125zm0 0" fill="#ddaf89"/><path d="m158.179688 315.554688c-9.113282 2.601562-17.632813 2.585937-25.191407 1.214843-1.332031 6.492188-2.035156 13.179688-2.035156 20.019531 0 8.15625.996094 16.097657 2.871094 23.738282 12.144531 1.121094 24.414062.066406 36.253906-3.316406 11.503906-3.285157 18.164063-15.273438 14.878906-26.777344-3.285156-11.503906-15.273437-18.167969-26.777343-14.878906zm0 0" fill="#d1a582"/><g fill="#ddaf89"><path d="m338.46875 359.457031c-11.964844 0-21.664062-9.699219-21.664062-21.664062 0-11.964844 9.699218-21.660157 21.664062-21.660157 31.082031 0 47.1875-1.777343 66.46875-12.773437 10.394531-5.929687 23.621094-2.308594 29.550781 8.082031 5.929688 10.394532 2.308594 23.621094-8.085937 29.550782-29.988282 17.105468-56.453125 18.464843-87.933594 18.464843zm0 0"/><path d="m200.007812 500.203125c-11.203124 0-20.691406-8.625-21.574218-19.980469-2.269532-29.132812-1.359375-50.878906 3.140625-75.0625 2.191406-11.761718 13.496093-19.523437 25.261719-17.332031 11.761718 2.1875 19.523437 13.496094 17.335937 25.261719-3.8125 20.464844-4.523437 38.34375-2.542969 63.769531.925782 11.925781-7.992187 22.347656-19.917968 23.277344-.570313.046875-1.140626.066406-1.703126.066406zm0 0"/><path d="m298.722656 500.203125c-.566406 0-1.132812-.019531-1.707031-.066406-11.925781-.925781-20.84375-11.351563-19.914063-23.277344 1.976563-25.425781 1.265626-43.304687-2.542968-63.769531-2.191406-11.765625 5.570312-23.074219 17.332031-25.261719 11.757813-2.1875 23.070313 5.570313 25.261719 17.332031 4.5 24.183594 5.410156 45.929688 3.144531 75.0625-.886719 11.351563-10.375 19.980469-21.574219 19.980469zm0 0"/></g><path d="m365.816406 315.210938c-7.851562.714843-16.722656.921874-27.347656.921874-11.964844 0-21.664062 9.699219-21.664062 21.660157 0 11.964843 9.699218 21.664062 21.664062 21.664062 9.46875 0 18.484375-.125 27.277344-.761719 1.589844-7.078124 2.425781-14.402343 2.425781-21.902343 0-7.390625-.816406-14.605469-2.355469-21.582031zm0 0" fill="#d1a582"/><path d="m317.152344 405.160156c-2.191406-11.761718-13.503906-19.519531-25.261719-17.332031-11.761719 2.1875-19.523437 13.496094-17.332031 25.261719 1.851562 9.960937 2.964844 19.3125 3.402344 29.214844 15.40625-3.496094 29.636718-9.746094 42.023437-18.152344-.699219-6.28125-1.632813-12.550782-2.832031-18.992188zm0 0" fill="#d1a582"/><path d="m206.835938 387.828125c-11.765626-2.195313-23.070313 5.570313-25.261719 17.332031-1.195313 6.441406-2.132813 12.710938-2.832031 18.992188 12.390624 8.40625 26.617187 14.65625 42.027343 18.152344.433594-9.902344 1.546875-19.253907 3.402344-29.214844 2.1875-11.765625-5.574219-23.074219-17.335937-25.261719zm0 0" fill="#d1a582"/><path d="m354.96875 336.789062c0-52.742187-47.28125-95.5-105.605469-95.5s-105.605469 42.757813-105.605469 95.5c0 52.746094 47.28125 95.503907 105.605469 95.503907s105.605469-42.757813 105.605469-95.503907zm0 0" fill="#ddaf89"/><path d="m344.742188 275.472656c-25.878907 21.476563-59.121094 34.390625-95.378907 34.390625-36.257812 0-69.5-12.914062-95.378906-34.390625-5.503906 7.125-10.089844 14.882813-13.570313 23.144532-4.738281 11.253906-.367187 24.296874 10.164063 30.476562 28.988281 17.015625 62.746094 26.78125 98.785156 26.78125 36.042969 0 69.800781-9.765625 98.789063-26.78125 10.53125-6.179688 14.902344-19.222656 10.164062-30.476562-3.480468-8.261719-8.070312-16.019532-13.574218-23.144532zm0 0" fill="#7f9ae6"/><path d="m201.269531 301.949219c-17.429687-5.921875-33.414062-14.96875-47.285156-26.476563-5.503906 7.125-10.089844 14.882813-13.570313 23.144532-4.738281 11.253906-.367187 24.296874 10.164063 30.476562 15.070313 8.847656 31.441406 15.714844 48.746094 20.285156-6.351563-12.738281-4.550781-31.863281 1.945312-47.429687zm0 0" fill="#5e78bf"/><path d="m205.027344 132.9375c-4.804688 0-9.652344-1.464844-13.835938-4.503906l-29.007812-21.070313c-12.703125-9.226562-29.835938-8.460937-41.664063 1.863281l-18.992187 16.585938c-9.808594 8.5625-24.703125 7.550781-33.265625-2.253906-8.5625-9.8125-7.554688-24.703125 2.253906-33.269532l18.992187-16.582031c13.699219-11.957031 31.242188-18.988281 49.40625-19.804687 18.167969-.8125 36.269532 4.625 50.980469 15.308594l29.007813 21.074218c10.535156 7.652344 12.871094 22.394532 5.21875 32.929688-4.613282 6.351562-11.804688 9.722656-19.09375 9.722656zm0 0" fill="#495059"/><path d="m293.699219 132.9375c-7.292969 0-14.480469-3.371094-19.09375-9.722656-7.652344-10.535156-5.316407-25.277344 5.21875-32.929688l29.011719-21.074218c14.710937-10.683594 32.816406-16.117188 50.976562-15.308594 18.164062.816406 35.710938 7.847656 49.40625 19.804687l18.996094 16.582031c9.808594 8.566407 10.816406 23.457032 2.253906 33.265626-8.566406 9.808593-23.457031 10.820312-33.265625 2.253906l-18.992187-16.582032c-11.828126-10.324218-28.960938-11.09375-41.664063-1.863281l-29.007813 21.070313c-4.1875 3.039062-9.035156 4.503906-13.839843 4.503906zm0 0" fill="#495059"/><path d="m249.363281 319.664062c119.683594 0 173.621094-54.824218 156.789063-132.023437-18.089844-82.960937-75.070313-128.375-156.789063-128.375s-138.695312 45.414063-156.785156 128.375c-16.835937 77.199219 37.101563 132.023437 156.785156 132.023437zm0 0" fill="#ddaf89"/><path d="m278.863281 359.59375c0 16.289062-13.207031 29.5-29.5 29.5s-29.5-13.210938-29.5-29.5c0-16.292969 13.207031-29.5 29.5-29.5s29.5 13.207031 29.5 29.5zm0 0" fill="#f6e06a"/><path d="m192.015625 205.363281c0-13.96875-14.21875-25.289062-31.757813-25.289062-17.539062 0-31.753906 11.320312-31.753906 25.289062 0 13.964844 14.214844 25.289063 31.753906 25.289063 17.539063 0 31.757813-11.324219 31.757813-25.289063zm0 0" fill="#ffdbdb"/><path d="m370.226562 205.363281c0-13.96875-14.21875-25.289062-31.757812-25.289062s-31.753906 11.320312-31.753906 25.289062c0 13.964844 14.214844 25.289063 31.753906 25.289063s31.757812-11.324219 31.757812-25.289063zm0 0" fill="#ffdbdb"/><path d="m266.019531 184.457031c-10.921875-2.855469-22.390625-2.855469-33.308593 0-4.523438 1.1875-8.460938 3.96875-11.089844 7.832031-3.550782 5.222657-1.511719 12.378907 4.257812 14.945313l16 7.117187c4.765625 2.117188 10.207032 2.117188 14.972656 0l16-7.117187c5.765626-2.566406 7.804688-9.722656 4.257813-14.945313-2.628906-3.863281-6.570313-6.644531-11.089844-7.832031zm0 0" fill="#495059"/><path d="m178.765625 220.664062c-25.441406 0-46.136719-20.695312-46.136719-46.136718s20.695313-46.136719 46.136719-46.136719 46.136719 20.695313 46.136719 46.136719-20.695313 46.136718-46.136719 46.136718zm0-77.273437c-17.167969 0-31.136719 13.96875-31.136719 31.136719 0 17.167968 13.96875 31.136718 31.136719 31.136718s31.136719-13.96875 31.136719-31.136718c0-17.167969-13.96875-31.136719-31.136719-31.136719zm0 0" fill="#d16283"/><path d="m319.960938 220.664062c-25.4375 0-46.136719-20.695312-46.136719-46.136718s20.699219-46.136719 46.136719-46.136719c25.441406 0 46.136718 20.695313 46.136718 46.136719s-20.695312 46.136718-46.136718 46.136718zm0-77.273437c-17.167969 0-31.136719 13.96875-31.136719 31.136719 0 17.167968 13.96875 31.136718 31.136719 31.136718 17.171874 0 31.136718-13.96875 31.136718-31.136718 0-17.167969-13.964844-31.136719-31.136718-31.136719zm0 0" fill="#d16283"/><path d="m289.078125 158.863281h-79.390625c-4.140625 0-7.5-3.359375-7.5-7.5 0-4.144531 3.359375-7.5 7.5-7.5h79.390625c4.144531 0 7.5 3.355469 7.5 7.5 0 4.140625-3.355469 7.5-7.5 7.5zm0 0" fill="#d16283"/><path d="m249.363281 28.082031c12.238281-19.988281 46.796875-22.765625 69.3125-19.382812 4.546875.683593 5.589844 6.765625 1.570313 8.992187-17.488282 9.679688-26.035156 22.417969-26.222656 28.429688 53.652343-.691406 83.214843 44.242187 88.242187 72.605468.886719 5.007813-4.699219 8.585938-8.828125 5.613282-23.210938-16.699219-66.65625-41.339844-82.917969-41.605469.839844 9.308594-2.488281 22.582031-5.867187 31.847656-1.300782 3.570313-6.035156 4.265625-8.277344 1.203125-8.042969-10.976562-18.339844-25.382812-27.011719-28.222656-8.675781 2.839844-21.375 8.886719-30.28125 16.84375-2.882812 2.574219-7.457031 1.386719-8.761719-2.253906-1.878906-5.238282-2.855468-11.167969-2.109374-19.414063-15.515626.25-64.039063 23.371094-86.085938 36.917969-3.890625 2.390625-8.625-1.371094-7.175781-5.703125 8.5625-25.550781 37.394531-68.507813 89.753906-67.832031-.1875-6.015625-8.734375-18.75-26.222656-28.429688-4.019531-2.226562-2.976563-8.308594 1.570312-8.992187 22.515625-3.382813 57.074219-.605469 69.3125 19.382812zm0 0" fill="#dfe3e5"/><path d="m472.570312 386.390625-66.117187-11.65625c-7.464844-1.316406-12.449219-8.433594-11.132813-15.898437l15.824219-89.742188c1.316407-7.464844 8.433594-12.449219 15.898438-11.132812l66.117187 11.65625c7.464844 1.316406 12.449219 8.433593 11.132813 15.898437l-15.824219 89.742187c-1.316406 7.464844-8.433594 12.449219-15.898438 11.132813zm0 0" fill="#a0d9bb"/><path d="m477.453125 386.355469c-63.585937-20.976563-62.3125-88.546875-54.964844-128.421875-5.609375.902344-10.300781 5.246094-11.34375 11.160156l-15.824219 89.742188c-1.316406 7.464843 3.667969 14.582031 11.132813 15.898437l66.117187 11.65625c1.667969.292969 3.3125.257813 4.882813-.035156zm0 0" fill="#78bf9b"/><path d="m473.628906 308.75c-.433594 0-.871094-.039062-1.3125-.113281l-39.03125-6.882813c-4.078125-.71875-6.800781-4.609375-6.082031-8.691406.71875-4.078125 4.613281-6.796875 8.6875-6.082031l39.03125 6.882812c4.078125.71875 6.800781 4.609375 6.082031 8.6875-.640625 3.636719-3.804687 6.199219-7.375 6.199219zm0 0" fill="#f6e06a"/><path d="m456.171875 333.332031c-.433594 0-.871094-.039062-1.3125-.113281l-13.578125-2.394531c-4.078125-.71875-6.800781-4.609375-6.082031-8.6875.71875-4.082031 4.609375-6.804688 8.6875-6.085938l13.578125 2.394531c4.078125.71875 6.800781 4.609376 6.082031 8.6875-.640625 3.636719-3.804687 6.199219-7.375 6.199219zm0 0" fill="#f6e06a"/><path d="m327.460938 180.132812v-11.214843c0-4.140625-3.355469-7.5-7.5-7.5-4.140626 0-7.5 3.359375-7.5 7.5v11.214843c0 4.144532 3.359374 7.5 7.5 7.5 4.144531 0 7.5-3.355468 7.5-7.5zm-141.195313 0v-11.214843c0-4.140625-3.359375-7.5-7.5-7.5s-7.5 3.359375-7.5 7.5v11.214843c0 4.144532 3.359375 7.5 7.5 7.5s7.5-3.355468 7.5-7.5zm308.195313 82.097657-66.117188-11.65625c-5.582031-.984375-11.210938.265625-15.855469 3.515625s-7.746093 8.117187-8.730469 13.699218l-5.398437 30.625c-9.566406 5.066407-18.507813 7.75-30.667969 9.070313-.035156-2.246094-.308594-4.5-.832031-6.734375 11.445313-6.949219 21.09375-15.230469 28.808594-24.8125 19.261719-23.914062 25.421875-55 17.8125-89.898438-4.246094-19.472656-10.65625-37.1875-19.085938-52.878906 5.320313 3.894532 11.660157 5.96875 18.265625 5.96875.714844 0 1.429688-.023437 2.148438-.074218 8.28125-.558594 15.847656-4.3125 21.308594-10.566407 5.457031-6.25 8.15625-14.257812 7.59375-22.539062-.558594-8.28125-4.3125-15.847657-10.566407-21.308594l-18.992187-16.582031c-14.972656-13.070313-34.152344-20.757813-54.007813-21.648438-7.730469-.34375-15.472656.347656-23.0625 2.042969-9.367187-4.730469-19.882812-8.054687-31.523437-9.296875 3.421875-4.332031 9.242187-9.878906 18.320312-14.902344 4.628906-2.5625 7.109375-7.789062 6.171875-13-.949219-5.261718-4.976562-9.175781-10.257812-9.972656-18.835938-2.828125-52.320313-2.226562-70.429688 15.003906-18.109375-17.230468-51.597656-17.832031-70.429687-15.003906-5.28125.796875-9.308594 4.707031-10.257813 9.972656-.9375 5.210938 1.542969 10.4375 6.175781 13 9.0625 5.019532 14.882813 10.558594 18.308594 14.886719-11.84375 1.234375-22.390625 4.570313-31.730468 9.257813-7.519532-1.65625-15.191407-2.328126-22.847657-1.988282-19.855469.890625-39.035156 8.578125-54.003906 21.648438l-18.996094 16.582031c-12.90625 11.269531-14.238281 30.941406-2.96875 43.847656 6.132813 7.027344 14.757813 10.625 23.429688 10.625 6.40625 0 12.839843-1.96875 18.304687-5.96875-8.441406 15.699219-14.847656 33.402344-19.097656 52.898438-4.878906 22.363281-4.160156 43.050781 2.128906 61.484375 1.0625 3.117187 3.976563 5.078125 7.097656 5.078125.800782 0 1.621094-.128907 2.421876-.402344 3.917968-1.339844 6.011718-5.601563 4.675781-9.519531-5.394531-15.8125-5.957031-33.792969-1.671875-53.445313 5.328125-24.433593 14.230468-45.734375 26.445312-63.371093 24.25-14.851563 57.65625-29.546876 74.230469-34.15625.304687 4.570312 1.191406 8.820312 2.683594 12.976562 1.457031 4.070312 4.832031 7.136719 9.023437 8.199219 4.175782 1.0625 8.582032-.019531 11.789063-2.882813 7.265625-6.488281 17.390625-11.558594 24.910156-14.359375 6.128906 3.796875 14.941406 15.839844 20.433594 23.339844l.902343 1.234375c2.675782 3.648438 7.113282 5.519531 11.585938 4.882812 4.484375-.640624 8.234375-3.683593 9.789062-7.945312 1.367188-3.75 5.050782-14.621094 6.144532-25.472656 17.207031 5.191406 49.871094 23.390625 71.214844 38.746094 2.296874 1.652343 4.976562 2.484374 7.667968 2.484374.082032 0 .164063-.003906.246094-.007812 9.871094 16.164062 17.21875 35.078125 21.851562 56.332031 6.609376 30.308594 1.480469 57.035157-14.835937 77.292969-7.503906 9.316406-17.199219 17.261719-28.933594 23.785156-.109375.039063-.21875.074219-.328125.125-.496094.214844-.953125.480469-1.375.785156-25.726562 13.777344-60.890625 20.9375-103.984375 20.9375-43.078125 0-78.320312-7.1875-104.089843-21.011718-.390626-.269532-.816407-.511719-1.269532-.710938-.027344-.011718-.054687-.019531-.082031-.03125-10.835937-5.988281-19.960937-13.171875-27.214844-21.527344-2.71875-3.128906-7.453125-3.460937-10.582031-.746093-3.125 2.714843-3.460938 7.453125-.746094 10.582031 7.296875 8.398438 16.171875 15.738281 26.496094 22.007812-.621094 2.628907-.898438 5.296876-.839844 7.941407-12.359375-3.089844-21.433594-10.046875-24.351562-12.511719-6.332032-5.34375-14.296875-7.511719-21.949219-6.683594-3.367187-15.839844-13.421875-29.679687-27.433594-37.769531 10.816407-12.890625 15.511719-30.167969 12.578125-46.808594l-5.117187-29.019531c-.71875-4.078125-4.609375-6.800781-8.6875-6.082031s-6.804688 4.609375-6.085938 8.6875l1.238281 7.023437-35.101562 6.1875-1.238281-7.023437c-.71875-4.078125-4.605469-6.800781-8.6875-6.082031-4.078125.71875-6.804688 4.609374-6.085938 8.6875l2.542969 14.40625v.003906.003906l2.574219 14.605469c2.9375 16.644531 13.257812 31.273437 27.828125 39.6875-10.816406 12.886719-15.511719 30.164062-12.578125 46.808593l5.117187 29.019532c.644532 3.636718 3.808594 6.199218 7.378906 6.199218.433594 0 .871094-.039062 1.3125-.117187 4.078126-.71875 6.800782-4.609375 6.082032-8.6875l-1.238282-7.023437 19.597657-3.457032c.085937 8.195313 3.589843 16.3125 10.328125 22.003906 20.941406 17.675782 46.546875 27.398438 72.667968 27.71875 2.136719 6.007813 4.859376 11.78125 8.113282 17.25-11.410156 6.113282-19.101563 3.929688-28.230469.199219-6.140625-2.503906-12.890625-2.472656-19.003906.097657-6.117188 2.566406-10.863281 7.363281-13.371094 13.503906s-2.472656 12.890625.09375 19.003906c2.570313 6.113281 7.367187 10.863281 13.507813 13.371094 12.097656 4.941406 23.257812 7.34375 34.117187 7.34375 11.433594 0 22.53125-2.730469 33.621094-8.265625-1.21875 15.3125-1.070313 31.191406.378906 49.851562 1.175781 15.085938 13.9375 26.902344 29.054687 26.902344.753907 0 1.523438-.03125 2.285157-.089844 16.03125-1.25 28.058593-15.308593 26.8125-31.339843-1.164063-14.964844-1.363281-26.882813-.589844-38.242188 6.761719 1.152344 13.726563 1.761719 20.847656 1.761719 7.121094 0 14.089844-.609375 20.847657-1.761719.773437 11.359375.574218 23.277344-.589844 38.242188-1.246094 16.035156 10.78125 30.089843 26.8125 31.339843.761718.058594 1.53125.089844 2.289062.089844 8.207032 0 16.085938-3.503906 21.609375-9.609375 2.777344-3.070312 2.542969-7.8125-.527343-10.59375-3.074219-2.777344-7.816407-2.542969-10.59375.53125-2.9375 3.246094-7.210938 4.972656-11.613282 4.625-7.785156-.605469-13.625-7.433594-13.019531-15.21875 1.289063-16.554688 1.425781-30.078125.410156-42.882812 9.730469-2.949219 18.878907-7.070313 27.238281-12.179688 1.617188 13.253906 2.097657 26.378906 1.539063 41.203125-.15625 4.140625 3.070313 7.621094 7.210937 7.777344.09375.003906.191407.007812.289063.007812 4.011719 0 7.335937-3.175781 7.488281-7.21875.703125-18.652343-.148437-34.785156-2.753906-51.671875 14.628906-12.296875 25.695312-28.050781 31.617188-45.828125 11.5625-.457031 21.1875-1.488281 30.113281-3.253906.363281 3.558594 1.613281 6.988281 3.71875 10 3.253906 4.640625 8.117187 7.742187 13.703125 8.726563l66.117187 11.65625c1.242188.21875 2.492188.328124 3.730469.328124 4.3125 0 8.519531-1.316406 12.125-3.84375 4.644531-3.25 7.742188-8.117187 8.730469-13.699218l15.824219-89.742188c2.03125-11.523437-5.691407-22.550781-17.21875-24.585937zm-397.867188-142.070313c-6.675781 5.832032-16.851562 5.140625-22.683594-1.535156-5.828125-6.679688-5.140625-16.855469 1.539063-22.683594l18.992187-16.582031c12.421875-10.847656 28.335938-17.226563 44.808594-17.964844.921875-.039062 1.84375-.0625 2.765625-.070312-17.371094 14.785156-28.34375 33.9375-33.554687 48.476562zm194.046875-44.921875c-.042969 0-.082031 0-.125 0-2.082031 0-4.074219.867188-5.492187 2.394531-1.449219 1.558594-2.167969 3.660157-1.976563 5.777344.59375 6.574219-1.414063 15.976563-3.777344 23.640625-8.425781-11.4375-17.808593-23.417969-27.574219-26.613281-1.515624-.496094-3.148437-.496094-4.667968 0-8.6875 2.84375-20.921875 8.539062-30.527344 16.324219-1.03125-4-1.28125-8.242188-.820312-13.351563.1875-2.117187-.527344-4.21875-1.976563-5.777344-1.449219-1.558593-3.496094-2.421874-5.617187-2.394531-16.222657.261719-59.441407 20.539063-83.351563 34.171875 6.71875-15.46875 20.015625-34.769531 40.660156-46.140625.410157-.171875.804688-.382812 1.175781-.621093 10.441407-5.527344 22.707032-9.035157 36.914063-9.035157.371094 0 .75 0 1.121094.003907 2.0625.035156 4.015625-.785157 5.449219-2.246094 1.433593-1.460938 2.210937-3.441406 2.144531-5.488282-.320313-10.238281-11.15625-22.238281-23.371094-30.601562 19.164063-1.355469 45.066406 1.902344 54.140625 16.714844 1.363281 2.226562 3.785156 3.582031 6.394531 3.582031s5.03125-1.355469 6.394531-3.582031c9.074219-14.8125 34.96875-18.070313 54.140626-16.714844-12.214844 8.363281-23.050782 20.363281-23.371094 30.601562-.066406 2.046876.707031 4.027344 2.144531 5.488282 1.433594 1.460937 3.421875 2.289062 5.445313 2.246094.386718-.003907.761718-.003907 1.144531-.003907 14.207031 0 26.359375 3.429688 36.589843 8.859375.472657.335938.988282.613282 1.53125.835938 23.265626 13.035156 36.21875 36.394531 40.464844 52.152344-22.144531-15.277344-64.582031-39.917969-83.207031-40.222657zm65.660156-13.90625c1.058594 0 2.117188.015625 3.175781.066407 16.472657.738281 32.386719 7.117187 44.808594 17.960937l18.992188 16.582031c3.234375 2.824219 5.175781 6.738282 5.464844 11.023438.292968 4.285156-1.101563 8.425781-3.929688 11.660156-2.824219 3.234375-6.738281 5.175781-11.019531 5.464844-4.285157.285156-8.425781-1.105469-11.660157-3.929688l-15.152343-13.230468c-5.066407-15.558594-15.433594-32.480469-30.679688-45.597657zm-294.804687 213.347657-24.515625 4.320312c1.90625-5.507812 4.929687-10.640625 8.976562-14.984375l.855469-.921875 1.125.574219c5.285156 2.699219 9.882812 6.484375 13.558594 11.011719zm-41.492188-60.992188-1.273437-7.222656 35.105469-6.191406 1.273437 7.222656c.324219 1.84375.507813 3.695312.582031 5.542968l-34.339844 6.058594c-.5625-1.765625-1.019531-3.570312-1.347656-5.410156zm8.863282 19.3125 24.519531-4.320312c-1.90625 5.507812-4.929688 10.640624-8.976563 14.984374l-.859375.921876-1.121093-.570313c-5.289063-2.699219-9.886719-6.488281-13.5625-11.015625zm36.722656 66.628906c-.828125.980469-1.570313 2-2.242188 3.050782l-26.816406 4.726562-1.273438-7.222656c-.328124-1.839844-.511718-3.691406-.585937-5.542969l34.339844-6.054687c.5625 1.765624 1.023437 3.566406 1.347656 5.410156l.175781 1.003906c-1.785156 1.320312-3.453125 2.859375-4.945312 4.628906zm13.148437 29.636719c-3.96875-3.355469-5.621093-8.4375-4.804687-13.222656l.304687-.054688 1.238281 7.023438c.640626 3.640625 3.804688 6.199219 7.375 6.199219.433594 0 .871094-.035157 1.3125-.113282 4.078126-.71875 6.804688-4.609375 6.085938-8.6875l-2.542969-14.40625c0-.003906 0-.003906 0-.003906v-.003906l-.296875-1.683594c3.382813-.113281 6.816406.957031 9.601563 3.308594 5.433593 4.589844 19.585937 14.933594 38.765625 17.140625.335937.550781.691406 1.085937 1.0625 1.613281-.382813 3.464844-.582032 6.957031-.582032 10.417969 0 5.621093.507813 11.136719 1.460938 16.515625-21.195312-1.210938-41.839844-9.574219-58.980469-24.042969zm170.625 8.328125c12.128907 0 22 9.871094 22 22s-9.871093 22-22 22c-12.128906 0-22-9.871094-22-22s9.871094-22 22-22zm-103.328125-29.359375c23.277344 10.71875 52.3125 16.988281 86.277344 18.539063-7.625 3.976562-13.699219 10.527343-17.058594 18.496093-21.5-3.9375-41.953125-11.53125-60.882812-22.640625-1.585938-.933594-2.960938-2.105468-4.121094-3.429687-.011719-.011719-.023438-.027344-.035156-.039063-2.648438-3.042968-4.125-6.929687-4.179688-10.925781zm-9.082031 115.980469c-8.875 0-18.179687-2.035156-28.445313-6.230469-2.433593-.992187-4.332031-2.871094-5.347656-5.292969-1.019531-2.421875-1.03125-5.09375-.039062-7.523437.992187-2.429688 2.871094-4.328125 5.292968-5.347657 2.421876-1.015624 5.09375-1.03125 7.523438-.039062 11.769531 4.808594 24.71875 8.492188 42.554688-1.734375 4.230468 5.191406 8.984374 10.011719 14.191406 14.390625-12.050782 7.917969-23.769532 11.777344-35.730469 11.777344zm64.175781 68.445312c-7.816406.605469-14.621094-5.324218-15.21875-13.019531-1.726562-22.175781-1.585937-39.605469.585938-57.265625 8.363281 5.109375 17.511718 9.230469 27.242187 12.179688-1.015625 12.808593-.875 26.328124.410157 42.886718.609374 7.785156-5.234376 14.613282-13.019532 15.21875zm48.234375-67.867187c-53.597656 0-97.289062-38.757813-98.085937-86.667969 19.125 10.585938 39.628906 17.914062 61.097656 21.863281.214844 20.21875 16.71875 36.605469 36.988281 36.605469s36.777344-16.386719 36.988281-36.605469c21.46875-3.949219 41.972657-11.277343 61.097657-21.863281-.796875 47.910156-44.488281 86.667969-98.085938 86.667969zm99.148438-105.636719c-.011719.015625-.023438.027344-.035157.042969-1.160156 1.324219-2.535156 2.496093-4.121093 3.425781-18.925781 11.109375-39.382813 18.707031-60.878907 22.640625-3.363281-7.96875-9.4375-14.515625-17.0625-18.492187 34.007813-1.546876 63.019532-7.8125 86.277344-18.523438-.058594 3.992188-1.535156 7.875-4.179687 10.90625zm41.171875 28.464844c-8.441406 2.011718-17.425782 3.230468-28.367188 3.835937.753906-4.792969 1.152344-9.6875 1.152344-14.667969 0-3.460937-.195312-6.949218-.578125-10.414062.785156-1.125 1.496094-2.292969 2.128906-3.5 12.140625-.941406 21.921875-2.953125 31.179688-6.542969zm107.222656-63.40625-15.824219 89.742187c-.289062 1.636719-1.199219 3.0625-2.558593 4.015625-1.363282.957032-3.015626 1.320313-4.652344 1.03125l-66.113282-11.65625c-1.640624-.289062-3.066406-1.199218-4.019531-2.558594-.953125-1.363281-1.320312-3.015624-1.03125-4.652343l15.824219-89.742188c.289062-1.636719 1.195312-3.0625 2.558594-4.015625 1.363281-.953125 3.011718-1.320312 4.648437-1.03125l66.117188 11.65625c3.382812.597656 5.644531 3.832032 5.050781 7.210938zm-277.417969-52.132813c-2.722656-3.125-7.457031-3.449219-10.582031-.726562-3.121094 2.722656-3.445312 7.460937-.722656 10.582031 10.386718 11.921875 25.398437 18.757812 41.179687 18.757812 15.785157 0 30.796875-6.835937 41.183594-18.757812 2.722656-3.121094 2.398437-7.859375-.726563-10.582031-3.121093-2.722657-7.859374-2.394531-10.582031.726562-5.867187 6.730469-13.765625 11.21875-22.375 12.882813v-22.644532c1.03125-.308593 2.042969-.675781 3.035157-1.117187l16-7.113281c4.785156-2.128906 8.351562-6.238282 9.789062-11.277344 1.433594-5.035156.570312-10.410156-2.375-14.738281-3.648438-5.367188-9.117188-9.226563-15.394531-10.871094-12.136719-3.175781-24.96875-3.179687-37.105469 0-6.277344 1.644531-11.746094 5.503906-15.394531 10.867187-2.945313 4.332032-3.808594 9.707032-2.375 14.742188 1.4375 5.039062 5.003906 9.144531 9.789062 11.277344l16 7.113281c.992188.441406 2.003907.808594 3.03125 1.117187v22.644532c-8.605469-1.664063-16.507812-6.152344-22.375-12.882813zm9.4375-31.699219c-.976562-.433593-1.332031-1.238281-1.457031-1.679687s-.246094-1.3125.351562-2.195313c1.609376-2.367187 4.019532-4.066406 6.789063-4.792968 4.824219-1.261719 9.789063-1.894532 14.753906-1.894532 4.964844 0 9.929688.632813 14.753907 1.894532 2.769531.726562 5.179687 2.425781 6.785156 4.792968.601562.882813.480468 1.753907.355468 2.195313s-.480468 1.246094-1.457031 1.679687l-16 7.113282c-2.820312 1.253906-6.054687 1.253906-8.875 0zm0 0"/></svg>