<svg viewBox="-30 0 511 511.99997" xmlns="http://www.w3.org/2000/svg"><path d="m178.34375 92.808594c-5.179688 0-10.40625-1.578125-14.921875-4.855469l-31.277344-22.722656c-13.699219-9.949219-32.175781-9.121094-44.929687 2.011719l-20.476563 17.882812c-10.578125 9.234375-26.640625 8.144531-35.875-2.429688-9.234375-10.578124-8.144531-26.636718 2.433594-35.875l20.480469-17.878906c14.769531-12.894531 33.6875-20.480468 53.277344-21.359375 19.589843-.875 39.109374 4.988281 54.972656 16.511719l31.277344 22.71875c11.363281 8.253906 13.882812 24.152344 5.628906 35.511719-4.972656 6.847656-12.726563 10.484375-20.589844 10.484375zm0 0" fill="#495059"/><path d="m273.960938 92.808594c-7.863282 0-15.613282-3.636719-20.589844-10.484375-8.25-11.359375-5.730469-27.257813 5.628906-35.507813l31.28125-22.722656c15.863281-11.523438 35.390625-17.378906 54.972656-16.507812 19.585938.875 38.507813 8.460937 53.277344 21.355468l20.480469 17.882813c10.574219 9.234375 11.664062 25.292969 2.429687 35.871093-9.234375 10.574219-25.292968 11.664063-35.871094 2.429688l-20.480468-17.882812c-12.753906-11.136719-31.230469-11.960938-44.925782-2.011719l-31.28125 22.722656c-4.511718 3.277344-9.738281 4.855469-14.921874 4.855469zm0 0" fill="#495059"/><path d="m226.152344 294.164062c129.058594 0 187.222656-59.121093 169.070312-142.367187-19.507812-89.460937-80.949218-138.429687-169.070312-138.429687-88.117188 0-149.558594 48.96875-169.066406 138.429687-18.152344 83.246094 40.007812 142.367187 169.066406 142.367187zm0 0" fill="#ddaf89"/><path d="m164.859375 174.085938c0-14.925782-15.195313-27.027344-33.941406-27.027344-18.742188 0-33.9375 12.101562-33.9375 27.027344 0 14.925781 15.195312 27.027343 33.9375 27.027343 18.746093 0 33.941406-12.101562 33.941406-27.027343zm0 0" fill="#ffdbdb"/><path d="m355.328125 174.085938c0-14.925782-15.195313-27.027344-33.941406-27.027344-18.742188 0-33.9375 12.101562-33.9375 27.027344 0 14.925781 15.195312 27.027343 33.9375 27.027343 18.746093 0 33.941406-12.101562 33.941406-27.027343zm0 0" fill="#ffdbdb"/><path d="m243.953125 151.746094c-11.667969-3.054688-23.929687-3.054688-35.597656 0-4.832031 1.265625-9.042969 4.238281-11.855469 8.371094-3.792969 5.578124-1.613281 13.230468 4.550781 15.972656l17.101563 7.601562c5.09375 2.265625 10.90625 2.265625 16 0l17.101562-7.601562c6.164063-2.742188 8.34375-10.394532 4.550782-15.972656-2.808594-4.132813-7.019532-7.105469-11.851563-8.371094zm0 0" fill="#495059"/><path d="m392.238281 336.695312v-63.710937c-17.492187-46.769531-137.75-36.828125-166.082031-18.789063-28.335938-18.039062-148.59375-27.980468-166.085938 18.789063v63.710937zm0 0" fill="#f3e5b7"/><path d="m201.089844 504.5h-145.554688c-13.636718 0-24.6875-11.054688-24.6875-24.6875v-182.144531c0-13.632813 11.050782-24.6875 24.6875-24.6875h145.554688zm0 0" fill="#7f9ae6"/><path d="m107.644531 272.980469h-52.109375c-13.636718 0-24.6875 11.054687-24.6875 24.6875v182.144531c0 13.632812 11.050782 24.683594 24.6875 24.683594h128.558594c-66.125-58.707032-75.234375-174.945313-76.449219-231.515625zm0 0" fill="#5e78bf"/><path d="m396.773438 504.5h-145.554688v-231.519531h145.554688c13.632812 0 24.6875 11.054687 24.6875 24.6875v182.144531c0 13.632812-11.050782 24.6875-24.6875 24.6875zm0 0" fill="#7f9ae6"/><path d="m372.320312 322.699219h-71.960937c-5.445313 0-9.859375 4.414062-9.859375 9.863281v20.410156c0 5.445313 4.414062 9.859375 9.859375 9.859375h71.960937c5.441407 0 9.859376-4.414062 9.859376-9.859375v-20.410156c0-5.445312-4.414063-9.863281-9.859376-9.863281zm0 0" fill="#fff"/><path d="m201.089844 272.980469h50.128906v231.519531h-50.128906zm0 0" fill="#a2d3ee"/><path d="m39.5 377.117188c-1.917969 0-3.863281-.238282-5.808594-.742188-2.914062-.753906-7.066406-1.890625-10.296875-3.039062-12.046875-4.285157-18.339843-17.523438-14.054687-29.574219 4.28125-12.046875 17.519531-18.335938 29.570312-14.058594.980469.351563 3.328125 1.054687 6.367188 1.839844 12.382812 3.199219 19.824218 15.828125 16.625 28.210937-2.699219 10.433594-12.097656 17.363282-22.402344 17.363282zm0 0" fill="#ddaf89"/><path d="m412.804688 377.117188c-10.300782 0-19.699219-6.925782-22.398438-17.363282-3.199219-12.382812 4.242188-25.011718 16.621094-28.210937 3.039062-.785157 5.390625-1.488281 6.371094-1.835938 12.046874-4.285156 25.285156 2.011719 29.570312 14.058594s-2.011719 25.285156-14.058594 29.570313c-3.226562 1.148437-7.378906 2.285156-10.296875 3.039062-1.941406.503906-3.890625.742188-5.808593.742188zm0 0" fill="#ddaf89"/><path d="m450.035156 341.25c-3.515625-9.886719-11.621094-16.847656-21.074218-19.355469v-24.222656c0-17.652344-14.285157-32.027344-31.902344-32.183594-3.414063-6.398437-8.597656-11.941406-15.484375-16.597656 22.179687-25.964844 29.441406-59.867187 20.976562-98.691406-4.828125-22.136719-12.117187-41.941407-21.796875-59.328125 6.210938 5.375 13.878906 8.011718 21.515625 8.011718 9.183594 0 18.324219-3.8125 24.820313-11.253906 11.941406-13.675781 10.527344-34.515625-3.144532-46.453125l-20.484374-17.882812c-16.042969-14.007813-36.59375-22.246094-57.871094-23.199219-19.683594-.878906-39.347656 4.527344-55.832032 15.273438-19.304687-6.316407-40.550781-9.5-63.605468-9.5-23.050782 0-44.296875 3.183593-63.601563 9.5-16.484375-10.746094-36.15625-16.148438-55.832031-15.273438-21.277344.953125-41.832031 9.191406-57.875 23.195312l-20.480469 17.882813c-13.675781 11.941406-15.085937 32.78125-3.148437 46.457031 6.5 7.441406 15.636718 11.253906 24.820312 11.253906 7.636719 0 15.304688-2.640624 21.515625-8.007812-9.675781 17.382812-16.96875 37.1875-21.792969 59.324219-3.890624 17.839843-4.460937 34.824219-1.691406 50.476562.722656 4.082031 4.609375 6.800781 8.691406 6.082031 4.078126-.722656 6.800782-4.613281 6.078126-8.695312-2.425782-13.714844-1.894532-28.746094 1.578124-44.667969 8.082032-37.0625 23.4375-66.960937 45.71875-89.097656.140626-.132813.273438-.269531.40625-.410156 3.21875-3.171875 6.578126-6.183594 10.082032-9.03125 12.644531-10.28125 26.910156-18.242188 42.6875-23.875.480468-.117188.945312-.285157 1.394531-.496094 18.476563-6.394531 39.007813-9.617187 61.453125-9.617187 22.4375 0 42.972656 3.222656 61.445312 9.617187.449219.210937.917969.378906 1.398438.5 15.78125 5.628906 30.042969 13.589844 42.6875 23.871094 3.507812 2.851562 6.875 5.867187 10.097656 9.042969.125.136718.253906.269531.386719.394531 22.285156 22.140625 37.640625 52.039062 45.722656 89.101562 7.691407 35.273438.769531 65.683594-19.996093 88.308594-1.960938-.800781-3.984376-1.566406-6.105469-2.273437-43.28125-14.484376-109.625-6.789063-135.636719 6.179687-26.011719-12.96875-92.359375-20.667969-135.636719-6.179687-2.125.707031-4.148437 1.472656-6.105469 2.273437-4.511718-4.914063-8.414062-10.207031-11.609374-15.804687-2.050782-3.597657-6.632813-4.847657-10.230469-2.796876-3.597657 2.054688-4.847657 6.632813-2.796875 10.230469 3.117187 5.457031 6.792968 10.65625 10.964844 15.550781-6.890626 4.660157-12.078126 10.203126-15.492188 16.605469-17.617188.15625-31.902344 14.53125-31.902344 32.183594v24.222656c-9.453125 2.507813-17.558594 9.46875-21.074218 19.355469-5.664063 15.925781 2.6875 33.488281 18.613281 39.152344.78125.277344 1.613281.554687 2.460937.824218v98.585938c0 17.75 14.441406 32.1875 32.1875 32.1875h341.242188c17.746094 0 32.183594-14.4375 32.183594-32.1875v-3.527344c0-4.140625-3.355469-7.5-7.5-7.5-4.140626 0-7.5 3.359375-7.5 7.5v3.527344c0 9.476562-7.707032 17.1875-17.183594 17.1875h-138.058594v-216.515625h133.496094.023437.046875 4.488282c9.476562 0 17.1875 7.707031 17.1875 17.1875v24.054687c-1.03125.246094-2.058594.550782-3.082032.914063-.660156.234375-2.730468.867187-5.726562 1.640625-16.363282 4.230469-26.238282 20.984375-22.007813 37.351562 3.5 13.53125 15.695313 22.984376 29.660157 22.984376.386718 0 .773437-.019532 1.15625-.035157v59.378907c0 4.140624 3.359374 7.5 7.5 7.5 4.144531 0 7.5-3.359376 7.5-7.5v-62.734376c.847656-.269531 1.679687-.542968 2.464843-.824218 15.921875-5.664063 24.273438-23.226563 18.609375-39.152344zm-338.875-298.035156c-3.386718 2.753906-6.640625 5.644531-9.78125 8.664062-7.03125 1.59375-13.59375 4.910156-19.09375 9.714844l-20.480468 17.878906c-7.445313 6.5-18.789063 5.730469-25.289063-1.710937-6.5-7.445313-5.730469-18.789063 1.714844-25.289063l20.480469-17.882812c13.496093-11.78125 30.78125-18.710938 48.675781-19.515625 12.78125-.570313 25.546875 2.023437 37.085937 7.390625-11.996094 5.542968-23.117187 12.460937-33.3125 20.75zm239.769532 8.664062c-3.140626-3.019531-6.394532-5.910156-9.78125-8.664062-10.195313-8.289063-21.316407-15.207032-33.3125-20.75 11.542968-5.367188 24.308593-7.960938 37.082031-7.386719 17.898437.800781 35.1875 7.730469 48.679687 19.511719l20.484375 17.882812c7.441407 6.5 8.210938 17.84375 1.710938 25.289063-6.496094 7.441406-17.84375 8.210937-25.289063 1.714843l-20.480468-17.882812c-5.5-4.800781-12.0625-8.121094-19.09375-9.714844zm-325.019532 314.390625c-8.132812-2.890625-12.398437-11.863281-9.503906-19.992187 2.273438-6.40625 8.324219-10.410156 14.765625-10.410156 1.734375 0 3.496094.289062 5.222656.902343 1.402344.5 4.089844 1.28125 7.007813 2.035157 8.355468 2.160156 13.398437 10.714843 11.238281 19.070312-1.785156 6.914062-8.011719 11.742188-15.140625 11.742188-1.3125 0-2.636719-.167969-3.929688-.503907-2.769531-.714843-6.691406-1.789062-9.660156-2.84375zm167.679688 130.730469h-138.054688c-9.480468 0-17.1875-7.710938-17.1875-17.1875v-95.230469c.382813.015625.769532.035157 1.152344.035157 13.96875 0 26.164062-9.453126 29.664062-22.988282 4.230469-16.363281-5.644531-33.117187-22.007812-37.347656-2.996094-.773438-5.066406-1.40625-5.734375-1.644531-1.019531-.359375-2.046875-.664063-3.074219-.914063v-24.050781c0-9.480469 7.710938-17.1875 17.1875-17.1875h138.054688zm50.128906 0h-35.128906v-216.515625h35.128906zm7.507812-231.515625c-.003906 0-.003906 0-.007812 0s-.007812 0-.011719 0h-50.109375c-.003906 0-.003906 0-.007812 0s-.007813 0-.011719 0h-127.132813c3.097657-2.976563 7.039063-5.636719 11.808594-7.96875.160156-.070313.320313-.144531.476563-.226563 2.753906-1.316406 5.757812-2.535156 9.046875-3.636718 40.515625-13.558594 107.71875-5.308594 126.847656 6.871094 2.457031 1.5625 5.597656 1.5625 8.054688 0 19.132812-12.179688 86.332031-20.429688 126.851562-6.871094 3.289062 1.101562 6.296875 2.320312 9.046875 3.636718.144531.078126.292969.144532.441406.210938 4.78125 2.335938 8.738281 5 11.84375 7.984375zm175.171876 100.785156c-2.96875 1.054688-6.890626 2.128907-9.65625 2.84375-1.296876.335938-2.621094.503907-3.9375.503907-7.125 0-13.351563-4.828126-15.136719-11.742188-2.160157-8.355469 2.882812-16.910156 11.238281-19.070312 2.917969-.753907 5.601562-1.535157 7.003906-2.03125 1.726563-.617188 3.492188-.90625 5.230469-.90625 6.4375 0 12.484375 4.003906 14.765625 10.410156 2.886719 8.128906-1.375 17.101562-9.507812 19.992187zm-232.5625-163.285156c-2.722657-3.125-7.460938-3.449219-10.582032-.726563-3.121094 2.71875-3.449218 7.457032-.726562 10.582032 11.007812 12.628906 26.90625 19.871094 43.628906 19.871094 16.71875 0 32.621094-7.242188 43.625-19.871094 2.71875-3.125 2.394531-7.863282-.726562-10.582032-3.125-2.722656-7.859376-2.398437-10.582032.726563-6.488281 7.441406-15.269531 12.347656-24.820312 14.050781v-25.207031c1.207031-.347656 2.390625-.765625 3.550781-1.28125l17.097656-7.605469c4.976563-2.210937 8.683594-6.484375 10.175781-11.71875 1.492188-5.238281.59375-10.824218-2.46875-15.324218-3.828124-5.632813-9.566406-9.683594-16.152343-11.40625-12.890625-3.375-26.511719-3.375-39.398438 0-6.589843 1.722656-12.328125 5.773437-16.15625 11.40625-3.058593 4.5-3.960937 10.085937-2.46875 15.324218 1.492188 5.234375 5.199219 9.507813 10.175781 11.71875l17.101563 7.605469c1.15625.515625 2.34375.933594 3.546875 1.28125v25.207031c-9.550781-1.703125-18.332031-6.609375-24.820312-14.050781zm10.265624-33.75c-1.234374-.546875-1.6875-1.566406-1.84375-2.125-.160156-.558594-.3125-1.660156.445313-2.777344 1.789063-2.632812 4.472656-4.523437 7.550781-5.332031 5.203125-1.359375 10.550782-2.042969 15.902344-2.042969 5.347656 0 10.699219.683594 15.898438 2.042969 3.078124.804688 5.761718 2.699219 7.550781 5.332031.757812 1.117188.605469 2.21875.445312 2.777344-.15625.558594-.609375 1.574219-1.84375 2.125l-17.097656 7.605469c-3.148437 1.398437-6.761719 1.398437-9.90625 0zm105.007813-22.113281v-11.984375c0-4.140625-3.359375-7.5-7.5-7.5-4.144531 0-7.5 3.359375-7.5 7.5v11.984375c0 4.144531 3.355469 7.5 7.5 7.5 4.140625 0 7.5-3.355469 7.5-7.5zm-150.910156 0v-11.984375c0-4.140625-3.359375-7.5-7.5-7.5s-7.5 3.359375-7.5 7.5v11.984375c0 4.144531 3.359375 7.5 7.5 7.5s7.5-3.355469 7.5-7.5zm209.773437 245.40625c0-4.144532-3.355468-7.5-7.5-7.5h-48.269531c-4.140625 0-7.5 3.355468-7.5 7.5 0 4.140625 3.359375 7.5 7.5 7.5h48.269531c4.144532 0 7.5-3.359375 7.5-7.5zm-42.140625 20.167968c-4.140625 0-7.5 3.355469-7.5 7.5 0 4.140626 3.359375 7.5 7.5 7.5h21.015625c4.140625 0 7.5-3.359374 7.5-7.5 0-4.144531-3.359375-7.5-7.5-7.5zm0 0"/></svg>