<svg viewBox="-93 0 512 512" xmlns="http://www.w3.org/2000/svg"><path d="m62.988281 464.613281c-1.085937 0-2.1875-.019531-3.304687-.054687-7.953125-.28125-14.175782-6.953125-13.898438-14.90625.28125-7.953125 6.9375-14.167969 14.90625-13.894532 14.59375.503907 26.894532-1.71875 40.988282-34.621093 3.132812-7.316407 11.601562-10.703125 18.917968-7.570313 7.316406 3.132813 10.707032 11.601563 7.574219 18.917969-15.761719 36.796875-34.804687 52.128906-65.183594 52.128906zm0 0" fill="#495059"/><g fill="#ddaf89"><path d="m121.570312 504.5c-9.3125 0-17.203124-7.171875-17.9375-16.613281-1.886718-24.222657-1.128906-42.304688 2.613282-62.410157 1.820312-9.78125 11.222656-16.234374 21.003906-14.410156 9.777344 1.820313 16.230469 11.222656 14.410156 21-3.167968 17.019532-3.757812 31.882813-2.113281 53.023438.773437 9.917968-6.640625 18.585937-16.558594 19.355468-.476562.035157-.949219.054688-1.417969.054688zm0 0"/><path d="m203.648438 504.5c-.46875 0-.941407-.019531-1.417969-.054688-9.917969-.773437-17.332031-9.4375-16.558594-19.355468 1.644531-21.140625 1.050781-36.003906-2.117187-53.023438-1.820313-9.78125 4.632812-19.183594 14.414062-21.003906 9.773438-1.816406 19.183594 4.632812 21.003906 14.414062 3.742188 20.105469 4.496094 38.1875 2.613282 62.40625-.734376 9.445313-8.625 16.617188-17.9375 16.617188zm0 0"/><path d="m35.691406 425.597656c-2.777344 0-5.59375-.644531-8.234375-2.003906-8.84375-4.554688-12.320312-15.417969-7.765625-24.261719 13.722656-26.640625 38.675782-44.492187 66.75-47.761719 9.878906-1.152343 18.820313 5.929688 19.972656 15.8125 1.148438 9.878907-5.929687 18.820313-15.8125 19.972657-23.902343 2.78125-35.804687 22.496093-38.882812 28.472656-3.195312 6.203125-9.5 9.769531-16.027344 9.769531zm0 0"/></g><path d="m237.179688 390.640625c-9.902344.976563-18.71875-6.253906-19.695313-16.152344-.976563-9.902343 6.257813-18.71875 16.15625-19.695312 14.746094-1.453125 26.339844-8.503907 28.855469-17.53125 2.667968-9.585938 12.597656-15.191407 22.183594-12.523438 9.582031 2.667969 15.1875 12.597657 12.519531 22.183594-6.570313 23.609375-30.128907 40.769531-60.019531 43.71875zm0 0" fill="#c49b7a"/><path d="m218.972656 425.476562c-1.820312-9.78125-11.230468-16.230468-21.003906-14.414062-9.78125 1.820312-16.234375 11.222656-14.414062 21.003906 1.667968 8.960938 2.617187 17.335938 2.90625 26.335938 12.832031-2.867188 24.710937-7.988282 35.105468-14.882813-.597656-5.980469-1.457031-11.917969-2.59375-18.042969zm0 0" fill="#d1a582"/><path d="m86.441406 351.570312c-8.339844.972657-16.402344 3.238282-23.976562 6.632813-.421875 3.425781-.648438 6.902344-.648438 10.425781 0 10.035156 1.761719 19.695313 5.003906 28.75 6.011719-4.796875 13.859376-8.871094 23.78125-10.023437 9.882813-1.152344 16.960938-10.09375 15.8125-19.972657-1.152343-9.882812-10.09375-16.964843-19.972656-15.8125zm0 0" fill="#d1a582"/><path d="m127.25 411.0625c-9.78125-1.820312-19.183594 4.632812-21.003906 14.414062-1.140625 6.125-2 12.0625-2.59375 18.042969 10.394531 6.894531 22.273437 12.015625 35.105468 14.882813.289063-9 1.234376-17.371094 2.902344-26.335938 1.820313-9.78125-4.632812-19.183594-14.410156-21.003906zm0 0" fill="#d1a582"/><path d="m250.414062 368.628906c0-43.855468-39.3125-79.40625-87.804687-79.40625-48.496094 0-87.804687 35.550782-87.804687 79.40625 0 43.855469 39.308593 79.40625 87.804687 79.40625 48.492187 0 87.804687-35.550781 87.804687-79.40625zm0 0" fill="#ddaf89"/><path d="m241.914062 317.644531c-21.519531 17.855469-49.15625 28.59375-79.304687 28.59375s-57.785156-10.738281-79.304687-28.59375c-4.574219 5.925781-8.390626 12.375-11.28125 19.246094-3.941407 9.355469-.308594 20.199219 8.449218 25.339844 24.101563 14.148437 52.167969 22.265625 82.136719 22.265625s58.035156-8.117188 82.136719-22.265625c8.757812-5.140625 12.390625-15.984375 8.449218-25.339844-2.890624-6.871094-6.707031-13.320313-11.28125-19.246094zm0 0" fill="#7f9ae6"/><path d="m122.617188 339.660156c-14.488282-4.925781-27.78125-12.445312-39.3125-22.015625-4.574219 5.925781-8.390626 12.375-11.28125 19.246094-3.941407 9.355469-.308594 20.199219 8.449218 25.339844 12.53125 7.355469 26.140625 13.0625 40.53125 16.867187-5.28125-10.59375-3.785156-26.496094 1.613282-39.4375zm0 0" fill="#5e78bf"/><path d="m125.816406 196.277344c-3.988281 0-8.011718-1.214844-11.484375-3.738282l-24.074219-17.484374c-10.542968-7.660157-24.757812-7.023438-34.574218 1.546874l-15.761719 13.761719c-8.140625 7.105469-20.5 6.269531-27.609375-1.871093-7.105469-8.140626-6.265625-20.5 1.871094-27.605469l15.761718-13.765625c11.367188-9.921875 25.929688-15.757813 41.003907-16.433594s30.097656 3.835938 42.308593 12.703125l24.070313 17.488281c8.746094 6.351563 10.683594 18.585938 4.332031 27.328125-3.828125 5.269531-9.796875 8.070313-15.84375 8.070313zm0 0" fill="#495059"/><path d="m199.402344 196.277344c-6.050782 0-12.015625-2.796875-15.84375-8.066406-6.351563-8.746094-4.414063-20.980469 4.328125-27.332032l24.074219-17.484375c12.210937-8.867187 27.238281-13.375 42.308593-12.707031 15.074219.675781 29.632813 6.511719 41 16.4375l15.761719 13.761719c8.140625 7.105469 8.976562 19.46875 1.871094 27.605469-7.105469 8.140624-19.464844 8.980468-27.605469 1.871093l-15.761719-13.761719c-9.816406-8.570312-24.035156-9.207031-34.578125-1.546874l-24.070312 17.484374c-3.472657 2.523438-7.496094 3.738282-11.484375 3.738282zm0 0" fill="#495059"/><path d="m162.609375 351.238281c99.324219 0 144.085937-45.5 130.113281-109.566406-15.011718-68.847656-62.296875-106.535156-130.113281-106.535156s-115.101563 37.6875-130.117187 106.535156c-13.96875 64.066406 30.792968 109.566406 130.117187 109.566406zm0 0" fill="#ddaf89"/><path d="m187.136719 387.589844c0 13.542968-10.980469 24.523437-24.527344 24.523437s-24.527344-10.980469-24.527344-24.523437c0-13.546875 10.980469-24.527344 24.527344-24.527344s24.527344 10.980469 24.527344 24.527344zm0 0" fill="#f6e06a"/><path d="m124.027344 225.113281c0-11.613281-11.820313-21.027343-26.402344-21.027343s-26.40625 9.414062-26.40625 21.027343 11.824219 21.027344 26.40625 21.027344 26.402344-9.414063 26.402344-21.027344zm0 0" fill="#ffdbdb"/><path d="m272.203125 225.113281c0-11.613281-11.820313-21.027343-26.402344-21.027343-14.585937 0-26.40625 9.414062-26.40625 21.027343s11.820313 21.027344 26.40625 21.027344c14.582031 0 26.402344-9.414063 26.402344-21.027344zm0 0" fill="#ffdbdb"/><path d="m185.558594 207.730469c-9.078125-2.375-18.617188-2.375-27.695313 0-3.757812.984375-7.035156 3.296875-9.21875 6.511719-2.953125 4.339843-1.257812 10.292968 3.539063 12.425781l13.304687 5.917969c3.960938 1.761718 8.484375 1.761718 12.445313 0l13.304687-5.917969c4.796875-2.132813 6.492188-8.085938 3.539063-12.425781-2.183594-3.210938-5.460938-5.523438-9.21875-6.511719zm0 0" fill="#495059"/><path d="m193.050781 88.894531-20.898437 19.3125c-5.386719 4.980469-13.699219 4.980469-19.085938 0l-20.894531-19.3125h-44.71875c-17.5625 0-31.804687-14.242187-31.804687-31.804687v-17.785156c0-17.566407 14.242187-31.804688 31.804687-31.804688h150.308594c17.566406 0 31.804687 14.238281 31.804687 31.804688v17.785156c0 17.5625-14.238281 31.804687-31.804687 31.804687zm0 0" fill="#dfe3e5"/><path d="m281.613281 360.019531c-2.15625.214844-4.382812.039063-6.59375-.578125-9.585937-2.664062-15.191406-12.597656-12.523437-22.179687 2.195312-7.886719-2.015625-18.605469-11.863282-30.171875-6.445312-7.578125-5.53125-18.945313 2.046876-25.390625 7.578124-6.445313 18.941406-5.53125 25.386718 2.042969 22.867188 26.875 23.027344 49.191406 19.132813 63.179687-2.050781 7.371094-8.402344 12.390625-15.585938 13.097656zm0 0" fill="#c49b7a"/><path d="m100.367188 72.308594c13.296874 0 24.113281-10.816406 24.113281-24.113282 0-13.292968-10.816407-24.109374-24.113281-24.109374-13.292969 0-24.109376 10.816406-24.109376 24.109374 0 13.296876 10.816407 24.113282 24.109376 24.113282zm0-33.222656c5.027343 0 9.113281 4.085937 9.113281 9.109374 0 5.023438-4.085938 9.113282-9.113281 9.113282-5.023438 0-9.109376-4.089844-9.109376-9.113282 0-5.023437 4.085938-9.109374 9.109376-9.109374zm62.242187 33.222656c13.292969 0 24.109375-10.816406 24.109375-24.113282 0-13.292968-10.816406-24.109374-24.109375-24.109374-13.296875 0-24.113281 10.816406-24.113281 24.109374 0 13.296876 10.816406 24.113282 24.113281 24.113282zm0-33.222656c5.023437 0 9.109375 4.085937 9.109375 9.109374 0 5.023438-4.085938 9.113282-9.109375 9.113282s-9.113281-4.089844-9.113281-9.113282c0-5.023437 4.089844-9.109374 9.113281-9.109374zm62.238281 33.222656c13.296875 0 24.109375-10.816406 24.109375-24.113282 0-13.292968-10.8125-24.109374-24.109375-24.109374-13.292968 0-24.109375 10.816406-24.109375 24.109374 0 13.296876 10.816407 24.113282 24.109375 24.113282zm0-33.222656c5.023438 0 9.109375 4.085937 9.109375 9.109374 0 5.023438-4.085937 9.113282-9.109375 9.113282-5.023437 0-9.109375-4.089844-9.109375-9.113282 0-5.023437 4.085938-9.109374 9.109375-9.109374zm-137.394531 57.308593h41.78125l18.742187 17.320313c4.101563 3.792968 9.367188 5.6875 14.632813 5.6875s10.53125-1.894532 14.632813-5.6875l18.742187-17.320313h41.777344c21.675781 0 39.304687-17.632812 39.304687-39.304687v-17.785156c0-21.671876-17.632812-39.304688-39.304687-39.304688h-150.308594c-21.671875 0-39.304687 17.632812-39.304687 39.304688v17.785156c0 21.671875 17.632812 39.304687 39.304687 39.304687zm-24.304687-57.089843c0-13.402344 10.90625-24.304688 24.304687-24.304688h150.308594c13.402343 0 24.304687 10.902344 24.304687 24.304688v17.785156c0 13.398437-10.902344 24.304687-24.304687 24.304687h-44.710938c-1.890625 0-3.707031.710938-5.09375 1.992188l-20.898437 19.3125c-2.492188 2.308593-6.40625 2.308593-8.902344 0l-20.894531-19.3125c-1.386719-1.28125-3.207031-1.992188-5.09375-1.992188h-44.714844c-13.398437 0-24.304687-10.90625-24.304687-24.304687zm174.761718 164.832031v-9.324219c0-4.140625-3.355468-7.5-7.5-7.5-4.140625 0-7.5 3.359375-7.5 7.5v9.324219c0 4.140625 3.359375 7.5 7.5 7.5 4.144532 0 7.5-3.359375 7.5-7.5zm-100.984375 62.285156c-3 2.855469-3.113281 7.601563-.257812 10.601563 1.476562 1.546874 3.453125 2.328124 5.433593 2.328124 1.855469 0 3.71875-.6875 5.171876-2.070312 7.230468-6.886719 19.375-11.398438 29.574218-10.980469 4.199219.171875 10 1.273438 13.785156 5.53125 2.753907 3.09375 7.496094 3.371094 10.589844.617188 3.09375-2.753907 3.371094-7.492188.617188-10.589844-5.433594-6.105469-13.230469-9.695313-22.628906-10.441406v-11.289063c.597656-.207031 1.1875-.433594 1.769531-.691406l13.304687-5.914062c4.320313-1.921876 7.542969-5.632813 8.839844-10.183594 1.296875-4.550782.515625-9.402344-2.144531-13.3125-3.207031-4.714844-8.011719-8.105469-13.523438-9.550782-10.300781-2.695312-21.191406-2.695312-31.492187 0-5.515625 1.445313-10.316406 4.835938-13.523438 9.550782-2.660156 3.910156-3.441406 8.761718-2.144531 13.3125 1.292969 4.550781 4.515625 8.261718 8.839844 10.183594l13.300781 5.914062c.582031.261719 1.175781.488281 1.773438.695312v12.363282c-10.21875 2.167968-20.128907 7.105468-27.285157 13.925781zm18.304688-46.605469c-.257813-.117187-.429688-.3125-.507813-.585937-.078125-.277344-.039062-.535157.121094-.769531 1.167969-1.714844 2.914062-2.949219 4.917969-3.472657 3.910156-1.023437 7.929687-1.535156 11.949219-1.535156 4.019531 0 8.039062.511719 11.949218 1.535156 2.003906.523438 3.75 1.757813 4.917969 3.472657.160156.238281.203125.496093.125.769531-.078125.273437-.25.472656-.511719.585937l-13.300781 5.914063c-2.019531.898437-4.335937.898437-6.355469 0zm160.734375-64.582031-15.761719-13.761719c-12.640625-11.035156-28.835937-17.527344-45.601563-18.277344-15.222656-.683593-30.433593 3.425782-43.277343 11.589844-14.820313-4.75-31.09375-7.148437-48.714844-7.148437-17.625 0-33.894531 2.398437-48.71875 7.148437-12.839844-8.164062-28.050781-12.269531-43.277344-11.589844-16.761719.75-32.957031 7.242188-45.597656 18.277344l-15.761719 13.761719c-11.242187 9.816406-12.402344 26.949219-2.589844 38.191406 5.34375 6.121094 12.855469 9.25 20.40625 9.25 4.082032 0 8.171876-.933593 11.941407-2.789062-5.992188 12.050781-10.632813 25.449219-13.847657 40.1875-3.675781 16.867187-3.558593 32.671875.355469 46.972656 1.09375 3.996094 5.21875 6.347656 9.210938 5.253906 3.996093-1.09375 6.347656-5.21875 5.257812-9.210937-3.269531-11.945313-3.324219-25.339844-.167969-39.820313 6.128907-28.105469 17.792969-50.730469 34.316407-67.359375.367187-.304687.703125-.636718 1.007812-1 11.195313-10.972656 24.574219-19.238281 39.929688-24.660156.179687-.058594.355469-.117188.53125-.1875 14.070312-4.890625 29.777343-7.425781 47.003906-7.425781 17.222656 0 32.921875 2.53125 46.992187 7.421875.1875.078125.375.140625.570313.199218 15.339844 5.421876 28.710937 13.683594 39.898437 24.648438.304688.367188.644532.703125 1.011719 1.003906 16.523438 16.632813 28.183594 39.257813 34.3125 67.359375 3.003907 13.785157 3.089844 26.480469.304688 37.929688-.628907-.769531-1.261719-1.542969-1.921875-2.316407-9.117188-10.714843-25.246094-12.015624-35.960938-2.898437-5.191406 4.417969-8.351562 10.589844-8.894531 17.382813-.550781 6.792968 1.582031 13.390624 6 18.582031 3.527344 4.148437 6.25 8.171875 8.058594 11.824219-21.578125 13.078124-52.644531 19.964843-90.375 19.964843-35.027344 0-63.769531-5.753906-84.890625-16.824219-.253906-.160156-.515625-.3125-.792969-.445312-.0625-.03125-.125-.050781-.1875-.078125-8.902344-4.789063-16.425781-10.535156-22.445313-17.21875-2.769531-3.078125-7.515624-3.328125-10.589843-.554687-3.082031 2.769531-3.328125 7.511718-.558594 10.589843 5.890625 6.542969 12.933594 12.300781 21.058594 17.257813-1.363281 4.359375-1.582031 8.894531-.789063 13.21875-21.289062 8.359375-39.390625 24.863281-50.386718 46.214844-6.441407 12.503906-1.507813 27.917968 10.996093 34.359374 3.601563 1.855469 7.636719 2.835938 11.667969 2.835938 9.601562 0 18.296875-5.300781 22.695312-13.832031 1.539063-2.992188 6.640626-11.8125 15.875-18.042969 2.613282 5.871094 5.914063 11.425781 9.804688 16.578125-7.613281 10.132813-14.28125 10.769531-23.121094 10.460937-12.078125-.4375-22.234375 9.066407-22.65625 21.132813-.421875 12.074219 9.058594 22.238281 21.136719 22.660156 1.203125.042969 2.386719.0625 3.5625.0625 12.183594 0 22.816406-2.339843 32.164063-7.085937.015624 7.335937.347656 15.046875 1 23.4375 1.035156 13.199218 12.199218 23.535156 25.421874 23.535156.664063 0 1.335938-.027344 2-.078125 14.023438-1.09375 24.542969-13.390625 23.453126-27.414063-.914063-11.773437-1.109376-21.257812-.574219-30.226562 5.253906.820312 10.652343 1.253906 16.160156 1.253906s10.90625-.433594 16.160156-1.253906c.53125 8.96875.339844 18.453125-.578125 30.226562-.527344 6.792969 1.621094 13.386719 6.050782 18.5625 4.429687 5.179688 10.613281 8.324219 17.40625 8.851563.660156.050781 1.332031.078125 2 .078125 5.617187 0 11.160156-1.898438 15.605468-5.347656 3.273438-2.539063 3.871094-7.25 1.332032-10.519532-2.535157-3.277343-7.246094-3.871093-10.519532-1.335937-2.078125 1.609375-4.582031 2.375-7.253906 2.167969-2.796875-.21875-5.34375-1.511719-7.171875-3.644532-1.824219-2.132812-2.710937-4.851562-2.492187-7.648437 1.042968-13.402344 1.183593-24.433594.421874-34.847656 7.179688-2.253907 13.980469-5.269531 20.273438-8.941407 1.089844 9.703126 1.445312 19.355469 1.117188 30.105469-.125 4.140625 3.128906 7.597657 7.269531 7.722657.078125.003906.15625.003906.230469.003906 4.035156 0 7.371093-3.210938 7.492187-7.273438.441406-14.46875-.273437-27.113281-2.277344-40.375 11.683594-9.96875 20.617188-22.582031 25.644531-36.777344 25.558594-6.917968 44.933594-24.339843 51.078126-46.257812.007812-.035156.019531-.066406.027343-.101562 3.464844-12.445313 4.160157-30.640626-8.058593-52.238282 6.996093-16.703125 8.242187-35.722656 3.683593-56.617187-3.210937-14.738281-7.855469-28.136719-13.84375-40.183594 3.765625 1.855469 7.855469 2.785156 11.941407 2.785156 7.546874 0 15.0625-3.132812 20.40625-9.25 9.8125-11.242187 8.652343-28.375-2.589844-38.191406zm-242.945313 1.535156c-2.515625 2.042969-4.921875 4.203125-7.261719 6.433594-5.542968 1.328125-10.691406 3.980469-15.007812 7.75l-15.761719 13.761719c-5.011719 4.375-12.648437 3.855468-17.023437-1.152344-4.375-5.011719-3.859375-12.652344 1.152344-17.027344l15.761718-13.761718c10.09375-8.808594 23.023438-13.992188 36.40625-14.59375 8.296875-.371094 16.597656 1.039062 24.292969 4.046874-8.050781 4.023438-15.582031 8.871094-22.558594 14.542969zm-27.96875 255.625c-1.8125 3.515625-5.398437 5.703125-9.359375 5.703125-1.675781 0-3.289062-.394531-4.800781-1.171875-2.496094-1.285156-4.339844-3.464843-5.195313-6.140625-.855468-2.675781-.621093-5.519531.664063-8.019531 9.082031-17.625 23.789063-31.332031 41.078125-38.539063-.082031 1.46875-.132812 2.9375-.132812 4.402344 0 6.164063.710937 12.179688 2.054687 17.980469-13.945313 7.960937-21.511719 20.355469-24.308594 25.785156zm117.558594-41.832031c9.386719 0 17.027344 7.636719 17.027344 17.027344 0 9.386718-7.640625 17.023437-17.027344 17.023437-9.390625 0-17.027344-7.636719-17.027344-17.023437 0-9.390625 7.636719-17.027344 17.027344-17.027344zm-81.4375-17.367188c-.027344-.03125-.054687-.0625-.082031-.09375-2.253906-2.605468-3.375-6.023437-3.089844-9.453124 19.410156 8.605468 43.410156 13.613281 71.335938 14.804687-6.980469 3.191406-12.617188 8.816406-15.828126 15.785156-17.398437-3.296875-33.9375-9.492187-49.242187-18.476562-1.191406-.699219-2.21875-1.574219-3.09375-2.566407zm14.660156 93.710938c-8.925781 6.945312-19.445312 10.210938-32.84375 10.210938-1 0-2.015625-.019532-3.039062-.054688-3.808594-.132812-6.796875-3.339844-6.667969-7.148438.132812-3.804687 3.339844-6.796874 7.148438-6.664062 10.945312.375 22.476562-.558594 33.800781-14.148438 1.074219 1.011719 2.175781 2 3.304687 2.960938-.746094 4.949219-1.308594 9.863281-1.703125 14.84375zm26.570313 50.0625c-5.796875.445312-10.847656-3.953125-11.292969-9.664062-1.058594-13.605469-1.265625-25.042969-.574219-36 .011719-.117188.019532-.234376.023438-.351563.199218-3.050781.46875-6.0625.808594-9.074219 6.296874 3.675782 13.097656 6.691406 20.28125 8.949219-.761719 10.414063-.621094 21.441406.421874 34.84375.449219 5.777344-3.886718 10.847656-9.667968 11.296875zm40.207031-56.433594c-43.058594 0-78.296875-30.5-80.214844-68.636718 15.144531 8.125 31.3125 13.84375 48.222657 17.058593.71875 17.027344 14.789062 30.660157 31.992187 30.660157s31.273437-13.632813 31.992187-30.660157c16.910157-3.214843 33.078126-8.933593 48.222657-17.058593-1.917969 38.136718-37.160157 68.636718-80.214844 68.636718zm81.515625-87.429687c-.023438.027343-.042969.050781-.066406.078125-.878906.996094-1.910156 1.875-3.109375 2.578125-15.300781 8.984375-31.839844 15.179687-49.238281 18.476562-3.207032-6.964843-8.835938-12.582031-15.808594-15.777343 28.03125-1.171876 51.894531-6.121094 71.316406-14.777344.277344 3.414062-.84375 6.824218-3.09375 9.421875zm45.867188-8.261719c-.003907.023438-.011719.050781-.019532.074219-4.066406 14.589843-16.15625 26.679687-32.632812 33.257812.375-3.136719.574218-6.320312.574218-9.546875 0-2.765625-.152343-5.554687-.441406-8.324218 1.757813-2.601563 3.054688-5.480469 3.851563-8.492188 4.210937-3.601562 7.101562-7.886719 8.398437-12.539062 2.925782-10.511719-1.699218-23.324219-13.375-37.042969-1.820312-2.140625-2.699218-4.859375-2.472656-7.660157.222656-2.796874 1.527344-5.339843 3.664062-7.160156 4.414063-3.753906 11.0625-3.21875 14.816407 1.195313 20.699219 24.320312 21.023437 43.996093 17.636719 56.238281zm17.261718-161.285156c-4.375 5.011718-12.015625 5.527344-17.023437 1.15625l-15.761719-13.761719c-4.320312-3.769531-9.464844-6.421875-15.003906-7.75-2.34375-2.230469-4.75-4.390625-7.265625-6.433594-6.976563-5.671875-14.507813-10.519531-22.558594-14.542969 7.691406-3.007812 15.992187-4.417968 24.292969-4.046874 13.382812.601562 26.3125 5.785156 36.40625 14.59375l15.761718 13.761718c5.007813 4.375 5.527344 12.011719 1.152344 17.023438zm-179.160156-.03125c0-4.140625-3.359375-7.5-7.5-7.5h-15.164062c-4.140626 0-7.5 3.359375-7.5 7.5 0 4.144531 3.359374 7.5 7.5 7.5h1.113281c-.652344 1.113281-1.03125 2.402344-1.03125 3.785156v9.324219c0 4.140625 3.355469 7.5 7.5 7.5 4.140625 0 7.5-3.359375 7.5-7.5v-9.324219c0-1.382812-.378907-2.671875-1.03125-3.785156h1.109375c4.144531 0 7.503906-3.355469 7.503906-7.5zm0 0"/></svg>