<svg viewBox="0 -48 512.0006 512" xmlns="http://www.w3.org/2000/svg"><path d="m43.011719 237.28125c7.421875-5.195312 17.648437-3.390625 22.84375 4.03125l27.035156 38.609375c5.195313 7.417969 3.394531 17.644531-4.027344 22.84375-10.933593 7.65625-13.601562 22.777344-5.945312 33.710937 7.65625 10.933594 22.78125 13.601563 33.714843 5.945313 8.308594-5.816406 12.128907-16.304687 9.503907-26.097656-2.339844-8.75 2.855469-17.742188 11.601562-20.085938 8.75-2.34375 17.742188 2.851563 20.085938 11.601563 6.175781 23.058594-2.816407 47.757812-22.378907 61.453125-25.75 18.03125-61.367187 11.75-79.398437-14-14.761719-21.082031-13.230469-48.777344 1.945313-68.023438l-19.007813-27.140625c-5.195313-7.421875-3.390625-17.648437 4.027344-22.847656zm0 0" fill="#7f9ae6"/><path d="m37.875 209.523438c0 8.386718-6.796875 15.183593-15.183594 15.183593-8.386718 0-15.183594-6.796875-15.183594-15.183593 0-8.386719 6.796876-15.183594 15.183594-15.183594 8.386719 0 15.183594 6.796875 15.183594 15.183594zm0 0" fill="#7f9ae6"/><path d="m356.414062 345.546875c-20.828124 0-40.15625-10.917969-61.960937-33.976563-6.023437-6.367187-5.746094-16.414062.625-22.4375 6.371094-6.027343 16.414063-5.746093 22.4375.625 27.09375 28.648438 40.644531 26.273438 55.546875 20.183594 8.113281-3.3125 17.382812.582032 20.695312 8.695313 3.316407 8.113281-.578124 17.382812-8.691406 20.695312-10.066406 4.109375-19.503906 6.214844-28.652344 6.214844zm0 0" fill="#495059"/><g fill="#ddaf89"><path d="m208.253906 408.273438c-10.261718 0-18.953125-7.902344-19.761718-18.300782-2.074219-26.679687-1.242188-46.597656 2.878906-68.746094 2.007812-10.773437 12.367187-17.878906 23.136718-15.875 10.773438 2.003907 17.878907 12.363282 15.875 23.132813-3.488281 18.746094-4.140624 35.125-2.328124 58.410156.851562 10.921875-7.316407 20.46875-18.242188 21.320313-.523438.039062-1.042969.058594-1.558594.058594zm0 0"/><path d="m298.664062 408.273438c-.515624 0-1.035156-.019532-1.558593-.058594-10.925781-.851563-19.09375-10.398438-18.242188-21.320313 1.8125-23.285156 1.15625-39.664062-2.332031-58.410156-2.003906-10.769531 5.105469-21.128906 15.878906-23.132813 10.769532-2.011718 21.128906 5.101563 23.136719 15.875 4.121094 22.148438 4.953125 42.066407 2.875 68.746094-.808594 10.398438-9.5 18.300782-19.757813 18.300782zm0 0"/><path d="m366.597656 286.960938c-12.648437 0-25.933594-3.125-39.710937-9.359376-9.980469-4.515624-14.410157-16.273437-9.894531-26.257812 4.515624-9.980469 16.273437-14.410156 26.257812-9.894531 29.136719 13.183593 42.910156 1.125 48.523438-7.242188 6.113281-9.09375 18.441406-11.511719 27.535156-5.40625 9.097656 6.109375 11.515625 18.4375 5.40625 27.535157-9.152344 13.625-22.777344 23.542968-38.367188 27.929687-6.386718 1.796875-12.980468 2.695313-19.75 2.695313zm0 0"/><path d="m192.140625 277.050781c-.136719.027344-.273437.054688-.414063.078125-29.777343 5.484375-56.933593-.273437-76.464843-16.207031-16.933594-13.8125-26.527344-34.554687-27.011719-58.402344-.222656-10.957031 8.480469-20.011719 19.433594-20.242187 10.957031-.21875 20.015625 8.480468 20.238281 19.4375.253906 12.363281 4.429687 21.941406 12.421875 28.460937 10.210938 8.328125 26.320312 11.21875 44.199219 7.929688 10.777343-1.984375 21.121093 5.144531 23.105469 15.921875 1.957031 10.636718-4.964844 20.851562-15.507813 23.023437zm0 0"/></g><path d="m184.542969 238.105469c-14.226563 2.617187-27.324219 1.308593-37.234375-3.527344-2.078125 7.699219-3.191406 15.746094-3.191406 24.027344 0 5.984375.578124 11.839843 1.683593 17.535156 13.960938 3.609375 29.546875 4.003906 45.925781.988281.140626-.023437.277344-.050781.414063-.082031 10.542969-2.167969 17.464844-12.386719 15.507813-23.023437-1.984376-10.773438-12.328126-17.902344-23.105469-15.917969zm0 0" fill="#d1a582"/><path d="m363.050781 258.609375c0-3.910156-.253906-7.761719-.730469-11.554687-5.472656-.59375-11.792968-2.308594-19.070312-5.605469-9.984375-4.515625-21.742188-.085938-26.257812 9.898437-4.515626 9.980469-.085938 21.738282 9.894531 26.253906 10.945312 4.953126 21.582031 7.9375 31.832031 8.957032 2.816406-8.878906 4.332031-18.253906 4.332031-27.949219zm0 0" fill="#d1a582"/><path d="m315.542969 321.226562c-2.003907-10.773437-12.363281-17.886718-23.132813-15.875-10.773437 2.003907-17.882812 12.363282-15.878906 23.132813 1.746094 9.390625 2.785156 18.1875 3.15625 27.550781 14.113281-3.183594 27.164062-8.882812 38.542969-16.542968-.644531-6.042969-1.53125-12.066407-2.6875-18.265626zm0 0" fill="#d1a582"/><path d="m214.507812 305.351562c-10.769531-2.003906-21.128906 5.101563-23.136718 15.875-1.152344 6.199219-2.039063 12.222657-2.6875 18.265626 11.382812 7.660156 24.429687 13.359374 38.546875 16.542968.371093-9.363281 1.40625-18.160156 3.152343-27.550781 2.003907-10.769531-5.101562-21.128906-15.875-23.132813zm0 0" fill="#d1a582"/><path d="m350.179688 258.609375c0-48.308594-43.304688-87.472656-96.722657-87.472656s-96.722656 39.164062-96.722656 87.472656 43.304687 87.46875 96.722656 87.46875 96.722657-39.160156 96.722657-87.46875zm0 0" fill="#ddaf89"/><path d="m340.816406 202.445312c-23.707031 19.667969-54.148437 31.496094-87.359375 31.496094-33.207031 0-63.652343-11.828125-87.355469-31.496094-5.042968 6.527344-9.242187 13.632813-12.429687 21.199219-4.339844 10.304688-.335937 22.253907 9.308594 27.914063 26.550781 15.585937 57.46875 24.527344 90.476562 24.527344 33.011719 0 63.929688-8.941407 90.480469-24.527344 9.644531-5.660156 13.648438-17.609375 9.308594-27.914063-3.1875-7.566406-7.390625-14.671875-12.429688-21.199219zm0 0" fill="#7f9ae6"/><path d="m209.40625 226.695312c-15.960938-5.421874-30.601562-13.707031-43.304688-24.25-5.042968 6.527344-9.242187 13.636719-12.429687 21.199219-4.339844 10.308594-.335937 22.253907 9.308594 27.914063 13.804687 8.105468 28.796875 14.390625 44.644531 18.578125-5.8125-11.667969-4.167969-29.183594 1.78125-43.441407zm0 0" fill="#5e78bf"/><path d="m226.429688 86.507812c-3.984376-.347656-7.898438-1.910156-11.144532-4.734374l-22.523437-19.574219c-9.863281-8.570313-24.121094-9.179688-34.675781-1.476563l-16.949219 12.371094c-8.753907 6.386719-21.027344 4.472656-27.417969-4.28125-6.386719-8.753906-4.46875-21.027344 4.28125-27.417969l16.953125-12.371093c12.222656-8.917969 27.277344-13.476563 42.398437-12.835938 15.117188.644531 29.734376 6.464844 41.152344 16.390625l22.523438 19.574219c8.179687 7.109375 9.046875 19.5 1.9375 27.679687-4.285156 4.933594-10.492188 7.207031-16.535156 6.675781zm0 0" fill="#495059"/><path d="m299.945312 92.941406c-6.042968-.53125-11.761718-3.847656-15.125-9.445312-5.582031-9.289063-2.574218-21.34375 6.714844-26.925782l25.582032-15.363281c12.96875-7.792969 28.378906-10.980469 43.375-8.996093 15 1.992187 29.035156 9.097656 39.523437 20.003906l14.546875 15.128906c7.507812 7.808594 7.265625 20.230469-.546875 27.742188-7.808594 7.511718-20.230469 7.265624-27.742187-.542969l-14.542969-15.128907c-9.058594-9.417968-23.203125-11.296874-34.40625-4.566406l-25.578125 15.363282c-3.691406 2.214843-7.816406 3.078124-11.800782 2.730468zm0 0" fill="#495059"/><path d="m249.644531 244.539062c99.226563 8.679688 147.921875-32.863281 139.5625-98.089843-8.980469-70.089844-52.925781-111.875-120.675781-117.800781-67.75-5.929688-118.285156 27.589843-139.300781 95.058593-19.554688 62.78125 21.1875 112.148438 120.414062 120.832031zm0 0" fill="#ddaf89"/><path d="m274.792969 279.492188c0 14.921874-12.09375 27.015624-27.015625 27.015624s-27.019532-12.09375-27.019532-27.015624c0-14.921876 12.097657-27.019532 27.019532-27.019532s27.015625 12.097656 27.015625 27.019532zm0 0" fill="#f6e06a"/><path d="m307.628906 144.898438c-1.117187 12.742187 10.953125 24.210937 26.953125 25.609374 16.003907 1.402344 29.878907-7.792968 30.996094-20.535156 1.113281-12.746094-10.953125-24.210937-26.957031-25.613281-16-1.398437-29.878906 7.796875-30.992188 20.539063zm0 0" fill="#ffdbdb"/><path d="m202.960938 135.769531c1.117187-12.742187-10.953126-24.210937-26.953126-25.609375-16.003906-1.402344-29.878906 7.792969-30.996093 20.535156-1.113281 12.746094 10.953125 24.210938 26.957031 25.609376 16 1.402343 29.878906-7.792969 30.992188-20.535157zm0 0" fill="#ffdbdb"/><path d="m241.769531 119.9375c10.1875-1.738281 20.65625-.820312 30.390625 2.65625 4.03125 1.441406 7.402344 4.296875 9.492188 8.03125 2.820312 5.046875.386718 11.417969-5.078125 13.296875l-15.164063 5.214844c-4.519531 1.550781-9.480468 1.117187-13.660156-1.195313l-14.03125-7.769531c-5.058594-2.800781-6.347656-9.496094-2.695312-13.976563 2.707031-3.316406 6.523437-5.539062 10.746093-6.257812zm0 0" fill="#495059"/><path d="m276.371094 201.277344c-1.265625 14.472656-12.964844 13.070312-27.441406 11.804687-14.472657-1.265625-26.238282-1.917969-24.972657-16.390625 1.265625-14.476562 14.023438-25.183594 28.5-23.917968 14.472657 1.265624 25.183594 14.027343 23.914063 28.503906zm0 0" fill="#d16283"/><path d="m465.59375 167.078125c-8.921875 1.574219-17.429688-4.382813-19-13.304687l-8.1875-46.417969c-1.570312-8.917969 4.382812-17.425781 13.304688-19 13.144531-2.316407 21.953124-14.898438 19.636718-28.042969-2.320312-13.144531-14.898437-21.949219-28.042968-19.632812-9.988282 1.761718-17.882813 9.652343-19.644532 19.632812-1.574218 8.921875-10.085937 14.875-19.003906 13.304688-8.921875-1.574219-14.875-10.082032-13.300781-19.003907 4.148437-23.511719 22.734375-42.09375 46.253906-46.238281 30.957031-5.460938 60.585937 15.285156 66.042969 46.242188 4.46875 25.347656-8.625 49.796874-30.507813 60.828124l5.753907 32.632813c1.570312 8.917969-4.382813 17.425781-13.304688 19zm0 0" fill="#7f9ae6"/><path d="m487.460938 200.824219c0 8.386719-6.796876 15.1875-15.183594 15.1875-8.386719 0-15.183594-6.800781-15.183594-15.1875s6.796875-15.183594 15.183594-15.183594c8.386718 0 15.183594 6.796875 15.183594 15.183594zm0 0" fill="#7f9ae6"/><path d="m468.339844 178.484375c-5.96875 1.054687-11.167969 4.367187-14.644532 9.332031-3.476562 4.960938-4.808593 10.980469-3.757812 16.949219 1.9375 10.992187 11.53125 18.746094 22.328125 18.746094 1.304687 0 2.625-.109375 3.949219-.347657 5.96875-1.050781 11.167968-4.363281 14.644531-9.328124 3.476563-4.960938 4.8125-10.980469 3.757813-16.949219-2.171876-12.320313-13.960938-20.578125-26.277344-18.402344zm10.234375 26.75c-1.179688 1.679687-2.941407 2.804687-4.960938 3.160156-4.171875.730469-8.164062-2.058593-8.902343-6.234375-.355469-2.019531.097656-4.058594 1.273437-5.742187 1.175781-1.679688 2.9375-2.804688 4.957031-3.160157.453125-.078124.898438-.117187 1.339844-.117187 3.65625 0 6.90625 2.628906 7.566406 6.351563.355469 2.019531-.097656 4.058593-1.273437 5.742187zm-437.300781-8.722656c-3.476563-4.964844-8.675782-8.277344-14.644532-9.328125-5.96875-1.054688-11.984375.28125-16.949218 3.757812-4.964844 3.476563-8.277344 8.675782-9.328126 14.644532-1.054687 5.964843.28125 11.984374 3.757813 16.949218 4.40625 6.296875 11.457031 9.664063 18.613281 9.664063 4.492188 0 9.027344-1.328125 12.980469-4.09375 10.246094-7.175781 12.746094-21.347657 5.570313-31.59375zm-14.175782 19.304687c-3.46875 2.433594-8.269531 1.585938-10.699218-1.882812-2.429688-3.472656-1.585938-8.273438 1.886718-10.703125 1.683594-1.179688 3.722656-1.632813 5.742188-1.273438 2.019531.355469 3.78125 1.476563 4.960937 3.160157 2.429688 3.46875 1.582031 8.269531-1.890625 10.699218zm159.21875-115.019531-.894531 10.230469c-.359375 4.128906 2.691406 7.765625 6.816406 8.128906.222657.019531.445313.027344.664063.027344 3.847656 0 7.121094-2.941406 7.464844-6.847656l.894531-10.230469c.359375-4.125-2.691407-7.765625-6.816407-8.125s-7.765624 2.691406-8.128906 6.816406zm280.578125 73.667969c6.289063-1.109375 11.769531-4.601563 15.429688-9.828125 3.664062-5.230469 5.070312-11.574219 3.960937-17.863281l-4.832031-27.398438c22.113281-13.746094 34.160156-40.117188 29.585937-66.0625-6.175781-35.027344-39.703124-58.503906-74.730468-52.324219-20.082032 3.539063-36.984375 16.386719-46.085938 33.90625-8.777344-5.300781-18.558594-8.765625-28.746094-10.117187-15.152343-2.007813-30.710937.765625-44.25 7.804687-14.394531-6.042969-30.433593-9.867187-48.042968-11.40625-17.605469-1.542969-34.070313-.570312-49.292969 2.882813-12.117187-9.28125-26.953125-14.710938-42.21875-15.363282-16.824219-.726562-33.550781 4.355469-47.140625 14.273438l-16.953125 12.371094c-12.078125 8.8125-14.730469 25.8125-5.914063 37.894531 5.300782 7.265625 13.566407 11.121094 21.941407 11.121094 3.320312 0 6.660156-.621094 9.839843-1.863281-7.050781 11.523437-12.867187 24.519531-17.375 38.984374-6.289062 20.1875-6.722656 39.304688-1.425781 56.363282-3.769531-1.957032-8.039062-3.066406-12.554687-3.066406-.183594 0-.375.003906-.5625.007812-15.070313.3125-27.082032 12.824219-26.773438 27.886719.527344 26.085937 11.097656 48.839843 29.769532 64.066406 11.875 9.6875 26.632812 16.066406 42.929687 18.625.832031 2.578125 1.777344 5.109375 2.839844 7.59375-.753907-.5625-1.53125-1.09375-2.355469-1.570313-5.53125-3.195312-11.972656-4.042968-18.140625-2.390624-12.730469 3.414062-20.3125 16.542968-16.902344 29.273437 1.808594 6.757813-.828125 13.996094-6.566406 18.011719-7.542969 5.285156-17.980469 3.445312-23.265625-4.101563-2.554688-3.648437-3.53125-8.078125-2.753906-12.480469.773437-4.402343 3.210937-8.234374 6.855468-10.785156 5.230469-3.664062 8.722657-9.144531 9.832032-15.429687 1.105468-6.289063-.300782-12.632813-3.960938-17.859375l-27.035156-38.609375c-3.660156-5.230469-9.140625-8.722657-15.429688-9.832031-6.289062-1.105469-12.628906.300781-17.859374 3.960937-5.230469 3.664063-8.722657 9.140625-9.828126 15.429687-1.109374 6.289063.296876 12.632813 3.957032 17.859376l15.960937 22.792968c-14.234375 21.804688-14.007812 50.796875 1.105469 72.375 9.867188 14.09375 24.65625 23.503906 41.644531 26.5 3.796875.667969 7.59375 1 11.367188 1 13.113281 0 25.886719-3.996094 36.832031-11.660156 20.890625-14.628906 31.121094-40.339844 26.328125-65.121094 4.691406 6.5625 10.25 12.5625 16.519531 17.867188-2.164062 14.15625-2.984375 27.5625-2.613281 42.84375.097656 4.078125 3.4375 7.316406 7.492187 7.316406h.1875c4.140626-.101562 7.414063-3.539062 7.316407-7.679688-.28125-11.605468.164062-22.046874 1.414062-32.625 7.332031 4.390626 15.304688 7.964844 23.765625 10.570313-.886718 11.613281-.75 23.886719.414063 38.867187.257812 3.285157-.78125 6.476563-2.925781 8.980469-2.140626 2.503907-5.132813 4.023438-8.425782 4.28125-3.898437.300781-7.660156-1.25-10.222656-4.160156-2.734375-3.105469-7.476562-3.410156-10.585938-.671875-3.109374 2.738281-3.410156 7.480469-.671874 10.585938 5.195312 5.898437 12.667968 9.28125 20.507812 9.28125.71875 0 1.441406-.027344 2.144531-.082032 15.03125-1.167968 26.308594-14.351562 25.136719-29.378906-1.039062-13.371094-1.234375-24.070312-.585938-34.234375 6.011719.984375 12.195313 1.5 18.511719 1.5 6.316407 0 12.5-.515625 18.507813-1.5.652344 10.164063.457031 20.863281-.582032 34.234375-1.171874 15.027344 10.105469 28.207031 25.132813 29.378906.707031.054688 1.429687.082032 2.144531.082032 14.175782 0 26.136719-11.078126 27.238282-25.21875 1.296874-16.675782 1.460937-30.929688.433593-44.640626 9.910157 4.785157 19.847657 7.132813 30.078125 7.132813 10.023438 0 20.324219-2.214844 31.484375-6.773437 5.78125-2.359376 10.296875-6.828126 12.714844-12.585938 2.417969-5.753906 2.449219-12.105469.089844-17.886719-2.359375-5.777343-6.828125-10.292969-12.585938-12.710937-5.753906-2.417969-12.109375-2.449219-17.890625-.089844-8.285156 3.382812-14.886718 5.28125-24.75.160156 1.921875-3.285156 3.640625-6.683594 5.136719-10.183594 5.421875.980469 10.777344 1.484376 15.984375 1.484376 7.441406 0 14.769531-1 21.777344-2.972657 17.304687-4.867187 32.421875-15.867187 42.566406-30.96875 8.40625-12.515625 5.066406-29.535156-7.449219-37.945312-12.515625-8.398438-29.535156-5.0625-37.941406 7.453125-5.285156 7.867187-13.328125 11-23.976563 9.375.710938-2.867188.988282-5.84375.820313-8.839844 7.839844-5.523438 14.476563-12 19.832031-19.429688 2.421875-3.359374 1.65625-8.046874-1.703125-10.46875-3.359375-2.421874-8.046875-1.660156-10.46875 1.699219-19.746093 27.40625-62.273437 39.734375-119.757812 34.699219-37.671875-3.292969-67.378907-12.554688-87.675781-27.125-.363282-.328125-.761719-.625-1.195313-.882812-7.542969-5.597657-13.742187-11.953126-18.496094-19.039063-12.007812-17.902344-14.207031-39.460937-6.539062-64.082031 8.578125-27.539063 22.203125-49.121094 40.164062-64.296875.402344-.273438.773438-.585938 1.113281-.929688 12.136719-9.976562 26.222657-17.058593 42.027344-21.136719.191406-.039062.386719-.089843.578125-.144531 14.484375-3.660156 30.394531-4.8125 47.605469-3.308593 17.046875 1.492187 32.390625 5.335937 45.925781 11.351562.421875.242188.863281.441406 1.320313.59375 14.671875 6.742188 27.167968 16.09375 37.296875 27.910156.289062.421875.617187.8125.988281 1.171875 15.035156 18.054688 24.699219 41.664063 28.359375 70.257813 1.238281 9.667968 1.136719 18.828125-.308594 27.226562-.699219 4.085938 2.042969 7.960938 6.125 8.664063s7.960938-2.042969 8.660157-6.125c1.695312-9.867188 1.832031-20.523438.402343-31.671875-1.921875-15.015625-5.390625-28.8125-10.332031-41.378906 4.050781 2.472656 8.695312 3.84375 13.566406 3.941406.183594.003906.367188.003906.546875.003906 7.042969 0 13.691407-2.675781 18.785157-7.570312 7.585937-7.296876 10.09375-18.34375 6.914062-28.058594 2.449219-3.035156 4.191406-6.710938 4.914062-10.816406 1.21875-6.890626 6.667969-12.335938 13.566407-13.550782 4.375-.773437 8.8125.210938 12.476562 2.777344 3.660157 2.5625 6.101563 6.386719 6.875 10.773438.773438 4.382812-.214843 8.816406-2.777343 12.476562s-6.390626 6.101562-10.773438 6.875c-12.976562 2.289062-21.675781 14.710938-19.386719 27.691406l8.183594 46.417969c1.109375 6.285156 4.601563 11.765625 9.828125 15.425781 4.066406 2.847656 8.800781 4.332032 13.660156 4.332032 1.394532-.003907 2.800782-.125 4.203125-.371094zm-335.75 188.683594c-10.8125 7.570312-23.945312 10.480468-36.988281 8.175781-13.042969-2.300781-24.394531-9.519531-31.964844-20.332031-12.429687-17.753907-11.734375-42.046876 1.691406-59.078126 2.046876-2.601562 2.148438-6.234374.253907-8.945312l-19.007813-27.144531c-1.363281-1.945313-1.886718-4.308594-1.476562-6.648438.414062-2.34375 1.714844-4.382812 3.660156-5.746093 1.515625-1.0625 3.277344-1.613282 5.089844-1.613282.519531 0 1.042968.042969 1.566406.136719 2.339844.414063 4.378906 1.714844 5.742188 3.660156l27.035156 38.613281c2.816406 4.019532 1.835937 9.578126-2.183594 12.394532-14.324219 10.027344-17.816406 29.835937-7.789062 44.15625 10.027343 14.320312 29.835937 17.816406 44.160156 7.789062 10.878906-7.621094 15.882812-21.355468 12.449218-34.183594-1.269531-4.738281 1.554688-9.628906 6.296876-10.902343 2.296874-.613281 4.695312-.296875 6.753906.890625s3.53125 3.109375 4.148437 5.40625c5.363281 20.027344-2.449219 41.476562-19.4375 53.371094zm226.394531-109.226563c8.75 1.609375 16.714844 1.003906 23.761719-1.824219 6.714844-2.691406 12.488281-7.433594 16.699219-13.703125 3.796875-5.648437 11.480469-7.15625 17.125-3.367187 5.648438 3.796875 7.160156 11.480468 3.363281 17.128906-8.160156 12.148438-20.296875 20.988281-34.175781 24.890625-5.6875 1.601563-11.648438 2.414063-17.71875 2.414063-3.652344 0-7.410156-.304688-11.238281-.894532 1.519531-6.4375 2.324219-13.113281 2.324219-19.957031 0-1.558594-.054688-3.121094-.140626-4.6875zm-46.59375 135.46875c-.496093 6.382813-5.890624 11.382813-12.28125 11.382813-.324218 0-.648437-.011719-.980468-.039063-6.785156-.527344-11.875-6.476563-11.34375-13.257813 1.164062-14.980468 1.300781-27.253906.414062-38.867187 8.460938-2.605469 16.4375-6.183594 23.773438-10.574219 1.871094 15.800782 1.964844 31.492188.417968 51.355469zm-57.488281-50.8125c-48.34375 0-87.824219-34.640625-89.183593-77.679687 15.410156 8.40625 31.835937 14.546874 48.992187 18.3125 0 .09375-.007813.1875-.007813.28125 0 19.035156 15.484376 34.519531 34.519532 34.519531 18.414062 0 33.503906-14.496094 34.46875-32.675781 21.269531-3.285157 41.535156-10.136719 60.394531-20.433594-1.359375 43.035156-40.839844 77.675781-89.183594 77.675781zm122.445313-21.691406c2.066406-.847657 4.34375-.835938 6.402344.03125 2.0625.867187 3.664062 2.484375 4.511718 4.554687.84375 2.070313.832032 4.34375-.035156 6.40625-.863281 2.0625-2.480469 3.664063-4.550781 4.507813-9.328125 3.808593-17.773438 5.660156-25.816407 5.660156-10.75 0-20.898437-3.269531-31.671874-10.226563 4.410156-3.773437 8.460937-7.886718 12.097656-12.296874 16.328125 9.175781 28.230468 5.78125 39.0625 1.363281zm-101.089844-63.707031c21.140625 0 40.023438-2.550782 56.355469-7.636719 4.902343-1.523438 9.535156-3.28125 13.925781-5.238281-.375.582031-.789062 1.144531-1.242188 1.675781-.046874.050781-.089843.101562-.136718.152343-1.011719 1.148438-2.210938 2.15625-3.574219 2.957032-18.699219 10.976562-38.984375 18.171875-60.375 21.453125-2.125-5.230469-5.496094-9.828125-9.746094-13.417969 1.605469.027344 3.210938.054688 4.792969.054688zm-27.035156 6.792968c10.761718 0 19.515625 8.757813 19.515625 19.519532 0 10.761718-8.753907 19.519531-19.515625 19.519531-10.761719 0-19.519532-8.757813-19.519532-19.519531.003907-10.761719 8.757813-19.519532 19.519532-19.519532zm-87.195313-33.417968c.003907-.003907.007813-.007813.007813-.015626 18.171875 11.195313 41.59375 19.042969 69.632812 23.25-5.859375 3.476563-10.613281 8.628907-13.578125 14.804688-17.578125-3.839844-34.328125-10.382812-49.867187-19.503906-1.394532-.816406-2.597656-1.84375-3.617188-3.003906-.015625-.019532-.035156-.039063-.050781-.058594-3.625-4.171875-4.757813-10.167969-2.527344-15.472656zm-12.453125-8.898438c-.476562 1.023438-.9375 2.050781-1.371094 3.078125-.539062 1.28125-.980468 2.582031-1.328124 3.894531-.113282-.089844-.234376-.175781-.347657-.265625-5.507812-4.492187-8.617187-10.769531-9.445312-19.105469 3.667969 4.421876 7.835937 8.554688 12.492187 12.398438zm-12.527344 18.332031c3.089844 2.519531 6.644532 4.636719 10.605469 6.324219.871094 2.441406 2.058594 4.769531 3.535157 6.917969-.335938 3.117187-.507813 6.261719-.507813 9.378906 0 3.660156.238281 7.269531.683594 10.824219-11.359375-2.578125-21.394531-7.371094-29.917969-14.320313-15.199219-12.398437-23.8125-31.132812-24.25-52.746093-.140625-6.800782 5.285156-12.445313 12.085938-12.589844h.253906c6.6875 0 12.199218 5.371094 12.335937 12.089844.296875 14.664062 5.402344 26.144531 15.175781 34.121093zm41.546876-193.546875c-2.691407 1.824219-5.285157 3.773438-7.820313 5.796875-5.652344.839844-11.027344 3.039063-15.664063 6.425781l-16.949218 12.371094c-5.398438 3.9375-12.996094 2.753906-16.9375-2.644531s-2.753906-12.996094 2.644531-16.9375l16.953125-12.371094c10.855469-7.921875 24.226562-11.96875 37.65625-11.398437 8.339844.351562 16.527344 2.496094 23.964844 6.1875-8.410156 3.320312-16.367188 7.507812-23.847656 12.570312zm231.667968 47.238282c-2.332031 2.242187-5.390625 3.417968-8.636718 3.382812-3.238282-.066406-6.257813-1.386719-8.5-3.722656l-14.542969-15.125c-3.984375-4.140625-8.894531-7.238282-14.3125-9.046875-2.144531-2.433594-4.363281-4.804688-6.695313-7.066407-6.488281-6.289062-13.613281-11.78125-21.324218-16.511718 7.96875-2.347656 16.410156-3.039063 24.699218-1.941406 9.0625 1.203124 17.726563 4.5 25.328125 9.597656-.324219 1.339844-.621093 2.691406-.863281 4.0625-1.109375 6.289062.296875 12.632812 3.957031 17.859375 3.660157 5.234375 9.140625 8.726562 15.429688 9.832031 3.128906.554688 6.222656.460938 9.152343-.167969.023438 3.25-1.238281 6.488281-3.691406 8.847657zm45.160156 62.792968-8.183593-46.417968c-.851563-4.835938 2.386719-9.460938 7.21875-10.3125 8.332031-1.46875 15.597656-6.101563 20.460937-13.046876 4.859375-6.941406 6.730469-15.355468 5.257813-23.6875-1.46875-8.328124-6.097657-15.59375-13.042969-20.457031-5.398438-3.777343-11.683594-5.746093-18.128906-5.746093-1.84375 0-3.703125.160156-5.558594.488281-13.082031 2.304687-23.421875 12.640625-25.726562 25.714843-.417969 2.375-1.75 4.359376-3.5625 5.667969-.050782.035157-.101563.070313-.148438.105469-1.859375 1.285156-4.203125 1.871094-6.601562 1.449219-2.34375-.414063-4.382813-1.714844-5.746094-3.664063-1.363282-1.945312-1.886719-4.308594-1.472656-6.648437 3.601562-20.417969 19.746093-36.558594 40.167968-40.160157 26.890625-4.734374 52.617188 13.277344 57.355469 40.160157 3.761719 21.347656-7.132813 43.070312-26.496094 52.828125-2.957031 1.488281-4.585937 4.742187-4.011719 8l5.753907 32.632812c.414062 2.34375-.113281 4.703125-1.476563 6.652344-1.363281 1.945312-3.402344 3.246094-5.746094 3.660156-4.835937.851563-9.460937-2.386718-10.3125-7.21875zm-109.25-59.496094c-2.601562-3.222656-7.324218-3.726562-10.546874-1.121093-2.695313 2.175781-6.191407 3.082031-9.589844 2.480469-3.398438-.597657-6.375-2.644532-8.160156-5.609376-2.136719-3.550781-6.746094-4.691406-10.292969-2.554687-3.550781 2.136719-4.691407 6.746094-2.558594 10.292969 3.132813 5.199218 7.890625 9.132812 13.457031 11.261718-1.042968 1.167969-1.742187 2.664063-1.890625 4.34375l-.894531 10.230469c-.359375 4.128907 2.691406 7.765625 6.820312 8.125.222657.019531.441407.027344.660157.027344 3.847656 0 7.121093-2.941406 7.464843-6.847656l.894532-10.230469c.125-1.433594-.167969-2.804688-.769532-4.003906 5.175782-.515625 10.152344-2.511719 14.285157-5.847656 3.222656-2.601563 3.722656-7.324219 1.121093-10.546876zm-80.882812 63.253907 15.167969-5.214844c4.714843-1.621094 8.4375-5.222656 10.214843-9.878906 1.78125-4.65625 1.402344-9.820313-1.027343-14.171875-2.976563-5.320313-7.773438-9.378906-13.515625-11.433594-10.925782-3.902344-22.738282-4.933594-34.175782-2.988281-6.007812 1.023437-11.441406 4.1875-15.292968 8.910156-3.152344 3.863281-4.417969 8.886719-3.476563 13.78125.945313 4.894531 3.984375 9.082031 8.347657 11.5l14.027343 7.765625c.753907.417969 1.53125.78125 2.316407 1.113281l-.863282 9.871094c-6.265625.847656-12.175781 3.433594-17.132812 7.597656-6.917969 5.804688-11.164063 13.957031-11.949219 22.953125-1.058594 12.078125 5.074219 17.742188 10.402344 20.367188 5.648437 2.78125 12.777343 3.402344 20.324219 4.058594l2.125.183593c3.902343.347657 7.6875.679688 11.273437.679688 3.351563 0 6.527344-.292969 9.449219-1.140625 5.703125-1.660156 12.726562-6.175782 13.785156-18.253906 0-.003907 0-.003907 0-.003907.785156-8.996093-1.976562-17.757812-7.78125-24.675781-4.160156-4.960938-9.535156-8.535156-15.554688-10.457031l.867188-9.875c.828125-.191407 1.65625-.410157 2.46875-.6875zm.726562 30.664062c3.230469 3.847657 4.769532 8.722657 4.332032 13.726563-.386719 4.390625-1.730469 4.78125-3.03125 5.160156-3.347656.96875-9.109375.460938-15.214844-.074219l-2.148438-.191406c-6.105468-.527344-11.871093-1.03125-14.992187-2.566406-1.214844-.597657-2.472656-1.21875-2.089844-5.605469.855469-9.777344 9.085938-17.167969 18.726563-17.167969.546875 0 1.097656.023438 1.652344.070313 5.003906.4375 9.539062 2.796875 12.765624 6.648437zm-5.601562-44.851562c-2.503906.859375-5.269531.621093-7.585938-.664063l-14.03125-7.769531c-.601562-.332031-.8125-.84375-.882812-1.214844-.070312-.371093-.066406-.925781.367188-1.457031 1.558593-1.914062 3.757812-3.195312 6.191406-3.609375 2.925781-.496094 5.882812-.746094 8.839844-.746094 6.035156 0 12.058593 1.035157 17.765624 3.074219 2.324219.832031 4.269532 2.476562 5.472657 4.628906.335937.597656.246093 1.144532.109375 1.5-.136719.351563-.433594.820313-1.082032 1.042969zm0 0"/></svg>