<svg viewBox="-8 0 512 512" xmlns="http://www.w3.org/2000/svg"><path d="m137.824219 444.722656c-8.71875 0-17.710938-2.007812-27.300781-5.921875-7.734376-3.160156-11.441407-11.988281-8.285157-19.722656 3.160157-7.734375 11.992188-11.441406 19.722657-8.285156 14.199218 5.800781 27.117187 8.066406 52.929687-19.234375 5.738281-6.066406 15.3125-6.335938 21.382813-.59375 6.070312 5.738281 6.335937 15.308594.597656 21.378906-20.777344 21.972656-39.199219 32.378906-59.046875 32.378906zm0 0" fill="#495059"/><g fill="#ddaf89"><path d="m193.949219 504.5c-8.058594 0-15.523438-5.191406-18.046875-13.292969-9.347656-30.027343-8.410156-54.652343 2.867187-75.273437 5.007813-9.160156 16.496094-12.527344 25.65625-7.515625 9.164063 5.007812 12.527344 16.496093 7.519531 25.65625-6.097656 11.15625-6.078124 26.167969.0625 45.894531 3.101563 9.96875-2.460937 20.566406-12.433593 23.671875-1.871094.582031-3.761719.859375-5.625.859375zm0 0"/><path d="m282.972656 497.808594c-3.160156 0-6.363281-.789063-9.308594-2.457032-9.082031-5.148437-12.273437-16.6875-7.125-25.773437 6.625-11.695313 3.140626-25.628906-2.175781-30.082031-8.003906-6.703125-9.054687-18.628906-2.347656-26.632813 6.707031-8.003906 18.632813-9.050781 26.636719-2.347656 18.269531 15.308594 27.300781 48.5625 10.785156 77.707031-3.480469 6.140625-9.878906 9.585938-16.464844 9.585938zm0 0"/><path d="m83.699219 389.25c-5.859375 0-11.636719-2.714844-15.335938-7.824219-6.117187-8.460937-4.222656-20.28125 4.238281-26.402343 24.820313-17.957032 58.246094-21.65625 91.710938-10.152344 9.875 3.394531 15.125 14.152344 11.730469 24.027344s-14.152344 15.128906-24.023438 11.734374c-21.671875-7.453124-42.542969-5.617187-57.253906 5.027344-3.351563 2.421875-7.226563 3.589844-11.066406 3.589844zm0 0"/><path d="m331.886719 383.496094c-7.128907 0-14.464844-.730469-21.867188-2.199219-10.242187-2.03125-16.898437-11.980469-14.863281-22.226563 2.03125-10.242187 11.984375-16.894531 22.222656-14.863281 8.652344 1.714844 37.867188 5.621094 50.628906-16.21875 5.265626-9.019531 16.84375-12.054687 25.859376-6.789062 9.019531 5.265625 12.054687 16.84375 6.789062 25.859375-9.054688 15.5-23.179688 26.667968-40.847656 32.289062-8.675782 2.761719-18.105469 4.148438-27.921875 4.148438zm0 0"/></g><path d="m317.378906 344.207031c-10.238281-2.03125-20.191406 4.625-22.222656 14.867188-2.035156 10.242187 4.621094 20.191406 14.863281 22.222656 7.402344 1.46875 14.738281 2.199219 21.867188 2.199219 1.292969 0 2.578125-.027344 3.855469-.074219 1.789062-6.917969 2.738281-14.132813 2.738281-21.542969 0-5.617187-.542969-11.117187-1.582031-16.460937-8.339844.652343-15.816407-.476563-19.519532-1.210938zm0 0" fill="#d1a582"/><path d="m288.652344 410.515625c-8.003906-6.707031-19.929688-5.65625-26.636719 2.347656-6.707031 8.003907-5.65625 19.925781 2.347656 26.632813 2.421875 2.03125 4.460938 6.027344 5.339844 10.886718 12.636719-4.042968 24.15625-10.285156 34-18.222656-3.433594-8.773437-8.675781-16.304687-15.050781-21.644531zm0 0" fill="#d1a582"/><path d="m204.429688 408.417969c-9.160157-5.011719-20.652344-1.644531-25.660157 7.515625-3.253906 5.949218-5.640625 12.230468-7.171875 18.878906 10.457032 7.71875 22.597656 13.605469 35.835938 17.109375.226562-6.808594 1.71875-12.738281 4.511718-17.847656 5.007813-9.160157 1.644532-20.648438-7.515624-25.65625zm0 0" fill="#d1a582"/><path d="m164.3125 344.871094c-9.324219-3.207032-18.644531-5.226563-27.777344-6.09375-2.054687 7.394531-3.152344 15.128906-3.152344 23.097656 0 5.019531.4375 9.945312 1.273438 14.753906 5.660156.664063 11.476562 1.980469 17.363281 4.003906 9.871094 3.394532 20.628907-1.859374 24.023438-11.734374s-1.855469-20.632813-11.730469-24.027344zm0 0" fill="#d1a582"/><path d="m328.101562 361.875c0-46.03125-41.265624-83.351562-92.167968-83.351562s-92.167969 37.320312-92.167969 83.351562c0 46.035156 41.265625 83.351562 92.167969 83.351562s92.167968-37.316406 92.167968-83.351562zm0 0" fill="#ddaf89"/><path d="m319.175781 308.359375c-22.585937 18.742187-51.597656 30.015625-83.242187 30.015625-31.644532 0-60.65625-11.273438-83.242188-30.015625-4.804687 6.21875-8.808594 12.992187-11.84375 20.203125-4.136718 9.820312-.324218 21.203125 8.867188 26.597656 25.300781 14.851563 54.761718 23.371094 86.21875 23.371094 31.457031 0 60.917968-8.519531 86.21875-23.371094 9.1875-5.394531 13.003906-16.777344 8.867187-26.597656-3.035156-7.210938-7.039062-13.984375-11.84375-20.203125zm0 0" fill="#7f9ae6"/><path d="m193.957031 331.46875c-15.210937-5.167969-29.164062-13.066406-41.269531-23.109375-4.800781 6.21875-8.804688 12.992187-11.84375 20.203125-4.132812 9.820312-.320312 21.203125 8.871094 26.597656 13.152344 7.722656 27.441406 13.710938 42.542968 17.703125-5.539062-11.117187-3.972656-27.808593 1.699219-41.394531zm0 0" fill="#5e78bf"/><path d="m197.210938 184.257812c-4.195313 0-8.429688-1.28125-12.082032-3.933593l-25.335937-18.402344c-11.09375-8.0625-26.058594-7.390625-36.386719 1.628906l-16.589844 14.480469c-8.566406 7.480469-21.574218 6.597656-29.050781-1.964844-7.480469-8.566406-6.597656-21.574218 1.96875-29.054687l16.585937-14.484375c11.964844-10.441406 27.289063-16.585938 43.152344-17.296875 15.863282-.707031 31.675782 4.039062 44.523438 13.371093l25.332031 18.402344c9.203125 6.683594 11.242187 19.5625 4.558594 28.761719-4.027344 5.546875-10.308594 8.492187-16.675781 8.492187zm0 0" fill="#495059"/><path d="m274.652344 184.257812c-6.367188 0-12.644532-2.945312-16.675782-8.492187-6.679687-9.203125-4.640624-22.078125 4.558594-28.761719l25.335938-18.402344c12.847656-9.332031 28.664062-14.074218 44.523437-13.371093 15.863281.710937 31.1875 6.855469 43.148438 17.296875l16.589843 14.484375c8.566407 7.480469 9.445313 20.488281 1.96875 29.054687-7.480468 8.566406-20.488281 9.445313-29.054687 1.964844l-16.585937-14.480469c-10.332032-9.019531-25.292969-9.6875-36.386719-1.628906l-25.335938 18.402344c-3.652343 2.652343-7.890625 3.933593-12.085937 3.933593zm0 0" fill="#495059"/><path d="m235.933594 347.335938c104.527344 0 151.632812-47.882813 136.929687-115.304688-15.796875-72.453125-65.5625-112.117188-136.929687-112.117188-71.371094 0-121.132813 39.664063-136.933594 112.117188-14.699219 67.421875 32.40625 115.304688 136.933594 115.304688zm0 0" fill="#ddaf89"/><path d="m261.679688 381.777344c0 14.21875-11.527344 25.746094-25.746094 25.746094s-25.746094-11.527344-25.746094-25.746094 11.527344-25.746094 25.746094-25.746094 25.746094 11.527344 25.746094 25.746094zm0 0" fill="#f6e06a"/><path d="m185.878906 231.691406c0-12.191406-12.40625-22.074218-27.714844-22.074218-15.304687 0-27.714843 9.882812-27.714843 22.074218 0 12.1875 12.410156 22.070313 27.714843 22.070313 15.308594 0 27.714844-9.882813 27.714844-22.070313zm0 0" fill="#ffdbdb"/><path d="m341.414062 231.691406c0-12.191406-12.40625-22.074218-27.714843-22.074218-15.304688 0-27.714844 9.882812-27.714844 22.074218 0 12.1875 12.410156 22.070313 27.714844 22.070313 15.308593 0 27.714843-9.882813 27.714843-22.070313zm0 0" fill="#ffdbdb"/><path d="m250.46875 213.445312c-9.53125-2.492187-19.542969-2.492187-29.070312 0-3.949219 1.035157-7.386719 3.460938-9.679688 6.835938-3.097656 4.558594-1.316406 10.804688 3.714844 13.042969l13.964844 6.210937c4.160156 1.847656 8.90625 1.847656 13.066406 0l13.964844-6.210937c5.035156-2.238281 6.8125-8.484375 3.714843-13.042969-2.292969-3.375-5.730469-5.800781-9.675781-6.835938zm0 0" fill="#495059"/><path d="m235.839844 265.246094c-13.148438 0-24.859375-9.390625-32.222656 2.191406-7.46875 11.746094 9.261718 29.960938 32.222656 29.960938 22.960937 0 39.691406-18.214844 32.21875-29.960938-7.363282-11.582031-19.070313-2.191406-32.21875-2.191406zm0 0" fill="#d16283"/><path d="m209.144531 287.597656c6.167969 5.632813 15.714844 9.800782 26.695313 9.800782 10.980468 0 20.527344-4.167969 26.691406-9.800782-7.316406-4.367187-16.585938-6.992187-26.691406-6.992187-10.105469 0-19.375 2.625-26.695313 6.992187zm0 0" fill="#eb9898"/><path d="m229.578125 41.976562-48.328125 96.835938c-3.835938 7.6875.109375 16.984375 8.304688 19.566406l.023437.007813c30.175781 9.5 62.539063 9.5 92.714844 0 8.203125-2.582031 12.148437-11.894531 8.296875-19.585938l-48.507813-96.832031c-2.582031-5.152344-9.933593-5.144531-12.503906.007812zm0 0" fill="#7f9ae6"/><path d="m268.988281 95.683594-26.90625-53.714844c-2.582031-5.152344-9.933593-5.144531-12.503906.007812l-48.328125 96.835938c-1.523438 3.046875-1.800781 6.347656-1.097656 9.382812 27.371094-6.679687 63.605468-24.566406 88.835937-52.511718zm0 0" fill="#f6e06a"/><path d="m266.542969 38.109375c0 16.90625-13.707031 30.609375-30.609375 30.609375-16.90625 0-30.609375-13.703125-30.609375-30.609375s13.703125-30.609375 30.609375-30.609375c16.902344 0 30.609375 13.703125 30.609375 30.609375zm0 0" fill="#d16283"/><path d="m434.222656 66.554688c29.492188 0 53.398438 23.910156 53.398438 53.398437 0 39.355469-23.90625 75.417969-53.398438 75.417969-29.492187 0-53.398437-36.0625-53.398437-75.417969 0-29.488281 23.90625-53.398437 53.398437-53.398437zm0 0" fill="#a0d9bb"/><path d="m468.886719 176.53125c-41.722657 12.941406-84.605469-50.445312-60.558594-103.273438-16.402344 9.113282-27.503906 26.605469-27.503906 46.695313 0 39.355469 23.90625 75.417969 53.398437 75.417969 13.234375 0 25.335938-7.277344 34.664063-18.839844zm0 0" fill="#78bf9b"/><path d="m33.386719 350.101562c1.105469.574219 2.289062.84375 3.453125.84375 2.710937 0 5.324218-1.46875 6.660156-4.039062 4.851562-9.332031 4.851562-20.476562 0-29.808594-2.601562-5-2.601562-10.96875 0-15.96875 1.910156-3.675781.480469-8.203125-3.195312-10.113281-3.671876-1.910156-8.203126-.480469-10.113282 3.195313-4.851562 9.332031-4.851562 20.472656 0 29.804687 2.601563 5 2.601563 10.96875 0 15.96875-1.910156 3.675781-.480468 8.203125 3.195313 10.117187zm-14.648438-122.992187-7.949219 7.949219c-2.925781 2.925781-2.925781 7.675781 0 10.605468 1.46875 1.464844 3.386719 2.195313 5.304688 2.195313 1.921875 0 3.839844-.730469 5.304688-2.195313l7.949218-7.945312v11.238281c0 4.140625 3.355469 7.5 7.5 7.5 4.140625 0 7.5-3.359375 7.5-7.5v-11.238281l7.945313 7.945312c1.464843 1.464844 3.382812 2.195313 5.304687 2.195313 1.917969 0 3.835938-.730469 5.300782-2.195313 2.929687-2.929687 2.929687-7.679687 0-10.605468l-7.945313-7.949219h11.238281c4.144532 0 7.5-3.355469 7.5-7.5 0-4.140625-3.355468-7.5-7.5-7.5h-11.238281l7.945313-7.945313c2.929687-2.929687 2.929687-7.679687 0-10.605468-2.929688-2.929688-7.675782-2.929688-10.605469 0l-7.945313 7.945312v-11.238281c0-4.144531-3.359375-7.5-7.5-7.5-4.144531 0-7.5 3.355469-7.5 7.5v11.238281l-7.949218-7.945312c-2.929688-2.929688-7.675782-2.929688-10.605469 0-2.929688 2.925781-2.929688 7.675781 0 10.605468l7.945312 7.945313h-11.238281c-4.144531 0-7.5 3.359375-7.5 7.5 0 4.144531 3.355469 7.5 7.5 7.5zm39.382813-120.460937c1.335937 2.570312 3.949218 4.039062 6.660156 4.039062 1.164062 0 2.347656-.273438 3.453125-.84375 3.675781-1.914062 5.105469-6.441406 3.195313-10.117188-2.601563-4.996093-2.601563-10.96875 0-15.96875 4.851562-9.332031 4.851562-20.472656 0-29.804687-1.910157-3.675781-6.441407-5.105469-10.113282-3.195313-3.675781 1.910157-5.105468 6.4375-3.195312 10.113282 2.601562 5 2.601562 10.96875 0 15.96875-4.851563 9.332031-4.851563 20.476562 0 29.808594zm11.699218 328.191406h-11.238281l7.945313-7.949219c2.929687-2.929687 2.929687-7.675781 0-10.605469-2.929688-2.929687-7.675782-2.929687-10.605469 0l-7.945313 7.945313v-11.238281c0-4.140626-3.359374-7.5-7.5-7.5-4.144531 0-7.5 3.359374-7.5 7.5v11.238281l-7.949218-7.945313c-2.929688-2.929687-7.675782-2.929687-10.605469 0-2.929687 2.929688-2.929687 7.679688 0 10.605469l7.945313 7.949219h-11.238282c-4.144531 0-7.5 3.355468-7.5 7.5 0 4.140625 3.355469 7.5 7.5 7.5h11.238282l-7.945313 7.945312c-2.929687 2.929688-2.929687 7.679688 0 10.605469 1.464844 1.464844 3.382813 2.199219 5.300781 2.199219 1.921875 0 3.839844-.734375 5.304688-2.199219l7.949218-7.945313v11.238282c0 4.140625 3.355469 7.5 7.5 7.5 4.140626 0 7.5-3.359375 7.5-7.5v-11.238282l7.945313 7.945313c1.464844 1.464844 3.382813 2.199219 5.304687 2.199219 1.917969 0 3.835938-.734375 5.300782-2.199219 2.929687-2.929687 2.929687-7.675781 0-10.605469l-7.945313-7.945312h11.238281c4.144532 0 7.5-3.359375 7.5-7.5 0-4.144532-3.355468-7.5-7.5-7.5zm282.0625-350.828125c-1.910156 3.675781-.480468 8.203125 3.195313 10.113281 1.105469.574219 2.289063.847656 3.453125.847656 2.707031 0 5.324219-1.46875 6.660156-4.039062 4.855469-9.332032 4.855469-20.476563 0-29.808594-2.597656-5-2.597656-10.96875 0-15.96875 1.910156-3.675781.480469-8.203125-3.195312-10.113281-3.671875-1.910157-8.199219-.480469-10.113282 3.195312-4.851562 9.332031-4.851562 20.472657 0 29.808594 2.601563 4.996094 2.601563 10.964844 0 15.964844zm82.339844-24.957031c-33.578125 0-60.898437 27.320312-60.898437 60.898437 0 .476563.023437.945313.027343 1.417969-11.949218-8.191406-26.078124-12.980469-40.625-13.632813-15.300781-.6875-30.621093 3.253907-43.726562 11.148438l-26.699219-53.300781c7.230469-6.941407 11.742188-16.6875 11.742188-27.476563 0-21.011719-17.097657-38.109375-38.109375-38.109375-21.015625 0-38.109375 17.097656-38.109375 38.109375 0 10.738281 4.46875 20.445313 11.640625 27.375l-26.640625 53.375c-13.09375-7.875-28.386719-11.800781-43.6875-11.121094-17.550781.785157-34.507813 7.585938-47.746094 19.140625l-16.589844 14.480469c-11.664062 10.191406-12.871093 27.96875-2.683593 39.636719 5.546874 6.351562 13.34375 9.601562 21.179687 9.601562 4.636719 0 9.277344-1.164062 13.484375-3.46875-6.59375 12.972656-11.648438 27.445313-15.105469 43.304688-4.140625 18.976562-3.699219 36.621094 1.308594 52.4375 1.011719 3.195312 3.964844 5.238281 7.148437 5.238281.75 0 1.511719-.113281 2.265626-.351563 3.949218-1.25 6.136718-5.464843 4.886718-9.414062-4.207031-13.289062-4.527344-28.332031-.953125-44.714844 9.648438-44.246094 32.433594-75.914062 66.332031-92.628906-.796874 4.144531-.359374 8.46875 1.324219 12.441406 2.460938 5.792969 7.316407 10.199219 13.339844 12.097656 15.902344 5.007813 32.257813 7.507813 48.609375 7.507813 16.355469 0 32.710938-2.503906 48.609375-7.507813 6.011719-1.890624 10.863281-6.304687 13.324219-12.105468 1.683594-3.972656 2.113281-8.300782 1.3125-12.441406 33.910156 16.710937 56.707031 48.382812 66.355468 92.636718 5.707032 26.179688 1.292969 49.246094-12.769531 66.707032-6.449219 8.003906-14.78125 14.839843-24.859375 20.460937-.070312.027344-.144531.050781-.214844.082031-.496093.214844-.957031.480469-1.382812.78125-22.324219 11.960938-52.886719 18.175782-90.378906 18.175782-37.507813 0-68.257813-6.285157-90.667969-18.367188-.265625-.167969-.542969-.324219-.832031-.464844-8.355469-4.597656-15.539063-10.011718-21.441406-16.226562-2.855469-3.003906-7.601563-3.125-10.605469-.269532-3 2.851563-3.121094 7.597657-.269531 10.601563 5.628906 5.925781 12.210937 11.207031 19.667968 15.839844-23.519531-1.089844-45.835937 5.164062-63.578125 18-11.796875 8.535156-14.449219 25.074219-5.914062 36.871093 4.949219 6.84375 12.953125 10.929688 21.410156 10.929688 5.582031 0 10.929687-1.734375 15.460937-5.015625 10.484376-7.582031 24.699219-9.910156 40.382813-6.71875 1.945313 6.726563 4.71875 13.144531 8.210937 19.167969-9.09375 4.59375-15.253906 2.8125-22.960937-.332032-11.542969-4.714843-24.78125.84375-29.5 12.390626-2.285156 5.597656-2.253906 11.746093.085937 17.316406 2.34375 5.574218 6.710938 9.898437 12.308594 12.183594 10.675782 4.363281 20.535156 6.480468 30.136719 6.480468 8.308594 0 16.382813-1.609375 24.410156-4.875-.894531 13.976563 1.261719 29.234375 6.507813 46.089844 3.453125 11.101562 13.585937 18.5625 25.203125 18.5625 2.65625 0 5.300781-.402344 7.855469-1.199219 13.902343-4.328125 21.691406-19.160156 17.367187-33.0625-3.265625-10.476562-4.652344-19.53125-4.160156-27.03125 6.75 1.320313 13.746093 2.019531 20.921875 2.019531 8.953125 0 17.628906-1.085937 25.886718-3.113281 1.257813 4.167969 1.519532 10.398438-1.804687 16.269531-3.480469 6.132813-4.359375 13.257813-2.480469 20.058594 1.882813 6.796875 6.296875 12.457032 12.433594 15.933594 3.96875 2.246094 8.464844 3.433594 13.003906 3.433594 6.941406 0 13.734375-2.800782 18.640625-7.683594 2.9375-2.921875 2.945313-7.671875.023438-10.605469-2.921875-2.9375-7.671875-2.945312-10.605469-.027343-2.117188 2.109374-5.054688 3.316406-8.058594 3.316406-1.953125 0-3.894531-.511719-5.609375-1.484375-2.648437-1.503907-4.558593-3.945313-5.371093-6.882813-.808594-2.9375-.429688-6.015625 1.070312-8.664062 4.449219-7.855469 4.898438-15.574219 4.484375-20.667969-.210937-2.640625-.722656-5.199219-1.460937-7.589844 7.253906-2.925781 14.058593-6.613281 20.285156-10.957031 3.753906 9.167969 5.09375 19.617188 3.65625 29.714844-.582032 4.101562 2.269531 7.898437 6.371094 8.480468.355468.050782.710937.078126 1.0625.078126 3.675781 0 6.886718-2.703126 7.417968-6.445313 2.023438-14.25-.339844-29.113281-6.5-41.691406 9.75-9.410157 17.324219-20.710938 21.980469-33.230469.503906.007812 1.03125.023438 1.523437.023438 10.652344 0 20.8125-1.511719 30.195313-4.5 19.46875-6.191407 35.046875-18.519532 45.054687-35.652344 3.558594-6.089844 4.527344-13.199219 2.738282-20.023438-1.480469-5.640625-4.710938-10.523437-9.226563-14.054687 3.175781-12.773438 8.804688-23.625 15.042969-35.621094 10.304688-19.820313 21.90625-42.148437 25.148438-78.796875 30.035156-4.65625 54.285156-40.484375 54.285156-82.390625 0-33.578125-27.320313-60.898437-60.898438-60.898437zm-300.070312 90.765624c-5.789063 1.378907-11.167969 4.140626-15.679688 8.078126l-16.585937 14.484374c-5.441407 4.746094-13.726563 4.183594-18.472657-1.25-4.746093-5.441406-4.1875-13.726562 1.25-18.472656l16.589844-14.484375c10.6875-9.328125 24.378906-14.816406 38.550782-15.453125 9.101562-.410156 18.199218 1.21875 26.589843 4.640625-11.949219 5.84375-22.730469 13.34375-32.242187 22.457031zm101.78125-134.820312c12.742187 0 23.109375 10.367188 23.109375 23.109375s-10.367188 23.109375-23.109375 23.109375c-12.742188 0-23.109375-10.367188-23.109375-23.109375s10.367187-23.109375 23.109375-23.109375zm48.121094 132.582031c-.433594 1.027344-1.535157 2.867188-4.015626 3.648438-28.855468 9.085937-59.355468 9.085937-88.230468-.003907-2.480469-.78125-3.578125-2.621093-4.015625-3.644531-.433594-1.027343-.992188-3.097656.167969-5.421875l34.199218-68.527344c4.277344 1.664063 8.917969 2.585938 13.773438 2.585938 4.808594 0 9.40625-.902344 13.644531-2.535156l34.304687 68.476562c1.164063 2.324219.605469 4.394532.171876 5.421875zm-147.453126 221.742188c-17.5625-2.328125-33.6875 1.183593-46.234374 10.261719-1.957032 1.414062-4.261719 2.164062-6.667969 2.164062-3.714844 0-7.085938-1.722656-9.257813-4.722656-3.6875-5.09375-2.539062-12.242188 2.554688-15.925782 15.75-11.394531 35.109375-16.546874 56.25-15.058593.839844 2.46875 2.015625 4.820312 3.492187 6.992187-.3125 2.941406-.472656 5.90625-.472656 8.839844 0 2.507812.117187 4.992188.335937 7.449219zm99.332032-5.792969c10.058594 0 18.246094 8.1875 18.246094 18.246094 0 10.0625-8.1875 18.246094-18.246094 18.246094-10.0625 0-18.246094-8.183594-18.246094-18.246094 0-10.058594 8.183594-18.246094 18.246094-18.246094zm-89.074219-24.628906c19.320313 8.597656 42.996094 13.792968 70.390625 15.394531-5.054688 3.445313-9.109375 8.253906-11.644531 13.886719-18.410157-3.453125-35.90625-9.992188-52.09375-19.492188-1.292969-.757812-2.414063-1.714844-3.363281-2.792968-.015626-.019532-.035157-.039063-.050782-.058594-1.714844-1.980469-2.835937-4.390625-3.238281-6.9375zm18.476563 90.164062c-9.242188 5.480469-18.265626 8.15625-27.511719 8.15625-7.621094 0-15.621094-1.753906-24.464844-5.367187-1.886719-.769531-3.359375-2.226563-4.148437-4.105469-.789063-1.878906-.800782-3.949219-.027344-5.835938 1.589844-3.894531 6.050781-5.765624 9.941406-4.175781 9.894531 4.039063 21.617188 7.425781 37.261719-1.1875 2.960937 3.570313 6.207031 6.9375 9.707031 10.070313-.261719.8125-.523438 1.625-.757812 2.445312zm32.011718 67.414063c-1.109375.34375-2.253906.519531-3.398437.519531-5.015625 0-9.390625-3.222656-10.882813-8.019531-6.285156-20.183594-7.644531-37.5-4.117187-52.609375 6.585937 4.199218 13.753906 7.691406 21.367187 10.355468-1.234375 10.074219.261719 21.757813 4.53125 35.46875 1.871094 6.007813-1.496094 12.414063-7.5 14.285157zm38.585938-58.753907c-45.640625 0-82.941406-32.523437-84.589844-73.054687 16.117188 8.722656 33.34375 14.835937 51.371094 18.230469.597656 17.8125 15.265625 32.121094 33.21875 32.121094s32.621094-14.308594 33.214844-32.121094c18.03125-3.394532 35.257812-9.507813 51.375-18.230469-1.652344 40.53125-38.949219 73.054687-84.589844 73.054687zm85.835937-91.886718c-.019531.015625-.035156.039062-.054687.058594-.945313 1.078124-2.066406 2.035156-3.363282 2.792968-16.183593 9.5-33.683593 16.039063-52.09375 19.492188-2.535156-5.632813-6.585937-10.4375-11.636718-13.882813 27.449218-1.59375 51.09375-6.769531 70.371094-15.351562-.40625 2.53125-1.519532 4.925781-3.222657 6.890625zm15.941407-196.019532c-9.511719-9.113281-20.292969-16.609374-32.242188-22.457031 8.390625-3.421875 17.492188-5.050781 26.589844-4.640625 14.171875.636719 27.863281 6.125 38.550781 15.457032l5.160156 4.503906c2.367188 10.878906 6.359375 20.917968 11.59375 29.542968-2.171875 1.972657-4.917969 3.15625-7.890625 3.355469-3.484375.238281-6.859375-.898437-9.492187-3.199219l-16.589844-14.484374c-4.507813-3.9375-9.890625-6.699219-15.679687-8.078126zm56.46875 193.457032c-8.101563 13.871094-20.773438 23.875-36.648438 28.925781-7.175781 2.28125-14.949219 3.535156-23.128906 3.75.789062-4.589844 1.199218-9.289063 1.199218-14.078125 0-2.933594-.160156-5.894531-.472656-8.839844 0 0 .003906-.003906.003906-.007812 18.0625-.785156 31.648438-8.070313 39.351563-21.257813 1.535156-2.628906 4.003906-4.503906 6.953125-5.277343.757812-.199219 1.523438-.316407 2.285156-.359376-.269531 2.273438-.488281 4.59375-.621094 7.003907-.222656 4.136719 2.953126 7.671875 7.089844 7.894531.136719.003906.273438.007812.40625.007812 1.929688 0 3.703125-.738281 5.039063-1.957031-.203125 1.460938-.691407 2.882813-1.457031 4.195313zm8.199218-69.054688c-6.191406 11.90625-12.140625 23.382813-15.792968 36.980469-2.96875-.253906-5.992188 0-8.957032.78125-6.824218 1.789063-12.542968 6.128906-16.097656 12.21875-4.28125 7.328125-11.453125 11.777344-21.378906 13.304687.058594-2.074218-.113282-4.164062-.515625-6.234374 9.832031-6.054688 18.136719-13.242188 24.8125-21.53125 17.007812-21.117188 22.453125-48.542969 15.742187-79.308594-3.453125-15.839844-8.5-30.296875-15.082031-43.261719 4.101563 2.253906 8.695313 3.441406 13.4375 3.441406.644531 0 1.292969-.023437 1.941406-.066406 5.886719-.398437 11.367188-2.585937 15.84375-6.25 8.378907 9.230469 18.507813 15.554687 29.476563 17.726563-3.082032 33.0625-13.414063 52.9375-23.429688 72.199218zm31.84375-86.351562c-11.761718 0-22.824218-7.359375-31.140625-19.011719-.246093-.429687-.53125-.835937-.859375-1.214844-5.640625-8.289062-9.910156-18.609375-12.148437-29.929687-.046875-.332032-.109375-.660156-.199219-.984375-1.007812-5.410157-1.550781-11.035157-1.550781-16.777344 0-25.308594 20.589843-45.894531 45.898437-45.894531s45.898438 20.589844 45.898438 45.894531c0 36.179687-21.449219 67.917969-45.898438 67.917969zm-208.996094 68.125c-8.007812-1.949219-20.109374-4.894532-27.9375 7.414062-3.976562 6.25-3.960937 14.015625.039063 21.296875 6.632813 12.078125 22.105469 20.191407 38.511719 20.191407 16.402344 0 31.878906-8.113282 38.511718-20.191407 4-7.28125 4.011719-15.042969.039063-21.292969-7.828125-12.3125-19.929687-9.363281-27.9375-7.417968-1 .242187-2.007813.488281-3.019531.714844v-9.519532c.703125-.234375 1.398437-.5 2.082031-.800781l13.960937-6.210937c4.4375-1.972657 7.742188-5.78125 9.074219-10.449219 1.332031-4.671875.527344-9.652344-2.203125-13.664063-3.3125-4.875-8.277344-8.378906-13.980468-9.875-10.753907-2.8125-22.117188-2.8125-32.871094 0-5.699219 1.496094-10.664063 5-13.980469 9.875-2.730469 4.011719-3.53125 8.992188-2.199219 13.664063 1.328125 4.667969 4.636719 8.476562 9.070313 10.449219l13.964843 6.210937c.683594.300781 1.378907.566406 2.082032.800781v9.5625c-1.074219-.242187-2.148438-.5-3.207032-.757812zm-6.742187-29.523438c-.472656-.210937-.664063-.582031-.742187-.855468-.078126-.273438-.109376-.691407.179687-1.117188 1.273437-1.875 3.183594-3.222656 5.375-3.796875 4.132813-1.082031 8.386719-1.625 12.636719-1.625s8.503906.542969 12.636718 1.625c2.191407.574219 4.101563 1.921875 5.375 3.796875.289063.425781.257813.84375.179688 1.117188-.078125.273437-.269531.644531-.742188.855468l-13.964843 6.210938c-2.214844.984375-4.753907.984375-6.96875 0zm17.355469 46.273438h.058594.035156c.035156 0 .070312-.003906.105468-.003906 5.140626-.027344 9.824219-1.164063 13.960938-2.171876 8.894531-2.164062 10.007812-1.820312 11.730469.890626.992187 1.558593.8125 3.585937-.527344 6.027343-3.386719 6.167969-13.1875 12.410157-25.363281 12.410157-12.179688 0-21.976563-6.242188-25.363282-12.410157-1.339843-2.441406-1.519531-4.46875-.527343-6.027343.96875-1.527344 1.746093-2.304688 3.828125-2.304688 1.617187 0 4.015625.46875 7.902344 1.414062 4.191406 1.019532 8.941406 2.175782 14.160156 2.175782zm-54.023438-63.074219v-9.785156c0-4.144531-3.355468-7.5-7.5-7.5-4.140625 0-7.5 3.355469-7.5 7.5v9.785156c0 4.140625 3.359375 7.5 7.5 7.5 4.144532 0 7.5-3.359375 7.5-7.5zm123.230469 0v-9.785156c0-4.144531-3.355469-7.5-7.5-7.5-4.140625 0-7.5 3.355469-7.5 7.5v9.785156c0 4.140625 3.359375 7.5 7.5 7.5 4.144531 0 7.5-3.359375 7.5-7.5zm140.085937 114.34375c1.335938 2.570313 3.953126 4.042969 6.660157 4.042969 1.167969 0 2.347656-.273438 3.453125-.847656 3.675781-1.910157 5.105468-6.4375 3.195312-10.113282-2.601562-5-2.601562-10.96875 0-15.96875 4.851563-9.332031 4.851563-20.476562 0-29.808594-1.910156-3.671874-6.4375-5.105468-10.113281-3.191406-3.675781 1.910156-5.105469 6.4375-3.195313 10.113282 2.597657 5 2.597657 10.96875 0 15.96875-4.851562 9.332031-4.851562 20.472656 0 29.804687zm13.398438 84.214844h-11.238281l7.949219-7.949219c2.929687-2.925781 2.929687-7.675781 0-10.605469-2.929688-2.929687-7.679688-2.929687-10.609376 0l-7.945312 7.949219v-11.238281c0-4.144531-3.359375-7.5-7.5-7.5-4.144531 0-7.5 3.355469-7.5 7.5v11.238281l-7.949219-7.949219c-2.929687-2.929687-7.675781-2.929687-10.605469 0-2.929687 2.929688-2.929687 7.679688 0 10.605469l7.949219 7.949219h-11.238281c-4.144531 0-7.5 3.359375-7.5 7.5s3.355469 7.5 7.5 7.5h11.238281l-7.949219 7.945312c-2.929687 2.929688-2.929687 7.679688 0 10.609375 1.464844 1.464844 3.382813 2.195313 5.304688 2.195313 1.917969 0 3.839844-.730469 5.304688-2.195313l7.945312-7.949218v11.238281c0 4.144531 3.359375 7.5 7.5 7.5 4.144531 0 7.5-3.355469 7.5-7.5v-11.238281l7.949219 7.949218c1.464843 1.460938 3.382812 2.195313 5.300781 2.195313 1.921875 0 3.839844-.730469 5.304688-2.195313 2.929687-2.929687 2.929687-7.679687 0-10.609375l-7.945313-7.945312h11.234375c4.144531 0 7.5-3.359375 7.5-7.5s-3.355469-7.5-7.5-7.5zm0 0"/></svg>