<svg viewBox="-28 0 512 512.00051" xmlns="http://www.w3.org/2000/svg"><path d="m345.945312 235.421875c99.28125 70.855469 111.296876 152.414063 99.492188 195.894531-3.230469 11.894532-14.46875 19.636719-26.765625 18.859375-36.429687-2.300781-108.617187 17.757813-156.066406 22.917969-10.847657-66.082031-43.742188-76.972656-43.742188-76.972656-18.710937-30.5625-49.796875-135.066406-47.699219-156.773438zm0 0" fill="#f6e06a"/><path d="m342.113281 259.160156c-7.191406-8.257812-17.515625-15.960937-29.390625-22.992187l-141.558594 3.179687c-2.09375 21.707032 28.992188 126.210938 47.703126 156.773438 0 0 32.894531 10.894531 43.742187 76.972656 40.558594-4.410156 99.175781-19.695312 138.101563-22.609375 52.648437-57.355469-24.542969-152.203125-58.597657-191.324219zm0 0" fill="#edcc5f"/><path d="m354.71875 427.996094c-27.460938 0-52.941406-14.398438-81.683594-44.792969-7.941406-8.398437-7.574218-21.640625.824219-29.582031 8.398437-7.9375 21.640625-7.570313 29.578125.828125 35.714844 37.765625 53.582031 34.628906 73.226562 26.605469 10.703126-4.367188 22.917969.765624 27.28125 11.460937 4.371094 10.699219-.761718 22.914063-11.460937 27.28125-13.265625 5.421875-25.707031 8.199219-37.765625 8.199219zm0 0" fill="#495059"/><g fill="#ddaf89"><path d="m116.773438 340.128906c-2.882813.289063-5.859376.097656-8.835938-.628906-34.421875-8.445312-68.726562-30.246094-94.121094-59.816406-9.414062-10.957032-8.15625-27.46875 2.800782-36.882813 10.957031-9.410156 27.472656-8.15625 36.882812 2.800781 18.449219 21.484376 42.832031 37.1875 66.898438 43.09375 14.03125 3.4375 22.613281 17.601563 19.171874 31.632813-2.710937 11.054687-12.082031 18.726563-22.796874 19.800781zm0 0"/><path d="m193.808594 504.5c-7.761719 0-15.445313-3.441406-20.605469-10.023438-17.714844-22.605468-40.011719-57.683593-29.15625-101.113281 3.503906-14.011719 17.707031-22.535156 31.71875-19.03125 14.011719 3.503907 22.535156 17.703125 19.03125 31.71875-4.140625 16.566407 1.714844 33.363281 19.578125 56.160157 8.910156 11.367187 6.917969 27.808593-4.453125 36.71875-4.785156 3.75-10.472656 5.570312-16.113281 5.570312zm0 0"/><path d="m294.796875 504.5c-6.042969 0-12.113281-2.085938-17.050781-6.335938-24.589844-21.167968-40.214844-48.300781-49.175782-85.390624-3.390624-14.039063 5.242188-28.171876 19.285157-31.5625 14.042969-3.390626 28.171875 5.242187 31.5625 19.28125 6.347656 26.273437 16.355469 44.167968 32.453125 58.027343 10.949218 9.425781 12.183594 25.9375 2.761718 36.886719-5.175781 6.007812-12.484374 9.09375-19.835937 9.09375zm0 0"/></g><path d="m194.796875 406.050781c3.503906-14.015625-5.019531-28.214843-19.03125-31.71875-14.011719-3.503906-28.214844 5.019531-31.71875 19.03125-2.554687 10.222657-3.253906 19.972657-2.628906 29.214844 17.628906 10.507813 37.945312 17.546875 59.785156 20.046875-7.351563-13.570312-9.269531-25.128906-6.40625-36.574219zm0 0" fill="#d1a582"/><path d="m279.421875 400.492188c-3.394531-14.039063-17.519531-22.671876-31.566406-19.28125-14.042969 3.390624-22.675781 17.523437-19.285157 31.566406 2.585938 10.699218 5.746094 20.550781 9.5 29.691406 18.0625-2.21875 35.058594-7.546875 50.332032-15.375-3.613282-7.8125-6.566406-16.597656-8.980469-26.601562zm0 0" fill="#d1a582"/><path d="m120.398438 288.695312c-12.109376-2.972656-24.296876-8.429687-35.769532-15.851562-4.636718 12.757812-7.15625 26.382812-7.15625 40.539062 0 5.300782.359375 10.527344 1.042969 15.660157 9.660156 4.496093 19.535156 8.03125 29.421875 10.457031 2.976562.726562 5.953125.917969 8.835938.628906 10.71875-1.074218 20.085937-8.746094 22.796874-19.800781 3.441407-14.03125-5.140624-28.195313-19.171874-31.632813zm0 0" fill="#d1a582"/><path d="m346.5 313.382812c0-63.683593-57.085938-115.308593-127.507812-115.308593-70.417969 0-127.503907 51.625-127.503907 115.308593 0 63.683594 57.085938 115.3125 127.503907 115.3125 70.421874 0 127.507812-51.628906 127.507812-115.3125zm0 0" fill="#ddaf89"/><path d="m103.832031 239.347656c-6.644531 8.605469-12.183593 17.972656-16.382812 27.945313-5.722657 13.585937-.445313 29.335937 12.269531 36.796875 34.996094 20.546875 75.757812 32.332031 119.273438 32.332031 43.515624 0 84.277343-11.785156 119.273437-32.332031 12.714844-7.460938 17.992187-23.210938 12.269531-36.796875-4.199218-9.972657-9.738281-19.339844-16.382812-27.945313zm0 0" fill="#7f9ae6"/><path d="m301.433594 403.628906c-5.101563 0-10.367188-.414062-15.753906-1.257812-14.269532-2.230469-24.035157-15.609375-21.800782-29.878906 2.226563-14.273438 15.609375-24.035157 29.878906-21.800782 11.050782 1.726563 19.882813-.175781 23.636719-5.082031 3.378907-4.414063 3.175781-12.027344-.542969-20.367187-5.882812-13.195313.046876-28.65625 13.242188-34.539063 13.195312-5.878906 28.65625.050781 34.539062 13.242187 11.640626 26.125 9.511719 53.585938-5.695312 73.457032-13.050781 17.046875-33.5 26.226562-57.503906 26.226562zm0 0" fill="#c49b7a"/><path d="m160.921875 271.316406c-21.042969-7.152344-40.339844-18.074218-57.085937-31.96875-6.648438 8.605469-12.1875 17.972656-16.386719 27.945313-5.722657 13.585937-.445313 29.335937 12.269531 36.796875 18.199219 10.683594 37.964844 18.972656 58.855469 24.492187-7.664063-15.378906-5.492188-38.472656 2.347656-57.265625zm0 0" fill="#5e78bf"/><path d="m171.601562 92.066406c-5.136718 0-10.316406-1.566406-14.789062-4.816406l-31.007812-22.523438c-13.578126-9.863281-31.890626-9.042968-44.535157 1.996094l-20.300781 17.726563c-10.484375 9.152343-26.40625 8.074219-35.558594-2.410157-9.152344-10.484374-8.074218-26.40625 2.410156-35.558593l20.300782-17.726563c14.640625-12.78125 33.394531-20.300781 52.8125-21.171875 19.417968-.867187 38.765625 4.945313 54.492187 16.367188l31.007813 22.523437c11.257812 8.179688 13.757812 23.9375 5.578125 35.199219-4.929688 6.789063-12.617188 10.394531-20.410157 10.394531zm0 0" fill="#495059"/><path d="m266.382812 92.066406c-7.792968 0-15.476562-3.605468-20.410156-10.394531-8.175781-11.261719-5.679687-27.019531 5.582032-35.199219l31.007812-22.523437c15.722656-11.421875 35.078125-17.226563 54.492188-16.363281 19.414062.867187 38.167968 8.386718 52.808593 21.167968l20.304688 17.726563c10.480469 9.152343 11.5625 25.074219 2.40625 35.558593-9.152344 10.484376-25.070313 11.5625-35.558594 2.410157l-20.300781-17.726563c-12.644532-11.039062-30.957032-11.859375-44.53125-1.996094l-31.007813 22.523438c-4.472656 3.25-9.65625 4.816406-14.792969 4.816406zm0 0" fill="#495059"/><path d="m218.992188 291.660156c127.933593 0 185.585937-58.605468 167.59375-141.125-19.335938-88.675781-80.242188-137.21875-167.59375-137.21875-87.347657 0-148.253907 48.542969-167.589844 137.21875-17.996094 82.519532 39.660156 141.125 167.589844 141.125zm0 0" fill="#ddaf89"/><path d="m236.816406 341.855469c0 19.671875-15.945312 35.617187-35.613281 35.617187-19.671875 0-35.617187-15.945312-35.617187-35.617187s15.945312-35.617188 35.617187-35.617188c19.667969 0 35.613281 15.945313 35.613281 35.617188zm0 0" fill="#f6e06a"/><path d="m145.8125 143.839844c0-14.9375-15.203125-27.046875-33.960938-27.046875-18.757812 0-33.964843 12.109375-33.964843 27.046875s15.207031 27.042968 33.964843 27.042968c18.757813 0 33.960938-12.105468 33.960938-27.042968zm0 0" fill="#ffdbdb"/><path d="m336.410156 143.839844c0-14.9375-15.207031-27.046875-33.964844-27.046875-18.757812 0-33.960937 12.109375-33.960937 27.046875s15.203125 27.042968 33.960937 27.042968c18.757813 0 33.964844-12.105468 33.964844-27.042968zm0 0" fill="#ffdbdb"/><path d="m379.085938 123.8125c-9.566407-27.417969-23.8125-50.03125-42.132813-67.5-53.753906-9.351562-112.058594 20.425781-130.546875 20.425781-15.410156 0-58.488281-20.675781-103.53125-22.148437-22.097656 20.355468-38.464844 47.992187-48.085938 82.339844 44.636719 20.390624 91.277344-1.972657 151.617188-1.972657 69.871094 0 121.382812 30.015625 172.679688-11.144531zm0 0" fill="#7f9ae6"/><path d="m224.960938 121.484375c-11.679688-3.058594-23.945313-3.058594-35.625 0-4.835938 1.265625-9.046876 4.238281-11.859376 8.375-3.796874 5.582031-1.613281 13.238281 4.554688 15.980469l17.109375 7.609375c5.097656 2.265625 10.917969 2.265625 16.011719 0l17.113281-7.609375c6.167969-2.742188 8.351563-10.398438 4.554687-15.980469-2.8125-4.136719-7.023437-7.109375-11.859374-8.375zm0 0" fill="#495059"/><path d="m207.035156 244.925781c19.605469 0 39.839844-12.796875 39.839844-45.121093 0-21.25-13.972656-21.921876-39.839844-21.921876-25.871094 0-39.84375.671876-39.84375 21.921876 0 32.324218 20.234375 45.121093 39.84375 45.121093zm0 0" fill="#d16283"/><path d="m207.035156 210.179688c-13.902344 0-26.628906 3.710937-36.535156 9.859374 6.519531 17.554688 21.703125 24.886719 36.535156 24.886719 14.832032 0 30.011719-7.332031 36.53125-24.886719-9.90625-6.148437-22.628906-9.859374-36.53125-9.859374zm0 0" fill="#eb9898"/><path d="m282.652344 97.363281c-4.140625 0-7.5 3.359375-7.5 7.5v11.996094c0 4.140625 3.359375 7.5 7.5 7.5 4.144531 0 7.5-3.359375 7.5-7.5v-11.996094c0-4.140625-3.355469-7.5-7.5-7.5zm160.867187 241.566407c-1.585937-3.828126-5.976562-5.644532-9.800781-4.054688-3.828125 1.585938-5.640625 5.972656-4.054688 9.800781 12.105469 29.191407 15.21875 60.058594 8.535157 84.675781-2.25 8.285157-10.261719 13.882813-19.054688 13.339844-22.960937-1.457031-58.949219 5.5-93.75 12.21875-1.820312.351563-3.636719.703125-5.457031 1.050782-.980469-1.097657-2.035156-2.144532-3.171875-3.125-10.953125-9.429688-18.859375-21.050782-24.609375-36.234376 1.347656-.796874 2.679688-1.617187 4-2.457031 19.503906 14.351563 38.710938 21.351563 58.558594 21.351563 12.902344 0 26.183594-2.863282 40.605468-8.753906 7.03125-2.867188 12.519532-8.304688 15.460938-15.304688s2.976562-14.726562.109375-21.753906c-5.925781-14.507813-22.550781-21.492188-37.0625-15.570313-1.675781.683594-3.273437 1.304688-4.832031 1.851563 13.109375-21.394532 14.144531-48.910156 2.484375-75.070313-2.683594-6.015625-6.925781-10.851562-12.039063-14.257812 1.625-7.402344.96875-15.222657-1.992187-22.253907-.261719-.613281-.546875-1.234374-.816407-1.851562 2.015626-1.570312 3.960938-3.191406 5.839844-4.859375 21.363282 17.890625 38.765625 37.242187 51.761719 57.601563 1.433594 2.242187 3.855469 3.464843 6.332031 3.464843 1.378906 0 2.777344-.378906 4.027344-1.179687 3.492188-2.230469 4.515625-6.867188 2.285156-10.355469-13.636718-21.359375-31.746094-41.597656-53.871094-60.261719.664063-.777344 1.332032-1.550781 1.96875-2.34375 20.488282-25.4375 27.035157-58.515625 18.933594-95.660156-4.757812-21.816406-11.925781-41.351562-21.4375-58.515625 6.121094 5.179687 13.621094 7.726563 21.097656 7.726563 9.121094 0 18.195313-3.785157 24.652344-11.179688 11.859375-13.582031 10.457032-34.277344-3.125-46.140625l-20.300781-17.726563c-15.914063-13.890624-36.300781-22.0625-57.410156-23.0117182-19.507813-.8632818-39.007813 4.4882812-55.355469 15.1367182-19.136719-6.257812-40.191406-9.410156-63.039062-9.410156-22.84375 0-43.902344 3.152344-63.035157 9.410156-16.347656-10.648437-35.84375-16.003906-55.359375-15.1367182-21.105468.9492182-41.492187 9.1210942-57.410156 23.0156252l-20.300781 17.726562c-13.582031 11.859375-14.984375 32.554688-3.125 46.136719 6.457031 7.398438 15.53125 11.179688 24.652343 11.179688 7.476563 0 14.976563-2.546876 21.097657-7.726563-9.511719 17.164063-16.679688 36.699219-21.4375 58.519531-4.253907 19.503906-4.503907 37.917969-.75 54.730469.902343 4.042969 4.90625 6.585937 8.957031 5.683594 4.039062-.902344 6.585938-4.910157 5.683594-8.953125-3.277344-14.667969-3.019532-30.90625.765625-48.265625.371093-1.710938.765625-3.394531 1.167969-5.074219 12.433593 4.355469 25.019531 5.921875 37.835937 5.921875 15.828125 0 32.003906-2.386719 48.636719-4.835937 7.796875-1.152344 15.816406-2.320313 24.039062-3.304688 1.910156 3.449219 4.894532 6.214844 8.574219 7.851562l17.109375 7.609376c1.160156.515624 2.347656.9375 3.554688 1.285156v8.835937c-10.664063.148438-18.636719.804688-25.140626 3.535157-9.96875 4.1875-14.816406 12.640624-14.816406 25.84375 0 16.851562 5.140625 30.710937 14.863282 40.082031 8.386718 8.085937 19.921874 12.539062 32.480468 12.539062 12.554688 0 24.089844-4.453125 32.476563-12.539062 9.722656-9.371094 14.863281-23.230469 14.863281-40.082031 0-13.203126-4.84375-21.65625-14.816406-25.84375-6.457032-2.710938-14.359375-3.378907-24.910156-3.535157v-8.835937c1.207031-.347656 2.394531-.769532 3.554687-1.285156l17.109375-7.609376c3.621094-1.609374 6.554688-4.316406 8.46875-7.683593 7.746094.949219 15.308594 2.054687 22.664062 3.140625 16.492188 2.433594 32.613282 4.8125 48.449219 4.8125 20.496094 0 40.515625-3.988282 60.234375-16.992188 1.539063 5.226563 2.917969 10.609375 4.128906 16.164063 7.097657 32.554687 1.578126 61.273437-15.960937 83.050781-5.5 6.824219-12.101563 12.960938-19.730469 18.394531-.457031.253907-.875.550781-1.253906.878907-28.191406 19.511718-70.128906 29.699218-123.320312 29.699218-37.386719 0-69.402344-5.074218-95.15625-15.085937-10.671876-4.148438-20.152344-9.101563-28.40625-14.824219-.199219-.15625-.410157-.308594-.625-.449219-10.078126-7.082031-18.304688-15.320312-24.578126-24.671875-2.304687-3.441406-6.964843-4.359375-10.40625-2.050781-3.4375 2.304687-4.355468 6.964844-2.050781 10.40625 2.335938 3.480469 4.90625 6.820313 7.6875 10.027344-2.167969-2.207031-4.269531-4.46875-6.269531-6.796875-12.089844-14.078125-33.378906-15.691406-47.457031-3.601563-6.820313 5.855469-10.949219 14.019531-11.6328128 22.980469-.6796872 8.964844 2.1718748 17.65625 8.0273438 24.476562 21.710938 25.28125 49.734375 45.148438 79.28125 56.328126 6.847656 27.117187 23.597656 50.828124 46.582031 67.816406-2.976562 38.980468 17.417969 70.109375 33.308594 90.386718 6.425781 8.195313 16.085937 12.898438 26.507813 12.898438 7.589843 0 14.761718-2.476562 20.742187-7.167969 14.609375-11.445312 17.179687-32.640625 5.730469-47.25-6.34375-8.097656-11.054688-15.363281-14.21875-21.957031 4.257812.371094 8.570312.570312 12.933594.570312 2.871093 0 5.71875-.109374 8.558593-.265624 9.757813 27.851562 24.617188 50.113281 45.300781 67.921874 6.105469 5.253907 13.898438 8.148438 21.945313 8.148438 9.816406 0 19.117187-4.265625 25.519531-11.699219 5.863282-6.8125 8.726563-15.503906 8.054688-24.46875-.15625-2.054687-.5-4.066406-1.007813-6.023437.292969-.054688.585938-.109375.878907-.167969 33.875-6.542969 68.898437-13.304687 89.957031-11.976563.714843.042969 1.425781.066407 2.136719.066407 15.019531 0 28.417968-10.003907 32.339843-24.445313 7.535157-27.765625 4.199219-62.15625-9.15625-94.355468zm-106.800781-323.851563c17.722656.792969 34.847656 7.65625 48.210938 19.328125l20.304687 17.722656c7.351563 6.417969 8.109375 17.625 1.691406 24.976563-6.417969 7.351562-17.625 8.109375-24.976562 1.691406l-20.300781-17.726563c-5.457032-4.761718-11.964844-8.058593-18.941407-9.640624-3.109375-2.984376-6.332031-5.851563-9.683593-8.578126-10.078126-8.191406-21.0625-15.027343-32.910157-20.515624 11.398438-5.277344 23.992188-7.828126 36.605469-7.257813zm-180 15.761719c.472656-.121094.933594-.285156 1.378906-.496094 18.308594-6.335938 38.65625-9.527344 60.894532-9.527344 22.238281 0 42.582031 3.191406 60.890624 9.527344.445313.210938.910157.375 1.386719.496094 11.574219 4.128906 22.320313 9.527344 32.203125 16.183594-30.304687.308593-59.820312 9.285156-80.875 15.695312-11.492187 3.496094-21.417968 6.519531-26.195312 6.519531s-14.703125-3.019531-26.195313-6.515625c-15.867187-4.828125-36.3125-11.027344-58.183593-13.988281 10.5625-7.449219 22.144531-13.414063 34.695312-17.894531zm-100.683594 47.957031c-7.351562 6.417969-18.554687 5.660156-24.976562-1.691406-6.417969-7.351563-5.660156-18.558594 1.695312-24.976563l20.300782-17.726562c13.367187-11.667969 30.488281-18.53125 48.214843-19.324219 12.605469-.566406 25.203125 1.984375 36.597657 7.257813-11.84375 5.488281-22.828126 12.324218-32.90625 20.515624-3.351563 2.726563-6.574219 5.589844-9.683594 8.578126-6.976563 1.582031-13.484375 4.878906-18.941406 9.640624zm183.339844 121.007813c0 18.1875-8.496094 37.617187-32.339844 37.617187-23.847656 0-32.34375-19.433594-32.34375-37.617187 0-12.0625 2.59375-14.425782 32.34375-14.425782s32.339844 2.367188 32.339844 14.425782zm-8.183594-63.761719c-.003906.03125 0 .058593-.003906.09375-.019531.285156-.066406.535156-.121094.722656-.15625.558594-.609375 1.578125-1.847656 2.128906l-17.113281 7.609375c-3.148438 1.402344-6.765625 1.402344-9.914063 0l-17.113281-7.609375c-1.234375-.550781-1.6875-1.570312-1.847656-2.128906-.160157-.558594-.3125-1.664063.449219-2.78125 1.792968-2.636719 4.476562-4.53125 7.554687-5.339844 5.207031-1.359375 10.558594-2.042969 15.914063-2.042969 5.355468 0 10.707031.683594 15.914062 2.042969 3.082031.808594 5.765625 2.703125 7.558594 5.339844.472656.695313.59375 1.390625.574218 1.949219 0 .003906-.003906.007812-.003906.015625zm37.445313-2.730469c-7.578125-1.117188-15.378907-2.257812-23.433594-3.242188-.527344-1.546874-1.238281-3.042968-2.179687-4.429687-3.832032-5.632813-9.570313-9.6875-16.164063-11.414063-12.894531-3.375-26.527344-3.375-39.421875 0-6.589844 1.726563-12.332031 5.78125-16.164062 11.414063-.902344 1.332031-1.59375 2.765625-2.117188 4.246094-8.597656 1.019531-16.90625 2.230469-24.972656 3.417969-29.738282 4.382812-55.722656 8.203124-80.289063-.75 8.691407-27.804688 22.132813-50.816407 40.140625-68.710938.132813-.125.257813-.253906.382813-.386719.417969-.414062.84375-.816406 1.265625-1.222656 25.796875 1.363281 51.328125 9.109375 70.160156 14.839844 13.671875 4.15625 23.550781 7.164062 30.5625 7.164062 7.007812 0 16.886719-3.007812 30.558594-7.167969 26.375-8.03125 62.292968-18.953124 96.496094-13.71875.035156.035157.074218.070313.109374.105469.121094.132813.25.261719.382813.386719 15.488281 15.390625 27.59375 34.566406 36.210937 57.320312-31.167968 22.507813-62.414062 17.917969-101.527343 12.148438zm-184.191407 190.171875c-24.167968-10.703125-46.886718-27.664063-64.941406-48.6875-3.246094-3.78125-4.824218-8.597656-4.449218-13.566406.378906-4.96875 2.667968-9.492188 6.449218-12.738281 7.800782-6.703126 19.601563-5.804688 26.308594 2 8.832031 10.285156 18.875 19.253906 29.882812 26.738281-.304687 8.285156 2.199219 16.480469 7.054688 23.179687-.5 4.3125-.761719 8.660156-.761719 12.972656 0 3.402344.160157 6.769532.457031 10.101563zm295.054688 64.515625c6.851562-2.796875 14.707031.5 17.503906 7.351562 1.355469 3.320313 1.335938 6.96875-.050781 10.277344-1.390625 3.304688-3.984375 5.871094-7.300781 7.226563-12.585938 5.140625-24.015625 7.636719-34.933594 7.636719-12.796875 0-25.082031-3.433594-37.734375-10.625 14.042969-2.328126 26.527344-7.871094 36.703125-16.277344 9.582031.386718 18.046875-2.417969 25.8125-5.589844zm-33.765625-91.371094c.367187.105469.726563.234375 1.085937.359375.222657.078125.449219.144531.675782.230469 4.425781 1.722656 8.203125 5.113281 10.285156 9.78125 10.507812 23.574219 8.714844 48.191406-4.800781 65.84375-11.492188 15.015625-29.796875 23.285156-51.546875 23.285156-4.730469 0-9.640625-.390625-14.59375-1.164062-4.921875-.769532-9.253906-3.410156-12.191406-7.4375-2.9375-4.023438-4.128907-8.953125-3.359376-13.875.769532-4.925782 3.410157-9.253906 7.433594-12.191406 3.230469-2.355469 7.035156-3.589844 10.957032-3.589844.96875 0 1.945312.078125 2.921874.230468 14.007813 2.1875 25.21875-.703124 30.75-7.933593 5.148438-6.726563 5.277344-16.925781.351563-27.976563-1.015625-2.277344-1.523437-4.648437-1.597656-7-.003907-.136718-.007813-.277344-.011719-.417968-.003906-.484376.011719-.96875.046875-1.449219.003906-.074219.003906-.152344.011719-.226563.046875-.578125.117187-1.152344.21875-1.71875.003906-.015625.007812-.035156.011718-.050781.089844-.511719.210938-1.019531.34375-1.523437.046876-.167969.097657-.332032.148438-.5.101562-.34375.214844-.683594.335938-1.023438.074218-.207031.148437-.414062.230468-.617188.117188-.289062.246094-.566406.371094-.847656.230469-.492187.476562-.972656.742188-1.445312.085937-.144532.160156-.292969.246093-.4375.179688-.292969.371094-.574219.566407-.859375.097656-.144531.195312-.289063.300781-.433594.203125-.28125.414062-.554687.632812-.824219.105469-.132812.21875-.257812.328125-.386718.230469-.269532.464844-.539063.710938-.792969.074218-.082031.160156-.152344.238281-.230469.441406-.445312.90625-.863281 1.394531-1.257812.210938-.175782.425782-.351563.648438-.515626.199218-.152343.40625-.292968.613281-.4375.285156-.191406.574219-.378906.871094-.558593.175781-.105469.347656-.210938.527343-.3125.488282-.273438.988282-.535157 1.511719-.765625.585938-.261719 1.179688-.492188 1.777344-.6875.019531-.007813.039063-.011719.058594-.015625 3.496093-1.136719 7.136719-1.175781 10.511719-.28125.082031.019531.160156.035156.242187.054687zm-126.742187 2.53125c52.191406 0 94.554687-9.574218 125.011718-27.972656 1.191406 3.25 1.59375 6.667969 1.1875 10.035156-2.742187-.371094-5.511718-.382812-8.253906-.066406-.074219.007812-.148438.015625-.21875.023438-.464844.058593-.929688.125-1.394531.199218-.210938.035156-.421875.074219-.632813.113282-.515625.097656-1.027344.199218-1.535156.316406-.476562.113281-.949219.230468-1.425781.359375-.257813.074219-.515625.15625-.773438.234375-.441406.136718-.882812.277344-1.320312.433594-.21875.078124-.4375.152343-.65625.234374-.648438.242188-1.296875.5-1.941407.785157-.640624.285156-1.261718.59375-1.871093.914062-.144531.074219-.28125.148438-.417969.226563-.527344.285156-1.046875.582031-1.554688.890625-.070312.042969-.144531.085937-.21875.132812-7.019531 4.359375-11.984374 11.03125-14.339843 18.558594-.042969.132813-.082031.265625-.121094.398437-.152344.511719-.292969 1.03125-.425781 1.550782-.039063.167968-.085938.332031-.125.5-.140625.609375-.269532 1.222656-.375 1.839844-.042969.238281-.074219.480468-.109375.71875-.0625.402343-.117188.804687-.164063 1.207031-.015625.152343-.046875.300781-.0625.453125-20.828125 8.738281-42.753906 14.277344-65.3125 16.523437-5.449218-15.714843-19.738281-27.324219-36.898437-28.847656 4.574219.15625 9.21875.238281 13.949219.238281zm10.324218 42.695313c0 15.503906-12.609375 28.117187-28.113281 28.117187-15.507813 0-28.117187-12.613281-28.117187-28.117187 0-15.503907 12.609374-28.117188 28.117187-28.117188 15.5 0 28.113281 12.613281 28.113281 28.117188zm-135.3125-70.683594c7.417969 4.46875 15.546875 8.441406 24.398438 11.882813 23.1875 9.011718 50.902344 14.261718 82.558594 15.691406-16.507813.089844-30.84375 9.507812-38.003907 23.238281-20.855469-5.257813-40.824219-13.433594-59.441406-24.363281-9.164063-5.375-13.121094-16.59375-9.511719-26.449219zm114.46875 195.664063c6.34375 8.097656 4.921875 19.84375-3.175781 26.191406-3.316406 2.597656-7.289063 3.972656-11.488281 3.972656-5.785156 0-11.140625-2.605469-14.703125-7.152344-13.117188-16.738281-29.660157-41.566406-30.371094-71.632812 12.234375 6.8125 25.75 11.898437 40.132813 14.894531 3.328124 10.164063 9.648437 21.019531 19.605468 33.726563zm10.519532-45.640626c-66.171876 0-120.003907-48.363281-120.003907-107.8125 0-.347656.015625-.703124.019531-1.054687 18.710938 10.621094 38.660157 18.667969 59.445313 23.988281-.234375 1.816406-.367187 3.660156-.367187 5.539063 0 23.773437 19.339843 43.117187 43.117187 43.117187 23.523437 0 42.695313-18.941406 43.097656-42.371094 22.390625-2.308593 44.1875-7.675781 65-16 .21875.570313.449219 1.132813.699219 1.695313 3.027344 6.785156 2.519531 11.34375 1.441406 12.753906-1.320312 1.730469-6.8125 3.746094-16.523437 2.230469-8.882813-1.390625-17.773438.765625-25.035157 6.0625-7.261718 5.300781-12.027343 13.109375-13.414062 21.992188-1.386719 8.878906.765625 17.773437 6.0625 25.035156 3.765625 5.160156 8.804688 9.050781 14.589844 11.371094-17.660156 8.84375-37.429688 13.453124-58.128906 13.453124zm89.953124 69.316407c-3.546874 4.125-8.703124 6.488281-14.148437 6.488281-4.457031 0-8.773437-1.605469-12.160156-4.519531-18.074219-15.5625-30.828125-34.226563-39.722657-58.203125 12.492188-2.015625 24.523438-5.597656 35.847657-10.710938 6.605469 16.796875 15.691406 29.851563 28.21875 40.636719 1.398437 1.207031 2.589843 2.585937 3.558593 4.101563.015626.023437.03125.046874.050782.074218 1.613281 2.550782 2.589844 5.476563 2.824218 8.574219.371094 4.96875-1.214843 9.785156-4.46875 13.558594zm-177.300781-393.148438c-4.140625 0-7.5 3.359375-7.5 7.5v11.996094c0 4.140625 3.359375 7.5 7.5 7.5s7.5-3.359375 7.5-7.5v-11.996094c0-4.140625-3.359375-7.5-7.5-7.5zm0 0"/></svg>