<svg viewBox="0 -35 512.00033 512" xmlns="http://www.w3.org/2000/svg"><path d="m159.550781 435.273438c-11.199219 0-21.195312-7.902344-23.433593-19.304688-2.546876-12.957031 5.894531-25.523438 18.851562-28.066406 27.988281-5.496094 48.167969-6.511719 67.6875-7.488282 5.371094-.269531 10.441406-.523437 15.679688-.875 13.179687-.878906 24.5625 9.101563 25.4375 22.273438.875 13.175781-9.097657 24.566406-22.269532 25.4375-5.621094.375-11.128906.652344-16.449218.917969-18.648438.9375-36.261719 1.820312-60.871094 6.652343-1.554688.308594-3.105469.453126-4.632813.453126zm0 0" fill="#ddaf89"/><path d="m425.015625 413.457031c-25.101563 0-48.386719-13.15625-74.664063-40.945312-7.257812-7.671875-6.921874-19.777344.753907-27.035157 7.675781-7.261718 19.78125-6.921874 27.039062.753907 32.644531 34.519531 48.972657 31.65625 66.933594 24.320312 9.777344-3.992187 20.945313.695313 24.9375 10.476563 3.992187 9.777344-.695313 20.945312-10.476563 24.9375-12.128906 4.953125-23.5 7.492187-34.523437 7.492187zm0 0" fill="#495059"/><path d="m202.613281 333.710938c-37.515625 0-73.152343-19.714844-95.332031-52.730469-7.359375-10.960938-4.441406-25.816407 6.519531-33.179688 10.960938-7.363281 25.8125-4.441406 33.175781 6.515625 4.976563 7.40625 23.691407 31.578125 55.636719 31.578125 13.203125 0 23.90625 10.703125 23.90625 23.90625s-10.703125 23.910157-23.90625 23.910157zm0 0" fill="#ddaf89"/><path d="m412.808594 334.804688c-5.792969 0-11.597656-.464844-17.371094-1.410157-13.035156-2.128906-21.867188-14.421875-19.738281-27.453125 2.132812-13.03125 14.425781-21.863281 27.453125-19.734375 31.53125 5.152344 53.898437-15.675781 60.003906-22.183593 9.035156-9.628907 24.167969-10.109376 33.796875-1.074219 9.628906 9.035156 10.109375 24.164062 1.074219 33.792969-22.972656 24.480468-53.875 38.0625-85.21875 38.0625zm0 0" fill="#ddaf89"/><path d="m238.335938 379.539062c-5.238282.351563-10.3125.605469-15.683594.875-7.550782.378907-15.210938.765626-23.378906 1.414063 14.867187 17.226563 34.851562 30.59375 57.839843 38.179687 4.523438-4.6875 7.125-11.1875 6.660157-18.195312-.875-13.171875-12.257813-23.152344-25.4375-22.273438zm0 0" fill="#d1a582"/><path d="m427.832031 285.179688c-7.363281 1.839843-15.644531 2.503906-24.679687 1.027343-13.027344-2.128906-25.324219 6.703125-27.453125 19.734375-2.132813 13.03125 6.703125 25.320313 19.734375 27.453125 5.777344.945313 11.582031 1.40625 17.375 1.40625 4.902344 0 9.792968-.332031 14.644531-.984375 1.925781-8.101562 2.949219-16.503906 2.949219-25.125 0-8.046875-.886719-15.910156-2.570313-23.511718zm0 0" fill="#d1a582"/><path d="m417.503906 308.691406c0-58.210937-52.179687-105.398437-116.550781-105.398437-64.367187 0-116.550781 47.1875-116.550781 105.398437 0 58.214844 52.183594 105.402344 116.550781 105.402344 64.371094 0 116.550781-47.1875 116.550781-105.402344zm0 0" fill="#ddaf89"/><path d="m253.210938 435.273438c-11.199219 0-21.195313-7.902344-23.433594-19.304688-2.546875-12.957031 5.894531-25.523438 18.851562-28.066406 27.988282-5.496094 48.167969-6.507813 67.683594-7.488282 5.371094-.269531 10.445312-.523437 15.679688-.875 13.179687-.878906 24.566406 9.097657 25.441406 22.273438s-9.097656 24.566406-22.273438 25.4375c-5.621094.375-11.125.652344-16.449218.917969-18.644532.9375-36.257813 1.820312-60.867188 6.652343-1.554688.308594-3.105469.453126-4.632812.453126zm0 0" fill="#c49b7a"/><path d="m406.21875 241.019531c-28.5625 23.699219-65.25 37.953125-105.265625 37.953125s-76.699219-14.253906-105.261719-37.953125c-6.074218 7.867188-11.140625 16.425781-14.976562 25.542969-5.230469 12.417969-.40625 26.816406 11.214844 33.636719 31.992187 18.78125 69.246093 29.554687 109.023437 29.554687s77.035156-10.773437 109.027344-29.554687c11.621093-6.820313 16.445312-21.21875 11.214843-33.636719-3.839843-9.117188-8.902343-17.675781-14.976562-25.542969zm0 0" fill="#7f9ae6"/><path d="m247.871094 270.238281c-19.234375-6.535156-36.875-16.519531-52.183594-29.21875-6.074219 7.867188-11.136719 16.425781-14.976562 25.542969-5.230469 12.417969-.40625 26.816406 11.214843 33.636719 16.636719 9.765625 34.703125 17.339843 53.800781 22.386719-7.007812-14.058594-5.023437-35.164063 2.144532-52.347657zm0 0" fill="#5e78bf"/><path d="m254.078125 91.140625c-5.078125 0-10.203125-1.546875-14.628906-4.761719l-30.667969-22.277344c-13.429688-9.753906-31.542969-8.945312-44.046875 1.972657l-20.082031 17.53125c-10.367188 9.054687-26.113282 7.988281-35.167969-2.382813s-7.988281-26.117187 2.382813-35.167968l20.082031-17.535157c14.480469-12.640625 33.03125-20.078125 52.234375-20.9375 19.207031-.855469 38.34375 4.890625 53.894531 16.1875l30.671875 22.277344c11.136719 8.089844 13.605469 23.675781 5.515625 34.816406-4.875 6.710938-12.480469 10.277344-20.1875 10.277344zm0 0" fill="#495059"/><path d="m347.828125 91.140625c-7.710937 0-15.308594-3.566406-20.1875-10.28125-8.089844-11.136719-5.621094-26.722656 5.519531-34.8125l30.667969-22.28125c15.554687-11.296875 34.699219-17.039063 53.898437-16.183594 19.203126.859375 37.753907 8.296875 52.234376 20.9375l20.078124 17.535157c10.371094 9.050781 11.4375 24.796874 2.382813 35.167968s-24.800781 11.4375-35.167969 2.382813l-20.082031-17.535157c-12.503906-10.914062-30.617187-11.726562-44.046875-1.96875l-30.667969 22.277344c-4.425781 3.214844-9.550781 4.761719-14.628906 4.761719zm0 0" fill="#495059"/><path d="m300.953125 288.554688c126.535156 0 183.558594-57.960938 165.761719-139.582032-19.125-87.707031-79.367188-135.71875-165.761719-135.71875s-146.636719 48.011719-165.761719 135.71875c-17.796875 81.621094 39.226563 139.582032 165.761719 139.582032zm0 0" fill="#ddaf89"/><path d="m333.511719 333.859375c0 17.980469-14.578125 32.554687-32.558594 32.554687s-32.554687-14.574218-32.554687-32.554687 14.574218-32.554687 32.554687-32.554687 32.558594 14.574218 32.558594 32.554687zm0 0" fill="#f6e06a"/><path d="m237.660156 147.890625c0-15.414063-15.691406-27.910156-35.046875-27.910156s-35.046875 12.496093-35.046875 27.910156 15.691406 27.910156 35.046875 27.910156 35.046875-12.496093 35.046875-27.910156zm0 0" fill="#ffdbdb"/><path d="m434.339844 147.890625c0-15.414063-15.691406-27.910156-35.046875-27.910156s-35.046875 12.496093-35.046875 27.910156 15.691406 27.910156 35.046875 27.910156 35.046875-12.496093 35.046875-27.910156zm0 0" fill="#ffdbdb"/><path d="m319.335938 124.820312c-12.050782-3.152343-24.710938-3.152343-36.761719 0-4.988281 1.308594-9.339844 4.378907-12.238281 8.644532-3.917969 5.761718-1.664063 13.664062 4.699218 16.492187l17.65625 7.851563c5.261719 2.339844 11.265625 2.339844 16.523438 0l17.660156-7.851563c6.363281-2.828125 8.617188-10.730469 4.699219-16.492187-2.902344-4.265625-7.25-7.335938-12.238281-8.644532zm0 0" fill="#495059"/><path d="m19.648438 388.148438h306.996093c6.707031 0 12.148438-5.4375 12.148438-12.144532v-18.382812c0-6.707032-5.441407-12.144532-12.148438-12.144532h-306.996093c-6.710938 0-12.148438 5.4375-12.148438 12.144532v18.382812c0 6.707032 5.4375 12.144532 12.148438 12.144532zm0 0" fill="#a2d3ee"/><path d="m22.160156 175.386719h205.542969c8.097656 0 14.660156 6.5625 14.660156 14.660156v140.765625c0 8.097656-6.5625 14.664062-14.660156 14.664062h-205.542969c-8.097656 0-14.660156-6.566406-14.660156-14.664062v-140.765625c0-8.097656 6.5625-14.660156 14.660156-14.660156zm0 0" fill="#dfe3e5"/><path d="m106.179688 175.386719h-84.019532c-8.097656 0-14.660156 6.5625-14.660156 14.660156v140.765625c0 8.097656 6.5625 14.664062 14.660156 14.664062h170.574219c-97.210937-33.074218-104.082031-110.953124-86.554687-170.089843zm0 0" fill="#cacdcf"/><path d="m134.785156 293.957031-10.941406-27.792969-27.792969-10.941406c-4.253906-1.675781-4.09375-7.75.242188-9.195312l61.867187-20.621094c3.980469-1.328125 7.765625 2.460938 6.441406 6.441406l-20.625 61.863282c-1.445312 4.335937-7.515624 4.5-9.191406.246093zm0 0" fill="#495059"/><path d="m19.648438 388.148438h210.566406c6.710937 0 12.148437-5.4375 12.148437-12.144532v-18.382812c0-6.707032-5.4375-12.144532-12.148437-12.144532h-210.566406c-6.710938 0-12.148438 5.4375-12.148438 12.144532v18.382812c0 6.707032 5.4375 12.144532 12.148438 12.144532zm0 0" fill="#7f9ae6"/><path d="m33.539062 345.476562h15v42.671876h-15zm0 0" fill="#5e78bf"/><path d="m201.324219 345.476562h15v42.671876h-15zm0 0" fill="#5e78bf"/><path d="m267.398438 177.890625c-2.722657-3.121094-7.460938-3.445313-10.582032-.726563-3.125 2.722657-3.449218 7.457032-.726562 10.582032 11.316406 12.988281 27.667968 20.4375 44.863281 20.4375 17.191406 0 33.546875-7.449219 44.863281-20.4375 2.722656-3.125 2.398438-7.859375-.726562-10.582032-3.121094-2.722656-7.859375-2.398437-10.582032.726563-6.800781 7.800781-16.027343 12.925781-26.054687 14.644531v-26.507812c1.292969-.363282 2.566406-.8125 3.808594-1.363282l17.65625-7.855468c5.070312-2.253906 8.851562-6.609375 10.371093-11.945313 1.523438-5.335937.605469-11.027343-2.515624-15.617187-3.921876-5.765625-9.796876-9.914063-16.542969-11.679688-13.269531-3.472656-27.292969-3.472656-40.558594 0-6.746094 1.765625-12.621094 5.914063-16.542969 11.679688-3.117187 4.589844-4.035156 10.28125-2.515625 15.617187 1.519531 5.335938 5.300781 9.691407 10.371094 11.949219l17.65625 7.851562c1.242187.550782 2.515625 1 3.808594 1.363282v26.507812c-10.023438-1.71875-19.25-6.839844-26.050781-14.644531zm10.683593-34.785156c-1.367187-.609375-1.863281-1.734375-2.042969-2.351563-.175781-.617187-.34375-1.835937.496094-3.070312 1.882813-2.769532 4.699219-4.757813 7.9375-5.605469 5.390625-1.414063 10.9375-2.117187 16.480469-2.117187 5.546875 0 11.089844.703124 16.480469 2.117187 3.238281.847656 6.054687 2.835937 7.9375 5.601563.839844 1.238281.667968 2.457031.492187 3.074218-.175781.617188-.671875 1.742188-2.039062 2.351563l-17.660157 7.851562c-3.3125 1.472657-7.113281 1.472657-10.425781 0zm-62.542969-35.433594v12.375c0 4.144531 3.359376 7.5 7.5 7.5 4.140626 0 7.5-3.355469 7.5-7.5v-12.375c0-4.140625-3.359374-7.5-7.5-7.5-4.140624 0-7.5 3.359375-7.5 7.5zm155.828126 0v12.375c0 4.144531 3.359374 7.5 7.5 7.5 4.144531 0 7.5-3.355469 7.5-7.5v-12.375c0-4.140625-3.355469-7.5-7.5-7.5-4.140626 0-7.5 3.359375-7.5 7.5zm140.617187 171.710937c-.269531-8.382812-3.785156-16.164062-9.902344-21.902343-6.117187-5.742188-14.113281-8.753907-22.488281-8.488281-8.386719.265624-16.167969 3.78125-21.90625 9.898437-3.058594 3.265625-12.789062 12.691406-26.917969 17.582031-.042969-3.613281-.660156-7.253906-1.890625-10.789062 14.582032-9.546875 26.066406-21.195313 34.253906-34.839844 2.132813-3.554688.976563-8.160156-2.574218-10.292969-3.550782-2.128906-8.15625-.976562-10.289063 2.574219-22.410156 37.355469-75.4375 57.929688-149.316406 57.929688-18.269531 0-35.417969-1.25-51.089844-3.71875v-87.289063c0-12.21875-9.9375-22.160156-22.160156-22.160156h-87.792969c.464844-5.644531 1.328125-11.441407 2.609375-17.316407 7.917969-36.304687 22.960938-65.589843 44.78125-87.273437.144531-.136719.277344-.273437.414063-.417969 3.148437-3.101562 6.4375-6.050781 9.863281-8.835937 12.386719-10.066407 26.351563-17.863281 41.804687-23.378907.472657-.117187.929688-.28125 1.375-.492187 18.097657-6.261719 38.210938-9.417969 60.199219-9.417969 21.984375 0 42.097657 3.15625 60.195313 9.417969.445312.210937.90625.375 1.378906.492187 15.449219 5.515626 29.417969 13.3125 41.800781 23.378907 3.441407 2.796875 6.738281 5.75 9.898438 8.863281.121093.132812.242187.257812.375.378906 21.824219 21.6875 36.867187 50.976563 44.785156 87.285156 3.351563 15.375 3.90625 29.902344 1.648437 43.175782-.695312 4.082031 2.050782 7.957031 6.132813 8.652344.425781.070312.851563.105468 1.269531.105468 3.589844 0 6.761719-2.585937 7.382813-6.242187 2.585937-15.179688 1.988281-31.628907-1.777344-48.886719-4.667969-21.421875-11.691406-40.621094-20.992187-57.511719 5.835937 4.808594 13.027343 7.394531 20.546874 7.394531.742188 0 1.492188-.027343 2.238282-.078124 8.644531-.585938 16.539062-4.5 22.234375-11.023438 5.695312-6.523438 8.511719-14.878906 7.925781-23.519531s-4.5-16.535157-11.023438-22.234375l-20.082031-17.53125c-15.753906-13.753906-35.9375-21.847656-56.832031-22.7812502-19.296875-.8554688-38.589844 4.4375002-54.761719 14.9609372-18.925781-6.183593-39.75-9.296875-62.339843-9.296875-22.59375 0-43.417969 3.113282-62.34375 9.296875-16.179688-10.527343-35.476563-15.820312-54.769532-14.9609372-20.894531.9375002-41.078125 9.0273442-56.832031 22.7812502l-20.078125 17.535156c-13.46875 11.757812-14.859375 32.28125-3.101562 45.75 6.402343 7.332031 15.402343 11.085938 24.445312 11.085938 7.273438 0 14.574219-2.433594 20.578125-7.378907-9.304687 16.886719-16.324219 36.089844-20.996094 57.511719-1.515625 6.945312-2.515625 13.816406-3 20.511719h-102.703125c-12.21875 0-22.160156 9.941406-22.160156 22.160156v140.769531c0 5.246094 1.835938 10.070313 4.898438 13.871094-3.039063 3.460938-4.898438 7.980469-4.898438 12.933594v18.382812c0 10.832032 8.8125 19.644532 19.648438 19.644532h112.710937c-3.667969 6.355468-5.125 14.011718-3.601563 21.765624 2.882813 14.695313 15.835938 25.359376 30.792969 25.359376 2.027344 0 4.070313-.199219 6.078125-.589844 24.082032-4.730469 41.433594-5.601563 59.800782-6.523438 2.445312-.121094 4.949218-.253906 7.46875-.386718 5.523437 4.699218 12.652343 7.503906 20.3125 7.503906 2.027343 0 4.070312-.203125 6.078124-.59375 24.085938-4.730469 41.433594-5.601563 59.796876-6.523438 5.347656-.265625 10.875-.542968 16.570312-.921875 8.371094-.554687 16.023438-4.339843 21.550781-10.648437 4.613281-5.269532 7.273438-11.777344 7.707031-18.652344 2.242188-1.226562 4.433594-2.507812 6.566407-3.851562 17.816406 13.015624 35.375 19.371093 53.535156 19.371093 11.878906 0 24.097656-2.632812 37.359375-8.046875 13.589844-5.550781 20.132812-21.125 14.582031-34.71875-5.550781-13.589844-21.121093-20.132812-34.714843-14.582031-10.476563 4.273437-19.265626 6.753906-32.523438-.628906 3.992188-6.628907 7.253906-13.625 9.726562-20.886719 31.207032-1.804688 61.574219-16.265625 84.046876-40.21875 5.742187-6.117188 8.757812-14.105469 8.492187-22.492188zm-94.59375-264.308593c17.511719.785156 34.429687 7.566406 47.636719 19.097656l20.078125 17.53125c3.507812 3.0625 5.613281 7.304687 5.925781 11.949219.316406 4.644531-1.195312 9.132812-4.257812 12.636718-3.0625 3.507813-7.304688 5.613282-11.949219 5.925782s-9.132813-1.199219-12.640625-4.257813l-20.078125-17.535156c-5.402344-4.714844-11.839844-7.976563-18.746094-9.546875-3.070313-2.953125-6.257813-5.78125-9.566406-8.472656-9.925781-8.070313-20.742188-14.808594-32.402344-20.226563 11.21875-5.160156 23.613281-7.65625 36-7.101562zm-277.667969 62.882812c-7.238281 6.320313-18.269531 5.570313-24.585937-1.667969-6.320313-7.234374-5.574219-18.265624 1.664062-24.585937l20.082031-17.53125c13.203126-11.53125 30.121094-18.3125 47.636719-19.097656 12.386719-.554688 24.777344 1.941406 36 7.101562-11.660156 5.417969-22.480469 12.15625-32.40625 20.226563-3.308593 2.691406-6.496093 5.523437-9.566406 8.476562-6.90625 1.566406-13.34375 4.832032-18.746094 9.546875zm186.289063 255.902344c0 1.390625-.121094 2.761719-.34375 4.117187h-49.414063c-.226562-1.355468-.355468-2.730468-.355468-4.117187 0-13.816406 11.238281-25.054687 25.054687-25.054687s25.058594 11.238281 25.058594 25.054687zm-76.726563 19.117187h77.359375c2.5625 0 4.644531 2.082032 4.644531 4.644532v18.378906c0 2.5625-2.082031 4.648438-4.644531 4.648438h-77.359375c.363282-1.492188.578125-3.042969.578125-4.648438v-18.378906c0-1.601563-.214843-3.152344-.578125-4.644532zm.578125-60.476562c12.097657 1.800781 24.980469 2.914062 38.5 3.34375-11.183593 3.710938-20.191406 12.226562-24.570312 23.09375-4.675781-.84375-9.328125-1.859375-13.929688-3.019531zm-.011719 38.859375c3.660157.855469 7.351563 1.628906 11.050782 2.300781 0 .066406-.003906.132813-.003906.199219 0 1.378906.078124 2.753906.214843 4.117187h-12.441406c.710937-2.085937 1.121094-4.308593 1.179687-6.617187zm-27.433593 86.054687c.222656 1.136719.511719 2.25.851562 3.335938-18.40625.925781-36.011719 1.898438-60.53125 6.714844-1.054687.207031-2.128906.308594-3.1875.308594-7.808593 0-14.566406-5.570313-16.074219-13.25-1.644531-8.363282 3.359376-16.496094 11.449219-18.875h71.09375c-3.667969 6.355468-5.125 14.011718-3.601562 21.765624zm12.445312-41.414062c0 2.5625-2.085937 4.648438-4.644531 4.648438h-210.570312c-2.5625 0-4.648438-2.085938-4.648438-4.648438v-18.378906c0-2.5625 2.085938-4.644532 4.648438-4.644532h210.566406c2.5625 0 4.648437 2.082032 4.648437 4.644532zm0-45.1875c0 3.949219-3.210937 7.164062-7.160156 7.164062h-205.542969c-3.949218 0-7.160156-3.214843-7.160156-7.164062v-140.765625c0-3.945313 3.210938-7.160156 7.160156-7.160156h205.542969c3.949219 0 7.160156 3.210937 7.160156 7.160156zm213.046875 46.683594c5.9375-2.421875 12.738282.433594 15.160156 6.367187 2.425782 5.933594-.433593 12.734375-6.367187 15.160157-11.425781 4.664062-21.792969 6.933593-31.6875 6.933593-13.757813 0-26.867187-4.390625-40.679687-13.667969 6.230468-5.148437 11.839843-10.84375 16.761718-16.972656 19.671875 11.488282 33.894532 7.453125 46.8125 2.179688zm-86.71875 12.792968c-1.921875-1.644531-4.625-2.285156-7.199218-1.449218-3.9375 1.28125-6.09375 5.515625-4.8125 9.453125.421874 1.292969.679687 2.644531.769531 4.015625.292969 4.375-1.140625 8.597656-4.023438 11.894531-2.890625 3.300781-6.886719 5.273437-11.261719 5.566406-5.574218.367188-11.042968.644531-16.328124.910157-18.921876.949218-36.789063 1.84375-61.9375 6.78125-1.054688.207031-2.128907.3125-3.1875.3125-7.808594 0-14.566407-5.574219-16.074219-13.25-1.644531-8.367188 3.359375-16.496094 11.449219-18.875h78.058593c10.835938 0 19.648438-8.8125 19.648438-19.648438v-18.378906c0-5.71875-2.46875-10.855469-6.382813-14.449219.726563-3.035156 1.101563-6.148437 1.101563-9.3125 0-.070313-.003907-.140625-.003907-.210937 24.28125-4.394532 47.441407-12.722657 68.996094-24.824219-.050781 32.871093-18.550781 63.421875-48.8125 81.464843zm44.992188-96.558593c-21.152344 12.417969-44.023438 20.871093-68.070313 25.199219-4.378906-10.855469-13.375-19.363282-24.546875-23.082032 34.824219-1.089844 64.96875-6.734375 89.722656-16.847656 4.230469-1.730469 8.273438-3.597656 12.160157-5.570312 1.457031 7.871093-2.109375 16.101562-9.265625 20.300781zm86.375-2.121094c-18.6875 19.917969-43.46875 32.398437-69.160156 35.117187 1.050781-5.910156 1.605468-11.933593 1.605468-18.035156 0-3.886718-.230468-7.804687-.667968-11.695312.886718-1.242188 1.6875-2.542969 2.398437-3.886719 21.574219-4.414063 36.339844-18.035156 41.894531-23.953125 2.996094-3.195312 7.058594-5.035156 11.441406-5.171875 4.378907-.148437 8.554688 1.433594 11.75 4.433594 3.195313 3 5.03125 7.0625 5.171876 11.441406.140624 4.382813-1.4375 8.554687-4.433594 11.75zm-336.773438-73.320313-61.863281 20.621094c-5.003906 1.667969-8.328125 6.15625-8.46875 11.429688-.140625 5.269531 2.941406 9.925781 7.847656 11.859375l17.148438 6.75-19.230469 19.234375c-2.929688 2.925781-2.929688 7.675781 0 10.605468 1.460938 1.464844 3.382812 2.195313 5.300781 2.195313s3.839844-.730469 5.304688-2.195313l19.230469-19.230468 6.75 17.144531c1.890624 4.804687 6.386718 7.855469 11.515624 7.855469.113282 0 .230469-.003906.34375-.003906 5.273438-.140626 9.761719-3.464844 11.429688-8.46875l20.621094-61.867188c1.515625-4.554688.351562-9.492188-3.042969-12.886719s-8.332031-4.558593-12.886719-3.042969zm-16.652344 66.238282-8.3125-21.113282c0-.003906-.003906-.007812-.003906-.011718-.367187-.925782-.921875-1.792969-1.671875-2.542969-.746093-.75-1.613281-1.300781-2.539062-1.667969-.003907-.003906-.011719-.003906-.015625-.007812l-21.113282-8.3125 50.484376-16.828125zm0 0"/></svg>