<svg viewBox="0 -20 511.99723 511" xmlns="http://www.w3.org/2000/svg"><path d="m93.203125 373.835938c-17.246094 0-31.871094-6.59375-46.351563-16.539063-8.667968-5.953125-10.871093-17.800781-4.917968-26.46875s17.804687-10.871094 26.46875-4.917969c14.011718 9.621094 27.246094 18.707032 66.367187-7.191406 8.765625-5.804688 20.578125-3.40625 26.382813 5.363281 5.800781 8.765625 3.402344 20.578125-5.363282 26.382813-25.203124 16.6875-45.222656 23.371094-62.585937 23.371094zm0 0" fill="#495059"/><g fill="#ddaf89"><path d="m120.414062 434.640625c-3.78125 0-7.410156-.273437-10.789062-.789063-12.992188-1.992187-21.910156-14.136718-19.921875-27.125 1.992187-12.992187 14.136719-21.914062 27.128906-19.917968 7.03125 1.074218 17.796875-1.015625 22.933594-6.273438 1.203125-1.234375 4.019531-4.117187 2.484375-12.765625-2.296875-12.941406 6.332031-25.292969 19.273438-27.589843 12.9375-2.296876 25.289062 6.335937 27.585937 19.273437 3.746094 21.101563-1.6875 40.398437-15.296875 54.335937-14.472656 14.816407-35.605469 20.851563-53.398438 20.851563zm0 0"/><path d="m262.492188 463.65625c-.621094 0-1.242188-.023438-1.871094-.074219-13.105469-1.019531-22.898438-12.464843-21.878906-25.570312 2.175781-27.925781 1.390624-47.566407-2.792969-70.050781-2.402344-12.917969 6.121093-25.34375 19.042969-27.746094 12.917968-2.410156 25.34375 6.121094 27.746093 19.042968 4.941407 26.5625 5.941407 50.449219 3.453125 82.449219-.972656 12.472657-11.394531 21.949219-23.699218 21.949219zm0 0"/><path d="m110.394531 309.050781c-44.984375 0-81.015625-15.238281-98.863281-41.808593-7.328125-10.910157-4.421875-25.691407 6.488281-33.023438 10.910157-7.324219 25.695313-4.421875 33.019531 6.488281 8.730469 12.992188 30.917969 20.75 59.355469 20.75 13.144531 0 23.796875 10.65625 23.796875 23.796875 0 13.144532-10.65625 23.796875-23.796875 23.796875zm0 0"/><path d="m306.15625 309.050781c-13.144531 0-23.796875-10.652343-23.796875-23.796875 0-13.140625 10.652344-23.796875 23.796875-23.796875 27.816406 0 30.847656-1.242187 64.902344-26.574219 10.542968-7.847656 25.453125-5.660156 33.296875 4.886719s5.65625 25.453125-4.890625 33.296875c-39.824219 29.628906-52.242188 35.984375-93.308594 35.984375zm0 0"/></g><path d="m334.636719 258.300781c-7.878907 2.882813-15.46875 3.15625-28.480469 3.15625-13.144531 0-23.796875 10.65625-23.796875 23.796875 0 13.144532 10.652344 23.796875 23.796875 23.796875 11.566406 0 20.859375-.503906 29.132812-1.890625 1.613282-7.445312 2.464844-15.136718 2.464844-23.007812 0-8.878906-1.082031-17.527344-3.117187-25.851563zm0 0" fill="#d1a582"/><path d="m282.738281 359.257812c-2.40625-12.921874-14.832031-21.449218-27.746093-19.042968-12.921876 2.402344-21.445313 14.828125-19.042969 27.746094 1.96875 10.589843 3.175781 20.558593 3.683593 31.054687 16.917969-3.863281 32.53125-10.769531 46.09375-20.054687-.75-6.511719-1.742187-13.023438-2.988281-19.703126zm0 0" fill="#d1a582"/><path d="m161.523438 340.179688c-12.941407 2.296874-21.570313 14.648437-19.273438 27.585937 1.535156 8.648437-1.28125 11.535156-2.484375 12.769531-.835937.855469-1.832031 1.613282-2.921875 2.300782 13.921875 8.457031 29.730469 14.511718 46.710938 17.523437 6.226562-11.882813 8.214843-25.933594 5.554687-40.90625-2.296875-12.941406-14.648437-21.574219-27.585937-19.273437zm0 0" fill="#d1a582"/><path d="m110.394531 261.457031c-10.472656 0-20.09375-1.054687-28.511719-3.035156-2.015624 8.289063-3.085937 16.894531-3.085937 25.730469 0 7.714844.820313 15.253906 2.371094 22.5625 9.207031 1.535156 18.980469 2.335937 29.226562 2.335937 13.144531 0 23.796875-10.65625 23.796875-23.796875s-10.65625-23.796875-23.796875-23.796875zm0 0" fill="#d1a582"/><path d="m324.28125 284.152344c0-57.941406-51.9375-104.910156-116.007812-104.910156-64.066407 0-116.003907 46.96875-116.003907 104.910156 0 57.9375 51.9375 104.910156 116.003907 104.910156 64.070312 0 116.007812-46.972656 116.007812-104.910156zm0 0" fill="#ddaf89"/><path d="m313.046875 216.792969c-28.429687 23.59375-64.941406 37.777343-104.773437 37.777343-39.828126 0-76.339844-14.183593-104.769532-37.777343-6.046875 7.832031-11.085937 16.351562-14.910156 25.425781-5.203125 12.363281-.402344 26.6875 11.164062 33.480469 31.84375 18.691406 68.925782 29.414062 108.515626 29.414062 39.59375 0 76.675781-10.722656 108.515624-29.414062 11.570313-6.792969 16.371094-21.117188 11.164063-33.480469-3.820313-9.074219-8.859375-17.597656-14.90625-25.425781zm0 0" fill="#7f9ae6"/><path d="m155.441406 245.878906c-19.144531-6.503906-36.703125-16.441406-51.9375-29.085937-6.046875 7.828125-11.085937 16.351562-14.910156 25.425781-5.203125 12.359375-.402344 26.6875 11.164062 33.476562 16.554688 9.722657 34.539063 17.261719 53.546876 22.285157-6.972657-13.996094-4.996094-35.003907 2.136718-52.101563zm0 0" fill="#5e78bf"/><path d="m164.898438 85.402344c-4.703126 0-9.445313-1.433594-13.539063-4.40625l-28.382813-20.617188c-12.429687-9.027344-29.191406-8.277344-40.761718 1.828125l-18.582032 16.222657c-9.597656 8.378906-24.171874 7.394531-32.546874-2.203126-8.378907-9.597656-7.394532-24.167968 2.203124-32.546874l18.582032-16.226563c13.402344-11.699219 30.570312-18.578125 48.339844-19.375 17.773437-.796875 35.484374 4.523437 49.878906 14.976563l28.382812 20.617187c10.304688 7.488281 12.589844 21.910156 5.105469 32.21875-4.511719 6.210937-11.550781 9.511719-18.679687 9.511719zm0 0" fill="#495059"/><path d="m251.652344 85.402344c-7.132813 0-14.167969-3.300782-18.683594-9.511719-7.484375-10.308594-5.199219-24.730469 5.109375-32.21875l28.382813-20.617187c14.390624-10.453126 32.109374-15.769532 49.875-14.976563 17.773437.792969 34.9375 7.675781 48.339843 19.375l18.585938 16.226563c9.59375 8.378906 10.582031 22.949218 2.203125 32.546874-8.378906 9.597657-22.949219 10.582032-32.546875 2.203126l-18.582031-16.222657c-11.574219-10.105469-28.335938-10.855469-40.761719-1.824219l-28.382813 20.617188c-4.09375 2.96875-8.839844 4.402344-13.539062 4.402344zm0 0" fill="#495059"/><path d="m208.273438 268.097656c117.101562 0 169.871093-53.640625 153.402343-129.175781-17.699219-81.167969-73.449219-125.597656-153.402343-125.597656-79.953126 0-135.699219 44.429687-153.398438 125.597656-16.472656 75.535156 36.300781 129.175781 153.398438 129.175781zm0 0" fill="#ddaf89"/><path d="m240.679688 309.199219c0 17.898437-14.507813 32.40625-32.40625 32.40625-17.894532 0-32.402344-14.507813-32.402344-32.40625 0-17.894531 14.507812-32.402344 32.402344-32.402344 17.898437 0 32.40625 14.507813 32.40625 32.402344zm0 0" fill="#f6e06a"/><path d="m145.277344 146.554688c0-15.34375-15.617188-27.78125-34.882813-27.78125s-34.882812 12.4375-34.882812 27.78125 15.617187 27.78125 34.882812 27.78125 34.882813-12.4375 34.882813-27.78125zm0 0" fill="#ffdbdb"/><path d="m341.039062 146.554688c0-15.34375-15.617187-27.78125-34.882812-27.78125s-34.882812 12.4375-34.882812 27.78125 15.617187 27.78125 34.882812 27.78125 34.882812-12.4375 34.882812-27.78125zm0 0" fill="#ffdbdb"/><path d="m226.570312 123.59375c-11.996093-3.140625-24.59375-3.140625-36.589843 0-4.964844 1.300781-9.292969 4.355469-12.179688 8.601562-3.902343 5.734376-1.660156 13.597657 4.675781 16.417969l17.574219 7.816407c5.234375 2.328124 11.210938 2.328124 16.445313 0l17.578125-7.816407c6.335937-2.820312 8.578125-10.683593 4.675781-16.417969-2.886719-4.246093-7.214844-7.300781-12.179688-8.601562zm0 0" fill="#495059"/><path d="m449.980469 139.289062c-12.371094-12.375-32.339844-12.519531-44.894531-.4375-12.949219 12.464844-12.707032 33.511719.003906 46.222657l30.488281 30.488281c7.953125 7.957031 20.855469 7.957031 28.8125 0l30.484375-30.488281c12.710938-12.710938 12.957031-33.757813 0-46.222657-12.550781-12.082031-32.519531-11.9375-44.894531.4375zm0 0" fill="#d16283"/><path d="m130.722656 93.84375c-13.78125 0-24.996094 11.214844-24.996094 25 0 4.140625 3.359376 7.5 7.5 7.5 4.140626 0 7.5-3.359375 7.5-7.5 0-5.515625 4.484376-9.996094 9.996094-9.996094 5.511719 0 10 4.480469 10 9.996094 0 4.140625 3.355469 7.5 7.5 7.5 4.140625 0 7.5-3.359375 7.5-7.5 0-13.785156-11.214844-25-25-25zm259.085938 129.164062c-8.269532-1.210937-16.519532.867188-23.226563 5.855469-14.035156 10.441407-22.445312 16.507813-29.25 20.035157-.273437-2.59375-.851562-5.179688-1.746093-7.710938 6-4.78125 11.339843-10.03125 15.960937-15.769531 18.875-23.4375 24.914063-53.898438 17.457031-88.089844-4.128906-18.929687-10.238281-35.992187-18.265625-51.117187 5.226563 3.613281 11.289063 5.398437 17.332031 5.398437 8.527344 0 17.011719-3.539063 23.046876-10.449219 5.367187-6.148437 8.019531-14.023437 7.46875-22.171875-.550782-8.144531-4.242188-15.589843-10.390626-20.957031l-18.582031-16.226562c-14.675781-12.8125-33.476562-20.347657-52.941406-21.21875-17.894531-.804688-35.757813 4.082031-50.773437 13.789062-17.503907-5.6875-36.753907-8.550781-57.621094-8.550781-20.871094 0-40.117188 2.863281-57.621094 8.550781-15.019531-9.707031-32.894531-14.59375-50.78125-13.789062-19.460938.871093-38.261719 8.40625-52.933594 21.21875l-18.585937 16.222656c-12.695313 11.085937-14.003907 30.433594-2.921875 43.128906 6.035156 6.914062 14.519531 10.453125 23.046875 10.453125 6.042969-.003906 12.101562-1.785156 17.332031-5.398437-8.027344 15.125-14.140625 32.183593-18.265625 51.113281-7.457031 34.195312-1.417969 64.65625 17.457031 88.09375 4.621094 5.734375 9.960938 10.988281 15.960938 15.765625-1.011719 2.867187-1.625 5.796875-1.847656 8.730468-10.320313-3.070312-18.066407-7.757812-21.851563-13.390624-9.617187-14.320313-29.101563-18.148438-43.429687-8.53125-14.324219 9.625-18.152344 29.109374-8.53125 43.433593 16.371093 24.367188 46.199218 39.882813 84.339843 44.011719 1.378907 4.324219 3.03125 8.542969 4.949219 12.636719-8.972656.535156-14.691406-3.363281-21.945312-8.34375-5.839844-4.011719-12.898438-5.511719-19.867188-4.214844-6.96875 1.292969-13.015625 5.226563-17.027344 11.066406-8.285156 12.0625-5.210937 28.613281 6.851563 36.898438 17.984375 12.351562 33.589843 17.855469 50.597656 17.855469 3.265625 0 6.566406-.214844 9.910156-.636719-2.972656 1.015625-5.804687 2.488281-8.410156 4.402343-6.738281 4.945313-11.144531 12.222657-12.410156 20.488282-1.742188 11.375 2.878906 22.757812 12.0625 29.710937 1.351562 1.023438 2.945312 1.519531 4.519531 1.519531 2.269531 0 4.511719-1.027343 5.988281-2.976562 2.496094-3.300781 1.847657-8.003906-1.457031-10.507812-4.785156-3.621094-7.195312-9.550782-6.289062-15.476563.660156-4.304687 2.957031-8.09375 6.464843-10.671875 3.507813-2.574219 7.808594-3.628906 12.117188-2.96875 8.9375 1.367188 22.289062-1.132812 29.429687-8.445312.894532-.914063 1.882813-2.078126 2.75-3.605469 9.53125 4.886719 19.84375 8.652343 30.722656 11.101562-2.398437 5.671875-5.777343 10.796875-10.152343 15.277344-9.078125 9.292969-22.277344 15.609375-37.175781 17.792969-4.097657.597656-6.933594 4.40625-6.332032 8.507812.546875 3.730469 3.75 6.414063 7.410156 6.414063.363282 0 .730469-.027344 1.097657-.082031 18.128906-2.652344 34.371093-10.519532 45.730469-22.152344 6.558593-6.714844 11.441406-14.515625 14.566406-23.25 4.769531.511718 9.617187.78125 14.53125.78125 8.0625 0 15.945312-.714844 23.582031-2.0625.917969 12.761718.71875 26.097656-.59375 42.933594-.644531 8.335937 1.988281 16.425781 7.421875 22.773437 5.4375 6.355469 13.019531 10.207031 21.34375 10.855469.808594.066406 1.636719.097656 2.460938.097656 16.226562 0 29.917968-12.683594 31.179687-28.871094 2.25-28.910156 1.65625-51.722656-2.003906-75.292968 16.382812-13.675782 28.707031-31.308594 35.132812-51.222657 28.886719-2.566406 44.199219-12.179687 77.144531-36.6875 13.84375-10.300781 16.730469-29.941406 6.429688-43.789062-4.992188-6.707031-12.292969-11.070313-20.566406-12.285157zm-73.808594-207.4375c16.082031.71875 31.617188 6.945313 43.746094 17.53125l18.582031 16.226563c3.132813 2.734375 5.011719 6.527344 5.292969 10.675781.28125 4.148438-1.070313 8.15625-3.808594 11.289063-5.644531 6.464843-15.496094 7.132812-21.960938 1.488281l-18.582031-16.226562c-5.03125-4.390626-11.023437-7.441407-17.445312-8.929688-2.820313-2.699219-5.738281-5.292969-8.773438-7.757812-8.910156-7.246094-18.59375-13.339844-29.011719-18.28125 10.015626-4.402344 20.992188-6.5 31.960938-6.015626zm-257.300781 57.210938c-6.46875 5.644531-16.320313 4.976562-21.964844-1.488281-5.644531-6.464844-4.976563-16.320313 1.488281-21.964844l18.582032-16.226563c12.125-10.585937 27.660156-16.8125 43.742187-17.53125 10.972656-.492187 21.953125 1.609376 31.964844 6.011719-10.417969 4.945313-20.101563 11.039063-29.015625 18.285157-3.03125 2.464843-5.953125 5.058593-8.769532 7.757812-6.425781 1.488281-12.414062 4.539062-17.445312 8.929688zm-40.941407 190.28125c-5.011718-7.460938-3.019531-17.605469 4.4375-22.617188 7.460938-5.007812 17.609376-3.015624 22.617188 4.441407 6.808594 10.136719 19.558594 17.414062 37.007812 21.203125.96875 2.257812 2.179688 4.414062 3.613282 6.429687-.4375 3.867188-.664063 7.765625-.664063 11.632813 0 5.335937.421875 10.582031 1.214844 15.71875-31.097656-4.394532-55.105469-17.277344-68.226563-36.808594zm76.390626-12.789062c23.789062 14.183593 55.363281 22.566406 93.5625 24.742187-7.371094 4.449219-13.183594 11.21875-16.445313 19.285156-23.917969-4.308593-46.671875-12.71875-67.710937-25.070312-6.742188-3.957031-10.289063-11.519531-9.40625-18.957031zm114.125 34.023437c13.734374 0 24.90625 11.171875 24.90625 24.902344 0 13.734375-11.171876 24.90625-24.90625 24.90625-13.730469 0-24.902344-11.175781-24.902344-24.90625s11.171875-24.902344 24.902344-24.902344zm-115.070313 82.039063c-13.789063 0-26.773437-4.691407-42.105469-15.222657-5.242187-3.601562-6.582031-10.796875-2.980468-16.039062 1.746093-2.539063 4.375-4.25 7.402343-4.8125 3.03125-.566407 6.097657.085937 8.636719 1.832031 9.484375 6.511719 20.125 13.808594 38.328125 10.011719 4.632813 6.980469 10.078125 13.464843 16.214844 19.351562-9.054688 3.269531-17.472657 4.878907-25.496094 4.878907zm41.195313 8.957031c-2.886719 2.957031-10.875 4.949219-16.429688 4.101562-1.9375-.296875-3.878906-.40625-5.800781-.347656 6.332031-1.488281 12.851562-3.710937 19.632812-6.6875 1.023438.734375 2.054688 1.453125 3.101563 2.15625-.164063.414063-.359375.628906-.503906.777344zm144.316406 65.832031c-.65625 8.429688-7.78125 15.03125-16.222656 15.03125-.433594 0-.859376-.015625-1.289063-.050781-4.339844-.335938-8.289063-2.34375-11.121094-5.652344-2.828125-3.308594-4.199219-7.519531-3.863281-11.855469 1.433594-18.40625 1.570312-33.386718.40625-47.59375 11.222656-3.34375 21.738281-8.109375 31.292969-14.070312 2.527343 19.835937 2.734375 39.296875.796875 64.191406zm-70.441406-59.566406c-59.757813 0-108.386719-43.59375-108.5-97.214844 21.433593 12.023438 44.460937 20.300781 68.601562 24.675781 0 .058594-.003906.121094-.003906.179688 0 22.003906 17.898437 39.902343 39.902344 39.902343 22.003906 0 39.90625-17.898437 39.90625-39.902343 0-.0625-.003907-.121094-.007813-.179688 24.140625-4.375 47.171875-12.652343 68.605469-24.675781-.113282 53.621094-48.742188 97.214844-108.503906 97.214844zm104.722656-112.328125c-21.042969 12.351562-43.796875 20.761719-67.714844 25.070312-3.257812-8.066406-9.074219-14.835937-16.445312-19.285156 38.203124-2.175781 69.777343-10.558594 93.566406-24.742187.882812 7.4375-2.664063 15-9.40625 18.957031zm9.632812-37.011719c-.46875.269531-.894531.582031-1.28125.933594-25.695312 18.03125-64.167968 27.445312-113.070312 27.445312-48.90625 0-87.375-9.414062-113.070313-27.441406-.386719-.355469-.816406-.667969-1.285156-.941406-6.640625-4.816406-12.410156-10.214844-17.234375-16.207032-15.929688-19.777343-20.941406-45.882812-14.484375-75.488281 7.269531-33.335937 21.082031-60.195312 40.652344-79.964843.582031-.433594 1.09375-.941407 1.527343-1.515626 13.171876-12.859374 28.867188-22.59375 46.863282-29.019531.578125-.128906 1.144531-.324219 1.683594-.589843 16.589843-5.6875 35.089843-8.605469 55.347656-8.605469 20.253906 0 38.761718 2.917969 55.351562 8.609375.53125.261718 1.09375.453125 1.667969.582031 18 6.425781 33.699219 16.160156 46.871094 29.023437.433593.574219.945312 1.085938 1.527343 1.515626 19.574219 19.769531 33.382813 46.632812 40.652344 79.96875 6.457032 29.605468 1.449219 55.707031-14.484375 75.484374-4.824219 5.992188-10.59375 11.394532-17.234375 16.210938zm72.363282 34.832031c-30.285157 22.527344-43.578126 30.523438-64.488282 33.242188.835938-5.273438 1.277344-10.660157 1.277344-16.140625 0-3.867188-.230469-7.765625-.667969-11.628906 1.417969-1.988282 2.617188-4.113282 3.578125-6.335938 11.164063-3.441406 21.371094-10.800781 40.84375-25.289062 3.496094-2.597657 7.796875-3.675782 12.09375-3.050782 4.308594.632813 8.109375 2.90625 10.710938 6.398438 5.363281 7.210937 3.859375 17.441406-3.347656 22.804687zm105.085937-133.605469c-13.726563-13.207031-34.933594-14.464843-50.097656-3.902343-15.164063-10.5625-36.371094-9.304688-50.097657 3.90625-7.582031 7.296875-11.816406 17.210937-11.917968 27.914062-.105469 10.828125 4.203125 21.402344 11.820312 29.019531l15.351563 15.347657c2.929687 2.929687 7.675781 2.929687 10.605469 0 2.929687-2.929688 2.929687-7.675781 0-10.605469l-15.351563-15.351562c-4.785156-4.785157-7.492187-11.441407-7.429687-18.265626.066406-6.640624 2.664062-12.769531 7.324218-17.253906 9.570313-9.207031 24.996094-9.058594 34.390625.335938 1.40625 1.410156 3.3125 2.199218 5.304688 2.199218 1.988281 0 3.894531-.789062 5.304687-2.199218 9.394532-9.394532 24.820313-9.542969 34.386719-.335938 4.660156 4.484375 7.261719 10.613282 7.324219 17.253906.066406 6.824219-2.640625 13.480469-7.425782 18.265626l-30.488281 30.488281c-3.0625 3.0625-7.433593 4.378906-11.6875 3.511719-4.058593-.828126-8.019531 1.796874-8.84375 5.851562-.824219 4.0625 1.796875 8.019531 5.855469 8.847656 1.863281.378906 3.734375.5625 5.59375.5625 7.316406 0 14.398438-2.878906 19.6875-8.167968l30.488281-30.484376c7.617188-7.617187 11.921875-18.191406 11.820313-29.019531-.101563-10.703125-4.332032-20.617187-11.917969-27.917969zm-271.609375-17.105468c-13.210938-3.457032-27.175781-3.457032-40.386719 0-6.722656 1.757812-12.578125 5.890625-16.484375 11.640625-3.113281 4.574219-4.027344 10.253906-2.511718 15.574219 1.515624 5.320312 5.285156 9.664062 10.34375 11.910156l17.574218 7.816406c1.230469.546875 2.492188.992188 3.769532 1.351562v20.027344c0 2.355469 1.105468 4.570313 2.984374 5.988282 1.878907 1.417968 4.316407 1.867187 6.582032 1.222656l8.796875-2.515625c2.917969-.839844 4.714843.90625 5.351562 1.695312.632813.789063 1.953125 2.914063.511719 5.589844-3.0625 5.683594-3.0625 12.472656 0 18.15625 1.441406 2.675781.121094 4.800781-.511719 5.589844-.636719.789062-2.429687 2.535156-5.351562 1.695312l-8.796875-2.519531c-3.980469-1.136719-8.136719 1.167969-9.273438 5.148438-1.140625 3.980468 1.164063 8.136718 5.144532 9.273437l8.796874 2.519531c1.894532.542969 3.804688.804688 5.679688.804688 5.941406 0 11.566406-2.652344 15.484375-7.519532 5.152344-6.402343 5.933594-14.875 2.035156-22.109374-.664062-1.226563-.664062-2.695313 0-3.925782 3.898438-7.234375 3.117188-15.707031-2.035156-22.109375-4.988281-6.191406-12.742187-8.804687-20.398437-6.917969v-10.09375c1.28125-.359374 2.542968-.804687 3.773437-1.351562l17.574219-7.816406c5.054687-2.246094 8.824218-6.589844 10.339844-11.910156 1.519531-5.320313.605468-11-2.507813-15.574219-3.90625-5.75-9.761719-9.882813-16.484375-11.640625zm4.566406 23.101562c-.171875.609375-.664062 1.71875-2.011718 2.316406l-17.574219 7.816407c-3.289063 1.460937-7.058594 1.460937-10.351563 0l-17.574218-7.816407c-1.34375-.597656-1.835938-1.707031-2.011719-2.316406-.171875-.605468-.339844-1.808594.488281-3.027344 1.867188-2.746093 4.667969-4.722656 7.878906-5.5625 5.363282-1.40625 10.878906-2.109374 16.394532-2.109374 5.515624 0 11.035156.703124 16.394531 2.109374h.003906c3.210937.839844 6.007813 2.816407 7.875 5.5625.832031 1.21875.664063 2.421876.488281 3.027344zm52.789063-40.417968c-4.140625 0-7.5 3.359374-7.5 7.5v12.320312c0 4.140625 3.359375 7.5 7.5 7.5 4.144531 0 7.5-3.359375 7.5-7.5v-12.320312c0-4.140626-3.355469-7.5-7.5-7.5zm0 0"/></svg>