<svg viewBox="0 -9 511.99909 511" xmlns="http://www.w3.org/2000/svg"><path d="m375.707031 446.296875c-32.070312 0-67.839843-21.484375-78.957031-72.367187-2.34375-10.742188 4.460938-21.355469 15.203125-23.699219 10.730469-2.34375 21.355469 4.457031 23.703125 15.203125 7.367188 33.730468 28.523438 43.03125 44.410156 40.734375 10.886719-1.574219 20.976563 5.980469 22.546875 16.863281 1.570313 10.882812-5.980469 20.980469-16.863281 22.546875-3.28125.476563-6.644531.71875-10.042969.71875zm0 0" fill="#495059"/><path d="m222.011719 486.554688c-6.917969 0-13.796875-2.863282-18.714844-8.46875-26.882813-30.625-21.5-70.789063-18.910156-90.085938 1.824219-13.625 14.355469-23.183594 27.972656-21.363281 13.625 1.828125 23.183594 14.351562 21.359375 27.976562-2.402344 17.910157-4.039062 38.074219 6.984375 50.636719 9.066406 10.328125 8.046875 26.054688-2.285156 35.121094-4.722657 4.148437-10.578125 6.183594-16.40625 6.183594zm0 0" fill="#ddaf89"/><path d="m305.582031 486.554688c-6.914062 0-13.792969-2.863282-18.714843-8.46875-26.886719-30.628907-21.5-70.789063-18.910157-90.089844 1.828125-13.621094 14.371094-23.171875 27.976563-21.355469 13.621094 1.828125 23.183594 14.351563 21.355468 27.976563-2.402343 17.910156-4.042968 38.070312 6.988282 50.632812 9.066406 10.328125 8.042968 26.054688-2.289063 35.125-4.722656 4.144531-10.578125 6.179688-16.40625 6.179688zm0 0" fill="#ddaf89"/><path d="m295.933594 366.636719c-13.605469-1.816407-26.148438 7.738281-27.976563 21.359375-1.324219 9.882812-3.375 25.234375-1.460937 41.972656 17.5-1.3125 34.0625-5.683594 49.054687-12.523438-.125-7.527343.738281-15.371093 1.742188-22.832031 1.824219-13.621093-7.738281-26.148437-21.359375-27.976562zm0 0" fill="#d1a582"/><path d="m212.359375 366.636719c-13.613281-1.820313-26.148437 7.738281-27.972656 21.363281-.792969 5.90625-1.84375 13.773438-2.152344 22.714844 15.148437 8.9375 32.367187 15.175781 50.839844 17.988281-2.078125-10.613281-.871094-22.796875.644531-34.089844 1.828125-13.625-7.734375-26.148437-21.359375-27.976562zm0 0" fill="#d1a582"/><path d="m376.679688 306.78125c0-60.597656-54.320313-109.71875-121.328126-109.71875-67.003906 0-121.324218 49.121094-121.324218 109.71875s54.320312 109.722656 121.324218 109.722656c67.007813 0 121.328126-49.125 121.328126-109.722656zm0 0" fill="#ddaf89"/><path d="m364.929688 236.335938c-29.730469 24.671874-67.921876 39.507812-109.578126 39.507812-41.652343 0-79.84375-14.835938-109.578124-39.507812-6.320313 8.1875-11.59375 17.097656-15.589844 26.589843-5.445313 12.925781-.421875 27.914063 11.675781 35.015625 33.304687 19.546875 72.085937 30.765625 113.492187 30.765625 41.410157 0 80.191407-11.21875 113.496094-30.765625 12.097656-7.101562 17.117188-22.089844 11.675782-35.015625-3.996094-9.492187-9.269532-18.402343-15.59375-26.589843zm0 0" fill="#7f9ae6"/><path d="m200.097656 266.75c-20.023437-6.800781-38.386718-17.195312-54.324218-30.414062-6.320313 8.1875-11.59375 17.097656-15.589844 26.589843-5.445313 12.925781-.421875 27.914063 11.675781 35.015625 17.316406 10.164063 36.125 18.050782 56.003906 23.304688-7.292969-14.636719-5.226562-36.609375 2.234375-54.496094zm0 0" fill="#5e78bf"/><path d="m208.324219 91.921875c-5.097657 0-10.238281-1.554687-14.679688-4.777344l-30.769531-22.351562c-13.472656-9.789063-31.644531-8.976563-44.191406 1.980469l-20.148438 17.589843c-10.402344 9.082031-26.199218 8.011719-35.285156-2.390625-9.082031-10.40625-8.011719-26.203125 2.390625-35.289062l20.148437-17.585938c14.527344-12.6875 33.140626-20.144531 52.40625-21.007812 19.269532-.863282 38.472657 4.902344 54.078126 16.238281l30.769531 22.347656c11.175781 8.121094 13.652343 23.757813 5.535156 34.933594-4.894531 6.734375-12.519531 10.3125-20.253906 10.3125zm0 0" fill="#495059"/><path d="m302.382812 91.921875c-7.734374 0-15.359374-3.578125-20.253906-10.3125-8.117187-11.175781-5.640625-26.816406 5.535156-34.933594l30.769532-22.351562c15.605468-11.335938 34.8125-17.09375 54.078125-16.238281 19.265625.863281 37.875 8.324218 52.40625 21.007812l20.144531 17.589844c10.40625 9.085937 11.476562 24.882812 2.394531 35.285156-9.085937 10.40625-24.882812 11.476562-35.289062 2.394531l-20.144531-17.59375c-12.546876-10.953125-30.71875-11.765625-44.195313-1.976562l-30.769531 22.351562c-4.4375 3.222657-9.582032 4.777344-14.675782 4.777344zm0 0" fill="#495059"/><path d="m255.351562 289.988281c126.957032 0 184.167969-58.152343 166.3125-140.042969-19.1875-88-79.628906-136.171874-166.3125-136.171874-86.679687 0-147.121093 48.171874-166.308593 136.171874-17.855469 81.890626 39.355469 140.042969 166.308593 140.042969zm0 0" fill="#ddaf89"/><path d="m289.242188 332.976562c0 18.71875-15.171876 33.890626-33.890626 33.890626-18.714843 0-33.886718-15.171876-33.886718-33.890626 0-18.714843 15.171875-33.886718 33.886718-33.886718 18.71875 0 33.890626 15.171875 33.890626 33.886718zm0 0" fill="#f6e06a"/><path d="m189.464844 156.765625c0-16.046875-16.332032-29.054687-36.480469-29.054687-20.152344 0-36.484375 13.007812-36.484375 29.054687s16.332031 29.054687 36.484375 29.054687c20.148437 0 36.480469-13.007812 36.480469-29.054687zm0 0" fill="#ffdbdb"/><path d="m394.207031 156.765625c0-16.046875-16.332031-29.054687-36.484375-29.054687-20.148437 0-36.480468 13.007812-36.480468 29.054687s16.332031 29.054687 36.480468 29.054687c20.152344 0 36.484375-13.007812 36.484375-29.054687zm0 0" fill="#ffdbdb"/><path d="m274.484375 132.75c-12.542969-3.28125-25.722656-3.28125-38.265625 0-5.195312 1.363281-9.71875 4.558594-12.738281 9-4.078125 5.996094-1.734375 14.222656 4.890625 17.167969l18.382812 8.171875c5.476563 2.4375 11.722656 2.4375 17.199219 0l18.382813-8.171875c6.625-2.945313 8.96875-11.171875 4.890624-17.167969-3.019531-4.441406-7.546874-7.636719-12.742187-9zm0 0" fill="#495059"/><path d="m255.230469 195.699219c-23.832031 0-45.058594-17.144531-58.40625 3.996093-13.542969 21.445313 16.785156 54.695313 58.40625 54.695313 41.621093 0 71.949219-33.25 58.40625-54.695313-13.347657-21.140624-34.574219-3.996093-58.40625-3.996093zm0 0" fill="#d16283"/><path d="m209.355469 238.679688c11.175781 9.160156 27.40625 15.710937 45.875 15.710937s34.699219-6.550781 45.875-15.710937c-12.339844-9.160157-28.34375-14.722657-45.875-14.722657s-33.535157 5.5625-45.875 14.722657zm0 0" fill="#eb9898"/><path d="m160.871094 60.960938c-12.941406-12.941407-33.828125-13.09375-46.957032-.457032-13.546874 13.035156-13.292968 35.050782.003907 48.347656l31.886719 31.882813c8.320312 8.320313 21.8125 8.320313 30.132812 0l31.886719-31.882813c13.292969-13.296874 13.546875-35.308593 0-48.347656-13.128907-12.636718-34.015625-12.484375-46.953125.457032zm0 0" fill="#d16283"/><path d="m349.835938 60.960938c12.941406-12.941407 33.828124-13.09375 46.957031-.457032 13.546875 13.035156 13.292969 35.050782-.003907 48.347656l-31.886718 31.882813c-8.320313 8.320313-21.8125 8.320313-30.132813 0l-31.886719-31.882813c-13.292968-13.296874-13.546874-35.308593 0-48.347656 13.128907-12.636718 34.015626-12.484375 46.953126.457032zm0 0" fill="#d16283"/><path d="m160.324219 382.15625c-10.699219 0-21.082031-2.472656-30.566407-7.527344-22.730468-12.117187-35.183593-37.15625-31.722656-63.796875 1.773438-13.632812 14.257813-23.242187 27.890625-21.472656 13.628907 1.773437 23.242188 14.257813 21.46875 27.890625-.8125 6.257812 1.238281 11.035156 5.777344 13.453125 7.976563 4.253906 20.792969.273437 32.648437-10.136719 10.328126-9.070312 26.050782-8.054687 35.121094 2.273438 9.074219 10.328125 8.054688 26.054687-2.273437 35.121094-18.105469 15.90625-38.753907 24.195312-58.34375 24.195312zm0 0" fill="#c49b7a"/><path d="m350.382812 382.15625c-19.589843 0-40.238281-8.289062-58.34375-24.191406-10.328124-9.070313-11.347656-24.796875-2.277343-35.125 9.074219-10.324219 24.796875-11.34375 35.125-2.273438 11.851562 10.414063 24.667969 14.390625 32.648437 10.136719 4.539063-2.417969 6.589844-7.195313 5.777344-13.453125-1.773438-13.628906 7.839844-26.117188 21.46875-27.886719 13.613281-1.777343 26.117188 7.839844 27.890625 21.46875 3.460937 26.640625-8.992187 51.683594-31.722656 63.796875-9.484375 5.054688-19.867188 7.527344-30.566407 7.527344zm0 0" fill="#c49b7a"/><path d="m43.503906 245.210938c-10.257812-7.183594-24.355468-4.804688-31.703125 5.273437-7.582031 10.398437-4.792969 25.207031 5.746094 32.585937l25.285156 17.703126c6.597657 4.621093 15.691407 3.015624 20.3125-3.582032l17.703125-25.28125c7.378906-10.542968 4.933594-25.410156-5.746094-32.589844-10.351562-6.953124-24.410156-4.371093-31.597656 5.890626zm0 0" fill="#d16283"/><path d="m468.496094 258.3125c-7.183594-10.261719-21.246094-12.84375-31.59375-5.886719-10.683594 7.175781-13.128906 22.046875-5.746094 32.585938l17.703125 25.285156c4.617187 6.597656 13.710937 8.199219 20.3125 3.582031l25.28125-17.703125c10.542969-7.382812 13.328125-22.191406 5.746094-32.589843-7.347657-10.078126-21.445313-12.457032-31.703125-5.273438zm0 0" fill="#d16283"/><path d="m92.0625 252.675781c-1.507812-8.101562-6.046875-15.054687-12.777344-19.578125-11.753906-7.894531-27.300781-6.414062-37.433594 2.730469-12.652343-5.125-27.773437-1.203125-36.113281 10.238281-4.777343 6.554688-6.664062 14.640625-5.3125 22.765625 1.367188 8.207031 6.039063 15.636719 12.820313 20.382813l25.28125 17.703125c3.847656 2.695312 8.261718 3.988281 12.636718 3.984375 6.96875 0 13.832032-3.28125 18.121094-9.40625l17.703125-25.285156c4.75-6.78125 6.597657-15.359376 5.074219-23.535157zm-17.359375 14.933594-17.703125 25.28125c-2.242188 3.199219-6.667969 3.980469-9.867188 1.738281l-25.28125-17.703125c-3.503906-2.453125-5.917968-6.300781-6.628906-10.558593-.683594-4.121094.253906-8.191407 2.640625-11.464844 3-4.121094 7.734375-6.316406 12.523438-6.316406 3.058593 0 6.144531.898437 8.816406 2.769531 3.394531 2.375 8.070313 1.550781 10.445313-1.84375 4.792968-6.847657 14.335937-8.625 21.269531-3.964844 3.363281 2.257813 5.636719 5.765625 6.398437 9.871094.792969 4.246093-.160156 8.6875-2.613281 12.191406zm431.558594-8.445313c-8.34375-11.4375-23.460938-15.363281-36.109375-10.234374-10.140625-9.148438-25.6875-10.628907-37.4375-2.730469-6.730469 4.527343-11.269532 11.480469-12.777344 19.578125-1.523438 8.175781.324219 16.757812 5.074219 23.539062l17.703125 25.28125c4.175781 5.96875 10.914062 9.421875 18.0625 9.421875.980468 0 1.96875-.066406 2.957031-.195312 4.109375-.550781 6.992187-4.320313 6.445313-8.425781-.546876-4.105469-4.324219-6.992188-8.425782-6.445313-2.648437.355469-5.230468-.78125-6.753906-2.960937l-17.703125-25.28125c-2.453125-3.5-3.40625-7.945313-2.617187-12.1875.765624-4.105469 3.039062-7.613282 6.402343-9.875 6.933594-4.660157 16.472657-2.878907 21.269531 3.96875 2.375 3.390624 7.050782 4.21875 10.445313 1.839843 6.847656-4.792969 16.417969-3.203125 21.339844 3.546875 2.390625 3.273438 3.324219 7.347656 2.640625 11.46875-.710938 4.257813-3.125 8.105469-6.628906 10.558594l-3.535157 2.480469c-3.394531 2.375-4.21875 7.050781-1.84375 10.441406 2.375 3.394531 7.050781 4.21875 10.445313 1.84375l3.539062-2.476563c6.777344-4.75 11.449219-12.175781 12.816406-20.382812 1.355469-8.128906-.53125-16.214844-5.308593-22.773438zm-106.9375 144.757813c-3.53125-2.640625-7.558594-4.351563-11.789063-5.070313.261719-1.074218.449219-2.105468.511719-3.023437.273437-4.132813-2.847656-7.75-6.980469-8.023437-4.132812-.277344-7.703125 2.808593-7.976562 6.941406-.070313.523437-.480469 1.964844-1.234375 3.957031-4.851563-.699219-11.105469-2.964844-16.824219-9.1875 10.4375-.632813 20.320312-3.40625 29.445312-8.269531 25.515626-13.597656 39.5-41.617188 35.632813-71.378906-1.117187-8.582032-5.507813-16.210938-12.367187-21.492188-5.398438-4.152344-11.8125-6.449219-18.472657-6.695312 1.355469-5.921876 1.195313-12.160157-.574219-18.085938 8.25-5.996094 15.441407-12.753906 21.496094-20.273438 20.34375-25.253906 26.84375-58.097656 18.804688-94.976562-3.945313-18.070312-9.695313-34.804688-17.070313-49.835938.503907-1.425781.929688-2.878906 1.28125-4.351562 4.695313 2.539062 9.945313 3.875 15.363281 3.875.746094 0 1.496094-.023438 2.246094-.074219 8.664063-.585937 16.578125-4.511719 22.289063-11.054687 5.710937-6.539063 8.535156-14.914063 7.949219-23.578125-.589844-8.664063-4.515626-16.578125-11.054688-22.289063l-20.148438-17.59375c-15.800781-13.796875-36.046874-21.910156-57.007812-22.847656-19.34375-.867188-38.710938 4.449219-54.9375 15.007812-18.976562-6.199218-39.863281-9.328124-62.550781-9.328124s-43.574219 3.128906-62.550781 9.328124c-16.226563-10.5625-35.582032-15.882812-54.941407-15.007812-20.957031.9375-41.203125 9.050781-57.007812 22.847656l-20.148438 17.59375c-13.5 11.789063-14.894531 32.367188-3.105469 45.867188 6.417969 7.351562 15.441407 11.113281 24.507813 11.113281 5.285156 0 10.582031-1.28125 15.390625-3.871094.351562 1.480469.777344 2.9375 1.28125 4.363281-7.375 15.035157-13.125 31.769532-17.066406 49.839844-8.042969 36.875-1.539063 69.71875 18.800781 94.972656 6.054687 7.519532 13.246094 14.277344 21.5 20.269532-1.769531 5.929687-1.933594 12.167968-.578125 18.089844-6.667969.25-13.085938 2.542968-18.480469 6.695312-6.851562 5.277344-11.242187 12.910156-12.355469 21.488281-3.871093 29.765625 10.117188 57.785157 35.628907 71.382813 10.46875 5.578125 21.9375 8.410156 34.097656 8.410156 1.265625 0 2.535156-.039062 3.808594-.101562 3.625 3.3125 7.433593 6.402343 11.394531 9.261718-1.535156 15.523438-1.96875 36.878906 6.160156 57.820313 1.15625 2.972656 3.992188 4.789062 6.996094 4.789062.902344 0 1.820312-.164062 2.710938-.507812 3.863281-1.5 5.777343-5.847657 4.277343-9.707031-5.804687-14.960938-6.515625-30.566407-5.804687-43.390626 10.8125 5.832032 22.488281 10.148438 34.730468 12.851563.675782 12.585937 4.121094 22.289063 10.46875 29.523437 6.324219 7.203126 5.609376 18.214844-1.597656 24.539063-3.171875 2.785156-7.242187 4.316406-11.460937 4.316406-4.402344 0-8.59375-1.632812-11.804688-4.605469-3.039062-2.8125-7.785156-2.632812-10.597656.410157-2.8125 3.039062-2.628906 7.78125.410156 10.597656 5.988281 5.546875 13.800781 8.601563 21.992188 8.601563 7.859375 0 15.441406-2.859376 21.355469-8.046876 13.421874-11.78125 14.753906-32.285156 2.976562-45.707031-3.550781-4.046875-5.699219-9.699219-6.507812-17.136719 5.105468.550782 10.285156.835938 15.519531.835938 1.042969 0 2.082031-.011719 3.121093-.035156 1.417969 23.589844 9.039063 43.441406 22.753907 59.066406 6.152343 7.003906 15.027343 11.023438 24.351562 11.023438 7.859375 0 15.445313-2.859376 21.359375-8.046876 13.417969-11.78125 14.753906-32.285156 2.972656-45.707031-.394531-.449219-.789062-.933593-1.183593-1.457031 8.414062 5.894531 17.742187 10.15625 27.582031 12.585938-2.542969 2.441406-3.082031 6.410156-1.097656 9.480468 1.433594 2.214844 3.84375 3.425782 6.300781 3.425782 1.398437 0 2.8125-.390626 4.070313-1.207032 3.886718-2.515625 7.9375-5.488281 11.355468-9.355468 3.316406-.054688 6.632813-.304688 9.878906-.769532 14.960938-2.160156 25.375-16.085937 23.214844-31.042968-1.042968-7.246094-4.847656-13.652344-10.710937-18.039063zm-.734375-103.660156c3.6875 2.835937 6.042968 6.933593 6.644531 11.539062 3.058594 23.511719-7.859375 45.574219-27.8125 56.210938-8.273437 4.410156-17.371094 6.644531-27.039063 6.644531-18.039062 0-37.003906-7.929688-53.394531-22.328125-3.488281-3.0625-5.578125-7.304687-5.878906-11.9375-.296875-4.636719 1.222656-9.109375 4.289063-12.597656 3.433593-3.910157 8.242187-5.90625 13.074218-5.90625 4.078125 0 8.167969 1.421875 11.464844 4.3125 14.4375 12.6875 30.195312 16.945312 41.125 11.125 7.382812-3.933594 10.910156-11.601563 9.6875-21.042969-.601562-4.605469.632812-9.167969 3.464844-12.847656 2.832031-3.679688 6.929687-6.035156 11.539062-6.632813 4.597656-.605469 9.15625.628907 12.835938 3.460938zm-122.449219 41.097656c.144531 2.1875.5 4.328125 1.058594 6.398437-4.882813 7.222657-13 11.613282-21.847657 11.613282-8.847656 0-16.960937-4.390625-21.84375-11.617188.554688-2.070312.914063-4.207031 1.054688-6.394531.40625-6.230469-.96875-12.304687-3.90625-17.644531 3.8125-10.214844 13.566406-17.128906 24.695312-17.128906 11.128907 0 20.882813 6.914062 24.695313 17.128906-2.933594 5.339844-4.308594 11.414062-3.90625 17.644531zm-129.84375-49.523437c-1.851563-1.972657-3.917969-3.683594-6.160156-5.117188-3.351563-4.113281-4.933594-9.335938-4.558594-14.496094 25.640625 14.273438 59.132813 22.660156 99.34375 24.746094-6.269531 3.554688-11.550781 8.707031-15.25 15.007812-9.609375-6.128906-21.886719-6.769531-32.089844-1.589843-14.339843-4.710938-28.210937-10.9375-41.285156-18.550781zm26.230469 29.121093c-6.878906 3.945313-12.761719 4.761719-15.828125 3.128907-.609375-.324219-2.457031-1.308594-1.867188-5.871094.207031-1.585938.296875-3.171875.273438-4.746094 5.703125 2.738281 11.519531 5.230469 17.421875 7.488281zm103.261718-23.988281c40.210938-2.085938 73.699219-10.472656 99.339844-24.746094.375 5.160156-1.207031 10.382813-4.558594 14.496094-2.246093 1.433594-4.3125 3.144531-6.164062 5.117188-13.070312 7.613281-26.941406 13.835937-41.277344 18.546874-10.207031-5.179687-22.484375-4.539062-32.09375 1.589844-3.699218-6.296875-8.980468-11.449218-15.246094-15.003906zm78.21875 27.117188c-3.0625 1.632812-8.945312.816406-15.828124-3.125 5.902343-2.257813 11.71875-4.753907 17.421874-7.492188-.023437 1.574219.066407 3.160156.273438 4.746094.589844 4.5625-1.257812 5.546875-1.867188 5.871094zm18.167969-308.507813c17.578125.789063 34.558594 7.59375 47.808594 19.164063l20.148437 17.59375c3.523438 3.074218 5.636719 7.339843 5.953126 12.003906.316406 4.667968-1.203126 9.175781-4.28125 12.699218-3.074219 3.523438-7.339844 5.636719-12.003907 5.953126-4.660156.316406-9.175781-1.203126-12.699219-4.28125l-3.722656-3.25c-1.703125-7.75-5.601562-14.792969-11.386718-20.363282-8.910157-8.574218-20.851563-12.289062-32.402344-11.1875-10.246094-8.496094-21.457032-15.558594-33.585938-21.1875 11.269532-5.191406 23.714844-7.699218 36.171875-7.144531zm27.179688 68.617187c.066406 7.230469-2.800781 14.28125-7.871094 19.351563l-31.882813 31.882813c-2.609374 2.609374-6.078124 4.046874-9.765624 4.046874s-7.15625-1.4375-9.761719-4.046874l-31.886719-31.882813c-5.070312-5.070313-7.9375-12.125-7.867188-19.351563.066407-7.039062 2.820313-13.535156 7.761719-18.289062 5.003907-4.816406 11.519531-7.21875 18.035157-7.21875 6.6875 0 13.371093 2.53125 18.414062 7.578125 2.929688 2.925781 7.679688 2.925781 10.609375 0 9.957031-9.960937 26.308594-10.121094 36.449219-.359375 4.066406 3.917969 6.652344 9.015625 7.476562 14.628906.003906.03125.007813.058594.011719.089844.167969 1.171875.265625 2.363281.277344 3.570312zm-302.027344-8.734374-3.722656 3.25c-7.273438 6.351562-18.355469 5.601562-24.707031-1.671876-3.074219-3.523437-4.59375-8.03125-4.277344-12.699218.316406-4.664063 2.429687-8.929688 5.953125-12.003906l20.144531-17.59375c13.253906-11.570313 30.234375-18.375 47.8125-19.164063 12.453125-.554687 24.898438 1.953125 36.171875 7.144531-12.128906 5.628906-23.339844 12.695313-33.589844 21.1875-11.546875-1.101562-23.492187 2.617188-32.398437 11.191406-5.785156 5.566407-9.683594 12.609376-11.386719 20.359376zm58.238281-9.195313c2.929688 2.925781 7.675782 2.925781 10.605469 0 9.957031-9.960937 26.308594-10.121094 36.449219-.359375 4.941406 4.753906 7.699218 11.25 7.765625 18.289062.070312 7.226563-2.800781 14.28125-7.867188 19.351563l-31.886719 31.882813c-5.382812 5.386718-14.144531 5.386718-19.527343 0l-31.886719-31.882813c-5.066406-5.070313-7.9375-12.121094-7.867188-19.351563.011719-1.207031.109376-2.398437.277344-3.570312.003906-.03125.007813-.066406.011719-.101562.824219-5.605469 3.40625-10.703126 7.476563-14.617188 5.003906-4.816406 11.519531-7.21875 18.03125-7.21875 6.6875 0 13.375 2.535156 18.417968 7.578125zm-43.367187 167.648437c-17.398438-21.597656-22.871094-50.082031-15.828125-82.371093 2.9375-13.46875 6.921875-26.117188 11.882812-37.765625.121094.125.238282.253906.359375.375l31.886719 31.886718c5.613281 5.617188 12.992188 8.425782 20.371094 8.425782 7.375 0 14.753906-2.808594 20.367187-8.425782l31.886719-31.886718c7.898438-7.898438 12.367188-18.871094 12.261719-30.101563-.105469-11.097656-4.496094-21.382812-12.359375-28.953125-14.296875-13.757812-36.414063-15.015625-52.15625-3.90625-.824219-.582031-1.667969-1.121094-2.523438-1.632812 10.667969-7.652344 22.398438-13.765625 35.144532-18.320313.5-.121093.992187-.289062 1.460937-.511719 18.148437-6.28125 38.324219-9.449218 60.402344-9.449218s42.253906 3.167968 60.402343 9.449218c.46875.222657.957032.390626 1.457032.511719 12.746094 4.554688 24.476562 10.667969 35.148437 18.320313-.859375.511718-1.703125 1.050781-2.523437 1.632812-15.742188-11.105468-37.863282-9.847656-52.15625 3.910156-7.863282 7.566407-12.253906 17.851563-12.363282 28.949219-.105468 11.230469 4.363282 22.203125 12.261719 30.101563l31.886719 31.886718c5.617188 5.617188 12.992188 8.425782 20.371094 8.425782 7.375 0 14.753906-2.808594 20.371094-8.425782l31.882812-31.886718c.125-.121094.238281-.25.359375-.375 4.964844 11.644531 8.949219 24.296875 11.886719 37.765625 7.039062 32.289062 1.566406 60.773437-15.828125 82.371093-6.121094 7.597657-13.621094 14.328126-22.402344 20.191407-.511719.265625-.980469.578125-1.40625.9375-27.90625 18.042969-68.433594 27.449219-119.347656 27.449219-50.914063 0-91.441407-9.40625-119.347657-27.449219-.421874-.359375-.894531-.675781-1.40625-.941407-8.78125-5.859374-16.285156-12.589843-22.402343-20.1875zm48.125 140.742188c-9.667969 0-18.765625-2.234375-27.039063-6.644531-19.953125-10.636719-30.867187-32.699219-27.808594-56.210938.597657-4.609375 2.953126-8.703125 6.632813-11.539062 3.070313-2.363281 6.753906-3.609375 10.570313-3.609375.753906 0 1.519531.046875 2.28125.148437 4.601562.597657 8.699218 2.953125 11.53125 6.632813 2.835937 3.679687 4.066406 8.242187 3.464843 12.851562-1.222656 9.4375 2.308594 17.105469 9.6875 21.035156 10.925781 5.828126 26.683594 1.566407 41.125-11.117187 7.203125-6.328125 18.214844-5.613281 24.539063 1.585937 3.066406 3.492188 4.589844 7.964844 4.289062 12.601563-.300781 4.632813-2.386718 8.875-5.878906 11.9375-16.390625 14.398437-35.355469 22.328125-53.394531 22.328125zm95.027343 34.347656c-26.128906 0-51.496093-8.199218-71.648437-22.839844 13.953125-4.109374 27.625-11.769531 39.914063-22.566406.6875-.597656 1.332031-1.230468 1.960937-1.878906 7.679687 7.980469 18.339844 12.652344 29.773437 12.652344 11.4375 0 22.097657-4.671875 29.777344-12.652344.625.648438 1.273438 1.28125 1.960938 1.882812 12.289062 10.792969 25.960937 18.453126 39.914062 22.566407-20.152344 14.636719-45.519531 22.835937-71.652344 22.835937zm61.695313 65.730469c-3.175781 2.785156-7.246094 4.320313-11.464844 4.320313-5.011719 0-9.777343-2.15625-13.078125-5.914063-11.664062-13.292969-17.925781-29.796875-19.078125-50.273437 12.066407-1.523438 23.699219-4.566407 34.640625-9.03125-.007812.589843-.015625 1.179687-.015625 1.773437-.011719.203125-.007812.410156 0 .617187.046875 12.078126 2.339844 24.574219 10.589844 33.96875 6.324219 7.207032 5.605469 18.21875-1.59375 24.539063zm67.632813-36.578125c-.191407.03125-.390626.046875-.582032.074219-.40625-2.804688-2.386718-5.261719-5.28125-6.125-3.972656-1.175781-8.144531 1.082031-9.324218 5.050781-.132813.445312-.289063.875-.453126 1.292969-17.632812-1.796875-33.992187-10.675781-45.929687-25.050781.058594-2.175782.183594-4.523438.398437-7.058594 5.84375-3.332032 11.417969-7.121094 16.683594-11.332032 4.519532 6.222657 9.980469 11.027344 16.320313 14.320313 7.707031 4 16.222656 5.480469 24.628906 4.261719 3.28125-.472656 6.550781.359375 9.199219 2.34375 2.65625 1.984375 4.378906 4.886718 4.851562 8.167968.976563 6.773438-3.738281 13.078126-10.511718 14.054688zm-129.449219-176.265625c31.722656 0 55.191406-16.820313 64.378906-33.488281 6.230469-11.296875 6.363281-23.222656.371094-32.710938-11.851563-18.761718-28.972657-14.5625-44.082031-10.863281-4.28125 1.050781-8.652344 2.121094-13.046876 2.765625v-12.179688c1.410157-.378906 2.796876-.867187 4.148438-1.46875l18.382812-8.171874c5.195313-2.3125 9.066407-6.773438 10.625-12.242188 1.558594-5.464844.617188-11.296875-2.578124-16-4.039063-5.941406-10.09375-10.214844-17.042969-12.035156-13.761719-3.601563-28.304688-3.601563-42.066407 0-6.949218 1.820312-13.003906 6.09375-17.042968 12.035156-3.195313 4.703125-4.136719 10.535156-2.578125 16 1.558593 5.46875 5.433593 9.929688 10.625 12.238281l18.382812 8.175781c1.351563.601563 2.738281 1.089844 4.148438 1.46875v12.210938c-4.476563-.640625-8.933594-1.726562-13.292969-2.792969-15.109375-3.703125-32.234375-7.898437-44.082031 10.859375-5.992188 9.492188-5.855469 21.414063.371093 32.714844 9.1875 16.664062 32.660157 33.484375 64.378907 33.484375zm-23.8125-109.828125c-1.535157-.679688-2.097657-1.949219-2.292969-2.640625-.199219-.695313-.390625-2.066406.558594-3.457031 2-2.941406 4.996094-5.058594 8.4375-5.957032 5.636718-1.476562 11.433594-2.214843 17.230468-2.214843 5.800782 0 11.597657.738281 17.234376 2.214843 3.441406.898438 6.4375 3.015626 8.4375 5.957032.945312 1.390625.757812 2.761718.558593 3.457031-.195312.691406-.757812 1.960937-2.296875 2.644531l-18.378906 8.171875c-3.53125 1.570313-7.578125 1.570313-11.105469 0zm-28.253907 51.636719c3.210938-5.085938 6.605469-7.050781 11.976563-7.050781 3.964844 0 9.007813 1.074218 15.851563 2.75 7.269531 1.78125 15.503906 3.800781 24.238281 3.800781.027343 0 .054687-.003907.078125-.003907.015625 0 .03125.003907.042968.003907.050782 0 .101563-.007813.152344-.007813 8.632813-.042968 16.773438-2.03125 23.96875-3.792968 16.109375-3.945313 22.242188-4.539063 27.824219 4.304687 3.882813 6.148437 1.695313 12.890625-.824219 17.460937-6.828125 12.390626-25.777344 25.726563-51.242187 25.726563-25.460938 0-44.410157-13.335937-51.242188-25.726563-2.519531-4.570312-4.707031-11.3125-.824219-17.464843zm216.09375 167.5625c-4.144531 0-7.5 3.355469-7.5 7.5 0 4.640625-3.070312 11.429687-5.609374 13.957031-2.9375 2.917969-2.953126 7.667969-.03125 10.605469 1.464843 1.472656 3.390624 2.210937 5.316406 2.210937 1.914062 0 3.824218-.726562 5.289062-2.179687 5.625-5.59375 10.035156-16.394531 10.035156-24.59375 0-4.140625-3.359374-7.5-7.5-7.5zm0 0"/></svg>