<svg viewBox="0 -27 511.98884 511" xmlns="http://www.w3.org/2000/svg"><path d="m161.007812 412.921875c-5.328124 0-10.648437-2.039063-14.699218-6.117187-8.058594-8.113282-8.011719-21.230469.105468-29.285157 7.351563-7.300781 16.386719-18.988281 21.046876-44.808593 2.027343-11.257813 12.800781-18.738282 24.054687-16.703126 11.257813 2.03125 18.738281 12.800782 16.703125 24.058594-5.164062 28.636719-15.53125 49.875-32.621094 66.84375-4.039062 4.011719-9.316406 6.011719-14.589844 6.011719zm0 0" fill="#c49b7a"/><path d="m374.882812 434.164062c-30.3125 0-48.085937-8.46875-74.914062-32.886718-6.765625-6.15625-7.257812-16.636719-1.101562-23.402344 6.160156-6.769531 16.636718-7.261719 23.40625-1.101562 26.554687 24.167968 36.546874 26.046874 67.757812 23.574218 9.117188-.703125 17.101562 6.085938 17.824219 15.207032.722656 9.121093-6.085938 17.101562-15.207031 17.824218-6.414063.507813-12.296876.785156-17.765626.785156zm0 0" fill="#495059"/><path d="m163.269531 440.476562c-8.210937 0-15.976562-4.910156-19.226562-12.992187-4.261719-10.613281.882812-22.675781 11.5-26.941406 25.839843-10.378907 63.355469-18.257813 82.179687-19.101563 11.40625-.511718 21.105469 8.332032 21.621094 19.757813.511719 11.425781-8.335938 21.105469-19.761719 21.621093-14.769531.660157-47.953125 7.867188-68.601562 16.160157-2.527344 1.015625-5.140625 1.496093-7.710938 1.496093zm0 0" fill="#ddaf89"/><path d="m237.726562 381.4375c-15.636718.703125-44.164062 6.261719-68.1875 14.070312 10.820313 13.410157 25.105469 24.351563 41.636719 31.707032 11.320313-2.464844 21.742188-4.097656 28.40625-4.398438 11.425781-.511718 20.273438-10.191406 19.761719-21.617187s-10.214844-20.269531-21.617188-19.761719zm0 0" fill="#d1a582"/><path d="m361.308594 334.40625c0-50.425781-45.203125-91.304688-100.960938-91.304688-55.757812 0-100.960937 40.878907-100.960937 91.304688s45.203125 91.304688 100.960937 91.304688c55.757813 0 100.960938-40.878907 100.960938-91.304688zm0 0" fill="#ddaf89"/><path d="m351.53125 275.785156c-24.742188 20.53125-56.519531 32.875-91.183594 32.875-34.664062 0-66.441406-12.34375-91.183594-32.875-5.265624 6.8125-9.648437 14.230469-12.976562 22.125-4.53125 10.757813-.351562 23.230469 9.714844 29.136719 27.714844 16.269531 59.988281 25.601563 94.445312 25.601563 34.457032 0 66.730469-9.332032 94.445313-25.601563 10.066406-5.90625 14.246093-18.378906 9.714843-29.136719-3.328124-7.894531-7.714843-15.3125-12.976562-22.125zm0 0" fill="#7f9ae6"/><path d="m344.46875 420.390625c-2.300781 0-4.636719-.386719-6.925781-1.199219-10.78125-3.824218-16.417969-15.664062-12.59375-26.441406 3.464843-9.765625 6.542969-24.214844-.445313-49.503906-3.042968-11.023438 3.421875-22.429688 14.449219-25.476563s22.429687 3.421875 25.476563 14.445313c7.75 28.050781 7.609374 51.683594-.445313 74.382812-3.011719 8.488282-10.996094 13.792969-19.515625 13.792969zm0 0" fill="#c49b7a"/><path d="m214.367188 301.097656c-16.660157-5.664062-31.945313-14.3125-45.203126-25.3125-5.261718 6.8125-9.648437 14.230469-12.976562 22.125-4.53125 10.757813-.351562 23.230469 9.714844 29.136719 14.410156 8.460937 30.0625 15.023437 46.605468 19.394531-6.070312-12.179687-4.351562-30.464844 1.859376-45.34375zm0 0" fill="#5e78bf"/><path d="m198.382812 156.222656c-4.34375.765625-8.957031.214844-13.226562-1.863281l-29.578125-14.425781c-12.953125-6.316406-28.316406-2.890625-37.359375 8.328125l-14.527344 18.015625c-7.5 9.304687-21.125 10.765625-30.425781 3.265625-9.304687-7.5-10.765625-21.125-3.265625-30.429688l14.523438-18.015625c10.476562-12.992187 25.214843-22.144531 41.503906-25.773437 16.289062-3.628907 33.519531-1.601563 48.519531 5.710937l29.578125 14.421875c10.742188 5.238281 15.203125 18.195313 9.964844 28.9375-3.15625 6.472657-9.117188 10.667969-15.707032 11.828125zm0 0" fill="#495059"/><path d="m278.53125 142.089844c-6.589844 1.160156-13.625-.738282-18.808594-5.746094-8.59375-8.300781-8.832031-22-.53125-30.597656l22.863282-23.667969c11.59375-12.003906 27.097656-19.800781 43.640624-21.964844 16.546876-2.160156 33.527344 1.402344 47.816407 10.027344l19.808593 11.964844c10.234376 6.175781 13.519532 19.476562 7.339844 29.707031-6.175781 10.230469-19.476562 13.515625-29.707031 7.339844l-19.8125-11.960938c-12.335937-7.449218-27.945313-5.414062-37.957031 4.953125l-22.863282 23.667969c-3.296874 3.414062-7.445312 5.511719-11.789062 6.277344zm0 0" fill="#495059"/><path d="m268.21875 317.9375c108.179688-19.074219 148.199219-77.226562 120.675781-144.324219-29.574219-72.105469-88.3125-104.074219-162.179687-91.046875-73.863282 13.023438-118.128906 63.152344-121.257813 141.023438-2.914062 72.464844 54.578125 113.425781 162.761719 94.347656zm0 0" fill="#ddaf89"/><path d="m253.8125 356.207031c0 15.574219-12.628906 28.199219-28.203125 28.199219s-28.203125-12.625-28.203125-28.199219c0-15.578125 12.628906-28.203125 28.203125-28.203125s28.203125 12.625 28.203125 28.203125zm0 0" fill="#f6e06a"/><path d="m176.367188 225.835938c-2.320313-13.148438-17.582032-21.449219-34.097657-18.539063-16.511719 2.910156-28.019531 15.929687-25.699219 29.078125 2.316407 13.152344 17.582032 21.453125 34.09375 18.539062 16.511719-2.910156 28.019532-15.929687 25.703126-29.078124zm0 0" fill="#ffdbdb"/><path d="m284.378906 206.773438c2.320313 13.148437 17.585938 21.449218 34.097656 18.539062 16.511719-2.914062 28.015626-15.933594 25.699219-29.082031-2.316406-13.148438-17.582031-21.449219-34.09375-18.539063s-28.019531 15.929688-25.703125 29.082032zm0 0" fill="#ffdbdb"/><path d="m242.582031 193.863281c-10.753906-.878906-21.554687 1.027344-31.359375 5.53125-4.058594 1.863281-7.304687 5.136719-9.140625 9.210938-2.472656 5.503906.636719 11.90625 6.492188 13.363281l16.242187 4.042969c4.839844 1.203125 9.960938.300781 14.097656-2.484375l13.882813-9.355469c5.003906-3.371094 5.734375-10.449219 1.527344-14.777344-3.117188-3.203125-7.285157-5.167969-11.742188-5.53125zm0 0" fill="#495059"/><path d="m253.746094 263.980469c0 8.265625-6.703125 14.964843-14.96875 14.964843s-14.964844-6.699218-14.964844-14.964843 6.699219-14.964844 14.964844-14.964844 14.96875 6.699219 14.96875 14.964844zm0 0" fill="#d16283"/><path d="m234.019531 449.113281c-7.355469 0-14.472656-3.925781-18.226562-10.84375-5.453125-10.054687-1.722657-22.625 8.335937-28.078125 24.859375-13.480468 47.238282-20.183594 66.496094-19.917968 11.4375.15625 20.582031 9.554687 20.425781 20.992187s-9.539062 20.5625-20.992187 20.421875c-11.886719-.171875-27.890625 4.996094-46.183594 14.914062-3.140625 1.703126-6.523438 2.511719-9.855469 2.511719zm0 0" fill="#c49b7a"/><path d="m212.035156 216.519531c-6.910156 4.695313-14.253906 5.085938-28.964844 7.664063-9.882812 1.726562-16.9375 10.925781-15.503906 20.855468 1.492188 10.355469 11.234375 17.347657 21.457032 15.542969 5.015624-.882812 9.199218-3.714843 11.90625-7.582031 5.050781-7.214844 11.609374-19.472656 13.890624-34.730469.234376-1.558593-1.480468-2.636719-2.785156-1.75zm0 0" fill="#7f9ae6"/><path d="m32.226562 248.550781-9.394531 1.585938c-6.570312 1.109375-12.203125-4.726563-10.867187-11.253907l1.910156-9.335937c.4375-2.136719.125-4.359375-.882812-6.292969l-4.410157-8.445312c-3.085937-5.90625.722657-13.070313 7.34375-13.816406l9.46875-1.0625c2.167969-.246094 4.1875-1.230469 5.710938-2.789063l6.671875-6.804687c4.664062-4.757813 12.652344-3.347657 15.40625 2.71875l3.941406 8.675781c.902344 1.984375 2.460938 3.601562 4.414062 4.570312l8.535157 4.242188c5.96875 2.964843 7.097656 10.996093 2.175781 15.492187l-7.03125 6.429688c-1.613281 1.472656-2.664062 3.453125-2.984375 5.609375l-1.394531 9.425781c-.976563 6.589844-8.269532 10.148438-14.0625 6.859375l-8.289063-4.703125c-1.898437-1.078125-4.109375-1.46875-6.261719-1.105469zm0 0" fill="#7f9ae6"/><path d="m62.542969 357.273438-11.636719 4.140624c-8.136719 2.890626-16.644531-3.289062-16.40625-11.921874l.339844-12.34375c.078125-2.828126-.820313-5.59375-2.542969-7.832032l-7.53125-9.789062c-5.265625-6.84375-2.019531-16.84375 6.265625-19.285156l11.847656-3.492188c2.710938-.800781 5.0625-2.507812 6.660156-4.839844l6.984376-10.1875c4.878906-7.125 15.394531-7.125 20.277343 0l6.980469 10.1875c1.597656 2.332032 3.953125 4.039063 6.664062 4.839844l11.847657 3.492188c8.28125 2.441406 11.53125 12.441406 6.265625 19.285156l-7.53125 9.789062c-1.726563 2.238282-2.625 5.003906-2.546875 7.832032l.339843 12.347656c.238282 8.632812-8.269531 14.8125-16.40625 11.917968l-11.636718-4.136718c-2.664063-.949219-5.570313-.949219-8.234375-.003906zm0 0" fill="#f6e06a"/><path d="m461.167969 198.628906-10.382813 3.691406c-7.257812 2.578126-14.84375-2.933593-14.632812-10.632812l.304687-11.015625c.066407-2.519531-.734375-4.988281-2.273437-6.984375l-6.714844-8.734375c-4.699219-6.105469-1.800781-15.023437 5.585938-17.203125l10.570312-3.113281c2.417969-.714844 4.515625-2.238281 5.941406-4.320313l6.230469-9.085937c4.355469-6.355469 13.730469-6.355469 18.085937 0l6.230469 9.085937c1.425781 2.082032 3.523438 3.605469 5.941407 4.320313l10.570312 3.113281c7.386719 2.179688 10.285156 11.097656 5.589844 17.203125l-6.71875 8.734375c-1.539063 1.996094-2.339844 4.464844-2.269532 6.984375l.300782 11.015625c.214844 7.699219-7.375 13.210938-14.632813 10.632812l-10.378906-3.691406c-2.378906-.847656-4.972656-.847656-7.347656 0zm0 0" fill="#a2d3ee"/><path d="m433.660156 322.363281-9.582031 5.4375c-6.699219 3.804688-15.128906-.308593-16.257813-7.929687l-1.613281-10.894532c-.371093-2.496093-1.589843-4.789062-3.449219-6.488281l-8.132812-7.433593c-5.6875-5.195313-4.382812-14.484376 2.515625-17.910157l9.867187-4.902343c2.257813-1.125 4.058594-2.992188 5.101563-5.285157l4.558594-10.03125c3.183593-7.015625 12.421875-8.644531 17.8125-3.140625l7.710937 7.867188c1.765625 1.800781 4.097656 2.9375 6.605469 3.21875l10.945313 1.234375c7.65625.863281 12.058593 9.140625 8.492187 15.972656l-5.097656 9.765625c-1.167969 2.234375-1.53125 4.804688-1.023438 7.273438l2.210938 10.792968c1.546875 7.546875-4.96875 14.292969-12.5625 13.011719l-10.867188-1.832031c-2.488281-.421875-5.042969.027344-7.234375 1.273437zm0 0" fill="#ffdbdb"/><path d="m298.320312 168.660156c-1.527343 2.53125-4.066406 4.277344-6.96875 4.789063-2.898437.511719-5.886718-.257813-8.1875-2.117188-3.222656-2.605469-7.945312-2.101562-10.546874 1.121094-2.605469 3.222656-2.101563 7.945313 1.121093 10.546875 4.523438 3.652344 10.125 5.605469 15.84375 5.605469 1.457031 0 2.917969-.125 4.375-.382813 7.171875-1.265625 13.441407-5.574218 17.210938-11.820312 2.136719-3.546875.992187-8.15625-2.554688-10.296875-3.542969-2.136719-8.15625-.996094-10.292969 2.554687zm-178.59375-119.203125 14.648438-6.0625-12.144531 25.167969c-1.351563 2.800781-.835938 6.148438 1.300781 8.410156 1.445312 1.53125 3.433594 2.351563 5.453125 2.351563.964844-.003907 1.941406-.1875 2.867187-.574219l32.816407-13.582031c3.828125-1.585938 5.644531-5.972657 4.0625-9.800781-1.585938-3.828126-5.972657-5.644532-9.800781-4.058594l-14.648438 6.0625 12.148438-25.167969c1.351562-2.800781.832031-6.148437-1.304688-8.410156s-5.445312-2.96875-8.320312-1.777344l-32.816407 13.582031c-3.828125 1.585938-5.644531 5.972656-4.0625 9.800782 1.585938 3.824218 5.972657 5.640624 9.800781 4.058593zm-95.648437 208.074219 9.398437-1.585938c.445313-.074218.914063.007813 1.308594.234376l8.285156 4.699218c2.597657 1.476563 5.488282 2.214844 8.386719 2.214844 2.542969 0 5.089844-.570312 7.441407-1.71875 5.039062-2.457031 8.535156-7.234375 9.355468-12.777344l1.394532-9.425781c.066406-.449219.289062-.867187.625-1.171875l7.035156-6.429688c4.136718-3.78125 6.140625-9.351562 5.359375-14.898437-.777344-5.550781-4.242188-10.351563-9.261719-12.847656l-8.53125-4.242188c-.40625-.203125-.734375-.539062-.921875-.957031l-3.941406-8.675781c-2.316407-5.101563-6.996094-8.726563-12.515625-9.703125-5.519532-.972656-11.152344.835937-15.078125 4.839844l-6.671875 6.804687c-.316406.324219-.738282.53125-1.191406.582031l-9.46875 1.066406c-5.570313.628907-10.464844 3.957032-13.097657 8.902344-2.628906 4.949219-2.652343 10.867188-.058593 15.835938l4.410156 8.445312c.210937.40625.277344.871094.1875 1.316406l-1.914063 9.335938c-1.125 5.488281.527344 11.171875 4.421875 15.207031 3.894532 4.03125 9.519532 5.882813 15.042969 4.949219zm-4.765625-17.144531 1.910156-9.335938c.78125-3.816406.21875-7.816406-1.582031-11.269531l-4.414063-8.445312c-.398437-.765626-.214843-1.429688.007813-1.851563.226563-.417969.671875-.941406 1.53125-1.039063l9.46875-1.066406c3.871094-.433594 7.503906-2.207031 10.226563-4.988281l6.671874-6.804687c.601563-.617188 1.292969-.648438 1.761719-.566407s1.101563.347657 1.460938 1.132813l3.941406 8.675781c1.605469 3.546875 4.414063 6.453125 7.902344 8.1875l8.535156 4.242187c.773437.386719 1.015625 1.027344 1.082031 1.5.066406.472657.011719 1.15625-.625 1.742188l-7.035156 6.429688c-2.875 2.625-4.773438 6.195312-5.34375 10.046874l-1.394531 9.425782c-.128907.855468-.664063 1.285156-1.09375 1.492187-.429688.210938-1.097657.371094-1.847657-.058593l-8.289062-4.703126c-2.5625-1.453124-5.46875-2.210937-8.394531-2.210937-.9375 0-1.878907.078125-2.8125.234375l-9.394531 1.585938c-.851563.144531-1.429688-.234376-1.757813-.578126-.332031-.34375-.691406-.929687-.515625-1.777343zm172.007812-218.558594 15.617188-2.730469-17.328125 21.921875c-1.929687 2.441407-2.152344 5.820313-.558594 8.492188 1.367188 2.296875 3.828125 3.660156 6.4375 3.660156.429688 0 .863281-.039063 1.292969-.113281l34.988281-6.121094c4.078125-.710938 6.808594-4.597656 6.09375-8.679688-.710937-4.078124-4.601562-6.808593-8.679687-6.09375l-15.613282 2.730469 17.328126-21.921875c1.929687-2.441406 2.152343-5.820312.558593-8.492187s-4.671875-4.082031-7.734375-3.546875l-34.984375 6.121094c-4.082031.710937-6.8125 4.597656-6.097656 8.679687.714844 4.078125 4.609375 6.8125 8.679687 6.09375zm74.335938 25.054687 35.230469 4.507813c.324219.042969.644531.0625.964843.0625 3.714844 0 6.945313-2.761719 7.429688-6.546875.523438-4.109375-2.378906-7.867188-6.488281-8.394531l-15.726563-2.011719 23.042969-15.8125c2.566406-1.761719 3.777344-4.921875 3.046875-7.945312-.730469-3.023438-3.253906-5.285157-6.339844-5.679688l-35.230468-4.507812c-4.109376-.5195318-7.863282 2.378906-8.390626 6.488281-.523437 4.109375 2.378907 7.863281 6.488282 8.390625l15.722656 2.011718-23.039062 15.8125c-2.566407 1.761719-3.777344 4.921876-3.046876 7.945313.730469 3.027344 3.25 5.285156 6.335938 5.679687zm-161.242188 246.164063-11.847656-3.492187c-1.054687-.308594-1.976562-.980469-2.597656-1.886719l-6.984375-10.1875c-3.691406-5.386719-9.796875-8.601563-16.324219-8.601563-6.53125 0-12.632812 3.214844-16.324218 8.601563l-6.984376 10.1875c-.621093.90625-1.542968 1.578125-2.597656 1.886719l-11.84375 3.492187c-6.265625 1.847656-11.210937 6.65625-13.226562 12.867187-2.019532 6.210938-.847656 13.011719 3.136718 18.1875l7.53125 9.789063c.667969.867187 1.023438 1.953125.992188 3.050781l-.339844 12.347656c-.179687 6.527344 2.867188 12.714844 8.148438 16.554688s12.113281 4.824219 18.265625 2.636719l11.636719-4.140625c1.035156-.367188 2.175781-.367188 3.210937 0l11.636719 4.140625c2.160156.765625 4.402344 1.144531 6.632812 1.144531 4.121094 0 8.203125-1.289062 11.632813-3.78125 5.28125-3.839844 8.332031-10.027344 8.148437-16.554688l-.339844-12.347656c-.027343-1.097656.324219-2.183594.992188-3.054687l7.53125-9.785157c3.984375-5.175781 5.15625-11.976562 3.136719-18.1875-2.015625-6.210937-6.960938-11.019531-13.222657-12.867187zm-1.800781 21.90625-7.53125 9.789063c-2.769531 3.597656-4.222656 8.078124-4.097656 12.613281l.339844 12.34375c.0625 2.28125-1.359375 3.5625-1.976563 4.007812-.613281.449219-2.273437 1.402344-4.421875.640625l-11.636719-4.140625c-4.277343-1.519531-8.988281-1.519531-13.261718 0l-11.636719 4.140625c-2.148437.761719-3.808594-.191406-4.421875-.640625-.613281-.445312-2.035156-1.726562-1.972656-4.003906l.339844-12.347656c.125-4.539063-1.332032-9.019531-4.101563-12.613281l-7.527344-9.789063c-1.390625-1.804687-.996093-3.679687-.761719-4.398437.234376-.722657 1.015626-2.472657 3.203126-3.117188l11.847656-3.492188c4.351562-1.285156 8.160156-4.050781 10.726562-7.796874l6.984375-10.1875c1.285157-1.878907 3.191407-2.082032 3.949219-2.082032.761719 0 2.664062.203125 3.953125 2.082032l6.980469 10.1875c2.566406 3.742187 6.375 6.511718 10.730468 7.796874l11.847657 3.492188c2.1875.644531 2.96875 2.394531 3.199219 3.113281.238281.722657.636718 2.597657-.753907 4.402344zm357.96875-56.300781-10.945312-1.234375c-.789063-.089844-1.53125-.449219-2.085938-1.019531l-7.714843-7.867188c-4.261719-4.351562-10.390626-6.316406-16.394532-5.257812-6 1.058593-11.085937 5-13.601562 10.546874l-4.558594 10.03125c-.328125.726563-.898438 1.316407-1.609375 1.671876l-9.867187 4.902343c-5.457032 2.710938-9.21875 7.933594-10.066407 13.964844-.847656 6.03125 1.328125 12.089844 5.828125 16.199219l8.128906 7.433594c.589844.535156.976563 1.261718 1.09375 2.050781l1.613282 10.898437c.894531 6.023438 4.695312 11.21875 10.171875 13.890625 2.558593 1.246094 5.328125 1.867188 8.09375 1.867188 3.148437 0 6.292969-.804688 9.113281-2.40625l9.578125-5.4375c.691406-.390625 1.507813-.535157 2.289063-.402344l10.863281 1.832031c6.003906 1.015625 12.121093-1 16.351562-5.378906 4.234375-4.382812 6.03125-10.566406 4.808594-16.53125l-2.210937-10.796875c-.160157-.777344-.042969-1.59375.324218-2.296875l5.097656-9.765625c2.824219-5.398437 2.796876-11.835937-.0625-17.214844-2.859374-5.378906-8.183593-9-14.238281-9.679687zm1.003907 19.949218-5.097657 9.765626c-1.960937 3.753906-2.574219 8.105468-1.722656 12.253906l2.210937 10.792968c.316407 1.554688-.429687 2.609376-.902343 3.101563-.472657.488281-1.5 1.273437-3.066407 1.007813l-10.863281-1.832032c-4.183593-.703125-8.503906.058594-12.1875 2.148438l-9.578125 5.4375c-1.382812.785156-2.617187.402344-3.230468.101562-.613282-.296875-1.675782-1.035156-1.910157-2.605468l-1.613281-10.898438c-.617188-4.1875-2.683594-8.066406-5.808594-10.925781l-8.132812-7.429688c-1.171875-1.070312-1.191406-2.363281-1.09375-3.039062.09375-.675781.464844-1.914063 1.890625-2.621094l9.863281-4.902344c3.792969-1.886719 6.84375-5.046875 8.597656-8.902343l4.554688-10.03125c.65625-1.445313 1.882812-1.859376 2.550781-1.976563.175781-.03125.390625-.054687.636719-.054687.695312 0 1.617187.199218 2.441406 1.039062l7.710938 7.871094c2.964843 3.023437 6.914062 4.949218 11.121093 5.421875l10.945313 1.234375c1.578125.175781 2.351562 1.214844 2.671875 1.816406.320312.601562.746093 1.820312.011719 3.226562zm-283.355469-78.761718c2.136719-3.550782.992187-8.15625-2.554688-10.296875-3.546875-2.136719-8.15625-.992188-10.296875 2.558593-1.523437 2.53125-4.0625 4.277344-6.964844 4.789063-2.898437.511719-5.886718-.261719-8.1875-2.121094-3.222656-2.601562-7.945312-2.097656-10.546874 1.125-2.605469 3.21875-2.101563 7.941407 1.121093 10.546875 4.523438 3.652344 10.125 5.601563 15.84375 5.601563 1.457031 0 2.917969-.125 4.375-.378907 7.171875-1.265624 13.449219-5.578124 17.210938-11.824218zm332.855469-47.273438c-1.882813-5.796875-6.496094-10.285156-12.34375-12.007812l-10.5625-3.113282c-.765626-.226562-1.429688-.710937-1.878907-1.367187l-6.230469-9.085937c-3.441406-5.027344-9.136718-8.027344-15.230468-8.027344-6.089844 0-11.785156 3-15.230469 8.027344l-6.226563 9.085937c-.449218.65625-1.117187 1.140625-1.878906 1.367187l-10.566406 3.113282c-5.84375 1.722656-10.457031 6.210937-12.339844 12.007812-1.882812 5.792969-.789062 12.132813 2.925782 16.960938l6.71875 8.734375c.484374.628906.738281 1.414062.71875 2.207031l-.304688 11.011719c-.167969 6.089843 2.675781 11.867187 7.605469 15.445312 4.929687 3.582031 11.296875 4.503907 17.039062 2.460938l10.378907-3.691407c.75-.265624 1.574218-.265624 2.324218 0l10.378906 3.691407c2.015626.714843 4.105469 1.066406 6.1875 1.066406 3.847657 0 7.652344-1.203125 10.855469-3.527344 4.925781-3.578125 7.769531-9.355469 7.601563-15.445312l-.304688-11.011719c-.019531-.792969.234375-1.578125.71875-2.210938l6.71875-8.730468c3.710938-4.828125 4.808594-11.167969 2.925782-16.960938zm-14.816407 7.816406-6.71875 8.730469c-2.582031 3.355469-3.941406 7.535157-3.824219 11.765625l.304688 11.015625c.042969 1.585938-.875 2.496094-1.429688 2.894531-.550781.402344-1.695312.996094-3.195312.460938l-10.378906-3.6875c-3.988282-1.421875-8.382813-1.421875-12.375 0l-10.378906 3.6875c-1.5.535156-2.644532-.058594-3.199219-.460938-.550781-.398437-1.46875-1.308593-1.425781-2.894531l.304687-11.015625c.113281-4.230468-1.242187-8.410156-3.824219-11.765625l-6.71875-8.734375c-.96875-1.257812-.757812-2.53125-.550781-3.179687.210937-.648438.792969-1.804688 2.316406-2.253907l10.566407-3.113281c4.0625-1.199219 7.617187-3.78125 10.011718-7.273437l6.226563-9.085938c.898437-1.3125 2.175781-1.507812 2.859375-1.507812s1.960937.195312 2.855468 1.507812l6.230469 9.085938c2.390625 3.492187 5.945313 6.074218 10.007813 7.273437l10.566406 3.113281c1.523438.449219 2.105469 1.605469 2.316406 2.253907.210938.648437.421875 1.921875-.546875 3.183593zm-239.28125 60.007813c4.230469-2.851563 6.960938-7.402344 7.484375-12.476563.527344-5.078124-1.214844-10.089843-4.773437-13.75-4.382813-4.503906-10.242188-7.265624-16.507813-7.773437-12.011718-.984375-24.144531 1.15625-35.097656 6.1875-5.710938 2.625-10.277344 7.222656-12.851562 12.953125-1.332032 2.960938-1.75 6.160156-1.347657 9.238281-1.40625.246094-2.933593.496094-4.632812.773438-2.273438.371093-4.753907.773437-7.484375 1.25-13.910156 2.4375-23.613282 15.585937-21.636719 29.320312 1.011719 7.019531 4.730469 13.171875 10.46875 17.324219 4.480469 3.246094 9.734375 4.9375 15.144531 4.9375 1.515625 0 3.042969-.132812 4.570313-.402344 6.824219-1.203125 12.773437-4.992187 16.746093-10.667968 3.347657-4.78125 8.59375-13.445313 12.179688-24.949219l3.757812.9375c.9375.234375 1.886719.40625 2.839844.527343l1.871094 10.613282c-8.042969 4.558594-12.757812 13.839844-11.0625 23.449218 1.039062 5.910157 4.320312 11.058594 9.238281 14.503907 3.820313 2.675781 8.269531 4.066406 12.835938 4.066406 1.3125 0 2.632812-.113281 3.949219-.34375 5.910156-1.042969 11.0625-4.324219 14.503906-9.242187 3.441406-4.914063 4.761718-10.875 3.71875-16.785157-1.039063-5.910156-4.320313-11.0625-9.234375-14.503906-2.789063-1.949219-5.917969-3.195313-9.175781-3.738281l-1.875-10.636719c.851562-.4375 1.6875-.914063 2.488281-1.453125zm-62.203125 28.308594c-1.679687 2.394531-4.183594 3.992187-7.0625 4.5-2.945312.515625-5.898437-.160157-8.316406-1.914063-2.421875-1.75-3.988281-4.347656-4.417969-7.3125-.832031-5.789062 3.371094-11.351562 9.375-12.402344 2.667969-.46875 5.09375-.863281 7.3125-1.222656 5.144531-.839844 9.441407-1.535156 13.304688-2.582031-2.988281 9.65625-7.394531 16.929687-10.195313 20.933594zm48.277344 9.164062c1.632812 1.144531 2.722656 2.855469 3.070312 4.820313.34375 1.964844-.09375 3.945312-1.238281 5.582031-1.144531 1.632813-2.855469 2.722656-4.820312 3.066406-1.960938.351563-3.941407-.089843-5.578125-1.234375-1.632813-1.144531-2.722656-2.855468-3.070313-4.820312-.714843-4.054688 2.003907-7.933594 6.054688-8.648438h.003906c.4375-.078125.875-.113281 1.308594-.113281 1.519531-.003906 3 .460937 4.269531 1.347656zm-8.339844-40.554687c-2.371094 1.597656-5.320312 2.117187-8.09375 1.425781l-4.3125-1.074219c-.109375-3.039062-1.6875-5.878906-4.320312-7.53125-2.242188-1.410156-4.929688-1.753906-7.402344-1.074218 1.027344-1.199219 2.300781-2.179688 3.761719-2.847657 8.617187-3.957031 18.164062-5.640625 27.617187-4.871093 2.644532.21875 5.125 1.382812 6.976563 3.289062.617187.632812.644531 1.363281.605469 1.742188-.039063.378906-.214844 1.089843-.949219 1.582031zm154.714844 175.5625c-5.234375.414062-9.878906.703125-14.09375.769531 3.988281-19.523437 2.769531-40.058594-3.6875-63.421875-.652344-2.363281-1.589844-4.574219-2.765625-6.605469 5.472656-8.4375 6.542969-19.082031 2.527344-28.613281-1.222657-2.902344-2.617188-5.78125-4.136719-8.621094 14.316406-11.429687 23.058594-23.445312 28.382812-34.082031 1.851563-3.707031.351563-8.210937-3.351562-10.066406-3.703125-1.851563-8.207031-.351563-10.0625 3.351562-6.050781 12.089844-15.507812 22.816407-28.121094 32.046875-.210937.105469-.417968.21875-.621094.34375-.472656.296875-.898437.636719-1.28125 1.011719-20.683593 14.535156-49.425781 25.242187-85.308593 31.570313-44.929688 7.921874-81.808594 5.546874-108.371094-6.769532-.441406-.273437-.910156-.5-1.40625-.679687-6.964844-3.371094-13.210937-7.433594-18.671875-12.203125-17.828125-15.582032-26.652344-38.753906-25.519531-67.011719 1.28125-31.917969 9.664062-58.914063 24.511719-80.308594.40625-.445312.75-.941406 1.035156-1.46875 10.085937-14.074219 23.042968-25.636719 38.675781-34.507812.328125-.148438.640625-.332031.945313-.527344 14.433593-8.035156 31.097656-13.8125 49.902343-17.128906 18.660157-3.289063 36.183594-3.601563 52.390625-1.054688.527344.148438 1.066406.230469 1.609375.261719 17.628907 2.996094 33.671875 9.417969 47.898438 19.136719.5.457031 1.058593.851562 1.667969 1.160156 21.210937 15.027344 38.273437 37.507813 50.371093 67.003906 5.542969 13.511719 8.171875 26.632813 7.8125 39-.121093 4.140625 3.136719 7.59375 7.277344 7.714844 4.171875.105469 7.59375-3.140625 7.714844-7.28125.417969-14.476563-2.585938-29.660156-8.925781-45.125-6.660157-16.238281-14.738282-30.578125-24.183594-42.960937 3.34375 1.296874 6.863281 1.972656 10.429687 1.972656 2.347657 0 4.707031-.285156 7.042969-.863282 7.554688-1.867187 13.933594-6.5625 17.953125-13.226562 4.023437-6.660156 5.214844-14.492188 3.347656-22.046875-1.867187-7.558594-6.566406-13.9375-13.230469-17.957031l-19.808593-11.964844c-15.734375-9.496094-34.4375-13.421875-52.664063-11.042969-16.675781 2.183594-32.414062 9.59375-44.753906 20.984375-17.082031-2.375-35.304688-1.875-54.554688 1.519532-19.25 3.390624-36.542968 9.15625-51.78125 17.230468-15.496093-6.484375-32.824218-8.066406-49.238281-4.410156-17.941406 3.996094-34.171875 14.078125-45.710937 28.390625l-14.523438 18.015625c-4.882812 6.058594-7.117187 13.660156-6.285156 21.398438.828125 7.738281 4.625 14.6875 10.683594 19.574218 5.375 4.335938 11.835937 6.441406 18.257812 6.441406 6.902344 0 13.757813-2.433593 19.171875-7.152343-4.636719 14.859375-7.320312 31.089843-8.023437 48.621093-1.324219 32.949219 9.269531 60.234376 30.632812 78.90625 5.785156 5.054688 12.292969 9.402344 19.449219 13.09375.9375 3.347657 2.421875 6.476563 4.378906 9.277344-.359375 3.269532-.539062 6.566406-.539062 9.835938 0 6.351562.675781 12.632812 1.976562 18.78125-4.113281 9.695312-8.925781 15.230468-12.730469 19.007812-5.351562 5.308594-8.308593 12.382813-8.335937 19.917969-.019531 5.75 1.671875 11.238281 4.832031 15.894531-.105468.226563-.214844.453125-.3125.683594-2.957031 6.929688-3.039062 14.597656-.226562 21.589844 4.316406 10.75 14.59375 17.699218 26.179687 17.699218 3.609375 0 7.144531-.6875 10.511719-2.039062 8.625-3.464844 20.566406-7.078125 33.03125-10.039062.5625 2.023437 1.347656 4.019531 2.390625 5.945312 4.941406 9.109375 14.449219 14.765625 24.816406 14.765625 4.667969 0 9.3125-1.179687 13.429688-3.417969 16.9375-9.183594 32.015625-14.164062 42.519531-14.003906h.34375c10.988281 0 20.570312-6.328125 25.230469-15.554688 18.613281 13.03125 35.503906 18.027344 59.339843 18.027344 5.496094 0 11.5-.261718 18.359376-.804687 6.40625-.507813 12.234374-3.484375 16.40625-8.375 4.175781-4.890625 6.191406-11.113281 5.6875-17.519531-1.046876-13.203126-12.671876-23.105469-25.898438-22.089844zm-62.769531-325.320313c14.867187-1.941406 30.128906 1.261719 42.964843 9.011719l19.8125 11.960938c3.234376 1.953124 5.511719 5.046874 6.417969 8.714843.90625 3.664063.328125 7.464844-1.625 10.699219-1.949219 3.230469-5.042969 5.511719-8.710937 6.417969-3.667969.902343-7.464844.328125-10.699219-1.625l-19.808594-11.960938c-5.359375-3.234375-11.402343-5.085937-17.617187-5.4375-3.035156-2.027343-6.144532-3.941406-9.335938-5.71875-9.148437-5.09375-18.785156-9.070312-28.882812-11.933593 8.261718-5.335938 17.671875-8.847657 27.484375-10.128907zm-228.816407 94.019531c-4.890624 6.070313-13.8125 7.027344-19.878906 2.132813-2.941406-2.371094-4.78125-5.746094-5.183594-9.5-.402343-3.753906.679688-7.441406 3.050782-10.382813l14.523437-18.015624c9.410157-11.675782 22.65625-19.898438 37.292969-23.164063 9.660156-2.148437 19.703125-2.070313 29.296875.117187-8.511719 6.144532-16.210937 13.179688-23.0625 21.09375-2.382813 2.746094-4.636719 5.589844-6.785156 8.519532-5.71875 2.449218-10.773438 6.277344-14.726563 11.183594zm127.757813 173.933594c11.414063 0 20.699219 9.285156 20.699219 20.703125 0 11.414063-9.285156 20.699219-20.699219 20.699219s-20.703125-9.285156-20.703125-20.699219c0-11.417969 9.289062-20.703125 20.703125-20.703125zm-23.605469-6.046875c-1.535156 1.355469-2.953125 2.835938-4.234375 4.433594-5.824219-2.167969-11.527343-4.636719-17.078125-7.386719 6.753906 1.386719 13.863282 2.367188 21.3125 2.953125zm-54.207031 62.710938c.011719-3.53125 1.398437-6.84375 3.902344-9.328125 2.449219-2.433594 5.484375-5.722656 8.589843-10.238282 2.421876 5.257813 5.351563 10.335938 8.769532 15.179688-5.894532 1.871094-11.359375 3.8125-16.3125 5.804688-1.5625.625-3.042969 1.390624-4.441406 2.261718-.335938-1.183594-.511719-2.417968-.507813-3.679687zm59.144531 28.304687c-14.570312 3.285156-28.480468 7.417969-38.757812 11.546875-1.578125.636719-3.234375.957031-4.914063.957031-5.425781 0-10.242187-3.253906-12.265625-8.289062-1.316406-3.277344-1.277344-6.867188.109375-10.113281.402344-.945313.917969-1.820313 1.511719-2.628907.082031-.105468.160156-.210937.238281-.320312 1.414063-1.8125 3.28125-3.242188 5.472657-4.121094 6.214843-2.496094 13.328124-4.921875 21.175781-7.230468 7.875 8.023437 17.132812 14.835937 27.445312 20.152343-.007812.015625-.011719.03125-.015625.046875zm110.9375-30.230468c-1.105468 3.117187-1.648437 6.347656-1.636718 9.5625-.195313-.453126-.398438-.902344-.617188-1.347657-1.839844-3.710937-6.34375-5.222656-10.050781-3.386719-3.710938 1.84375-5.226563 6.34375-3.386719 10.054688.933594 1.878906 1.390625 3.914062 1.363281 6.035156-.101562 7.21875-6.023437 13.03125-13.226562 13.03125-.050781 0-.105469 0-.15625 0-13.203125-.195312-30.433594 5.277344-49.871094 15.816406-1.960937 1.066407-4.074219 1.605469-6.28125 1.605469-4.859375 0-9.316406-2.652343-11.628906-6.917969-3.472657-6.402343-1.089844-14.4375 5.3125-17.910156 21.34375-11.574218 40.660156-17.929687 57.425781-18.890625 4.136719-.238281 7.296875-3.785156 7.058594-7.917969-.238282-4.136718-3.789063-7.292968-7.917969-7.058593-18.984375 1.089843-40.417969 8.046875-63.714844 20.683593-2.085937 1.128907-3.96875 2.492188-5.644531 4.027344-28.742188-14.402344-47.246094-41.777344-47.984375-71.386718 7.738281 4.246093 15.800781 7.960937 24.09375 11.128906-.722656 2.824218-1.109375 5.785156-1.109375 8.832031 0 19.6875 16.015625 35.703125 35.703125 35.703125 18.355469 0 33.511719-13.925781 35.476563-31.765625 19.683593-.074219 39.046874-3.078125 57.679687-8.957031 4.449219 19.59375 1.9375 31.101562-.886719 39.058594zm-1.574218-54.035157c-18.039063 5.929688-36.832032 8.941407-55.957032 8.941407-.265625 0-.53125-.003907-.796875-.003907-2.171875-6.644531-6.238281-12.433593-11.5625-16.730469 6.984375-.769531 14.160157-1.789062 21.535157-3.089843 38.378906-6.765625 65.8125-17.773438 85.417968-30.183594.957032 1.882813 1.851563 3.777344 2.652344 5.679687 1.652344 3.925782 1.613281 8.21875.078125 12.003907-6.148437-3.257813-13.496094-4.28125-20.714844-2.285157-11.972656 3.308594-20.007812 13.902344-20.652343 25.667969zm28.164062 76.683594c-1.5 0-2.984375-.261719-4.417969-.769531-3.324219-1.179688-5.992187-3.582032-7.511719-6.769532-1.515624-3.183593-1.703124-6.769531-.523437-10.097656 3.832031-10.800781 7.261719-26.699218-.28125-54.003906-.117187-.429688-.210937-.855469-.285156-1.285156-.003907-.015625-.007813-.027344-.007813-.042969-1.113281-6.589844 2.929688-13.105469 9.507813-14.921875 1.171875-.324219 2.351562-.480469 3.515625-.480469 5.792968 0 11.121094 3.847657 12.734375 9.695313 7.320312 26.492187 7.230469 48.695312-.28125 69.875-1.867188 5.261718-6.871094 8.800781-12.449219 8.800781zm53.769531 9.859375c-1.570312 1.839844-3.769531 2.960938-6.183593 3.152344-6.460938.511718-12.078126.761718-17.175782.761718-6.769531 0-12.820312-.460937-18.484375-1.453124 6.699219-3.140626 12.082031-8.84375 14.660157-16.105469.054687-.15625.097656-.3125.152343-.46875 5.785157.121093 12.109375-.234375 19.402344-.8125 4.960937-.394531 9.375 3.34375 9.769531 8.320312.191406 2.417969-.570312 4.761719-2.140625 6.605469zm0 0"/></svg>