<svg viewBox="-38 1 511 511.999" xmlns="http://www.w3.org/2000/svg"><path d="m117.191406 448.101562c-7.039062 0-14.40625-1.167968-22.261718-3.441406-8.285157-2.398437-13.058594-11.0625-10.65625-19.347656 2.398437-8.289062 11.058593-13.058594 19.347656-10.660156 15.21875 4.40625 28.726562 5.324218 52.261718-25.523438 5.230469-6.859375 15.03125-8.179687 21.890626-2.949218 6.859374 5.234374 8.179687 15.035156 2.945312 21.894531-20.902344 27.402343-40.394531 40.027343-63.527344 40.027343zm0 0" fill="#495059"/><path d="m175.503906 504.5c-10.097656 0-18.648437-7.773438-19.445312-18.011719-2.042969-26.253906-1.222656-45.855469 2.832031-67.652343 1.976563-10.601563 12.171875-17.597657 22.769531-15.621094 10.601563 1.972656 17.597656 12.164062 15.625 22.765625-3.433594 18.449219-4.078125 34.5625-2.292968 57.480469.835937 10.75-7.199219 20.144531-17.953126 20.980468-.511718.039063-1.027343.058594-1.535156.058594zm0 0" fill="#ddaf89"/><path d="m264.476562 504.5c-.507812 0-1.019531-.019531-1.535156-.058594-10.75-.839844-18.789062-10.230468-17.949218-20.984375 1.78125-22.914062 1.140624-39.03125-2.292969-57.476562-1.972657-10.601563 5.023437-20.796875 15.625-22.769531 10.597656-1.972657 20.792969 5.023437 22.765625 15.625 4.058594 21.796874 4.878906 41.398437 2.835937 67.652343-.796875 10.234375-9.351562 18.011719-19.449219 18.011719zm0 0" fill="#ddaf89"/><path d="m124.992188 381.902344c-24.734376 4.148437-47.433594-1.316406-65.472657-16.097656-8.339843-6.835938-9.5625-19.136719-2.726562-27.476563 6.832031-8.339844 19.136719-9.5625 27.476562-2.730469 12.425781 10.183594 29 11.390625 49.253907 3.597656 10.0625-3.871093 21.363281 1.148438 25.234374 11.214844 3.871094 10.066406-1.148437 21.363282-11.210937 25.234375-7.652344 2.941407-15.195313 5.027344-22.554687 6.257813zm0 0" fill="#ddaf89"/><path d="m90.101562 238.65625c-4.605468-26.132812-29.523437-61.277344-51.921874-57.328125-22.394532 3.949219-33.789063 45.496094-29.179688 71.628906 2.917969 16.554688 12.550781 28.558594 24.910156 34.140625 2.882813 1.300782 4.789063 4.121094 5.089844 7.269532l6.59375 69.390624c.953125 10.015626 10.242188 17.085938 20.144531 15.339844l14.1875-2.5c9.90625-1.75 16.214844-11.570312 13.6875-21.304687l-17.539062-67.460938c-.792969-3.0625.03125-6.363281 2.296875-8.574219 9.707031-9.472656 14.652344-24.046874 11.730468-40.601562zm0 0" fill="#a0d9bb"/><path d="m65.035156 237.988281c2.371094 13.441407-3.316406 24.003907-12.351562 25.59375-9.03125 1.59375-17.988282-6.386719-20.359375-19.824219-2.371094-13.445312 1.835937-32.402343 10.871093-33.996093 9.03125-1.59375 19.46875 14.785156 21.839844 28.226562zm0 0" fill="#78bf9b"/><path d="m295.949219 379.628906c-10.671875-1.542968-18.070313-11.449218-16.527344-22.121094 1.542969-10.671874 11.449219-18.070312 22.121094-16.527343 23.78125 3.441406 42.796875-4.199219 52.664062-12.496094 8.253907-6.9375 20.566407-5.875 27.507813 2.378906 6.941406 8.25 5.878906 20.570313-2.375 27.507813-21.167969 17.804687-52.34375 25.75-83.390625 21.257812zm0 0" fill="#ddaf89"/><path d="m387.023438 393.203125c10.425781 1.109375 20.246093-5.804687 22.71875-15.992187 2.492187-10.265626-2.898438-20.367188-12.011719-24.367188-2.8125-1.234375-4.34375-4.304688-3.808594-7.324219l7.804687-44.273437c.53125-3.003906 2.992188-5.308594 6.027344-5.570313 9.5625-.824219 17.9375-8.648437 19.664063-18.453125 2.027343-11.492187-5.644531-22.453125-17.140625-24.480468-4.109375-.722657-8.152344-.203126-11.742188 1.285156-1.589844.660156-3.394531.34375-4.664062-.824219-2.863282-2.625-6.484375-4.496094-10.59375-5.222656-11.492188-2.027344-22.453125 5.648437-24.480469 17.140625-1.726563 9.808594 3.464844 20.023437 12.167969 24.066406 2.761718 1.285156 4.289062 4.292969 3.757812 7.296875l-7.804687 44.273437c-.535157 3.019532-3.023438 5.382813-6.085938 5.578126-9.929687.644531-18.453125 8.292968-19.625 18.792968-1.160156 10.417969 5.707031 20.277344 15.882813 22.796875 4.601562 1.140625 9.171875.691407 13.183594-.96875 1.601562-.664062 3.414062-.34375 4.691406.828125 3.199218 2.929688 7.339844 4.917969 12.058594 5.417969zm0 0" fill="#f3e5b7"/><g fill="#d1a582"><path d="m281.089844 418.835938c-1.972656-10.601563-12.167969-17.597657-22.765625-15.625-10.605469 1.972656-17.597657 12.167968-15.625 22.769531 1.707031 9.183593 2.726562 17.792969 3.09375 26.953125 13.894531-3.140625 26.730469-8.75 37.921875-16.296875-.632813-5.890625-1.5-11.761719-2.625-17.800781zm0 0"/><path d="m181.660156 403.210938c-10.597656-1.972657-20.792968 5.023437-22.769531 15.625-1.121094 6.039062-1.988281 11.910156-2.625 17.800781 11.195313 7.546875 24.03125 13.160156 37.921875 16.296875.371094-9.15625 1.386719-17.765625 3.097656-26.953125 1.96875-10.601563-5.023437-20.796875-15.625-22.769531zm0 0"/><path d="m325.316406 340.84375c-7.160156 1.167969-15.152344 1.382812-23.773437.136719-10.675781-1.546875-20.578125 5.855469-22.121094 16.527343-1.542969 10.671876 5.855469 20.574219 16.527344 22.121094 9.363281 1.351563 18.730469 1.566406 27.839843.730469 1.976563-7.421875 3.035157-15.175781 3.035157-23.148437 0-5.574219-.519531-11.042969-1.507813-16.367188zm0 0"/><path d="m133.523438 339.195312c-6.898438 2.65625-13.359376 4.238282-19.386719 4.804688-.640625 4.320312-.980469 8.730469-.980469 13.210938 0 8.894531 1.3125 17.511718 3.757812 25.703124 2.667969-.222656 5.359376-.554687 8.078126-1.011718 7.359374-1.230469 14.902343-3.316406 22.550781-6.257813 10.066406-3.871093 15.085937-15.167969 11.214843-25.234375-3.871093-10.066406-15.171874-15.085937-25.234374-11.214844zm0 0"/></g><path d="m315.175781 357.210938c0-47.539063-42.617187-86.078126-95.183593-86.078126-52.570313 0-95.1875 38.539063-95.1875 86.078126 0 47.542968 42.617187 86.082031 95.1875 86.082031 52.566406 0 95.183593-38.539063 95.183593-86.082031zm0 0" fill="#ddaf89"/><path d="m305.960938 301.941406c-23.328126 19.359375-53.289063 31-85.96875 31-32.679688 0-62.640626-11.640625-85.96875-31-4.960938 6.425782-9.097657 13.417969-12.230469 20.863282-4.269531 10.144531-.332031 21.898437 9.160156 27.46875 26.125 15.339843 56.554687 24.136718 89.039063 24.136718 32.488281 0 62.914062-8.796875 89.042968-24.136718 9.488282-5.570313 13.429688-17.324219 9.15625-27.46875-3.136718-7.445313-7.273437-14.4375-12.230468-20.863282zm0 0" fill="#7f9ae6"/><path d="m176.640625 325.808594c-15.710937-5.339844-30.117187-13.492188-42.617187-23.867188-4.960938 6.425782-9.097657 13.417969-12.230469 20.863282-4.273438 10.144531-.332031 21.898437 9.15625 27.46875 13.585937 7.976562 28.34375 14.164062 43.9375 18.285156-5.722657-11.484375-4.101563-28.71875 1.753906-42.75zm0 0" fill="#5e78bf"/><path d="m183.472656 190.234375c-3.960937 0-7.949218-1.207031-11.398437-3.710937l-23.894531-17.355469c-10.460938-7.597657-24.574219-6.96875-34.316407 1.539062l-15.644531 13.65625c-8.078125 7.054688-20.34375 6.222657-27.398438-1.855469-7.054687-8.078124-6.222656-20.347656 1.855469-27.398437l15.648438-13.660156c11.28125-9.847657 25.730469-15.644531 40.695312-16.3125 14.960938-.667969 29.871094 3.808593 41.988281 12.609375l23.894532 17.355468c8.675781 6.304688 10.601562 18.449219 4.296875 27.125-3.800781 5.230469-9.722657 8.007813-15.726563 8.007813zm0 0" fill="#495059"/><path d="m256.507812 190.234375c-6.003906 0-11.925781-2.777344-15.726562-8.007813-6.300781-8.675781-4.378906-20.820312 4.300781-27.125l23.894531-17.355468c12.113282-8.800782 27.03125-13.273438 41.988282-12.609375 14.960937.667969 29.414062 6.460937 40.695312 16.3125l15.644532 13.660156c8.078124 7.050781 8.910156 19.320313 1.855468 27.398437-7.054687 8.078126-19.320312 8.910157-27.398437 1.855469l-15.644531-13.660156c-9.742188-8.503906-23.855469-9.136719-34.316407-1.535156l-23.894531 17.355469c-3.445312 2.503906-7.441406 3.710937-11.398438 3.710937zm0 0" fill="#495059"/><path d="m219.992188 344.039062c98.578124 0 143.007812-45.160156 129.140624-108.75-14.898437-68.332031-61.832031-105.734374-129.140624-105.734374-67.3125 0-114.242188 37.402343-129.144532 105.734374-13.863281 63.589844 30.5625 108.75 129.144532 108.75zm0 0" fill="#ddaf89"/><path d="m246.578125 377.765625c0 14.683594-11.902344 26.585937-26.585937 26.585937-14.6875 0-26.589844-11.902343-26.589844-26.585937 0-14.6875 11.902344-26.589844 26.589844-26.589844 14.683593 0 26.585937 11.902344 26.585937 26.589844zm0 0" fill="#f6e06a"/><path d="m168.300781 245.945312c0-12.589843-12.816406-22.796874-28.625-22.796874-15.804687 0-28.621093 10.207031-28.621093 22.796874 0 12.585938 12.816406 22.792969 28.621093 22.792969 15.808594 0 28.625-10.207031 28.625-22.792969zm0 0" fill="#ffdbdb"/><path d="m328.925781 245.945312c0-12.589843-12.8125-22.796874-28.621093-22.796874-15.808594 0-28.625 10.207031-28.625 22.796874 0 12.585938 12.816406 22.792969 28.625 22.792969 15.808593 0 28.621093-10.207031 28.621093-22.792969zm0 0" fill="#ffdbdb"/><path d="m235 227.105469c-9.839844-2.578125-20.179688-2.578125-30.019531 0-4.074219 1.066406-7.625 3.574219-9.996094 7.054687-3.199219 4.707032-1.359375 11.160156 3.839844 13.472656l14.417969 6.414063c4.296874 1.90625 9.199218 1.90625 13.496093 0l14.421875-6.414063c5.199219-2.3125 7.035156-8.765624 3.835938-13.472656-2.367188-3.480468-5.917969-5.988281-9.996094-7.054687zm0 0" fill="#495059"/><path d="m364.382812 53.15625c0-25.214844-24.152343-45.65625-53.949218-45.65625-14.050782 0-26.84375 4.550781-36.4375 12-5.152344 3.996094-12.417969 3.996094-17.566406 0-9.597657-7.449219-22.386719-12-36.4375-12-14.050782 0-26.84375 4.550781-36.441407 12-5.148437 3.996094-12.414062 3.996094-17.5625 0-9.597656-7.449219-22.386719-12-36.4375-12-29.796875 0-53.953125 20.441406-53.953125 45.65625 0 18.566406 13.101563 34.539062 31.90625 41.667969 7.210938 2.734375 11.945313 9.6875 11.945313 17.398437v47.421875c0 7.796875 6.320312 14.121094 14.117187 14.121094h172.847656c7.796876 0 14.117188-6.324219 14.117188-14.121094v-47.421875c0-7.710937 4.734375-14.660156 11.945312-17.398437 18.804688-7.128907 31.90625-23.101563 31.90625-41.667969zm0 0" fill="#dfe3e5"/><path d="m201.953125 10.125c-6.882813 2.070312-13.125 5.28125-18.402344 9.375-5.148437 3.996094-12.414062 3.996094-17.5625 0-9.597656-7.449219-22.386719-12-36.4375-12-29.796875 0-53.953125 20.441406-53.953125 45.65625 0 18.566406 13.101563 34.539062 31.90625 41.671875 7.210938 2.734375 11.945313 9.683594 11.945313 17.394531v47.425782c0 7.796874 6.320312 14.117187 14.117187 14.117187h129.816406c-56.488281-29.414063-71.917968-125.125-61.429687-163.640625zm0 0" fill="#cacdcf"/><path d="m306.414062 173.765625h-172.847656c-7.796875 0-14.117187-6.320313-14.117187-14.117187v-19.3125h201.082031v19.3125c0 7.796874-6.320312 14.117187-14.117188 14.117187zm0 0" fill="#7f9ae6"/><path d="m119.449219 159.648438c0 7.796874 6.320312 14.117187 14.117187 14.117187h129.816406c-14.421874-7.507813-26.171874-19.332031-35.488281-33.429687h-108.445312zm0 0" fill="#5e78bf"/><path d="m411.582031 245.355469c-4.742187-.835938-9.582031-.464844-14.109375 1.0625-3.730468-2.984375-8.152344-4.988281-12.894531-5.824219-7.535156-1.324219-15.128906.359375-21.390625 4.746094-1.617188 1.128906-3.089844 2.40625-4.414062 3.804687-.398438-5.039062-1.164063-10.191406-2.3125-15.449219-3.167969-14.523437-7.761719-27.800781-13.71875-39.765624 3.71875 1.808593 7.75 2.714843 11.773437 2.714843 7.507813 0 14.980469-3.117187 20.296875-9.203125 9.761719-11.179687 8.605469-28.21875-2.574219-37.980468l-15.644531-13.660157c-8.238281-7.191406-18.015625-12.449219-28.5625-15.425781v-8.148438c0-4.601562 2.855469-8.773437 7.101562-10.386718 20.828126-7.894532 34.839844-24.976563 36.570313-44.574219.363281-4.125-2.6875-7.765625-6.8125-8.128906-4.125-.367188-7.765625 2.683593-8.128906 6.808593-1.222657 13.816407-11.546875 26.03125-26.945313 31.871094-10.039062 3.804688-16.785156 13.617188-16.785156 24.410156v14.128907.035156 6.445313h-40.714844v-36.34375c0-4.144532-3.359375-7.5-7.5-7.5-4.144531 0-7.5 3.355468-7.5 7.5v36.34375h-74.648437v-36.34375c0-4.144532-3.359375-7.5-7.5-7.5-4.144531 0-7.5 3.355468-7.5 7.5v36.34375h-40.71875v-6.445313c0-.015625 0-.027344 0-.039063v-14.128906c0-10.792968-6.746094-20.601562-16.785157-24.410156-16.441406-6.234375-27.066406-19.839844-27.066406-34.65625 0-21.039062 20.839844-38.15625 46.453125-38.15625 11.871094 0 23.179688 3.703125 31.839844 10.425781 7.878906 6.113281 18.882813 6.113281 26.761719 0 8.660156-6.722656 19.964844-10.425781 31.839844-10.425781 11.871093 0 23.179687 3.703125 31.835937 10.425781 7.878906 6.113281 18.886719 6.113281 26.765625 0 8.660156-6.722656 19.964844-10.425781 31.839844-10.425781 14.449218 0 27.839844 5.410156 36.734375 14.847656 2.84375 3.011719 7.589843 3.152344 10.605469.308594 3.011718-2.839844 3.152343-7.585938.3125-10.601562-11.722657-12.425782-29.089844-19.554688-47.652344-19.554688-15.1875 0-29.761719 4.820312-41.039063 13.574219-2.425781 1.882812-5.941406 1.882812-8.367187 0-11.277344-8.753907-25.851563-13.574219-41.035156-13.574219-15.1875 0-29.761719 4.820312-41.039063 13.574219-2.460937 1.914062-5.902344 1.914062-8.367187 0-11.273438-8.753907-25.847657-13.574219-41.035157-13.574219-33.886719 0-61.453125 23.847656-61.453125 53.15625 0 21.109375 14.425782 40.21875 36.75 48.683594 4.246094 1.609375 7.101563 5.785156 7.101563 10.382812v8.152344c-10.546875 2.972656-20.324219 8.234375-28.558594 15.425781l-15.644531 13.65625c-8.742188 7.632813-11.355469 19.710938-7.414063 29.960938-7.453125-4.621094-15.449219-6.886719-23.453125-5.476563-27.808594 4.90625-40.371094 51.378906-35.265625 80.316406 3.222657 18.289063 13.871094 32.75 29.210938 39.675782.375.167968.660156.628906.707031 1.144531l6.59375 69.390625c.652344 6.851562 4.167969 13.167969 9.640625 17.335938 4.328125 3.296874 9.628906 5.050781 15.007813 5.050781 1.421874 0 2.851562-.121094 4.269531-.371094l9.992187-1.761719c10.082032 4.003906 20.828125 6.039063 32.132813 6.039063 4.742187 0 9.585937-.378907 14.515625-1.085938 2.050781 5.035157 4.5625 9.867188 7.492187 14.453125-9.757812 7.023438-16.65625 5.871094-25.46875 3.316406-12.25-3.539062-25.09375 3.539063-28.636719 15.777344-1.71875 5.933594-1.023437 12.179688 1.957032 17.589844 2.976562 5.410156 7.886718 9.332031 13.816406 11.050781 8.683594 2.515625 16.644531 3.734375 24.347656 3.734375 10.773438 0 20.902344-2.46875 30.644532-7.488281-.320313 6.019531-.425782 12.140625-.296876 18.507813.082032 4.089843 3.421876 7.347656 7.496094 7.347656h.152344c4.140625-.082032 7.429688-3.507813 7.347656-7.648438-.21875-10.902344.226563-20.75 1.398438-30.742187 7.15625 4.269531 14.925781 7.746093 23.164062 10.292969-.867187 11.410156-.726562 23.46875.417969 38.171874.246094 3.203126-.765625 6.3125-2.851563 8.75-2.089843 2.441407-5.003906 3.925782-8.210937 4.171876-3.773437.296874-7.417969-1.195313-9.914063-3.996094-2.757812-3.09375-7.496093-3.367188-10.589843-.609375-3.09375 2.753906-3.367188 7.496093-.609375 10.589843 5.128906 5.753907 12.480468 9.054688 20.164062 9.054688.707032 0 1.421875-.027344 2.117188-.082031 7.199218-.5625 13.746094-3.890625 18.4375-9.375 4.695312-5.484375 6.972656-12.46875 6.410156-19.667969-1.019531-13.089844-1.214844-23.582031-.582031-33.539062 5.875.957031 11.929687 1.457031 18.105469 1.457031 6.175781 0 12.222656-.5 18.101562-1.457031.632812 9.957031.4375 20.449218-.582031 33.539062-.558594 7.199219 1.71875 14.183594 6.410156 19.667969s11.242187 8.8125 18.433594 9.371093c.699219.058594 1.414062.085938 2.125.085938 14.007812 0 25.835937-10.953125 26.921875-24.929688 1.832031-23.527343 1.375-42.164062-1.542969-61.347656 12.046875-10.210937 21.402344-23.015625 26.988281-37.433594 7.855469-.234374 15.585938-1.214843 23.097656-2.902343 3.800782 4.722656 9.101563 8.269531 15.339844 9.816406 5.375 1.332031 10.894532 1.105469 16.066406-.644531 4.261719 3.417968 9.367188 5.515625 14.878907 6.101562 1.011719.109375 2.015625.160156 3.015625.160156 13.011718 0 24.660156-8.960937 27.785156-21.84375 3.230469-13.300781-3.328125-26.933593-15.628906-32.703124l7.617187-43.1875c12.714844-1.390626 23.503907-11.625 25.785157-24.5625 2.742187-15.546876-7.675782-30.425782-23.222657-33.167969zm-44.339843 50.363281-3.683594 20.894531c-5.175782.613281-10.113282 2.714844-14.179688 6.132813-5.554687 4.671875-13.390625 8.191406-22.03125 10.0625.164063-3.082032-.152344-6.214844-.992187-9.28125 5.761719-4.394532 10.835937-9.289063 15.175781-14.675782 6.035156-7.492187 10.53125-15.820312 13.464844-24.835937 2.835937 4.976563 7.035156 9.132813 12.246094 11.703125zm-39.210938-136.070312v-23.535157c6.855469 2.480469 13.210938 6.195313 18.695312 10.984375l15.644532 13.660156c4.953125 4.320313 5.464844 11.867188 1.140625 16.816407-4.320313 4.949219-11.867188 5.460937-16.816407 1.140625l-15.644531-13.660156c-1.019531-.890626-2.105469-1.699219-3.222656-2.464844.128906-.960938.203125-1.945313.203125-2.941406zm-201.082031-11.8125h186.082031v11.8125c0 1.597656-.570312 3.070312-1.519531 4.214843-.058594.0625-.117188.121094-.171875.1875-1.210938 1.355469-2.96875 2.214844-4.925782 2.214844h-172.847656c-1.957031 0-3.714844-.863281-4.925781-2.21875-.054687-.0625-.109375-.121094-.167969-.183594-.949218-1.144531-1.523437-2.617187-1.523437-4.214843zm-49.339844 12.921874 15.644531-13.660156c5.488282-4.789062 11.839844-8.503906 18.695313-10.984375v23.535157c0 .996093.074219 1.980468.207031 2.945312-1.117188.765625-2.203125 1.574219-3.222656 2.464844l-15.644532 13.65625c-4.953124 4.324218-12.496093 3.8125-16.816406-1.140625-4.324218-4.949219-3.8125-12.496094 1.136719-16.816407zm19.628906 33.167969c-3.050781 6.125-5.746093 12.589844-8.070312 19.394531-3.148438-6.246093-6.992188-12.328124-11.339844-17.785156 2.488281.730469 5.058594 1.109375 7.636719 1.109375 4.023437 0 8.054687-.90625 11.773437-2.71875zm-12.117187 170.960938c-1.484375 2.3125-3.792969 3.847656-6.496094 4.324219l-2.191406.386718c-.003906 0-.007813 0-.007813 0l-11.988281 2.113282c-2.703125.476562-5.398438-.175782-7.585938-1.839844-2.1875-1.664063-3.53125-4.089844-3.792968-6.820313l-6.59375-69.394531c-.5625-5.878906-4.1875-11.011719-9.46875-13.394531-10.75-4.855469-18.261719-15.28125-20.613282-28.609375-4.210937-23.875 6.648438-60.035156 23.101563-62.9375 16.21875-2.871094 38.378906 26.519531 43.019531 50.171875-1.363281 7.875-1.859375 15.496093-1.511718 22.816406-1.769532 4.710937-4.402344 8.808594-7.859376 12.1875-4.148437 4.042969-5.800781 10.109375-4.316406 15.828125l17.535156 67.460938c.691407 2.660156.253907 5.394531-1.230468 7.707031zm-1.785156-78.941407c-.132813-.503906-.023438-1.035156.269531-1.320312.40625-.394531.792969-.816406 1.1875-1.230469 2.925781 9.253907 7.488281 17.796875 13.660156 25.457031 4.339844 5.390626 9.414063 10.28125 15.175781 14.675782-1.183594 4.324218-1.332031 8.777344-.550781 13.039062-6.445313.546875-12.21875-.308594-17.25-2.554687zm13.195312 88.753907c.425781-.550781.832031-1.117188 1.210938-1.707031 3.71875-5.789063 4.859374-12.929688 3.128906-19.585938l-.640625-2.460938c2.917969.527344 5.9375.800782 9.0625.800782 2.667969 0 5.414062-.199219 8.230469-.585938-.144532 2.019532-.21875 4.039063-.21875 6.050782 0 6.132812.660156 12.128906 1.902343 17.933593-7.886719.925781-15.460937.78125-22.675781-.445312zm34.640625-33.878907c-.597656-.683593-1.121094-1.414062-1.574219-2.1875-.011718-.019531-.023437-.039062-.035156-.058593-1.074219-1.855469-1.730469-3.925781-1.914062-6.0625 18.871093 10.140625 42.925781 16.335937 71.480468 18.324219-4.441406 3.445312-8.007812 7.964843-10.3125 13.164062-19.109375-3.5625-37.273437-10.335938-54.070312-20.191406-1.363282-.800782-2.542969-1.808594-3.539063-2.949219-.011719-.011719-.023437-.027344-.035156-.039063zm18.4375 88.582032c-10.441406 7.625-20.8125 11.199218-32.417969 11.199218-6.269531 0-12.867187-1.03125-20.175781-3.144531-2.082031-.605469-3.804687-1.984375-4.851563-3.882812-1.046874-1.898438-1.289062-4.09375-.6875-6.175781 1.242188-4.300782 5.753907-6.789063 10.058594-5.542969 11.21875 3.25 23.402344 5.328125 38.691406-5.78125 3.050782 3.425781 6.363282 6.652343 9.90625 9.65625-.1875 1.222656-.359374 2.449219-.523437 3.671875zm126.835937 56.503906c-.484374 6.222656-5.738281 11.09375-11.96875 11.09375-.3125 0-.628906-.011719-.953124-.039062-3.203126-.246094-6.117188-1.730469-8.203126-4.171876-2.089843-2.4375-3.101562-5.546874-2.851562-8.75 1.144531-14.703124 1.28125-26.765624.414062-38.171874 8.242188-2.546876 16.015626-6.027344 23.171876-10.292969 1.820312 15.480469 1.90625 30.871093.390624 50.332031zm-56.453124-50.113281c-47.433594 0-86.183594-33.925781-87.640626-76.125 16.792969 9.140625 34.757813 15.53125 53.574219 19.054687.511719 18.351563 15.589844 33.128906 34.066407 33.128906 18.472656 0 33.554687-14.777343 34.0625-33.128906 18.816406-3.523437 36.785156-9.914062 53.574218-19.054687-1.453125 42.199219-40.207031 76.125-87.636718 76.125zm-19.089844-58.027344c0-10.527344 8.5625-19.089844 19.089844-19.089844 10.523437 0 19.085937 8.5625 19.085937 19.089844 0 10.523437-8.5625 19.085937-19.085937 19.085937-10.527344 0-19.089844-8.5625-19.089844-19.085937zm107.917968-36.957031c-.019531.023437-.042968.050781-.0625.074218-.996093 1.128907-2.167968 2.128907-3.523437 2.921876-16.792969 9.859374-34.957031 16.632812-54.066406 20.195312-2.304688-5.199219-5.875-9.71875-10.3125-13.167969 28.550781-1.988281 52.609375-8.179687 71.476562-18.320312-.261719 3.046875-1.484375 5.960937-3.511719 8.296875zm4.871094-26.609375c-.402344.222656-.777344.476562-1.125.757812-21.402344 14.179688-52.851562 21.582031-92.574218 21.582031-39.722657 0-71.167969-7.402343-92.570313-21.578124-.347656-.285157-.726563-.539063-1.132813-.761719-6.304687-4.320313-11.710937-9.238281-16.15625-14.757813-8.371093-10.390625-13.074218-22.527344-14.089843-36.261718.019531-.453126-.003907-.90625-.0625-1.347657-.441407-7.816406.273437-16.132812 2.195312-24.941406 4.988281-22.878906 13.753907-42.261719 26.070313-57.742187 2.824218 1.355468 5.984375 2.117187 9.320312 2.117187h172.847656c3.335938 0 6.496094-.757813 9.320313-2.117187 12.316406 15.480468 21.082031 34.863281 26.070313 57.742187 5.433593 24.910156 1.410156 45.957031-11.957032 62.550781-4.445312 5.519532-9.851562 10.4375-16.15625 14.757813zm20.0625 50.097656c-.265625 2.390625-.214844 4.757813.105469 7.058594-4.152344.816406-8.378906 1.371093-12.660156 1.6875.964843-5.148438 1.476562-10.4375 1.476562-15.832031 0-2.789063-.148437-5.601563-.421875-8.398438 14.257813-1.558594 27.472656-6.757812 36.78125-14.585938.507813-.425781 1.054688-.792968 1.617188-1.125l-1.023438 5.808594c-13.53125 1.210938-24.355468 11.78125-25.875 25.386719zm86.28125-88.378906c-1.140625 6.464843-6.699218 11.746093-12.925781 12.285156-6.394531.550781-11.648437 5.378906-12.769531 11.738281l-7.804688 44.277344c-1.148437 6.503906 2.214844 12.875 8.179688 15.492188 6.054687 2.65625 9.308594 9.269531 7.742187 15.730468-1.578125 6.484375-7.996093 11.011719-14.640625 10.304688-2.941406-.3125-5.632812-1.519532-7.785156-3.492188-2.234375-2.050781-5.140625-3.128906-8.078125-3.128906-1.539063 0-3.085937.296875-4.550781.902344-2.695313 1.117187-5.640625 1.332031-8.507813.617187-6.476562-1.605469-10.972656-8.054687-10.230469-14.6875.734376-6.605469 6.058594-11.710937 12.652344-12.136719 6.5-.417968 11.839844-5.257812 12.984375-11.761718l7.808594-44.273438c1.121094-6.359375-2.160156-12.691406-7.984375-15.398437-5.667969-2.636719-9.082031-9.5-7.941406-15.964844.632812-3.585937 2.625-6.710937 5.605468-8.796875 2.984376-2.089844 6.597657-2.894531 10.1875-2.257812 2.558594.449218 4.917969 1.613281 6.824219 3.363281 3.402344 3.117187 8.351563 3.992187 12.613281 2.222656 2.386719-.992187 5.003907-1.277344 7.5625-.824219 3.585938.628906 6.710938 2.621094 8.800782 5.601563 2.085937 2.984375 2.886718 6.601562 2.257812 10.1875zm-263.675781-70.320313c-4.144531 0-7.5 3.359375-7.5 7.5v10.109375c0 4.140625 3.355469 7.5 7.5 7.5 4.140625 0 7.5-3.359375 7.5-7.5v-10.109375c0-4.140625-3.359375-7.5-7.5-7.5zm127.265625 0c-4.144531 0-7.5 3.359375-7.5 7.5v10.109375c0 4.140625 3.355469 7.5 7.5 7.5 4.140625 0 7.5-3.359375 7.5-7.5v-10.109375c0-4.140625-3.359375-7.5-7.5-7.5zm-26.683594 63.21875c-3.121094-2.722656-7.859375-2.398437-10.582031.722656-4.980469 5.714844-11.613281 9.605469-18.867187 11.203126v-18.964844c.773437-.253906 1.539062-.542969 2.292968-.878906l14.421875-6.414063c4.515625-2.007813 7.878907-5.882813 9.234375-10.632813 1.351563-4.753906.535156-9.820312-2.242187-13.90625-3.390625-4.984374-8.46875-8.570312-14.296875-10.097656-11.066406-2.894531-22.757813-2.894531-33.824219 0-5.828125 1.527344-10.90625 5.113282-14.296875 10.097656-2.777344 4.085938-3.59375 9.152344-2.238281 13.902344 1.351562 4.753906 4.71875 8.628906 9.230469 10.636719l14.421874 6.414063c.753907.335937 1.519532.625 2.296876.878906v18.964844c-7.257813-1.597657-13.890626-5.488282-18.871094-11.199219-2.722656-3.125-7.457032-3.449219-10.582032-.726563-3.121093 2.71875-3.445312 7.457032-.726562 10.582032 9.507812 10.90625 23.238281 17.160156 37.679688 17.160156 14.4375 0 28.171874-6.253906 37.675781-17.160156 2.722656-3.125 2.398437-7.863282-.726563-10.582032zm-40.648437-21.625-14.421875-6.410156c-.574219-.257812-.808594-.707031-.902344-1.042969-.097656-.332031-.136719-.839843.21875-1.359375 1.351562-1.984375 3.371094-3.414062 5.691406-4.019531 4.289063-1.125 8.699219-1.683594 13.113282-1.683594 4.410156 0 8.820312.558594 13.109374 1.683594 2.320313.609375 4.34375 2.035156 5.691407 4.019531.355469.519532.316406 1.027344.222656 1.359375-.097656.332031-.328125.785157-.90625 1.039063l-14.417969 6.414062c-2.351562 1.046875-5.046875 1.046875-7.398437 0zm0 0"/></svg>