<?xml version="1.0"?>
<svg xmlns="http://www.w3.org/2000/svg" viewBox="0 0 64 64" width="512" height="512"><g id="_30-killer_whale" data-name="30-killer whale"><ellipse cx="17" cy="7" rx="1.259" ry="0.636" transform="translate(0.029 14.071) rotate(-45)" style="fill:#23272b"/><path d="M63,34a2.151,2.151,0,0,1-2,2c-2,0-3-.79-3-3a2.665,2.665,0,0,0-5-1h-.01c.01-.33.01-.66.01-1a25.952,25.952,0,0,0-6.05-16.96L47,14h1C56.29,14,63,22.39,63,34Z" style="fill:#333940"/><path d="M31,28v6c-7.19,0-14-8-14-13a8.958,8.958,0,0,1,.99-4.18C17.94,14.14,16.62,12,15,12H10c-1.51,0-5.26-1.77-5.9-5.02A4.463,4.463,0,0,1,4,6C4,4,5.79,3,8,3h.79a3.993,3.993,0,0,0,2.22-.67l.98-.66A3.993,3.993,0,0,1,14.21,1H19.9a27.687,27.687,0,0,1,5.37.52c5.14,1.02,15.2,4.68,21.68,12.52A25.952,25.952,0,0,1,53,31c0,.34,0,.67-.01,1C52.47,54.96,33.85,55,23,55a1.683,1.683,0,0,0-1.5.98C17.86,62.1,7,63,7,63H1c0-5.65,3.09-11.17,7.08-11.91A1.1,1.1,0,0,0,9,50.01a1.079,1.079,0,0,0-.94-1.07C4.08,48.39,1,44.28,1,35H5a5.992,5.992,0,0,1,3.6,1.2l4.7,3.53a4.825,4.825,0,0,1,1.86,2.85C15.72,45.13,17.66,47,21,47a3,3,0,0,0,2.03-.74C23.21,47.24,24.47,48,26,48c2.21,0,4-3.13,4-7,0,2,1,4,3,4,2.21,0,3-2.24,3-5A15.632,15.632,0,0,0,31,28ZM26.73,12.73c.93-.93-.75-4.11-1.68-5.03a2.369,2.369,0,0,0-3.35,3.35C22.62,11.98,25.8,13.66,26.73,12.73ZM17.45,7.45c.49-.5.69-1.1.44-1.34s-.84-.05-1.34.44-.69,1.1-.44,1.34S16.95,7.94,17.45,7.45Z" style="fill:#333940"/><path d="M36,40c0,2.76-.79,5-3,5-2,0-3-2-3-4,0,3.87-1.79,7-4,7-1.53,0-2.79-.76-2.97-1.74C24.38,45.12,25,42.74,25,40c0-3.87-4-6-9-7C8,31,1,25.16,1,13c0-2.21,1.34-6,3-6l.1-.02C4.74,10.23,8.49,12,10,12h5c1.62,0,2.94,2.14,2.99,4.82A8.958,8.958,0,0,0,17,21c0,5,6.81,13,14,13V28A15.632,15.632,0,0,1,36,40Z" style="fill:#e9edf5"/><path d="M25.05,7.7c.93.92,2.61,4.1,1.68,5.03s-4.11-.75-5.03-1.68A2.369,2.369,0,0,1,25.05,7.7Z" style="fill:#e9edf5"/><path d="M22,14a4.733,4.733,0,0,0-4.01,2.82A8.958,8.958,0,0,0,17,21c0,5,6.81,13,14,13V22.141a4,4,0,0,0-1.781-3.328Z" style="fill:#333940"/><path d="M48,14H47l-.05.04a27.74,27.74,0,0,1,1.683,2.268C55.663,17.878,61,25.651,61,36a2.151,2.151,0,0,0,2-2C63,22.39,56.29,14,48,14Z" style="fill:#414952"/><path d="M12.08,51.09A1.1,1.1,0,0,0,13,50.01a1.079,1.079,0,0,0-.94-1.07C8.08,48.39,5,44.28,5,35H1c0,9.28,3.08,13.39,7.06,13.94A1.079,1.079,0,0,1,9,50.01a1.1,1.1,0,0,1-.92,1.08C4.09,51.83,1,57.35,1,63H5C5,57.35,8.09,51.83,12.08,51.09Z" style="fill:#414952"/><path d="M46.95,14.04C40.47,6.2,30.41,2.54,25.27,1.52A27.687,27.687,0,0,0,19.9,1H14.21a3.993,3.993,0,0,0-2.22.67l-.98.66A3.993,3.993,0,0,1,8.79,3H8C5.79,3,4,4,4,6a4.463,4.463,0,0,0,.1.98c.013.068.036.131.052.2A3.653,3.653,0,0,1,7.192,5.9h.7a3.362,3.362,0,0,0,1.964-.637l.867-.628A3.356,3.356,0,0,1,12.686,4h5.033a22.834,22.834,0,0,1,4.751.5c4.547.97,13.446,4.453,19.178,11.914A25.847,25.847,0,0,1,47,32.548c0,.324,0,.638-.009.952-.324,15.41-8.613,19.965-16.838,21.315,10.358-.731,22.42-4.4,22.837-22.815.01-.33.01-.66.01-1A25.952,25.952,0,0,0,46.95,14.04Z" style="fill:#414952"/><path d="M20,19.6a6.04,6.04,0,0,1,.99-3.344,5.178,5.178,0,0,1,1.847-1.7l-.22-.147a1.905,1.905,0,0,0-1.51-.3A5.121,5.121,0,0,0,17.99,16.82,8.958,8.958,0,0,0,17,21c0,5,6.81,13,14,13v-.237a6.04,6.04,0,0,0-3.438-5.383C23.217,26.223,20,22.348,20,19.6Z" style="fill:#414952"/><path d="M31,28v6c-5.529,0-10.812-4.725-12.963-9.182-.068-.14-.131-.279-.193-.419-.105-.238-.2-.476-.289-.711-.031-.082-.058-.163-.086-.245-.1-.283-.181-.564-.246-.839-.008-.032-.014-.064-.022-.1a7.385,7.385,0,0,1-.152-.906c-.02-.2-.049-.408-.049-.6a8.958,8.958,0,0,1,.99-4.18C17.94,14.14,16.62,12,15,12H10c-1.51,0-5.26-1.77-5.9-5.02L4,7c-.737,0-1.411.75-1.933,1.775v.01C2.591,12.159,6.46,14,8,14h5c1.62,0,2.95,1.32,3,4a13.728,13.728,0,0,0,.807,4.789,9.506,9.506,0,0,1,.392,1.322c1.163,5.319,7.318,12.227,14.279,13.64A2.115,2.115,0,0,0,34,35.68V31.814A17.585,17.585,0,0,0,31,28Z" style="fill:#bec3d2"/><ellipse cx="47.258" cy="22.814" rx="0.825" ry="1.148" transform="translate(-2.284 40.115) rotate(-45.02)" style="fill:#f6fafd"/><ellipse cx="7.258" cy="23.814" rx="0.825" ry="1.148" transform="translate(-14.717 12.115) rotate(-45.02)" style="fill:#f6fafd"/><ellipse cx="45.26" cy="18.8" rx="1.642" ry="2.286" transform="translate(-0.031 37.526) rotate(-45.02)" style="fill:#f6fafd"/><ellipse cx="5.26" cy="19.8" rx="1.642" ry="2.286" transform="translate(-12.464 9.525) rotate(-45.02)" style="fill:#f6fafd"/><path d="M48,13h-.649C41.016,5.6,31.566,1.747,25.469.538A28.885,28.885,0,0,0,19.9,0H14.211a4.979,4.979,0,0,0-2.774.84l-.984.656A2.984,2.984,0,0,1,8.789,2H8C5.01,2,3,3.607,3,6c0,.081,0,.162,0,.242C1.052,7.223,0,10.949,0,13,0,27.818,9.872,32.5,15.8,33.98c3.739.749,8.2,2.4,8.2,6.02,0,2.9-.788,6-3,6-2.627,0-4.353-1.289-4.858-3.63A5.868,5.868,0,0,0,13.9,38.929L9.2,35.4A7.038,7.038,0,0,0,5,34H1a1,1,0,0,0-1,1C0,47.044,4.964,49.522,7.924,49.929A.084.084,0,0,1,8,50.013c0,.049-.051.08-.1.089C3.545,50.916,0,56.7,0,63a1,1,0,0,0,1,1l6.083,0c.465-.038,11.416-1.022,15.276-7.5C22.652,56,22.846,56,23,56c10.626,0,30.217-.017,30.964-23.608a1.563,1.563,0,0,1,1.739-.775A1.891,1.891,0,0,1,57,33c0,2.654,1.346,4,4,4a3.16,3.16,0,0,0,3-3C64,22.028,57.121,13,48,13ZM16.242,32.03C10.924,30.7,2,26.46,2,13A8.622,8.622,0,0,1,3.485,8.366,8.356,8.356,0,0,0,10,13h5c.892,0,1.872,1.534,1.979,3.633A9.941,9.941,0,0,0,16,21c0,5.274,7.011,14,15,14a1,1,0,0,0,1-1V30.6A14.72,14.72,0,0,1,35,40c0,1.825-.347,4-2,4-1.582,0-2-1.962-2-3a1,1,0,0,0-2,0c0,3.536-1.581,6-3,6a2.627,2.627,0,0,1-1.739-.553C25.38,45.086,26,42.879,26,40,26,37.254,24.3,33.64,16.242,32.03ZM23,54a2.661,2.661,0,0,0-2.359,1.47C17.309,61.064,7.02,62,7,62H2.034c.331-4.907,3.052-9.338,6.234-9.932a2.085,2.085,0,0,0-.074-4.122c-3.82-.523-6-4.752-6.181-11.946H5a5.028,5.028,0,0,1,3,1l4.7,3.529a3.873,3.873,0,0,1,1.483,2.264C14.892,46.054,17.438,48,21,48a4.2,4.2,0,0,0,1.662-.328A4.435,4.435,0,0,0,26,49c1.916,0,3.549-1.642,4.391-4.113A3.5,3.5,0,0,0,33,46c1.2,0,4-.585,4-6a16.445,16.445,0,0,0-5-12.407V20H30V32.942c-6.212-.7-12-7.758-12-11.942,0-3.252,1.832-6,4-6V13a5,5,0,0,0-3.386,1.4c-.635-2.027-2-3.4-3.614-3.4H10C8.755,11,5,9.227,5,6,5,4.145,7.3,4,8,4h.789a4.974,4.974,0,0,0,2.773-.84l.985-.656A2.984,2.984,0,0,1,14.211,2H19.9a26.772,26.772,0,0,1,5.182.5C34.391,4.346,52,12.677,52,31,52,54,33.847,54,23,54ZM61,35c-1.552,0-2-.448-2-2a3.773,3.773,0,0,0-2.718-3.3,3.369,3.369,0,0,0-2.317.135,26.758,26.758,0,0,0-5-14.776C56.457,15.692,62,23.61,62,34A1.171,1.171,0,0,1,61,35Z"/><path d="M20.988,6.988a3.378,3.378,0,0,0,0,4.771A8.874,8.874,0,0,0,25.9,14a2.088,2.088,0,0,0,1.533-.563c1.641-1.642-.732-5.5-1.678-6.449A3.38,3.38,0,0,0,20.988,6.988ZM22.4,10.345A1.374,1.374,0,0,1,24.345,8.4,6.93,6.93,0,0,1,26,12,6.921,6.921,0,0,1,22.4,10.345Z"/><path d="M15.846,5.846c-.928.927-1.117,2.087-.448,2.756a1.376,1.376,0,0,0,1,.4,2.589,2.589,0,0,0,1.76-.846c.928-.927,1.117-2.087.448-2.756S16.773,4.917,15.846,5.846Z"/></g></svg>
