<svg height="512" viewBox="0 0 64 64" width="512" xmlns="http://www.w3.org/2000/svg"><g id="_19-tiger" data-name="19-tiger"><path d="m35.78 21.14a2.158 2.158 0 0 1 -.18 2.22l-2 2.8a1.944 1.944 0 0 1 -3.2 0l-2-2.8a2.158 2.158 0 0 1 -.18-2.22 1.958 1.958 0 0 1 1.78-1.14h4a1.958 1.958 0 0 1 1.78 1.14z" fill="#414952"/><path d="m50.49 55-.38 1.14a2.252 2.252 0 0 0 1.89 2.86h1a2.057 2.057 0 0 1 1.39.53 1.828 1.828 0 0 1 .61 1.39 2.083 2.083 0 0 1 -2 2.08h-11a2.184 2.184 0 0 0 2-2l.31-2h2.19a1.5 1.5 0 0 0 0-3h-1.72l1.41-9h2.31a1.5 1.5 0 0 0 0-3h-1.84l1.09-7h1.25a4.567 4.567 0 0 1 3.66 1.72 6.834 6.834 0 0 1 1.34 4.28 8.084 8.084 0 0 1 -.28 2.31l-1.58 4.74-.14-.05h-2.5a1.5 1.5 0 0 0 0 3h1.5l.14.05z" fill="#ffa426"/><path d="m52.14 50.05-1 3-.14-.05h-1.5a1.5 1.5 0 0 1 0-3h2.5z" fill="#333940"/><path d="m47.9 12a9.712 9.712 0 0 0 -2.83-5.07 6.048 6.048 0 0 1 6.92-.94 9 9 0 0 1 -2.45 6.49 3.831 3.831 0 0 1 -1.42.5z" fill="#eef2fa"/><path d="m50.51 2.33a5.509 5.509 0 0 1 1.48 3.66 6.048 6.048 0 0 0 -6.92.94 14.031 14.031 0 0 0 -4.07-2.79c-.3-.13-.6-.25-.9-.37 2.58-2.62 7.95-3.93 10.41-1.44z" fill="#ffa426"/><path d="m45.07 6.93a9.712 9.712 0 0 1 2.83 5.07h-3.4a1.5 1.5 0 0 0 0 3h4.06l.44 2a27.274 27.274 0 0 0 -13 4l-.22.14a1.958 1.958 0 0 0 -1.78-1.14h-4a1.958 1.958 0 0 0 -1.78 1.14l-.22-.14a27.274 27.274 0 0 0 -13-4l.44-2h4.06a1.5 1.5 0 0 0 0-3h-3.4a9.712 9.712 0 0 1 2.83-5.07 14.031 14.031 0 0 1 4.07-2.79v.01l2.13 4.27c.51 1.02 1.87.61 1.87-.57v-4.8c.33-.03.67-.05 1-.05h1l2.04 8.15a.967.967 0 0 0 1.92 0l2.04-8.15h1c.33 0 .67.02 1 .05v4.8c0 1.18 1.36 1.59 1.87.57l2.13-4.27v-.01a14.031 14.031 0 0 1 4.07 2.79z" fill="#ffc247"/><path d="m29.15 52.97-.69-2.97h-4.96a1.5 1.5 0 0 0 0 3h5.5zm4.31 6.03-.46 2v.12h-2v-.12l-.46-2h-6.04a1.5 1.5 0 0 0 0-3h-5.28l-1.41-9h3.69a1.5 1.5 0 0 0 0-3h-4.16l-1.09-7h2.25a1.5 1.5 0 0 0 0-3h-2.5l-.21.03-.72-4.56a21.362 21.362 0 0 0 6.95 2.59l1.69 5.94h-1.21a1.5 1.5 0 0 0 0 3h4.17l.33 2 2-2 3 7 3-7 2 2 .33-2h4.17a1.5 1.5 0 0 0 0-3h-1.21l1.69-5.94a21.362 21.362 0 0 0 6.95-2.59l-.72 4.56-.21-.03h-2.5a1.5 1.5 0 0 0 0 3h2.25l-1.09 7h-4.16a1.5 1.5 0 0 0 0 3h3.69l-1.41 9h-5.28a1.5 1.5 0 0 0 0 3zm2.08-9-.69 2.97.15.03h5.5a1.5 1.5 0 0 0 0-3z" fill="#ffc247"/><path d="m48.5 44a1.5 1.5 0 0 1 0 3h-2.31l.47-3z" fill="#333940"/><path d="m48.12 12.98.44 2.02h-4.06a1.5 1.5 0 0 1 0-3h3.4z" fill="#414952"/><path d="m48.21 34.03-.46 2.97h-2.25a1.5 1.5 0 0 1 0-3h2.5z" fill="#414952"/><path d="m46.5 56a1.5 1.5 0 0 1 0 3h-2.19l.47-3z" fill="#333940"/><path d="m46.66 44-.47 3h-3.69a1.5 1.5 0 0 1 0-3z" fill="#414952"/><path d="m44.78 56-.47 3h-4.81a1.5 1.5 0 0 1 0-3z" fill="#414952"/><path d="m44.31 59-.31 2a2.184 2.184 0 0 1 -2 2h-7a1.867 1.867 0 0 1 -2-1.88v-.12l.46-2z" fill="#dce1eb"/><path d="m37.33 41-.33 2-2-2-3 7-3-7-2 2-.33-2-.67-4-2 2-.29-1-1.69-5.94a48.638 48.638 0 0 0 9.98.94c1.04 0 2.05-.02 3.05-.08a43.589 43.589 0 0 0 6.93-.86l-1.69 5.94-.29 1-2-2z" fill="#dce1eb"/><path d="m41.5 38a1.5 1.5 0 0 1 0 3h-4.17l.67-4 2 2 .29-1z" fill="#414952"/><path d="m40.1 3.77c.3.12.6.24.9.37v.01l-2.13 4.27c-.51 1.02-1.87.61-1.87-.57v-4.8a12.669 12.669 0 0 1 3.1.72z" fill="#414952"/><path d="m40.5 50a1.5 1.5 0 0 1 0 3h-5.5l-.15-.03.69-2.97z" fill="#414952"/><path d="m49 17a27.274 27.274 0 0 0 -13 4l-.22.14a2.158 2.158 0 0 1 -.18 2.22l-2 2.8a1.944 1.944 0 0 1 -3.2 0l-2-2.8a2.158 2.158 0 0 1 -.18-2.22l-.22-.14a27.274 27.274 0 0 0 -13-4 7.223 7.223 0 0 0 -4 6 5.147 5.147 0 0 0 .09.97 7.8 7.8 0 0 0 3.98 5.5 21.362 21.362 0 0 0 6.95 2.59 48.638 48.638 0 0 0 9.98.94c1.04 0 2.05-.02 3.05-.08a43.589 43.589 0 0 0 6.93-.86 21.362 21.362 0 0 0 6.95-2.59 7.8 7.8 0 0 0 3.98-5.5 5.147 5.147 0 0 0 .09-.97 7.223 7.223 0 0 0 -4-6z" fill="#eef2fa"/><path d="m35 3-2.04 8.15a.967.967 0 0 1 -1.92 0l-2.04-8.15z" fill="#414952"/><path d="m31 61v.12a1.867 1.867 0 0 1 -2 1.88h-7a2.184 2.184 0 0 1 -2-2l-.31-2h10.85z" fill="#dce1eb"/><path d="m28.46 50 .69 2.97-.15.03h-5.5a1.5 1.5 0 0 1 0-3z" fill="#414952"/><path d="m23.9 3.77a12.669 12.669 0 0 1 3.1-.72v4.8c0 1.18-1.36 1.59-1.87.57l-2.13-4.27v-.01c.3-.13.6-.25.9-.37z" fill="#414952"/><path d="m26 37 .67 4h-4.17a1.5 1.5 0 0 1 0-3h1.21l.29 1z" fill="#414952"/><path d="m24.5 56a1.5 1.5 0 0 1 0 3h-4.81l-.47-3z" fill="#414952"/><path d="m23.9 3.77c-.3.12-.6.24-.9.37a14.031 14.031 0 0 0 -4.07 2.79 6.048 6.048 0 0 0 -6.92-.94 5.509 5.509 0 0 1 1.48-3.66c2.46-2.49 7.83-1.18 10.41 1.44z" fill="#ffa426"/><path d="m22 63h-11a2.083 2.083 0 0 1 -2-2.08 1.828 1.828 0 0 1 .61-1.39 2.057 2.057 0 0 1 1.39-.53h1a2.252 2.252 0 0 0 1.89-2.86l-1.03-3.09.14-.05h1.5a1.5 1.5 0 0 0 0-3h-2.5l-.14.05-1.58-4.74a8.084 8.084 0 0 1 -.28-2.31 6.834 6.834 0 0 1 1.34-4.28 4.567 4.567 0 0 1 3.66-1.72h1.25l1.09 7h-1.84a1.5 1.5 0 0 0 0 3h2.31l1.41 9h-1.72a1.5 1.5 0 0 0 0 3h2.19l.31 2a2.184 2.184 0 0 0 2 2z" fill="#ffa426"/><path d="m21.5 44a1.5 1.5 0 0 1 0 3h-3.69l-.47-3z" fill="#414952"/><path d="m15.88 12.98.22-.98h3.4a1.5 1.5 0 0 1 0 3h-4.06z" fill="#414952"/><path d="m19.22 56 .47 3h-2.19a1.5 1.5 0 0 1 0-3z" fill="#333940"/><path d="m18.5 34a1.5 1.5 0 0 1 0 3h-2.25l-.46-2.97.21-.03z" fill="#414952"/><path d="m17.34 44 .47 3h-2.31a1.5 1.5 0 0 1 0-3z" fill="#333940"/><path d="m16.1 12-.22.98a3.831 3.831 0 0 1 -1.42-.5 9 9 0 0 1 -2.45-6.49 6.048 6.048 0 0 1 6.92.94 9.712 9.712 0 0 0 -2.83 5.07z" fill="#eef2fa"/><path d="m14.5 50a1.5 1.5 0 0 1 0 3h-1.5l-.14.05-1-3 .14-.05z" fill="#333940"/><path d="m54 55h2a3 3 0 0 0 3-3v-5h1.5a1.5 1.5 0 0 0 0-3h-1.5v-9h1.5a1.5 1.5 0 0 0 0-3h-1.5v-1a2.006 2.006 0 0 1 2-2 2.015 2.015 0 0 1 2 2v7h-1.5a1.5 1.5 0 0 0 0 3h1.5v9h-1.5a1.5 1.5 0 0 0 0 3h1.5a6 6 0 0 1 -6 6h-5a2.252 2.252 0 0 1 -1.89-2.86l.38-1.14z" fill="#fe8205"/><path d="m63 50v3h-1.5a1.5 1.5 0 0 1 0-3z" fill="#333940"/><path d="m63 38v3h-1.5a1.5 1.5 0 0 1 0-3z" fill="#333940"/><path d="m60.5 32a1.5 1.5 0 0 1 0 3h-1.5v-3z" fill="#333940"/><path d="m60.5 44a1.5 1.5 0 0 1 0 3h-1.5v-3z" fill="#333940"/><path d="m57 54.82v1.68a1.5 1.5 0 0 1 -3 0v-1.5h2a2.772 2.772 0 0 0 1-.18z" fill="#333940"/><path d="m33 61 .46-2 1.39-6.03.69-2.97.46-2 1.75-7h-.42l-.33 2-2-2-3 7-3-7-2 2-.33-2h-.579l1.909 7 .46 2 .69 2.97 1.39 6.03.46 2v.12h2z" fill="#ffa426"/><path d="m35.6 23.36-2 2.8a1.944 1.944 0 0 1 -3.2 0l-2-2.8a2.137 2.137 0 0 1 -.374-.985 3.357 3.357 0 0 0 .374 1.945l2 3.6a1.725 1.725 0 0 0 3.2 0l2-3.6a3.357 3.357 0 0 0 .374-1.945 2.137 2.137 0 0 1 -.374.985z" fill="#cdd2e1"/><ellipse cx="34.311" cy="22.102" fill="#f6fafd" rx=".413" ry=".574" transform="matrix(.707 -.707 .707 .707 -5.576 30.748)"/><path d="m49.66 39.72a6.834 6.834 0 0 1 1.34 4.28 8.084 8.084 0 0 1 -.28 2.31l-1.23 3.69h2.51l.14.05 1.58-4.74a8.084 8.084 0 0 0 .28-2.31 6.834 6.834 0 0 0 -1.34-4.28 4.567 4.567 0 0 0 -3.66-1.72h-1.25l-.194 1.247a4.509 4.509 0 0 1 2.104 1.473z" fill="#ffc247"/><path d="m54.39 59.53a2.057 2.057 0 0 0 -1.39-.53h-1a2.252 2.252 0 0 1 -1.89-2.86l.38-1.14.65-1.95-.14-.05h-1.5a1.488 1.488 0 0 1 -.906-.311l-.454 1.361-.65 1.95-.1.3a1.491 1.491 0 0 1 -.107 2.476 1.988 1.988 0 0 0 1.717 1.224h1a2.057 2.057 0 0 1 1.39.53 1.828 1.828 0 0 1 .61 1.39 2.063 2.063 0 0 1 -.313 1.08h1.313a2.083 2.083 0 0 0 2-2.08 1.828 1.828 0 0 0 -.61-1.39z" fill="#ffc247"/><path d="m49.5 50h-.01l-.35 1.049-.546 1.639a1.488 1.488 0 0 0 .906.312h1.5l.14.05 1-3-.14-.05z" fill="#414952"/><path d="m47.284 58.774a1.491 1.491 0 0 0 .107-2.476l-.281.842a2.346 2.346 0 0 0 .174 1.634z" fill="#414952"/><path d="m49.51 4.33a4.715 4.715 0 0 1 .774 1.083 6.288 6.288 0 0 1 1.706.577 5.509 5.509 0 0 0 -1.48-3.66c-2.46-2.49-7.83-1.18-10.41 1.44.3.12.6.24.9.37.066.03.129.068.2.1 2.745-1.481 6.4-1.84 8.31.09z" fill="#ffc247"/><path d="m22.805 4.239c.066-.031.129-.069.2-.1.3-.13.6-.25.9-.37-2.585-2.619-7.955-3.929-10.415-1.439a5.509 5.509 0 0 0 -1.48 3.66 6.288 6.288 0 0 1 1.706-.577 4.715 4.715 0 0 1 .774-1.083c1.91-1.93 5.565-1.571 8.315-.091z" fill="#ffc247"/><g fill="#f5d882"><path d="m27.952 5.047a7.872 7.872 0 0 1 .81-.047h.738l-.5-2h-1c-.33 0-.67.02-1 .05v2.179a8.142 8.142 0 0 1 .952-.182z"/><path d="m35.238 5a7.855 7.855 0 0 1 .81.047 8.142 8.142 0 0 1 .952.182v-2.179c-.33-.03-.67-.05-1-.05h-1l-.5 2z"/><path d="m21.42 8.668a11.365 11.365 0 0 1 2.707-2.259l-1.127-2.259v-.01a14.031 14.031 0 0 0 -4.07 2.79 9.712 9.712 0 0 0 -2.83 5.07h3.382a9.909 9.909 0 0 1 1.938-3.332z"/><path d="m45.406 16.2.216 1.133a19.152 19.152 0 0 1 3.378-.333l-.44-2h-3.381z"/><path d="m39.873 6.409a11.37 11.37 0 0 1 2.708 2.259 9.924 9.924 0 0 1 1.937 3.332h3.382a9.712 9.712 0 0 0 -2.83-5.07 14.031 14.031 0 0 0 -4.07-2.79v.01z"/><path d="m18.594 16.2.227-1.2h-3.381l-.44 2a19.152 19.152 0 0 1 3.378.333z"/></g><path d="m44.871 13.4.179.915.129.685h3.381l-.44-2.02-.22-.98h-3.382a8.392 8.392 0 0 1 .353 1.4z" fill="#555a66"/><path d="m38.557 5.719c.243.112.486.224.729.345.2.1.393.227.587.345l1.127-2.259v-.01c-.3-.13-.6-.25-.9-.37a12.669 12.669 0 0 0 -3.1-.72v2.179a9.732 9.732 0 0 1 1.557.49z" fill="#555a66"/><path d="m18.3 29.705a7.318 7.318 0 0 1 -3.222-5.133 5.464 5.464 0 0 1 -.073-.9 6.835 6.835 0 0 1 3.238-5.6l.14-.734a19.152 19.152 0 0 0 -3.383-.338 7.223 7.223 0 0 0 -4 6 5.147 5.147 0 0 0 .09.97 7.8 7.8 0 0 0 3.98 5.5 21.362 21.362 0 0 0 6.95 2.59 48.638 48.638 0 0 0 9.98.94 34.335 34.335 0 0 1 -8.079-.877 15.959 15.959 0 0 1 -5.621-2.418z" fill="#fafcff"/><path d="m49 17a19.152 19.152 0 0 0 -3.378.333l.14.734a6.835 6.835 0 0 1 3.238 5.6 5.464 5.464 0 0 1 -.073.9 7.318 7.318 0 0 1 -3.222 5.133 15.959 15.959 0 0 1 -5.626 2.418 30.849 30.849 0 0 1 -5.61.8c-.809.063-1.627.082-2.469.082 1.04 0 2.05-.02 3.05-.08a43.589 43.589 0 0 0 6.93-.86 21.362 21.362 0 0 0 6.95-2.59 7.8 7.8 0 0 0 3.98-5.5 5.147 5.147 0 0 0 .09-.97 7.223 7.223 0 0 0 -4-6z" fill="#fafcff"/><path d="m29.571 5h4.858.07l.501-2h-6l.501 2z" fill="#555a66"/><path d="m24.127 6.409c.194-.118.388-.24.587-.345.243-.121.486-.233.729-.345a9.764 9.764 0 0 1 1.557-.49v-2.179a12.669 12.669 0 0 0 -3.1.72c-.3.12-.6.24-.9.37v.01z" fill="#555a66"/><path d="m18.951 14.315.178-.915a8.491 8.491 0 0 1 .353-1.4h-3.382l-.22.98-.44 2.02h3.381z" fill="#555a66"/><path d="m51.845 7.925a8.211 8.211 0 0 0 .145-1.935 6.048 6.048 0 0 0 -6.92.94 11.615 11.615 0 0 1 1.047 1.192 6.185 6.185 0 0 1 5.728-.197z" fill="#cdd2e1"/><path d="m12.01 5.99a8.211 8.211 0 0 0 .145 1.935 6.185 6.185 0 0 1 5.728.2 11.615 11.615 0 0 1 1.047-1.195 6.048 6.048 0 0 0 -6.92-.94z" fill="#cdd2e1"/><path d="m40.356 32.367a46.016 46.016 0 0 1 -5.306.553c-1 .06-2.01.08-3.05.08a48.638 48.638 0 0 1 -9.98-.94l.9 3.161a49.968 49.968 0 0 0 9.08.779c1.04 0 2.05-.02 3.05-.08a44.715 44.715 0 0 0 6.028-.689l.9-3.171q-.788.168-1.622.307z" fill="#cdd2e1"/><path d="m16.543 30.282a14.293 14.293 0 0 1 -1.473-.812l.519 3.286a17.153 17.153 0 0 0 2.669 1.244h.242a1.491 1.491 0 0 1 1.025.409c.8.242 1.619.466 2.5.651.29.062.6.106.9.161l-.9-3.161a24.3 24.3 0 0 1 -5.482-1.778z" fill="#ffa426"/><path d="m41.078 35.231c.3-.057.609-.109.9-.171.876-.185 1.7-.409 2.5-.651a1.491 1.491 0 0 1 1.022-.409h.242a17.153 17.153 0 0 0 2.669-1.244l.519-3.286a14.189 14.189 0 0 1 -1.473.812 24.3 24.3 0 0 1 -5.477 1.778z" fill="#ffa426"/><path d="m18 47h-.19l1.41 9h3.507l-1.636-9z" fill="#f5d882"/><path d="m18.5 37h-2.25l1.09 7h3.205l-1.309-7.2a1.493 1.493 0 0 1 -.736.2z" fill="#f5d882"/><path d="m46.66 44 1.09-7h-2.25a1.493 1.493 0 0 1 -.736-.2l-1.309 7.2z" fill="#f5d882"/><path d="m44.78 56 1.41-9h-.19-3.091l-1.636 9z" fill="#f5d882"/><path d="m37.5 63h4.5a2.184 2.184 0 0 0 2-2l.31-2h-3.583l-.279 1.536a3 3 0 0 1 -2.948 2.464z" fill="#eef2fa"/><path d="m23.552 60.536-.279-1.536h-3.583l.31 2a2.184 2.184 0 0 0 2 2h4.5a3 3 0 0 1 -2.948-2.464z" fill="#eef2fa"/><path d="m48 34h-2.5a1.457 1.457 0 0 0 -.23.023l-.5 2.779a1.5 1.5 0 0 0 .734.2h2.25l.46-2.97z" fill="#555a66"/><path d="m46 47h.19l.47-3h-3.199l-.544 3z" fill="#555a66"/><path d="m44 59h.31l.47-3h-3.495l-.545 3z" fill="#555a66"/><path d="m19.22 56 .47 3h.31 3.26l-.544-3z" fill="#555a66"/><path d="m17.34 44 .47 3h.19 3.083l-.544-3z" fill="#555a66"/><path d="m18.5 34h-2.5l-.21.03.46 2.97h2.25a1.5 1.5 0 0 0 .734-.2l-.5-2.779a1.457 1.457 0 0 0 -.234-.021z" fill="#555a66"/><path d="m14.374 39.72a6.834 6.834 0 0 0 -1.34 4.28 8.084 8.084 0 0 0 .28 2.31l1.23 3.69h-2.51l-.14.05-1.58-4.74a8.084 8.084 0 0 1 -.28-2.31 6.834 6.834 0 0 1 1.34-4.28 4.567 4.567 0 0 1 3.66-1.72h1.25l.194 1.247a4.509 4.509 0 0 0 -2.104 1.473z" fill="#ffc247"/><path d="m9.644 59.53a2.057 2.057 0 0 1 1.39-.53h1a2.252 2.252 0 0 0 1.89-2.86l-.38-1.14-.65-1.95.14-.05h1.5a1.488 1.488 0 0 0 .906-.311l.454 1.361.65 1.95.1.3a1.491 1.491 0 0 0 .107 2.476 1.988 1.988 0 0 1 -1.717 1.224h-1a2.057 2.057 0 0 0 -1.39.53 1.828 1.828 0 0 0 -.61 1.39 2.063 2.063 0 0 0 .313 1.08h-1.313a2.083 2.083 0 0 1 -2-2.08 1.828 1.828 0 0 1 .61-1.39z" fill="#ffc247"/><path d="m14.534 50h.01l.35 1.049.546 1.639a1.488 1.488 0 0 1 -.906.311h-1.5l-.14.05-1-3 .14-.05z" fill="#414952"/><path d="m16.75 58.774a1.491 1.491 0 0 1 -.107-2.476l.281.842a2.346 2.346 0 0 1 -.174 1.634z" fill="#414952"/><path d="m57 56.5a1.507 1.507 0 0 1 -.091.5h.091a4 4 0 0 0 4-4v-.091a1.492 1.492 0 0 1 0-2.817v-3.183a1.507 1.507 0 0 1 -.5.091h-1.5v5a2.986 2.986 0 0 1 -2.088 2.845c.028-.01.06-.014.088-.025z" fill="#ffa426"/><path d="m52.779 57h1.312a1.507 1.507 0 0 1 -.091-.5v-1.5h-1.192a7.271 7.271 0 0 0 -.029 2z" fill="#ffa426"/><path d="m61 32.091v-3.091a2.006 2.006 0 0 0 -2 2v1h1.5a1.507 1.507 0 0 1 .5.091z" fill="#ffa426"/><path d="m61 44.092v-3.183a1.492 1.492 0 0 1 0-2.817v-3.183a1.507 1.507 0 0 1 -.5.091h-1.5v9h1.5a1.483 1.483 0 0 1 .5.092z" fill="#ffa426"/><path d="m52.779 57a7.271 7.271 0 0 1 .029-2h-2.318l-.38 1.14a2.235 2.235 0 0 0 -.051.86 2.153 2.153 0 0 0 1.941 2h1.508a4.531 4.531 0 0 1 -.729-2z" fill="#fa5d0f"/><path d="m60 51.5a1.493 1.493 0 0 0 1 1.409v-2.817a1.493 1.493 0 0 0 -1 1.408z" fill="#555a66"/><path d="m60 39.5a1.494 1.494 0 0 0 1 1.409v-2.817a1.492 1.492 0 0 0 -1 1.408z" fill="#555a66"/><path d="m61 34.909v-2.818a1.507 1.507 0 0 0 -.5-.091h-1.5v3h1.5a1.507 1.507 0 0 0 .5-.091z" fill="#555a66"/><path d="m61 46.909v-2.817a1.483 1.483 0 0 0 -.5-.092h-1.5v3h1.5a1.507 1.507 0 0 0 .5-.091z" fill="#555a66"/><path d="m54.091 57h2.818a1.507 1.507 0 0 0 .091-.5v-1.68c-.028.011-.06.015-.088.025a3.141 3.141 0 0 1 -.36.1 2.9 2.9 0 0 1 -.538.054h-2.014v1.5a1.507 1.507 0 0 0 .091.501z" fill="#555a66"/><ellipse cx="47.258" cy="2.814" fill="#f6fafd" rx=".825" ry="1.148" transform="matrix(.707 -.707 .707 .707 11.863 34.253)"/><ellipse cx="50.258" cy="40.814" fill="#f6fafd" rx=".825" ry="1.148" transform="matrix(.707 -.707 .707 .707 -14.137 47.514)"/><ellipse cx="49.004" cy="3.314" fill="#f6fafd" rx=".413" ry=".574" transform="matrix(.707 -.707 .707 .707 12.02 35.634)"/><ellipse cx="42.26" cy="8.8" fill="#f6fafd" rx="1.642" ry="2.286" transform="matrix(.707 -.707 .707 .707 6.163 32.473)"/><path d="m35.744 21.084a2.135 2.135 0 0 1 -.144.276l-2 2.8a1.944 1.944 0 0 1 -3.2 0l-2-2.8a2.135 2.135 0 0 1 -.144-.276c-.01.02-.026.036-.036.056a2.158 2.158 0 0 0 .18 2.22l2 2.8a1.944 1.944 0 0 0 3.2 0l2-2.8a2.158 2.158 0 0 0 .18-2.22c-.01-.02-.026-.04-.036-.056z" fill="#23272b"/><path d="m38.378 18h.022a2.616 2.616 0 0 0 1.748-.834l.015-.014a2.6 2.6 0 0 0 .837-1.776 1.357 1.357 0 0 0 -.387-.959 1.381 1.381 0 0 0 -.991-.417h-.022a2.642 2.642 0 0 0 -1.763.848 2.6 2.6 0 0 0 -.837 1.776 1.357 1.357 0 0 0 .387.959 1.381 1.381 0 0 0 .991.417z"/><path d="m24.4 14h-.024a1.358 1.358 0 0 0 -.96.385 1.381 1.381 0 0 0 -.416.988 2.6 2.6 0 0 0 .833 1.774l.015.014a2.616 2.616 0 0 0 1.752.839h.024a1.358 1.358 0 0 0 .96-.385 1.381 1.381 0 0 0 .416-.991 2.924 2.924 0 0 0 -2.6-2.624z"/><path d="m48 22v-2a17.588 17.588 0 0 0 -9.6 3.2l1.2 1.6a15.707 15.707 0 0 1 8.4-2.8z"/><path d="m39.371 27.929a30.169 30.169 0 0 1 9.629-1.929v-2a31.745 31.745 0 0 0 -10.372 2.071z"/><path d="m25.6 23.2a17.588 17.588 0 0 0 -9.6-3.2v2a15.8 15.8 0 0 1 8.4 2.8z"/><path d="m25.372 26.071a31.745 31.745 0 0 0 -10.372-2.071v2a30.169 30.169 0 0 1 9.629 1.929z"/><path d="m63.126 28.893a2.935 2.935 0 0 0 -2.126-.893 3 3 0 0 0 -3 3v21a2 2 0 0 1 -2 2h-4.123l2.795-8.383a9.114 9.114 0 0 0 .328-2.617 7.868 7.868 0 0 0 -1.561-4.907 5.579 5.579 0 0 0 -4.439-2.093h-.081l.929-5.947a8.52 8.52 0 0 0 4.044-5.893 6.17 6.17 0 0 0 .108-1.16 8.228 8.228 0 0 0 -4.125-6.68l-.575-2.612a2.207 2.207 0 0 0 .954-.527 10.05 10.05 0 0 0 2.735-7.191v-.012c0-.012 0-.025 0-.038a6.461 6.461 0 0 0 -1.768-4.313 5.985 5.985 0 0 0 -4.386-1.627h-.006a11.2 11.2 0 0 0 -6.966 2.638 13.482 13.482 0 0 0 -2.772-.585c-.36-.032-.731-.053-1.091-.053h-8c-.36 0-.731.021-1.1.055a13.4 13.4 0 0 0 -2.766.586 11.2 11.2 0 0 0 -6.963-2.641h-.006a5.989 5.989 0 0 0 -4.386 1.626 6.46 6.46 0 0 0 -1.768 4.311v.04.013a10.058 10.058 0 0 0 2.741 7.2 2.22 2.22 0 0 0 .949.514l-.577 2.618a8.228 8.228 0 0 0 -4.124 6.678 5.882 5.882 0 0 0 .1 1.108 8.548 8.548 0 0 0 4.052 5.946l.93 5.946h-.082a5.581 5.581 0 0 0 -4.442 2.1 7.864 7.864 0 0 0 -1.558 4.9 9.115 9.115 0 0 0 .331 2.626l3.6 10.779a1.415 1.415 0 0 1 -.258 1.2.889.889 0 0 1 -.673.395h-1a3.036 3.036 0 0 0 -2.056.784 2.822 2.822 0 0 0 -.944 2.136 3.081 3.081 0 0 0 3 3.08h18a2.877 2.877 0 0 0 3-2.88 2.877 2.877 0 0 0 3 2.88h18a3.081 3.081 0 0 0 3-3.08 2.929 2.929 0 0 0 -.161-.92h1.161a7.008 7.008 0 0 0 7-7v-22a2.924 2.924 0 0 0 -.874-2.107zm-1.626 23.107a.5.5 0 0 1 0-1h.5v1zm0-3a2.471 2.471 0 0 0 -1.5.513v-1.513h.5a2.471 2.471 0 0 0 1.5-.513v1.513zm-1.5-3v-1h.5a.5.5 0 0 1 0 1zm2-2.487a2.471 2.471 0 0 0 -1.5-.513h-.5v-1.513a2.471 2.471 0 0 0 1.5.513h.5zm-.5-3.513a.5.5 0 0 1 0-1h.5v1zm0-3a2.471 2.471 0 0 0 -1.5.513v-1.513h.5a2.471 2.471 0 0 0 1.5-.513v1.513zm-1.5-3v-1h.5a.5.5 0 0 1 0 1zm1-4a.978.978 0 0 1 .712.306.957.957 0 0 1 .288.694v.513a2.471 2.471 0 0 0 -1.5-.513h-.5a1 1 0 0 1 1-1zm-5 26.5a.5.5 0 0 1 -1 0v-.5h1zm-3-.5v.5a2.471 2.471 0 0 0 .513 1.5h-1.513a.889.889 0 0 1 -.668-.4 1.4 1.4 0 0 1 -.273-1.148l.152-.452zm-2.563-4h-.937a.5.5 0 0 1 0-1h1.27zm-5.1-6h-2.837a.5.5 0 0 1 0-1h2.988zm2.182-1h.981a.5.5 0 0 1 0 1h-1.142zm-.62-9h-1.399a.5.5 0 0 1 0-1h1.55zm.2-23 .22 1h-2.819a.5.5 0 0 1 0-1zm1.8-1.283c-.007 0-.026.011-.036.017a10.309 10.309 0 0 0 -2.333-4.689 5.191 5.191 0 0 1 4.459-.4 7.98 7.98 0 0 1 -2.089 5.072zm-2.068-9.717a4.144 4.144 0 0 1 2.969 1.033 3.894 3.894 0 0 1 .89 1.447 7.241 7.241 0 0 0 -5.6 1.12 15.264 15.264 0 0 0 -3.1-2.076 9.267 9.267 0 0 1 4.841-1.524zm-8.831 2.227a12.173 12.173 0 0 1 1.64.447l-1.6 3.332c-.01-.006-.04-.051-.04-.156zm-4.281-.227-1.719 6.867-1.719-6.867zm-5.5 0 1.852 7.4a1.963 1.963 0 0 0 3.859 0l1.851-7.4h.219v3.85a2.108 2.108 0 0 0 1.571 2.1 1.917 1.917 0 0 0 2.194-1.083l1.684-3.377a12.774 12.774 0 0 1 2.916 2.15 9.266 9.266 0 0 1 2.226 3.36h-2.091a2.5 2.5 0 0 0 0 5h3.256l.013.057a29.056 29.056 0 0 0 -11.727 3.775 2.933 2.933 0 0 0 -2.042-.832h-4a2.933 2.933 0 0 0 -2.042.832 29.056 29.056 0 0 0 -11.727-3.775l.013-.057h3.256a2.5 2.5 0 0 0 0-5h-2.093a9.311 9.311 0 0 1 2.23-3.363 12.8 12.8 0 0 1 2.913-2.147l1.685 3.377a1.918 1.918 0 0 0 2.194 1.082 2.108 2.108 0 0 0 1.571-2.099v-3.85zm4.568 21.579a.972.972 0 0 1 -1.574 0l-2-2.8a1.151 1.151 0 0 1 -.1-1.2v-.006a.973.973 0 0 1 .887-.573h4a.976.976 0 0 1 .883.582 1.153 1.153 0 0 1 -.1 1.2zm-15.887-12.579h2.6a.5.5 0 0 1 0 1h-2.817zm7.474-8.331a12.513 12.513 0 0 1 1.626-.442v3.623a.6.6 0 0 1 0 .066zm-7.209-2.669a9.253 9.253 0 0 1 4.839 1.523 15.185 15.185 0 0 0 -3.094 2.077 7.236 7.236 0 0 0 -5.6-1.119 3.884 3.884 0 0 1 .89-1.448 4.141 4.141 0 0 1 2.965-1.033zm-4.153 4.642a5.184 5.184 0 0 1 4.459.4 10.232 10.232 0 0 0 -2.336 4.691 8 8 0 0 1 -2.123-5.091zm-.94 17.137a4.139 4.139 0 0 1 -.072-.779 6.238 6.238 0 0 1 3.233-4.989 26.149 26.149 0 0 1 11.806 3.6 3.162 3.162 0 0 0 .547 2.333l2 2.8a2.97 2.97 0 0 0 1.414 1.056v.661l-2.555 1.7 1.11 1.664 2.445-1.625 2.445 1.63 1.11-1.664-2.555-1.701v-.665a2.97 2.97 0 0 0 1.414-1.063l2-2.8a3.161 3.161 0 0 0 .548-2.333 26.141 26.141 0 0 1 11.805-3.6 6.238 6.238 0 0 1 3.233 4.996 4.436 4.436 0 0 1 -.08.831 6.819 6.819 0 0 1 -3.519 4.79h-.006a20.323 20.323 0 0 1 -6.624 2.457 42.611 42.611 0 0 1 -6.782.84c-.882.058-1.831.082-2.989.082a47.3 47.3 0 0 1 -9.773-.919 20.3 20.3 0 0 1 -6.628-2.46 6.837 6.837 0 0 1 -3.527-4.842zm29.428 15.221a.5.5 0 0 1 0 1h-2.987l.153-.92.627.627a1 1 0 0 0 1.667-.429l.08-.278zm-1.992-1.906-.8-.8a1 1 0 0 0 -1.693.542l-.683 4.081-.624-.623a1 1 0 0 0 -1.626.313l-2.082 4.854-2.081-4.855a1 1 0 0 0 -1.626-.313l-.624.623-.683-4.081a1 1 0 0 0 -1.693-.542l-.8.8-1.071-3.766a51.769 51.769 0 0 0 8.578.673c1.2 0 2.188-.026 3.1-.081a46.645 46.645 0 0 0 5.477-.576zm-16.548 1.906.08.278a1 1 0 0 0 1.667.429l.627-.627.153.92h-2.987a.5.5 0 0 1 0-1zm-6.011-4h1.551a.5.5 0 0 1 0 1h-1.395zm1.717 11-.156-1h2.99a.5.5 0 0 1 0 1zm-2.022 0h-1.144a.5.5 0 0 1 0-1h.988zm-3.413 5h1.269a.5.5 0 0 1 0 1h-.936zm-3.231 9.92a.833.833 0 0 1 .286-.653 1.067 1.067 0 0 1 .714-.267h1a2.858 2.858 0 0 0 2.259-1.185 3.421 3.421 0 0 0 .58-2.992l-.608-1.823h.269a2.5 2.5 0 0 0 0-5h-1.936l-1.333-4a7.03 7.03 0 0 1 -.231-2 5.872 5.872 0 0 1 1.119-3.653 3.572 3.572 0 0 1 2.881-1.347h.394l.781 5h-.675a2.5 2.5 0 0 0 0 5h1.457l1.094 7h-.551a2.5 2.5 0 0 0 0 5h1.332l.176 1.129a3.51 3.51 0 0 0 .243.871h-8.251a1.083 1.083 0 0 1 -1-1.08zm14.5-2.92h-3.957l-.156-1h4.113a.5.5 0 0 1 0 1zm-5.981 0h-1.019a.5.5 0 0 1 0-1h.863zm11.481 3.12c0 .543-.383.88-1 .88h-7c-.532 0-.938-.586-1.012-1.153l-.132-.847h8.887l.257 1.113zm2.025-.345a1.014 1.014 0 0 0 -.025.225 1.014 1.014 0 0 0 -.025-.225l-3-13-1.95.45.175.775h-3.7a2.5 2.5 0 0 0 0 5h4.858l.923 4h-2.332a2.5 2.5 0 0 0 -2.449-3h-4.426l-1.1-7h2.526a2.5 2.5 0 0 0 0-5h-3.3l-.781-5h1.081a2.5 2.5 0 0 0 0-5h-1.863l-.267-1.709a25.084 25.084 0 0 0 4.847 1.6l1.176 4.119a2.5 2.5 0 0 0 .107 4.99h3.32l.193 1.163a1 1 0 0 0 1.694.544l.956-.955 2.418 5.642a1 1 0 0 0 1.838 0l2.418-5.642.956.955a1 1 0 0 0 1.694-.544l.193-1.163h3.32a2.5 2.5 0 0 0 .107-4.989l1.174-4.119a24.924 24.924 0 0 0 4.849-1.6l-.267 1.708h-1.863a2.5 2.5 0 0 0 0 5h1.082l-.782 5h-3.3a2.5 2.5 0 0 0 0 5h2.519l-1.093 7h-4.426a2.5 2.5 0 0 0 -2.449 3h-2.331l.922-4h4.858a2.5 2.5 0 0 0 0-5h-3.7l.179-.775-1.95-.45zm-4.125-8.775h-4.4a.5.5 0 0 1 0-1h4.166zm11.1 5.5a.5.5 0 0 1 .5-.5h4.113l-.156 1h-3.957a.5.5 0 0 1 -.5-.5zm6.638-.5h.862a.5.5 0 0 1 0 1h-1.018zm-9.3-6h4.162a.5.5 0 0 1 0 1h-4.4zm-1.338 11c-.617 0-1-.337-1-.88l.258-1.12h8.886l-.136.871c-.07.543-.476 1.129-1.008 1.129zm18.724-1.724a.825.825 0 0 1 .276.644 1.083 1.083 0 0 1 -1 1.08h-8.248a3.383 3.383 0 0 0 .236-.847l.181-1.153h1.331a2.5 2.5 0 0 0 0-5h-.549l1.095-7h1.454a2.5 2.5 0 0 0 0-5h-.674l.781-5h.393a3.57 3.57 0 0 1 2.878 1.343 5.875 5.875 0 0 1 1.122 3.657 7 7 0 0 1 -.229 1.993l-1.335 4.007h-1.936a2.5 2.5 0 0 0 0 5h.27l-.624 1.874a3.4 3.4 0 0 0 .595 2.941 2.858 2.858 0 0 0 2.259 1.185h1a1.075 1.075 0 0 1 .724.276zm3.808-2.33a2.479 2.479 0 0 0 .468-1.446v-1.056a4 4 0 0 0 1.766-2.144 2.492 2.492 0 0 0 1.734.7h.4a5 5 0 0 1 -4.368 3.946z"/></g></svg>