<?xml version="1.0"?>
<svg xmlns="http://www.w3.org/2000/svg" viewBox="0 0 64 64" width="512" height="512"><g id="_28-shark" data-name="28-shark"><ellipse cx="14.5" cy="25" rx="1.5" ry="1" style="fill:#414952"/><path d="M4.92,27.06,1.26,29.81A44.741,44.741,0,0,1,1,25H4l.11-.02A7.321,7.321,0,0,0,4.92,27.06Z" style="fill:#dce1eb"/><path d="M9.96,32.03,4,36l1.87-7.5A14.651,14.651,0,0,0,9.96,32.03Z" style="fill:#dce1eb"/><path d="M15.02,33.85,15,34l-4.98,3.98a9.224,9.224,0,0,1-1.01-.06l.98-5.87A14.32,14.32,0,0,0,15.02,33.85Z" style="fill:#dce1eb"/><path d="M17,34c.34,0,.67.01.99.04C17.95,35.7,14.84,38,11,38c-.29,0-.62,0-.98-.02L15,34l.02-.15A12.81,12.81,0,0,0,17,34Z" style="fill:#eef2fa"/><path d="M4,36l5.96-3.97c.01,0,.02.01.03.02l-.98,5.87a9.657,9.657,0,0,1-5.02-1.9Z" style="fill:#eef2fa"/><path d="M5.87,28.5,4,36l-.01.02A10.052,10.052,0,0,1,2,34l-.08.02a36.2,36.2,0,0,1-.66-4.21l3.66-2.75A10.814,10.814,0,0,0,5.87,28.5Z" style="fill:#eef2fa"/><path d="M1.44,22.15A3.226,3.226,0,0,1,4.5,20h.7a2.821,2.821,0,0,1,.65.08A4.035,4.035,0,0,0,4,24a4.825,4.825,0,0,0,.11.98L4,25H1A8.266,8.266,0,0,1,1.44,22.15Z" style="fill:#eef2fa"/><path d="M12.75,53.32C11.86,53.97,8.73,55,5,55c0-3.12-.19-8.31,1.62-8.93A30.749,30.749,0,0,0,12.75,53.32Z" style="fill:#48dae0"/><path d="M63,10c0,3.52-.74,5.6-1.7,5.94C60.22,13.51,58.69,12,57,12H55.92a2.017,2.017,0,0,0-2,1.88,21.256,21.256,0,0,1-.7,4.06C49.17,17.36,46,12.24,46,6c2,2,4.58,3,9,3,2,0,4-2.24,4-5C61.21,4,63,7,63,10Z" style="fill:#00bfb7"/><path d="M10.02,37.98c.36.02.69.02.98.02,3.84,0,6.95-2.3,6.99-3.96C21.39,34.3,24,35.96,24,40c0,8.29,5.26,15,13,15,1.34,0,3.63-2.26,5.22-6.01C49.19,48.81,58.04,39.94,62,34l.04.01C58.83,48.69,47.71,60,31,60a27.446,27.446,0,0,1-18.25-6.68,30.749,30.749,0,0,1-6.13-7.25,37.231,37.231,0,0,1-4.7-12.05L2,34a10.052,10.052,0,0,0,1.99,2.02,9.657,9.657,0,0,0,5.02,1.9A9.224,9.224,0,0,0,10.02,37.98Z" style="fill:#dce1eb"/><path d="M61.3,15.94A22.591,22.591,0,0,1,63,25a42.3,42.3,0,0,1-.96,9.01L62,34c-3.96,5.94-12.81,14.81-19.78,14.99C40.63,52.74,38.34,55,37,55c-7.74,0-13-6.71-13-15,0-4.04-2.61-5.7-6.01-5.96-.32-.03-.65-.04-.99-.04a12.81,12.81,0,0,1-1.98-.15,14.32,14.32,0,0,1-5.03-1.8L10,32l-.04.03A14.651,14.651,0,0,1,5.87,28.5a10.814,10.814,0,0,1-.95-1.44,7.321,7.321,0,0,1-.81-2.08A4.825,4.825,0,0,1,4,24a4.035,4.035,0,0,1,1.85-3.92,4.233,4.233,0,0,1,1.57.79C8.44,21.64,11,21,11,21c4-5,7.05-8,17-8A37.924,37.924,0,0,1,49.03,23c2-.02,3.4-2.22,4.19-5.06a21.256,21.256,0,0,0,.7-4.06,2.017,2.017,0,0,1,2-1.88H57C58.69,12,60.22,13.51,61.3,15.94ZM16,25c0-.55-.67-1-1.5-1s-1.5.45-1.5,1,.67,1,1.5,1S16,25.55,16,25Z" style="fill:#48dae0"/><path d="M10.632,54.21a7.8,7.8,0,0,0,2.118-.89,30.749,30.749,0,0,1-6.13-7.25c-.643.22-1.031,1.024-1.267,2.1A30.49,30.49,0,0,0,10.632,54.21Z" style="fill:#00bfb7"/><path d="M60.91,4.79A2.909,2.909,0,0,0,59,4c0,2.76-2,5-4,5-4.42,0-7-1-9-3a17.574,17.574,0,0,0,.34,3.459C48.488,10.48,51.217,11,55.118,11,57.363,11,60.377,7.5,60.91,4.79Z" style="fill:#00aba5"/><path d="M52.23,24.87A3.362,3.362,0,0,0,55,22a19.292,19.292,0,0,0-.01-9.76,2.046,2.046,0,0,0-1.07,1.64,21.256,21.256,0,0,1-.7,4.06c-.79,2.84-2.19,5.04-4.19,5.06.44.41.87.83,1.3,1.28A2.018,2.018,0,0,0,52.23,24.87Z" style="fill:#00bfb7"/><path d="M56.439,40.7C48.881,44.875,44,40,44,40a23.217,23.217,0,0,1-1.78,8.99C46.79,48.872,52.161,45.015,56.439,40.7Z" style="fill:#00bfb7"/><path d="M38.541,40.66c.413,4.876-.15,12.825-8.249,12.346A12,12,0,0,0,37,55c1.34,0,3.63-2.26,5.22-6.01A23.217,23.217,0,0,0,44,40l-2.573-1.286A2,2,0,0,0,38.541,40.66Z" style="fill:#75e8ed"/><path d="M49.03,23a38.017,38.017,0,0,0-20.977-9.995A.965.965,0,0,0,27.945,13c-9.713.011-12.831,2.893-16.712,7.71a1.031,1.031,0,0,1-.605.37c-.748.143-2.428.379-3.208-.21a5.035,5.035,0,0,0-.989-.6,1.068,1.068,0,0,0-1.089.141A4.269,4.269,0,0,0,4,24a4.825,4.825,0,0,0,.11.98,6.839,6.839,0,0,0,.46,1.344,3.254,3.254,0,0,1,.78-.911,1.058,1.058,0,0,1,1.083-.138,5.069,5.069,0,0,1,.987.6c.78.589,2.46.353,3.208.21a1.031,1.031,0,0,0,.605-.37c3.883-4.819,7-7.7,16.723-7.71.031,0,.058,0,.088,0,.744.053,14.241,1.373,22.956,7l-2-2h0" style="fill:#75e8ed"/><path d="M9,25a2.012,2.012,0,0,0,2.313-.174.992.992,0,0,0,.222-1.26,6.309,6.309,0,0,1-.51-2.6L11,21a6.984,6.984,0,0,1-3.184.076C7.668,22.335,7.666,24.333,9,25Z" style="fill:#48dae0"/><path d="M24,40c0-2.744-1.206-4.387-3.043-5.242h0a6.846,6.846,0,0,0-.671-.268l-.027-.009c-.205-.069-.417-.129-.634-.182-.055-.014-.11-.026-.165-.038q-.269-.061-.548-.106c-.063-.011-.125-.022-.188-.031-.241-.035-.484-.064-.734-.083a1.594,1.594,0,0,1-.066.387c-.01.033-.022.066-.034.1a2.207,2.207,0,0,1-.091.209c-.019.041-.032.082-.054.123-.012.024-.023.047-.037.071a3.312,3.312,0,0,1-.293.43,4.733,4.733,0,0,1-.371.407l-.022.024A8.928,8.928,0,0,1,11,38c-.29,0-.62,0-.98-.02a9.224,9.224,0,0,1-1.01-.06,9.657,9.657,0,0,1-5.02-1.9A10.052,10.052,0,0,1,2,34l-.08.02a39.532,39.532,0,0,0,1.454,5.215A14.936,14.936,0,0,0,12,42a9.626,9.626,0,0,0,5.951-2A1.267,1.267,0,0,1,20,40.969V41c0,8.29,5.26,15,13,15a3.47,3.47,0,0,0,2.073-1.162C28.4,53.821,24,47.579,24,40Z" style="fill:#cdd2e1"/><path d="M62,34c-3.96,5.94-12.81,14.81-19.78,14.99a17.174,17.174,0,0,1-1.987,3.534,30.332,30.332,0,0,0,21.2-16.11c.226-.79.432-1.591.61-2.4Z" style="fill:#cdd2e1"/><ellipse cx="36.258" cy="18.814" rx="0.825" ry="1.148" transform="translate(-2.68 31.162) rotate(-45.02)" style="fill:#f6fafd"/><ellipse cx="59.004" cy="15.314" rx="0.413" ry="0.574" transform="translate(6.464 46.225) rotate(-45.02)" style="fill:#f6fafd"/><ellipse cx="40.26" cy="20.8" rx="1.642" ry="2.286" transform="translate(-2.911 34.575) rotate(-45.02)" style="fill:#f6fafd"/><path d="M64,10c0-3.311-2.054-7-5-7a1,1,0,0,0-1,1c0,2.253-1.612,4-3,4-3.915,0-6.4-.81-8.293-2.707A1,1,0,0,0,45,6c0,6.15,2.919,11.32,6.943,12.651-.467,1.307-1.3,3-2.567,3.3A38.526,38.526,0,0,0,28,12c-10.152,0-13.494,3.054-17.561,8.1a4.334,4.334,0,0,1-2.418-.031,5.163,5.163,0,0,0-1.941-.963A3.826,3.826,0,0,0,5.2,19H4.5a4.216,4.216,0,0,0-4,2.806A9.292,9.292,0,0,0,0,25a45.571,45.571,0,0,0,.265,4.907A37.319,37.319,0,0,0,.94,34.221,38.39,38.39,0,0,0,5.306,45.806C4.081,47.223,3.979,50.353,4,54.184L4,55a1,1,0,0,0,1,1,18.824,18.824,0,0,0,7.652-1.485A28.513,28.513,0,0,0,31,61c15.893,0,28.46-10.511,32.018-26.777A43.464,43.464,0,0,0,64,25a24.5,24.5,0,0,0-1.483-8.727C63.782,14.9,64,11.882,64,10ZM47.143,8.19C49.146,9.444,51.623,10,55,10c2.3,0,4.363-2.1,4.877-4.732C61.04,5.974,62,7.972,62,10a12.82,12.82,0,0,1-.528,4.128C60.249,12.108,58.7,11,57,11H55.92a3.013,3.013,0,0,0-3,2.8,21.455,21.455,0,0,1-.431,2.926C49.806,15.786,47.7,12.387,47.143,8.19Zm-35.9,13.78a1,1,0,0,0,.539-.345C15.562,16.9,18.369,14,27.922,14a37.282,37.282,0,0,1,20.426,9.734c.425.4.842.8,1.261,1.243a3.035,3.035,0,0,0,2.841.872A4.347,4.347,0,0,0,56,22l-2-.01A2.412,2.412,0,0,1,52.005,23.9a1.019,1.019,0,0,1-.951-.306l-.124-.129A7.889,7.889,0,0,0,53.94,19c.02,0,.04,0,.06,0v-.2c.061-.194.125-.384.182-.588a22.3,22.3,0,0,0,.734-4.248,1.024,1.024,0,0,1,1-.965H57c1.207,0,2.441,1.22,3.389,3.352A21.641,21.641,0,0,1,62,25a41.459,41.459,0,0,1-.884,8.52C57.548,38.838,49.93,46.493,43.734,47.788A24.577,24.577,0,0,0,45,40H43a22.253,22.253,0,0,1-1.7,8.6C39.668,52.446,37.592,54,37,54c-6.953,0-12-5.888-12-14,0-4.145-2.462-6.615-6.916-6.955-.941-.09-1.977-.038-2.913-.184A13.4,13.4,0,0,1,10.51,31.2l-.046-.027h0a13.613,13.613,0,0,1-3.8-3.277,9.887,9.887,0,0,1-.871-1.322,6.267,6.267,0,0,1-.7-1.79A3.755,3.755,0,0,1,5,24a3.252,3.252,0,0,1,.99-2.808,3.707,3.707,0,0,1,.827.477C8.153,22.674,10.738,22.1,11.242,21.97ZM10.26,36.509l.49-2.933a15.266,15.266,0,0,0,2.166.81ZM2.826,33.431c-.212-1.027-.378-2.09-.5-3.174L4.65,28.513c.045.065.095.131.142.2L3.434,34.14C3.226,33.913,3.019,33.686,2.826,33.431Zm3.565-2.886a15.74,15.74,0,0,0,1.756,1.491L5.6,33.736ZM3.375,26c.084.251.181.5.292.75L2.109,27.92c-.042-.64-.067-1.279-.082-1.92Zm5.257,8.116-.444,2.66a8.677,8.677,0,0,1-2.36-.792Zm6.838.788c.315.027.633.044.955.055a7.059,7.059,0,0,1-3.2,1.742Zm-12-13.633A6.743,6.743,0,0,0,3,24H2.07a6.5,6.5,0,0,1,.316-1.523A2.158,2.158,0,0,1,3.474,21.271ZM6.507,47.7a31.77,31.77,0,0,0,4.486,5.345,18.25,18.25,0,0,1-5,.927C5.99,52.5,6,49.169,6.507,47.7ZM31,59a26.545,26.545,0,0,1-17-5.97c0-.01,0-.02,0-.03h-.042c-.183-.15-.376-.282-.556-.438a29.725,29.725,0,0,1-5.93-7.017A35.093,35.093,0,0,1,3.7,37.024a10.609,10.609,0,0,0,5.2,1.89,6.313,6.313,0,0,0,1.067.065C10.346,39,10.694,39,11,39c3.673,0,6.78-1.916,7.7-3.856C21.58,35.59,23,37.175,23,40c0,9.121,6.019,16,14,16,1.869,0,4.247-2.471,5.9-6.074,5.82-.531,12.326-6.064,16.727-11.191C55.048,51.354,44.464,59,31,59Z"/><ellipse cx="14.5" cy="25" rx="2.5" ry="2"/><path d="M24,25H22c0,2.206-1.346,4-3,4v2C21.757,31,24,28.309,24,25Z"/><path d="M22,31v2c2.757,0,5-2.691,5-6H25C25,29.206,23.654,31,22,31Z"/></g></svg>
