<?xml version="1.0"?>
<svg xmlns="http://www.w3.org/2000/svg" viewBox="0 0 64 64" width="512" height="512"><g id="_13-elephant" data-name="13-elephant"><path d="M53.972,62.17a8.459,8.459,0,0,1-3.65.83H49.3a1.977,1.977,0,0,1-1.23-.43,1.886,1.886,0,0,1-.6-.76l-2.751-6.19a2,2,0,0,1,.8-2.53l2.871-1.72a1.959,1.959,0,0,1,.66-.25Z" style="fill:#fdddd7"/><path d="M49.7,51.1h.15l8.881-.07a15.981,15.981,0,0,1,.26,3.5,8.765,8.765,0,0,1-5.021,7.64l-4.92-11.05A2.019,2.019,0,0,1,49.7,51.1Z" style="fill:#ffb4a3"/><path d="M14.168,51.11l1.76,11.46A1.977,1.977,0,0,1,14.7,63h-1.02a8.754,8.754,0,0,1-8.671-8.47c-.02-.66,0-1.29.04-1.88L14,51.14Z" style="fill:#ffb4a3"/><path d="M36,49v1.03a3.872,3.872,0,0,1-.45,1.83L33.22,57.3A4.991,4.991,0,0,0,33,58.75,4.328,4.328,0,0,0,34.49,62H29.51a1.947,1.947,0,0,0,.26-.24A4.369,4.369,0,0,0,31,58.75a4.991,4.991,0,0,0-.22-1.45l-2.33-5.44A3.872,3.872,0,0,1,28,50.03V48.59A4.961,4.961,0,0,0,30,49h4a5.19,5.19,0,0,0,1.84-.33Z" style="fill:#faa68e"/><path d="M14,51.14,5.047,52.65A10.754,10.754,0,0,1,10,44l7-5-1,5a11.208,11.208,0,0,0-2,6l.17,1.11Z" style="fill:#faa68e"/><path d="M49.852,51,50,50a11.208,11.208,0,0,0-2-6l-1-5,7,5a10.537,10.537,0,0,1,4.731,7.03l-8.881.07Z" style="fill:#faa68e"/><path d="M20.719,32.24c-.18.16-.45.39-.8.67-2.38,1.89-8.321,5.8-14.172,3.25A6.432,6.432,0,0,1,3,33.78C3.077,23.85,8.318,14,16,14c-.3,1.26-1,2.58-1,3.93C15,23.89,16.218,29.18,20.719,32.24Z" style="fill:#ffb4a3"/><path d="M48,14c7.68,0,12.921,9.85,13,19.78a6.432,6.432,0,0,1-2.75,2.38C52.4,38.71,46.461,34.8,44.081,32.91c-.35-.28-.62-.51-.8-.67C47.782,29.18,49,23.89,49,17.93,49,16.58,48.3,15.26,48,14Z" style="fill:#ffb4a3"/><path d="M16,14C8.318,14,3.077,23.85,3,33.78a12.517,12.517,0,0,1-1.67-3.94,11.218,11.218,0,0,1,1.1-8.13C6.137,15.03,15.848,1,32,1S57.863,15.03,61.573,21.71a11.218,11.218,0,0,1,1.1,8.13A12.517,12.517,0,0,1,61,33.78C60.923,23.85,55.682,14,48,14c.3,1.26,1,2.58,1,3.93,0,5.96-1.22,11.25-5.721,14.31a15.806,15.806,0,0,1-6.271,2.37c-.01-.1-.01-.21-.01-.31V27a2.006,2.006,0,0,0-2-2H30a2.006,2.006,0,0,0-2,2v6.93c0,.28.01.56.03.83H28a16.471,16.471,0,0,1-7.281-2.52C16.218,29.18,15,23.89,15,17.93,15,16.58,15.7,15.26,16,14Z" style="fill:#ffc9bd"/><path d="M37.01,34.61a15.806,15.806,0,0,0,6.271-2.37c.18.16.45.39.8.67L44,33c2,5,3,6,3,6l1,5a11.208,11.208,0,0,1,2,6l-.15,1v.1H49.7a2.019,2.019,0,0,0-.65.02,1.959,1.959,0,0,0-.66.25l-2.871,1.72a2,2,0,0,0-.8,2.53l2.751,6.19a1.886,1.886,0,0,0,.6.76L48,63H37a3.865,3.865,0,0,1-2.51-1A4.328,4.328,0,0,1,33,58.75a4.991,4.991,0,0,1,.22-1.45l2.33-5.44A3.872,3.872,0,0,0,36,50.03V49l-.16-.33v-.01a3.711,3.711,0,0,0,1.381-.89l1.61.94a2.111,2.111,0,0,0,2.9-.77l1.99-3.48a2.109,2.109,0,0,0-1-2.99l-1.38-.59A7.129,7.129,0,0,1,37.01,34.61Z" style="fill:#ffc9bd"/><path d="M28,48.59v1.44a3.872,3.872,0,0,0,.45,1.83l2.33,5.44A4.991,4.991,0,0,1,31,58.75a4.369,4.369,0,0,1-1.23,3.01,1.947,1.947,0,0,1-.26.24A3.865,3.865,0,0,1,27,63H16l-.07-.43-1.76-11.46L14,50a11.208,11.208,0,0,1,2-6l1-5s1-1,3-6l-.08-.09c.35-.28.62-.51.8-.67A16.471,16.471,0,0,0,28,34.76h.03a14.7,14.7,0,0,0,7.3,11.91l1.891,1.1a3.711,3.711,0,0,1-1.381.89v.01A5.19,5.19,0,0,1,34,49H30A4.961,4.961,0,0,1,28,48.59Z" style="fill:#ffc9bd"/><path d="M37.01,34.61a7.129,7.129,0,0,0,4.331,6.27l1.38.59a2.109,2.109,0,0,1,1,2.99l-1.99,3.48a2.111,2.111,0,0,1-2.9.77l-1.61-.94-1.891-1.1a14.7,14.7,0,0,1-7.3-11.91c-.02-.27-.03-.55-.03-.83V27a2.006,2.006,0,0,1,2-2h5a2.006,2.006,0,0,1,2,2v7.3C37,34.4,37,34.51,37.01,34.61Z" style="fill:#ffd9d1"/><path d="M46.521,56.09l2.871-1.72c.065-.039.445-.193.935-.385L49.052,51.12a1.959,1.959,0,0,0-.66.25l-2.871,1.72a2,2,0,0,0-.8,2.53l.848,1.908A1.991,1.991,0,0,1,46.521,56.09Z" style="fill:#fde8e6"/><path d="M36,49l-.16-.33A5.19,5.19,0,0,1,34,49H30a4.961,4.961,0,0,1-2-.41v1.44a3.88,3.88,0,0,0,.395,1.686A4.963,4.963,0,0,0,30,52h4a5.189,5.189,0,0,0,1.6-.263A3.87,3.87,0,0,0,36,50.03Z" style="fill:#f09581"/><path d="M10.226,54.947l4.417-.747-.475-3.09-.17.03-5.883.992h0l-3.068.518c-.04.59-.06,1.22-.04,1.88.007.232.027.461.054.687A8.753,8.753,0,0,0,13.678,63H14.7a1.96,1.96,0,0,0,.66-.114A8.789,8.789,0,0,1,8.719,57.72,2.007,2.007,0,0,1,10.226,54.947Z" style="fill:#ffc9bd"/><path d="M13,44l3.5-2.5L17,39l-7,5a10.754,10.754,0,0,0-4.951,8.65l3.068-.518A10.676,10.676,0,0,1,13,44Z" style="fill:#ffb4a3"/><path d="M58.733,51.03l-3,.024-5.884.046H49.7a2.019,2.019,0,0,0-.65.02L50.333,54l4.119-.029a1.527,1.527,0,0,1,1.541,1.552v.01c-.064,2.369-1.115,3.506-2.731,5.045l.71,1.595a8.765,8.765,0,0,0,5.021-7.64A15.981,15.981,0,0,0,58.733,51.03Z" style="fill:#ffc9bd"/><path d="M55.733,51.03l0,.024,3-.024A10.537,10.537,0,0,0,54,44l-7-5,.5,2.5L51,44A10.537,10.537,0,0,1,55.733,51.03Z" style="fill:#ffb4a3"/><path d="M32,4C48.152,4,57.862,18.03,61.573,24.71a11.464,11.464,0,0,1,1.321,3.975,11.321,11.321,0,0,0-1.321-6.975C57.862,15.03,48.152,1,32,1S6.138,15.03,2.427,21.71a11.321,11.321,0,0,0-1.321,6.975A11.464,11.464,0,0,1,2.427,24.71C6.138,18.03,15.848,4,32,4Z" style="fill:#ffe4e0"/><path d="M48.072,62.57a1.9,1.9,0,0,1-.6-.76l-2.75-6.19a2,2,0,0,1-.135-1.168l-1.065.638a2,2,0,0,0-.8,2.53L45.112,63H48Z" style="fill:#faa68e"/><path d="M48,44l-1-5s-1-1-3-6l.08-.09c-.35-.28-.62-.51-.8-.67a13.2,13.2,0,0,1-2.125,1.141C43.051,38.042,44,39,44,39l1,5a11.208,11.208,0,0,1,2,6v2.2l1.391-.833a1.959,1.959,0,0,1,.66-.25,2.019,2.019,0,0,1,.65-.02h.15V51L50,50A11.208,11.208,0,0,0,48,44Z" style="fill:#ffe4e0"/><path d="M17.168,51.11,17,50a11.208,11.208,0,0,1,2-6l1-5s.947-.956,2.837-5.6a13,13,0,0,1-2.117-1.158c-.18.16-.45.39-.8.67L20,33c-2,5-3,6-3,6l-1,5a11.208,11.208,0,0,0-2,6l.17,1.11,1.76,11.46L16,63h3l-.07-.43Z" style="fill:#ffe4e0"/><path d="M18,18.436a18.749,18.749,0,0,1,.137-2.253A1.982,1.982,0,0,0,16.146,14H15.48A16.836,16.836,0,0,0,15,17.934C15,27.286,18,35,32,35,20.471,35,18,27.513,18,18.436Z" style="fill:#ffe4e0"/><path d="M47.854,14a1.982,1.982,0,0,0-1.991,2.183A18.749,18.749,0,0,1,46,18.436C46,27.513,43.529,35,32,35c14,0,17-7.714,17-17.066A16.836,16.836,0,0,0,48.52,14Z" style="fill:#ffe4e0"/><path d="M52.732,15.361v-.006a10.047,10.047,0,0,0-1.043-.545c-.035-.016-.07-.033-.105-.048a9.151,9.151,0,0,0-1.045-.384l-.152-.043a8.722,8.722,0,0,0-1.08-.235c-.046-.007-.092-.01-.138-.017A8.8,8.8,0,0,0,48,14c.3,1.26,1,2.58,1,3.93,0,.416-.008.827-.02,1.236-.168,5.45-1.514,10.227-5.7,13.074.207.184.533.46.962.8h.006a12.83,12.83,0,0,0,7.876-8.43,1.994,1.994,0,0,1,3.4-.765,18.467,18.467,0,0,1,4.43,11.169A7.439,7.439,0,0,0,61,33.78C60.941,26.059,57.756,18.392,52.732,15.361Z" style="fill:#f09581"/><path d="M15.018,19.166c-.012-.409-.02-.82-.02-1.236,0-1.35.7-2.67,1-3.93a8.8,8.8,0,0,0-1.166.083c-.046.007-.092.01-.138.017a8.722,8.722,0,0,0-1.08.235l-.152.043a9.151,9.151,0,0,0-1.045.384c-.035.015-.07.032-.105.048a10.047,10.047,0,0,0-1.043.545v.006C6.244,18.392,3.059,26.059,3,33.78a7.439,7.439,0,0,0,1.05,1.233,18.467,18.467,0,0,1,4.43-11.169,1.994,1.994,0,0,1,3.4.765,12.83,12.83,0,0,0,7.876,8.43h.006c.429-.339.755-.615.962-.8C16.532,29.393,15.186,24.616,15.018,19.166Z" style="fill:#f09581"/><path d="M38.731,49.94l.589-1.03a2.143,2.143,0,0,1-.489-.2l-1.61-.94a3.711,3.711,0,0,1-1.381.89v.01L36,49v1.03a4.022,4.022,0,0,1-.085.718A2.105,2.105,0,0,0,38.731,49.94Z" style="fill:#ffb4a3"/><path d="M35.84,48.67v-.01a3.711,3.711,0,0,0,1.381-.89l-1.891-1.1a14.7,14.7,0,0,1-7.3-11.91H28a21.587,21.587,0,0,1-3-.6v1.77c0,.28.01.56.03.83a14.7,14.7,0,0,0,7.3,11.91L32.9,49H34A5.19,5.19,0,0,0,35.84,48.67Z" style="fill:#ffb4a3"/><path d="M38.842,44.187,42.68,46.28l1.041-1.82a2.109,2.109,0,0,0-1-2.99l-1.381-.59a7.128,7.128,0,0,1-4.33-6.27c-.01-.1-.01-.21-.01-.31V27a2.006,2.006,0,0,0-2-2H32.058l.551,9.357A12,12,0,0,0,38.842,44.187Z" style="fill:#ffe4e0"/><ellipse cx="39.258" cy="5.814" rx="0.825" ry="1.148" transform="translate(7.395 29.473) rotate(-45.02)" style="fill:#f6fafd"/><ellipse cx="41.004" cy="42.314" rx="0.413" ry="0.574" transform="translate(-17.911 41.408) rotate(-45.02)" style="fill:#f6fafd"/><ellipse cx="44.26" cy="7.8" rx="1.642" ry="2.286" transform="translate(7.457 33.594) rotate(-45.02)" style="fill:#f6fafd"/><path d="M39.4,24a1.921,1.921,0,0,0,.6-.1,3.021,3.021,0,0,0,1.154-.742h0A3.021,3.021,0,0,0,41.9,22,1.436,1.436,0,0,0,40,20.1,3.234,3.234,0,0,0,38.1,22a1.51,1.51,0,0,0,.3,1.6A1.383,1.383,0,0,0,39.4,24Z"/><path d="M22.845,23.154h0A3.021,3.021,0,0,0,24,23.9a1.927,1.927,0,0,0,.605.1,1.377,1.377,0,0,0,1-.4,1.51,1.51,0,0,0,.3-1.6A3.234,3.234,0,0,0,24,20.1,1.436,1.436,0,0,0,22.1,22,3.021,3.021,0,0,0,22.845,23.154Z"/><path d="M62.444,21.228C58.9,14.845,48.848,0,32,0S5.1,14.845,1.555,21.228a12.235,12.235,0,0,0-1.2,8.864c.906,3.546,2.63,5.962,4.988,6.988,4.685,2.039,9.319.347,12.454-1.5a15.016,15.016,0,0,1-1.475,2.67L9.445,43.168c-3.8,2.534-5.58,6.261-5.437,11.392A9.758,9.758,0,0,0,13.679,64H14.7a3.021,3.021,0,0,0,.836-.13A.982.982,0,0,0,16,64H27a4.761,4.761,0,0,0,3-1.121V63h4v-.121A4.761,4.761,0,0,0,37,64H48a.982.982,0,0,0,.452-.123A3,3,0,0,0,49.3,64h1.021a9.758,9.758,0,0,0,9.671-9.44c.143-5.131-1.636-8.858-5.411-11.373l-6.9-4.93A14.867,14.867,0,0,1,46.2,35.582a16.046,16.046,0,0,0,7.97,2.428,11.133,11.133,0,0,0,4.484-.93c2.358-1.026,4.082-3.442,4.988-6.988A12.231,12.231,0,0,0,62.444,21.228ZM3.3,22.2C6.674,16.125,16.216,2,32,2S57.326,16.125,60.7,22.2A10.213,10.213,0,0,1,61.7,29.6c-.007.028-.017.059-.024.087C60.41,21.025,55.42,13,48,13a1,1,0,0,0-.973,1.232c.117.486.281.964.439,1.426A7.342,7.342,0,0,1,48,17.934c0,9.149-3.012,13.836-10,15.447V25H36V35a7.869,7.869,0,0,0,4.951,6.805l1.375.587a1.107,1.107,0,0,1,.527,1.568l-1.991,3.48a1.112,1.112,0,0,1-1.527.408l-.674-.393c0-.01.012-.019.017-.029l-.351-.166-2.489-1.448A13.8,13.8,0,0,1,29,33.926V25H27v8.583c-7.687-1.372-11-6.112-11-15.649a7.342,7.342,0,0,1,.534-2.275c.159-.463.323-.942.439-1.427A1,1,0,0,0,16,13C8.58,13,3.59,21.026,2.321,29.684c-.007-.028-.017-.058-.024-.086A10.219,10.219,0,0,1,3.3,22.2ZM6.145,35.246a5.323,5.323,0,0,1-2.129-1.775c.168-8.41,4.318-17.193,10.586-18.344a8.741,8.741,0,0,0-.6,2.807c0,4.717.678,10.588,5.116,14.33C16.782,34.078,11.363,37.519,6.145,35.246ZM27,62H16.858L15,49.927a10.206,10.206,0,0,1,1.822-5.358l-1.644-1.138A12.251,12.251,0,0,0,13,50a.964.964,0,0,0,.012.152l.022.142-4.2.721.338,1.97,4.169-.715,1.493,9.707A.971.971,0,0,1,14.7,62H13.679a7.745,7.745,0,0,1-7.672-7.495c-.124-4.448,1.322-7.523,4.574-9.692l7-5a.982.982,0,0,0,.126-.106c.19-.19,1.227-1.379,3.168-6.2a17.583,17.583,0,0,0,6.227,2.13,15.81,15.81,0,0,0,7.73,11.907l.443.258A4.137,4.137,0,0,1,34,48v2a6.3,6.3,0,0,0,1-.088v.114a3.128,3.128,0,0,1-.367,1.446l-2.362,5.52A5.784,5.784,0,0,0,32,58.749,5.212,5.212,0,0,0,32.525,61h-1.05A5.212,5.212,0,0,0,32,58.749a5.808,5.808,0,0,0-.3-1.847l-2.36-5.5A3.015,3.015,0,0,1,29,50.026v-.107A6.182,6.182,0,0,0,30,50V48c-1.626,0-3-.916-3-2H25a3.794,3.794,0,0,0,2,3.18v.846a4.9,4.9,0,0,0,.529,2.233L29.823,57.6A3.785,3.785,0,0,1,30,58.749,3.255,3.255,0,0,1,27,62ZM46.419,39.813l7.026,5.019c3.226,2.15,4.672,5.225,4.548,9.673A7.745,7.745,0,0,1,50.321,62H49.3a1,1,0,0,1-.914-.594l-2.754-6.195a1,1,0,0,1,.4-1.264l2.513-1.508,3.541,7.967,1.828-.812-3.338-7.51L55.019,52l-.038-2-3.987.076c0-.025.006-.051.006-.076a12.251,12.251,0,0,0-2.178-6.569l-1.644,1.138A10.206,10.206,0,0,1,49,49.927l-.031.2a2.989,2.989,0,0,0-1.093.384L45,52.232a3,3,0,0,0-1.2,3.791L46.461,62H37a3.255,3.255,0,0,1-3-3.251,3.9,3.9,0,0,1,.143-1.06l2.3-5.364a5.01,5.01,0,0,0,.56-2.3V49.2c.112-.067.222-.136.327-.211l1,.583a3.114,3.114,0,0,0,4.27-1.141l1.991-3.481a3.108,3.108,0,0,0-1.477-4.4l-1.374-.587a6.117,6.117,0,0,1-3.694-4.544,16.745,16.745,0,0,0,5.083-1.915c1.94,4.822,2.976,6.01,3.166,6.2A.982.982,0,0,0,46.419,39.813Zm11.436-4.567c-5.2,2.265-10.632-1.174-12.97-2.985C49.331,28.508,50,22.619,50,17.934a8.729,8.729,0,0,0-.6-2.807c6.268,1.151,10.418,9.934,10.586,18.344A5.323,5.323,0,0,1,57.855,35.246Z"/></g></svg>
