<?xml version="1.0"?>
<svg xmlns="http://www.w3.org/2000/svg" viewBox="0 0 64 64" width="512" height="512"><g id="_17-otter" data-name="17-otter"><path d="M12,15h2a1,1,0,0,1,.8,1.6l-1,1.33a.993.993,0,0,1-1.6,0l-1-1.33A1,1,0,0,1,12,15Z" style="fill:#ebb7a6"/><path d="M7,2l2.88.96A13.2,13.2,0,0,0,5.76,6.73L4.53,5.38A1.926,1.926,0,0,1,4,4.05,1.96,1.96,0,0,1,4.64,2.6,3.018,3.018,0,0,1,7,2Z" style="fill:#877162"/><path d="M4,49c-1,0-3-1.28-3-3V44a2.653,2.653,0,0,1,.92-1.97,6.7,6.7,0,0,1,1.85-1.2C5.7,39.94,11,34.67,11,32v3.6a10.251,10.251,0,0,0,.38,2.75L13,44c0,.68-2.31,1.36-5.04,1.73L8,46C8,48.21,6.21,49,4,49Z" style="fill:#877162"/><path d="M12.2,17.93a.993.993,0,0,0,1.6,0l1-1.33A1,1,0,0,0,14,15H12a1,1,0,0,0-.8,1.6ZM40.25,48H35.49a12.134,12.134,0,0,0-4.84.92A8.1,8.1,0,0,0,27,52c-1.99,3.13-4.66,4.45-7.8,5.72A17.952,17.952,0,0,1,12.52,59H8a3,3,0,0,1,0-6H9c.78,0,1.07-.07,2-1,4-4,4-4,2-8l-1.62-5.65A10.251,10.251,0,0,1,11,35.6V32a3,3,0,0,0-3-3c-3.87,0-7-4-7-8,0-.35.01-.68.02-1a17.9,17.9,0,0,1,.32-3,6.319,6.319,0,0,1,1.44-3.33,4.19,4.19,0,0,0,1.17-2.33A10.657,10.657,0,0,1,5.76,6.73,13.2,13.2,0,0,1,9.88,2.96,14.294,14.294,0,0,1,17,1a16.775,16.775,0,0,1,7,2l3.3-1.74A2.754,2.754,0,0,1,28.45,1a2.6,2.6,0,0,1,1.8.72,2.374,2.374,0,0,1,.13,3.33L29,7a8.716,8.716,0,0,1,1.88,3.71,4.887,4.887,0,0,0,1.07,2.13A12.262,12.262,0,0,1,34,17c.8,3.09,2.93,4,6.12,4H44A19,19,0,0,1,63,40v.18a23.473,23.473,0,0,1-1.48,7.5C59.21,53.21,53.95,63,36,63H25.5a2.5,2.5,0,0,1,0-5h6.26A3,3,0,0,1,34,53h1c.78,0,1.07-.07,2-1C39,50,40,49,40.25,48Z" style="fill:#ddb89e"/><path d="M47.42,48H40.25C40,49,39,50,37,52c-.93.93-1.22,1-2,1H34a3,3,0,0,0-2.24,5H34C41.835,58,46,54.576,47.42,48Z" style="fill:#877162"/><path d="M47.42,48C46,54.576,41.835,58,34,58H25.66a2.661,2.661,0,0,0-2.619,2.1c-.007.04-.008.082-.013.123a2.02,2.02,0,0,0,.008.635c.009.068.016.136.031.2a2.322,2.322,0,0,0,.085.276c.02.058.036.118.061.174a2.517,2.517,0,0,0,.148.276c.026.044.047.091.076.133a2.455,2.455,0,0,0,.293.356A2.5,2.5,0,0,0,25.5,63H36c17.95,0,23.21-9.79,25.52-15.32A23.473,23.473,0,0,0,63,40.18V40a18.908,18.908,0,0,0-2.262-8.989C53.675,31.13,48,35.995,48,42a28.43,28.43,0,0,1-.58,6" style="fill:#ddb89e"/><path d="M8.561,3.854A14,14,0,0,1,9.88,2.96L7,2a3.018,3.018,0,0,0-2.36.6,2.018,2.018,0,0,0-.456.631A4.245,4.245,0,0,1,6,3Z" style="fill:#967d6c"/><path d="M13,44l-1.081-3.77C11.531,41,9.426,42.4,6.96,42.73L7,43c0,2.21-1.79,3-4,3a3.391,3.391,0,0,1-2-.98V46c0,1.72,2,3,3,3,2.21,0,4-.79,4-3l-.04-.27C10.69,45.36,13,44.68,13,44Z" style="fill:#6b5a4e"/><path d="M22,39c8.581-7.508,8-20,8-20,0-7.186-3.578-12-8-12a7.664,7.664,0,0,0-8,8,1,1,0,0,1,.8,1.6l-1,1.33a.993.993,0,0,1-1.6,0l-1-1.33A1,1,0,0,1,12,15c0-4.206-2.717-7.642-6.424-7.968A10.583,10.583,0,0,0,3.95,11.34a4.19,4.19,0,0,1-1.17,2.33A6.319,6.319,0,0,0,1.34,17a17.9,17.9,0,0,0-.32,3c-.01.32-.02.65-.02,1,0,4,3.13,8,7,8a3,3,0,0,1,3,3v3.6a10.251,10.251,0,0,0,.38,2.75L13,44a11.046,11.046,0,0,1,1.3,3.223C14.887,46.116,16.654,43.678,22,39Z" style="fill:#ffebd1"/><path d="M13.88,36.4a9.052,9.052,0,0,1-.38-2.579V30.446a2.722,2.722,0,0,0-.88-1.988,3.092,3.092,0,0,0-2.12-.825c-3.87,0-7-3.752-7-7.5,0-.328.01-.638.02-.938a15.79,15.79,0,0,1,.32-2.814,5.77,5.77,0,0,1,1.44-3.123A3.843,3.843,0,0,0,6.45,11.07,9.325,9.325,0,0,1,7.718,7.613a6.382,6.382,0,0,0-2.142-.581A10.583,10.583,0,0,0,3.95,11.34a4.19,4.19,0,0,1-1.17,2.33A6.319,6.319,0,0,0,1.34,17a17.9,17.9,0,0,0-.32,3c-.01.32-.02.65-.02,1,0,4,3.13,8,7,8a3,3,0,0,1,3,3v3.6a10.251,10.251,0,0,0,.38,2.75L13,44a11.046,11.046,0,0,1,1.3,3.223,16.332,16.332,0,0,1,2.362-3.1A17.163,17.163,0,0,0,15.5,41.7Z" style="fill:#fff6e8"/><path d="M40.25,48a5.02,5.02,0,0,1-1.3,2h1.6a2,2,0,0,1,1.421,3.413c-1.739,1.67-4.939,3.366-10.795,3.567A3.015,3.015,0,0,0,31.76,58H34c7.835,0,12-3.424,13.42-10Z" style="fill:#6b5a4e"/><polygon points="28 6 26 4 30 3 28 6" style="fill:#877162"/><path d="M44,43a29.777,29.777,0,0,1-.4,5H47.42A28.43,28.43,0,0,0,48,42c0-4.375,3.019-8.135,7.386-9.905C48.965,32.766,44,37.383,44,43Z" style="fill:#c2a18b"/><path d="M60.739,31.012A19,19,0,0,0,44,21H40.12c-3.19,0-5.32-.91-6.12-4a12.262,12.262,0,0,0-2.05-4.16,4.887,4.887,0,0,1-1.07-2.13A8.716,8.716,0,0,0,29,7c-2-2-3-3-5-4a16.775,16.775,0,0,0-7-2A14.294,14.294,0,0,0,9.88,2.96,13.2,13.2,0,0,0,5.76,6.73c-.067.1-.12.2-.184.3a6.386,6.386,0,0,1,.956.166A12.846,12.846,0,0,1,9.307,4.9,13.037,13.037,0,0,1,15.968,3a15.3,15.3,0,0,1,6.548,1.935,16.541,16.541,0,0,1,4.678,3.871A8.554,8.554,0,0,1,28.952,12.4a4.8,4.8,0,0,0,1,2.061,12.029,12.029,0,0,1,1.918,4.026c.748,2.99,2.741,3.871,5.725,3.871h3.63a17.667,17.667,0,0,1,15.432,9.291,15.077,15.077,0,0,1,4.08-.635Z" style="fill:#ffd3b7"/><path d="M60.738,31.011c-7.006.118-12.639,4.907-12.73,10.845a12.545,12.545,0,0,1,4.88-5.112c3.663-2.16,6.377-.4,5.985,3.838-.641,6.923-3.419,18.223-14.5,21.573C55.71,59.667,59.618,52.232,61.52,47.68A23.473,23.473,0,0,0,63,40.18V40A18.908,18.908,0,0,0,60.738,31.011Z" style="fill:#ffd3b7"/><ellipse cx="48.258" cy="24.814" rx="0.825" ry="1.148" transform="translate(-3.406 41.409) rotate(-45.02)" style="fill:#f6fafd"/><ellipse cx="23.004" cy="5.314" rx="0.413" ry="0.574" transform="translate(2.984 17.829) rotate(-45.02)" style="fill:#f6fafd"/><ellipse cx="51.26" cy="26.8" rx="1.642" ry="2.286" transform="translate(-3.931 44.115) rotate(-45.02)" style="fill:#f6fafd"/><path d="M22.164,14.15A2.6,2.6,0,0,0,23,12.378a1.358,1.358,0,0,0-.385-.96A1.381,1.381,0,0,0,21.624,11H21.6a2.638,2.638,0,0,0-1.763.848A2.6,2.6,0,0,0,19,13.622a1.358,1.358,0,0,0,.385.96,1.381,1.381,0,0,0,.988.416H20.4a2.624,2.624,0,0,0,1.749-.833Z"/><path d="M8.624,15a1.357,1.357,0,0,0,.959-.387A1.381,1.381,0,0,0,10,13.622a2.618,2.618,0,0,0-.847-1.787A2.624,2.624,0,0,0,7.4,11H7.376a1.357,1.357,0,0,0-.959.387A1.381,1.381,0,0,0,6,12.378a2.6,2.6,0,0,0,.833,1.772l.014.015A2.624,2.624,0,0,0,8.6,15Z"/><path d="M15,20a.984.984,0,0,1-.99-.95,1.982,1.982,0,0,0,.589-.519l1-1.335A2,2,0,0,0,14,14H12a2,2,0,0,0-1.6,3.2l1,1.324a2,2,0,0,0,.594.524A1,1,0,0,1,10,19H8a3,3,0,0,0,5,2.234A3,3,0,0,0,18,19H16A.989.989,0,0,1,15,20Zm-1-4-1,1.33L11.994,16Z"/><path d="M44,20H40.12c-3.1,0-4.547-.912-5.153-3.254a13.315,13.315,0,0,0-2.239-4.535,3.883,3.883,0,0,1-.866-1.687,8.916,8.916,0,0,0-1.629-3.536l.933-1.317A3.379,3.379,0,0,0,30.942,1,3.58,3.58,0,0,0,26.833.375l-2.862,1.51A16.9,16.9,0,0,0,17,0,15.142,15.142,0,0,0,9.787,1.875L7.316,1.051A1.675,1.675,0,0,0,6.909,1a3.832,3.832,0,0,0-2.951.868A2.958,2.958,0,0,0,3,4.05a2.908,2.908,0,0,0,.791,2l.727.8a11.513,11.513,0,0,0-1.559,4.356,3.2,3.2,0,0,1-.893,1.764A7.36,7.36,0,0,0,.36,16.8a19.2,19.2,0,0,0-.34,3.172C.01,20.3,0,20.639,0,21c0,4.794,3.738,9,8,9a2,2,0,0,1,2,2c0,2.1-4.869,7.1-6.651,7.923a7.706,7.706,0,0,0-2.13,1.393A3.649,3.649,0,0,0,0,44v2a4.411,4.411,0,0,0,4,4c2.87,0,4.661-1.267,4.942-3.406a14.11,14.11,0,0,0,3.727-1c.529,1.106.729,1.691.611,2.166-.183.73-1.179,1.726-2.987,3.535C9.586,52,9.53,52,9,52H8a4,4,0,0,0,0,8h4.52a18.843,18.843,0,0,0,7.055-1.354c3.11-1.256,6.082-2.67,8.268-6.108a7.1,7.1,0,0,1,3.207-2.7A11.072,11.072,0,0,1,35.49,49H38.5c-.5.588-1.232,1.32-2.2,2.293C35.586,52,35.53,52,35,52H34a3.946,3.946,0,0,0-3.857,5H25.5a3.5,3.5,0,1,0,0,7H36c19.787,0,24.8-11.994,26.443-15.938A24.554,24.554,0,0,0,64,40.18V40A20.023,20.023,0,0,0,44,20ZM5.319,3.334c.325-.3.64-.332,1.519-.334l.846.282a14.168,14.168,0,0,0-1.98,1.9l-.448-.491A.929.929,0,0,1,5,4.05.96.96,0,0,1,5.319,3.334ZM4,48c-.49,0-2-.9-2-2V44a1.667,1.667,0,0,1,.612-1.249,5.774,5.774,0,0,1,1.576-1.013A20.617,20.617,0,0,0,10.049,36.3a11.264,11.264,0,0,0,.37,2.322l1.471,5.129a14.651,14.651,0,0,1-4.061.985A30.371,30.371,0,0,1,4,45v2c.906,0,1.872-.063,2.843-.154C6.581,47.409,5.879,48,4,48Zm58-7.82a22.591,22.591,0,0,1-1.4,7.114C57.96,53.607,52.542,62,36,62H25.5a1.5,1.5,0,0,1,0-3H34c10.094,0,15-5.561,15-17H47c0,10.374-4.01,15-13,15H32.271A2,2,0,0,1,34,54h1a3.224,3.224,0,0,0,2.707-1.293A17.765,17.765,0,0,0,40.923,49H45V47H35.49a13.078,13.078,0,0,0-5.241,1,9.078,9.078,0,0,0-4.093,3.46c-1.872,2.943-4.427,4.155-7.328,5.328A16.86,16.86,0,0,1,12.52,58H8a2,2,0,0,1,0-4H9a3.224,3.224,0,0,0,2.707-1.293c4.166-4.166,4.452-4.611,2.229-9.071l-1.592-5.554A9.23,9.23,0,0,1,12,35.6V32a4,4,0,0,0-4-4c-3.434,0-6-3.7-6-7H6V19H2.079c.028-.351.064-.685.108-1H6V16H2.62A4.105,4.105,0,0,1,3.5,14.366a5.152,5.152,0,0,0,1.443-2.891A9.639,9.639,0,0,1,6.581,7.3a12.212,12.212,0,0,1,3.8-3.477A13.38,13.38,0,0,1,17,2a15.967,15.967,0,0,1,6.58,1.908,1.006,1.006,0,0,0,.887-.023l3.25-1.717a1.636,1.636,0,0,1,1.842.274,1.375,1.375,0,0,1,.077,1.94,1.026,1.026,0,0,0-.073.09l-1.379,1.95a1,1,0,0,0,.02,1.184A7.686,7.686,0,0,1,29.9,10.9a5.805,5.805,0,0,0,1.279,2.576,11.291,11.291,0,0,1,1.856,3.777C34.134,21.508,37.6,22,40.12,22H44A18.021,18.021,0,0,1,62,40Z"/><rect x="21" y="16" width="6" height="2"/><rect x="21" y="19" width="6" height="2"/></g></svg>
