<svg height="512" viewBox="0 0 64 64" width="512" xmlns="http://www.w3.org/2000/svg"><g id="_21-cow" data-name="21-cow"><path d="m30 16c3.31 0 5 2.92 5 6v3a5.333 5.333 0 0 1 -.09.98h-.01a6.173 6.173 0 0 1 -5.9 5.02h-22a5.254 5.254 0 0 1 -.98-.09 6.186 6.186 0 0 1 -5.02-5.91v-3c0-3.08 1.69-6 5-6z" fill="#555a66"/><path d="m30 16h-24l.09-.99.3-3.2a7.2 7.2 0 0 1 2.47-4.78l.14-.03.04-.12a8.364 8.364 0 0 1 5.32-1.88h7.28a8.364 8.364 0 0 1 5.32 1.88l.04.12.14.03a7.2 7.2 0 0 1 2.47 4.78l.3 3.2z" fill="#dce1eb"/><path d="m15 37h6a3 3 0 0 1 -6 0z" fill="#ffb13b"/><path d="m22 35v2h-8v-2a4 4 0 1 1 8 0z" fill="#ffc247"/><path d="m44 55-.4 4h-7.2l-.4-4z" fill="#cdd2e1"/><path d="m61 49a3.013 3.013 0 0 1 2 3c0 1.93-1.5 5-2 5s-2-3.07-2-5a3.013 3.013 0 0 1 2-3z" fill="#414952"/><path d="m25.37 2.12 1.59 4.76a8.364 8.364 0 0 0 -5.32-1.88h-.64l1.51-3.34a1.615 1.615 0 0 1 1.31-.66 1.634 1.634 0 0 1 1.55 1.12z" fill="#333940"/><path d="m13.49 1.66 1.51 3.34h-.64a8.364 8.364 0 0 0 -5.32 1.88l1.59-4.76a1.634 1.634 0 0 1 1.55-1.12 1.615 1.615 0 0 1 1.31.66z" fill="#333940"/><path d="m2.46 8.56 6.4-1.53a7.2 7.2 0 0 0 -2.47 4.78l-.3 3.2-.09-.01a4.98 4.98 0 0 1 -5-5c0-1 .28-1.16 1.46-1.44z" fill="#333940"/><path d="m33.54 8.56c1.18.28 1.46.44 1.46 1.44a4.98 4.98 0 0 1 -5 5l-.09.01-.3-3.2a7.2 7.2 0 0 0 -2.47-4.78z" fill="#333940"/><g fill="#414952"><path d="m7 31h2c1 1 2.07 2.54 2 3.86a4.93 4.93 0 0 1 -1.51 3.47 6.7 6.7 0 0 1 -1.08.67c-.78.4-1.6.66-2.41 1v-9l.02-.09a5.254 5.254 0 0 0 .98.09z"/><path d="m12.36 42.47c.96.49 2.73 1.23 3.2 2.24a9.091 9.091 0 0 1 .4 4.02 2.716 2.716 0 0 1 -.15.98 2.026 2.026 0 0 1 -1.27 1.03 7.054 7.054 0 0 1 -2.24.26c-.66 0-1.31-.02-1.97-.05a2.345 2.345 0 0 1 -.83-.15 2.319 2.319 0 0 1 -.85-.74c-.46-.56-.91-1.13-1.34-1.72a1.091 1.091 0 0 1 -.3-.79.981.981 0 0 1 .21-.42 5.931 5.931 0 0 0 1.02-1.58 10.834 10.834 0 0 0 .2-1.29 2.633 2.633 0 0 1 2.65-2.25 3.815 3.815 0 0 1 1.27.46z"/><path d="m15.49 59.06-.49 3.94h-8l-.22-4h8.22z"/><path d="m28.49 59.07c-.24 1.98-.49 3.93-.49 3.93h-8l-.5-4h8.5z"/><path d="m43.6 59-.4 4h-6.4l-.4-4z"/><path d="m55.49 59.06-.49 3.94h-8l-.5-4h8.5z"/><path d="m56 44v9c-1.01 0-3.28-.76-3.75-.76a8.942 8.942 0 0 1 -4.88-1.79 8.978 8.978 0 0 1 -2.49-2.18 4.015 4.015 0 0 1 -.81-3.14 8.819 8.819 0 0 1 1-2.19 4.017 4.017 0 0 1 1.08-1.53 2.673 2.673 0 0 1 1.47-.41 12.853 12.853 0 0 1 5.15 1.3 15.1 15.1 0 0 1 3.23 1.7z"/><path d="m39.7 45.77a2.146 2.146 0 0 1 .05 2.12 5.625 5.625 0 0 1 -1.11 1.95 4.3 4.3 0 0 1 -2.52 1.06 11.28 11.28 0 0 1 -7.69-1.77 3.193 3.193 0 0 1 -1.16-1.12 2.765 2.765 0 0 1 .1-2.56 6.3 6.3 0 0 1 1.75-1.92 6.749 6.749 0 0 1 2.56-1.42 6.841 6.841 0 0 1 2.88.11 5.246 5.246 0 0 1 2.42.98c.27.24.45.57.74.78a11.137 11.137 0 0 0 1.11.51 2.538 2.538 0 0 1 .87 1.28z"/><path d="m36.91 26.34a5.3 5.3 0 0 1 1.41 1.3 8 8 0 0 1 .68 1.52c.37.9.88 1.72 1.28 2.61a7 7 0 0 1 .7 3.48 4.011 4.011 0 0 1 -1.66 3.02 4.284 4.284 0 0 1 -1.53.56 13.467 13.467 0 0 1 -2.69.17 12.737 12.737 0 0 1 -4.26-.6 11.23 11.23 0 0 1 -2.15-1.11 5.653 5.653 0 0 1 -2.33-2.24 6.563 6.563 0 0 1 -.1-4v-.05h2.74a6.173 6.173 0 0 0 5.9-5.02h.01l.09.02a3.743 3.743 0 0 1 1.91.34z"/><path d="m56 37v1.11a1.474 1.474 0 0 1 -1.05.81 3.72 3.72 0 0 1 -1.45.02 4.238 4.238 0 0 1 -1.55-.44 5.962 5.962 0 0 1 -1.25-1.06 16.737 16.737 0 0 0 -3.96-2.88 16.92 16.92 0 0 1 -2.43-1.35 6.354 6.354 0 0 1 -2.41-4.67c-.06-.8.16-1.72.1-2.52a13.9 13.9 0 0 0 -1-3.02h1a14 14 0 0 1 14 14z"/></g><path d="m8.65 50.06a2.319 2.319 0 0 0 .85.74 2.345 2.345 0 0 0 .83.15c.66.03 1.31.05 1.97.05a7.054 7.054 0 0 0 2.24-.26 2.026 2.026 0 0 0 1.27-1.03 2.716 2.716 0 0 0 .15-.98 9.091 9.091 0 0 0 -.4-4.02c-.47-1.01-2.24-1.75-3.2-2.24a3.815 3.815 0 0 0 -1.27-.46 2.633 2.633 0 0 0 -2.65 2.25 10.834 10.834 0 0 1 -.2 1.29 5.931 5.931 0 0 1 -1.02 1.58.981.981 0 0 0 -.21.42 1.091 1.091 0 0 0 .3.79c.43.59.88 1.16 1.34 1.72zm17.61-19.01a6.563 6.563 0 0 0 .1 4 5.653 5.653 0 0 0 2.33 2.24 11.23 11.23 0 0 0 2.15 1.11 12.737 12.737 0 0 0 4.26.6 13.467 13.467 0 0 0 2.69-.17 4.284 4.284 0 0 0 1.53-.56 4.011 4.011 0 0 0 1.66-3.02 7 7 0 0 0 -.7-3.48c-.4-.89-.91-1.71-1.28-2.61a8 8 0 0 0 -.68-1.52 5.3 5.3 0 0 0 -1.41-1.3 3.743 3.743 0 0 0 -1.91-.34l-.09-.02a5.333 5.333 0 0 0 .09-.98v-2h6a13.9 13.9 0 0 1 1 3.02c.06.8-.16 1.72-.1 2.52a6.354 6.354 0 0 0 2.41 4.67 16.92 16.92 0 0 0 2.43 1.35 16.737 16.737 0 0 1 3.96 2.88 5.962 5.962 0 0 0 1.25 1.06 4.238 4.238 0 0 0 1.55.44 3.72 3.72 0 0 0 1.45-.02 1.474 1.474 0 0 0 1.05-.81v5.89a15.1 15.1 0 0 0 -3.23-1.7 12.853 12.853 0 0 0 -5.15-1.3 2.673 2.673 0 0 0 -1.47.41 4.017 4.017 0 0 0 -1.08 1.53 8.819 8.819 0 0 0 -1 2.19 4.015 4.015 0 0 0 .81 3.14 8.978 8.978 0 0 0 2.49 2.18 8.942 8.942 0 0 0 4.88 1.79c.47 0 2.74.76 3.75.76v1.5a8.1 8.1 0 0 1 -.06.99l-.45 3.57-.49-.06h-8.5c-.1-.79-.2-1.58-.28-2.25a2.007 2.007 0 0 0 -1.99-1.75h-13.46a2.007 2.007 0 0 0 -1.99 1.75c-.08.69-.18 1.51-.29 2.32l-.49-.07h-8.5c-.11-.9-.22-1.8-.31-2.52a1.7 1.7 0 0 0 -3.38.01l-.32 2.57-.49-.06h-8.22l-.73-13.17c-.03-.55-.05-1.11-.05-1.66v-4.17c.81-.34 1.63-.6 2.41-1a6.7 6.7 0 0 0 1.08-.67 4.93 4.93 0 0 0 1.51-3.47c.07-1.32-1-2.86-2-3.86h9a4 4 0 0 0 -4 4v2h1a3 3 0 0 0 6 0h1v-2a3.995 3.995 0 0 0 -4-4h8.26zm13.74 15.98a2.917 2.917 0 0 0 -.3-1.26 2.538 2.538 0 0 0 -.87-1.28 11.137 11.137 0 0 1 -1.11-.51c-.29-.21-.47-.54-.74-.78a5.246 5.246 0 0 0 -2.42-.98 6.841 6.841 0 0 0 -2.88-.11 6.749 6.749 0 0 0 -2.56 1.42 6.3 6.3 0 0 0 -1.75 1.92 2.765 2.765 0 0 0 -.1 2.56 3.193 3.193 0 0 0 1.16 1.12 11.28 11.28 0 0 0 7.69 1.77 4.3 4.3 0 0 0 2.52-1.06 5.625 5.625 0 0 0 1.11-1.95 2.923 2.923 0 0 0 .25-.86z" fill="#eef2fa"/><path d="m61 49a1.828 1.828 0 0 1 1 .588v-8.588c0-4.187-2.411-7-6-7h-.331a13.856 13.856 0 0 1 .28 2h.051c2.949 0 4 2.583 4 5v8.588a1.828 1.828 0 0 1 1-.588z" fill="#cdd2e1"/><path d="m18 39a2.986 2.986 0 0 0 2.817-2h-5.634a2.986 2.986 0 0 0 2.817 2z" fill="#ff9500"/><path d="m22 35.961v-.961a3.995 3.995 0 0 0 -4-4 3.978 3.978 0 0 0 -3.14 1.549c1.302 1.851 3.967 3.178 7.14 3.412z" fill="#ffe45c"/><path d="m60 51.25c0 1.45.75 3.75 1 3.75s1-2.3 1-3.75-.75-2.25-1-2.25a2.636 2.636 0 0 0 -1 2.25z" fill="#333940"/><path d="m23.82 3a1.634 1.634 0 0 1 1.55 1.12l.716 2.142a8.085 8.085 0 0 1 .874.618l-1.59-4.76a1.634 1.634 0 0 0 -1.55-1.12 1.615 1.615 0 0 0 -1.31.66l-1.51 3.34h.64c.087 0 .172.009.259.011l.611-1.351a1.615 1.615 0 0 1 1.31-.66z" fill="#414952"/><path d="m15 5-1.51-3.34a1.615 1.615 0 0 0 -1.31-.66 1.634 1.634 0 0 0 -1.55 1.12l-1.59 4.76a8.085 8.085 0 0 1 .874-.618l.716-2.142a1.634 1.634 0 0 1 1.55-1.12 1.615 1.615 0 0 1 1.31.66l.61 1.351c.087 0 .172-.011.259-.011z" fill="#414952"/><path d="m3.46 10.56 3.44-.823a7.38 7.38 0 0 1 1.96-2.707l-6.4 1.53c-1.18.28-1.46.44-1.46 1.44a5.7 5.7 0 0 0 1.195 3.266 4.972 4.972 0 0 1 -.195-1.266c0-1 .28-1.16 1.46-1.44z" fill="#414952"/><path d="m34 12a4.972 4.972 0 0 1 -.2 1.266 5.7 5.7 0 0 0 1.2-3.266c0-1-.28-1.16-1.46-1.44l-6.4-1.53a7.38 7.38 0 0 1 1.96 2.707l3.444.823c1.176.28 1.456.44 1.456 1.44z" fill="#414952"/><path d="m30 16h-24c-3.31 0-5 2.92-5 6v3a6.186 6.186 0 0 0 5.02 5.91 5.254 5.254 0 0 0 .98.09h1.294a4.725 4.725 0 0 1 -.865-.078 5.39 5.39 0 0 1 -4.429-5.122v-2.6c0-2.669 1.491-5.2 4.412-5.2h21.176c2.921 0 4.412 2.531 4.412 5.2v2.6a4.531 4.531 0 0 1 -.079.849h-.009a5.419 5.419 0 0 1 -5.206 4.351h1.294a6.173 6.173 0 0 0 5.9-5.02h.01a5.333 5.333 0 0 0 .09-.98v-3c0-3.08-1.69-6-5-6z" fill="#636978"/><path d="m29.91 15.01-.3-3.2a7.2 7.2 0 0 0 -2.47-4.78l-.14-.03-.04-.12a8.364 8.364 0 0 0 -5.32-1.88h-7.28a8.364 8.364 0 0 0 -5.32 1.88l-.04.12-.14.03a7.2 7.2 0 0 0 -2.47 4.78l-.3 3.2-.09.99h1l.31-3.047c.344-3.372 3.511-5.953 7.304-5.953h6.772c3.793 0 6.96 2.581 7.3 5.953l.314 3.047h1z" fill="#f7faff"/><path d="m36.8 63h6.4l.1-1h-6.6z" fill="#333940"/><path d="m36 55 .1 1c3.7.012 6.783.649 7.649 1.509l.251-2.509z" fill="#9196aa"/><path d="m46.875 62 .125 1h8l.124-1z" fill="#333940"/><path d="m19.875 62 .125 1h8l.124-1z" fill="#333940"/><path d="m6.945 62 .055 1h8l.124-1z" fill="#333940"/><path d="m18 40a3 3 0 0 1 -3-3h-1v2h1a3 3 0 0 0 6 0h1v-2h-1a3 3 0 0 1 -3 3z" fill="#cdd2e1"/><path d="m8 31h-1a5.254 5.254 0 0 1 -.98-.09l-.02.09v9c.671-.282 1.344-.524 2-.821z" fill="#555a66"/><path d="m7.01 47.55a1.091 1.091 0 0 0 .3.79c.328.45.675.881 1.022 1.312l-.265-3.708a10.966 10.966 0 0 1 -.847 1.186.981.981 0 0 0 -.21.42z" fill="#555a66"/><path d="m53 52.386a17.068 17.068 0 0 0 3 .614v-9a14.506 14.506 0 0 0 -3-1.6z" fill="#555a66"/><path d="m42 23h-1c.226.7.56 1.355.783 2.039a11.992 11.992 0 0 1 11.217 11.961v1.858c.166.032.333.06.5.082a3.72 3.72 0 0 0 1.45-.02 1.474 1.474 0 0 0 1.05-.81v-1.11a14 14 0 0 0 -14-14z" fill="#555a66"/><path d="m41.783 25.039c-.223-.684-.557-1.339-.783-2.039h-6v2h6c.264 0 .523.023.783.039z" fill="#f7faff"/><path d="m53 55-.667 4h2.667l.49.06.45-3.57a8.1 8.1 0 0 0 .06-.99v-1.5a17.068 17.068 0 0 1 -3-.614z" fill="#f7faff"/><path d="m54.95 38.92a3.72 3.72 0 0 1 -1.45.02c-.167-.022-.334-.05-.5-.082v3.542a14.506 14.506 0 0 1 3 1.6v-5.89a1.474 1.474 0 0 1 -1.05.81z" fill="#f7faff"/><path d="m7.31 48.34a1.091 1.091 0 0 1 -.3-.79.981.981 0 0 1 .21-.42 10.966 10.966 0 0 0 .847-1.186l-.067-.944v-5.821c-.656.3-1.329.539-2 .821v4.17c0 .55.02 1.11.05 1.66l.73 13.17h2.22l-.668-9.348c-.347-.431-.694-.862-1.022-1.312z" fill="#f7faff"/><path d="m7 35h3.981c0-.047.016-.093.019-.14.07-1.32-1-2.86-2-3.86h-2a5.254 5.254 0 0 1 -.98-.09l-.02.09v3.9l.02.006a5.254 5.254 0 0 0 .98.094z" fill="#23272b"/><path d="m34.9 25.98a6.173 6.173 0 0 1 -5.9 5.02h-2.74v.05a6.651 6.651 0 0 0 .081 3.95h2.659a6.173 6.173 0 0 0 5.9-5.02h.01a5.333 5.333 0 0 0 .09-.98v-3l-.09-.02z" fill="#23272b"/><path d="m18 31h-9c1 1 2.07 2.54 2 3.86 0 .047-.015.093-.019.14h3.019a4 4 0 0 1 4-4z" fill="#cdd2e1"/><path d="m26.26 31.05v-.05h-8.26a3.995 3.995 0 0 1 4 4h4.341a6.651 6.651 0 0 1 -.081-3.95z" fill="#cdd2e1"/><ellipse cx="20.258" cy="33.814" fill="#f6fafd" rx=".825" ry="1.148" transform="matrix(.707 -.707 .707 .707 -17.98 24.241)"/><ellipse cx="51.258" cy="32.814" fill="#f6fafd" rx=".825" ry="1.148" transform="matrix(.707 -.707 .707 .707 -8.185 45.876)"/><ellipse cx="32.004" cy="10.314" fill="#f6fafd" rx=".413" ry=".574" transform="matrix(.707 -.707 .707 .707 2.086 25.661)"/><ellipse cx="49.26" cy="28.8" fill="#f6fafd" rx="1.642" ry="2.286" transform="matrix(.707 -.707 .707 .707 -5.932 43.287)"/><path d="m62 48.333v-7.333c0-3.906-2.1-6.615-5.3-6.961a15.024 15.024 0 0 0 -14.7-12.039h-6c0-2.61-1.13-5.366-3.55-6.482a6.271 6.271 0 0 0 3.55-5.518c0-1.745-.966-2.113-2.228-2.413l-6-1.434-1.452-4.345a2.632 2.632 0 0 0 -4.615-.742 1 1 0 0 0 -.106.182l-1.244 2.752h-4.71l-1.245-2.752a1 1 0 0 0 -.106-.182 2.632 2.632 0 0 0 -4.613.734l-1.452 4.353-6 1.434c-1.263.3-2.229.668-2.229 2.413a6.271 6.271 0 0 0 3.55 5.518c-2.42 1.116-3.55 3.872-3.55 6.482v3a7.207 7.207 0 0 0 5 6.682v12.488c0 .567.021 1.146.051 1.716l.949 17.169a1 1 0 0 0 1 .945h8a1 1 0 0 0 .992-.877l.81-6.5a.707.707 0 0 1 .698-.623.694.694 0 0 1 .7.6l.81 6.52a1 1 0 0 0 .99.88h8a1 1 0 0 0 .992-.873s.25-1.953.489-3.922c.111-.818.212-1.644.29-2.326a1.012 1.012 0 0 1 1-.879h4.329l.71 7.1a1 1 0 0 0 .995.9h6.4a1 1 0 0 0 .995-.9l.686-6.857a.991.991 0 0 1 .346.625c.08.672.181 1.465.281 2.256l.5 4a1 1 0 0 0 .987.876h8a1 1 0 0 0 .992-.877l.94-7.509a9.007 9.007 0 0 0 .068-1.114v-17.5c0-.3-.028-.6-.045-.9 2.223.5 3.045 2.765 3.045 4.9v7.333a4.257 4.257 0 0 0 -2 3.667c0 1.644 1.363 6 3 6s3-4.356 3-6a4.257 4.257 0 0 0 -2-3.667zm-7 3.515c-.425-.093-.882-.21-1.245-.3a7.074 7.074 0 0 0 -1.516-.3 7.92 7.92 0 0 1 -4.326-1.63 8.126 8.126 0 0 1 -2.23-1.936 3.024 3.024 0 0 1 -.633-2.346 5.137 5.137 0 0 1 .606-1.37c.1-.186.206-.372.3-.545l.136-.259a2.611 2.611 0 0 1 .644-.93 1.737 1.737 0 0 1 .918-.232 11.929 11.929 0 0 1 4.739 1.227 15.605 15.605 0 0 1 2.607 1.311zm0-14.848v.811a.63.63 0 0 1 -.3.14 2.742 2.742 0 0 1 -1.072 0 3.309 3.309 0 0 1 -1.2-.324 4.687 4.687 0 0 1 -.932-.8l-.1-.1a17.721 17.721 0 0 0 -4.2-3.054c-.222-.116-.448-.229-.675-.34a10.027 10.027 0 0 1 -1.619-.924 5.343 5.343 0 0 1 -2.002-3.944 7.071 7.071 0 0 1 .049-1.092 8.516 8.516 0 0 0 .051-1.436 6.369 6.369 0 0 0 -.519-1.913 13.006 13.006 0 0 1 12.519 12.976zm-19.338-9.969a2.7 2.7 0 0 1 .668.123 4.425 4.425 0 0 1 1.161 1.046 4.674 4.674 0 0 1 .427.937l.157.406c.222.54.485 1.042.739 1.528.191.366.383.731.555 1.114a5.939 5.939 0 0 1 .615 2.976 3.024 3.024 0 0 1 -1.2 2.269 3.288 3.288 0 0 1 -1.178.42 12.343 12.343 0 0 1 -2.485.15 11.774 11.774 0 0 1 -3.946-.542 10.557 10.557 0 0 1 -1.958-1.018 4.851 4.851 0 0 1 -1.954-1.82 4.536 4.536 0 0 1 -.15-2.62h1.887a7.12 7.12 0 0 0 6.662-4.969zm-26.288-19.112a.991.991 0 0 0 .467-.38 7.371 7.371 0 0 1 4.519-1.539h7.28a7.376 7.376 0 0 1 4.519 1.538 1 1 0 0 0 .462.38 6.2 6.2 0 0 1 1.993 3.982l.286 3.1h-21.8l.288-3.1a6.191 6.191 0 0 1 1.986-3.981zm24.612 1.807a2.063 2.063 0 0 1 .014.274c0 .037-.153 3.408-3.187 3.927l-.207-2.207a8.024 8.024 0 0 0 -.914-3.05l3.617.862a4.985 4.985 0 0 1 .677.194zm-9.565-7.289.752 2.249a9.481 9.481 0 0 0 -2.644-.642l.838-1.854a.659.659 0 0 1 1.054.247zm-11.788-.247.838 1.854a9.448 9.448 0 0 0 -2.644.643l.753-2.254a.66.66 0 0 1 1.053-.243zm-10.633 7.81a2.063 2.063 0 0 1 .014-.274 4.967 4.967 0 0 1 .678-.194l3.615-.864a8.029 8.029 0 0 0 -.907 3.048l-.208 2.211c-3.039-.519-3.192-3.89-3.192-3.927zm0 15v-3c0-2.489 1.237-5 4-5h24c2.763 0 4 2.511 4 5v3a4.384 4.384 0 0 1 -.051.672.916.916 0 0 0 -.033.13 5.175 5.175 0 0 1 -4.916 4.198h-22a4.246 4.246 0 0 1 -.807-.075 5.216 5.216 0 0 1 -4.193-4.925zm18.118 7.872a3.018 3.018 0 0 1 .882 2.128v1h-6v-1a3 3 0 0 1 5.118-2.128zm-.396 5.128a1.983 1.983 0 0 1 -3.444 0zm-9.722-3.2a3.97 3.97 0 0 1 -1.144 2.756 5.948 5.948 0 0 1 -.9.554c-.3.156-.625.29-.954.42v-6.53h1.565a4.662 4.662 0 0 1 1.433 2.8zm-2.054 27.2-.11-2h6.53l-.249 2zm12.937 0-.248-2h6.734c-.095.768-.184 1.48-.25 2zm16.217-6h5.8l-.2 2h-5.39zm.6 6-.2-2h5l-.2 2zm10.178 0-.25-2h6.734l-.25 2zm7.065-6.635-.325 2.635h-7.236c-.061-.483-.12-.954-.17-1.379a3.017 3.017 0 0 0 -2.982-2.621h-13.46a3.021 3.021 0 0 0 -2.984 2.636c-.048.415-.105.882-.165 1.364h-7.235l-.2-1.647a2.7 2.7 0 0 0 -5.364.014l-.207 1.633h-6.89l-.447-8.075c.2.252.39.515.591.759a3.2 3.2 0 0 0 1.211 1.023 2.964 2.964 0 0 0 1.1.235l.1.007c.676.031 1.341.051 2.016.051a7.946 7.946 0 0 0 2.563-.313 2.991 2.991 0 0 0 1.869-1.59 3.584 3.584 0 0 0 .227-1.335l.014-.374a8.868 8.868 0 0 0 -.506-4.1c-.554-1.19-2.1-1.945-3.225-2.5l-.427-.212a4.665 4.665 0 0 0 -1.616-.563 3.6 3.6 0 0 0 -3.742 3.061c-.037.194-.058.393-.078.59a3.208 3.208 0 0 1 -.092.58 1.8 1.8 0 0 1 -.241.455c-.023-.506-.042-1.022-.042-1.529v-3.49l.209-.083a16.152 16.152 0 0 0 1.74-.751 7.216 7.216 0 0 0 1.186-.752 5.9 5.9 0 0 0 1.865-4.181 5.138 5.138 0 0 0 -.925-2.913h2.951a4.948 4.948 0 0 0 -1.026 3v2a1 1 0 0 0 1 1h.142a3.981 3.981 0 0 0 7.716 0h.142a1 1 0 0 0 1-1v-2a4.977 4.977 0 0 0 -1.026-3h3.116a6.009 6.009 0 0 0 .363 3.472 6.58 6.58 0 0 0 2.708 2.667 12.271 12.271 0 0 0 2.326 1.2 13.593 13.593 0 0 0 4.6.664q.225 0 .456 0a12.791 12.791 0 0 0 2.43-.191 5.181 5.181 0 0 0 1.885-.7 4.98 4.98 0 0 0 2.116-3.768 7.912 7.912 0 0 0 -.784-3.983c-.187-.415-.4-.816-.606-1.216-.243-.467-.474-.908-.659-1.357l-.137-.356a6.305 6.305 0 0 0 -.638-1.345 6.223 6.223 0 0 0 -1.65-1.556 3.247 3.247 0 0 0 -1.5-.472c0-.02.005-.039.005-.059v-1h4.316c.058.144.108.293.168.436a5.692 5.692 0 0 1 .511 1.664 7.088 7.088 0 0 1 -.049 1.093 8.429 8.429 0 0 0 -.051 1.407 7.346 7.346 0 0 0 2.805 5.407 11.627 11.627 0 0 0 1.937 1.119c.212.1.424.209.631.318a15.726 15.726 0 0 1 3.718 2.7l.092.092a6.259 6.259 0 0 0 1.375 1.133 5.152 5.152 0 0 0 1.9.559 6.382 6.382 0 0 0 .894.071 3.951 3.951 0 0 0 .748-.073v2.3c-.659-.344-1.3-.628-1.854-.852a13.6 13.6 0 0 0 -5.563-1.374 3.619 3.619 0 0 0 -2 .587 4.189 4.189 0 0 0 -1.27 1.645l-.132.25c-.087.169-.18.336-.272.5a6.791 6.791 0 0 0 -.817 1.938 4.958 4.958 0 0 0 .978 3.93 9.892 9.892 0 0 0 2.75 2.431 10.111 10.111 0 0 0 5.33 1.954h.07c.142.013.66.146 1.039.243.572.147 1.182.3 1.742.4v.622a7.05 7.05 0 0 1 -.053.865zm-46.881-7.692c.074-.1.152-.2.23-.3a4.83 4.83 0 0 0 .9-1.523 4.762 4.762 0 0 0 .176-.981c.014-.143.028-.287.056-.439a1.664 1.664 0 0 1 1.554-1.43 3.081 3.081 0 0 1 .926.356l.458.227c.711.349 2.035 1 2.291 1.546a7.438 7.438 0 0 1 .32 3.181l-.014.387a2.1 2.1 0 0 1 -.071.619 1.1 1.1 0 0 1 -.665.472 6.2 6.2 0 0 1 -1.923.212c-.645 0-1.279-.02-1.978-.053a1.5 1.5 0 0 1 -.429-.067 1.607 1.607 0 0 1 -.471-.455c-.447-.545-.885-1.1-1.308-1.68-.021-.027-.038-.052-.052-.072zm52.938 7.727a8.733 8.733 0 0 1 -1-3.4 2.3 2.3 0 0 1 1-1.949 2.3 2.3 0 0 1 1 1.949 8.733 8.733 0 0 1 -1 3.4z"/><path d="m25.378 28h.022a2.616 2.616 0 0 0 1.748-.834l.015-.014a2.6 2.6 0 0 0 .837-1.776 1.357 1.357 0 0 0 -.387-.959 1.381 1.381 0 0 0 -.991-.417h-.022a2.642 2.642 0 0 0 -1.763.848 2.6 2.6 0 0 0 -.837 1.776 1.357 1.357 0 0 0 .387.959 1.381 1.381 0 0 0 .991.417z"/><path d="m8.85 27.164a2.616 2.616 0 0 0 1.75.836h.024a1.358 1.358 0 0 0 .96-.385 1.381 1.381 0 0 0 .416-.991 2.617 2.617 0 0 0 -.848-1.788 2.616 2.616 0 0 0 -1.752-.836h-.022a1.358 1.358 0 0 0 -.96.385 1.381 1.381 0 0 0 -.418.991 2.6 2.6 0 0 0 .833 1.774z"/><path d="m24.6 14h.024a1.358 1.358 0 0 0 .96-.385 1.381 1.381 0 0 0 .416-.991 2.6 2.6 0 0 0 -.833-1.774l-.015-.014a2.616 2.616 0 0 0 -1.752-.836h-.024a1.358 1.358 0 0 0 -.96.385 1.381 1.381 0 0 0 -.416.988 2.617 2.617 0 0 0 .848 1.788 2.616 2.616 0 0 0 1.752.839z"/><path d="m11.378 14h.022a2.642 2.642 0 0 0 1.763-.848 2.6 2.6 0 0 0 .837-1.776 1.357 1.357 0 0 0 -.387-.959 1.381 1.381 0 0 0 -.991-.417h-.022a2.616 2.616 0 0 0 -1.748.834l-.015.014a2.6 2.6 0 0 0 -.837 1.776 1.357 1.357 0 0 0 .387.959 1.381 1.381 0 0 0 .991.417z"/><path d="m39.344 43.633a3.6 3.6 0 0 0 -.674-.3 1.635 1.635 0 0 1 -.361-.161 1.807 1.807 0 0 1 -.236-.257 4.161 4.161 0 0 0 -.444-.476 6.163 6.163 0 0 0 -2.871-1.2 7.7 7.7 0 0 0 -3.31-.1 7.735 7.735 0 0 0 -2.948 1.608 7.251 7.251 0 0 0 -2.014 2.238 3.733 3.733 0 0 0 -.1 3.493 4.092 4.092 0 0 0 1.493 1.486 12.224 12.224 0 0 0 8.384 1.927 5.306 5.306 0 0 0 3.085-1.344 6.768 6.768 0 0 0 1.36-2.359 3.574 3.574 0 0 0 .292-1.088 3.824 3.824 0 0 0 -.373-1.707 3.418 3.418 0 0 0 -1.283-1.76zm-.523 3.886a4.741 4.741 0 0 1 -.893 1.619 3.31 3.31 0 0 1 -1.942.771 10.209 10.209 0 0 1 -7.014-1.62 2.346 2.346 0 0 1 -.829-.768 1.787 1.787 0 0 1 .112-1.606 5.393 5.393 0 0 1 1.493-1.6 5.927 5.927 0 0 1 2.161-1.226 3.5 3.5 0 0 1 .807-.089 8.589 8.589 0 0 1 1.646.2 4.426 4.426 0 0 1 1.953.747 2.055 2.055 0 0 1 .215.241 3.215 3.215 0 0 0 .586.589 3.111 3.111 0 0 0 .877.438 1.757 1.757 0 0 1 .315.128 2.1 2.1 0 0 1 .469.811 2.2 2.2 0 0 1 .225.81 2.359 2.359 0 0 1 -.181.555z"/></g></svg>