<?xml version="1.0"?>
<svg xmlns="http://www.w3.org/2000/svg" viewBox="0 0 64 64" width="512" height="512"><g id="_14-seal" data-name="14-seal"><ellipse cx="27.999" cy="12" rx="1.259" ry="0.636" transform="translate(-0.285 23.312) rotate(-44.998)" style="fill:#7e8596"/><ellipse cx="39.999" cy="12" rx="0.636" ry="1.259" transform="translate(3.231 31.8) rotate(-45.002)" style="fill:#7e8596"/><path d="M33,14h2a1,1,0,0,1,.8,1.6l-1,1.33a.985.985,0,0,1-1.6,0l-1-1.33A1,1,0,0,1,33,14Z" style="fill:#7e8596"/><path d="M6,58.99a3.443,3.443,0,0,0,.13.97L6,60c-2.35,0-4.381-4.92-4.981-11.64A4.038,4.038,0,0,1,5.1,44H7a18.555,18.555,0,0,0,3.56,10.87,5.426,5.426,0,0,1-.76.12,4.239,4.239,0,0,0-2.71,1.29A3.949,3.949,0,0,0,6,58.99Z" style="fill:#636978"/><path d="M7.136,46.119A18.083,18.083,0,0,1,7,44H5.1a4.038,4.038,0,0,0-4.081,4.36C1.617,55.08,3.648,60,6,60l.13-.04A3.411,3.411,0,0,1,6,59.022,27.78,27.78,0,0,1,4.018,50.36,4,4,0,0,1,7.136,46.119Z" style="fill:#707789"/><path d="M61.91,56.28A3.949,3.949,0,0,1,63,58.99,4.114,4.114,0,0,1,58.79,63H48.329a5.036,5.036,0,0,1-3.65-1.53A16.4,16.4,0,0,0,55,46c.26,7.36,1.63,8.76,4.2,8.99A4.239,4.239,0,0,1,61.91,56.28Z" style="fill:#afb4c8"/><path d="M61.91,56.28a4.239,4.239,0,0,0-2.71-1.29c-2.57-.23-3.94-1.63-4.2-8.99a16.481,16.481,0,0,1-2.712,9.258A3.315,3.315,0,0,0,55.2,56.99a4.239,4.239,0,0,1,2.71,1.29A3.949,3.949,0,0,1,59,60.99,3.828,3.828,0,0,1,58.413,63h.377A4.114,4.114,0,0,0,63,58.99,3.949,3.949,0,0,0,61.91,56.28Z" style="fill:#cdd2e1"/><path d="M34,17.34a1,1,0,0,0,.8-.41l1-1.33A1,1,0,0,0,35,14H33a1,1,0,0,0-.8,1.6l1,1.33A1,1,0,0,0,34,17.34ZM22.548,62.65a4.956,4.956,0,0,1-1.88.35H10.208a4.167,4.167,0,0,1-4.08-3.04A3.443,3.443,0,0,1,6,58.99a3.949,3.949,0,0,1,1.09-2.71A4.239,4.239,0,0,1,9.8,54.99a5.426,5.426,0,0,0,.76-.12A18.555,18.555,0,0,1,7,44a28.145,28.145,0,0,1,7.82-19.12,2.924,2.924,0,0,0,.55-3.45A2.944,2.944,0,0,1,15,20a3.255,3.255,0,0,1,1.11-2.36,2.963,2.963,0,0,0,.94-1.94A15.607,15.607,0,0,1,33,1h1c8.36,0,14.32,7.69,14.95,16.47a5.654,5.654,0,0,0,.76,2.5C51.82,23.46,55,33.68,55,46A16.4,16.4,0,0,1,44.679,61.47,19.787,19.787,0,0,1,37,63H26A17.257,17.257,0,0,1,22.548,62.65ZM40.889,12.89c.25-.24.05-.84-.44-1.34s-1.1-.69-1.34-.44-.05.84.44,1.34S40.649,13.14,40.889,12.89Zm-12.44-.44c.49-.5.69-1.1.44-1.34s-.84-.05-1.34.44-.69,1.1-.44,1.34S27.949,12.94,28.449,12.45Z" style="fill:#e9edf5"/><path d="M49.709,19.97a5.654,5.654,0,0,1-.76-2.5C48.319,8.69,42.359,1,34,1H33A15.607,15.607,0,0,0,17.048,15.7a2.963,2.963,0,0,1-.94,1.94A3.255,3.255,0,0,0,15,20a2.944,2.944,0,0,0,.37,1.43,2.924,2.924,0,0,1-.55,3.45A28.145,28.145,0,0,0,7,44a18.555,18.555,0,0,0,3.56,10.87,5.426,5.426,0,0,1-.76.12,4.239,4.239,0,0,0-2.71,1.29A3.949,3.949,0,0,0,6,58.99a3.443,3.443,0,0,0,.13.97A4.167,4.167,0,0,0,10.208,63h3.313a3.619,3.619,0,0,1-3.414-2.991A3.914,3.914,0,0,1,10,59.055a4.273,4.273,0,0,1,.912-2.667,3.37,3.37,0,0,1,2.268-1.269A3.95,3.95,0,0,0,13.813,55a20.483,20.483,0,0,1-2.978-10.695A30.252,30.252,0,0,1,17.378,25.5a3.259,3.259,0,0,0,.46-3.395,3.3,3.3,0,0,1-.309-1.406,3.44,3.44,0,0,1,.929-2.322,3.14,3.14,0,0,0,.786-1.909C19.763,7.9,25.537,2,32.591,2h.836c7,0,11.983,7.566,12.51,16.2a6.282,6.282,0,0,0,.636,2.46C48.339,24.1,51,34.153,51,46.274c0,7.379-3.674,12.751-8.636,15.221A14.437,14.437,0,0,1,35.938,63H37a19.787,19.787,0,0,0,7.68-1.53A16.4,16.4,0,0,0,55,46C55,33.68,51.82,23.46,49.709,19.97Z" style="fill:#f7faff"/><path d="M28,49s0,11.5-5.451,13.65a4.956,4.956,0,0,1-1.88.35H10.208a4.167,4.167,0,0,1-4.08-3.04A3.443,3.443,0,0,1,6,58.99a3.949,3.949,0,0,1,1.09-2.71A4.239,4.239,0,0,1,9.8,54.99a5.426,5.426,0,0,0,.76-.12C13.388,54.27,17,51.75,17,49h0a5,5,0,0,1,5-5h1a5,5,0,0,1,5,5Z" style="fill:#cdd2e1"/><path d="M11,60.99a3.949,3.949,0,0,1,1.09-2.71,4.239,4.239,0,0,1,2.71-1.29,5.426,5.426,0,0,0,.76-.12C18.388,56.27,22,53.75,22,51a5,5,0,0,1,4.98-5A4.977,4.977,0,0,0,23,44H22a5,5,0,0,0-5,5c0,2.75-3.61,5.27-6.44,5.87a5.426,5.426,0,0,1-.76.12,4.239,4.239,0,0,0-2.71,1.29A3.949,3.949,0,0,0,6,58.99a3.443,3.443,0,0,0,.13.97A4.167,4.167,0,0,0,10.208,63h1.374a3.861,3.861,0,0,1-.454-1.04A3.443,3.443,0,0,1,11,60.99Z" style="fill:#dce1eb"/><ellipse cx="47.257" cy="46.814" rx="0.825" ry="1.148" transform="translate(-19.261 47.154) rotate(-45.023)" style="fill:#f6fafd"/><ellipse cx="20.002" cy="19.314" rx="0.413" ry="0.574" transform="translate(-7.799 19.812) rotate(-45.023)" style="fill:#f6fafd"/><ellipse cx="47.26" cy="42.8" rx="1.642" ry="2.286" transform="translate(-16.421 45.98) rotate(-45.023)" style="fill:#f6fafd"/><path d="M59.286,54c-1.482-.132-3.015-.267-3.286-8.031h0c-.006-12.772-3.331-23.04-5.429-26.515a4.617,4.617,0,0,1-.627-2.051C49.237,7.48,42.382,0,34,0H33A16.585,16.585,0,0,0,16.049,15.627a1.94,1.94,0,0,1-.618,1.283A4.177,4.177,0,0,0,14,20a3.9,3.9,0,0,0,.5,1.914,1.948,1.948,0,0,1-.4,2.267A29.353,29.353,0,0,0,6.036,43H5.1a5.152,5.152,0,0,0-3.8,1.666A4.972,4.972,0,0,0,.02,48.454c.494,5.459,2.2,11.774,5.388,12.476a5.219,5.219,0,0,0,4.8,3.07H20.667a6.182,6.182,0,0,0,1.961-.312A18.814,18.814,0,0,0,26,64H37a20.863,20.863,0,0,0,7.453-1.392A5.942,5.942,0,0,0,48.333,64H58.794A5.119,5.119,0,0,0,64,58.985,5.058,5.058,0,0,0,59.286,54ZM5.052,58.45c-1.159-1.223-2.529-4.533-3.04-10.176a2.924,2.924,0,0,1,.77-2.259A3.147,3.147,0,0,1,5.1,45H6.04a19.417,19.417,0,0,0,2.845,9.146A5.012,5.012,0,0,0,5.052,58.45ZM26,62c-.252,0-.5-.032-.756-.043C28.94,57.965,29,49.468,29,49H27c0,.116-.142,10.437-4.592,12.6-.061-.013-.123-.018-.184-.032l-.031.134a3.962,3.962,0,0,1-1.526.3H10.206A3.119,3.119,0,0,1,7,58.985a3.071,3.071,0,0,1,2.891-3C13.156,55.7,18,52.637,18,49H16c0,2.014-2.7,4-5,4.722A17.45,17.45,0,0,1,8,44a27.155,27.155,0,0,1,7.534-18.422,3.955,3.955,0,0,0,.716-4.632A1.908,1.908,0,0,1,16,20a2.2,2.2,0,0,1,.793-1.625,3.934,3.934,0,0,0,1.251-2.6A14.625,14.625,0,0,1,33,2h1c7.321,0,13.317,6.682,13.948,15.542a6.614,6.614,0,0,0,.91,2.942C50.993,24.021,54,34.276,54,46c0,10.393-8.759,16-17,16Zm32.794,0H48.333a4.006,4.006,0,0,1-1.717-.376,17.236,17.236,0,0,0,8.248-9.164,4.474,4.474,0,0,0,4.245,3.528,3.071,3.071,0,0,1,2.891,3A3.119,3.119,0,0,1,58.794,62Z"/><path d="M35,18.055a1.977,1.977,0,0,0,.6-.522l1-1.333A2,2,0,0,0,35,13H33a2,2,0,0,0-1.6,3.2l1,1.333a2,2,0,0,0,.6.522v1.41l-2.555,1.7,1.11,1.664L34,21.2l2.445,1.63,1.11-1.664L35,19.465ZM33,15h2l-1,1.333L32.993,15Z"/><path d="M41.154,10.845A3.021,3.021,0,0,0,40,10.1,1.436,1.436,0,0,0,38.1,12a3.021,3.021,0,0,0,.742,1.154h0A3.021,3.021,0,0,0,40,13.9a1.927,1.927,0,0,0,.6.1,1.377,1.377,0,0,0,1-.4,1.51,1.51,0,0,0,.3-1.6A3.023,3.023,0,0,0,41.154,10.845Z"/><path d="M28,10.1A3.234,3.234,0,0,0,26.1,12a1.51,1.51,0,0,0,.295,1.6,1.383,1.383,0,0,0,1,.4,1.921,1.921,0,0,0,.6-.1,3.021,3.021,0,0,0,1.154-.742h0A3.021,3.021,0,0,0,29.9,12,1.436,1.436,0,0,0,28,10.1Z"/><rect x="35.586" y="7" width="2.828" height="2" transform="translate(5.18 28.506) rotate(-45)"/><rect x="30" y="6.586" width="2" height="2.828" transform="translate(3.423 24.263) rotate(-45)"/></g></svg>
