<?xml version="1.0"?>
<svg xmlns="http://www.w3.org/2000/svg" viewBox="0 0 64 64" width="512" height="512"><g id="_12-ferrets" data-name="12-ferrets"><path d="M62.06,11.42,60.99,2.89c-.12-1.57-2.74-2.57-4.18-1.28L52,4.02a5,5,0,0,1-10,0L37.19,1.61C35.75.32,33,1.21,33,3.03l-.93,8.64A16.789,16.789,0,0,0,31,18.15a13.771,13.771,0,0,0,.89,4.89A13.612,13.612,0,0,0,33.42,26a13.81,13.81,0,0,0,1.6,1.99,16.868,16.868,0,0,0,22.95.97A15.361,15.361,0,0,0,60.59,26a14.03,14.03,0,0,0,1.52-2.96A13.771,13.771,0,0,0,63,18.15,22.2,22.2,0,0,0,62.06,11.42ZM35,15.97a3.892,3.892,0,0,1,.57-2.08,4.149,4.149,0,0,1,4.09-1.86,13.089,13.089,0,0,1,1.85.37A18.39,18.39,0,0,0,46,13h2a18.331,18.331,0,0,0,4.49-.54,13.089,13.089,0,0,1,1.85-.37,4.138,4.138,0,0,1,4.09,1.87A3.9,3.9,0,0,1,59,16.05C59,18.08,58,20,55,20s-3-2-8-2v-.02c-5,0-5,2.02-8,2.02S35,17.98,35,15.97Zm13.8,5.47-1,1.2a1.069,1.069,0,0,1-1.6,0l-1-1.2A.9.9,0,0,1,46,20h2A.9.9,0,0,1,48.8,21.44Z" style="fill:#ffddb3"/><path d="M30.83,31.13A19.436,19.436,0,0,0,35,28c-2.94,2.94-4.8,11.28-5.58,15.5A25.2,25.2,0,0,0,29,48.09V59a17.811,17.811,0,0,1-11.85-4.16L17,55l-2,3h1a2.006,2.006,0,0,1,2,2v1a2.006,2.006,0,0,1-2,2H9c-1,0-2-1-2-3V57c.07-4.05.43-7.88,1.9-11.05A13.36,13.36,0,0,1,10,44a34.006,34.006,0,0,1,3.1-3.91A22.019,22.019,0,0,1,26,33,15.932,15.932,0,0,0,30.83,31.13Z" style="fill:#ffddb3"/><path d="M52,4.02a5,5,0,0,1-10,0c1.98-.81,2.69-.73,5-.73S50.02,3.21,52,4.02Z" style="fill:#c2a18b"/><path d="M13,40l.1.09A34.006,34.006,0,0,0,10,44a13.36,13.36,0,0,0-1.1,1.95A13.884,13.884,0,0,1,1,33C1,23,7,18,17,18,13,19.93,7,22.99,7,31,7,35.27,10.14,39.26,13,40Z" style="fill:#c2a18b"/><path d="M35.02,27.99a16.868,16.868,0,0,0,22.95.97L58,29c2.7,2.37,5,7.76,5,16V61a2.006,2.006,0,0,1-2,2H55a2.006,2.006,0,0,1-2-2V55l-.41-.12C49.62,57.06,45.3,58.71,39,59v2a2.006,2.006,0,0,1-2,2H31a2.006,2.006,0,0,1-2-2V48.09a25.2,25.2,0,0,1,.42-4.59C30.2,39.28,32.06,30.94,35,28Z" style="fill:#c2a18b"/><path d="M13,47a26.561,26.561,0,0,1,1.488-8.306c-.464.435-.927.9-1.388,1.4A34.006,34.006,0,0,0,10,44a13.36,13.36,0,0,0-1.1,1.95C7.43,49.12,7.07,52.95,7,57v1h8l2-3,.15-.16C14.46,52.51,13,49.55,13,47Z" style="fill:#f7d2a3"/><path d="M46,20h2a.9.9,0,0,1,.8,1.44l-1,1.2a1.069,1.069,0,0,1-1.6,0l-1-1.2A.9.9,0,0,1,46,20Z" style="fill:#ff8fa3"/><path d="M54.34,12.09a4.138,4.138,0,0,1,4.09,1.87A3.9,3.9,0,0,1,59,16.05C59,18.08,58,20,55,20s-3-2-8-2v-.02c-5,0-5,2.02-8,2.02s-4-2.02-4-4.03a3.892,3.892,0,0,1,.57-2.08,4.149,4.149,0,0,1,4.09-1.86,13.089,13.089,0,0,1,1.85.37A18.39,18.39,0,0,0,46,13h2a18.331,18.331,0,0,0,4.49-.54A13.089,13.089,0,0,1,54.34,12.09Z" style="fill:#c2a18b"/><path d="M58,29l-.03-.04c-.316.277-.65.537-.989.789a16.265,16.265,0,0,1-3.1,1.8A32.7,32.7,0,0,1,55,40v2a15.9,15.9,0,0,1-6.41,12.88A21.725,21.725,0,0,1,39,58.591V59c6.3-.29,10.62-1.94,13.59-4.12A15.9,15.9,0,0,0,59,42V40s0,.794-.314-1.648C59.5,40.939,60,41.155,60,45V61a2.006,2.006,0,0,1-2,2h3a2.006,2.006,0,0,0,2-2V45C63,36.76,60.7,31.37,58,29Z" style="fill:#d4b098"/><path d="M58,29l-.03-.04c-.316.277-.65.537-.989.789h0A16.238,16.238,0,0,1,53.9,31.537,16.927,16.927,0,0,1,47,33a16.519,16.519,0,0,1-11.98-5.01L35,28a9.47,9.47,0,0,0-1.505,2.1A13.786,13.786,0,0,0,35.02,31.99,16.519,16.519,0,0,0,47,37a16.88,16.88,0,0,0,7.662-1.824A16.069,16.069,0,0,0,57.97,32.96a15.33,15.33,0,0,0,1.78-1.877A10.006,10.006,0,0,0,58,29Z" style="fill:#b0927e"/><path d="M38.977,42.07c-.008.01-.015.022-.024.032C36.763,44.562,36,46.66,36,51V61a2.006,2.006,0,0,1-2,2h3a2.006,2.006,0,0,0,2-2V51c0-4.34.763-6.438,2.953-8.9a4.072,4.072,0,0,0,1.019-2.4A17.917,17.917,0,0,0,38.977,42.07Z" style="fill:#d4b098"/><path d="M10,60V58H7v2c0,2,1,3,2,3h3C11,63,10,62,10,60Z" style="fill:#ffebd1"/><path d="M13,47a26.561,26.561,0,0,1,1.488-8.306c-.464.435-.927.9-1.388,1.4q-.764.822-1.521,1.773A28.508,28.508,0,0,0,11,47a10.313,10.313,0,0,0,2.99,6.716,2.021,2.021,0,0,1,.216,2.511L13,58h2l2-3,.15-.16C14.46,52.51,13,49.55,13,47Z" style="fill:#e6c293"/><path d="M30.83,31.13A15.932,15.932,0,0,1,26,33a21.924,21.924,0,0,0-11.512,5.694,19.252,19.252,0,0,0-.748,2.449C16.264,39.911,20.878,37.707,23,37c.575-.192,1.113-.383,1.614-.568a1.994,1.994,0,0,1,2.563,2.542A18.288,18.288,0,0,0,26,45V58.767A20.475,20.475,0,0,0,29,59V48.09a25.2,25.2,0,0,1,.42-4.59C30.2,39.28,32.06,30.94,35,28A19.436,19.436,0,0,1,30.83,31.13Z" style="fill:#ffebd1"/><path d="M27.177,38.974A18.288,18.288,0,0,0,26,45V58.767A20.475,20.475,0,0,0,29,59V48.09a25.2,25.2,0,0,1,.42-4.59,69.793,69.793,0,0,1,2.34-9.333A15.875,15.875,0,0,1,27,36q-.771.147-1.529.333A1.984,1.984,0,0,1,27.177,38.974Z" style="fill:#e6c293"/><path d="M62.06,11.42,60.99,2.89c-.12-1.57-2.74-2.57-4.18-1.28L52,4.02a4.928,4.928,0,0,1-.23,1.4l3.2-1.85a2.039,2.039,0,0,1,3.4,1.2l.869,8A23.792,23.792,0,0,1,60,19.078a14.692,14.692,0,0,1-.723,4.584,13.9,13.9,0,0,1-3.364,5.55A12.5,12.5,0,0,1,47,33a16.623,16.623,0,0,0,10.97-4.04A15.361,15.361,0,0,0,60.59,26a14.03,14.03,0,0,0,1.52-2.96A13.771,13.771,0,0,0,63,18.15,22.2,22.2,0,0,0,62.06,11.42Z" style="fill:#ffebd1"/><path d="M37.266,28.3a12.82,12.82,0,0,1-1.3-1.866,13.545,13.545,0,0,1-1.243-2.775A14.692,14.692,0,0,1,34,19.078,17.945,17.945,0,0,1,34.869,13l.756-8.1a2.006,2.006,0,0,1,3.4-1.331l3.2,1.851A5.05,5.05,0,0,1,42,4.02L37.19,1.61C35.75.32,33,1.21,33,3.03l-.93,8.64A16.789,16.789,0,0,0,31,18.15a13.771,13.771,0,0,0,.89,4.89A13.612,13.612,0,0,0,33.42,26a13.81,13.81,0,0,0,1.6,1.99A16.519,16.519,0,0,0,47,33,12.619,12.619,0,0,1,37.266,28.3Z" style="fill:#ffebd1"/><path d="M42.937,5.831A7.28,7.28,0,0,1,47,5.147a7.275,7.275,0,0,1,4.062.684l.708-.409A4.928,4.928,0,0,0,52,4.02c-1.98-.81-2.69-.73-5-.73s-3.02-.08-5,.73a5.05,5.05,0,0,0,.231,1.4Z" style="fill:#d4b098"/><path d="M16.537,18.225,16.52,18C6.808,18.162,1,23.161,1,33A13.792,13.792,0,0,0,5.062,43.2,15.468,15.468,0,0,0,8.9,45.95,13.36,13.36,0,0,1,10,44c.266-.387.531-.758.8-1.118a32.286,32.286,0,0,1,2.3-2.792L13,40a7.033,7.033,0,0,1-3.26-2.167,9.321,9.321,0,0,0-1.711.931,1.981,1.981,0,0,1-2.83-.7A10.156,10.156,0,0,1,4,33C4,24.215,8.633,19.292,16.537,18.225Z" style="fill:#b0927e"/><path d="M56.06,4.67a2.956,2.956,0,0,0-1.6.491,1,1,0,0,0-.011,1.671l3,2A1,1,0,0,0,59,8V7.61A2.943,2.943,0,0,0,56.06,4.67Z" style="fill:#c2a18b"/><path d="M39.544,5.161A2.923,2.923,0,0,0,35,7.61V8a1,1,0,0,0,1.555.832l3-2a1,1,0,0,0-.011-1.671Z" style="fill:#c2a18b"/><path d="M39,6,36,8V7.61a1.935,1.935,0,0,1,1.94-1.94A1.966,1.966,0,0,1,39,6Z" style="fill:#ff8fa3"/><path d="M58,7.61V8L55,6a1.966,1.966,0,0,1,1.06-.33A1.935,1.935,0,0,1,58,7.61Z" style="fill:#ff8fa3"/><ellipse cx="60.004" cy="11.314" rx="0.413" ry="0.574" transform="translate(9.586 45.76) rotate(-45.02)" style="fill:#f6fafd"/><ellipse cx="21.258" cy="39.814" rx="0.825" ry="1.148" transform="translate(-21.931 26.708) rotate(-45.02)" style="fill:#f6fafd"/><ellipse cx="18.26" cy="40.8" rx="1.642" ry="2.286" transform="translate(-23.507 24.876) rotate(-45.02)" style="fill:#f6fafd"/><path d="M61.419,26.559a15.131,15.131,0,0,0,1.628-3.168A14.73,14.73,0,0,0,64,18.15a24.008,24.008,0,0,0-.961-6.955L61.987,2.814a3.065,3.065,0,0,0-2.051-2.5A3.63,3.63,0,0,0,56.253.77l-4.3,2.156a10.084,10.084,0,0,0-4.386-.637h-1.13a10.133,10.133,0,0,0-4.386.637L37.746.77A3.761,3.761,0,0,0,33.882.344,2.955,2.955,0,0,0,32,2.97l-.908,8.435A18.47,18.47,0,0,0,30,18.15a15.015,15.015,0,0,0,2.586,8.4,14.926,14.926,0,0,0,1.036,1.364,18.732,18.732,0,0,1-3.287,2.345,14.937,14.937,0,0,1-4.523,1.757A23.1,23.1,0,0,0,12.858,38.9C10.528,38.009,8,34.557,8,31c0-6.964,4.661-9.8,9.435-12.1A1,1,0,0,0,17,17C6.037,17,0,22.682,0,33A14.8,14.8,0,0,0,7.638,46.4,30.89,30.89,0,0,0,6,57v3c0,2.626,1.509,4,3,4h7a3,3,0,0,0,3-3V60a3.008,3.008,0,0,0-2.2-2.893l.557-.835A18.943,18.943,0,0,0,28,59.959V61a3,3,0,0,0,3,3h6a3,3,0,0,0,3-3V59.929a26.057,26.057,0,0,0,12-3.457V61a3,3,0,0,0,3,3h6a3,3,0,0,0,3-3V45c0-6.992-1.712-12.871-4.618-16.036A16.4,16.4,0,0,0,61.419,26.559ZM46.429,4.289h1.142a8.521,8.521,0,0,1,3.359.4,3.984,3.984,0,0,1-7.86,0A8.5,8.5,0,0,1,46.429,4.289Zm-13.451,7.8a1,1,0,0,0,.086-.314l.93-8.64A.973.973,0,0,0,34,3.03c0-.495.487-.766.7-.86A2.034,2.034,0,0,1,35.509,2a1.5,1.5,0,0,1,1.014.355,1.046,1.046,0,0,0,.219.149l4.3,2.153a6,6,0,0,0,11.924,0l4.3-2.152a1.046,1.046,0,0,0,.219-.149,1.685,1.685,0,0,1,1.713-.188A1.151,1.151,0,0,1,60,3.015l1.069,8.529a1.148,1.148,0,0,0,.046.2A21.706,21.706,0,0,1,62,18.15,12.76,12.76,0,0,1,61.4,22H55v2h5.6c-.173.345-.372.673-.575,1H55v2h3.528a14.275,14.275,0,0,1-1.216,1.207A15.87,15.87,0,0,1,35.738,27.3c-.092-.1-.172-.2-.26-.3H39V25H33.985c-.2-.326-.4-.654-.579-1H39V22H32.6a12.76,12.76,0,0,1-.6-3.85A15.572,15.572,0,0,1,32.978,12.091ZM2,33c0-8.993,4.928-12.464,10.336-13.564A13.3,13.3,0,0,0,6,31a11.187,11.187,0,0,0,5.449,9.448,36.577,36.577,0,0,0-2.277,2.991c-.252.372-.48.752-.692,1.134A12.876,12.876,0,0,1,2,33ZM17.805,54.084C15.423,52.021,14,49.372,14,47H12a11.614,11.614,0,0,0,3.825,7.96L14.465,57H12v2h4a1,1,0,0,1,1,1v1a1,1,0,0,1-1,1V60H14v2H12V60H10v2H9c-.484,0-1-.7-1-2V57.018c.06-3.468.322-7.445,1.811-10.654a12.438,12.438,0,0,1,1.013-1.8,32.888,32.888,0,0,1,3.011-3.8,20.95,20.95,0,0,1,12.35-6.785A16.939,16.939,0,0,0,31.319,32l.242-.137a61.774,61.774,0,0,0-3.124,11.452A26.11,26.11,0,0,0,28,48.09v9.87A16.684,16.684,0,0,1,17.805,54.084ZM62,61a1,1,0,0,1-1,1V60H59v2H57V60H55v2a1,1,0,0,1-1-1V55.025A16.83,16.83,0,0,0,60,42V40H58l0,2.059a14.95,14.95,0,0,1-6,12.015c-3,2.2-7.038,3.486-12,3.851V51c0-4.778.926-6.511,3.707-9.293l-1.414-1.414C38.963,43.623,38,46.024,38,51V61a1,1,0,0,1-1,1V60H35v2H33V60H31v2a1,1,0,0,1-1-1V48.09a24.265,24.265,0,0,1,.4-4.408c1.251-6.764,2.935-11.843,4.7-14.246a17.836,17.836,0,0,0,22.8.859C60.477,33.065,62,38.47,62,45Z"/><path d="M53.376,18H53.4a2.624,2.624,0,0,0,1.749-.833l.014-.015A2.6,2.6,0,0,0,56,15.378a1.358,1.358,0,0,0-.385-.96A1.381,1.381,0,0,0,54.624,14H54.6a2.638,2.638,0,0,0-1.763.848A2.6,2.6,0,0,0,52,16.622a1.358,1.358,0,0,0,.385.96A1.381,1.381,0,0,0,53.376,18Z"/><path d="M38.85,17.165A2.624,2.624,0,0,0,40.6,18h.025a1.357,1.357,0,0,0,.959-.387A1.381,1.381,0,0,0,42,16.622,2.92,2.92,0,0,0,39.4,14h-.025a1.357,1.357,0,0,0-.959.387,1.381,1.381,0,0,0-.414.989,2.6,2.6,0,0,0,.833,1.772Z"/><path d="M39,21a6.479,6.479,0,0,0,3.342-.932,7.954,7.954,0,0,1,3.372-1.029,1.948,1.948,0,0,0-1.538,1.088,1.821,1.821,0,0,0,.256,1.953l1,1.2a1.964,1.964,0,0,0,.355.327l-2.342,1.561,1.11,1.664L47,25.2l2.445,1.63,1.11-1.664-2.341-1.561a1.92,1.92,0,0,0,.354-.327l1-1.2a1.821,1.821,0,0,0,.255-1.952,1.944,1.944,0,0,0-1.228-1.04,7.95,7.95,0,0,1,3.066.991A6.519,6.519,0,0,0,55,21a4.616,4.616,0,0,0,5-4.95,4.886,4.886,0,0,0-.713-2.605A5.126,5.126,0,0,0,54.215,11.1a13.95,13.95,0,0,0-1.993.4A17.41,17.41,0,0,1,48,12H46a17.518,17.518,0,0,1-4.226-.564,13.907,13.907,0,0,0-1.99-.4,5.13,5.13,0,0,0-5.064,2.326A4.877,4.877,0,0,0,34,15.97C34,18.4,35.313,21,39,21Zm7.969,1-.837-1,1.769-.05Zm-.65-3c.16-.007.312-.017.487-.019A.953.953,0,0,0,47,19Zm-9.893-4.593a3.138,3.138,0,0,1,3.109-1.385,12.007,12.007,0,0,1,1.706.341A19.373,19.373,0,0,0,46,14h2a19.411,19.411,0,0,0,4.755-.576,12.05,12.05,0,0,1,1.709-.342,3.134,3.134,0,0,1,3.115,1.4A2.929,2.929,0,0,1,58,16.05C58,18.007,56.99,19,55,19a4.6,4.6,0,0,1-2.42-.7A10.413,10.413,0,0,0,47.205,17a.99.99,0,0,0-.2-.021A10.445,10.445,0,0,0,41.417,18.3,4.568,4.568,0,0,1,39,19a2.7,2.7,0,0,1-3-3.03A2.924,2.924,0,0,1,36.426,14.407Z"/><path d="M54.445,6.832l3,2A1,1,0,0,0,59,8V7.61a2.923,2.923,0,0,0-4.544-2.449,1,1,0,0,0-.011,1.671Z"/><path d="M35.528,8.882a1,1,0,0,0,1.027-.05l3-2a1,1,0,0,0-.011-1.671A2.923,2.923,0,0,0,35,7.61V8A1,1,0,0,0,35.528,8.882Z"/></g></svg>
