<svg height="512" viewBox="0 0 64 64" width="512" xmlns="http://www.w3.org/2000/svg"><g id="_23-fox" data-name="23-fox"><path d="m33 21a5.084 5.084 0 0 1 .52.15 1 1 0 0 1 .28 1.45l-1 1.33a.993.993 0 0 1 -1.6 0l-1-1.33a1 1 0 0 1 .28-1.45 5.067 5.067 0 0 1 .52-.15z" fill="#333940"/><path d="m37.001 33-5 7-1-3h-2.999v-4z" fill="#eef2fa"/><path d="m33.8 22.6a1 1 0 0 0 -.28-1.45c2.191.65 4.48 2.24 4.48 3.85 0 2.21-2.69 4-6 4s-6-1.79-6-4c0-1.61 2.29-3.2 4.48-3.85a1 1 0 0 0 -.28 1.45l1 1.33a.993.993 0 0 0 1.6 0z" fill="#eef2fa"/><path d="m26.952 11.82a1.036 1.036 0 0 1 -.73 1.38 8.789 8.789 0 0 0 -3.11.73c-.6.29-1.22-.36-1.09-1.15l1.07-6.7a1.164 1.164 0 0 1 1.06-1.08 1.12 1.12 0 0 1 1.01.88z" fill="#c48958"/><path d="m41.981 12.78c.13.79-.49 1.44-1.09 1.15a8.789 8.789 0 0 0 -3.11-.73 1.036 1.036 0 0 1 -.73-1.38l1.79-5.94a1.12 1.12 0 0 1 1.01-.88 1.164 1.164 0 0 1 1.06 1.08z" fill="#c48958"/><path d="m40.911 6.08a1.164 1.164 0 0 0 -1.06-1.08 1.12 1.12 0 0 0 -1.01.88l-1.79 5.94a1.036 1.036 0 0 0 .73 1.38 8.789 8.789 0 0 1 3.11.73c.6.29 1.22-.36 1.09-1.15zm-16.759-1.08a1.164 1.164 0 0 0 -1.06 1.08l-1.07 6.7c-.13.79.49 1.44 1.09 1.15a8.789 8.789 0 0 1 3.11-.73 1.036 1.036 0 0 0 .73-1.38l-1.79-5.94a1.12 1.12 0 0 0 -1.01-.88zm6.33 16.15c-2.19.65-4.482 2.24-4.482 3.85 0 2.21 2.69 4 6 4s6-1.79 6-4c0-1.61-2.29-3.2-4.48-3.85a.908.908 0 0 0 -.52-.15h-2a.9.9 0 0 0 -.518.15zm3.649-10.01a24.265 24.265 0 0 1 2.99-8.81 2.852 2.852 0 0 1 4.73-.14 22.231 22.231 0 0 1 4.149 12.94v5.87h.03l.77 3.99v.01a10.585 10.585 0 0 1 .2 2.03v.97a6.054 6.054 0 0 1 -6 5h-17.918a6.052 6.052 0 0 1 -6.082-5v-.97a10.585 10.585 0 0 1 .2-2.03v-.01l.772-3.99h.028v-5.87a22.254 22.254 0 0 1 4.15-12.94 2.852 2.852 0 0 1 4.73.14 24.265 24.265 0 0 1 2.99 8.81 2.149 2.149 0 0 0 4.259 0z" fill="#ffb13b"/><path d="m32 40 5-7h4l8.37 15.5c1.06 1.63 1.63 2.54 1.63 4.5v2c0 4.97-6.13 8-11 8h-10a40.628 40.628 0 0 1 -10.03-.87l.03-.13 3-5-8-3 9-3-5-3 5-3-7-2 3.829-3.83c.38.03.76.07 1.13.12l.041-.29 2-6h4v4h3z" fill="#ffb13b"/><path d="m24 45-5 3 5 3-9 3 8 3-3 5-.03.13c-3.317-.89-3.187-2.13-6.97-2.13-5 0-5 2-10 2-1.46 0-2-2-2-4v-2s-.666-17 16-17c1.339 0 2.609.06 3.829.17l-3.829 3.83z" fill="#dce1eb"/><path d="m42.8 55.392a5.006 5.006 0 0 1 -1.98-3.063 10.688 10.688 0 0 0 -.82-2.4c-2.17-4.61-7.97-9.44-18.039-10.64-.37-.05-.75-.09-1.13-.12l-3.831 3.831 7 2-5 3 5 3-9 3 8 3-3 5-.03.13a40.628 40.628 0 0 0 10.03.87h10c3.642 0 7.987-1.7 9.947-4.629-2.134.284-5.213-1.593-7.147-2.979z" fill="#ffb13b"/><path d="m38 36a2 2 0 0 0 -2 2l-1 6-.01.059a15.9 15.9 0 0 1 5.01 5.871v-11.93a2 2 0 0 0 -2-2z" fill="#c48958"/><path d="m49.37 48.5-8.37-15.5h-4l-5 7-1-3h-3v-4h-4l-2 6-.04.29a26.992 26.992 0 0 1 13.029 4.769l.011-.059 1-6a2 2 0 0 1 4 0v11.93a10.688 10.688 0 0 1 .82 2.4 5.006 5.006 0 0 0 1.98 3.063c1.933 1.386 5.012 3.263 7.147 2.979a5.99 5.99 0 0 0 1.053-3.372v-2c0-1.96-.57-2.87-1.63-4.5z" fill="#ff9500"/><g fill="#f7faff"><path d="m41 25v1h5.947c-.034-.335-.083-.667-.148-1z"/><path d="m41 29h5.746a5.678 5.678 0 0 0 .254-1h-6z"/><path d="m23 25h-5.8c-.065.333-.114.665-.148 1h5.948z"/><path d="m23 28h-6a5.592 5.592 0 0 0 .253 1h5.747z"/></g><path d="m37.791 24.18a2.017 2.017 0 0 1 .209.82c0 2.21-2.69 4-6 4s-6-1.79-6-4a2 2 0 0 1 .21-.82 3.241 3.241 0 0 0 -1.21 2.234c0 2.534 3.14 4.586 7 4.586s7-2.052 7-4.586a3.241 3.241 0 0 0 -1.209-2.234z" fill="#ff9500"/><path d="m25.01 8a1.627 1.627 0 0 1 .865.246l-.713-2.366a1.12 1.12 0 0 0 -1.01-.88 1.164 1.164 0 0 0 -1.06 1.08l-1.07 6.7a1.1 1.1 0 0 0 .428 1.106l1.075-4.806a1.472 1.472 0 0 1 1.485-1.08z" fill="#9e6f46"/><path d="m40.478 9.08 1.075 4.806a1.1 1.1 0 0 0 .428-1.106l-1.07-6.7a1.164 1.164 0 0 0 -1.06-1.08 1.12 1.12 0 0 0 -1.01.88l-.713 2.366a1.624 1.624 0 0 1 .865-.246 1.472 1.472 0 0 1 1.485 1.08z" fill="#9e6f46"/><path d="m17.02 44c1.341 0 2.612.06 3.833.17.131.01.258.028.388.041l-4.241-1.211 3.829-3.83c-1.217-.11-2.487-.17-3.829-.17-16.666 0-16 17-16 17v2a9.728 9.728 0 0 0 .072 1.154c.384-4.397 2.67-15.154 15.948-15.154z" fill="#eef2fa"/><path d="m21.241 44.211c.249.024.5.046.744.079 9.236 1.1 13.884 5.247 16.436 9.481a10.229 10.229 0 0 0 2.159 2.561c1.674 1.411 5.317 3.387 7.921 3.622a8.107 8.107 0 0 0 1.447-1.583c-2.135.284-5.214-1.593-7.147-2.979a5.006 5.006 0 0 1 -1.98-3.063 10.688 10.688 0 0 0 -.82-2.4c-2.17-4.61-7.97-9.44-18.039-10.64-.37-.05-.75-.09-1.13-.12l-3.832 3.831z" fill="#f5cd62"/><path d="m31 37h-3v1a1 1 0 0 0 1 1h1.279a1 1 0 0 1 .948.684l.182.543a1 1 0 0 0 1.737.3l5.854-7.527h-2l-5 7z" fill="#fe8205"/><path d="m19 28.312v-.912a10.674 10.674 0 0 1 .174-1.9v-.009l.667-3.741h.026v-5.5a22.051 22.051 0 0 1 3.6-12.131 2.371 2.371 0 0 1 4.1.131 22.522 22.522 0 0 1 2.084 5.54 24.057 24.057 0 0 0 -2.769-7.46 2.852 2.852 0 0 0 -4.73-.14 22.254 22.254 0 0 0 -4.152 12.94v5.87h-.03l-.77 3.99v.01a10.585 10.585 0 0 0 -.2 2.03v.97a6.052 6.052 0 0 0 6.079 5h1.189a5.377 5.377 0 0 1 -5.268-4.688z" fill="#f5cd62"/><path d="m32 14.25a1.915 1.915 0 0 0 1.846-1.744c.031-.262.075-.529.117-.795a2.138 2.138 0 0 1 -3.925 0c.042.266.086.533.117.8a1.914 1.914 0 0 0 1.845 1.739z" fill="#f5cd62"/><path d="m46.8 25v-.01l-.77-3.99h-.03v-5.87a22.231 22.231 0 0 0 -4.149-12.94 2.852 2.852 0 0 0 -4.73.14 24.032 24.032 0 0 0 -2.769 7.46 22.566 22.566 0 0 1 2.086-5.543 2.371 2.371 0 0 1 4.1-.131 21.63 21.63 0 0 1 2.678 5.765 22.376 22.376 0 0 1 .919 6.366v5.5h.026l.667 3.741v.012a10.674 10.674 0 0 1 .172 1.9v.909a5.382 5.382 0 0 1 -5.2 4.691h1.2a6.054 6.054 0 0 0 6-5v-.97a10.585 10.585 0 0 0 -.2-2.03z" fill="#f5cd62"/><path d="m24 33-2 6-.04.29c.533.063 1.041.147 1.55.23l2.248-6.52z" fill="#ffb13b"/><path d="m49.37 48.5-8.37-15.5h-1l7.6 15.5a7.825 7.825 0 0 1 1.4 4.5v2a6.659 6.659 0 0 1 -.826 3.211 4.708 4.708 0 0 0 1.774.16 5.99 5.99 0 0 0 1.052-3.371v-2c0-1.96-.57-2.87-1.63-4.5z" fill="#ffb13b"/><path d="m35.573 35 1.428-2h-8.999v2z" fill="#dce1eb"/><path d="m40.981 35-.98-2h-1l-1.556 2z" fill="#fe8205"/><path d="m28.002 35v-2h-2.244l-.689 2z" fill="#fe8205"/><path d="m37.445 35 1.556-2h-2l-1.428 2z" fill="#fe6a16"/><path d="m35.634 40.2-.634 3.8-.01.059a15.9 15.9 0 0 1 5.01 5.871v-6.767a7.558 7.558 0 0 0 -4.366-2.963z" fill="#9e6f46"/><ellipse cx="31.259" cy="44.814" fill="#f6fafd" rx=".825" ry="1.148" transform="matrix(.707 -.707 .707 .707 -22.535 35.242)"/><ellipse cx="44.258" cy="15.814" fill="#f6fafd" rx=".825" ry="1.148" transform="matrix(.707 -.707 .707 .707 1.785 35.937)"/><ellipse cx="43.004" cy="18.314" fill="#f6fafd" rx=".413" ry=".574" transform="matrix(.707 -.707 .707 .707 -.35 35.783)"/><ellipse cx="34.262" cy="47.8" fill="#f6fafd" rx="1.642" ry="2.285" transform="matrix(.707 -.707 .707 .707 -23.767 38.24)"/><path d="m37.4 21a2.589 2.589 0 0 0 1.76-.846c.925-.926 1.114-2.085.447-2.755s-1.828-.481-2.756.448-1.12 2.084-.451 2.753a1.376 1.376 0 0 0 1 .4z"/><path d="m24.4 17.4c-.669.669-.48 1.829.448 2.756a2.587 2.587 0 0 0 1.759.844 1.38 1.38 0 0 0 1-.4c.666-.669.477-1.828-.449-2.755s-2.089-1.116-2.758-.445z"/><path d="m25 25c0 2.8 3.074 5 7 5s7-2.2 7-5c0-2.3-2.887-4.115-5.217-4.822a2 2 0 0 0 -.51-.14l-.044-.012v.006a1.924 1.924 0 0 0 -.229-.032h-2a1.9 1.9 0 0 0 -.228.032v-.006l-.043.012a1.932 1.932 0 0 0 -.507.139c-2.33.705-5.222 2.516-5.222 4.823zm7-1.666-.979-1.3c.04-.011.079-.025.119-.035h1.721c.038.01.076.023.115.034zm-2.835-.56a2.035 2.035 0 0 0 .235.425l1 1.335a1.987 1.987 0 0 0 .6.521v1.945h2v-1.944a2 2 0 0 0 .6-.523l1-1.334a2.01 2.01 0 0 0 .235-.425c1.241.668 2.165 1.549 2.165 2.226 0 1.626-2.29 3-5 3s-5-1.374-5-3c0-.678.926-1.559 2.166-2.226z"/><path d="m50.248 48.029-7.674-14.217a6.913 6.913 0 0 0 5.414-5.66.954.954 0 0 0 .012-.152v-.975a11.668 11.668 0 0 0 -.214-2.222l-.778-3.994c0-.012-.005-.025-.008-.037v-5.638a23.145 23.145 0 0 0 -4.332-13.522 3.855 3.855 0 0 0 -6.392.18 25.49 25.49 0 0 0 -3.142 9.227 1.145 1.145 0 0 1 -2.266 0 25.5 25.5 0 0 0 -3.141-9.227 3.854 3.854 0 0 0 -6.392-.178 23.131 23.131 0 0 0 -4.335 13.52v5.641c0 .011 0 .022-.007.033l-.775 3.992a11.617 11.617 0 0 0 -.218 2.227v.973a.954.954 0 0 0 .012.152 6.98 6.98 0 0 0 6.606 5.828l-1.413 4.242c-1.339-.13-2.724-.222-4.205-.222-5.138 0-9.234 1.552-12.177 4.611-5.078 5.283-4.832 13.098-4.823 13.389v2c0 3.131 1.121 5 3 5a12.517 12.517 0 0 0 5.37-1.071 10.666 10.666 0 0 1 4.63-.929 6.488 6.488 0 0 1 3.722.888c1.795.94 4.025 2.112 13.278 2.112h10c5.03 0 12-3.128 12-9v-2a7.913 7.913 0 0 0 -1.752-4.971zm-31.901-19.029h4.653v-2h-5a9.547 9.547 0 0 1 .058-1h4.942v-2h-4.589l.5-2.595a.985.985 0 0 0 .089-.405v-5.866a21.147 21.147 0 0 1 3.96-12.358 1.86 1.86 0 0 1 1.511-.776 1.838 1.838 0 0 1 1.564.86 23.219 23.219 0 0 1 2.849 8.411 3.145 3.145 0 0 0 6.234 0 23.194 23.194 0 0 1 2.85-8.411 1.838 1.838 0 0 1 1.564-.86 1.86 1.86 0 0 1 1.509.776 21.148 21.148 0 0 1 3.959 12.358v5.866a.957.957 0 0 0 .084.392l.508 2.608h-4.592v2h4.94a9.843 9.843 0 0 1 .06 1h-5v2h4.654a5.174 5.174 0 0 1 -4.732 3h-17.842a5.174 5.174 0 0 1 -4.733-3zm10.653 5h6.056l-2.729 3.82-.378-1.136a1 1 0 0 0 -.949-.684h-2zm-4.28 0h2.28v3a1 1 0 0 0 1 1h2.279l.771 2.316a.987.987 0 0 0 .466.55 30.536 30.536 0 0 0 -8.28-2.412zm-11.72 25a12.522 12.522 0 0 0 -5.371 1.071 10.668 10.668 0 0 1 -4.629.929c-.57 0-1-1.29-1-3v-2.038c0-.072-.216-7.317 4.272-11.976 2.553-2.645 6.161-3.986 10.728-3.986.53 0 1.026.033 1.537.051l-2.237 2.242a1 1 0 0 0 .433 1.669l4.782 1.366-3.024 1.815a1 1 0 0 0 0 1.714l3.136 1.882-6.936 2.313a1 1 0 0 0 -.036 1.885l6.876 2.578-2.053 3.415a11.834 11.834 0 0 1 -1.824-.814 8.392 8.392 0 0 0 -4.654-1.116zm37-4c0 4.507-5.912 7-10 7h-10a48.269 48.269 0 0 1 -8.5-.56l2.355-3.925a1 1 0 0 0 -.505-1.452l-5.35-2.007 6.32-2.108a1 1 0 0 0 .2-1.8l-3.575-2.148 3.572-2.143a1 1 0 0 0 -.241-1.819l-5.365-1.533 2.271-2.271c12.795 1.335 18.818 8.652 18.818 13.766h2a10.659 10.659 0 0 0 -1-4.3v-12.7h-2v9.484a18.089 18.089 0 0 0 -2.921-2.878l.907-5.442-1.972-.328-.749 4.49a23.982 23.982 0 0 0 -2.6-1.393 1.024 1.024 0 0 0 .191.056 1.053 1.053 0 0 0 .144.011 1 1 0 0 0 .813-.419l4.702-6.581h2.885l8.127 15.051c1.049 1.598 1.473 2.311 1.473 3.949z"/><path d="m37.711 14.2a7.713 7.713 0 0 1 2.743.632 1.666 1.666 0 0 0 1.747-.174 2.124 2.124 0 0 0 .771-2.034l-1.072-6.697a2.162 2.162 0 0 0 -2.048-1.927 2.113 2.113 0 0 0 -1.969 1.587l-1.783 5.949a2.209 2.209 0 0 0 .28 1.875 1.783 1.783 0 0 0 1.331.789zm.3-2.087 1.789-5.95c.017-.059.04-.1.046-.13a.514.514 0 0 1 .079.209l1.063 6.638a10 10 0 0 0 -2.988-.664.229.229 0 0 1 .012-.104z"/><path d="m26.291 14.2a1.783 1.783 0 0 0 1.336-.788 2.209 2.209 0 0 0 .28-1.875l-1.787-5.95a2.113 2.113 0 0 0 -1.97-1.587 2.163 2.163 0 0 0 -2.05 1.926l-1.073 6.7a2.124 2.124 0 0 0 .771 2.034 1.683 1.683 0 0 0 1.017.34 1.7 1.7 0 0 0 .734-.17 7.712 7.712 0 0 1 2.742-.63zm-2.212-7.959c.018-.11.059-.185.053-.223a.4.4 0 0 1 .072.145l1.787 5.949a.229.229 0 0 1 .009.1 10 10 0 0 0 -2.984.664z"/></g></svg>