<?xml version="1.0"?>
<svg xmlns="http://www.w3.org/2000/svg" viewBox="0 0 64 64" width="512" height="512"><g id="_10-taco_toucan" data-name="10-taco toucan"><path d="M32.98,18a1.809,1.809,0,0,1-1.07,1.8.37.37,0,0,1-.11.05C27.17,21.53,12.91,23,10.47,23A4.312,4.312,0,0,0,7.1,24.41,1.78,1.78,0,0,1,5.75,25H4.79a1.954,1.954,0,0,1-1.9-2c.95-2,12.4-7,28.11-7a2.224,2.224,0,0,1,1.76,1.27A1.706,1.706,0,0,1,32.98,18Z" style="fill:#fe6a16"/><path d="M37,4c-3.91,2.36-6,6.64-6,12C15.29,16,3.84,21,2.89,23A1.946,1.946,0,0,1,1,21C1,11.6,13.41,1,32.26,1,36,1,37,2.89,37,4Z" style="fill:#f5cd62"/><path d="M37.01,4c11.44,0,13.78,3.64,13.97,8.31C50.5,15.48,42.64,18,33,18h-.02a1.706,1.706,0,0,0-.22-.73A2.224,2.224,0,0,0,31,16c0-5.36,2.09-9.64,6-12ZM43,10a3,3,0,1,0-3,3A3,3,0,0,0,43,10Z" style="fill:#f5cd62"/><path d="M31.91,19.8A1.809,1.809,0,0,0,32.98,18H33c9.64,0,17.5-2.52,17.98-5.69.02.23.02.46.02.69,0,5-6,7-4,8s2,5,2,5l.11.09C42.29,34.89,37.85,40.37,37,48c0,1.07.04,2.07.13,2.99L37,51s-3,3-9,3c-5.56,0-10.27-6.02-10.92-6.89C17.97,36.25,26.48,29.62,35,23c-1,0-3-1.34-3-3Z" style="fill:#eef2fa"/><path d="M28,54c6,0,9-3,9-3l.13-.01c.52,5.61,2.57,8.75,5.68,10.4C41.92,62.31,37.87,63,33,63c-8.84,0-16-7.92-16-14,0-.65.03-1.28.08-1.89C17.73,47.98,22.44,54,28,54Z" style="fill:#414952"/><path d="M49.11,26.09,49,26s0-4-2-5,4-3,4-8c0-.23,0-.46-.02-.69C50.79,7.64,48.45,4,37.01,4A15.235,15.235,0,0,1,45,2c9,0,14,5.71,14,14,0,0-7,32,4,31,0,0-1,16-12,16a17.333,17.333,0,0,1-8.19-1.61c-3.11-1.65-5.16-4.79-5.68-10.4C37.04,50.07,37,49.07,37,48,37.85,40.37,42.29,34.89,49.11,26.09Z" style="fill:#333940"/><path d="M40,7a3,3,0,1,1-3,3A3,3,0,0,1,40,7Z" style="fill:#009dff"/><path d="M32.671,19.143A1.8,1.8,0,0,0,32.98,18a1.706,1.706,0,0,0-.22-.73A2.224,2.224,0,0,0,31,16C15.29,16,3.84,21,2.89,23a2.048,2.048,0,0,0,.527,1.376C5.99,22.12,16.739,18,31,18A2.159,2.159,0,0,1,32.671,19.143Z" style="fill:#d13400"/><path d="M33.043,8A11.583,11.583,0,0,1,37,4c0-1.11-1-3-4.74-3C13.41,1,1,11.6,1,21a1.946,1.946,0,0,0,1.89,2,2.109,2.109,0,0,1,.525-.622C7.146,14.861,18.031,8.069,33.043,8Z" style="fill:#f5d882"/><path d="M46.98,13.31c.02.23.02.46.02.69a5.975,5.975,0,0,1-.313,1.9c2.5-.975,4.086-2.219,4.293-3.586C50.79,7.64,48.45,4,37.01,4H37a11.886,11.886,0,0,0-1.486,1.073C44.784,5.584,46.805,9.006,46.98,13.31Z" style="fill:#ffc247"/><path d="M49,26s0-4-2-5,4-3,4-8c0-.23,0-.46-.02-.69-.207,1.367-1.791,2.611-4.293,3.586-1.2,3.631-5.411,5.242-3.687,6.1a6.291,6.291,0,0,1,2.469,2.779,1.987,1.987,0,0,1-.239,2.164l-.12.147C38.29,35.89,33.85,41.37,33,49c0,1.07.04,2.07.13,2.99.036.392.082.769.133,1.137A10.782,10.782,0,0,0,37,51l.13-.01C37.04,50.07,37,49.07,37,48c.85-7.63,5.29-13.11,12.11-21.91Z" style="fill:#dce1eb"/><path d="M33.263,53.127c.68,4.9,2.654,7.728,5.547,9.263a1.794,1.794,0,0,1-.411.294c2.25-.288,3.885-.75,4.411-1.294-3.11-1.65-5.16-4.79-5.68-10.4L37,51A10.782,10.782,0,0,1,33.263,53.127Z" style="fill:#23272b"/><path d="M59,16C59,7.71,54,2,45,2a19.188,19.188,0,0,0-2.544.169c5.581.721,9.846,3.36,11.63,7.8a11.936,11.936,0,0,1,.484,6.948C53.063,23.942,48.612,47.853,58,47c0,0-.887,14.144-10.138,15.832A27.679,27.679,0,0,0,51,63c11,0,12-16,12-16C52,48,59,16,59,16Z" style="fill:#414952"/><path d="M7.655,8.938C3.387,12.527,1,16.878,1,21a2.1,2.1,0,0,0,.144.765C4.709,20.487,10.749,14.18,7.655,8.938Z" style="fill:#414952"/><path d="M34,18c1-1,0-2.847,0-4,0-6.545,6-7,4.937-9.96C38.324,4.015,37.686,4,37.01,4H37c-3.91,2.36-6,6.64-6,12a2.224,2.224,0,0,1,1.76,1.27,1.706,1.706,0,0,1,.22.73H33C33.788,18,33.238,18.033,34,18Z" style="fill:#333940"/><path d="M36.473,19.867c-.381-.579-2.1-1.183-2.473-1.867-.762.033-.212,0-1,0h-.02a1.809,1.809,0,0,1-1.07,1.8L32,20c0,1.66,2,3,3,3l.43-.143A2,2,0,0,0,36.473,19.867Z" style="fill:#414952"/><path d="M21.08,47.11c.81-9.885,7.933-16.265,15.631-22.324A1,1,0,0,0,36.094,23H35c-8.52,6.62-17.03,13.25-17.92,24.11a23.257,23.257,0,0,0,4.256,4.272A9.16,9.16,0,0,1,21,49C21,48.35,21.03,47.72,21.08,47.11Z" style="fill:#f7faff"/><path d="M21.336,51.382h0A23.257,23.257,0,0,1,17.08,47.11c-.05.61-.08,1.24-.08,1.89,0,6.08,7.16,14,16,14,.9,0,1.768-.024,2.595-.068C28.51,62.26,22.753,56.619,21.336,51.382Z" style="fill:#555a66"/><ellipse cx="25.258" cy="4.814" rx="0.825" ry="1.148" transform="translate(3.999 19.277) rotate(-45.02)" style="fill:#f6fafd"/><ellipse cx="30.26" cy="3.8" rx="1.642" ry="2.286" transform="translate(6.182 22.519) rotate(-45.02)" style="fill:#f6fafd"/><path d="M63.7,46.283A1,1,0,0,0,62.909,46a3.212,3.212,0,0,1-2.871-1.1c-4.164-4.718-1.456-22.312-.061-28.692A1.024,1.024,0,0,0,60,16C60,6.748,54.252,1,45,1a16.875,16.875,0,0,0-7.362,1.534C37.014,1.267,35.476,0,32.26,0,12.963,0,0,10.858,0,21a2.982,2.982,0,0,0,2.022,2.846A2.91,2.91,0,0,0,4.79,26h.96a2.779,2.779,0,0,0,2.1-.929A3.334,3.334,0,0,1,10.47,24c2.3,0,15.372-1.325,20.733-2.908a4.673,4.673,0,0,0,1.8,2.2C24.912,29.6,16.96,36.324,16.083,47.028,16.027,47.716,16,48.361,16,49c0,8.078,9.348,15,17,15,3.543,0,7.988-.394,9.9-1.456A18.838,18.838,0,0,0,51,64c11.8,0,12.987-16.768,13-16.938A1,1,0,0,0,63.7,46.283ZM33.719,16.988c-.031-.069-.049-.136-.086-.2a3.607,3.607,0,0,0-1.6-1.541c.186-4.57,2.031-8.177,5.27-10.239,11.213.065,12.487,3.7,12.667,7.209C49.542,14.429,42.858,16.864,33.719,16.988Zm-2.264,1.924.008,0,0,0Zm5.55-14.9L37,4h.005ZM32.26,2c2.416,0,3.37.84,3.642,1.553C32.336,5.982,30.289,10,30.05,15.017,16.231,15.2,5.164,19.261,2.5,21.9A1.018,1.018,0,0,1,2,21C2,9.8,17.947,2,32.26,2ZM6.346,23.753a.782.782,0,0,1-.6.247H4.79a.914.914,0,0,1-.855-.753C5.353,21.729,15.512,17,31,17a1.327,1.327,0,0,1,.881.747.731.731,0,0,1,.1.332.812.812,0,0,1-.479.807l-.062.03C26.942,20.54,12.764,22,10.47,22A5.28,5.28,0,0,0,6.346,23.753Zm29.267.037A1,1,0,0,0,35,22a2.75,2.75,0,0,1-1.959-1.757,2.826,2.826,0,0,0,.812-1.256c5.917-.095,11.9-1.163,15.3-3.173a12.763,12.763,0,0,1-2.081,2.437c-.9.874-1.608,1.565-1.468,2.471a1.577,1.577,0,0,0,.945,1.173c1.056.527,1.42,2.853,1.443,4l-.4.519c-6.466,8.335-10.738,13.841-11.588,21.476A1.032,1.032,0,0,0,36,48c0,.906.036,1.708.091,2.467A12.788,12.788,0,0,1,28,53c-4.67,0-8.814-4.832-9.876-6.175C19.139,36.608,27.138,30.376,35.613,23.79Zm-17.556,26C20.164,52,23.8,55,28,55a15.362,15.362,0,0,0,8.353-2.26c.618,3.854,2.077,6.655,4.419,8.493A32.267,32.267,0,0,1,33,62C24.724,62,18.634,54.979,18.057,49.788ZM51,62a16.154,16.154,0,0,1-7.722-1.493c-3.057-1.623-4.695-4.676-5.153-9.614C38.044,50.057,38,49.1,38,48.056c.8-7.049,4.933-12.371,11.175-20.417l.965-1.246C51.293,24.9,52.516,23.315,53.8,21.6l-1.6-1.2c-.857,1.144-1.675,2.213-2.474,3.252a5.467,5.467,0,0,0-1.9-3.32c.188-.2.44-.448.647-.648C49.791,18.4,52,16.251,52,13c0-.244,0-.485-.018-.691.008-.1.018-.209.018-.309h-.043c-.313-5.176-3.4-7.92-10.094-8.733A17.72,17.72,0,0,1,45,3c8.1,0,12.958,4.818,13,12.894-.422,1.964-5.01,24.049.538,30.335a5.051,5.051,0,0,0,3.35,1.763C61.437,51.418,59.362,62,51,62Z"/><path d="M40,6a4,4,0,1,0,4,4A4,4,0,0,0,40,6Zm0,6a1.983,1.983,0,0,1-.821-.181,3.125,3.125,0,0,0,.971-.654l.014-.015A2.6,2.6,0,0,0,41,9.378,1.33,1.33,0,0,0,39.74,8.026,2.026,2.026,0,0,1,40,8a2,2,0,0,1,0,4Z"/></g></svg>
