<?xml version="1.0"?>
<svg xmlns="http://www.w3.org/2000/svg" viewBox="0 0 64 64" width="512" height="512"><g id="_26-squid" data-name="26-squid"><path d="M8.02,30a19.192,19.192,0,0,0,2.58,8.99C6.23,38.78,3,35.26,3,30.27V28.75A1.661,1.661,0,0,1,4.55,27h.13a1.58,1.58,0,0,1,1.43,1.08C6.44,28.93,7,30,8,30Z" style="fill:#725cb5"/><path d="M61,28.75v1.52c0,4.99-3.23,8.51-7.6,8.72A19.192,19.192,0,0,0,55.98,30H56c1,0,1.56-1.07,1.89-1.92A1.58,1.58,0,0,1,59.32,27h.13A1.661,1.661,0,0,1,61,28.75Z" style="fill:#725cb5"/><path d="M10.6,38.99A19.192,19.192,0,0,1,8.02,30c-.01-.33-.02-.66-.02-1C8,15.75,18.75,1,32,1S56,15.75,56,29c0,.34-.01.67-.02,1a19.192,19.192,0,0,1-2.58,8.99c-.08.14-.17.28-.25.41A3.527,3.527,0,0,0,56,41c2,0,3.11-1.78,3.63-2.96A1.686,1.686,0,0,1,61.18,37h.14A1.677,1.677,0,0,1,63,38.68V41a8,8,0,0,1-8,8H52a12.186,12.186,0,0,1-7-2c.88,1.38.6,2.41,1,4,0,0,1,4,4,4,2,0,3.11-1.78,3.63-2.96A1.686,1.686,0,0,1,55.18,51h.14A1.677,1.677,0,0,1,57,52.68V54a9.026,9.026,0,0,1-9,9H46c-7.74,0-12-3-14-10-2,7-6.26,10-14,10H16a9.026,9.026,0,0,1-9-9V52.68A1.677,1.677,0,0,1,8.68,51h.14a1.686,1.686,0,0,1,1.55,1.04C10.89,53.22,12,55,14,55c3,0,4-4,4-4,.4-1.59.12-2.62,1-4a12.186,12.186,0,0,1-7,2H9a8,8,0,0,1-8-8V38.68A1.677,1.677,0,0,1,2.68,37h.14a1.686,1.686,0,0,1,1.55,1.04C4.89,39.22,6,41,8,41a3.527,3.527,0,0,0,2.85-1.6C10.77,39.27,10.68,39.13,10.6,38.99Z" style="fill:#e0b8ff"/><path d="M5,30.75A1.661,1.661,0,0,1,6.55,29h0a5.777,5.777,0,0,1-.444-.92A1.58,1.58,0,0,0,4.68,27H4.55A1.661,1.661,0,0,0,3,28.75v1.52a8.683,8.683,0,0,0,3.572,7.386A9.418,9.418,0,0,1,5,32.27Z" style="fill:#9d87e0"/><path d="M59.45,27h-.13a1.58,1.58,0,0,0-1.43,1.08,5.777,5.777,0,0,1-.444.92h0A1.661,1.661,0,0,1,59,30.75v1.52a9.418,9.418,0,0,1-1.572,5.386A8.683,8.683,0,0,0,61,30.27V28.75A1.661,1.661,0,0,0,59.45,27Z" style="fill:#9d87e0"/><path d="M32,7C44.4,7,54.452,22.75,54.452,36c0,.321-.009.632-.018.944A19.691,19.691,0,0,0,55.98,30c.01-.33.02-.66.02-1C56,15.75,45.25,1,32,1S8,15.75,8,29c0,.34.01.67.02,1a19.691,19.691,0,0,0,1.546,6.944c-.009-.312-.018-.623-.018-.944C9.548,22.75,19.605,7,32,7Z" style="fill:#f5e1ff"/><path d="M55,46H52a11.524,11.524,0,0,1-5.576-1.23,1,1,0,0,0-1.424.9V47a12.186,12.186,0,0,0,7,2h3a8,8,0,0,0,8-8V38.68a1.7,1.7,0,0,0-.023-.227A7.991,7.991,0,0,1,55,46Z" style="fill:#9d87e0"/><path d="M12,46H9a7.991,7.991,0,0,1-7.977-7.547A1.7,1.7,0,0,0,1,38.68V41a8,8,0,0,0,8,8h3a12.186,12.186,0,0,0,7-2V45.675a1,1,0,0,0-1.424-.9A11.524,11.524,0,0,1,12,46Z" style="fill:#9d87e0"/><path d="M48,59H46c-6.712,0-10.807-3.008-13.08-8.371a1,1,0,0,0-1.84,0C28.807,55.992,24.712,59,18,59H16a9.032,9.032,0,0,1-8.795-7.11A1.658,1.658,0,0,0,7,52.68V54a9.026,9.026,0,0,0,9,9h2c7.74,0,12-3,14-10,2,7,6.26,10,14,10h2a9.026,9.026,0,0,0,9-9V52.68a1.658,1.658,0,0,0-.2-.79A9.032,9.032,0,0,1,48,59Z" style="fill:#9d87e0"/><circle cx="48.5" cy="17.5" r="1.5" style="fill:#f7faff"/><ellipse cx="43" cy="11" rx="1.895" ry="3.79" transform="translate(4.816 33.627) rotate(-45)" style="fill:#f7faff"/><ellipse cx="42.26" cy="47.8" rx="1.642" ry="2.286" transform="translate(-21.424 43.905) rotate(-45.02)" style="fill:#f6fafd"/><ellipse cx="43.258" cy="51.814" rx="0.825" ry="1.148" transform="translate(-23.97 45.787) rotate(-45.02)" style="fill:#f6fafd"/><ellipse cx="4.258" cy="41.814" rx="0.825" ry="1.148" transform="translate(-28.329 15.269) rotate(-45.02)" style="fill:#f6fafd"/><ellipse cx="51.258" cy="39.814" rx="0.825" ry="1.148" transform="translate(-13.137 47.928) rotate(-45.02)" style="fill:#f6fafd"/><ellipse cx="61.004" cy="39.314" rx="0.413" ry="0.574" transform="translate(-9.926 54.675) rotate(-45.02)" style="fill:#f6fafd"/><path d="M61.32,36h-.14a2.647,2.647,0,0,0-.918.171A10.41,10.41,0,0,0,62,30.27V28.75A2.658,2.658,0,0,0,59.45,26h-.13a2.563,2.563,0,0,0-2.354,1.7C56.294,14.6,45.627,0,32,0S7.705,14.6,7.034,27.7A2.564,2.564,0,0,0,4.68,26H4.55A2.658,2.658,0,0,0,2,28.75v1.52a10.428,10.428,0,0,0,1.735,5.9A2.629,2.629,0,0,0,2.82,36H2.68A2.683,2.683,0,0,0,0,38.68V41a9.01,9.01,0,0,0,9,9h3a12.579,12.579,0,0,0,5.3-1q-.023.183-.042.363a10.1,10.1,0,0,1-.228,1.39C17.022,50.787,16.176,54,14,54c-1.383,0-2.24-1.285-2.711-2.354A2.693,2.693,0,0,0,8.82,50H8.68A2.683,2.683,0,0,0,6,52.68V54A10.011,10.011,0,0,0,16,64h2c7.152,0,11.574-2.5,14-8.025C34.426,61.5,38.848,64,46,64h2A10.011,10.011,0,0,0,58,54V52.68A2.683,2.683,0,0,0,55.32,50h-.14a2.689,2.689,0,0,0-2.465,1.637C52.24,52.715,51.383,54,50,54c-2.176,0-3.022-3.213-3.03-3.244a10.141,10.141,0,0,1-.228-1.391q-.02-.18-.042-.363A12.579,12.579,0,0,0,52,50h3a9.01,9.01,0,0,0,9-9V38.68A2.683,2.683,0,0,0,61.32,36Zm-2.5-7.562a.606.606,0,0,1,.5-.438h.13a.688.688,0,0,1,.55.75v1.52c0,3.62-1.89,6.418-4.789,7.373a20.36,20.36,0,0,0,1.713-6.837A3.941,3.941,0,0,0,58.824,28.438ZM58.491,38.1A3.01,3.01,0,0,1,56,40a2.122,2.122,0,0,1-.962-.235A8.531,8.531,0,0,0,58.491,38.1ZM4,28.75A.688.688,0,0,1,4.55,28h.13a.609.609,0,0,1,.5.442,3.94,3.94,0,0,0,1.9,2.364A20.373,20.373,0,0,0,8.79,37.647C5.9,36.7,4,33.9,4,30.27ZM8.959,39.766A2.112,2.112,0,0,1,8,40a3.008,3.008,0,0,1-2.488-1.9A8.488,8.488,0,0,0,8.959,39.766ZM62,41a7.008,7.008,0,0,1-7,7H52a11.255,11.255,0,0,1-6.5-1.864,1,1,0,0,0-1.345,1.4,4.235,4.235,0,0,1,.6,2.054,12.021,12.021,0,0,0,.275,1.65C45.079,51.437,46.262,56,50,56c1.92,0,3.534-1.263,4.549-3.566A.687.687,0,0,1,55.18,52h.14a.681.681,0,0,1,.68.68V54a8.009,8.009,0,0,1-8,8H46c-7.282,0-11.181-2.773-13.039-9.274a1,1,0,0,0-1.922,0C29.181,59.227,25.282,62,18,62H16a8.009,8.009,0,0,1-8-8V52.68A.681.681,0,0,1,8.68,52h.14a.691.691,0,0,1,.635.443C10.466,54.737,12.08,56,14,56c3.738,0,4.921-4.563,4.97-4.756a12.1,12.1,0,0,0,.275-1.652,4.235,4.235,0,0,1,.6-2.054,1,1,0,0,0-1.345-1.4A11.255,11.255,0,0,1,12,48H9a7.008,7.008,0,0,1-7-7V38.68A.681.681,0,0,1,2.68,38h.14a.691.691,0,0,1,.635.443C4.466,40.737,6.08,42,8,42a4.49,4.49,0,0,0,3.653-2,1,1,0,0,0,.05-1.117l-.079-.129c-.053-.084-.107-.171-.162-.267A18.173,18.173,0,0,1,9.02,29.962C9.009,29.645,9,29.327,9,29,9,13.794,21.364,2,32,2S55,13.794,55,29c0,.329-.01.649-.019.956a18.191,18.191,0,0,1-2.449,8.537c-.049.086-.1.173-.156.257l-.079.129A1,1,0,0,0,52.347,40,4.49,4.49,0,0,0,56,42c1.92,0,3.534-1.263,4.549-3.566A.687.687,0,0,1,61.18,38h.14a.681.681,0,0,1,.68.68Z"/><path d="M40.622,19a2.408,2.408,0,0,0-1.787.847A2.6,2.6,0,0,0,38,21.624a1.357,1.357,0,0,0,.387.959,1.381,1.381,0,0,0,.989.414H39.4a2.616,2.616,0,0,0,1.748-.834l.015-.014A2.6,2.6,0,0,0,42,20.376a1.357,1.357,0,0,0-.387-.959A1.381,1.381,0,0,0,40.622,19Z"/><path d="M23.4,19h-.024a1.358,1.358,0,0,0-.96.385,1.381,1.381,0,0,0-.416.988,2.6,2.6,0,0,0,.833,1.774l.015.014A2.616,2.616,0,0,0,24.6,23h.024a1.358,1.358,0,0,0,.96-.385A1.381,1.381,0,0,0,26,21.624,2.924,2.924,0,0,0,23.4,19Z"/><path d="M32,29c-2.206,0-4-1.346-4-3H26c0,2.757,2.691,5,6,5s6-2.243,6-5H36C36,27.654,34.206,29,32,29Z"/><path d="M46.791,11.631a7.149,7.149,0,0,0-1.744-2.678,7.149,7.149,0,0,0-2.678-1.744,2.576,2.576,0,0,0-2.756.4,2.578,2.578,0,0,0-.4,2.756,7.149,7.149,0,0,0,1.744,2.678,7.149,7.149,0,0,0,2.678,1.744A3.736,3.736,0,0,0,44.808,15a2.163,2.163,0,0,0,1.579-.612A2.578,2.578,0,0,0,46.791,11.631Zm-1.818,1.341c-.2.115-1.332-.065-2.606-1.339s-1.456-2.422-1.344-2.6A.336.336,0,0,1,41.192,9a4.061,4.061,0,0,1,2.441,1.368C44.9,11.639,45.086,12.771,44.973,12.972Z"/><path d="M48.5,15A2.5,2.5,0,1,0,51,17.5,2.5,2.5,0,0,0,48.5,15Zm0,3a.5.5,0,1,1,.5-.5A.5.5,0,0,1,48.5,18Z"/></g></svg>
