<?xml version="1.0"?>
<svg xmlns="http://www.w3.org/2000/svg" viewBox="0 0 64 64" width="512" height="512"><g id="_27-crocodile" data-name="27-crocodile"><path d="M24,57a39.73,39.73,0,0,0,9.98-1.22,5.042,5.042,0,0,0,.55.86A15.5,15.5,0,0,1,25,60H23a15.927,15.927,0,0,1-11.32-4.93A37.5,37.5,0,0,0,24,57Z" style="fill:#fff2de"/><path d="M42.28,44H39c-2.85,0-5.23,2.23-5.84,6.01L33.12,50A40.669,40.669,0,0,1,24,51c-9.43,0-17-3-18-6H5.98a26.554,26.554,0,0,1-.97-6.94C5.11,41.35,14.11,44,24,44c9.91,0,18.93-2.66,19-5.96A26.864,26.864,0,0,1,42.28,44Z" style="fill:#fff2de"/><path d="M39,32V26.22a10.972,10.972,0,0,1,2.97,4.87C40.85,34.08,33.34,38,24,38a30.063,30.063,0,0,1-13.92-3.23L11,32l2,2,2-3v-.97h.01A18.1,18.1,0,0,0,23,32a21.01,21.01,0,0,0,8-2v1l2,3,2-2,1,3Z" style="fill:#fff2de"/><path d="M33,52a8.878,8.878,0,0,0,.98,3.78A39.73,39.73,0,0,1,24,57a37.5,37.5,0,0,1-12.32-1.93A22.67,22.67,0,0,1,5.98,45H6c1,3,8.57,6,18,6a40.669,40.669,0,0,0,9.12-1l.04.01A11.461,11.461,0,0,0,33,52Z" style="fill:#f7faff"/><path d="M43,37.73v.31C42.93,41.34,33.91,44,24,44c-9.89,0-18.89-2.65-18.99-5.94A.127.127,0,0,1,5,38v-.27a19.11,19.11,0,0,1,2-8.91V32l3,3,.08-.23A30.063,30.063,0,0,0,24,38c9.34,0,16.85-3.92,17.97-6.91A20.982,20.982,0,0,1,43,37.73Z" style="fill:#f7faff"/><path d="M31,27v3a21.01,21.01,0,0,1-8,2,18.1,18.1,0,0,1-7.99-1.97H15V27a2.006,2.006,0,0,1,2-2H29A2.006,2.006,0,0,1,31,27Z" style="fill:#f7faff"/><path d="M33,3a4,4,0,1,1-4,4,3.906,3.906,0,0,1,.12-.97A4,4,0,0,1,33,3Z" style="fill:#eef2fa"/><path d="M11,9,6,11V7l21,5c.7.2,2,0,2,2,0,1.72-.78,2.02-1.6,2.02-.13,0-.27-.01-.4-.02l-1-4-4,2-1-3-4,2-1-3-4,2Z" style="fill:#dce1eb"/><path d="M46.5,7.5c.91.92.54,2.79-.84,4.16l-.03.03a19.568,19.568,0,0,0-3.6-3.02c.1-.12.2-.22.31-.33C43.71,6.96,45.58,6.59,46.5,7.5Z" style="fill:#2d9169"/><path d="M51.5,13.5c.91.92.54,2.79-.84,4.16-.11.11-.22.22-.34.32a40.465,40.465,0,0,0-2.67-3.94L47.7,14C49.03,12.9,50.66,12.66,51.5,13.5Z" style="fill:#2d9169"/><path d="M56.89,20.95c.51,1.22-.83,3.11-2.98,4.24l-.05.02c-.58-1.48-1.23-2.92-1.93-4.31a1.29,1.29,0,0,1,.16-.09C54.24,19.68,56.39,19.74,56.89,20.95Z" style="fill:#2d9169"/><path d="M56,29c2.21,0,4,.9,4,2,0,1.06-1.67,1.94-3.78,1.99-.27-1.31-.61-2.63-1.01-3.95A6.627,6.627,0,0,1,56,29Z" style="fill:#2d9169"/><path d="M59.83,36.59c.72.36,1.17.86,1.17,1.41,0,1.1-1.79,2-4,2a30.512,30.512,0,0,0-.27-3.99A2.437,2.437,0,0,1,57,36,6.412,6.412,0,0,1,59.83,36.59Z" style="fill:#2d9169"/><path d="M63,46v9a8,8,0,0,1-8,8H41c4.91,0,9.61-2.63,12.63-8H55a4,4,0,0,0,4-4V46a2.015,2.015,0,0,1,2-2A2.006,2.006,0,0,1,63,46Z" style="fill:#2d9169"/><path d="M1.02,41A22.615,22.615,0,0,0,14.14,60.73L14,61v2H2.66A1.726,1.726,0,0,1,1,61.21a1.789,1.789,0,0,1,1.04-1.66L5,58l-.84-1.05A14.394,14.394,0,0,1,1,47.94V41Z" style="fill:#2d9169"/><path d="M33,58l-2.96,1.55A1.789,1.789,0,0,0,29,61.21,1.726,1.726,0,0,0,30.66,63H23a20.727,20.727,0,0,1-8.86-2.27A22.615,22.615,0,0,1,1.02,41c-.01-.33-.02-.66-.02-1A53.062,53.062,0,0,1,4.17,24.19L7,25v3.82a19.11,19.11,0,0,0-2,8.91V38a.127.127,0,0,0,.01.06A26.554,26.554,0,0,0,5.98,45a22.67,22.67,0,0,0,5.7,10.07A15.927,15.927,0,0,0,23,60h2a15.5,15.5,0,0,0,9.53-3.36A3.118,3.118,0,0,0,37,58Z" style="fill:#5ec49c"/><path d="M56.73,36.01A30.512,30.512,0,0,1,57,40c0,6.32-1.28,11.31-3.37,15-3.02,5.37-7.72,8-12.63,8H30.66A1.726,1.726,0,0,1,29,61.21a1.789,1.789,0,0,1,1.04-1.66L33,58h4a3.118,3.118,0,0,1-2.47-1.36,5.042,5.042,0,0,1-.55-.86A8.878,8.878,0,0,1,33,52a11.461,11.461,0,0,1,.16-1.99C33.77,46.23,36.15,44,39,44h3.28A26.864,26.864,0,0,0,43,38.04v-.31a20.982,20.982,0,0,0-1.03-6.64A10.972,10.972,0,0,0,39,26.22V32l-3,3-1-3-2,2-2-3V27a2.006,2.006,0,0,0-2-2H17a2.006,2.006,0,0,0-2,2v4l-2,3-2-2-.92,2.77L10,35,7,32V25l-2.83-.81a34.73,34.73,0,0,1,2.69-5.95L3,18a1.955,1.955,0,0,1-1.41-.59A1.955,1.955,0,0,1,1,16a2.006,2.006,0,0,1,2-2l24,2c.13.01.27.02.4.02.82,0,1.6-.3,1.6-2.02,0-2-1.3-1.8-2-2L6,7H3C1.96,6.73,1,6,1,4A2.763,2.763,0,0,1,4,1,2.731,2.731,0,0,1,7,4L29,6l.12.03A3.906,3.906,0,0,0,29,7a4,4,0,0,0,8,0,9.418,9.418,0,0,1,5.03,1.67,19.568,19.568,0,0,1,3.6,3.02c.69.72,1.36,1.51,2.02,2.35a40.465,40.465,0,0,1,2.67,3.94c.57.94,1.1,1.91,1.61,2.92.7,1.39,1.35,2.83,1.93,4.31.5,1.26.95,2.54,1.35,3.83.4,1.32.74,2.64,1.01,3.95C56.43,34.01,56.61,35.02,56.73,36.01Z" style="fill:#6be0b2"/><path d="M56.73,36.01c-.12-.99-.3-2-.51-3.02-.067-.323-.15-.648-.225-.972C55.893,44,54,44,54,44H39c-2.85,0-5.23,2.23-5.84,6.01A11.461,11.461,0,0,0,33,52a8.878,8.878,0,0,0,.98,3.78,5.042,5.042,0,0,0,.55.86A3.118,3.118,0,0,0,37,58H33l-2.96,1.55A1.789,1.789,0,0,0,29,61.21,1.726,1.726,0,0,0,30.66,63H41c4.91,0,9.61-2.63,12.63-8C55.72,51.31,57,46.32,57,40A30.512,30.512,0,0,0,56.73,36.01Z" style="fill:#6be0b2"/><path d="M61,53V48a2.015,2.015,0,0,1,2-2,2.006,2.006,0,0,0-2-2,2.015,2.015,0,0,0-2,2v5a4,4,0,0,1-4,4H53.63a18.9,18.9,0,0,1-1.3,2H57A4,4,0,0,0,61,53Z" style="fill:#40a87f"/><path d="M14.14,60.73A24.578,24.578,0,0,1,7.4,55.9c.238.358.49.709.761,1.047L9,58,6.04,59.55A1.789,1.789,0,0,0,5,61.21,1.726,1.726,0,0,0,6.66,63H14V61Z" style="fill:#257857"/><path d="M6,6,28,8h1.141A3.977,3.977,0,0,1,29,7a3.906,3.906,0,0,1,.12-.97L29,6,7,4A2.731,2.731,0,0,0,4,1,2.723,2.723,0,0,0,1.032,3.612,3.157,3.157,0,0,1,3,3,2.731,2.731,0,0,1,6,6Z" style="fill:#87f5ca"/><path d="M36,35l-1-3-2,2-2-3V30a16.028,16.028,0,0,1-1.6.678V35l1.767,2.209c.8-.178,1.571-.375,2.3-.6L34.2,36l.129.322A21.815,21.815,0,0,0,39,34.132V32Z" style="fill:#f7d2a3"/><path d="M17,34.03V30.88c-.723-.268-1.393-.559-1.99-.85H15V31l-2,3-2-2-.92,2.77a25.517,25.517,0,0,0,5.371,2.089L17,35Z" style="fill:#f7d2a3"/><path d="M31.8,38l1.669-1.391c-.731.225-1.505.422-2.3.6Z" style="fill:#ffe4c2"/><path d="M35.4,39,39,36V34.132a21.815,21.815,0,0,1-4.671,2.19Z" style="fill:#ffe4c2"/><path d="M10,35,7,32v4l3.75,3,.1-.23L12,36l2.5,2,.951-1.141A25.517,25.517,0,0,1,10.08,34.77Z" style="fill:#ffe4c2"/><path d="M31,27a2.007,2.007,0,0,0-1.6-1.959v5.637A16.028,16.028,0,0,0,31,30Z" style="fill:#ffe4c2"/><path d="M15,27v3.03h.01c.6.291,1.267.582,1.99.85V25A2.006,2.006,0,0,0,15,27Z" style="fill:#ffe4c2"/><path d="M28,8a5,5,0,1,0,9.907-.92A7.153,7.153,0,0,0,37,7a4,4,0,0,1-8,0,3.906,3.906,0,0,1,.12-.97L29,6l-.556-.051A4.932,4.932,0,0,0,28,8Z" style="fill:#5ec49c"/><path d="M55,55H53.63c-.2.357-.41.7-.625,1.033l-.019.027q-.316.487-.653.94A13.966,13.966,0,0,1,41,63h5.665a7.8,7.8,0,0,0,6.953-4.24c.288-.564.582-1.154.931-1.76a11.53,11.53,0,0,0,.933-2.049A3.839,3.839,0,0,1,55,55Z" style="fill:#257857"/><path d="M30.53,56.64a3.251,3.251,0,0,0,2.042,1.3,17.188,17.188,0,0,0,1.958-1.3,5.042,5.042,0,0,1-.55-.86,35.606,35.606,0,0,1-3.544.713C30.47,56.539,30.494,56.6,30.53,56.64Z" style="fill:#f7d2a3"/><path d="M29,58l-2.96,1.55a1.622,1.622,0,0,0-.563.429,15.155,15.155,0,0,0,7-1.979Z" style="fill:#f7d2a3"/><path d="M35,44c-2.85,0-5.23,2.23-5.84,6.01-.039.22-.062.454-.086.686A37.6,37.6,0,0,0,33.12,50l.04.01C33.77,46.23,36.15,44,39,44H35Z" style="fill:#f7d2a3"/><path d="M29.074,50.7A12.467,12.467,0,0,0,29,52a8.878,8.878,0,0,0,.98,3.78,5.247,5.247,0,0,0,.456.713,35.606,35.606,0,0,0,3.544-.713A8.878,8.878,0,0,1,33,52a11.461,11.461,0,0,1,.16-1.99L33.12,50A37.6,37.6,0,0,1,29.074,50.7Z" style="fill:#ffe4c2"/><path d="M46,44H39c-2.85,0-5.23,2.23-5.84,6.01A11.461,11.461,0,0,0,33,52a8.878,8.878,0,0,0,.98,3.78,5.042,5.042,0,0,0,.55.86A3.118,3.118,0,0,0,37,58H33l-2.96,1.55A1.789,1.789,0,0,0,29,61.21,1.726,1.726,0,0,0,30.66,63h2.517A1.882,1.882,0,0,1,33,62.21a1.789,1.789,0,0,1,1.04-1.66L37,59h4a3.118,3.118,0,0,1-2.47-1.36,5.042,5.042,0,0,1-.55-.86A8.878,8.878,0,0,1,37,53a11.461,11.461,0,0,1,.16-1.99C37.77,47.23,40.15,45,43,45h9V44Z" style="fill:#40a87f"/><path d="M56.73,36.01c-.12-.99-.3-2-.51-3.02-.27-1.31-.61-2.63-1.01-3.95-.4-1.29-.85-2.57-1.35-3.83-.58-1.48-1.23-2.92-1.93-4.31-.51-1.01-1.04-1.98-1.61-2.92a40.465,40.465,0,0,0-2.67-3.94c-.66-.84-1.33-1.63-2.02-2.35a19.568,19.568,0,0,0-3.6-3.02A9.418,9.418,0,0,0,37,7a3.972,3.972,0,0,1-.143,1.005,12.876,12.876,0,0,1,1.173.665,19.568,19.568,0,0,1,3.6,3.02c.69.72,1.36,1.51,2.02,2.35a40.465,40.465,0,0,1,2.67,3.94c.57.94,1.1,1.91,1.61,2.92.7,1.39,1.35,2.83,1.93,4.31.5,1.26.95,2.54,1.35,3.83.4,1.32.74,2.64,1.01,3.95.21,1.02.39,2.03.51,3.02A30.512,30.512,0,0,1,53,40c0,6.32-1.28,11.31-3.37,15-3.02,5.37-7.72,8-12.63,8h4c4.91,0,9.61-2.63,12.63-8C55.72,51.31,57,46.32,57,40A30.512,30.512,0,0,0,56.73,36.01Z" style="fill:#87f5ca"/><path d="M12.866,18.616,6.86,18.24A27.024,27.024,0,0,0,5.446,21c1.554,0,5.577-.108,7.439-.258A1.065,1.065,0,0,0,12.866,18.616Z" style="fill:#5ec49c"/><ellipse cx="49.258" cy="21.814" rx="0.825" ry="1.148" transform="translate(-0.991 41.237) rotate(-45.02)" style="fill:#f6fafd"/><ellipse cx="46.26" cy="18.8" rx="1.642" ry="2.286" transform="translate(0.262 38.233) rotate(-45.02)" style="fill:#f6fafd"/><path d="M61,43a3.015,3.015,0,0,0-3,3v5a2.992,2.992,0,0,1-2.718,2.971,32.106,32.106,0,0,0,2.7-13.027C60.327,40.686,62,39.508,62,38a2.7,2.7,0,0,0-1.718-2.3,7.061,7.061,0,0,0-2.678-.667q-.082-.55-.193-1.152C59.544,33.536,61,32.42,61,31c0-1.71-2.149-3-5-3-.028,0-.052,0-.08,0q-.39-1.2-.83-2.359c2.216-1.429,3.378-3.513,2.724-5.077a2.417,2.417,0,0,0-1.474-1.35,5.682,5.682,0,0,0-3.974.366q-.4-.755-.8-1.446c1.611-1.762,1.914-4.058.641-5.345-1.039-1.038-2.778-1.043-4.37-.1-.294-.356-.585-.7-.87-1.014,1.262-1.685,1.4-3.708.236-4.888-1.274-1.26-3.549-.967-5.319.627a10.45,10.45,0,0,0-3.979-1.359,5,5,0,0,0-9.463-1.112L7.922,3.08A3.645,3.645,0,0,0,4,0,3.748,3.748,0,0,0,0,4C0,6.69,1.5,7.643,2.749,7.968A1.016,1.016,0,0,0,3,8H5v3a1,1,0,0,0,1.372.929l4.015-1.607.664,1.994a1,1,0,0,0,1.4.579l2.969-1.485.635,1.906a1,1,0,0,0,1.4.579l2.969-1.485.635,1.906a.992.992,0,0,0,.116.2L3,13a3,3,0,0,0-3,3,2.924,2.924,0,0,0,.874,2.107A2.891,2.891,0,0,0,2.931,19h.007l2.29.143a40.416,40.416,0,0,0-2,4.714A53.7,53.7,0,0,0,0,40c0,.337.01.665.02,1H0v6.94a15.468,15.468,0,0,0,3.379,9.635l.083.1-1.816.953A2.779,2.779,0,0,0,0,61.21,2.731,2.731,0,0,0,2.66,64H14a1,1,0,0,0,1-1v-.78A21.01,21.01,0,0,0,23,64H55a9.01,9.01,0,0,0,9-9V46A3,3,0,0,0,61,43Zm-1-5c0,.163-.667.73-2.037.927-.022-.618-.063-1.239-.123-1.867a4.788,4.788,0,0,1,1.542.424C59.886,37.736,60,37.968,60,38Zm-1-7c0,.154-.653.719-2,.919-.143-.623-.3-1.253-.476-1.893C58.194,30.148,59,30.82,59,31Zm-3.341-9.9c.247.089.292.2.308.237.185.441-.4,1.5-1.638,2.41q-.495-1.182-1.061-2.36A3.8,3.8,0,0,1,55.659,21.1Zm-4.87-6.9c.362.366.259,1.255-.332,2.129q-.669-1.046-1.391-2.038C49.811,13.921,50.5,13.913,50.789,14.2Zm-5-6c.346.35.271,1.175-.239,2a21.06,21.06,0,0,0-1.92-1.637C44.508,7.955,45.423,7.84,45.789,8.2ZM30.091,6.27A3,3,0,1,1,30,7,2.987,2.987,0,0,1,30.091,6.27ZM7,8.266l1.97.469L7,9.523ZM12.224,9.51l1.707.406-1.347.674Zm5.069,1.206,1.381.329-1.09.545Zm10.476,4.237L27.3,13.077c.587.1.7.143.7.923C28,14.615,27.917,14.856,27.769,14.953Zm-5.407-3.03,1.054.251-.832.416Zm2.97,1.529.359,1.436-2.77-.23ZM2.66,62A.734.734,0,0,1,2,61.21a.822.822,0,0,1,.5-.774l2.96-1.55a1,1,0,0,0,.317-1.511l-.84-1.05a13.453,13.453,0,0,1-2.768-6.281A24.061,24.061,0,0,0,13,61.26V62ZM40,62H30.66a.734.734,0,0,1-.66-.79.822.822,0,0,1,.5-.774L33.246,59H37a1,1,0,0,0,0-2,2.154,2.154,0,0,1-1.692-.989,4.018,4.018,0,0,1-.442-.7A7.86,7.86,0,0,1,34,52a10.572,10.572,0,0,1,.147-1.831C34.654,47.029,36.559,45,39,45h7V43H43.509A28.042,28.042,0,0,0,44,38.05h0V38l-2,.019C41.958,40,34.758,43,24,43,13.276,43,6.069,40.008,6.009,38.029c0-.013-.008-.024-.009-.037V37.73a20.991,20.991,0,0,1,.537-4.779l2.756,2.756a1,1,0,0,0,.931.268c.008,0,.015-.007.022-.009A31.567,31.567,0,0,0,24,39c7.744,0,14.562-2.663,17.54-5.63A21.015,21.015,0,0,1,42,37.73V38h2v-.27a22.073,22.073,0,0,0-1.081-6.956A12.35,12.35,0,0,0,40,25.789V25H38v6.586l-1.563,1.562-.488-1.464a1,1,0,0,0-1.656-.391l-1.138,1.138L32,30.7V27a3,3,0,0,0-3-3H17a3,3,0,0,0-3,3v3.7l-1.155,1.734-1.138-1.138a1,1,0,0,0-1.656.392L9.564,33.15,8,31.586V25H6v3.589A20.279,20.279,0,0,0,4,37.73V38a1.187,1.187,0,0,0,.013.162v.005a27.6,27.6,0,0,0,1,7.1,23.616,23.616,0,0,0,5.956,10.51A17,17,0,0,0,23,61h2a15.828,15.828,0,0,0,3.051-.309A2.964,2.964,0,0,0,28,61.21a2.86,2.86,0,0,0,.122.79H23a19.736,19.736,0,0,1-8.423-2.169C10.954,58.069,2.476,52.7,2.02,40.969,2.01,40.649,2,40.329,2,40A52.365,52.365,0,0,1,5.112,24.526a35.276,35.276,0,0,1,2.316-5.247L18.937,20l.125-2L3,17a.978.978,0,0,1-.712-.306A.957.957,0,0,1,2,16a.994.994,0,0,1,.917-1l24.008,2c.154.012.321.023.475.023.971,0,2.6-.393,2.6-3.02a2.568,2.568,0,0,0-2.435-2.906,2.813,2.813,0,0,1-.334-.067l-21-5A.993.993,0,0,0,6,6H3.137C2.532,5.817,2,5.412,2,4A1.773,1.773,0,0,1,4,2,1.758,1.758,0,0,1,6,4a1,1,0,0,0,.91,1l21.1,1.918c0,.029,0,.057,0,.086a5,5,0,0,0,9.876,1.077A9.139,9.139,0,0,1,41.5,9.516a18.565,18.565,0,0,1,3.412,2.867c.627.653,1.267,1.4,1.949,2.266a39.45,39.45,0,0,1,2.608,3.85c.531.875,1.045,1.808,1.572,2.852.706,1.4,1.342,2.822,1.893,4.228.484,1.219.93,2.483,1.323,3.751.4,1.316.731,2.616.988,3.862.229,1.114.391,2.075.5,2.949A29.587,29.587,0,0,1,56,40c0,5.578-1.009,10.276-2.98,14H53v.039c-.082.155-.156.319-.242.471C50.081,59.27,45.8,62,41,62Zm1.467-19H39a6.382,6.382,0,0,0-1.315.137,16.429,16.429,0,0,0,4.074-1.847C41.682,41.866,41.583,42.435,41.467,43Zm-9.156,6.142A40.121,40.121,0,0,1,24,50c-9.838,0-16.327-3.144-17.051-5.316l-.016.005a25.113,25.113,0,0,1-.691-3.4C9.78,43.658,17,45,24,45a48.989,48.989,0,0,0,12.748-1.583A7.6,7.6,0,0,0,32.311,49.142ZM24,52a42.642,42.642,0,0,0,8.03-.763c-.014.251-.03.5-.03.763a9.547,9.547,0,0,0,.592,3.068A39.562,39.562,0,0,1,24,56a36.978,36.978,0,0,1-11.767-1.8A20.46,20.46,0,0,1,8.42,48.7C11.949,50.685,17.733,52,24,52Zm0,6a42.652,42.652,0,0,0,7.623-.68A14.13,14.13,0,0,1,25,59H23a14.074,14.074,0,0,1-6.649-1.682A42.876,42.876,0,0,0,24,58Zm6-28.642A19.879,19.879,0,0,1,23,31a16.709,16.709,0,0,1-7-1.616V27a1,1,0,0,1,1-1H29a1,1,0,0,1,1,1Zm-14.168,2.2c.01-.016.014-.034.024-.051A18.367,18.367,0,0,0,23,33a21.508,21.508,0,0,0,7.127-1.532c.015.028.023.06.041.087l2,3a1,1,0,0,0,1.539.152l.856-.855.4,1.19A30.954,30.954,0,0,1,24,37a30.691,30.691,0,0,1-11.08-2.027,1.068,1.068,0,0,0,.179.022,1,1,0,0,0,.733-.44ZM40,29.085a12.806,12.806,0,0,1,.886,1.944,4.575,4.575,0,0,1-.921,1.145A.958.958,0,0,0,40,32ZM11.3,34.258l.135-.405.855.854c.015.015.035.019.051.032C11.986,34.587,11.642,34.424,11.3,34.258ZM62,55a7.008,7.008,0,0,1-7,7H48.3a17.04,17.04,0,0,0,5.9-6H55a5.006,5.006,0,0,0,5-5V46a.978.978,0,0,1,.306-.713A.965.965,0,0,1,61,45a1,1,0,0,1,1,1Z"/><path d="M32.378,9H32.4a2.616,2.616,0,0,0,1.748-.834l.015-.014A2.6,2.6,0,0,0,35,6.376a1.357,1.357,0,0,0-.387-.959A1.381,1.381,0,0,0,33.622,5a2.562,2.562,0,0,0-1.787.847A2.6,2.6,0,0,0,31,7.624a1.357,1.357,0,0,0,.387.959A1.381,1.381,0,0,0,32.378,9Z"/><rect x="3" y="3" width="2" height="2"/></g></svg>
