<svg height="512" viewBox="0 0 64 64" width="512" xmlns="http://www.w3.org/2000/svg"><g id="_11-rabbit" data-name="11-rabbit"><path d="m31 28h2a1 1 0 0 1 .8 1.6l-1 1.33a.993.993 0 0 1 -1.6 0l-1-1.33a1 1 0 0 1 .8-1.6z" fill="#ff8fa3"/><path d="m19.75 58.24a1.081 1.081 0 0 1 -1.51 1.51l-10.91-9.71a1.61 1.61 0 0 1 -.54-1.22 2.031 2.031 0 0 1 .61-1.42 1.807 1.807 0 0 1 2.64-.07z" fill="#ff808c"/><path d="m45.76 59.75a1.081 1.081 0 0 1 -1.51-1.51l9.71-10.91a1.807 1.807 0 0 1 2.64.07 2.031 2.031 0 0 1 .61 1.42 1.61 1.61 0 0 1 -.54 1.22z" fill="#ff808c"/><path d="m44.63 53a9.851 9.851 0 0 0 2.03-8.9 5.934 5.934 0 0 0 -.91-1.93l.25-.17a5.45 5.45 0 0 1 4.98 4.64l-9.34 10.28-.19-.16z" fill="#fc979e"/><path d="m19.37 53 3.18 3.76-.19.16-9.34-10.28a5.45 5.45 0 0 1 4.98-4.64l.25.17a5.934 5.934 0 0 0 -.91 1.93 9.851 9.851 0 0 0 2.03 8.9z" fill="#fc979e"/><g fill="#ffc6c2"><path d="m19.64 59.64a1.03 1.03 0 0 0 .11-1.4l-9.71-10.91a1.807 1.807 0 0 0 -2.64.07 2.031 2.031 0 0 0 -.61 1.42 1.61 1.61 0 0 0 .54 1.22l10.91 9.71a1.03 1.03 0 0 0 1.4-.11zm3.15.28a4.555 4.555 0 0 1 -1.11 1.76c-1.42 1.43-3.56 1.76-4.76.68l-14.97-13.6a3.389 3.389 0 0 1 -.95-2.44 5.362 5.362 0 0 1 1.63-3.69c1.88-1.87 4.62-2.18 6.13-.68l4.26 4.69 9.34 10.28a2.99 2.99 0 0 1 .43 3z"/><path d="m56.67 50.04a1.61 1.61 0 0 0 .54-1.22 2.031 2.031 0 0 0 -.61-1.42 1.807 1.807 0 0 0 -2.64-.07l-9.71 10.91a1.081 1.081 0 0 0 1.51 1.51zm-1.43-8.09c1.51-1.5 4.25-1.19 6.13.68a5.362 5.362 0 0 1 1.63 3.69 3.389 3.389 0 0 1 -.95 2.44l-14.97 13.6c-1.2 1.08-3.34.75-4.76-.68a4.555 4.555 0 0 1 -1.11-1.76 2.99 2.99 0 0 1 .43-3l9.34-10.28z"/><path d="m27.01 14.06c-3.86.39-7.71 3.06-7.98 6.51-.01.14-.02.28-.02.43h-.01v-16a4 4 0 0 1 8 0v9z"/><path d="m44.97 20.57c-.27-3.45-4.12-6.12-7.98-6.51l.01-.06v-9a4 4 0 1 1 8 0v16h-.01c0-.15-.01-.29-.02-.43z"/><path d="m22.55 56.76-3.18-3.76a9.851 9.851 0 0 1 -2.03-8.9 5.934 5.934 0 0 1 .91-1.93 2.945 2.945 0 0 1 1.75-1.17l.01-.04a30.63 30.63 0 0 0 8.99 1.04h6a30.63 30.63 0 0 0 8.99-1.04l.01.04a2.945 2.945 0 0 1 1.75 1.17 5.934 5.934 0 0 1 .91 1.93 9.851 9.851 0 0 1 -2.03 8.9l-3.18 3.76.19.16a2.99 2.99 0 0 0 -.43 3l-.21.08s-2 1-9 1-9-1-9-1l-.21-.08a2.99 2.99 0 0 0 -.43-3z"/><path d="m31.2 30.93a.993.993 0 0 0 1.6 0l1-1.33a1 1 0 0 0 -.8-1.6h-2a1 1 0 0 0 -.8 1.6zm13.8-9.7c0 5.42 5 5.35 5 11.74 0 4.4-2.23 6.79-6.01 7.99a30.63 30.63 0 0 1 -8.99 1.04h-6a30.63 30.63 0 0 1 -8.99-1.04c-3.78-1.2-6.01-3.59-6.01-7.99 0-6.39 5-6.32 5-11.74a1.77 1.77 0 0 1 .01-.23c0-.15.01-.29.02-.43.27-3.45 4.12-6.12 7.98-6.51a8.22 8.22 0 0 1 .99-.06h8a8.22 8.22 0 0 1 .99.06c3.86.39 7.71 3.06 7.98 6.51.01.14.02.28.02.43a1.77 1.77 0 0 1 .01.23z"/><path d="m44 41a2.945 2.945 0 0 1 1.75 1.17 5.934 5.934 0 0 1 .91 1.93 9.851 9.851 0 0 1 -2.03 8.9l-3.18 3.76-1.02 1.21a2.977 2.977 0 0 1 -4.5 0 3.812 3.812 0 0 1 0-4.99l5.07-4.98.715-.715a6 6 0 0 0 1.641-3.066z"/><path d="m20 41a2.945 2.945 0 0 0 -1.75 1.17 5.934 5.934 0 0 0 -.91 1.93 9.851 9.851 0 0 0 2.03 8.9l3.18 3.76 1.02 1.21a2.977 2.977 0 0 0 4.5 0 3.812 3.812 0 0 0 0-4.99l-5.07-4.98-.715-.715a6 6 0 0 1 -1.641-3.066z"/></g><path d="m9.4 49.4a1.917 1.917 0 0 1 2.048-.488l-1.408-1.582a1.807 1.807 0 0 0 -2.64.07 2.031 2.031 0 0 0 -.61 1.42 1.61 1.61 0 0 0 .54 1.22l1.585 1.411a1.671 1.671 0 0 1 -.125-.631 2.031 2.031 0 0 1 .61-1.42z" fill="#ffb3c0"/><path d="m57.21 48.82a2.031 2.031 0 0 0 -.61-1.42 1.807 1.807 0 0 0 -2.64-.07l-1.408 1.582a1.917 1.917 0 0 1 2.048.488 2.031 2.031 0 0 1 .61 1.42 1.671 1.671 0 0 1 -.125.631l1.585-1.411a1.61 1.61 0 0 0 .54-1.22z" fill="#ffb3c0"/><path d="m49.829 47.907 1.151-1.267a5.45 5.45 0 0 0 -4.98-4.64l-.25.17a5.934 5.934 0 0 1 .91 1.93c.029.1.04.206.066.308a5.626 5.626 0 0 1 3.103 3.499z" fill="#ffb3c0"/><path d="m17.274 44.408c.026-.1.037-.206.066-.308a5.934 5.934 0 0 1 .91-1.93l-.25-.17a5.45 5.45 0 0 0 -4.98 4.64l1.151 1.267a5.626 5.626 0 0 1 3.103-3.499z" fill="#ffb3c0"/><path d="m63 46.32a5.362 5.362 0 0 0 -1.63-3.69c-1.88-1.87-4.62-2.18-6.13-.68l-2.231 2.457a4.738 4.738 0 0 1 5.361 1.223 5.362 5.362 0 0 1 1.63 3.69 3.592 3.592 0 0 1 -.408 1.673l2.458-2.233a3.389 3.389 0 0 0 .95-2.44z" fill="#ffe0de"/><path d="m1.009 46.32a5.362 5.362 0 0 1 1.63-3.69c1.88-1.87 4.62-2.18 6.13-.68l2.231 2.457a4.737 4.737 0 0 0 -5.361 1.223 5.362 5.362 0 0 0 -1.63 3.69 3.591 3.591 0 0 0 .407 1.673l-2.457-2.233a3.389 3.389 0 0 1 -.95-2.44z" fill="#ffe0de"/><path d="m32 60c-7 0-9-1-9-1l-.025-.009a3.9 3.9 0 0 1 -.185.929l.21.08s2 1 9 1 9-1 9-1l.21-.08a3.9 3.9 0 0 1 -.185-.929l-.025.009s-2 1-9 1z" fill="#ffb8b3"/><path d="m22.285 47.285.715.715 5.07 4.98a3.812 3.812 0 0 1 0 4.99c-.009.01-.02.017-.029.026a2 2 0 0 0 1.959-1.996v-2.171a2 2 0 0 0 -.586-1.414l-6.08-6.081a1.993 1.993 0 0 1 -.483-.782l-.289-.867a1 1 0 0 1 1.12-1.3 47.661 47.661 0 0 0 8.318.615 47.661 47.661 0 0 0 8.318-.615 1 1 0 0 1 1.12 1.3l-.289.867a1.993 1.993 0 0 1 -.483.782l-6.08 6.081a2 2 0 0 0 -.586 1.414v2.171a2 2 0 0 0 1.959 2c-.009-.009-.02-.016-.029-.026a3.812 3.812 0 0 1 0-4.99l5.07-4.984.715-.715a6 6 0 0 0 1.641-3.066l.644-3.219-.01-.04a30.63 30.63 0 0 1 -8.99 1.04h-6a30.63 30.63 0 0 1 -8.99-1.04l-.01.04.644 3.219a6 6 0 0 0 1.641 3.066z" fill="#ffb8b3"/><path d="m46.66 44.1a5.934 5.934 0 0 0 -.91-1.93 2.945 2.945 0 0 0 -1.75-1.17l-.089.443a6.258 6.258 0 0 1 .749 1.657 9.851 9.851 0 0 1 -2.03 8.9l-3.18 3.76-1.02 1.21a3.008 3.008 0 0 1 -2.5 1 2.976 2.976 0 0 0 4.5 0l1.02-1.21 3.18-3.76a9.851 9.851 0 0 0 2.03-8.9z" fill="#ffe0de"/><path d="m25.57 56.97-1.02-1.21-3.18-3.76a9.851 9.851 0 0 1 -2.03-8.9 6.258 6.258 0 0 1 .749-1.657l-.089-.443a2.945 2.945 0 0 0 -1.75 1.17 5.934 5.934 0 0 0 -.91 1.93 9.851 9.851 0 0 0 2.03 8.9l3.18 3.76 1.02 1.21a2.976 2.976 0 0 0 4.5 0 3.008 3.008 0 0 1 -2.5-1z" fill="#ffe0de"/><path d="m25 14.471a10.471 10.471 0 0 1 2.01-.411l-.01-.06v-1.939a16.476 16.476 0 0 0 -2 .327z" fill="#ffb8b3"/><path d="m19.01 21c0-.15.01-.29.02-.43a5.985 5.985 0 0 1 1.97-3.815v-2.619a4.73 4.73 0 0 0 -1.97 3.434c-.01.14-.02 1.28-.02 1.43a1.77 1.77 0 0 0 -.01.23v1.77z" fill="#ffb8b3"/><path d="m44.97 17.57a4.73 4.73 0 0 0 -1.97-3.434v2.619a5.985 5.985 0 0 1 1.97 3.815c.01.14.02.28.02.43h.01v-1.77a1.77 1.77 0 0 0 -.01-.23c0-.15-.01-1.29-.02-1.43z" fill="#ffb8b3"/><path d="m36.99 14.06a10.471 10.471 0 0 1 2.01.411v-2.083a16.476 16.476 0 0 0 -2-.327v1.939z" fill="#ffb8b3"/><path d="m43 5a2 2 0 0 0 -4 0v7.388a10.343 10.343 0 0 1 4 1.748z" fill="#fc979e"/><path d="m39 12.388v2.083a10.1 10.1 0 0 1 4 2.284v-2.619a10.343 10.343 0 0 0 -4-1.748z" fill="#ff808c"/><path d="m25 5a2 2 0 0 0 -4 0v9.136a10.343 10.343 0 0 1 4-1.748z" fill="#fc979e"/><path d="m21 14.136v2.619a10.1 10.1 0 0 1 4-2.284v-2.083a10.343 10.343 0 0 0 -4 1.748z" fill="#ff808c"/><path d="m45 21.23a1.77 1.77 0 0 0 -.01-.23c0-.15-.01-.29-.02-.43-.27-3.45-4.12-6.12-7.98-6.51a8.22 8.22 0 0 0 -.99-.06h-8a8.22 8.22 0 0 0 -.99.06c-3.86.39-7.71 3.06-7.98 6.51-.01.14-.02.28-.02.43a1.77 1.77 0 0 0 -.01.23c0 5.42-5 5.35-5 11.74 0 4.4 2.23 6.79 6.01 7.99a30.63 30.63 0 0 0 8.99 1.04h.667a19.485 19.485 0 0 1 -6.993-1c-2.94-1.16-4.674-3.465-4.674-7.707 0-6.162 3.889-6.095 3.889-11.321a2.05 2.05 0 0 1 .008-.222c0-.145.007-.28.015-.415a7.158 7.158 0 0 1 6.207-6.277 5.118 5.118 0 0 1 .77-.058h6.222a5.118 5.118 0 0 1 .77.058 7.158 7.158 0 0 1 6.207 6.277c.008.135.015.27.015.415a2.05 2.05 0 0 1 .008.222c0 5.228 3.889 5.159 3.889 11.321 0 4.242-1.734 6.547-4.674 7.7a19.485 19.485 0 0 1 -6.993 1h.667a30.63 30.63 0 0 0 8.99-1.04c3.78-1.2 6.01-3.59 6.01-7.99 0-6.383-5-6.313-5-11.733z" fill="#ffe0de"/><ellipse cx="36.258" cy="16.814" fill="#f6fafd" rx=".825" ry="1.148" transform="matrix(.707 -.707 .707 .707 -1.265 30.575)"/><ellipse cx="60.258" cy="45.814" fill="#f6fafd" rx=".825" ry="1.148" transform="matrix(.707 -.707 .707 .707 -14.743 56.051)"/><ellipse cx="59.004" cy="43.314" fill="#f6fafd" rx=".413" ry=".574" transform="matrix(.707 -.707 .707 .707 -13.343 54.431)"/><ellipse cx="7.004" cy="43.314" fill="#f6fafd" rx=".413" ry=".574" transform="matrix(.707 -.707 .707 .707 -28.585 17.65)"/><ellipse cx="40.26" cy="18.8" fill="#f6fafd" rx="1.642" ry="2.286" transform="matrix(.707 -.707 .707 .707 -1.497 33.988)"/><path d="m39.376 28h.024a2.624 2.624 0 0 0 1.749-.833l.014-.015a2.6 2.6 0 0 0 .837-1.774 1.358 1.358 0 0 0 -.385-.96 1.381 1.381 0 0 0 -.991-.418h-.024a2.638 2.638 0 0 0 -1.763.848 2.6 2.6 0 0 0 -.837 1.774 1.358 1.358 0 0 0 .385.96 1.381 1.381 0 0 0 .991.418z"/><path d="m22.85 27.165a2.624 2.624 0 0 0 1.75.835h.025a1.357 1.357 0 0 0 .959-.387 1.381 1.381 0 0 0 .416-.991 2.92 2.92 0 0 0 -2.6-2.622h-.025a1.357 1.357 0 0 0 -.959.387 1.381 1.381 0 0 0 -.414.989 2.6 2.6 0 0 0 .833 1.772z"/><path d="m30 35a2.987 2.987 0 0 0 2-.766 3 3 0 0 0 5-2.234h-2a1 1 0 0 1 -1.99.05 1.982 1.982 0 0 0 .589-.519l1-1.335a2 2 0 0 0 -1.599-3.196h-2a2 2 0 0 0 -1.6 3.2l1 1.324a2 2 0 0 0 .594.524 1 1 0 0 1 -1.994-.048h-2a3 3 0 0 0 3 3zm3-6-1 1.33-1-1.329z"/><path d="m62.075 41.921c-2.265-2.254-5.648-2.56-7.575-.643l-3.062 3.37a6.593 6.593 0 0 0 -5.044-3.626c3.077-1.616 4.606-4.257 4.606-8.052a9.644 9.644 0 0 0 -2.9-7.065c-1.171-1.367-2.1-2.447-2.1-4.675 0-.08 0-.154-.008-.23h.008v-16a5 5 0 0 0 -10 0v8h-8v-8a5 5 0 1 0 -10 0v16h.008c0 .076-.008.15-.008.23 0 2.228-.929 3.308-2.1 4.675a9.644 9.644 0 0 0 -2.9 7.065c0 3.8 1.529 6.436 4.606 8.052a6.592 6.592 0 0 0 -5.043 3.628l-3.1-3.409c-1.892-1.879-5.274-1.574-7.545.685a6.355 6.355 0 0 0 -1.918 4.394 4.412 4.412 0 0 0 1.277 3.18l14.974 13.6a3.62 3.62 0 0 0 2.456.887 5.285 5.285 0 0 0 3.68-1.6 5.78 5.78 0 0 0 .925-1.221 32.593 32.593 0 0 0 8.688.834 32.61 32.61 0 0 0 8.689-.833 5.693 5.693 0 0 0 .921 1.218 5.287 5.287 0 0 0 3.682 1.6 3.631 3.631 0 0 0 2.461-.889l15-13.633a4.391 4.391 0 0 0 1.247-3.143 6.36 6.36 0 0 0 -1.925-4.399zm-12.175 4.417-2.126 2.339a10.3 10.3 0 0 0 -.157-4.857c-.042-.146-.091-.279-.137-.416a4.582 4.582 0 0 1 2.42 2.934zm-8.9-44.338a2.994 2.994 0 0 1 3 3v11.341a9.98 9.98 0 0 0 -2-1.6v-9.741h-2v8.762a11.945 11.945 0 0 0 -2-.562v-8.2a3 3 0 0 1 3-3zm-20.128.882a3 3 0 0 1 5.128 2.118v8.2a11.85 11.85 0 0 0 -2 .562v-8.762h-2v9.743a9.941 9.941 0 0 0 -2 1.6v-11.343a3.01 3.01 0 0 1 .872-2.118zm-5.872 30.088a7.769 7.769 0 0 1 2.412-5.762 8.4 8.4 0 0 0 2.588-5.978.991.991 0 0 1 0-.109.971.971 0 0 0 .01-.121c0-.123.009-.238.017-.352.238-3.037 3.862-5.267 7.1-5.595a7.255 7.255 0 0 1 .873-.053h8a7.255 7.255 0 0 1 .87.053h.02c3.221.326 6.845 2.556 7.083 5.591.008.116.017.231.017.354a.971.971 0 0 0 .008.121.991.991 0 0 1 0 .109 8.4 8.4 0 0 0 2.588 5.978 7.769 7.769 0 0 1 2.414 5.764c0 3.7-1.639 5.87-5.313 7.037a29.588 29.588 0 0 1 -8.687.993h-6a29.6 29.6 0 0 1 -8.688-.993c-3.673-1.167-5.312-3.337-5.312-7.037zm1.517 10.43c-.047.139-.1.274-.139.421a10.284 10.284 0 0 0 -.155 4.853l-2.123-2.335a4.586 4.586 0 0 1 2.417-2.939zm5.325 16.2a3.559 3.559 0 0 1 -.872 1.372c-1.046 1.054-2.6 1.348-3.377.644l-14.936-13.564a2.408 2.408 0 0 1 -.657-1.732 4.345 4.345 0 0 1 1.335-2.981c.04-.04.086-.067.127-.106a4.127 4.127 0 0 0 1.191 2.834l1.414-1.414a1.783 1.783 0 0 1 -.033-2.633c.1-.009.2-.034.3-.034a2.349 2.349 0 0 1 1.69.637l4.259 4.689 9.34 10.28a2.021 2.021 0 0 1 .219 2.008zm5.194.179a4.084 4.084 0 0 0 1.778-1.145 4.809 4.809 0 0 0 -.031-6.36l-5.15-5.23-1.426 1.4 5.119 5.2a2.814 2.814 0 0 1 0 3.651 2.024 2.024 0 0 1 -1.5.7 2.027 2.027 0 0 1 -1.489-.672l-4.2-4.971a8.8 8.8 0 0 1 -1.837-7.972 4.935 4.935 0 0 1 .754-1.615 1.969 1.969 0 0 1 1.027-.745 32.081 32.081 0 0 0 8.919.98h6a32.081 32.081 0 0 0 8.919-.98 1.984 1.984 0 0 1 1.035.755 4.916 4.916 0 0 1 .744 1.6 8.8 8.8 0 0 1 -1.832 7.979l-4.175 4.946a2.046 2.046 0 0 1 -1.515.7 2.02 2.02 0 0 1 -1.5-.7 2.817 2.817 0 0 1 -.031-3.62l5.15-5.23-1.426-1.4-5.181 5.264a4.813 4.813 0 0 0 0 6.33 4.087 4.087 0 0 0 1.775 1.141c-1.249.123-2.872.215-4.963.215s-3.715-.092-4.964-.217zm34.341-11.759-14.966 13.6c-.786.707-2.334.412-3.384-.644a3.542 3.542 0 0 1 -.869-1.372 2.019 2.019 0 0 1 .222-2.009l9.341-10.28 4.224-4.652a2.417 2.417 0 0 1 1.743-.666c.092 0 .189.024.283.032a1.785 1.785 0 0 1 -.044 2.632l.713.7.707.707a4.132 4.132 0 0 0 1.191-2.835c.039.037.083.064.122.1a4.35 4.35 0 0 1 1.34 2.987 2.393 2.393 0 0 1 -.623 1.7z"/><path d="m55.1 45.792a2.588 2.588 0 0 0 -1.883.873l-9.712 10.909a2.024 2.024 0 0 0 .147 2.773 2.122 2.122 0 0 0 1.5.629 1.907 1.907 0 0 0 1.277-.48l10.909-9.709a2.6 2.6 0 0 0 .876-1.968 3.039 3.039 0 0 0 -.9-2.127 2.988 2.988 0 0 0 -2.214-.9zm.909 3.5-10.86 9.684a.135.135 0 0 1 -.08-.042l-.069-.029 9.714-10.914a.608.608 0 0 1 .447-.2h.027a1.086 1.086 0 0 1 1.022 1.029.614.614 0 0 1 -.205.473z"/><path d="m10.791 46.669a2.593 2.593 0 0 0 -1.891-.877 2.993 2.993 0 0 0 -2.211.9 3.043 3.043 0 0 0 -.9 2.128 2.6 2.6 0 0 0 .875 1.967l10.909 9.713a1.908 1.908 0 0 0 1.279.482 2.12 2.12 0 0 0 1.5-.629 2.025 2.025 0 0 0 .149-2.772zm8.142 12.264-.028.07-10.911-9.711a.613.613 0 0 1 -.2-.472 1.086 1.086 0 0 1 1.025-1.029h.027a.612.612 0 0 1 .451.2l9.683 10.856a.127.127 0 0 1 -.047.086z"/></g></svg>