<?xml version="1.0"?>
<svg xmlns="http://www.w3.org/2000/svg" viewBox="0 0 64 64" width="512" height="512"><g id="_16-turtle" data-name="16-turtle"><path d="M59,45a4.529,4.529,0,0,1,4,4c0,7-4,14-14,14-7.92,0-9.96-5.88-10-8.91A15.927,15.927,0,0,0,41.01,52c.77-.14,1.3-.26,1.76-.38a6.47,6.47,0,0,1,3.27.05A11.863,11.863,0,0,0,49,52c3,0,5-1.24,5-4,0-1.09,2.26-2.93,3.91-2.99A.277.277,0,0,1,58,45Z" style="fill:#ddb89e"/><path d="M63,33a15.429,15.429,0,0,1-5.09,12v.01C56.26,45.07,54,46.91,54,48c0,2.76-2,4-5,4a11.863,11.863,0,0,1-2.96-.33,6.47,6.47,0,0,0-3.27-.05c-.46.12-.99.24-1.76.38A17.35,17.35,0,0,0,43,49a1.77,1.77,0,0,0,.23-.01C50.24,48.7,61,34.87,61,23l.07-.03A28.552,28.552,0,0,1,63,33Z" style="fill:#2d9169"/><path d="M50,31c0,3.94-1.97,17.56-6.77,17.99A1.77,1.77,0,0,1,43,49a15.289,15.289,0,0,0,2-7,7.977,7.977,0,0,0-.06-.99L45,41c0-6.63-5.81-12-13-12S19,34.37,19,41l.06.01A7.977,7.977,0,0,0,19,42a15.289,15.289,0,0,0,2,7,1.77,1.77,0,0,1-.23-.01C15.97,48.56,14,34.94,14,31c0-3.08,4.13-9.14,11.1-11.75a19.669,19.669,0,0,1,13.8,0C45.87,21.86,50,27.92,50,31Z" style="fill:#00bfb7"/><path d="M45,41l-.06.01C44.34,35.6,38.78,33,32,33s-12.34,2.6-12.94,8.01L19,41c0-6.63,5.81-12,13-12S45,34.37,45,41Z" style="fill:#006e6a"/><path d="M39,54.09A10.753,10.753,0,0,1,32,57a10.753,10.753,0,0,1-7-2.91A15.927,15.927,0,0,1,22.99,52,17.35,17.35,0,0,1,21,49a15.289,15.289,0,0,1-2-7,7.977,7.977,0,0,1,.06-.99C19.66,35.6,25.22,33,32,33s12.34,2.6,12.94,8.01A7.977,7.977,0,0,1,45,42a15.289,15.289,0,0,1-2,7,17.35,17.35,0,0,1-1.99,3A15.927,15.927,0,0,1,39,54.09Z" style="fill:#ffd5b3"/><path d="M25,54.09C24.96,57.12,22.92,63,15,63,5,63,1,56,1,49a4.529,4.529,0,0,1,4-4H6a.34.34,0,0,1,.1.01c1.65.06,3.9,1.9,3.9,2.99,0,2.76,2,4,5,4a11.863,11.863,0,0,0,2.96-.33,6.47,6.47,0,0,1,3.27-.05c.46.12.99.24,1.76.38A15.927,15.927,0,0,0,25,54.09Z" style="fill:#ddb89e"/><path d="M21,49a17.35,17.35,0,0,0,1.99,3c-.77-.14-1.3-.26-1.76-.38a6.47,6.47,0,0,0-3.27.05A11.863,11.863,0,0,1,15,52c-3,0-5-1.24-5-4,0-1.09-2.25-2.93-3.9-2.99V45A15.4,15.4,0,0,1,1,33,28.552,28.552,0,0,1,2.93,22.97L3,23C3,34.87,13.76,48.7,20.77,48.99A1.77,1.77,0,0,0,21,49Z" style="fill:#2d9169"/><path d="M61.07,22.97,61,23c0,11.87-10.76,25.7-17.77,25.99C48.03,48.56,50,34.94,50,31l8.85-12.78A35.244,35.244,0,0,1,61.07,22.97Z" style="fill:#6be0b2"/><path d="M58.85,18.22,50,31c0-3.08-4.13-9.14-11.1-11.75L39,19,47.72,6.04A36.139,36.139,0,0,1,58.85,18.22Z" style="fill:#5ec49c"/><path d="M47.72,6.04,39,19l-.1.25a19.669,19.669,0,0,0-13.8,0L25,19,16.28,6.04A28.015,28.015,0,0,1,32,1,28.015,28.015,0,0,1,47.72,6.04Z" style="fill:#6be0b2"/><path d="M25,19l.1.25C18.13,21.86,14,27.92,14,31L5.15,18.22A36.139,36.139,0,0,1,16.28,6.04Z" style="fill:#5ec49c"/><path d="M14,31c0,3.94,1.97,17.56,6.77,17.99C13.76,48.7,3,34.87,3,23l-.07-.03a35.244,35.244,0,0,1,2.22-4.75Z" style="fill:#6be0b2"/><path d="M59,45h-.237A3.377,3.377,0,0,1,60,47.333C60,53.167,56.5,59,47.75,59a11.74,11.74,0,0,1-3.014-.365,3.764,3.764,0,0,1-2.564-2.369,4.705,4.705,0,0,1,.485-4.618c-.435.111-.937.223-1.647.352A15.927,15.927,0,0,1,39,54.09C39.04,57.12,41.08,63,49,63c10.043,0,14.034-7.06,14-14.09A4.006,4.006,0,0,0,59,45Z" style="fill:#c2a18b"/><path d="M5,45h.237A3.377,3.377,0,0,0,4,47.333C4,53.167,7.5,59,16.25,59a11.74,11.74,0,0,0,3.014-.365,3.764,3.764,0,0,0,2.564-2.369,4.705,4.705,0,0,0-.485-4.618c.435.111.937.223,1.647.352A15.927,15.927,0,0,0,25,54.09C24.96,57.12,22.92,63,15,63,4.957,63,.966,55.94,1,48.91A4.006,4.006,0,0,1,5,45Z" style="fill:#c2a18b"/><path d="M32,31a13.193,13.193,0,0,1,11.313,6.1A7.4,7.4,0,0,1,44.94,41.01L45,41c0-6.63-5.81-12-13-12S19,34.37,19,41l.06.01A7.4,7.4,0,0,1,20.687,37.1,13.193,13.193,0,0,1,32,31Z" style="fill:#00524f"/><path d="M32,38c6.2,0,11.364,2.18,12.665,6.686A11.91,11.91,0,0,0,45,42a7.977,7.977,0,0,0-.06-.99C44.34,35.6,38.78,33,32,33s-12.34,2.6-12.94,8.01A7.977,7.977,0,0,0,19,42a11.91,11.91,0,0,0,.335,2.686C20.636,40.18,25.8,38,32,38Z" style="fill:#ffebd1"/><path d="M61.07,22.97a35.244,35.244,0,0,0-2.22-4.75l-1.915,2.765c.662.936,1.287,1.893,1.85,2.876a34.566,34.566,0,0,1,1.752,3.577A22.614,22.614,0,0,0,61,23Z" style="fill:#87f5ca"/><path d="M47.682,11.935a35.313,35.313,0,0,1,9.253,9.05L58.85,18.22A36.139,36.139,0,0,0,47.72,6.04l-2.855,4.243A31.76,31.76,0,0,1,47.682,11.935Z" style="fill:#6be0b2"/><path d="M32,7a27.6,27.6,0,0,1,12.865,3.283L47.72,6.04A28.015,28.015,0,0,0,32,1,28.015,28.015,0,0,0,16.28,6.04l2.855,4.243A27.6,27.6,0,0,1,32,7Z" style="fill:#87f5ca"/><path d="M16.318,11.935a31.76,31.76,0,0,1,2.817-1.652L16.28,6.04A36.139,36.139,0,0,0,5.15,18.22l1.915,2.765A35.313,35.313,0,0,1,16.318,11.935Z" style="fill:#6be0b2"/><path d="M7.065,20.985,5.15,18.22a35.244,35.244,0,0,0-2.22,4.75L3,23a22.614,22.614,0,0,0,.463,4.438,34.566,34.566,0,0,1,1.752-3.577C5.778,22.878,6.4,21.921,7.065,20.985Z" style="fill:#87f5ca"/><ellipse cx="58.258" cy="47.814" rx="1.148" ry="0.825" style="fill:#c2a18b"/><ellipse cx="56.258" cy="49.814" rx="1.148" ry="0.825" style="fill:#c2a18b"/><ellipse cx="56.258" cy="53.814" rx="1.148" ry="0.825" style="fill:#c2a18b"/><ellipse cx="45.258" cy="52.814" rx="1.148" ry="0.825" style="fill:#c2a18b"/><ellipse cx="49.258" cy="53.814" rx="1.148" ry="0.825" style="fill:#c2a18b"/><ellipse cx="46.258" cy="55.814" rx="1.148" ry="0.825" style="fill:#c2a18b"/><ellipse cx="51.258" cy="56.814" rx="1.148" ry="0.825" style="fill:#c2a18b"/><path d="M61.939,46.308a4.12,4.12,0,0,1,.061.6C62.031,53.94,58.373,61,49.167,61c-6.545,0-8.7-4.773-9.093-7.934-.345.361-.7.7-1.074,1.024C39.04,57.12,41.08,63,49,63c10.043,0,14.034-7.06,14-14.09A3.852,3.852,0,0,0,61.939,46.308Z" style="fill:#a88c79"/><ellipse cx="5.742" cy="47.814" rx="1.148" ry="0.825" style="fill:#c2a18b"/><ellipse cx="7.742" cy="49.814" rx="1.148" ry="0.825" style="fill:#c2a18b"/><ellipse cx="7.742" cy="53.814" rx="1.148" ry="0.825" style="fill:#c2a18b"/><ellipse cx="18.742" cy="52.814" rx="1.148" ry="0.825" style="fill:#c2a18b"/><ellipse cx="14.742" cy="53.814" rx="1.148" ry="0.825" style="fill:#c2a18b"/><ellipse cx="17.742" cy="55.814" rx="1.148" ry="0.825" style="fill:#c2a18b"/><ellipse cx="12.742" cy="56.814" rx="1.148" ry="0.825" style="fill:#c2a18b"/><path d="M2.061,46.308a4.12,4.12,0,0,0-.061.6C1.969,53.94,5.627,61,14.833,61c6.545,0,8.7-4.773,9.093-7.934.345.361.7.7,1.074,1.024C24.96,57.12,22.92,63,15,63,4.957,63,.966,55.94,1,48.91A3.852,3.852,0,0,1,2.061,46.308Z" style="fill:#a88c79"/><path d="M62.785,29.776A30.108,30.108,0,0,0,61.07,22.97L61,23c0,10.186-7.923,21.808-14.6,25.085a7.815,7.815,0,0,1-3.39.909L43,49a17.432,17.432,0,0,1-1.228,1.97c-.246.349-.49.7-.762,1.03.771-.14,1.3-.26,1.762-.381a6.33,6.33,0,0,1,3.273.052,10.113,10.113,0,0,0,1.82.282l-.019-.019a1.7,1.7,0,0,1,.519-2.725C55.14,45.858,60.493,38.2,62.785,29.776Z" style="fill:#257857"/><path d="M22.228,50.97A17.343,17.343,0,0,1,21,49L20.991,49a7.508,7.508,0,0,1-3.032-.735C11.21,45.231,3,33.369,3,23l-.07-.03a30.108,30.108,0,0,0-1.715,6.806c2.331,8.569,7.829,16.338,14.767,19.6a1.581,1.581,0,0,1,.511,2.536l-.017.016a9.193,9.193,0,0,0,1.529-.267,5.808,5.808,0,0,1,3.1-.071c.49.132,1.045.261,1.888.414C22.718,51.671,22.474,51.319,22.228,50.97Z" style="fill:#257857"/><path d="M38.9,19.25a19.669,19.669,0,0,0-13.8,0C18.13,21.86,14,27.92,14,31a38.266,38.266,0,0,0,.551,5.51A17.531,17.531,0,0,1,32,23,17.531,17.531,0,0,1,49.449,36.51,38.266,38.266,0,0,0,50,31C50,27.92,45.87,21.86,38.9,19.25Z" style="fill:#48dae0"/><path d="M15.294,34.189a18.46,18.46,0,0,0-.743,2.321C15.43,41.9,17.4,48.688,20.77,48.99A1.77,1.77,0,0,0,21,49a15.289,15.289,0,0,1-2-7c0-.2.021-.39.035-.584A12.463,12.463,0,0,1,15.294,34.189Z" style="fill:#00aba5"/><path d="M48.706,34.189a12.463,12.463,0,0,1-3.741,7.227c.014.194.035.384.035.584a15.289,15.289,0,0,1-2,7,1.77,1.77,0,0,0,.23-.01c3.367-.3,5.34-7.092,6.219-12.48A18.46,18.46,0,0,0,48.706,34.189Z" style="fill:#00aba5"/><ellipse cx="37.258" cy="4.814" rx="0.825" ry="1.148" transform="translate(7.516 27.765) rotate(-45.02)" style="fill:#f6fafd"/><ellipse cx="42.258" cy="23.814" rx="0.825" ry="1.148" transform="translate(-4.457 36.872) rotate(-45.02)" style="fill:#f6fafd"/><ellipse cx="45.004" cy="26.314" rx="0.413" ry="0.574" transform="translate(-5.421 39.547) rotate(-45.02)" style="fill:#f6fafd"/><ellipse cx="42.26" cy="7.8" rx="1.642" ry="2.286" transform="translate(6.87 32.179) rotate(-45.02)" style="fill:#f6fafd"/><path d="M39.377,50H39.4a2.616,2.616,0,0,0,1.748-.834l.014-.014A2.6,2.6,0,0,0,42,47.377a1.354,1.354,0,0,0-.385-.958A1.379,1.379,0,0,0,40.623,46H40.6a2.633,2.633,0,0,0-1.762.848A2.6,2.6,0,0,0,38,48.623a1.354,1.354,0,0,0,.385.958A1.379,1.379,0,0,0,39.377,50Z"/><path d="M23.4,46h-.025a1.354,1.354,0,0,0-.958.385,1.379,1.379,0,0,0-.416.989,2.6,2.6,0,0,0,.833,1.773l.014.014A2.616,2.616,0,0,0,24.6,50h.025a1.354,1.354,0,0,0,.958-.385A1.379,1.379,0,0,0,26,48.623,2.922,2.922,0,0,0,23.4,46Z"/><path d="M60.039,44.154A16.021,16.021,0,0,0,64,33a29.389,29.389,0,0,0-1.994-10.382,36.264,36.264,0,0,0-2.284-4.888A36.95,36.95,0,0,0,48.28,5.212,29.082,29.082,0,0,0,32,0,29.083,29.083,0,0,0,15.721,5.211,36.956,36.956,0,0,0,4.277,17.732a36.288,36.288,0,0,0-2.283,4.885A29.4,29.4,0,0,0,0,33,15.991,15.991,0,0,0,3.966,44.152,5.591,5.591,0,0,0,0,49c0,6.92,3.929,15,15,15,7.222,0,10.032-4.563,10.776-8.062A11.075,11.075,0,0,0,32,58a11.082,11.082,0,0,0,6.222-2.06C38.964,59.431,41.773,64,49,64c11.071,0,15-8.08,15-15A5.59,5.59,0,0,0,60.039,44.154Zm-2.617-.093C55.491,44.4,53,46.33,53,48c0,.742,0,3-4,3a10.887,10.887,0,0,1-2.7-.3,7.554,7.554,0,0,0-3.038-.188c.112-.185.224-.37.33-.559,6.56-.6,15.6-11.255,17.869-22.062A25.448,25.448,0,0,1,62,33,14.362,14.362,0,0,1,57.422,44.061ZM13.007,31.322c.073,2.254.849,10.159,3.348,14.934C10.4,42.235,4,31.935,4,23c.369-.946.8-1.9,1.279-2.843Zm5.8,15.146C16.428,43.067,15,34.873,15,31c0-2.408,3.589-8.244,10.453-10.815a18.753,18.753,0,0,1,13.1,0C45.411,22.756,49,28.592,49,31c0,3.873-1.428,12.07-3.8,15.47A14.164,14.164,0,0,0,46,42a9.014,9.014,0,0,0-.06-1H46c0-7.168-6.28-13-14-13S18,33.832,18,41h.06A9.029,9.029,0,0,0,18,42,14.163,14.163,0,0,0,18.8,46.468Zm32.19-15.146,7.729-11.161c.475.948.909,1.9,1.278,2.843,0,8.9-6.357,19.166-12.337,23.217C50.147,41.443,50.92,33.571,50.993,31.322ZM32,30a12.392,12.392,0,0,1,9.425,4.214A18.411,18.411,0,0,0,32,32a18.426,18.426,0,0,0-9.423,2.211A12.393,12.393,0,0,1,32,30ZM57.659,18.179,50.465,28.571c-1.256-3.252-4.733-7.433-10.107-9.8L47.974,7.455A34.983,34.983,0,0,1,57.659,18.179ZM46.314,6.338l-7.879,11.71a20.787,20.787,0,0,0-12.87,0l-7.88-11.71A26.871,26.871,0,0,1,32,2,26.873,26.873,0,0,1,46.314,6.338ZM16.026,7.455l7.616,11.318c-5.374,2.366-8.851,6.547-10.107,9.8L6.34,18.181A34.983,34.983,0,0,1,16.026,7.455ZM2.537,27.9c2.278,10.849,11.371,21.546,17.87,22.062.106.189.217.374.329.558a7.562,7.562,0,0,0-3.041.189A10.9,10.9,0,0,1,15,51c-4,0-4-2.258-4-3,0-1.67-2.487-3.606-4.414-3.94A14.339,14.339,0,0,1,2,33,25.431,25.431,0,0,1,2.537,27.9ZM15,62C5.415,62,2,55.284,2,49a3.571,3.571,0,0,1,3-3h.96a.878.878,0,0,0,.1.009A4.209,4.209,0,0,1,9,48c0,3.131,2.243,5,6,5a12.75,12.75,0,0,0,3.222-.365,5.475,5.475,0,0,1,2.756-.047c.454.119.939.223,1.487.328a16.876,16.876,0,0,0,1.509,1.578C23.819,56.14,22.724,62,15,62Zm10.652-8.668a14.968,14.968,0,0,1-1.892-1.97,16.28,16.28,0,0,1-1.881-2.839A14.418,14.418,0,0,1,20,42a6.988,6.988,0,0,1,.054-.88C20.636,35.87,26.606,34,32,34s11.364,1.87,11.946,7.12l0,.014A6.983,6.983,0,0,1,44,42a14.438,14.438,0,0,1-1.886,6.536,16.212,16.212,0,0,1-1.885,2.838,14.82,14.82,0,0,1-1.886,1.962A9.759,9.759,0,0,1,32,56,9.766,9.766,0,0,1,25.652,53.332ZM49,62c-7.742,0-8.824-5.884-8.975-7.506a16.714,16.714,0,0,0,1.51-1.578c.548-.1,1.031-.209,1.478-.326a5.5,5.5,0,0,1,2.762.044A12.742,12.742,0,0,0,49,53c3.757,0,6-1.869,6-4.982a4.2,4.2,0,0,1,2.948-2.009.9.9,0,0,0,.1-.009H59a3.571,3.571,0,0,1,3,3C62,55.284,58.585,62,49,62Z"/></g></svg>
