<?xml version="1.0"?>
<svg xmlns="http://www.w3.org/2000/svg" viewBox="0 0 64 64" width="512" height="512"><g id="_18-monkey" data-name="18-monkey"><path d="M63,35V57a6,6,0,0,1-6,6H54c-2.13,0-3.87-.83-3.99-1.88a7.1,7.1,0,0,0,2.31-2.83A3.707,3.707,0,0,0,55,59h1a3,3,0,0,0,3-3V35a2.006,2.006,0,0,1,2-2,2.015,2.015,0,0,1,2,2Z" style="fill:#e3a76f"/><path d="M31.98,60.99A3.58,3.58,0,0,1,29,63H13a2,2,0,0,1,0-4,4.276,4.276,0,0,0,4.02-2.82l7.95-22.11A25.377,25.377,0,0,0,32,35a24.187,24.187,0,0,0,9.21-1.68L51.45,48.68A9.887,9.887,0,0,1,53,54v1a7.828,7.828,0,0,1-.68,3.29,7.1,7.1,0,0,1-2.31,2.83A10.3,10.3,0,0,1,43.79,63H34a3.516,3.516,0,0,1-2-2Z" style="fill:#e3a76f"/><ellipse cx="24" cy="19" rx="0.636" ry="1.259" transform="translate(-6.406 22.536) rotate(-45)" style="fill:#e3a76f"/><ellipse cx="40" cy="19" rx="1.259" ry="0.636" transform="translate(-1.719 33.849) rotate(-45)" style="fill:#e3a76f"/><path d="M31,21h2a1,1,0,0,1,.8,1.6l-1,1.33a.993.993,0,0,1-1.6,0l-1-1.33A1,1,0,0,1,31,21Z" style="fill:#e3a76f"/><path d="M13.41,24H12a6,6,0,0,1,0-12,4.49,4.49,0,0,1,.64.04A14.445,14.445,0,0,0,12,18,20.858,20.858,0,0,0,13.41,24Z" style="fill:#ffc6c2"/><path d="M52,12a6,6,0,0,1,0,12H50.59A20.858,20.858,0,0,0,52,18a14.445,14.445,0,0,0-.64-5.96A4.49,4.49,0,0,1,52,12Z" style="fill:#ffc6c2"/><path d="M31.2,23.93a.993.993,0,0,0,1.6,0l1-1.33A1,1,0,0,0,33,21H31a1,1,0,0,0-.8,1.6ZM39,8c6.08,0,9,4.16,9,10,0,6.36-7.16,14-16,14S16,24.36,16,18c0-5.84,2.92-10,9-10,2.76,0,5,1,7,5C34,9,36.24,8,39,8Zm1.45,11.45c.49-.5.69-1.1.44-1.34s-.84-.05-1.34.44-.69,1.1-.44,1.34S39.95,19.94,40.45,19.45Zm-15.56.44c.25-.24.05-.84-.44-1.34s-1.1-.69-1.34-.44-.05.84.44,1.34S24.65,20.14,24.89,19.89Z" style="fill:#ffc6c2"/><path d="M63,35V57a6,6,0,0,1-6,6H54c-2.13,0-3.87-.83-3.99-1.88a7.1,7.1,0,0,0,2.31-2.83A3.707,3.707,0,0,0,55,59h1a3,3,0,0,0,3-3V35a2.006,2.006,0,0,1,2-2,2.015,2.015,0,0,1,2,2Z" style="fill:#d6995c"/><path d="M16.53,29H12A11,11,0,0,1,12,7h3.7a13.11,13.11,0,0,0-3.06,5.04A4.49,4.49,0,0,0,12,12a6,6,0,0,0,0,12h1.41A16.457,16.457,0,0,0,16.53,29Z" style="fill:#e3a76f"/><path d="M52,7a11,11,0,0,1,0,22H47.47a16.457,16.457,0,0,0,3.12-5H52a6,6,0,0,0,0-12,4.49,4.49,0,0,0-.64.04A13.11,13.11,0,0,0,48.3,7Z" style="fill:#e3a76f"/><path d="M48.3,7a13.11,13.11,0,0,1,3.06,5.04A14.445,14.445,0,0,1,52,18a20.858,20.858,0,0,1-1.41,6,16.457,16.457,0,0,1-3.12,5,17.1,17.1,0,0,1-6.26,4.32A24.187,24.187,0,0,1,32,35a25.377,25.377,0,0,1-7.03-.93A17.7,17.7,0,0,1,16.53,29a16.457,16.457,0,0,1-3.12-5A20.858,20.858,0,0,1,12,18a14.445,14.445,0,0,1,.64-5.96A13.11,13.11,0,0,1,15.7,7C19.43,3.08,25.53,1,32,1S44.57,3.08,48.3,7ZM48,18c0-5.84-2.92-10-9-10-2.76,0-5,1-7,5-2-4-4.24-5-7-5-6.08,0-9,4.16-9,10,0,6.36,7.16,14,16,14S48,24.36,48,18Z" style="fill:#e3a76f"/><path d="M51.45,48.68,41.21,33.32A24.187,24.187,0,0,1,32,35c-.794,0-1.565-.042-2.326-.1l-3.135,8.62A6.21,6.21,0,0,1,29,43a7.668,7.668,0,0,1,8,8s.008,10.719,11.564,10.987a8.354,8.354,0,0,0,1.446-.867,7.1,7.1,0,0,0,2.31-2.83A7.828,7.828,0,0,0,53,55V54A9.887,9.887,0,0,0,51.45,48.68Z" style="fill:#d6995c"/><path d="M13.5,28c-6.08,0-11-4.473-11-10S7.42,8,13.5,8h1.333c.274-.344.559-.681.867-1H12a11,11,0,0,0,0,22h4.53c-.292-.319-.568-.656-.834-1Z" style="fill:#f5b57b"/><path d="M52,7H48.3c.308.319.593.656.867,1H50c6.08,0,11,4.473,11,10S56.08,28,50,28H48.3c-.266.344-.542.681-.834,1H52A11,11,0,0,0,52,7Z" style="fill:#f5b57b"/><path d="M9.677,12.468A12.771,12.771,0,0,0,9.079,18a18.743,18.743,0,0,0,1.548,5.835A5.979,5.979,0,0,0,12,24h1.41A20.858,20.858,0,0,1,12,18a14.445,14.445,0,0,1,.64-5.96A4.49,4.49,0,0,0,12,12,5.974,5.974,0,0,0,9.677,12.468Z" style="fill:#ffb4a3"/><path d="M53.373,23.835A18.743,18.743,0,0,0,54.921,18a12.771,12.771,0,0,0-.6-5.532A5.974,5.974,0,0,0,52,12a4.49,4.49,0,0,0-.64.04A14.445,14.445,0,0,1,52,18a20.858,20.858,0,0,1-1.41,6H52A5.979,5.979,0,0,0,53.373,23.835Z" style="fill:#ffb4a3"/><path d="M12.64,12.04A12.977,12.977,0,0,1,14.833,8c.274-.344.559-.681.867-1H13.32a14.437,14.437,0,0,0-1.061,1.068A12.526,12.526,0,0,0,9.813,12.04c-.054.139-.087.287-.136.428A5.974,5.974,0,0,1,12,12,4.49,4.49,0,0,1,12.64,12.04Z" style="fill:#c48958"/><path d="M15.7,28a16.692,16.692,0,0,1-2.286-4H12a5.979,5.979,0,0,1-1.373-.165c.024.054.043.112.068.165a16.294,16.294,0,0,0,2.611,3.991c.308.348.627.687.965,1.009H16.53C16.238,28.681,15.962,28.344,15.7,28Z" style="fill:#c48958"/><path d="M50.59,24A16.692,16.692,0,0,1,48.3,28c-.266.344-.542.681-.834,1h2.259c.346-.33.673-.676.988-1.033A16.343,16.343,0,0,0,53.305,24c.025-.053.044-.111.068-.165A5.979,5.979,0,0,1,52,24Z" style="fill:#c48958"/><path d="M51.36,12.04A4.49,4.49,0,0,1,52,12a5.974,5.974,0,0,1,2.323.468c-.049-.141-.082-.289-.136-.428a12.484,12.484,0,0,0-2.372-3.893A14.437,14.437,0,0,0,50.68,7H48.3c.308.319.593.656.867,1A12.977,12.977,0,0,1,51.36,12.04Z" style="fill:#c48958"/><path d="M33,57a7.838,7.838,0,0,1-1.02,3.99L32,61a3.516,3.516,0,0,0,2,2h5A6,6,0,0,1,33,57Z" style="fill:#c48958"/><path d="M37,51a7.668,7.668,0,0,0-8-8c-3.87,0-7,3.58-7,8v6a2.015,2.015,0,0,1-2,2,2.015,2.015,0,0,0-2,2,2.714,2.714,0,0,0,1,2H29a3.58,3.58,0,0,0,2.98-2.01A7.838,7.838,0,0,0,33,57a6,6,0,0,0,6,6h4.79a11.089,11.089,0,0,0,4.774-1.013C37.008,61.719,37,51,37,51Z" style="fill:#e3a76f"/><path d="M22,61a2.015,2.015,0,0,0,2-2V53c0-4.42,3.13-8,7-8a8.354,8.354,0,0,1,4.684,1.367A7.832,7.832,0,0,0,29,43c-3.87,0-7,3.58-7,8v6a2.015,2.015,0,0,1-2,2,2.015,2.015,0,0,0-2,2,2.714,2.714,0,0,0,1,2h1a2.015,2.015,0,0,1,2-2Z" style="fill:#f5b57b"/><path d="M24.97,34.07,17.02,56.18A4.276,4.276,0,0,1,13,59a2,2,0,0,0,0,4h6a2.714,2.714,0,0,1-1-2,2.015,2.015,0,0,1,2-2,2.015,2.015,0,0,0,2-2V51a8.022,8.022,0,0,1,4.539-7.483l3.135-8.62A23.966,23.966,0,0,1,24.97,34.07Z" style="fill:#c48958"/><path d="M51.45,48.68,41.21,33.32a21.26,21.26,0,0,1-3.322,1.017L47.45,48.68A9.887,9.887,0,0,1,49,54v1a7.828,7.828,0,0,1-.68,3.29,7.1,7.1,0,0,1-2.31,2.83,7.788,7.788,0,0,1-.688.462,15.415,15.415,0,0,0,3.242.405,8.354,8.354,0,0,0,1.446-.867,7.1,7.1,0,0,0,2.31-2.83A7.828,7.828,0,0,0,53,55V54A9.887,9.887,0,0,0,51.45,48.68Z" style="fill:#f5b57b"/><path d="M28.62,37.794l1.054-2.9h0q-1-.081-1.958-.235c-.247-.038-.492-.078-.735-.124-.205-.039-.41-.078-.611-.122-.475-.1-.944-.214-1.4-.345L24,36.763c.319.107.639.214.968.307A23.256,23.256,0,0,0,28.62,37.794Z" style="fill:#b27a49"/><path d="M32,35c-.479,0-.949-.019-1.414-.044-.307-.015-.61-.035-.912-.059h0l-1.054,2.9A28.084,28.084,0,0,0,32,38a25.179,25.179,0,0,0,7.587-1.115l-1.7-2.548A26.2,26.2,0,0,1,32,35Z" style="fill:#c48958"/><path d="M39.515,33.91c-.528.164-1.074.3-1.627.427l1.7,2.548c.551-.174,1.1-.35,1.623-.565s1.029-.46,1.523-.716L41.21,33.32A17.808,17.808,0,0,1,39.515,33.91Z" style="fill:#d6995c"/><path d="M51.36,12.04A13.11,13.11,0,0,0,48.3,7C44.57,3.08,38.47,1,32,1S19.43,3.08,15.7,7a13.11,13.11,0,0,0-3.06,5.04A14.445,14.445,0,0,0,12,18a20.858,20.858,0,0,0,1.41,6,16.457,16.457,0,0,0,3.12,5,17.7,17.7,0,0,0,8.44,5.07A25.377,25.377,0,0,0,32,35a21.135,21.135,0,0,1-6.3-.9,15.7,15.7,0,0,1-7.57-4.921,16.2,16.2,0,0,1-2.8-4.853A21.609,21.609,0,0,1,14.062,18.5a15.122,15.122,0,0,1,.574-5.785,12.953,12.953,0,0,1,2.745-4.892C20.726,4.019,26.2,2,32,2S43.274,4.019,46.619,7.823a12.953,12.953,0,0,1,2.745,4.892,15.122,15.122,0,0,1,.574,5.785,21.609,21.609,0,0,1-1.265,5.823,16.2,16.2,0,0,1-2.8,4.853,15.363,15.363,0,0,1-5.615,4.193A20.233,20.233,0,0,1,32,35a24.187,24.187,0,0,0,9.21-1.68A17.1,17.1,0,0,0,47.47,29a16.457,16.457,0,0,0,3.12-5A20.858,20.858,0,0,0,52,18,14.445,14.445,0,0,0,51.36,12.04Z" style="fill:#f5b57b"/><path d="M39,8c-2.76,0-5,1-7,5-2-4-4.24-5-7-5-6.08,0-9,4.16-9,10,0,6.36,7.16,14,16,14s16-7.64,16-14C48,12.16,45.08,8,39,8ZM32,31c-8.287,0-15-7-15-12.833C17,12.813,19.737,9,25.437,9c2.588,0,4.688.917,6.563,4.583C33.875,9.917,35.975,9,38.562,9,44.263,9,47,12.813,47,18.167,47,24,40.287,31,32,31Z" style="fill:#ffb4a3"/><ellipse cx="47.258" cy="52.814" rx="0.825" ry="1.148" transform="translate(-23.505 48.909) rotate(-45.02)" style="fill:#f6fafd"/><ellipse cx="57.004" cy="12.314" rx="0.413" ry="0.574" transform="translate(7.999 43.931) rotate(-45.02)" style="fill:#f6fafd"/><ellipse cx="46.26" cy="48.8" rx="1.642" ry="2.286" transform="translate(-20.958 47.027) rotate(-45.02)" style="fill:#f6fafd"/><path d="M49,18c0-6.888-3.738-11-10-11a7.676,7.676,0,0,0-7,3.969A7.676,7.676,0,0,0,25,7c-6.262,0-10,4.112-10,11,0,8.309,9.3,15,17,15S49,26.309,49,18ZM17,18c0-5.72,2.916-9,8-9,2.33,0,4.26.756,6.105,4.447a1.042,1.042,0,0,0,1.79,0C34.74,9.756,36.67,9,39,9c5.084,0,8,3.28,8,9,0,5.888-6.691,13-15,13S17,23.888,17,18Z"/><path d="M39.376,21H39.4a2.624,2.624,0,0,0,1.749-.833l.014-.015A2.6,2.6,0,0,0,42,18.378a1.358,1.358,0,0,0-.385-.96A1.381,1.381,0,0,0,40.624,17H40.6a2.638,2.638,0,0,0-1.763.848A2.6,2.6,0,0,0,38,19.622a1.358,1.358,0,0,0,.385.96A1.381,1.381,0,0,0,39.376,21Z"/><path d="M23.4,17h-.025a1.357,1.357,0,0,0-.959.387,1.381,1.381,0,0,0-.414.989,2.6,2.6,0,0,0,.833,1.772l.014.015A2.624,2.624,0,0,0,24.6,21h.025a1.357,1.357,0,0,0,.959-.387A1.381,1.381,0,0,0,26,19.622,2.92,2.92,0,0,0,23.4,17Z"/><path d="M34,28a3,3,0,0,0,3-3H35a1,1,0,0,1-1.99.05,1.982,1.982,0,0,0,.589-.519l1-1.335A2,2,0,0,0,33,20H31a2,2,0,0,0-1.6,3.2l1,1.324a2,2,0,0,0,.594.524A1,1,0,0,1,29,25H27a3,3,0,0,0,5,2.234A2.987,2.987,0,0,0,34,28Zm-1-6-1,1.33-1-1.329Z"/><path d="M61,32a3,3,0,0,0-3,3V56a2,2,0,0,1-2,2H55a4.41,4.41,0,0,1-1.435-.152A9.147,9.147,0,0,0,54,55V54a10.807,10.807,0,0,0-1.718-5.875l-9.6-14.4A17.912,17.912,0,0,0,47.876,30H52A12,12,0,0,0,52,6H48.688C44.851,2.19,38.813,0,32,0S19.144,2.192,15.311,6H12a12,12,0,0,0,0,24h4.11a18.382,18.382,0,0,0,7.567,4.709l-7.6,21.132A3.281,3.281,0,0,1,13,58a3,3,0,0,0,0,6H29a4.116,4.116,0,0,0,2.9-1.29A3.445,3.445,0,0,0,34,64h9.79a11.835,11.835,0,0,0,5.885-1.472A6.029,6.029,0,0,0,54,64h3a7.009,7.009,0,0,0,7-7V35a3.013,3.013,0,0,0-3-3Zm1-14A10.011,10.011,0,0,1,52,28H49.533a17.684,17.684,0,0,0,1.7-3H52a7,7,0,0,0,.026-14A13.914,13.914,0,0,0,50.4,8H52A10.011,10.011,0,0,1,62,18Zm-9.322-4.931A4.987,4.987,0,0,1,52.014,23,22.661,22.661,0,0,0,53,18.091,15.877,15.877,0,0,0,52.678,13.069ZM2,18A10.011,10.011,0,0,1,12,8h1.6a13.965,13.965,0,0,0-1.623,3A7,7,0,0,0,12,25h.767a17.7,17.7,0,0,0,1.7,3H12A10.011,10.011,0,0,1,2,18Zm9,.091A22.708,22.708,0,0,0,11.986,23a4.987,4.987,0,0,1-.664-9.93A15.877,15.877,0,0,0,11,18.091Zm6.264,10.234c-.094-.1-.177-.216-.268-.321v0h0a15.554,15.554,0,0,1-2.661-4.378A19.915,19.915,0,0,1,13,17.909a13.479,13.479,0,0,1,.594-5.557,12.093,12.093,0,0,1,2.835-4.663C19.864,4.074,25.542,2,32,2S44.136,4.074,47.58,7.694a12.086,12.086,0,0,1,2.83,4.658l0,0A13.479,13.479,0,0,1,51,17.909a19.908,19.908,0,0,1-1.342,5.717A15.531,15.531,0,0,1,47,28h0v0c-.092.106-.176.221-.271.324a16.114,16.114,0,0,1-5.9,4.069A23.175,23.175,0,0,1,32,34a24.42,24.42,0,0,1-6.757-.892A16.641,16.641,0,0,1,17.268,28.325ZM34.141,62A3.164,3.164,0,0,1,33.1,60.971,9.066,9.066,0,0,0,34,57H32a6.854,6.854,0,0,1-.881,3.482A2.7,2.7,0,0,1,29,62H19.394A1.779,1.779,0,0,1,19,61a.977.977,0,0,1,.307-.713A.959.959,0,0,1,20,60a3.015,3.015,0,0,0,3-3V51c0-3.859,2.691-7,6-7a6.7,6.7,0,0,1,7,7h2a8.7,8.7,0,0,0-9-9c-4.411,0-8,4.037-8,9v6a.977.977,0,0,1-.307.713A.959.959,0,0,1,20,58a3.015,3.015,0,0,0-3,3,3.318,3.318,0,0,0,.171,1H13a.977.977,0,0,1-.713-.307A.959.959,0,0,1,12,61a.977.977,0,0,1,.307-.713A.959.959,0,0,1,13,60a5.286,5.286,0,0,0,4.961-3.482l7.644-21.262A26.962,26.962,0,0,0,32,36a25.514,25.514,0,0,0,8.81-1.483l9.809,14.718A8.9,8.9,0,0,1,52,54v1a6.851,6.851,0,0,1-.591,2.878,6.11,6.11,0,0,1-2,2.444A9.356,9.356,0,0,1,43.79,62ZM62,57a5.006,5.006,0,0,1-5,5H54a4.766,4.766,0,0,1-2.687-.665,8,8,0,0,0,1.4-1.663A5.77,5.77,0,0,0,55,60h1a4,4,0,0,0,4-4V35a1,1,0,0,1,1-1,.977.977,0,0,1,.713.307A.959.959,0,0,1,62,35Z"/></g></svg>
