<?xml version="1.0"?>
<svg xmlns="http://www.w3.org/2000/svg" viewBox="0 0 64 64" width="512" height="512"><g id="_08-hamster" data-name="08-hamster"><path d="M39,39.68C39,43.17,38,46,32,46c1,0,4-2.24,4-5,0-8.03-1.68-14.58-3.79-14.98C35.98,26.37,39,36.26,39,39.68Z" style="fill:#8f643f"/><path d="M32,26V46c-1,0-4-2.24-4-5,0-8.03,1.68-14.58,3.79-14.98A1.492,1.492,0,0,1,32,26Z" style="fill:#8f643f"/><path d="M32.21,26.02C34.32,26.42,36,32.97,36,41c0,2.76-3,5-4,5V26A1.492,1.492,0,0,1,32.21,26.02Z" style="fill:#593f27"/><path d="M28,41c0,2.76,3,5,4,5-6,0-7-2.83-7-6.32,0-3.42,3.02-13.31,6.79-13.66C29.68,26.42,28,32.97,28,41Z" style="fill:#593f27"/><path d="M41,5.317V9a2.006,2.006,0,0,1-2,2,2.015,2.015,0,0,1-2-2V4.387A25.967,25.967,0,0,1,41,5.317Z" style="fill:#f2d1a5"/><path d="M34,4.057V12a2.006,2.006,0,0,1-2,2,2.015,2.015,0,0,1-2-2V4.057c.66-.04,1.32-.06,2-.06S33.34,4.017,34,4.057Z" style="fill:#f2d1a5"/><path d="M27,4.387V9a2.006,2.006,0,0,1-2,2,2.015,2.015,0,0,1-2-2V5.317A25.967,25.967,0,0,1,27,4.387Z" style="fill:#f2d1a5"/><path d="M53.96,61.93a7.565,7.565,0,0,0,2.89-3.01L57,59l3.25,1.7a1.193,1.193,0,0,1-.44,2.3L54,62Z" style="fill:#e3a76f"/><path d="M7.15,58.92a7.565,7.565,0,0,0,2.89,3.01L10,62,4.19,63a1.193,1.193,0,0,1-.44-2.3L7,59Z" style="fill:#e3a76f"/><path d="M20.91,41.319l3.77,3.77,1.17-1.38.15.12c.95,1.33,2.73,2.17,6,2.17s5.05-.84,6-2.17l.15-.12,1.17,1.38,3.77-3.77-2.13-1.8.04-.05a45.614,45.614,0,0,0,10.94-2.62L52,37s6,11,6,17a10.164,10.164,0,0,1-1.15,4.921,7.565,7.565,0,0,1-2.89,3.01A7.724,7.724,0,0,1,50,63H48.74a17.6,17.6,0,0,1-6.1-1.06A26.871,26.871,0,0,0,32,60a26.871,26.871,0,0,0-10.64,1.94A17.6,17.6,0,0,1,15.26,63H14a7.724,7.724,0,0,1-3.96-1.07,7.565,7.565,0,0,1-2.89-3.01A10.164,10.164,0,0,1,6,54c0-6,6-17,6-17l.06-.15A45.614,45.614,0,0,0,23,39.469l.04.05Z" style="fill:#f2d1a5"/><path d="M53,17a16.694,16.694,0,0,1-9,3c-4.57,0-5.8-2.5-10.55-2.941C33,17.017,32.52,17,32,17c-6,0-7,3-12,3a16.694,16.694,0,0,1-9-3c-4.22,1.4-8,5.681-8,10,0,4.3,3.48,7.63,9.06,9.851A45.614,45.614,0,0,0,23,39.469l.04.05,1.14-.97a2.184,2.184,0,0,1,1-.49L25.16,38c.67-4.231,3.38-11.721,6.66-11.991.06,0,.12-.01.18-.01s.12.01.18.01a2.291,2.291,0,0,1,.84.23c2.89,1.31,5.21,7.89,5.82,11.761l-.02.06a2.184,2.184,0,0,1,1,.49l1.14.97.04-.05a45.614,45.614,0,0,0,10.94-2.62C57.52,34.628,61,31.3,61,27,61,22.678,57.22,18.4,53,17ZM33.8,21.6l-1,1.33a.985.985,0,0,1-1.6,0l-1-1.33A1,1,0,0,1,31,20h2a1.492,1.492,0,0,1,.21.02A1,1,0,0,1,33.8,21.6Z" style="fill:#f2d1a5"/><path d="M53.6,13.337c-.39.45-.96,1.02-1.3,1.36a13.721,13.721,0,0,0-2.3-3.72,5.63,5.63,0,0,1,5.7-5.97A9.126,9.126,0,0,1,53.6,13.337Z" style="fill:#f2d1a5"/><path d="M14,10.977a13.721,13.721,0,0,0-2.3,3.72c-.34-.34-.91-.91-1.3-1.36a9.126,9.126,0,0,1-2.1-8.33A5.63,5.63,0,0,1,14,10.977Z" style="fill:#f2d1a5"/><path d="M18.83,3.737a5.445,5.445,0,0,1,1.14,2.78A17.852,17.852,0,0,0,14,10.977a5.63,5.63,0,0,0-5.7-5.97,5.857,5.857,0,0,1,1.22-2.28C11.85.076,16.01.526,18.83,3.737Z" style="fill:#e3a76f"/><path d="M54.48,2.727a5.857,5.857,0,0,1,1.22,2.28,5.63,5.63,0,0,0-5.7,5.97,17.852,17.852,0,0,0-5.97-4.46,5.445,5.445,0,0,1,1.14-2.78C47.99.526,52.15.076,54.48,2.727Z" style="fill:#e3a76f"/><path d="M52.3,14.7a13.721,13.721,0,0,0-2.3-3.72,17.852,17.852,0,0,0-5.97-4.46A21.476,21.476,0,0,0,41,5.317V9a2.006,2.006,0,0,1-2,2,2.015,2.015,0,0,1-2-2V4.387a28.671,28.671,0,0,0-3-.33V12a2.006,2.006,0,0,1-2,2,2.015,2.015,0,0,1-2-2V4.057a28.671,28.671,0,0,0-3,.33V9a2.006,2.006,0,0,1-2,2,2.015,2.015,0,0,1-2-2V5.317a21.476,21.476,0,0,0-3.03,1.2A17.852,17.852,0,0,0,14,10.977a13.721,13.721,0,0,0-2.3,3.72A13,13,0,0,0,11,17a16.694,16.694,0,0,0,9,3c5,0,6-3,12-3,.52,0,1,.02,1.45.06C38.2,17.5,39.43,20,44,20a16.694,16.694,0,0,0,9-3A13,13,0,0,0,52.3,14.7Z" style="fill:#e3a76f"/><path d="M53.729,8.108a1.018,1.018,0,0,1,1.178.851,8.48,8.48,0,0,1-.031,2.522A8.78,8.78,0,0,0,55.7,5.007,5.566,5.566,0,0,0,50.049,10.4,5.482,5.482,0,0,1,53.729,8.108Z" style="fill:#e6c293"/><path d="M55.48,4.727c.078.089.146.186.218.28h0a5.857,5.857,0,0,0-1.22-2.28c-2.33-2.651-6.49-2.2-9.31,1.01a5.445,5.445,0,0,0-1.14,2.78c.458.218.889.462,1.319.706a4.753,4.753,0,0,1,.821-1.486C48.99,2.526,53.15,2.076,55.48,4.727Z" style="fill:#f5b57b"/><path d="M10.3,8.108a1.018,1.018,0,0,0-1.178.851,8.48,8.48,0,0,0,.031,2.522,8.78,8.78,0,0,1-.824-6.474A5.566,5.566,0,0,1,13.976,10.4,5.482,5.482,0,0,0,10.3,8.108Z" style="fill:#e6c293"/><path d="M8.545,4.727c-.078.089-.146.186-.218.28h0a5.857,5.857,0,0,1,1.22-2.28c2.33-2.651,6.49-2.2,9.31,1.01A5.445,5.445,0,0,1,20,6.517c-.458.218-.889.462-1.319.706a4.753,4.753,0,0,0-.821-1.486C15.035,2.526,10.875,2.076,8.545,4.727Z" style="fill:#f5b57b"/><path d="M39.448,8.217c.538.191,1.051.406,1.552.637V5.317a25.967,25.967,0,0,0-4-.93V7.544A20.016,20.016,0,0,1,39.448,8.217Z" style="fill:#ffddb3"/><path d="M30.345,7.055C30.891,7.018,31.437,7,32,7s1.109.018,1.655.055c.117.008.229.023.345.033V4.057c-.66-.04-1.32-.06-2-.06s-1.34.02-2,.06V7.088C30.116,7.078,30.228,7.063,30.345,7.055Z" style="fill:#ffddb3"/><path d="M24.552,8.217A20.016,20.016,0,0,1,27,7.544V4.387a25.967,25.967,0,0,0-4,.93V8.854C23.5,8.623,24.014,8.408,24.552,8.217Z" style="fill:#ffddb3"/><path d="M53,17a16.958,16.958,0,0,1-3.636,1.926c0,.023.011.044.015.067A10.572,10.572,0,0,1,56,28.212c0,3.966-2.88,7.037-7.5,9.085a32.983,32.983,0,0,1-7.6,2.171l.059.051.04-.05a45.614,45.614,0,0,0,10.94-2.62C57.52,34.628,61,31.3,61,27,61,22.678,57.22,18.4,53,17Z" style="fill:#ffddb3"/><path d="M8,28.212a10.572,10.572,0,0,1,6.621-9.222c0-.023.011-.044.015-.067A16.958,16.958,0,0,1,11,17c-4.22,1.4-8,5.681-8,10,0,4.3,3.48,7.63,9.06,9.851A45.614,45.614,0,0,0,23,39.469l.04.05.059-.051A32.983,32.983,0,0,1,15.5,37.3C10.88,35.249,8,32.178,8,28.212Z" style="fill:#ffddb3"/><path d="M36.138,7.36c.294.049.575.122.862.184V4.387a28.671,28.671,0,0,0-3-.33V7.088A20.9,20.9,0,0,1,36.138,7.36Z" style="fill:#f5b57b"/><path d="M41.956,9.324A15.044,15.044,0,0,1,46.9,13.438a12.72,12.72,0,0,1,2.467,5.485A16.958,16.958,0,0,0,53,17a13,13,0,0,0-.7-2.3,13.721,13.721,0,0,0-2.3-3.72,17.852,17.852,0,0,0-5.97-4.46A21.476,21.476,0,0,0,41,5.317V8.854C41.324,9,41.647,9.154,41.956,9.324Z" style="fill:#f5b57b"/><path d="M15.2,16.868a12.991,12.991,0,0,1,1.9-3.43,15.044,15.044,0,0,1,4.941-4.114c.309-.17.632-.321.956-.47V5.317a21.476,21.476,0,0,0-3.03,1.2A17.852,17.852,0,0,0,14,10.977a13.721,13.721,0,0,0-2.3,3.72A13,13,0,0,0,11,17a16.958,16.958,0,0,0,3.636,1.926A13.015,13.015,0,0,1,15.2,16.868Z" style="fill:#f5b57b"/><path d="M27.862,7.36A20.9,20.9,0,0,1,30,7.088V4.057a28.671,28.671,0,0,0-3,.33V7.544C27.287,7.482,27.568,7.409,27.862,7.36Z" style="fill:#f5b57b"/><path d="M27.32,38.68a2.324,2.324,0,0,1,.13,3.14l-2.77,3.27-3.77-3.77,3.27-2.77a2.3,2.3,0,0,1,1.5-.55A2.326,2.326,0,0,1,27.32,38.68Z" style="fill:#e3a76f"/><path d="M39.82,38.55l3.27,2.77-3.77,3.77-2.77-3.27A2.321,2.321,0,0,1,38.32,38,2.3,2.3,0,0,1,39.82,38.55Z" style="fill:#e3a76f"/><path d="M24.68,45.09l-3.448,4.08a1,1,0,0,1-1.471.061l-2.992-2.992a1,1,0,0,1,.061-1.471l4.08-3.448Z" style="fill:#ffddb3"/><path d="M47.231,46.239l-2.992,2.992a1,1,0,0,1-1.471-.061L39.32,45.09l3.77-3.77,4.08,3.448A1,1,0,0,1,47.231,46.239Z" style="fill:#ffddb3"/><path d="M42.768,49.169,39.32,45.09l-.356-.42-.7-.831-.11-.13-.15.12A4.519,4.519,0,0,1,35.891,45.4,10.724,10.724,0,0,1,32,46a10.724,10.724,0,0,1-3.891-.6A4.519,4.519,0,0,1,26,43.829l-.15-.12-.11.13-.7.831-.356.42-3.448,4.079a1,1,0,0,1-1.471.062l2,2a1,1,0,0,0,1.471-.062l2.8-3.31C26.983,49.169,28.758,50,32,50s5.017-.831,5.97-2.141l2.8,3.31a1,1,0,0,0,1.471.062l2-2A1,1,0,0,1,42.768,49.169Z" style="fill:#e6c293"/><path d="M27.32,38.68A2.326,2.326,0,0,0,25.68,38a2.3,2.3,0,0,0-1.5.55l-3.27,2.77L21.993,42.4,24.18,40.55a2.3,2.3,0,0,1,1.5-.55,2.326,2.326,0,0,1,1.64.68,2.292,2.292,0,0,1,.444.638A2.317,2.317,0,0,0,27.32,38.68Z" style="fill:#f5b57b"/><path d="M38.32,40a2.3,2.3,0,0,1,1.5.55L42.007,42.4,43.09,41.32l-3.27-2.77a2.3,2.3,0,0,0-1.5-.55,2.312,2.312,0,0,0-2.084,3.318,2.292,2.292,0,0,1,.444-.638A2.326,2.326,0,0,1,38.32,40Z" style="fill:#f5b57b"/><path d="M21.993,42.4,20.91,41.32l-4.079,3.448a1,1,0,0,0-.062,1.471l.315.315L20.91,43.32Z" style="fill:#ffebd1"/><path d="M43.09,43.32l3.826,3.234.315-.315a1,1,0,0,0-.062-1.471L43.09,41.32,42.007,42.4Z" style="fill:#ffebd1"/><path d="M20.911,41.319h0l.618-.522,1.511-1.28L23,39.469a50.583,50.583,0,0,1-8.268-1.7c-.262.6-.657,1.522-1.1,2.636a44.963,44.963,0,0,0,6.456,1.613l.827-.7Z" style="fill:#e6c293"/><path d="M43.09,41.319h0l.827.7a44.963,44.963,0,0,0,6.456-1.613c-.448-1.114-.843-2.038-1.1-2.636A50.583,50.583,0,0,1,41,39.469l-.039.048,1.511,1.28Z" style="fill:#e6c293"/><path d="M10.973,58.92A11.69,11.69,0,0,1,10,54c0-3.886,2.127-9.86,3.627-13.593.448-1.114.843-2.038,1.1-2.636-.453-.137-.9-.279-1.33-.428l-.048-.016c-.442-.153-.875-.312-1.294-.477L12,37S6,48,6,54A10.164,10.164,0,0,0,7.15,58.92a7.565,7.565,0,0,0,2.89,3.01A7.724,7.724,0,0,0,14,63h1.26c.326,0,.65-.023.975-.04a5.8,5.8,0,0,1-2.817-1.03A7.164,7.164,0,0,1,10.973,58.92Z" style="fill:#ffddb3"/><path d="M53.187,39.316h0l-.834-1.65C52.132,37.241,52,37,52,37l-.06-.15c-.419.165-.852.324-1.294.477l-.048.016c-.432.149-.877.291-1.33.428.262.6.657,1.522,1.1,2.636C51.873,44.139,54,50.113,54,54a11.69,11.69,0,0,1-.973,4.921,7.164,7.164,0,0,1-2.445,3.01,5.8,5.8,0,0,1-2.817,1.03c.325.017.649.04.975.04H50a7.724,7.724,0,0,0,3.96-1.07,7.565,7.565,0,0,0,2.89-3.01A10.164,10.164,0,0,0,58,54C58,49.711,54.936,42.871,53.187,39.316Z" style="fill:#ffddb3"/><path d="M51.852,60.773A7.97,7.97,0,0,1,50,61H48.74a17.6,17.6,0,0,1-6.1-1.06A26.871,26.871,0,0,0,32,58a26.871,26.871,0,0,0-10.64,1.94A17.6,17.6,0,0,1,15.26,61H14a7.97,7.97,0,0,1-1.852-.227,6.574,6.574,0,0,0,1.27,1.157,5.8,5.8,0,0,0,2.817,1.03,17.391,17.391,0,0,0,5.125-1.02A26.871,26.871,0,0,1,32,60a26.871,26.871,0,0,1,10.64,1.94,17.391,17.391,0,0,0,5.125,1.02,5.8,5.8,0,0,0,2.817-1.03A6.574,6.574,0,0,0,51.852,60.773Z" style="fill:#e6c293"/><ellipse cx="57.258" cy="24.814" rx="0.825" ry="1.148" transform="translate(-0.768 47.775) rotate(-45.02)" style="fill:#f6fafd"/><ellipse cx="54.26" cy="21.8" rx="1.642" ry="2.286" transform="translate(0.485 44.771) rotate(-45.02)" style="fill:#f6fafd"/><path d="M31,20h2a1,1,0,0,1,.8,1.6l-1,1.33a.993.993,0,0,1-1.6,0l-1-1.33A1,1,0,0,1,31,20Z" style="fill:#e3a76f"/><path d="M60.676,59.794l-2.519-1.318A11.564,11.564,0,0,0,59,54c0-5.283-4.283-13.956-5.688-16.659C58.888,34.869,62,31.287,62,27c0-4.361-3.537-8.981-8.146-10.756-.109-.439-.247-.865-.4-1.287.3-.307.635-.657.9-.957,3.127-3.568,3.52-8.92.877-11.932A6.032,6.032,0,0,0,50.633,0h0a8.432,8.432,0,0,0-6.207,3.077A5.9,5.9,0,0,0,43.329,5.1,29.677,29.677,0,0,0,32,3,29.677,29.677,0,0,0,20.671,5.1a5.9,5.9,0,0,0-1.094-2.027A8.432,8.432,0,0,0,13.37,0h0a6.032,6.032,0,0,0-4.6,2.068C6.124,5.08,6.517,10.432,9.643,14c.264.3.6.651.9.958-.149.422-.287.848-.4,1.287C5.537,18.019,2,22.639,2,27c0,4.287,3.112,7.869,8.688,10.341C9.283,40.044,5,48.717,5,54a11.564,11.564,0,0,0,.843,4.476L3.324,59.794A2.193,2.193,0,0,0,4.192,64a.968.968,0,0,0,.17-.015l5.606-.965A8.817,8.817,0,0,0,14,64h1.261a18.338,18.338,0,0,0,6.447-1.127A26.157,26.157,0,0,1,32,61a26.157,26.157,0,0,1,10.292,1.873A18.338,18.338,0,0,0,48.739,64H50a8.817,8.817,0,0,0,4.032-.98l5.606.965a.968.968,0,0,0,.17.015,2.193,2.193,0,0,0,.868-4.206ZM41.6,15.4a1.508,1.508,0,0,0-1.6-.3A3.234,3.234,0,0,0,38.1,17a2.066,2.066,0,0,0-.055.259A14.144,14.144,0,0,0,32,16a14.144,14.144,0,0,0-6.048,1.259A2.066,2.066,0,0,0,25.9,17,3.234,3.234,0,0,0,24,15.1,1.436,1.436,0,0,0,22.1,17a3.021,3.021,0,0,0,.742,1.154h0a3.431,3.431,0,0,0,.364.295A9.1,9.1,0,0,1,20,19a15.55,15.55,0,0,1-7.851-2.435C13.314,12.152,16.914,8.681,22,6.737V9a3,3,0,0,0,6,0V5.255c.328-.042.665-.071,1-.1V12a3,3,0,0,0,6,0V5.153c.335.031.672.06,1,.1V9a3,3,0,0,0,6,0V6.737c5.086,1.945,8.687,5.415,9.851,9.83A15.467,15.467,0,0,1,44,19a9.1,9.1,0,0,1-3.21-.55,3.431,3.431,0,0,0,.364-.295h0A3.021,3.021,0,0,0,41.9,17,1.51,1.51,0,0,0,41.6,15.4ZM24,6.074c.649-.184,1.314-.349,2-.487V9a1,1,0,0,1-2,0Zm14-.487c.686.138,1.351.3,2,.487V9a1,1,0,0,1-2,0Zm14.852,7.1c-.083.095-.178.2-.275.3a14.939,14.939,0,0,0-1.548-2.336,4.559,4.559,0,0,1,3.877-4.557A8.34,8.34,0,0,1,52.852,12.682ZM45.927,4.395A6.447,6.447,0,0,1,50.631,2h0a4.006,4.006,0,0,1,3.1,1.388,4.716,4.716,0,0,1,.541.792,6.334,6.334,0,0,0-4.987,4.632,19.532,19.532,0,0,0-4.118-2.843A4.138,4.138,0,0,1,45.927,4.395ZM33,5.029V12a1,1,0,0,1-2,0V5.029c.333-.01.662-.029,1-.029S32.667,5.019,33,5.029ZM13.367,2h0a6.447,6.447,0,0,1,4.7,2.395,4.138,4.138,0,0,1,.761,1.574,19.532,19.532,0,0,0-4.118,2.843A6.334,6.334,0,0,0,9.729,4.18a4.716,4.716,0,0,1,.541-.792A4,4,0,0,1,13.367,2Zm-2.22,10.681A8.34,8.34,0,0,1,9.094,6.092a4.559,4.559,0,0,1,3.877,4.557,14.939,14.939,0,0,0-1.548,2.336C11.325,12.88,11.231,12.777,11.147,12.681ZM4,27c0-3.518,3.04-7.4,6.862-8.881A17.483,17.483,0,0,0,20,21a12.566,12.566,0,0,0,5.824-1.49,13.385,13.385,0,0,1,12.352,0A12.566,12.566,0,0,0,44,21a17.483,17.483,0,0,0,9.138-2.881C56.96,19.6,60,23.482,60,27c0,5.634-7.017,9.891-18.781,11.424l-.755-.638a3.209,3.209,0,0,0-.724-.45c-.555-3-2.137-7.984-4.515-10.6A3,3,0,0,0,37,24H35a1,1,0,0,1-1.99.049,2,2,0,0,0,.59-.516l1-1.333A2,2,0,0,0,33,19H31a2,2,0,0,0-1.6,3.2l1,1.333a1.988,1.988,0,0,0,.59.516A1,1,0,0,1,29,24H27a3,3,0,0,0,1.775,2.732c-2.378,2.62-3.961,7.6-4.515,10.6a3.187,3.187,0,0,0-.724.45l-.755.638C11.017,36.891,4,32.634,4,27ZM24.828,39.312a1.32,1.32,0,0,1,1.86,1.86l-2.07,2.447-2.237-2.237Zm3.2-1.339a3.277,3.277,0,0,0-1.68-.893,28.794,28.794,0,0,1,1.307-4.354c-.293,1.714-.442,3.292-.509,4.2l1.995.146c.336-4.57,1.15-7.4,1.859-8.855v16.75a5.933,5.933,0,0,1-3.814-1.289l1.028-1.215A3.338,3.338,0,0,0,28.028,37.973ZM32,22.333,30.993,21H33Zm1,5.885c.709,1.456,1.523,4.285,1.859,8.855l1.995-.146c-.067-.909-.216-2.487-.509-4.2a28.863,28.863,0,0,1,1.307,4.354,3.287,3.287,0,0,0-1.679.892,3.338,3.338,0,0,0-.187,4.492l1.028,1.216A5.933,5.933,0,0,1,33,44.968Zm4.312,12.954a1.32,1.32,0,0,1,1.86-1.86l2.447,2.07-2.237,2.237ZM4.144,61.994a.193.193,0,0,1-.023-.366.842.842,0,0,0,.092-.042L6.8,60.232a8.83,8.83,0,0,0,.94,1.142Zm44.6.006a16.345,16.345,0,0,1-5.746-1A27.933,27.933,0,0,0,32,59a27.933,27.933,0,0,0-10.993,2,16.345,16.345,0,0,1-5.746,1H14c-3.372,0-7-2.5-7-8,0-4.9,4.328-13.553,5.555-15.91a44.416,44.416,0,0,0,8.187,2.059l-5.388,4.559,1.292,1.527,4.2-3.557,2.473,2.473-3.557,4.2,1.527,1.292L25.9,45.2C27.212,46.4,29.214,47,32,47s4.788-.6,6.1-1.8l4.607,5.446,1.527-1.292-3.557-4.2,2.473-2.473,4.2,3.557,1.292-1.527-5.388-4.559a44.416,44.416,0,0,0,8.187-2.059C52.673,40.446,57,49.1,57,54c0,5.5-3.628,8-7,8Zm11.117-.006-3.6-.62a8.83,8.83,0,0,0,.94-1.142l2.59,1.354a.842.842,0,0,0,.092.042.193.193,0,0,1-.023.366Z"/></g></svg>
