<?xml version="1.0"?>
<svg xmlns="http://www.w3.org/2000/svg" viewBox="0 0 64 64" width="512" height="512"><g id="_02-puppy" data-name="02-puppy"><path d="M11,47c0,4,1,3.61,1,6,0,3-1,2-1,6v1c-5,0-5-4-5-4l5-12Z" style="fill:#f2bb88"/><path d="M53,44l5,12s0,4-5,4V59c0-4-1-3-1-6,0-2.39,1-2,1-6Z" style="fill:#f2bb88"/><path d="M15,23a3.965,3.965,0,0,1-3.13-1.6L6.48,14.47a2.311,2.311,0,0,1,.01-2.83C8.85,8.64,15.11,2,23,2c3.07-1.09,3.91-1,9-1s5.93-.09,9,1c7.89,0,14.15,6.64,16.51,9.64a2.311,2.311,0,0,1,.01,2.83L52.13,21.4A3.965,3.965,0,0,1,49,23a13.076,13.076,0,0,1-1.88,5.18C47.96,29.47,53.01,37.42,53,42v5c0,4-1,3.61-1,6,0,3,1,2,1,6v2a2,2,0,0,1-2,2H41a2.006,2.006,0,0,1-2-2V58s-5,0-7-1c-2,1-7,1-7,1v3a2.006,2.006,0,0,1-2,2H13a2,2,0,0,1-2-2V59c0-4,1-3,1-6,0-2.39-1-2-1-6V42c-.01-4.58,5.04-12.53,5.88-13.82A13.076,13.076,0,0,1,15,23Z" style="fill:#ffe4c2"/><path d="M18.34,21.23A39.235,39.235,0,0,0,22,14V2.052C14.585,2.578,8.749,8.768,6.49,11.64a2.311,2.311,0,0,0-.01,2.83l5.39,6.93A3.965,3.965,0,0,0,15,23,4.032,4.032,0,0,0,18.34,21.23Z" style="fill:#ffebd1"/><path d="M42,14a39.235,39.235,0,0,0,3.66,7.23A4.032,4.032,0,0,0,49,23a3.965,3.965,0,0,0,3.13-1.6l5.39-6.93a2.311,2.311,0,0,0-.01-2.83C55.15,8.64,48.89,2,41,2V3Z" style="fill:#ffebd1"/><path d="M35,53l-1.1-.368a6.005,6.005,0,0,0-3.794,0L29,53a5.289,5.289,0,0,1-4-1.447V58s5,0,7-1c2,1,7,1,7,1V51.553A5.289,5.289,0,0,1,35,53Z" style="fill:#f2d1a5"/><path d="M6.49,11.64a2.311,2.311,0,0,0-.01,2.83l.469.6C9.475,12.026,15.043,6.545,22,6.052v-4C14.585,2.578,8.749,8.768,6.49,11.64Z" style="fill:#fff6e8"/><path d="M57.051,15.073l.469-.6a2.311,2.311,0,0,0-.01-2.83C55.15,8.64,48.89,2,41,2V3l.274,3.014C48.572,6.158,54.438,11.92,57.051,15.073Z" style="fill:#fff6e8"/><path d="M45.66,21.23A39.235,39.235,0,0,1,42,14c0,6.463,2.535,11.8,5.86,12.813A13.248,13.248,0,0,0,49,23,4.032,4.032,0,0,1,45.66,21.23Z" style="fill:#f7d2a3"/><path d="M22,14a39.235,39.235,0,0,1-3.66,7.23A4.032,4.032,0,0,1,15,23a13.248,13.248,0,0,0,1.14,3.813C19.465,25.8,22,20.463,22,14Z" style="fill:#f7d2a3"/><path d="M32,38c8.539,0,15.484-3.756,15.954-8.492-.381-.625-.68-1.091-.834-1.328A9.766,9.766,0,0,1,39,33H25a9.766,9.766,0,0,1-8.12-4.82c-.154.237-.453.7-.834,1.328C16.516,34.244,23.461,38,32,38Z" style="fill:#f7d2a3"/><path d="M14.23,61V59c0-4,.846-3,.846-6,0-2.39-.846-2-.846-6V42c-.005-2.746,1.528-6.7,2.911-9.7a5.886,5.886,0,0,1-1.095-2.788C14.352,32.283,10.992,38.262,11,42v5c0,4,1,3.61,1,6,0,3-1,2-1,6v2a2,2,0,0,0,2,2h2.922A1.865,1.865,0,0,1,14.23,61Z" style="fill:#fff2de"/><path d="M49.77,42v5c0,4-.846,3.61-.846,6,0,3,.846,2,.846,6v2a1.865,1.865,0,0,1-1.692,2H51a2,2,0,0,0,2-2V59c0-4-1-3-1-6,0-2.39,1-2,1-6V42c.008-3.738-3.352-9.717-5.046-12.492A5.886,5.886,0,0,1,46.859,32.3C48.242,35.3,49.775,39.254,49.77,42Z" style="fill:#fff2de"/><path d="M23,6a3.491,3.491,0,0,1,2-1H39a3.491,3.491,0,0,1,2,1h.273L41,3V2C37.93.91,37.09,1,32,1S26.07.91,23,2c-.338,0-.668.028-1,.052V6Z" style="fill:#ffebd1"/><path d="M8,56l3.073-7.375A16.2,16.2,0,0,1,11,47V44L6,56s0,4,5,4v-.275A4.063,4.063,0,0,1,8,56Z" style="fill:#f7d2a3"/><path d="M53,44v3a16.2,16.2,0,0,1-.073,1.625L56,56a4.063,4.063,0,0,1-3,3.725V60c5,0,5-4,5-4Z" style="fill:#f7d2a3"/><ellipse cx="52.258" cy="11.814" rx="0.825" ry="1.148" transform="translate(6.962 40.428) rotate(-45.02)" style="fill:#f6fafd"/><ellipse cx="38.004" cy="3.314" rx="0.413" ry="0.574" transform="translate(8.796 27.853) rotate(-45.02)" style="fill:#f6fafd"/><ellipse cx="49.26" cy="8.8" rx="1.642" ry="2.286" transform="translate(8.215 37.424) rotate(-45.02)" style="fill:#f6fafd"/><path d="M31,21h2a1,1,0,0,1,.8,1.6l-1,1.33a.993.993,0,0,1-1.6,0l-1-1.33A1,1,0,0,1,31,21Z" style="fill:#66482d"/><path d="M59,56a1,1,0,0,0-.077-.385L54,43.8V42c.009-4.433-4.235-11.521-5.716-13.858a14.19,14.19,0,0,0,1.556-4.23,5,5,0,0,0,3.079-1.9l5.39-6.929a3.307,3.307,0,0,0-.013-4.063C56.458,8.687,49.823,1.1,41.174,1c-2.883-1.009-4.03-1.009-8.1-1H30.926c-4.071-.01-5.217-.008-8.1,1C14.177,1.1,7.542,8.687,5.71,11.014a3.31,3.31,0,0,0-.02,4.07l5.386,6.923a5,5,0,0,0,3.084,1.906,14.186,14.186,0,0,0,1.556,4.231C14.244,30.467,9.991,37.565,10,42v1.8L5.077,55.615A1,1,0,0,0,5,56c0,1.6,1.08,4.515,5,4.942V61a3,3,0,0,0,3,3H23a3,3,0,0,0,3-3V58.981a21.558,21.558,0,0,0,6-.891,21.558,21.558,0,0,0,6,.891V61a3,3,0,0,0,3,3H51a3,3,0,0,0,3-3v-.058C57.92,60.515,59,57.6,59,56Zm-48.373-.884A8.663,8.663,0,0,0,10,58.926a3.134,3.134,0,0,1-2.99-2.754l3.075-7.379a8.864,8.864,0,0,0,.572,2.419A4.31,4.31,0,0,1,11,53,4.587,4.587,0,0,1,10.627,55.116ZM52,47a8.5,8.5,0,0,1-.533,3.518A6.205,6.205,0,0,0,51,53a6.433,6.433,0,0,0,.52,2.868A6.966,6.966,0,0,1,52,59v2a1,1,0,0,1-1,1H41a1,1,0,0,1-1-1V52h-.051A4.734,4.734,0,0,0,41,49H39c0,1.878-1.495,3-4,3v2a7.554,7.554,0,0,0,3-.563v3.542a17.6,17.6,0,0,1-5.553-.874,1,1,0,0,0-.894,0A17.6,17.6,0,0,1,26,56.979V53.437A7.554,7.554,0,0,0,29,54V52c-2.5,0-4-1.122-4-3H23a4.734,4.734,0,0,0,1.051,3H24v9a1,1,0,0,1-1,1H13a1,1,0,0,1-1-1V59a6.966,6.966,0,0,1,.48-3.132A6.433,6.433,0,0,0,13,53a6.205,6.205,0,0,0-.467-2.482A8.5,8.5,0,0,1,12,47V42c-.008-3.515,3.348-9.427,4.942-12.037A10.506,10.506,0,0,0,25,34V32a8.792,8.792,0,0,1-7.275-4.355,12,12,0,0,1-1.54-3.783A5.083,5.083,0,0,0,19.159,21.8a39.908,39.908,0,0,0,3.772-7.438l-1.862-.732a37.825,37.825,0,0,1-3.547,7.021A3.035,3.035,0,0,1,15.031,22h-.023a2.988,2.988,0,0,1-2.348-1.214L7.269,13.855a1.31,1.31,0,0,1,.007-1.6C8.985,10.086,15.168,3,23,3a1,1,0,0,0,.334-.058c2.677-.95,3.434-.95,7.589-.943h2.154c4.159-.008,4.911-.007,7.589.943A1,1,0,0,0,41,3c7.832,0,14.015,7.086,15.73,9.266a1.307,1.307,0,0,1,0,1.59l-5.395,6.936A2.982,2.982,0,0,1,48.992,22a3.15,3.15,0,0,1-2.513-1.344,37.8,37.8,0,0,1-3.548-7.022l-1.862.732a39.888,39.888,0,0,0,3.773,7.439,5.073,5.073,0,0,0,2.972,2.064,12.013,12.013,0,0,1-1.538,3.775A8.794,8.794,0,0,1,39,32v2a10.509,10.509,0,0,0,8.058-4.039C48.656,32.578,52.008,38.485,52,42Zm2,11.925a8.66,8.66,0,0,0-.626-3.809A4.587,4.587,0,0,1,53,53a4.31,4.31,0,0,1,.342-1.788,8.864,8.864,0,0,0,.572-2.419l3.075,7.381A3.133,3.133,0,0,1,54,58.925Z"/><path d="M39.4,21a2.623,2.623,0,0,0,1.748-.833l.015-.015A2.606,2.606,0,0,0,42,18.377a1.359,1.359,0,0,0-.387-.96A1.381,1.381,0,0,0,40.623,17a2.564,2.564,0,0,0-1.788.848A2.606,2.606,0,0,0,38,19.623a1.359,1.359,0,0,0,.387.96,1.381,1.381,0,0,0,.988.415Z"/><path d="M23.377,17a1.359,1.359,0,0,0-.96.387,1.381,1.381,0,0,0-.415.988,2.606,2.606,0,0,0,.833,1.773l.015.015A2.623,2.623,0,0,0,24.6,21h.025a1.359,1.359,0,0,0,.96-.387A1.381,1.381,0,0,0,26,19.623a2.624,2.624,0,0,0-.848-1.788A2.546,2.546,0,0,0,23.377,17Z"/><path d="M34,26a.983.983,0,0,1-.99-.95,1.982,1.982,0,0,0,.589-.519l1-1.335A2,2,0,0,0,33,20H31a2,2,0,0,0-1.6,3.2l1,1.324a2,2,0,0,0,.594.524A1,1,0,0,1,29,25H27a3,3,0,0,0,5,2.234A3,3,0,0,0,37,25H35A.989.989,0,0,1,34,26Zm-1-4-1,1.33L31,22Z"/></g></svg>
