<?xml version="1.0"?>
<svg xmlns="http://www.w3.org/2000/svg" viewBox="0 0 64 64" width="512" height="512"><g id="_20-lion" data-name="20-lion"><path d="M60,41c.75,0,3,3.07,3,5s-2.25,3-3,3-3-1.07-3-3S59.25,41,60,41Z" style="fill:#ffa426"/><path d="M13.02,10.99a6.829,6.829,0,0,0,2,5.01l2-1.99,3.99-3.97c-1.79-1.91-5.28-2.9-7.08-1.07A3.3,3.3,0,0,0,13.02,10.99ZM48.73,30.05A9.327,9.327,0,0,0,49,28a6.826,6.826,0,0,0-.31-1.99,8.011,8.011,0,0,0-1.8-3.12,6.045,6.045,0,0,1-1.53-3.13L45,17c-.05-.34-1-1-1-1a9,9,0,0,1-7-3v4c-4.72,0-8-6-8-6v4c-2.61,0-3-2.68-3-6-3,1-6.39,4.72-6.87,8l-.49,2.76a6.045,6.045,0,0,1-1.53,3.13,8.011,8.011,0,0,0-1.8,3.12A6.826,6.826,0,0,0,15,28a9.327,9.327,0,0,0,.27,2.05C16.66,35.48,23.61,38,32,38S47.34,35.48,48.73,30.05ZM49,16a6.819,6.819,0,0,0,1.99-5.01,3.3,3.3,0,0,0-.91-2.02c-1.79-1.83-5.28-.84-7.07,1.07l3.98,3.97Zm10,6H56s2,3,2,11l-3-1s2,9-3,11l-2-3s-.81.81-2.09,1.89C45.72,43.74,42.16,46.37,39,47l-2-3-3,3-2,2-5-5-2,3c-3.16-.63-6.72-3.26-8.91-5.11C14.81,40.81,14,40,14,40l-2,3C7,41,9,32,9,32L6,33c0-8,2-11,2-11H5c2-8,6-11,6-11L9,9A13.842,13.842,0,0,1,19,4L18,1A78.518,78.518,0,0,1,32,2.16,78.518,78.518,0,0,1,46,1L45,4A13.842,13.842,0,0,1,55,9l-2,2S57,14,59,22Z" style="fill:#ffa426"/><path d="M54.41,59.56A2.015,2.015,0,0,1,53,63H42a2.184,2.184,0,0,0,2-2l3.37-16H49c2.8.03,3.76,2.3,3.96,4.87a3.947,3.947,0,0,1-.42,2.05l-2.82,5.63a1,1,0,0,0,.9,1.45H53A2.013,2.013,0,0,1,54.41,59.56Z" style="fill:#f7d2a3"/><path d="M32,31a1.957,1.957,0,0,0,1.6-.84l2-2.8A2.109,2.109,0,0,0,34,24H30a2.109,2.109,0,0,0-1.6,3.36l2,2.8A1.957,1.957,0,0,0,32,31Zm16.69-4.99A6.826,6.826,0,0,1,49,28a9.327,9.327,0,0,1-.27,2.05C47.34,35.48,40.39,38,32,38s-15.34-2.52-16.73-7.95A9.327,9.327,0,0,1,15,28a6.826,6.826,0,0,1,.31-1.99,8.011,8.011,0,0,1,1.8-3.12,6.045,6.045,0,0,0,1.53-3.13L19.13,17C19.61,13.72,23,10,26,9c0,3.32.39,6,3,6V11s3.28,6,8,6V13a9,9,0,0,0,7,3s.95.66,1,1l.36,2.76a6.045,6.045,0,0,0,1.53,3.13A8.011,8.011,0,0,1,48.69,26.01Z" style="fill:#ffe4c2"/><path d="M34,24a2.109,2.109,0,0,1,1.6,3.36l-2,2.8a1.944,1.944,0,0,1-3.2,0l-2-2.8A2.109,2.109,0,0,1,30,24Z" style="fill:#414952"/><path d="M22,63H11a2.015,2.015,0,0,1-1.41-3.44A2.013,2.013,0,0,1,11,59h2.38a1,1,0,0,0,.9-1.45l-2.82-5.63a3.947,3.947,0,0,1-.42-2.05C11.24,47.3,12.2,45.03,15,45h1.63L20,61A2.184,2.184,0,0,0,22,63Z" style="fill:#f7d2a3"/><path d="M36.8,44.2,34,47l-2,2-4.8-4.8L30,61a1.754,1.754,0,0,1-.13.8A8.948,8.948,0,0,0,32,60a8.948,8.948,0,0,0,2.13,1.8A1.754,1.754,0,0,1,34,61Z" style="fill:#f7d2a3"/><path d="M27.2,44.2,27,44l-2,3c-3.16-.63-6.72-3.26-8.91-5.11L16,42l.63,3L20,61a2.184,2.184,0,0,0,2,2h6a1.877,1.877,0,0,0,1.87-1.2A1.754,1.754,0,0,0,30,61Z" style="fill:#ffe4c2"/><path d="M47.91,41.89C45.72,43.74,42.16,46.37,39,47l-2-3-.2.2L34,61a1.754,1.754,0,0,0,.13.8A1.877,1.877,0,0,0,36,63h6a2.184,2.184,0,0,0,2-2l3.37-16L48,42Z" style="fill:#ffe4c2"/><path d="M59,48.7V57a5,5,0,0,1-4.22,4.921A1.964,1.964,0,0,1,53,63h2.735a4.856,4.856,0,0,0,3.972-1.959A6.94,6.94,0,0,0,61,57V48.7a1.8,1.8,0,0,1-2,0Z" style="fill:#ffb13b"/><path d="M63,46c0-1.93-2.25-5-3-5s-3,3.07-3,5c0,1.76,1.86,2.8,2.758,2.965-.624-.15-1.758-.791-1.758-1.84C58,45.919,59.5,44,60,44s2,1.919,2,3.125c0,1.049-1.134,1.69-1.758,1.84C61.14,48.8,63,47.76,63,46Z" style="fill:#ffbb4d"/><path d="M54.41,59.56A2.013,2.013,0,0,0,53,59H50.62a1,1,0,0,1-.9-1.45l2.82-5.63a3.947,3.947,0,0,0,.42-2.05C52.76,47.3,51.8,45.03,49,45H47.37l-.247,1.171c1.935.558,2.667,2.513,2.837,4.7a3.947,3.947,0,0,1-.42,2.05l-2.82,5.63a1,1,0,0,0,.9,1.45H50a2.013,2.013,0,0,1,1.41.56A1.974,1.974,0,0,1,52,62a2.025,2.025,0,0,1-.263,1H53a2.015,2.015,0,0,0,1.41-3.44Z" style="fill:#ffddb3"/><path d="M32,38c-8.39,0-15.34-2.52-16.73-7.95-.04-.156-.058-.322-.089-.483A6.594,6.594,0,0,0,15,31a9.327,9.327,0,0,0,.27,2.05C16.66,38.48,23.61,41,32,41s15.34-2.52,16.73-7.95A9.327,9.327,0,0,0,49,31a6.594,6.594,0,0,0-.181-1.433c-.031.161-.049.327-.089.483C47.34,35.48,40.39,38,32,38Z" style="fill:#e0911b"/><path d="M11.59,60.56A2.013,2.013,0,0,1,13,60h2.38a1,1,0,0,0,.9-1.45l-2.82-5.63a3.947,3.947,0,0,1-.42-2.05c.2-2.518,1.133-4.735,3.8-4.852L16.63,45H15c-2.8.03-3.76,2.3-3.96,4.87a3.947,3.947,0,0,0,.42,2.05l2.82,5.63a1,1,0,0,1-.9,1.45H11a2.013,2.013,0,0,0-1.41.56A2.015,2.015,0,0,0,11,63h.263A2.025,2.025,0,0,1,11,62,1.974,1.974,0,0,1,11.59,60.56Z" style="fill:#ffddb3"/><polygon points="32 53 36 49 36.8 44.2 34 47 32 49 27.2 44.2 28 49 32 53" style="fill:#e6c293"/><path d="M28,49h0l-.8-4.8L27,44l-2,3c-3.16-.63-6.72-3.26-8.91-5.11L16,42l.63,3,.34,1.613C19.162,48.365,22.234,50.449,25,51Z" style="fill:#f7d2a3"/><path d="M48,42l-.09-.11C45.72,43.74,42.16,46.37,39,47l-2-3-.2.2L36,49h0l3,2c2.766-.551,5.838-2.635,8.03-4.387L47.37,45Z" style="fill:#f7d2a3"/><path d="M23,61,20.49,49.085a33.052,33.052,0,0,1-3.52-2.472L20,61a2.184,2.184,0,0,0,2,2h3A2.184,2.184,0,0,1,23,61Z" style="fill:#ffebd1"/><path d="M41,61a2.184,2.184,0,0,1-2,2h3a2.184,2.184,0,0,0,2-2l3.03-14.387a33.052,33.052,0,0,1-3.52,2.472Z" style="fill:#ffebd1"/><path d="M19.63,45l-.112-.532A37.475,37.475,0,0,1,16.09,41.89L16,42l.63,3,.34,1.613a33.052,33.052,0,0,0,3.52,2.472Z" style="fill:#ffddb3"/><path d="M47.91,41.89a37.475,37.475,0,0,1-3.428,2.578L44.37,45l-.86,4.085a33.052,33.052,0,0,0,3.52-2.472L47.37,45,48,42Z" style="fill:#ffddb3"/><path d="M18.222,29.776A12.122,12.122,0,0,1,18,27.655a8.766,8.766,0,0,1,.255-2.058,8.982,8.982,0,0,1,1.483-3.228A7.011,7.011,0,0,0,21,19.131l.4-2.855A12.262,12.262,0,0,1,25.01,9.425C22.3,10.811,19.558,14.077,19.13,17l-.49,2.76a6.045,6.045,0,0,1-1.53,3.13,8.011,8.011,0,0,0-1.8,3.12A6.826,6.826,0,0,0,15,28a9.327,9.327,0,0,0,.27,2.05C16.66,35.48,23.61,38,32,38,25.091,38,19.367,35.393,18.222,29.776Z" style="fill:#ffebd1"/><path d="M48.69,26.01a8.011,8.011,0,0,0-1.8-3.12,6.045,6.045,0,0,1-1.53-3.13L45,17c-.05-.34-1-1-1-1a10.558,10.558,0,0,1-1.5-.11.923.923,0,0,1,.205.386l.3,2.855a7.011,7.011,0,0,0,1.26,3.238A8.982,8.982,0,0,1,45.745,25.6,8.766,8.766,0,0,1,46,27.655a12.122,12.122,0,0,1-.222,2.121C44.633,35.393,38.909,38,32,38c8.39,0,15.34-2.52,16.73-7.95A9.327,9.327,0,0,0,49,28,6.826,6.826,0,0,0,48.69,26.01Z" style="fill:#ffebd1"/><path d="M25,12a4.753,4.753,0,0,0,5,5V14s3.28,5,8,5V16a16.52,16.52,0,0,0,7.127,1.977L45,17c-.05-.34-1-1-1-1a9,9,0,0,1-7-3v4c-4.72,0-8-6-8-6v4c-2.61,0-3-2.68-3-6a11.876,11.876,0,0,0-6.609,6.921A12.292,12.292,0,0,1,25,12Z" style="fill:#f7d2a3"/><path d="M50.99,10.99A6.819,6.819,0,0,1,49,16l-2.01-1.99L47,14C46,13,48,9.01,50.99,10.99Z" style="fill:#e3a76f"/><path d="M50.792,12.88a5.193,5.193,0,0,0,.2-1.89C48,9.01,46,13,47,14l-.01.01.056.056A2.541,2.541,0,0,1,50.792,12.88Z" style="fill:#c48958"/><path d="M50.08,8.97a3.3,3.3,0,0,1,.91,2.02C48,9.01,46,13,47,14l-.01.01-3.98-3.97C44.8,8.13,48.29,7.14,50.08,8.97Z" style="fill:#ffe4c2"/><path d="M21.01,10.04l-3.99,3.97L17.01,14c1-1-1-4.99-3.99-3.01a3.3,3.3,0,0,1,.91-2.02C15.73,7.14,19.22,8.13,21.01,10.04Z" style="fill:#ffe4c2"/><path d="M13.02,10.99C16.01,9.01,18.01,13,17.01,14l.01.01-2,1.99A6.829,6.829,0,0,1,13.02,10.99Z" style="fill:#e3a76f"/><path d="M16.964,14.066l.056-.056L17.01,14c1-1-1-4.99-3.99-3.01a5.251,5.251,0,0,0,.2,1.888A2.54,2.54,0,0,1,16.964,14.066Z" style="fill:#c48958"/><path d="M52.744,17.861c-.3-1.392-.982-3.056-2.442-3.724A7.528,7.528,0,0,1,49,16c1,1,2,1.79,2,4A1.774,1.774,0,0,0,52.744,17.861Z" style="fill:#e0911b"/><path d="M11,18a2,2,0,0,0,2,2h.01c0-2.21,1-3,2-4L15,15.973a7.438,7.438,0,0,1-1.295-1.86A4.155,4.155,0,0,0,11,18Z" style="fill:#e0911b"/><path d="M56,22h3c-2-8-6-11-6-11l2-2A13.842,13.842,0,0,0,45,4l1-3A78.518,78.518,0,0,0,32,2.16,78.518,78.518,0,0,0,18,1l1,3A13.842,13.842,0,0,0,9,9l2,2S7,14,5,22H8S6,25,6,33l3-1s-2,9,3,11l1.56-2.34c-1.187-3.232-.3-7.952-.3-7.952l-2.444.959c0-7.667,1.629-10.542,1.629-10.542H10a30.672,30.672,0,0,1,1.214-4.242A1.977,1.977,0,0,1,11,18a4.149,4.149,0,0,1,2.585-3.833c.028-.041.057-.083.085-.122a6.6,6.6,0,0,1-.618-2.024c-.007-.058-.014-.116-.02-.174a4.643,4.643,0,0,1-.012-.857,3.3,3.3,0,0,1,.91-2.02,3.223,3.223,0,0,1,1.755-.9,10.3,10.3,0,0,1,5.722-2.2L20.593,3A54.615,54.615,0,0,1,32,4.112,54.615,54.615,0,0,1,43.407,3l-.814,2.875a10.287,10.287,0,0,1,5.718,2.2,3.2,3.2,0,0,1,1.769.9,3.3,3.3,0,0,1,.91,2.02,4.482,4.482,0,0,1-.009.858c-.005.058-.012.116-.02.174a6.541,6.541,0,0,1-.622,2.035l.117.168a5.243,5.243,0,0,1,2.288,3.636,1.734,1.734,0,0,1-.026.837A30.579,30.579,0,0,1,54,23.125H51.556S53.185,26,53.185,33.667l-2.444-.959s.886,4.72-.3,7.952L52,43c5-2,3-11,3-11l3,1C58,25,56,22,56,22Z" style="fill:#ffbb4d"/><ellipse cx="40.258" cy="3.814" rx="0.825" ry="1.148" transform="translate(9.103 29.594) rotate(-45.02)" style="fill:#f6fafd"/><ellipse cx="54.258" cy="27.814" rx="0.825" ry="1.148" transform="translate(-3.769 46.532) rotate(-45.02)" style="fill:#f6fafd"/><ellipse cx="38.004" cy="4.314" rx="0.413" ry="0.574" transform="translate(8.089 28.147) rotate(-45.02)" style="fill:#f6fafd"/><ellipse cx="61.004" cy="44.314" rx="0.413" ry="0.574" transform="translate(-13.463 56.141) rotate(-45.02)" style="fill:#f6fafd"/><ellipse cx="53.26" cy="23.8" rx="1.642" ry="2.286" transform="translate(-1.223 44.65) rotate(-45.02)" style="fill:#f6fafd"/><path d="M34.445,35.832l1.11-1.664L33,32.465V31.8a2.97,2.97,0,0,0,1.414-1.063l2-2.8a3.161,3.161,0,0,0,.237-3.3A2.982,2.982,0,0,0,34,23H30a2.982,2.982,0,0,0-2.65,1.646,3.159,3.159,0,0,0,.236,3.295l2,2.8A2.97,2.97,0,0,0,31,31.8v.661l-2.555,1.7,1.11,1.664L32,34.2Zm-5.233-9.055a1.17,1.17,0,0,1-.083-1.217A.982.982,0,0,1,30,25h4a.982.982,0,0,1,.871.56,1.172,1.172,0,0,1-.084,1.219l-2,2.8a.972.972,0,0,1-1.574,0Z"/><path d="M38.378,24H38.4a2.616,2.616,0,0,0,1.748-.834l.015-.014A2.6,2.6,0,0,0,41,21.376a1.357,1.357,0,0,0-.387-.959A1.381,1.381,0,0,0,39.622,20a2.472,2.472,0,0,0-1.787.847A2.6,2.6,0,0,0,37,22.624a1.357,1.357,0,0,0,.387.959A1.381,1.381,0,0,0,38.378,24Z"/><path d="M24.4,20h-.024a1.358,1.358,0,0,0-.96.385,1.381,1.381,0,0,0-.416.988,2.6,2.6,0,0,0,.833,1.774l.015.014A2.616,2.616,0,0,0,25.6,24h.024a1.358,1.358,0,0,0,.96-.385A1.381,1.381,0,0,0,27,22.624,2.924,2.924,0,0,0,24.4,20Z"/><path d="M49.7,30.3A10.311,10.311,0,0,0,50,28a7.777,7.777,0,0,0-.354-2.285A8.986,8.986,0,0,0,47.61,22.2a5,5,0,0,1-1.258-2.564l-.363-2.776c-.031-.21-.112-.769-1.418-1.676A1,1,0,0,0,44,15,7.976,7.976,0,0,1,37.8,12.4,1,1,0,0,0,36,13v2.892c-3.551-.765-6.1-5.323-6.123-5.372A1,1,0,0,0,28,11v2.688c-.634-.521-1-1.809-1-4.688a1,1,0,0,0-.416-.812.989.989,0,0,0-.9-.136,10.707,10.707,0,0,0-3.741,2.325,1,1,0,0,0-.2-1.021A7.646,7.646,0,0,0,16.526,7,4.559,4.559,0,0,0,13.217,8.27a4.236,4.236,0,0,0-1.164,2.468c0,.01,0,.021-.006.032-.005.044-.018.083-.023.127,0,.024,0,.048,0,.072l0,.021h0a7.564,7.564,0,0,0,1.635,4.948A5.291,5.291,0,0,0,12.01,20h2a3.609,3.609,0,0,1,1.46-3.049l.223-.22c.01-.009.023-.013.033-.022l4.642-4.62a10.574,10.574,0,0,0-2.222,4.736l-.489,2.754A5.051,5.051,0,0,1,16.389,22.2a8.985,8.985,0,0,0-2.035,3.519h0A7.765,7.765,0,0,0,14,28a8.239,8.239,0,0,0,.076,1.077A8.492,8.492,0,0,0,14.3,30.3C15.7,35.747,22.312,39,32,39S48.3,35.747,49.7,30.3ZM15.091,14.519a5.842,5.842,0,0,1-1.063-2.931,1.348,1.348,0,0,1,1.45.174,1.977,1.977,0,0,1,.779,1.594.208.208,0,0,1,.046-.063l.009.01Zm2.813-2.8a4.4,4.4,0,0,0-.572-.918,3.456,3.456,0,0,0-2.449-1.325A2.543,2.543,0,0,1,16.455,9H16.5a5.547,5.547,0,0,1,3.047,1.082ZM16.791,31.2a32.216,32.216,0,0,1,6.838,1.727l.742-1.858a33.191,33.191,0,0,0-8.259-1.957c-.014-.09-.04-.181-.05-.272A6.578,6.578,0,0,1,16,28a5.643,5.643,0,0,1,.091-.944A16.179,16.179,0,0,1,23.4,29.8l1.2-1.6a18,18,0,0,0-7.837-3.08,6.584,6.584,0,0,1,1.067-1.536,7.043,7.043,0,0,0,1.8-3.649l.494-2.79c.344-2.347,2.554-5.212,4.91-6.6C25.15,12.928,25.775,16,29,16a1,1,0,0,0,1-1v-.87C31.551,15.937,33.983,18,37,18a1,1,0,0,0,1-1V15.217A10.449,10.449,0,0,0,43.664,17a4.1,4.1,0,0,1,.369.322l.343,2.623a7.036,7.036,0,0,0,1.793,3.643,6.6,6.6,0,0,1,1.069,1.539A18.062,18.062,0,0,0,39.4,28.2l1.2,1.6a16.126,16.126,0,0,1,7.309-2.742A5.507,5.507,0,0,1,48,28a6.8,6.8,0,0,1-.064.862c-.009.081-.034.17-.047.252a33.277,33.277,0,0,0-8.26,1.957l.742,1.858A32.259,32.259,0,0,1,47.208,31.2C45.281,34.859,39.767,37,32,37S18.718,34.859,16.791,31.2Z"/><path d="M48.3,16.711h0l.242.239A3.609,3.609,0,0,1,50,20h2a5.285,5.285,0,0,0-1.643-4.057,7.549,7.549,0,0,0,1.631-4.953h0c0-.008,0-.016,0-.024,0-.026,0-.054,0-.08-.005-.047-.018-.088-.024-.134l0-.009A4.238,4.238,0,0,0,50.8,8.271,4.437,4.437,0,0,0,47.5,7a7.642,7.642,0,0,0-5.22,2.355,1,1,0,0,0,.024,1.392Zm.236-4.949a1.349,1.349,0,0,1,1.452-.175,5.836,5.836,0,0,1-1.059,2.932l-1.173-1.168A1.984,1.984,0,0,1,48.532,11.762ZM47.521,9a2.344,2.344,0,0,1,1.609.475A3.453,3.453,0,0,0,46.678,10.8a4.34,4.34,0,0,0-.57.914L44.47,10.084A5.538,5.538,0,0,1,47.521,9Z"/><path d="M64,46c0-2.066-2.391-6-4-6s-4,3.934-4,6a4.3,4.3,0,0,0,3,3.782V57a5.009,5.009,0,0,1-3.06,4.608A3.111,3.111,0,0,0,56,61a2.964,2.964,0,0,0-3-3l-2.386,0,2.821-5.631a4.977,4.977,0,0,0,.522-2.575C53.568,44.8,50.691,44.019,49,44h-.4l.356-1.692c.325-.282.626-.547.868-.768l1.343,2.015a1,1,0,0,0,1.2.374c4.32-1.729,4.222-7.541,3.877-10.458l1.435.477A1,1,0,0,0,59,33a28.972,28.972,0,0,0-1.441-10H59a1,1,0,0,0,.97-1.242c-1.521-6.086-4.169-9.411-5.524-10.789l1.261-1.262a1,1,0,0,0,.074-1.332A14.673,14.673,0,0,0,46.35,3.113l.6-1.8A1,1,0,0,0,46,0,80.167,80.167,0,0,0,32,1.145,80.167,80.167,0,0,0,18,0a1,1,0,0,0-.949,1.316l.6,1.8A14.673,14.673,0,0,0,8.219,8.375a1,1,0,0,0,.074,1.332l1.261,1.262c-1.355,1.378-4,4.7-5.524,10.789A1,1,0,0,0,5,23H6.441A28.972,28.972,0,0,0,5,33a1,1,0,0,0,1.316.948l1.435-.477c-.345,2.917-.443,8.729,3.877,10.458a1,1,0,0,0,1.2-.374l1.343-2.015c.242.221.543.486.868.767L15.4,44h-.411c-1.68.019-4.557.8-4.947,5.8a4.972,4.972,0,0,0,.524,2.568L13.38,58H11a2.964,2.964,0,0,0-3,3,2.968,2.968,0,0,0,3,3H28a2.926,2.926,0,0,0,2.649-1.492A7.635,7.635,0,0,0,32,61.414a7.607,7.607,0,0,0,1.354,1.094A2.932,2.932,0,0,0,36,64H54a7.008,7.008,0,0,0,7-7V49.782A4.3,4.3,0,0,0,64,46ZM13.9,39.005a1,1,0,0,0-.733.44l-1.5,2.249c-3.24-2.254-1.71-9.4-1.692-9.478a1,1,0,0,0-1.293-1.164l-1.663.553c.206-6.471,1.8-9.031,1.811-9.05A1,1,0,0,0,8,21H6.309c1.95-6.583,5.259-9.176,5.291-9.2a1,1,0,0,0,.107-1.507L10.364,8.949A13.059,13.059,0,0,1,19,5a1,1,0,0,0,.949-1.316L19.391,2.01A76.2,76.2,0,0,1,31.822,3.145a1.014,1.014,0,0,0,.356,0A76.2,76.2,0,0,1,44.609,2.01l-.558,1.674A1,1,0,0,0,45,5a12.941,12.941,0,0,1,8.636,3.949l-1.343,1.344a1,1,0,0,0,.1,1.5c.036.027,3.345,2.62,5.3,9.2H56a1,1,0,0,0-.837,1.547c.017.027,1.61,2.587,1.816,9.058l-1.663-.553a1,1,0,0,0-1.293,1.164c.018.077,1.548,7.224-1.692,9.478l-1.5-2.249a1,1,0,0,0-.733-.44,1.018,1.018,0,0,0-.806.287c-.007.009-.8.8-2.028,1.833h0c-1.726,1.459-4.934,3.915-7.821,4.737l-1.612-2.418a1,1,0,0,0-1.539-.152L32,47.586l-4.293-4.293A1,1,0,0,0,27,43c-.033,0-.065,0-.1.005a1,1,0,0,0-.733.44l-1.612,2.418c-2.887-.822-6.1-3.278-7.821-4.738-1.228-1.036-2.021-1.824-2.028-1.833A1.014,1.014,0,0,0,13.9,39.005ZM10,61a.986.986,0,0,1,.286-.723A1.02,1.02,0,0,1,11,60h2.38a2,2,0,0,0,1.794-2.9l-2.82-5.629a2.926,2.926,0,0,1-.317-1.525c.3-3.92,2.244-3.94,2.963-3.948h.821l3.187,15.129a3.51,3.51,0,0,0,.243.871H11A.969.969,0,0,1,10,61Zm26,1a.914.914,0,0,1-.947-.585A.9.9,0,0,1,35,61.238v-.156l1.986-11.918-1.972-.328L33.194,59.78l-.259-.259-.227-.228a1.032,1.032,0,0,0-1.416,0l-.227.228c-.086.088-.17.171-.255.255l-1.824-10.94-1.972.328L29,61.055v.058a.887.887,0,0,1-.075.359A.9.9,0,0,1,28,62H22c-.532,0-.938-.586-1.021-1.206L17.5,44.286a19.835,19.835,0,0,0,7.3,3.694.992.992,0,0,0,1.027-.425l1.323-1.986,4.138,4.138a1,1,0,0,0,1.414,0l4.138-4.138,1.323,1.986a.993.993,0,0,0,1.027.425,19.835,19.835,0,0,0,7.3-3.694L43.008,60.871C42.938,61.414,42.532,62,42,62Zm8.758,0a3.276,3.276,0,0,0,.221-.794L48.18,46h.809c.73.008,2.669.028,2.973,3.94a2.923,2.923,0,0,1-.316,1.532l-2.823,5.635A2,2,0,0,0,50.62,60H53a1.019,1.019,0,0,1,.712.275A.988.988,0,0,1,54,61a.969.969,0,0,1-1,1ZM60.006,48C59.667,47.981,58,47.257,58,46a7.339,7.339,0,0,1,2-3.869A7.339,7.339,0,0,1,62,46C62,47.257,60.333,47.981,60.006,48Z"/></g></svg>
