<?xml version="1.0"?>
<svg xmlns="http://www.w3.org/2000/svg" viewBox="0 0 64 64" width="512" height="512"><g id="_05-bear" data-name="05-bear"><path d="M24,8l-5,2c-1,0-1-.82-1-1.67A3.175,3.175,0,0,1,21,5,2.888,2.888,0,0,1,24,8Z" style="fill:#915041"/><path d="M46,8.327c0,.85,0,1.67-1,1.67L40,8a2.888,2.888,0,0,1,3-3A3.175,3.175,0,0,1,46,8.327Z" style="fill:#915041"/><path d="M32,22c4.97,0,9,2.69,9,6s-4.03,6-9,6-9-2.69-9-6S27.03,22,32,22Zm1,3H31a1,1,0,0,0-.8,1.6l1,1.33a1,1,0,0,0,1.6,0l1-1.329A1,1,0,0,0,33,25Z" style="fill:#784132"/><ellipse cx="5.999" cy="58.999" rx="1.881" ry="3.804" transform="translate(-39.961 21.522) rotate(-44.999)" style="fill:#915041"/><ellipse cx="58.001" cy="58.999" rx="3.804" ry="1.881" transform="translate(-24.731 58.295) rotate(-45.001)" style="fill:#915041"/><path d="M8.69,61.69c.73-.741.12-2.541-1.361-4.021s-3.28-2.09-4.02-1.36-.12,2.54,1.36,4.02S7.949,62.42,8.69,61.69ZM16.05,59.8a1.163,1.163,0,0,0,.04.18L16,60l-6,3H8a6.885,6.885,0,0,1-4.9-2.1c-2.52-2.51-2.81-6.3-.66-8.46A5.288,5.288,0,0,1,7,51c0-3.87,5.241-11,8-11v9A48.9,48.9,0,0,0,16.05,59.8Z" style="fill:#d6995c"/><path d="M60.691,56.309c-.74-.73-2.54-.12-4.02,1.36s-2.091,3.28-1.361,4.021,2.541.12,4.021-1.361S61.421,57.049,60.691,56.309Zm.87-3.87c2.15,2.16,1.86,5.95-.66,8.46A6.885,6.885,0,0,1,56,63H54l-6-3-.09-.02a1.163,1.163,0,0,0,.04-.18A48.9,48.9,0,0,0,49,49V40c2.76,0,8,7.13,8,11A5.288,5.288,0,0,1,61.561,52.439Z" style="fill:#d6995c"/><path d="M32,22c-4.97,0-9,2.69-9,6s4.03,6,9,6,9-2.69,9-6S36.97,22,32,22ZM28.99,59a4.546,4.546,0,0,1-1.08,2.761A3.526,3.526,0,0,1,25.279,63h-5.8a3.616,3.616,0,0,1-3.39-3.02,1.163,1.163,0,0,1-.04-.18A48.914,48.914,0,0,1,15,49V40c0-2.21.79-5,3-5-2.68,0-5.78-2.56-7.69-5.8a9.828,9.828,0,0,1,2.4-12.55A8.334,8.334,0,0,0,16,12c-1.23-1.25-1.98-2.14-2-4a6.638,6.638,0,0,1,4.77-6.691A7.09,7.09,0,0,1,27.723,6.2,2.5,2.5,0,0,0,30,8h4a2.5,2.5,0,0,0,2.276-1.8A7.091,7.091,0,0,1,45.23,1.308,6.638,6.638,0,0,1,50,8c-.02,1.86-.77,2.75-2,4a8.334,8.334,0,0,0,3.29,4.65,9.828,9.828,0,0,1,2.4,12.55C51.78,32.439,48.68,35,46,35c2.21,0,3,2.79,3,5v9a48.9,48.9,0,0,1-1.05,10.8,1.163,1.163,0,0,1-.04.18A3.616,3.616,0,0,1,44.52,63h-5.8a3.525,3.525,0,0,1-2.63-1.24A4.546,4.546,0,0,1,35.01,59H28.99ZM45,10c1,0,1-.82,1-1.67A3.175,3.175,0,0,0,43,5a2.888,2.888,0,0,0-3,3ZM19,10l5-2a2.888,2.888,0,0,0-3-3,3.175,3.175,0,0,0-3,3.33C18,9.177,18,10,19,10Z" style="fill:#e3a76f"/><path d="M15,49V40c-2.76,0-8,7.13-8,11h0L7,51c3.316,0,6,3.684,6,7,0,2.757-1,3.994-2.988,4.993L16,60l.09-.02a1.163,1.163,0,0,1-.04-.18A48.9,48.9,0,0,1,15,49Z" style="fill:#b27a49"/><path d="M51,58c0-3.316,2.683-7,6-7h0c0-3.87-5.24-11-8-11v9a48.9,48.9,0,0,1-1.05,10.8,1.163,1.163,0,0,1-.04.18L48,60l5.987,2.994C52,61.994,51,60.757,51,58Z" style="fill:#b27a49"/><path d="M18,35c3.869,0,7,4.92,7,11,0,1.658,1.789,3,4,3l1.735-.578a4,4,0,0,1,2.53,0L35,49c2.211,0,4-1.342,4-3,0-6.08,3.131-11,7-11-6.222,0-5.457,4-13.482,4S24.222,35,18,35Z" style="fill:#d6995c"/><path d="M37.552,51.865A4,4,0,0,0,38,50.026v-2.06A4.617,4.617,0,0,1,35,49l-1.735-.578a4,4,0,0,0-2.53,0L29,49a4.617,4.617,0,0,1-3-1.034v2.06a4,4,0,0,0,.448,1.839L28.776,57.3A6.562,6.562,0,0,1,29,59v0h6v0a6.562,6.562,0,0,1,.224-1.7Z" style="fill:#c48958"/><path d="M15,40v9a48.9,48.9,0,0,0,1.05,10.8,1.163,1.163,0,0,0,.04.18A3.616,3.616,0,0,0,19.48,63h5.8a3.527,3.527,0,0,0,2.631-1.24A4.548,4.548,0,0,0,28.99,59H29a6.562,6.562,0,0,0-.224-1.7l-2.328-5.431A4,4,0,0,1,26,50.026v-2.06A2.607,2.607,0,0,1,25,46c0-6.08-3.131-11-7-11h-.013C15.787,35.011,15,37.793,15,40Zm4-3h0Z" style="fill:#e3a76f"/><path d="M39,46a2.607,2.607,0,0,1-1,1.966v2.06a4,4,0,0,1-.448,1.839L35.224,57.3A6.562,6.562,0,0,0,35,59h.01a4.548,4.548,0,0,0,1.08,2.761A3.525,3.525,0,0,0,38.72,63h5.8a3.616,3.616,0,0,0,3.39-3.021,1.163,1.163,0,0,0,.04-.18A48.9,48.9,0,0,0,49,49V40c0-2.206-.787-4.988-2.988-5H46C42.131,35,39,39.92,39,46Z" style="fill:#e3a76f"/><path d="M13,58c0-3.316-2.684-7-6-7l-.006,0a5.287,5.287,0,0,0-4.555,1.441c-2.15,2.16-1.86,5.95.66,8.46A6.885,6.885,0,0,0,8,63h2l.013-.007C12,61.994,13,60.757,13,58ZM8.689,61.69c-.74.73-2.54.12-4.02-1.361s-2.09-3.28-1.36-4.02,2.54-.12,4.02,1.36S9.419,60.949,8.689,61.69Z" style="fill:#d6995c"/><path d="M56,63a6.885,6.885,0,0,0,4.9-2.1c2.52-2.51,2.81-6.3.66-8.46A5.287,5.287,0,0,0,57,51h0c-3.317,0-6,3.684-6,7,0,2.757,1,3.994,2.987,4.993L54,63Zm.67-5.331c1.48-1.48,3.28-2.09,4.02-1.36s.12,2.54-1.36,4.02-3.28,2.091-4.02,1.361S55.19,59.149,56.67,57.669Z" style="fill:#d6995c"/><path d="M31,25h2a1,1,0,0,1,.8,1.6l-1,1.329a1,1,0,0,1-1.6,0l-1-1.33A1,1,0,0,1,31,25Z" style="fill:#66482d"/><path d="M21,6a2.868,2.868,0,0,1,2.855,2.058L24,8a2.888,2.888,0,0,0-3-3,3.175,3.175,0,0,0-3,3.33,6.951,6.951,0,0,0,.026.705A3.132,3.132,0,0,1,21,6Z" style="fill:#784132"/><path d="M43,6a3.132,3.132,0,0,1,2.974,3.034,6.931,6.931,0,0,0,.026-.7A3.175,3.175,0,0,0,43,5a2.888,2.888,0,0,0-3,3l.146.058A2.866,2.866,0,0,1,43,6Z" style="fill:#784132"/><path d="M4.309,58.309c.74-.73,2.54-.12,4.02,1.36a7.467,7.467,0,0,1,.614.7,5.674,5.674,0,0,0-1.614-2.7c-1.48-1.48-3.28-2.09-4.02-1.36-.617.626-.268,2.009.747,3.317A1.433,1.433,0,0,1,4.309,58.309Z" style="fill:#a65d4e"/><path d="M59.691,58.309a1.433,1.433,0,0,1,.253,1.317c1.015-1.308,1.364-2.691.747-3.317-.74-.73-2.54-.12-4.02,1.36a5.674,5.674,0,0,0-1.614,2.7,7.467,7.467,0,0,1,.614-.7C57.151,58.189,58.951,57.579,59.691,58.309Z" style="fill:#a65d4e"/><path d="M57,51h0c0-3.87-5.24-11-8-11v4.26c2.011.907,4.648,4.141,6.042,7.186A4.7,4.7,0,0,1,57,51Z" style="fill:#c48958"/><path d="M7,51H7c0-3.87,5.24-11,8-11v4.26c-2.011.907-4.648,4.141-6.042,7.186A4.7,4.7,0,0,0,7,51Z" style="fill:#c48958"/><path d="M35.214,48l-1.859-.578a4.57,4.57,0,0,0-2.71,0L28.786,48a4.779,4.779,0,0,1-3.724-1.541C25.357,47.9,27,49,29,49l1.735-.578a4,4,0,0,1,2.53,0L35,49c2,0,3.643-1.1,3.938-2.541A4.779,4.779,0,0,1,35.214,48Z" style="fill:#c48958"/><path d="M40.2,39.831C41.461,36.915,43.587,35,46,35c-6.222,0-5.457,4-13.482,4S24.222,35,18,35c2.316,0,4.361,1.77,5.634,4.488A15.708,15.708,0,0,0,32.518,42,12.218,12.218,0,0,0,40.2,39.831Z" style="fill:#c48958"/><path d="M46.012,35H46c-2,0-3.8,1.325-5.078,3.439A5.192,5.192,0,0,1,43,38h.012c2.2.01,2.988,2.494,2.988,4.464V50.5a39.165,39.165,0,0,1-1.05,9.643.947.947,0,0,1-.04.161A3.508,3.508,0,0,1,41.52,63h3a3.616,3.616,0,0,0,3.39-3.021,1.163,1.163,0,0,0,.04-.18A48.9,48.9,0,0,0,49,49V40C49,37.793,48.213,35.011,46.012,35Z" style="fill:#f5b57b"/><path d="M17.988,35H18c2,0,3.8,1.325,5.078,3.439A5.192,5.192,0,0,0,21,38h-.012c-2.2.01-2.988,2.494-2.988,4.464V50.5a39.165,39.165,0,0,0,1.05,9.643.947.947,0,0,0,.04.161A3.508,3.508,0,0,0,22.48,63h-3a3.616,3.616,0,0,1-3.39-3.021,1.163,1.163,0,0,1-.04-.18A48.9,48.9,0,0,1,15,49V40C15,37.793,15.787,35.011,17.988,35Z" style="fill:#f5b57b"/><path d="M13,58c0-3.316-2.684-7-6-7l-.006,0a5.287,5.287,0,0,0-4.555,1.441,4.9,4.9,0,0,0-1.311,2.438A5.335,5.335,0,0,1,4.994,54L5,54c3.316,0,6,3.684,6,7a8.1,8.1,0,0,1-.136,1.5C12.281,61.567,13,60.327,13,58Z" style="fill:#e3a76f"/><path d="M59,54h0a5.327,5.327,0,0,1,3.868.878,4.908,4.908,0,0,0-1.312-2.438A5.287,5.287,0,0,0,57,51h0c-3.317,0-6,3.684-6,7,0,2.327.718,3.567,2.135,4.5A8.107,8.107,0,0,1,53,61C53,57.684,55.683,54,59,54Z" style="fill:#e3a76f"/><path d="M37.511,48.309a5.107,5.107,0,0,1-.511.262A4.888,4.888,0,0,1,35,49l-1.735-.578a4,4,0,0,0-2.53,0L29,49a4.888,4.888,0,0,1-2-.429,5.107,5.107,0,0,1-.511-.262A3.775,3.775,0,0,1,26,47.966v2.06a4,4,0,0,0,.448,1.839L28.776,57.3A6.562,6.562,0,0,1,29,59h6a6.562,6.562,0,0,1,.224-1.7l2.328-5.431A4,4,0,0,0,38,50.026v-2.06A3.775,3.775,0,0,1,37.511,48.309ZM37,50.026a4,4,0,0,1-.448,1.839L34.87,55.788A2,2,0,0,1,33.032,57h-2.2a2,2,0,0,1-1.771-1.07l-1.61-3.065A4,4,0,0,1,27,51.026V49.571A4.888,4.888,0,0,0,29,50l1.735-.578a4,4,0,0,1,2.53,0L35,50a4.888,4.888,0,0,0,2-.429Z" style="fill:#b27a49"/><path d="M32,34c-4.457,0-8.149-2.166-8.865-5A4.092,4.092,0,0,0,23,30c0,3.31,4.03,6,9,6s9-2.69,9-6a4.092,4.092,0,0,0-.135-1C40.149,31.833,36.457,34,32,34Z" style="fill:#c48958"/><ellipse cx="32" cy="26.999" rx="7" ry="5.001" style="fill:#915041"/><path d="M51.29,16.649A8.334,8.334,0,0,1,48,12c1.23-1.25,1.98-2.14,2-4a6.638,6.638,0,0,0-4.77-6.691,8.035,8.035,0,0,0-.808-.187c-.042-.008-.083-.01-.124-.017-.231-.037-.46-.067-.687-.083H43.55a7.325,7.325,0,0,0-.74-.009,7.177,7.177,0,0,0-.769.074A7.03,7.03,0,0,0,36.277,6.2,2.5,2.5,0,0,1,34,8H30a2.5,2.5,0,0,1-2.277-1.8,7.03,7.03,0,0,0-5.764-5.116,7.177,7.177,0,0,0-.769-.074,7.348,7.348,0,0,0-.741.009h-.06c-.227.016-.456.046-.687.083-.041.007-.083.009-.124.017a8.035,8.035,0,0,0-.808.187A6.638,6.638,0,0,0,14,8c.02,1.86.77,2.75,2,4a8.334,8.334,0,0,1-3.29,4.65,9.828,9.828,0,0,0-2.4,12.55C12.22,32.439,15.32,35,18,35h2.435c-2.214,0-4.775-2.56-6.353-5.8a11.271,11.271,0,0,1,1.983-12.55l.045-.046A6.408,6.408,0,0,0,17.426,9.85,5.525,5.525,0,0,1,17.13,8,9.042,9.042,0,0,1,17.3,6.186a3.48,3.48,0,0,1,.544-1.52A5.2,5.2,0,0,1,19.4,3.357c1.621-.886,3.849-.187,5.307.709a6.824,6.824,0,0,1,3.018,3.967A2.484,2.484,0,0,0,30,9.773h4a2.484,2.484,0,0,0,2.277-1.74A6.824,6.824,0,0,1,39.3,4.066c1.458-.9,3.685-1.595,5.306-.709A5.2,5.2,0,0,1,46.16,4.666a3.48,3.48,0,0,1,.544,1.52A9.116,9.116,0,0,1,46.87,8a5.525,5.525,0,0,1-.3,1.851A6.4,6.4,0,0,0,47.89,16.6l.045.046A11.271,11.271,0,0,1,49.918,29.2c-1.578,3.24-4.139,5.8-6.353,5.8H46c2.68,0,5.78-2.561,7.69-5.8A9.828,9.828,0,0,0,51.29,16.649Z" style="fill:#f5b57b"/><ellipse cx="49.258" cy="23.814" rx="0.825" ry="1.148" transform="translate(-2.406 41.823) rotate(-45.02)" style="fill:#f6fafd"/><ellipse cx="46.004" cy="37.314" rx="0.413" ry="0.574" transform="translate(-12.909 43.479) rotate(-45.02)" style="fill:#f6fafd"/><ellipse cx="49.26" cy="19.8" rx="1.642" ry="2.286" transform="translate(0.434 40.648) rotate(-45.02)" style="fill:#f6fafd"/><path d="M33,25a1,1,0,0,1,.8,1.6l-1,1.33a.993.993,0,0,1-1.6,0l-1-1.33A1,1,0,0,1,31,25Z" style="fill:#4c2c21"/><path d="M47,8.333A4.181,4.181,0,0,0,43,4a3.869,3.869,0,0,0-4,4,1,1,0,0,0,.629.929l5,2A1,1,0,0,0,45,11C47,11,47,9.063,47,8.333Zm-5.917-.977A1.9,1.9,0,0,1,43,6a2.188,2.188,0,0,1,2,2.333c0,.167,0,.407-.016.584Z"/><path d="M25,8a3.869,3.869,0,0,0-4-4,4.181,4.181,0,0,0-4,4.333C17,9.063,17,11,19,11a1,1,0,0,0,.371-.071l5-2A1,1,0,0,0,25,8Zm-5.984.917C19,8.74,19,8.5,19,8.333A2.188,2.188,0,0,1,21,6a1.9,1.9,0,0,1,1.917,1.356Z"/><path d="M62.263,51.737a6.167,6.167,0,0,0-4.365-1.8c-.683-3.883-4.706-9.711-7.93-10.767a7.265,7.265,0,0,0-1.274-3.8,14.341,14.341,0,0,0,5.861-5.655,10.781,10.781,0,0,0-2.628-13.838,7.77,7.77,0,0,1-2.816-3.584A5.711,5.711,0,0,0,51,8.009,7.632,7.632,0,0,0,45.511.345,8.22,8.22,0,0,0,39,1.115a8.042,8.042,0,0,0-3.755,5.093A1.36,1.36,0,0,1,34,7H30a1.36,1.36,0,0,1-1.244-.792A8.042,8.042,0,0,0,25,1.115a8.217,8.217,0,0,0-6.512-.77A7.632,7.632,0,0,0,13,8.009a5.711,5.711,0,0,0,1.889,4.282,7.77,7.77,0,0,1-2.816,3.584A10.781,10.781,0,0,0,9.445,29.713a14.347,14.347,0,0,0,5.861,5.655,7.265,7.265,0,0,0-1.274,3.8c-3.224,1.056-7.247,6.884-7.93,10.767a6.167,6.167,0,0,0-4.365,1.8c-2.543,2.544-2.251,6.973.652,9.875A7.917,7.917,0,0,0,7.907,64H10a1,1,0,0,0,.447-.1l5.081-2.541A4.465,4.465,0,0,0,19.482,64h5.8a4.851,4.851,0,0,0,4.57-4h4.3a4.851,4.851,0,0,0,4.57,4h5.8a4.465,4.465,0,0,0,3.954-2.646L53.553,63.9A1,1,0,0,0,54,64h1.986a7.98,7.98,0,0,0,5.625-2.388C64.514,58.71,64.806,54.281,62.263,51.737ZM7.988,60.975c-.187.109-1.336-.077-2.611-1.352s-1.465-2.421-1.366-2.6A.323.323,0,0,1,4.166,57a4.121,4.121,0,0,1,2.457,1.38C7.9,59.649,8.088,60.8,7.988,60.975ZM9.764,62H9.683c.729-1.243.094-3.3-1.646-5.037C6.1,55.028,3.767,54.443,2.6,55.6a2.022,2.022,0,0,0-.552,1.107,4.2,4.2,0,0,1,1.1-3.56,4.245,4.245,0,0,1,3.7-1.162,1.016,1.016,0,0,0,.8-.23A1,1,0,0,0,8,51c0-2.961,3.678-8.227,6-9.636V49a47.97,47.97,0,0,0,.909,10.107l.054.294Zm37.359-3.254-.159.877A2.674,2.674,0,0,1,44.518,62h-5.8A3.024,3.024,0,0,1,36,58.749a3.9,3.9,0,0,1,.143-1.059l2.3-5.366a5.02,5.02,0,0,0,.559-2.3V48.375A3.482,3.482,0,0,0,40,46H38c0,1.084-1.374,2-3,2v2a6.046,6.046,0,0,0,2-.339v.365a3.135,3.135,0,0,1-.366,1.445l-2.363,5.523A5.755,5.755,0,0,0,34.057,58H29.94a6.107,6.107,0,0,0-.245-1.1l-2.359-5.5A3.007,3.007,0,0,1,27,50.026v-.365A6.046,6.046,0,0,0,29,50V48c-1.626,0-3-.916-3-2H24a3.482,3.482,0,0,0,1,2.375v1.651a4.921,4.921,0,0,0,.528,2.233l2.3,5.339A3.821,3.821,0,0,1,28,58.749,3.024,3.024,0,0,1,25.28,62h-5.8a2.674,2.674,0,0,1-2.446-2.377l-.159-.877A46.164,46.164,0,0,1,16,49V40c0-1.608.532-4,2-4a1,1,0,0,0,0-2c-2.181,0-4.989-2.181-6.832-5.3a8.792,8.792,0,0,1,2.175-11.278,9.214,9.214,0,0,0,3.635-5.207,1,1,0,0,0-.267-.915c-1.2-1.219-1.7-1.859-1.711-3.306a5.675,5.675,0,0,1,4.044-5.724,6.232,6.232,0,0,1,4.943.572,6.034,6.034,0,0,1,2.82,3.819A3.31,3.31,0,0,0,30,9h4a3.31,3.31,0,0,0,3.193-2.342,6.034,6.034,0,0,1,2.82-3.819,6.233,6.233,0,0,1,4.943-.572A5.676,5.676,0,0,1,49,7.991c-.014,1.447-.506,2.087-1.711,3.306a1,1,0,0,0-.267.915,9.214,9.214,0,0,0,3.635,5.207A8.792,8.792,0,0,1,52.832,28.7C50.989,31.819,48.181,34,46,34a1,1,0,0,0,0,2c1.468,0,2,2.392,2,4v9A46.164,46.164,0,0,1,47.123,58.746Zm1.914.655.054-.294A47.97,47.97,0,0,0,50,49V41.364c2.322,1.409,6,6.675,6,9.636a1,1,0,0,0,.349.759,1.017,1.017,0,0,0,.8.23,4.244,4.244,0,0,1,3.7,1.162,4.2,4.2,0,0,1,1.1,3.56A2.022,2.022,0,0,0,61.4,55.6c-1.162-1.161-3.5-.576-5.433,1.359C54.224,58.7,53.588,60.757,54.317,62h-.081Zm8.34-1.024a4.166,4.166,0,0,1,2.465-1.388.306.306,0,0,1,.134.022c.112.191-.08,1.339-1.353,2.612s-2.421,1.463-2.6,1.365C55.912,60.8,56.1,59.649,57.377,58.377Z"/><path d="M33.6,28.533l1-1.333A2,2,0,0,0,33,24H31a2,2,0,0,0-1.6,3.2l1,1.332a2.213,2.213,0,0,0,.193.2l-2.147,1.431,1.11,1.664L32,30.2l2.445,1.63,1.11-1.664-2.148-1.431A2.069,2.069,0,0,0,33.6,28.533ZM31,26h2l-1,1.333L30.993,26Z"/><path d="M39.394,22a2.592,2.592,0,0,0,1.76-.845h0A3,3,0,0,0,41.9,20a1.508,1.508,0,0,0-.3-1.6c-.669-.669-1.828-.481-2.756.447A3,3,0,0,0,38.1,20a1.508,1.508,0,0,0,.3,1.6A1.373,1.373,0,0,0,39.394,22Z"/><path d="M22.4,18.4a1.508,1.508,0,0,0-.3,1.6,3,3,0,0,0,.743,1.154h0a2.592,2.592,0,0,0,1.76.845,1.373,1.373,0,0,0,.995-.4,1.508,1.508,0,0,0,.3-1.6,3.008,3.008,0,0,0-.743-1.155C24.226,17.917,23.066,17.731,22.4,18.4Z"/><path d="M32,21c-5.607,0-10,3.075-10,7s4.393,7,10,7,10-3.075,10-7S37.607,21,32,21Zm0,12c-4.337,0-8-2.29-8-5s3.663-5,8-5,8,2.29,8,5S36.337,33,32,33Z"/></g></svg>
