<?xml version="1.0"?>
<svg xmlns="http://www.w3.org/2000/svg" viewBox="0 0 64 64" width="512" height="512"><g id="_29-whale" data-name="29-whale"><path d="M18.7,4.46c.62.62,1.74,2.74,1.12,3.36s-2.74-.5-3.36-1.12A1.584,1.584,0,1,1,18.7,4.46Z" style="fill:#48dae0"/><path d="M25,3a2.006,2.006,0,0,1,2,2c0,1.1-.9,4-2,4s-2-2.9-2-4A2.006,2.006,0,0,1,25,3Z" style="fill:#48dae0"/><path d="M33.54,4.46a1.6,1.6,0,0,1,0,2.24c-.62.62-2.74,1.74-3.36,1.12s.5-2.74,1.12-3.36A1.6,1.6,0,0,1,33.54,4.46Z" style="fill:#48dae0"/><ellipse cx="17" cy="28" rx="1.259" ry="0.636" transform="translate(-14.82 20.222) rotate(-45)" style="fill:#9196aa"/><path d="M29.39,48.99a39.028,39.028,0,0,0,1.02,3.99c-11.63-.27-22.16-9.02-22.4-23.47A7.067,7.067,0,0,1,13,36a5.182,5.182,0,0,0,4.08,4.74L17,41C17,43.9,23.54,48.67,29.39,48.99Z" style="fill:#bec3d2"/><path d="M4,29.07c.03,14.81,10.89,29.74,27.69,26.98a11.834,11.834,0,0,0,1.32,1.94L33,58c-2.73.47-3,1-8,1C4.29,59,1.3,35.97,1.03,30.76,1.22,29.94,2.42,29.27,4,29.07Z" style="fill:#cdd2e1"/><path d="M31.69,56.05C14.89,58.81,4.03,43.88,4,29.07A6.452,6.452,0,0,1,5,29a9.013,9.013,0,0,1,3.01.51c.24,14.45,10.77,23.2,22.4,23.47A17.284,17.284,0,0,0,31.69,56.05Z" style="fill:#afb4c8"/><path d="M19,41s7,0,9,3c.6.9.93,2.79,1.39,4.99C23.54,48.67,17,43.9,17,41l.08-.26A7.067,7.067,0,0,0,19,41Z" style="fill:#afb4c8"/><path d="M19,41a7.067,7.067,0,0,1-1.92-.26A5.182,5.182,0,0,1,13,36a7.067,7.067,0,0,0-4.99-6.49A9.013,9.013,0,0,0,5,29a6.452,6.452,0,0,0-1,.07c-1.58.2-2.78.87-2.97,1.69C1.01,30.43,1,30.18,1,30c0-4,2-5,4-5H6.49a2.926,2.926,0,0,0,2.82-1.99C10.99,17.69,17.16,13,27,13c8.03,0,16.93,6.1,19.35,12.01a8.882,8.882,0,0,1,2.53.36L49,25l2-2a2.639,2.639,0,0,1-2-4,6.392,6.392,0,0,1,6-4v.67a5.226,5.226,0,0,0,5.8,5.21A3.51,3.51,0,0,0,63,20c0,3.32,0,8-5,8v1c0,9.82-3.44,18.53-11,24l-.86,3.46A6,6,0,0,1,40.32,61H40a8.731,8.731,0,0,1-6.99-3.01,11.834,11.834,0,0,1-1.32-1.94,17.284,17.284,0,0,1-1.28-3.07,39.028,39.028,0,0,1-1.02-3.99C28.93,46.79,28.6,44.9,28,44,26,41,19,41,19,41ZM17.45,28.45c.49-.5.69-1.1.44-1.34s-.84-.05-1.34.44-.69,1.1-.44,1.34S16.95,28.94,17.45,28.45Z" style="fill:#00bfb7"/><path d="M11,39a5.182,5.182,0,0,0,4.08,4.74A7.067,7.067,0,0,0,17,44s.7,0,1.718.095A4.979,4.979,0,0,1,17,41l.08-.26A5.182,5.182,0,0,1,13,36a7.067,7.067,0,0,0-4.99-6.49,28.09,28.09,0,0,0,.413,4.364A6.6,6.6,0,0,1,11,39Z" style="fill:#9196aa"/><path d="M27.39,51.99c.051.241.115.5.169.746a23.694,23.694,0,0,0,2.851.244,39.028,39.028,0,0,1-1.02-3.99,13.867,13.867,0,0,1-2.772-.464C26.885,49.474,27.115,50.674,27.39,51.99Z" style="fill:#9196aa"/><path d="M3,32a9.231,9.231,0,0,1,1.159.081c-.1-1-.157-2.006-.159-3.011-1.58.2-2.78.87-2.97,1.69.02.394.059.9.117,1.478A6.708,6.708,0,0,1,2,32.07,6.452,6.452,0,0,1,3,32Z" style="fill:#9196aa"/><path d="M33.01,57.99a11.834,11.834,0,0,1-1.32-1.94,24.935,24.935,0,0,1-3.141.315,17.217,17.217,0,0,0,.989,2.365c1.2-.2,1.964-.472,3.462-.73Z" style="fill:#9196aa"/><path d="M6.01,32.51a8.193,8.193,0,0,1,2.413,1.364A28.09,28.09,0,0,1,8.01,29.51,9.013,9.013,0,0,0,5,29a6.452,6.452,0,0,0-1,.07c0,1,.058,2.01.159,3.011A8.82,8.82,0,0,1,6.01,32.51Z" style="fill:#707789"/><path d="M28.41,55.98c.042.13.095.256.139.385a24.935,24.935,0,0,0,3.141-.315,17.284,17.284,0,0,1-1.28-3.07,23.694,23.694,0,0,1-2.851-.244C27.793,53.792,28.053,54.886,28.41,55.98Z" style="fill:#707789"/><path d="M18.718,44.1c2.206.2,5.914.852,7.282,2.905a5.623,5.623,0,0,1,.618,1.526,13.867,13.867,0,0,0,2.772.464C28.93,46.79,28.6,44.9,28,44c-2-3-9-3-9-3a7.067,7.067,0,0,1-1.92-.26L17,41A4.979,4.979,0,0,0,18.718,44.1Z" style="fill:#707789"/><path d="M47,30a2,2,0,0,0,4,0V28a2.633,2.633,0,0,0-2.12-2.63,8.882,8.882,0,0,0-2.53-.36A7.833,7.833,0,0,1,47,28Z" style="fill:#00918c"/><path d="M51,28v2l4-8-4,1-2,2-.12.37A2.633,2.633,0,0,1,51,28Z" style="fill:#00aba5"/><path d="M60.8,20.88A5.226,5.226,0,0,1,55,15.67V15a6.392,6.392,0,0,0-6,4,2.639,2.639,0,0,0,2,4l4-1,1,4c0,1.66.89,2,2,2,5,0,5-4.68,5-8A3.51,3.51,0,0,1,60.8,20.88Z" style="fill:#00918c"/><path d="M4.667,27a12.107,12.107,0,0,1,3.511.51,10.52,10.52,0,0,1,1.476.584,2.728,2.728,0,0,0,.656-1.084C11.99,21.69,18.16,19,28,19c7.731,0,16.25,5.654,19.035,11.349A2.014,2.014,0,0,1,47,30V28a7.833,7.833,0,0,0-.65-2.99C43.93,19.1,35.03,13,27,13c-9.84,0-16.01,4.69-17.69,10.01A2.926,2.926,0,0,1,6.49,25H5a3.613,3.613,0,0,0-3.846,3.292A4.107,4.107,0,0,1,3.5,27.07,8.756,8.756,0,0,1,4.667,27Z" style="fill:#13d2cb"/><path d="M56.83,27.775c-2.445,11.281-4.869,15.405-6.357,16.174a3.975,3.975,0,0,0-2.056,2.675L47,53c7.56-5.47,11-14.18,11-24V28A2.59,2.59,0,0,1,56.83,27.775Z" style="fill:#00aba5"/><path d="M26,38a13.2,13.2,0,0,0-3.977.606A8.706,8.706,0,0,1,19.364,39H18c-2.845,0-4-2.8-4-5,0-2.94-2.4-5.45-5.822-6.49A12.107,12.107,0,0,0,4.667,27a8.756,8.756,0,0,0-1.167.07,4.107,4.107,0,0,0-2.346,1.222A8.9,8.9,0,0,0,1,30c0,.18.01.43.03.76.19-.82,1.39-1.49,2.97-1.69A6.452,6.452,0,0,1,5,29a9.013,9.013,0,0,1,3.01.51A7.067,7.067,0,0,1,13,36a5.182,5.182,0,0,0,4.08,4.74A7.067,7.067,0,0,0,19,41s7,0,9,3c.6.9.93,2.79,1.39,4.99a39.028,39.028,0,0,0,1.02,3.99,17.284,17.284,0,0,0,1.28,3.07,11.834,11.834,0,0,0,1.32,1.94A8.731,8.731,0,0,0,40,61h.32A5.987,5.987,0,0,0,45.5,57.99C33.063,57.783,34.987,49.934,34,45a10.6,10.6,0,0,0-1.86-3.983A7.553,7.553,0,0,0,26,38Z" style="fill:#00aba5"/><ellipse cx="32.258" cy="16.814" rx="0.825" ry="1.148" transform="translate(-2.437 27.746) rotate(-45.02)" style="fill:#f6fafd"/><ellipse cx="43.258" cy="55.814" rx="0.825" ry="1.148" transform="translate(-26.8 46.959) rotate(-45.02)" style="fill:#f6fafd"/><ellipse cx="60.004" cy="23.314" rx="0.413" ry="0.574" transform="translate(1.098 49.278) rotate(-45.02)" style="fill:#f6fafd"/><ellipse cx="26.004" cy="4.314" rx="0.413" ry="0.574" transform="translate(4.571 19.658) rotate(-45.02)" style="fill:#f6fafd"/><ellipse cx="44.004" cy="53.314" rx="0.413" ry="0.574" transform="translate(-24.813 46.754) rotate(-45.02)" style="fill:#f6fafd"/><ellipse cx="36.26" cy="18.8" rx="1.642" ry="2.286" transform="translate(-2.669 31.16) rotate(-45.02)" style="fill:#f6fafd"/><path d="M63.383,19.076a1,1,0,0,0-1.09.217,2.612,2.612,0,0,1-1.615.6,4.074,4.074,0,0,1-3.222-1.009A4.306,4.306,0,0,1,56,15.67V15a1,1,0,0,0-1-1c-3.064,0-5.384,1.532-6.9,4.553a3.913,3.913,0,0,0,.109,3.828,3.53,3.53,0,0,0,.961,1.03l-.819.818A10.092,10.092,0,0,0,47,24.058C44.243,18.238,35.617,12,27,12,15.736,12,9.917,17.769,8.355,22.71A1.934,1.934,0,0,1,6.49,24H5c-1.867,0-5,.779-5,6,0,.185.01.445.029.769A2,2,0,0,0,0,31H.042A43.021,43.021,0,0,0,4.465,47.3C8.834,55.608,15.935,60,25,60a22.571,22.571,0,0,0,6.354-.63c.4-.095.814-.194,1.317-.293A9.814,9.814,0,0,0,40,62h.32a6.992,6.992,0,0,0,6.79-5.3l.773-3.109C55.157,48.178,59,39.684,59,29v-.06c5-.621,5-5.98,5-8.94A1,1,0,0,0,63.383,19.076ZM25,58c-8.393,0-14.706-3.913-18.765-11.632A40.87,40.87,0,0,1,2.041,30.916a2.1,2.1,0,0,1,1-.6c.357,8.455,4.131,16.67,10.037,21.675a22.214,22.214,0,0,0,14.61,5.4,25.1,25.1,0,0,0,3.492-.267c.042.069.083.139.126.206l-.41.1A20.688,20.688,0,0,1,25,58Zm2.168-13.445a11.991,11.991,0,0,1,.963,3.283C23.67,47.1,19.464,44,18.315,41.954c.227.019.452.046.684.046h0C20.8,42,25.774,42.465,27.168,44.555ZM16.051,41.43c.5,3.477,6.886,7.806,12.515,8.478.14.636.3,1.308.487,2C16.807,50.951,9.947,41.184,9.1,31.151A5.761,5.761,0,0,1,12,36,6,6,0,0,0,16.051,41.43ZM7.039,30.257C7.635,45.2,18.718,53.4,29.684,53.947q.243.688.5,1.3a20.451,20.451,0,0,1-15.823-4.777C8.822,45.767,5.3,37.993,5.027,30A8.1,8.1,0,0,1,7.039,30.257ZM58,27c-.8,0-1-.1-1-1H55a2.646,2.646,0,0,0,2,2.879V29c0,10.16-3.661,18.179-10.586,23.189a1.009,1.009,0,0,0-.385.57l-.859,3.458A5,5,0,0,1,40.32,60H40a7.755,7.755,0,0,1-6.228-2.656,10.942,10.942,0,0,1-1.207-1.778,16.246,16.246,0,0,1-1.2-2.9,38.32,38.32,0,0,1-.993-3.886l-.163-.791a14.307,14.307,0,0,0-1.373-4.549c-1.021-1.531-3-2.378-4.926-2.851A4.422,4.422,0,0,0,26,37H24c0,1.626-2.29,3-5,3a6.01,6.01,0,0,1-1.647-.222A4.189,4.189,0,0,1,14,36a8.027,8.027,0,0,0-5.655-7.433A9.959,9.959,0,0,0,5,28a7.232,7.232,0,0,0-1.125.078,7.057,7.057,0,0,0-1.749.445C2.539,26.3,3.917,26,5,26H6.49a3.9,3.9,0,0,0,3.773-2.688C11.62,19.016,16.817,14,27,14c7.876,0,16.223,6.013,18.427,11.394A6.848,6.848,0,0,1,46,28h2a7.966,7.966,0,0,0-.238-1.864,5.84,5.84,0,0,1,.814.186C49.831,26.724,50,27.4,50,28h2a3.445,3.445,0,0,0-1.584-3l1.291-1.291A1,1,0,0,0,51,22a1.308,1.308,0,0,1-1.085-.671,1.9,1.9,0,0,1-.02-1.882,5.477,5.477,0,0,1,4.119-3.374,6.308,6.308,0,0,0,2.12,4.306,6.144,6.144,0,0,0,4.785,1.494,7.315,7.315,0,0,0,1.053-.2C61.841,24.789,61.163,27,58,27Z"/><path d="M17.623,26H17.6a2.633,2.633,0,0,0-1.762.848A2.6,2.6,0,0,0,15,28.623a1.354,1.354,0,0,0,.385.958,1.379,1.379,0,0,0,.989.416H16.4a2.616,2.616,0,0,0,1.748-.834l.014-.014A2.6,2.6,0,0,0,19,27.377a1.354,1.354,0,0,0-.385-.958A1.379,1.379,0,0,0,17.623,26Z"/><path d="M25,10c2.064,0,3-3.836,3-5a3,3,0,0,0-6,0C22,6.164,22.936,10,25,10Zm0-6a1,1,0,0,1,1,1,6.212,6.212,0,0,1-1,2.913A6.212,6.212,0,0,1,24,5,1,1,0,0,1,25,4Z"/><path d="M30.715,8.992a6.21,6.21,0,0,0,3.532-1.585l.006-.006a2.584,2.584,0,0,0-3.66-3.648c-.711.71-2.4,3.5-1.12,4.774A1.69,1.69,0,0,0,30.715,8.992ZM32,5.173A.6.6,0,0,1,32.424,5a.574.574,0,0,1,.4.16.6.6,0,0,1,0,.835,5.061,5.061,0,0,1-1.785.959A5.052,5.052,0,0,1,32,5.173Z"/><path d="M15.753,7.407a6.21,6.21,0,0,0,3.532,1.585,1.69,1.69,0,0,0,1.242-.465c1.278-1.277-.409-4.064-1.126-4.78A2.584,2.584,0,0,0,15.747,7.4Zm1.408-2.234a.6.6,0,0,1,.832-.006,5.046,5.046,0,0,1,.962,1.788A5.061,5.061,0,0,1,17.17,6,.6.6,0,0,1,17.161,5.173Z"/></g></svg>
