<?xml version="1.0"?>
<svg xmlns="http://www.w3.org/2000/svg" viewBox="0 0 64 64" width="512" height="512"><g id="_06-panda" data-name="06-panda"><ellipse cx="6" cy="58.999" rx="1.881" ry="3.804" transform="translate(-39.961 21.523) rotate(-45)" style="fill:#333940"/><ellipse cx="58" cy="58.999" rx="3.804" ry="1.881" transform="translate(-24.731 58.293) rotate(-45)" style="fill:#333940"/><path d="M31,25h2a1,1,0,0,1,.8,1.6l-1,1.33a.993.993,0,0,1-1.6,0l-1-1.33A1,1,0,0,1,31,25Z" style="fill:#555a66"/><path d="M28.61,15.389c2.12,2.12,1.78,5.91-.77,8.45s-6.33,2.89-8.45.77-1.78-5.91.77-8.45S26.49,13.269,28.61,15.389Z" style="fill:#555a66"/><path d="M43.84,16.159c2.55,2.54,2.89,6.33.77,8.45s-5.91,1.78-8.45-.77-2.89-6.33-.77-8.45S41.3,13.609,43.84,16.159Z" style="fill:#555a66"/><path d="M48,12.069a24.082,24.082,0,0,0-11.49-5.65,8.481,8.481,0,0,1,1.93-2.98c2.94-2.93,7.36-3.27,9.87-.75,2.37,2.36,2.21,6.4-.24,9.31Z" style="fill:#555a66"/><path d="M26.86,3.439a8.434,8.434,0,0,1,1.86,2.78A24.126,24.126,0,0,0,16.78,11.4c-2.01-2.85-1.99-6.51.21-8.71C19.51.169,23.93.509,26.86,3.439Z" style="fill:#555a66"/><path d="M8.69,61.689c.73-.74.12-2.54-1.36-4.02s-3.28-2.09-4.02-1.36-.12,2.54,1.36,4.02S7.95,62.419,8.69,61.689Zm7.36-1.89a1.163,1.163,0,0,0,.04.18L16,60l-6,3H8a6.888,6.888,0,0,1-4.9-2.1c-2.52-2.51-2.81-6.3-.66-8.46A5.288,5.288,0,0,1,7,51c0-3.87,5.24-11,8-11v9A48.9,48.9,0,0,0,16.05,59.8Z" style="fill:#555a66"/><path d="M60.69,56.309c-.74-.73-2.54-.12-4.02,1.36s-2.09,3.28-1.36,4.02,2.54.12,4.02-1.36S61.42,57.049,60.69,56.309Zm.87-3.87c2.15,2.16,1.86,5.95-.66,8.46A6.888,6.888,0,0,1,56,63H54l-6-3-.09-.02a1.163,1.163,0,0,0,.04-.18A48.9,48.9,0,0,0,49,49V40c2.76,0,8,7.13,8,11A5.288,5.288,0,0,1,61.56,52.439Z" style="fill:#555a66"/><path d="M37.99,47.989A4.644,4.644,0,0,1,35,49H29a4.644,4.644,0,0,1-2.99-1.01L26,48v2.03a3.872,3.872,0,0,0,.45,1.83l2.33,5.44a4.991,4.991,0,0,1,.22,1.45,2.008,2.008,0,0,1-.01.25,4.543,4.543,0,0,1-1.08,2.76A3.525,3.525,0,0,1,25.28,63h-5.8a3.616,3.616,0,0,1-3.39-3.02,1.163,1.163,0,0,1-.04-.18A48.9,48.9,0,0,1,15,49V40c0-2.11.72-4.76,2.72-4.98A32.141,32.141,0,0,0,32,38a32.141,32.141,0,0,0,14.28-2.98c2,.22,2.72,2.87,2.72,4.98v9a48.9,48.9,0,0,1-1.05,10.8,1.163,1.163,0,0,1-.04.18A3.616,3.616,0,0,1,44.52,63h-5.8a3.525,3.525,0,0,1-2.63-1.24A4.543,4.543,0,0,1,35.01,59a2.008,2.008,0,0,1-.01-.25,4.991,4.991,0,0,1,.22-1.45l2.33-5.44a3.872,3.872,0,0,0,.45-1.83V48Z" style="fill:#e9edf5"/><path d="M27.84,23.839c2.55-2.54,2.89-6.33.77-8.45s-5.91-1.78-8.45.77-2.89,6.33-.77,8.45S25.3,26.389,27.84,23.839Zm3.36,4.09a.993.993,0,0,0,1.6,0l1-1.33A1,1,0,0,0,33,25H31a1,1,0,0,0-.8,1.6Zm15.08,7.09A32.141,32.141,0,0,1,32,38a32.141,32.141,0,0,1-14.28-2.98C13,32.629,10,28.879,10,24c0-4.54,2.6-9.17,6.78-12.6a24.126,24.126,0,0,1,11.94-5.18A25.21,25.21,0,0,1,32,6a24.722,24.722,0,0,1,4.51.42A24.082,24.082,0,0,1,48,12.069c3.72,3.35,6,7.68,6,11.93C54,28.879,51,32.629,46.28,35.019Zm-1.67-10.41c2.12-2.12,1.78-5.91-.77-8.45s-6.33-2.89-8.45-.77-1.78,5.91.77,8.45S42.49,26.729,44.61,24.609Z" style="fill:#e9edf5"/><path d="M38,50.029a3.872,3.872,0,0,1-.45,1.83L35.22,57.3a4.991,4.991,0,0,0-.22,1.45,2.008,2.008,0,0,0,.01.25H28.99a2.008,2.008,0,0,0,.01-.25,4.991,4.991,0,0,0-.22-1.45l-2.33-5.44a3.872,3.872,0,0,1-.45-1.83V48l.01-.01A4.644,4.644,0,0,0,29,49h6a4.644,4.644,0,0,0,2.99-1.01L38,48Z" style="fill:#cdd2e1"/><path d="M15,49V40c-2.76,0-8,7.13-8,11H7c3.316,0,6,3.684,6,7,0,2.758-1,3.995-2.987,4.993L16,60l.09-.02a1.163,1.163,0,0,1-.04-.18A48.9,48.9,0,0,1,15,49Z" style="fill:#414952"/><path d="M51,58c0-3.316,2.684-7,6-7h0c0-3.87-5.241-11-8-11v9a48.9,48.9,0,0,1-1.05,10.8,1.163,1.163,0,0,1-.04.18L48,60l5.987,2.993C52,61.994,51,60.757,51,58Z" style="fill:#414952"/><path d="M13,58c0-3.316-2.684-7-6-7H6.994a5.291,5.291,0,0,0-4.555,1.44C.289,54.6.579,58.389,3.1,60.9A6.889,6.889,0,0,0,8,63h2l.013-.007C12,61.994,13,60.757,13,58Zm-4.31,3.69c-.741.73-2.541.12-4.021-1.36s-2.09-3.28-1.36-4.02,2.54-.12,4.02,1.36S9.419,60.949,8.69,61.689Z" style="fill:#555a66"/><path d="M56,63a6.889,6.889,0,0,0,4.9-2.1c2.52-2.51,2.81-6.3.66-8.461A5.289,5.289,0,0,0,57,51h0c-3.316,0-6,3.684-6,7,0,2.758,1,3.995,2.987,4.993L54,63Zm.671-5.33c1.48-1.48,3.28-2.09,4.02-1.36s.12,2.54-1.36,4.02-3.28,2.09-4.021,1.36S55.19,59.149,56.671,57.669Z" style="fill:#555a66"/><path d="M20.046,36.018a23.145,23.145,0,0,1-2.326-1c-2,.22-2.72,2.87-2.72,4.98v9a48.9,48.9,0,0,0,1.05,10.8,1.163,1.163,0,0,0,.04.18A3.616,3.616,0,0,0,19.48,63h5.8a3.525,3.525,0,0,0,2.63-1.24A4.543,4.543,0,0,0,28.99,59a2.008,2.008,0,0,0,.01-.25,4.991,4.991,0,0,0-.22-1.45l-2.33-5.44a3.872,3.872,0,0,1-.45-1.83V48C26,41.4,23.031,37.047,20.046,36.018Z" style="fill:#e9edf5"/><path d="M43.954,36.018A34.415,34.415,0,0,1,32,38a34.419,34.419,0,0,1-11.954-1.981C23.031,37.047,26,41.4,26,48l.01-.01A4.644,4.644,0,0,0,29,49h6a4.644,4.644,0,0,0,2.99-1.01L38,48C38,41.4,40.97,37.047,43.954,36.018Z" style="fill:#dce1eb"/><path d="M46.28,35.019a23.047,23.047,0,0,1-2.326,1C40.97,37.047,38,41.4,38,48v2.03a3.872,3.872,0,0,1-.45,1.83L35.22,57.3a4.991,4.991,0,0,0-.22,1.45,2.008,2.008,0,0,0,.01.25,4.543,4.543,0,0,0,1.08,2.76A3.525,3.525,0,0,0,38.72,63h5.8a3.616,3.616,0,0,0,3.39-3.02,1.163,1.163,0,0,0,.04-.18A48.9,48.9,0,0,0,49,49V40C49,37.889,48.28,35.239,46.28,35.019Z" style="fill:#e9edf5"/><path d="M46.31,5.689c-2.481-2.491-6.828-2.182-9.768.657-.009.025-.022.049-.032.073a24.09,24.09,0,0,1,11.224,5.428A6.243,6.243,0,0,0,46.31,5.689Z" style="fill:#414952"/><path d="M18.99,5.689a6.083,6.083,0,0,0-1.609,5.25,24.175,24.175,0,0,1,11.255-4.7C25.709,3.5,21.448,3.232,18.99,5.689Z" style="fill:#414952"/><path d="M4.31,58.309c.74-.73,2.54-.12,4.02,1.36a7.444,7.444,0,0,1,.613.7,5.668,5.668,0,0,0-1.613-2.7c-1.48-1.48-3.28-2.09-4.02-1.36-.618.625-.269,2.009.747,3.316A1.427,1.427,0,0,1,4.31,58.309Z" style="fill:#414952"/><path d="M59.691,58.309a1.427,1.427,0,0,1,.253,1.316c1.015-1.307,1.364-2.691.747-3.316-.74-.73-2.54-.12-4.02,1.36a5.66,5.66,0,0,0-1.613,2.7,7.444,7.444,0,0,1,.613-.7C57.151,58.189,58.951,57.579,59.691,58.309Z" style="fill:#414952"/><path d="M57,51h0c0-3.87-5.241-11-8-11v4.26c2.011.907,4.648,4.142,6.042,7.187A4.687,4.687,0,0,1,57,51Z" style="fill:#555a66"/><path d="M7,51H7c0-3.87,5.24-11,8-11v4.26c-2.01.907-4.648,4.142-6.041,7.187A4.687,4.687,0,0,0,7,51Z" style="fill:#555a66"/><path d="M13,58c0-3.316-2.684-7-6-7H6.994a5.291,5.291,0,0,0-4.555,1.44,4.911,4.911,0,0,0-1.311,2.438A5.331,5.331,0,0,1,4.994,54H5c3.316,0,6,3.684,6,7a8.016,8.016,0,0,1-.136,1.5C12.282,61.566,13,60.326,13,58Z" style="fill:#636978"/><path d="M59,54h0a5.335,5.335,0,0,1,3.868.878,4.911,4.911,0,0,0-1.311-2.438A5.289,5.289,0,0,0,57,51h0c-3.316,0-6,3.684-6,7,0,2.327.718,3.567,2.136,4.5A8.016,8.016,0,0,1,53,61C53,57.683,55.684,54,59,54Z" style="fill:#636978"/><path d="M39.7,40.234a8.188,8.188,0,0,1,4.253-4.216A34.415,34.415,0,0,1,32,38a34.419,34.419,0,0,1-11.954-1.981A8.189,8.189,0,0,1,24.3,40.234a39.139,39.139,0,0,0,15.4,0Z" style="fill:#cdd2e1"/><path d="M46.28,35.019a23.047,23.047,0,0,1-2.326,1c-.079.027-.158.066-.237.1C45.384,36.648,46,39.052,46,41v9a48.9,48.9,0,0,1-1.05,10.8,1.163,1.163,0,0,1-.04.18A4.1,4.1,0,0,1,43.819,63h.7a3.616,3.616,0,0,0,3.39-3.02,1.163,1.163,0,0,0,.04-.18A48.9,48.9,0,0,0,49,49V40C49,37.889,48.28,35.239,46.28,35.019Z" style="fill:#f7faff"/><path d="M17.72,35.019a23.145,23.145,0,0,0,2.326,1c.08.027.159.066.238.1C18.616,36.648,18,39.052,18,41v9a48.9,48.9,0,0,0,1.05,10.8,1.163,1.163,0,0,0,.04.18A4.1,4.1,0,0,0,20.182,63h-.7a3.616,3.616,0,0,1-3.39-3.02,1.163,1.163,0,0,1-.04-.18A48.9,48.9,0,0,1,15,49V40C15,37.889,15.72,35.239,17.72,35.019Z" style="fill:#f7faff"/><path d="M34,57v-.042a4.008,4.008,0,0,1,.434-1.812L35.88,52.3a1.66,1.66,0,0,0,.12-.623h0A1.677,1.677,0,0,0,34.323,50H29.677A1.677,1.677,0,0,0,28,51.676h0a1.68,1.68,0,0,0,.12.623l1.446,2.846A4,4,0,0,1,30,56.957V57a1,1,0,0,0,1,1h2A1,1,0,0,0,34,57Z" style="fill:#dce1eb"/><path d="M37.99,47.989A4.644,4.644,0,0,1,35,49H29a4.644,4.644,0,0,1-2.99-1.01L26,48v2a1.607,1.607,0,0,0,.02.2c0,.041.012.081.015.122a3.188,3.188,0,0,0,2.081,1.967A1.673,1.673,0,0,1,29.677,50h4.646a1.675,1.675,0,0,1,1.562,2.285,3.191,3.191,0,0,0,2.081-1.967c0-.041.013-.081.015-.122A1.605,1.605,0,0,0,38,50V48Z" style="fill:#bec3d2"/><path d="M35.885,52.284A1.675,1.675,0,0,0,34.323,50H29.677a1.673,1.673,0,0,0-1.561,2.285,10.909,10.909,0,0,0,7.769,0Z" style="fill:#cdd2e1"/><path d="M48,12.069a24.082,24.082,0,0,0-11.49-5.65A24.722,24.722,0,0,0,32,6a25.21,25.21,0,0,0-3.28.22A24.126,24.126,0,0,0,16.78,11.4C12.6,14.829,10,19.459,10,24c0,4.88,3,8.63,7.72,11.02A32.141,32.141,0,0,0,32,38a23.511,23.511,0,0,1-11.683-2.793C16.455,32.965,14,29.449,14,24.874a16.7,16.7,0,0,1,5.548-11.812,18.6,18.6,0,0,1,9.769-4.856A17.935,17.935,0,0,1,32,8a17.734,17.734,0,0,1,3.69.394,18.855,18.855,0,0,1,9.4,5.3A16.482,16.482,0,0,1,50,24.874c0,4.575-2.454,8.091-6.316,10.332A23.515,23.515,0,0,1,32,38a32.141,32.141,0,0,0,14.28-2.98C51,32.629,54,28.879,54,24,54,19.749,51.72,15.419,48,12.069Z" style="fill:#f7faff"/><ellipse cx="44.259" cy="39.813" rx="0.825" ry="1.148" transform="translate(-15.188 42.977) rotate(-45.02)" style="fill:#f6fafd"/><ellipse cx="44.005" cy="42.313" rx="0.413" ry="0.574" transform="translate(-17.031 43.53) rotate(-45.02)" style="fill:#f6fafd"/><path d="M62.263,51.737a6.167,6.167,0,0,0-4.365-1.8c-.683-3.883-4.706-9.711-7.93-10.767a6.7,6.7,0,0,0-1.638-4.209C52.533,32.3,55,28.5,55,24c0-4.427-2.177-8.676-5.651-12.031,2.31-3.277,2.217-7.448-.328-9.991-2.9-2.9-7.962-2.561-11.284.76a9.585,9.585,0,0,0-1.831,2.584A24.478,24.478,0,0,0,32,5a24.224,24.224,0,0,0-2.687.156,9.619,9.619,0,0,0-1.745-2.419C24.249-.582,19.186-.925,16.284,1.978c-2.352,2.351-2.6,6.092-.807,9.233C11.525,14.67,9,19.231,9,24c0,4.5,2.467,8.3,6.67,10.958a6.7,6.7,0,0,0-1.638,4.209c-3.224,1.056-7.247,6.884-7.93,10.767a6.167,6.167,0,0,0-4.365,1.8c-2.543,2.544-2.251,6.973.652,9.875A7.917,7.917,0,0,0,7.907,64H10a1,1,0,0,0,.447-.1l5.081-2.541A4.465,4.465,0,0,0,19.482,64h5.8a4.851,4.851,0,0,0,4.57-4h4.3a4.851,4.851,0,0,0,4.57,4h5.8a4.465,4.465,0,0,0,3.954-2.646L53.553,63.9A1,1,0,0,0,54,64h2.08a7.921,7.921,0,0,0,5.531-2.388C64.514,58.71,64.806,54.281,62.263,51.737ZM39.151,4.151c2.54-2.539,6.332-2.881,8.456-.759,1.8,1.8,1.838,4.781.219,7.231a25.579,25.579,0,0,0-9.887-4.887A7.728,7.728,0,0,1,39.151,4.151ZM17.7,3.392c2.122-2.122,5.914-1.781,8.456.759A7.759,7.759,0,0,1,27.209,5.48,25.68,25.68,0,0,0,17.076,9.928,5.54,5.54,0,0,1,17.7,3.392ZM11,24c0-8.025,8.98-17,21-17s21,8.975,21,17c0,4.2-2.609,7.692-6.993,10H46v0a30.345,30.345,0,0,1-14,3,30.345,30.345,0,0,1-14-3v0h-.007C13.609,31.692,11,28.2,11,24ZM7.988,60.975c-.188.109-1.336-.077-2.611-1.352s-1.465-2.42-1.365-2.6A.317.317,0,0,1,4.167,57a4.122,4.122,0,0,1,2.456,1.38C7.9,59.649,8.088,60.8,7.988,60.975ZM9.764,62H9.683c.729-1.243.094-3.3-1.646-5.037C6.1,55.027,3.767,54.442,2.6,55.605a2.015,2.015,0,0,0-.552,1.106,4.2,4.2,0,0,1,1.1-3.56,4.253,4.253,0,0,1,3.7-1.162,1.015,1.015,0,0,0,.8-.231A1,1,0,0,0,8,51c0-2.961,3.678-8.227,6-9.636V49a47.97,47.97,0,0,0,.909,10.107l.054.294Zm24.507-5.006A5.755,5.755,0,0,0,34.057,58H29.94a6.107,6.107,0,0,0-.245-1.1l-2.359-5.5A3.007,3.007,0,0,1,27,50.026v-.365A6.046,6.046,0,0,0,29,50h6a6.046,6.046,0,0,0,2-.339v.365a3.135,3.135,0,0,1-.366,1.445Zm12.852,1.752-.159.877A2.674,2.674,0,0,1,44.518,62h-5.8A3.024,3.024,0,0,1,36,58.749a3.9,3.9,0,0,1,.143-1.059l2.3-5.366a5.02,5.02,0,0,0,.559-2.3V48.375A3.482,3.482,0,0,0,40,46H38c0,1.084-1.374,2-3,2H29c-1.626,0-3-.916-3-2H24a3.482,3.482,0,0,0,1,2.375v1.651a4.921,4.921,0,0,0,.528,2.233l2.3,5.34A3.81,3.81,0,0,1,28,58.749,3.024,3.024,0,0,1,25.28,62h-5.8a2.674,2.674,0,0,1-2.446-2.377l-.159-.877A46.164,46.164,0,0,1,16,49V40c0-1.483.462-3.608,1.684-3.934A32.841,32.841,0,0,0,32,39a32.841,32.841,0,0,0,14.316-2.934C47.538,36.392,48,38.517,48,40v9A46.164,46.164,0,0,1,47.123,58.746Zm1.914.655.054-.294A47.97,47.97,0,0,0,50,49V41.364c2.322,1.409,6,6.675,6,9.636a1,1,0,0,0,.349.758,1.012,1.012,0,0,0,.8.231,4.247,4.247,0,0,1,3.7,1.162,4.2,4.2,0,0,1,1.1,3.56A2.022,2.022,0,0,0,61.4,55.6c-1.163-1.159-3.5-.576-5.433,1.359C54.224,58.7,53.588,60.757,54.317,62h-.081Zm8.34-1.024a4.161,4.161,0,0,1,2.464-1.388.305.305,0,0,1,.135.023c.112.191-.08,1.339-1.353,2.611s-2.421,1.463-2.6,1.365C55.912,60.8,56.1,59.649,57.377,58.377Z"/><path d="M29.212,25.105A1.987,1.987,0,0,0,29.4,27.2l1,1.332a1.993,1.993,0,0,0,.591.517A1,1,0,0,1,29,29H27a3,3,0,0,0,5,2.234A3,3,0,0,0,37,29H35a1,1,0,0,1-1.99.049,1.988,1.988,0,0,0,.59-.516l1-1.333A2,2,0,0,0,33,24H31A1.987,1.987,0,0,0,29.212,25.105ZM31,26h2l-1,1.333L30.993,26Z"/><path d="M39.394,22a2.592,2.592,0,0,0,1.76-.845h0A3,3,0,0,0,41.9,20a1.508,1.508,0,0,0-.3-1.6c-.669-.669-1.829-.481-2.756.447A3,3,0,0,0,38.1,20a1.508,1.508,0,0,0,.3,1.6A1.373,1.373,0,0,0,39.394,22Z"/><path d="M22.846,21.154h0a2.592,2.592,0,0,0,1.76.845,1.373,1.373,0,0,0,.995-.4,1.508,1.508,0,0,0,.3-1.6,3.008,3.008,0,0,0-.743-1.155c-.928-.928-2.088-1.114-2.755-.447a1.508,1.508,0,0,0-.3,1.6A3,3,0,0,0,22.846,21.154Z"/><path d="M40.453,26.971c.217.02.432.029.644.029a5.859,5.859,0,0,0,4.219-1.684c2.508-2.508,2.163-6.933-.768-9.864a8.184,8.184,0,0,0-5-2.423,5.98,5.98,0,0,0-4.863,1.655c-2.508,2.508-2.163,6.933.768,9.864A8.184,8.184,0,0,0,40.453,26.971ZM36.1,16.1A3.9,3.9,0,0,1,38.911,15c.15,0,.3.007.455.021a6.187,6.187,0,0,1,3.768,1.845c2.151,2.152,2.5,5.308.768,7.036a4,4,0,0,1-3.268,1.077,6.187,6.187,0,0,1-3.768-1.845C34.715,20.982,34.37,17.826,36.1,16.1Z"/><path d="M22.9,27c.212,0,.427-.009.644-.029a8.184,8.184,0,0,0,5-2.423c2.931-2.931,3.276-7.356.768-9.864a5.98,5.98,0,0,0-4.863-1.655,8.184,8.184,0,0,0-5,2.423c-2.931,2.931-3.276,7.356-.768,9.864A5.859,5.859,0,0,0,22.9,27ZM20.866,16.866a6.187,6.187,0,0,1,3.768-1.845A4.006,4.006,0,0,1,27.9,16.1c1.728,1.728,1.383,4.884-.768,7.036a6.187,6.187,0,0,1-3.768,1.845A4.021,4.021,0,0,1,20.1,23.9C18.37,22.174,18.715,19.018,20.866,16.866Z"/></g></svg>
