<?xml version="1.0"?>
<svg xmlns="http://www.w3.org/2000/svg" id="_01-dog" data-name="01-dog" viewBox="0 0 64 64" width="512" height="512"><path d="M61,41c0,6-3,8-3,8l-.13.02c-.47-3.59-2.21-6.57-4.56-8.04C56.95,40.58,56,33,56,33A8.613,8.613,0,0,1,61,41Z" style="fill:#414952"/><path d="M53.31,40.98c2.35,1.47,4.09,4.45,4.56,8.04A14.215,14.215,0,0,1,58,51c0,6.63-2.24,12-5,12H45a2.03,2.03,0,0,1-1.23-.42A2.005,2.005,0,0,1,43,61V51a2,2,0,0,1,3.6-1.2l2.7,3.19a64.632,64.632,0,0,0,1.62-12.91A6.217,6.217,0,0,1,53.31,40.98Z" style="fill:#414952"/><path d="M10.71,53A71.06,71.06,0,0,1,9,36.37,18.325,18.325,0,0,1,5,26c12,0,10-7,16-7s8,9,8,9a1,1,0,0,0-.8,1.6l1,1.33a.993.993,0,0,0,1.6,0l1-1.33A1,1,0,0,0,31,28s2-9,8-9,4,7,16,7a18.325,18.325,0,0,1-4,10.37c0,1.28-.03,2.52-.08,3.71A64.632,64.632,0,0,1,49.3,52.99L46.6,49.8A2,2,0,0,0,43,51V61a2.005,2.005,0,0,0,.77,1.58A3.969,3.969,0,0,1,42,63H37a1.975,1.975,0,0,1-2-1.94V61H25v.06A1.975,1.975,0,0,1,23,63H18C15,63,12.34,59.6,10.71,53Z" style="fill:#eef2fa"/><path d="M47,14c0,6,5,8,8,12-12,0-10-7-16-7s-8,9-8,9H29s-2-9-8-9-4,7-16,7c3-4,8-6,8-12a5.276,5.276,0,0,1,2.26-4.45,1.917,1.917,0,0,0,.54-.66L16,9h2.18a2.009,2.009,0,0,0,1.54-3.06l-2.8-4.93a.823.823,0,0,1,.56.12l7.6,4.34A3.943,3.943,0,0,0,27.06,6h5.88a3.943,3.943,0,0,0,1.98-.53l7.6-4.34a.823.823,0,0,1,.56-.12l-2.8,4.93A2.009,2.009,0,0,0,41.82,9H44l.2-.11a1.917,1.917,0,0,0,.54.66A5.276,5.276,0,0,1,47,14Z" style="fill:#414952"/><path d="M44.2,8.89,44,9H41.82a2.009,2.009,0,0,1-1.54-3.06l2.8-4.93A1.037,1.037,0,0,1,44,2.08V8.01A2.027,2.027,0,0,0,44.2,8.89Z" style="fill:#dce1eb"/><path d="M19.72,5.94A2.009,2.009,0,0,1,18.18,9H16l-.2-.11a2.027,2.027,0,0,0,.2-.88V2.08a1.037,1.037,0,0,1,.92-1.07Z" style="fill:#dce1eb"/><path d="M18,63H5a2.006,2.006,0,0,1-2-2V51a2,2,0,0,1,3.6-1.2L9,53h1.71C12.34,59.6,15,63,18,63Z" style="fill:#414952"/><path d="M45,40H39a4,4,0,0,0-4,4V61.06A1.975,1.975,0,0,0,37,63h5a3.969,3.969,0,0,0,1.77-.42A2.005,2.005,0,0,1,43,61V51a2,2,0,0,1,3.6-1.2l2.7,3.19a64.632,64.632,0,0,0,1.62-12.91c.05-1.19.08-2.43.08-3.71C49.3,38.51,47.02,40,45,40Z" style="fill:#e9edf5"/><path d="M30,47c-2.764,0-5-1.342-5-3V61H35V44C35,45.658,32.764,47,30,47Z" style="fill:#dce1eb"/><path d="M21,40H15c-2.02,0-4.3-1.49-6-3.63A71.06,71.06,0,0,0,10.71,53C12.34,59.6,15,63,18,63h5a1.975,1.975,0,0,0,2-1.94V44A4,4,0,0,0,21,40Z" style="fill:#e9edf5"/><path d="M46.225,49.429A1.991,1.991,0,0,0,43,51V61a2.005,2.005,0,0,0,.77,1.58A2.03,2.03,0,0,0,45,63h8c1.089,0,2.094-.845,2.916-2.265Z" style="fill:#414952"/><path d="M31,28a1,1,0,0,1,.8,1.6l-1,1.33a.993.993,0,0,1-1.6,0l-1-1.33A1,1,0,0,1,29,28Z" style="fill:#333940"/><path d="M31.8,28.6l-1,1.33a.993.993,0,0,1-1.6,0l-1-1.33a1.105,1.105,0,0,1-.055-.1.989.989,0,0,0,.055,1.1l1,1.33a.993.993,0,0,0,1.6,0l1-1.33a.989.989,0,0,0,.055-1.1A1.105,1.105,0,0,1,31.8,28.6Z" style="fill:#1d2024"/><path d="M61,41a8.613,8.613,0,0,0-5-8,18.246,18.246,0,0,1-.04,4.256A8.53,8.53,0,0,1,59,44a13.226,13.226,0,0,1-.834,4.871C58.789,48.353,61,46.156,61,41Z" style="fill:#555a66"/><path d="M27.06,8h5.88a3.943,3.943,0,0,0,1.98-.53l6.647-3.8L43.08,1.01a.823.823,0,0,0-.56.12l-7.6,4.34A3.943,3.943,0,0,1,32.94,6H27.06a3.943,3.943,0,0,1-1.98-.53l-7.6-4.34a.823.823,0,0,0-.56-.12l1.513,2.664,6.647,3.8A3.943,3.943,0,0,0,27.06,8Z" style="fill:#555a66"/><path d="M5.6,52.8,8,56h3.6c-.323-.915-.623-1.909-.892-3H9L6.6,49.8A2,2,0,0,0,3,51v1.279A1.975,1.975,0,0,1,4,52,2.013,2.013,0,0,1,5.6,52.8Z" style="fill:#555a66"/><path d="M25,44v0c0,1.658,2.236,3,5,3s5-1.342,5-3v0a4,4,0,0,1,4-4H21A4,4,0,0,1,25,44Z" style="fill:#cdd2e1"/><path d="M44.28,14c0,5.808,3.931,7.873,6.468,11.627A21.958,21.958,0,0,0,55,26c-3-4-8-6-8-12a5.276,5.276,0,0,0-2.26-4.45,1.917,1.917,0,0,1-.54-.66L44,9H41.988a1.858,1.858,0,0,0,.394.55A5.646,5.646,0,0,1,44.28,14Z" style="fill:#555a66"/><path d="M15.72,14a5.646,5.646,0,0,1,1.9-4.45A1.858,1.858,0,0,0,18.012,9H16l-.2-.11a1.917,1.917,0,0,1-.54.66A5.276,5.276,0,0,0,13,14c0,6-5,8-8,12a22.038,22.038,0,0,0,4.252-.373C11.789,21.873,15.72,19.808,15.72,14Z" style="fill:#555a66"/><path d="M12.36,36.37A20.478,20.478,0,0,1,9,26c.081-.128.168-.249.252-.373A22.038,22.038,0,0,1,5,26,18.325,18.325,0,0,0,9,36.37C10.7,38.51,12.98,40,15,40h2.4C15.7,40,13.788,38.51,12.36,36.37Z" style="fill:#f7faff"/><path d="M50.748,25.627c.084.124.171.245.252.373a20.478,20.478,0,0,1-3.36,10.37C46.212,38.51,44.3,40,42.6,40H45c2.02,0,4.3-1.49,6-3.63A18.325,18.325,0,0,0,55,26,21.958,21.958,0,0,1,50.748,25.627Z" style="fill:#f7faff"/><path d="M50.748,25.627v0C43.411,24.179,44.163,19,39,19c-6,0-8,9-8,9a.974.974,0,0,1,.556.171C32.5,25.541,34.733,21,39,21c5.2,0,4.4,5.243,11.882,6.651A13.82,13.82,0,0,0,51,26C50.919,25.872,50.832,25.751,50.748,25.627Z" style="fill:#dce1eb"/><path d="M21,19c-5.163,0-4.411,5.179-11.747,6.625v0c-.084.124-.171.245-.252.373a13.82,13.82,0,0,0,.118,1.651C16.6,26.243,15.805,21,21,21c4.267,0,6.5,4.541,7.444,7.171A.974.974,0,0,1,29,28S27,19,21,19Z" style="fill:#dce1eb"/><path d="M39,44h6c1.982,0,4.212-1.439,5.9-3.515.006-.137.014-.267.019-.405.05-1.19.08-2.43.08-3.71C49.3,38.51,47.02,40,45,40H39a4,4,0,0,0-4,4v4A4,4,0,0,1,39,44Z" style="fill:#dce1eb"/><path d="M21,40H15c-2.02,0-4.3-1.49-6-3.63,0,1.431.041,2.794.1,4.113C10.787,42.56,13.017,44,15,44h6a4,4,0,0,1,4,4V44A4,4,0,0,0,21,40Z" style="fill:#dce1eb"/><path d="M47.747,43.19a66.459,66.459,0,0,1-.847,6.964l2.4,2.836a64.632,64.632,0,0,0,1.62-12.91c-.005.138-.013.268-.019.405A11.087,11.087,0,0,1,47.747,43.19Z" style="fill:#f7faff"/><path d="M9.1,40.483q-.04-.969-.066-1.972A67.189,67.189,0,0,0,10.71,53C12.34,59.6,15,63,18,63h3c-3,0-5.66-3.4-7.29-10a58.38,58.38,0,0,1-1.461-9.812A11.083,11.083,0,0,1,9.1,40.483Z" style="fill:#f7faff"/><path d="M43,61V51a1.984,1.984,0,0,1,.476-1.278l-.251-.293A1.991,1.991,0,0,0,40,51V61a2.005,2.005,0,0,0,.77,1.58A2.03,2.03,0,0,0,42,63a3.969,3.969,0,0,0,1.77-.42A2.005,2.005,0,0,1,43,61Z" style="fill:#dce1eb"/><path d="M57.87,49.02c-.47-3.59-2.21-6.57-4.56-8.04a6.217,6.217,0,0,0-2.39-.9c-.016.442-.039.87-.061,1.3a11.4,11.4,0,0,1,4.011,7.64A14.215,14.215,0,0,1,55,51a27.586,27.586,0,0,1-.2,3.308A2,2,0,0,1,51.3,55.349l-5.074-5.92A1.991,1.991,0,0,0,43,51a2,2,0,0,1,1.225.429l9.691,11.306c-.016.027-.033.051-.049.078a4.709,4.709,0,0,0,2.049-2.078A20.478,20.478,0,0,0,58,51,14.215,14.215,0,0,0,57.87,49.02Z" style="fill:#555a66"/><rect x="25" y="58" width="10" height="3" style="fill:#cdd2e1"/><path d="M43.82,8a2.009,2.009,0,0,1-1.54-3.06l1.7-2.988a1.02,1.02,0,0,0-.9-.942l-2.8,4.93A2.009,2.009,0,0,0,41.82,9H44l.2-.11a2.027,2.027,0,0,1-.2-.88V8Z" style="fill:#cdd2e1"/><path d="M16.18,8a2.009,2.009,0,0,0,1.54-3.06l-1.7-2.988a1.02,1.02,0,0,1,.9-.942l2.8,4.93A2.009,2.009,0,0,1,18.18,9H16l-.2-.11a2.027,2.027,0,0,0,.2-.88V8Z" style="fill:#cdd2e1"/><ellipse cx="42.258" cy="11.814" rx="0.825" ry="1.148" transform="translate(4.031 33.354) rotate(-45.02)" style="fill:#f6fafd"/><ellipse cx="42.311" cy="14.102" rx="0.413" ry="0.574" transform="translate(2.428 34.062) rotate(-45.02)" style="fill:#f6fafd"/><path d="M62,41a9.555,9.555,0,0,0-5.628-8.929,1,1,0,0,0-1.364,1.054c.147,1.171.306,4.845-.846,6.305a1.4,1.4,0,0,1-.685.5,7.35,7.35,0,0,0-1.531-.644c.029-.874.047-1.739.05-2.586A19.272,19.272,0,0,0,56,26a1,1,0,0,0-.2-.6,26.694,26.694,0,0,0-3.259-3.437C50.1,19.684,48,17.715,48,14a6.291,6.291,0,0,0-2.645-5.239.892.892,0,0,1-.254-.3A1.033,1.033,0,0,1,45,8.01V2.08A2.008,2.008,0,0,0,43.243.023a1.812,1.812,0,0,0-1.219.239L34.417,4.606A2.934,2.934,0,0,1,32.94,5H27.06a2.942,2.942,0,0,1-1.484-.4L18,.276A1.75,1.75,0,0,0,16.838.013,2.029,2.029,0,0,0,15,2.08V8.01a1.015,1.015,0,0,1-.1.433.924.924,0,0,1-.274.329A6.28,6.28,0,0,0,12,14c0,3.715-2.1,5.684-4.541,7.963A26.694,26.694,0,0,0,4.2,25.4,1,1,0,0,0,4,26,19.271,19.271,0,0,0,8.005,36.7,75.048,75.048,0,0,0,9.438,51.917L7.4,49.2A3,3,0,0,0,2,51V61a3,3,0,0,0,3,3H23a2.977,2.977,0,0,0,2.819-2h8.353A2.988,2.988,0,0,0,37,64h5a4.921,4.921,0,0,0,1.7-.3A3.024,3.024,0,0,0,45,64h8c3.42,0,6-5.589,6-13,0-.518-.03-1-.073-1.466C59.822,48.733,62,46.245,62,41Zm-6.269-.331c1.2-1.517,1.409-4.048,1.386-5.824A7.565,7.565,0,0,1,60,41a10.631,10.631,0,0,1-1.522,6.007A12.2,12.2,0,0,0,55.2,41.212,3.65,3.65,0,0,0,55.731,40.669ZM41.82,8a.782.782,0,0,1-.667-.423,1.151,1.151,0,0,1,0-1.143L43,3.175V8ZM18.852,6.436a1.15,1.15,0,0,1,0,1.141A.782.782,0,0,1,18.18,8H17V3.175ZM8.825,23.423C11.369,21.043,14,18.583,14,14a4.272,4.272,0,0,1,1.875-3.662A2.908,2.908,0,0,0,16.221,10H18.18a2.766,2.766,0,0,0,2.4-1.419,3.155,3.155,0,0,0,.013-3.135L19.422,3.391l5.155,2.943A4.929,4.929,0,0,0,27.06,7h5.88a4.921,4.921,0,0,0,2.476-.662L40.578,3.39,39.412,5.444a3.153,3.153,0,0,0,.011,3.137A2.766,2.766,0,0,0,41.82,10h1.957a2.8,2.8,0,0,0,.335.328A4.282,4.282,0,0,1,46,14c0,4.583,2.631,7.043,5.175,9.423.513.48,1.033.969,1.534,1.477-4.8-.444-6.53-2.3-8.074-3.972C43.3,19.489,41.922,18,39,18c-5.682,0-8.1,6.682-8.769,9h-.462C29.1,24.682,26.682,18,21,18c-2.922,0-4.3,1.489-5.635,2.928C13.821,22.6,12.1,24.456,7.291,24.9,7.792,24.392,8.312,23.9,8.825,23.423ZM30,30.329,29,29h2ZM4,61V51a1,1,0,0,1,1-1,1.014,1.014,0,0,1,.8.4l2.4,3.2A1,1,0,0,0,9,54h.941c.974,3.62,2.3,6.324,3.886,8H5A1,1,0,0,1,4,61Zm33,1a.985.985,0,0,1-1-1V43.61H34V60H26V43.61H24V61.06A.973.973,0,0,1,23,62H18c-2.566,0-4.869-3.368-6.32-9.243a65.229,65.229,0,0,1-1.642-13.851A7.409,7.409,0,0,0,14.78,41V39c-1.466,0-3.195-1.094-4.78-3v0h0c-.071-.086-.144-.163-.215-.252a17.9,17.9,0,0,1-3.717-8.772c6.631-.239,8.918-2.693,10.767-4.688C18.108,20.91,18.952,20,21,20c4.155,0,6.178,5.353,6.8,7.418a1.973,1.973,0,0,0-.587.683,1.994,1.994,0,0,0,.184,2.1l1,1.324a2.022,2.022,0,0,0,.6.531v1.409l-2.555,1.7,1.11,1.664L30,35.2l2.445,1.63,1.11-1.664L31,33.465V32.056a1.96,1.96,0,0,0,.6-.525l1-1.335a1.965,1.965,0,0,0-.407-2.778C32.822,25.353,34.845,20,39,20c2.048,0,2.892.91,4.168,2.288,1.849,2,4.136,4.449,10.767,4.688a17.893,17.893,0,0,1-3.718,8.772c-.07.089-.143.166-.214.252h0v0c-1.585,1.9-3.313,3-4.78,3v2a7.4,7.4,0,0,0,4.737-2.089c-.012.377-.021.752-.037,1.132A68.61,68.61,0,0,1,48.756,50.8L47.4,49.2A3,3,0,0,0,42,51V61a2.991,2.991,0,0,0,.183.979c-.061,0-.121.021-.183.021Zm16,0H45a1.017,1.017,0,0,1-.611-.206A1,1,0,0,1,44,61V51a1,1,0,0,1,1-1,1.052,1.052,0,0,1,.837.446l2.632,3.11a.777.777,0,0,0,.069.091l1.7,2,1.524-1.294-1.377-1.621a64.706,64.706,0,0,0,1.476-11.367,5.82,5.82,0,0,1,.919.463c.076.047.145.11.22.161V42h.014a10.226,10.226,0,0,1,3.866,7.16A13.273,13.273,0,0,1,57,51C57,57.3,54.888,62,53,62Z"/><path d="M38.623,24a2.477,2.477,0,0,0-1.788.848A2.606,2.606,0,0,0,36,26.623a1.359,1.359,0,0,0,.387.96,1.381,1.381,0,0,0,.988.415H37.4a2.623,2.623,0,0,0,1.748-.833l.015-.015A2.606,2.606,0,0,0,40,25.377a1.359,1.359,0,0,0-.387-.96A1.381,1.381,0,0,0,38.623,24Z"/><path d="M21.377,24a1.359,1.359,0,0,0-.96.387,1.381,1.381,0,0,0-.415.988,2.606,2.606,0,0,0,.833,1.773l.015.015A2.623,2.623,0,0,0,22.6,28h.025a1.359,1.359,0,0,0,.96-.387A1.381,1.381,0,0,0,24,26.623a2.624,2.624,0,0,0-.848-1.788A2.5,2.5,0,0,0,21.377,24Z"/></svg>
