<?xml version="1.0"?>
<svg xmlns="http://www.w3.org/2000/svg" viewBox="0 0 64 64" width="512" height="512"><g id="_25-raccoon" data-name="25-raccoon"><path d="M34,22.91a.818.818,0,0,1-.2.53l-1,1.2a1.069,1.069,0,0,1-1.6,0l-1-1.2a.818.818,0,0,1-.2-.53A.955.955,0,0,1,31,22h2A.955.955,0,0,1,34,22.91Z" style="fill:#333940"/><path d="M19,7l-2,5a17.473,17.473,0,0,1-4-9.12,1.755,1.755,0,0,1,1.11-1.77C17.03,4.03,18.01,5.03,19,7Z" style="fill:#9196aa"/><path d="M49.89,1.11A1.755,1.755,0,0,1,51,2.88,17.473,17.473,0,0,1,47,12L45,7C45.99,5.03,46.97,4.03,49.89,1.11Z" style="fill:#9196aa"/><path d="M7,50c0,7.8,5.31,12.34,9.16,12.93C9.25,62.45,1,59.17,1,50c0-9.95,7.36-12.53,13.2-12.94C10.58,37.65,7,42.19,7,50Z" style="fill:#dce1eb"/><path d="M27,63H21c-3.87,0-9-5.26-9-13,0-5.64,3.17-11.24,5.88-12.92a19.165,19.165,0,0,1,4.17.77L22,38c-1.56,2.42-4,7.32-4,12C18,59.21,23.13,63,27,63Z" style="fill:#dce1eb"/><path d="M40.61,62.99c-.2.01-.4.01-.61.01H33c-3.87,0-9-3.79-9-13,0-3.58,1.58-7.28,2.95-9.9A36.724,36.724,0,0,1,33,45c-2,1-3,5.97-3,8C30,59.77,36.67,62.8,40.61,62.99Z" style="fill:#dce1eb"/><path d="M54,47c1,0,3-.42,3,4,0,3.19-3.82,8.93-10.96,11.12L46,62c-3,0-9-.95-9-5,0-2.76,1.34-5,3-5l.09-.11A8.731,8.731,0,0,0,46,54C51,54,54,50.32,54,47Z" style="fill:#dce1eb"/><path d="M21,63H18c-.6,0-1.21-.02-1.84-.07C12.31,62.34,7,57.8,7,50s3.58-12.35,7.2-12.94h.04c.61-.04,1.2-.06,1.76-.06.65,0,1.27.03,1.88.08C15.17,38.76,12,44.36,12,50,12,57.74,17.13,63,21,63Z" style="fill:#414952"/><path d="M33,63H27c-3.87,0-9-3.79-9-13,0-4.68,2.44-9.58,4-12l.05-.15a20.03,20.03,0,0,1,4.9,2.25C25.58,42.72,24,46.42,24,50,24,59.21,29.13,63,33,63Z" style="fill:#414952"/><path d="M36,47.98c.65.66,1.32,1.34,2,2.02a23.786,23.786,0,0,0,2.09,1.89L40,52c-1.66,0-3,2.24-3,5,0,4.05,6,5,9,5l.04.12a20.153,20.153,0,0,1-5.41.87h-.02C36.67,62.8,30,59.77,30,53c0-2.03,1-7,3-8C33.98,45.94,34.98,46.95,36,47.98Z" style="fill:#414952"/><path d="M32,25a1.036,1.036,0,0,0,.8-.36l1-1.2a.818.818,0,0,0,.2-.53V9.87A4.012,4.012,0,0,1,35.44,6.8l4.3-3.58c.64.24,1.19.47,1.61.65l7.48-2.79a1.537,1.537,0,0,1,1.06.03C46.97,4.03,45.99,5.03,45,7l2,5a12.549,12.549,0,0,0,7,6s-2,5-4,5a4.38,4.38,0,0,0,3,1s-.61,5.52-10.02,7.92A40.66,40.66,0,0,1,33,33H31a40.66,40.66,0,0,1-9.98-1.08C11.61,29.52,11,24,11,24a4.38,4.38,0,0,0,3-1c-2,0-4-5-4-5a12.549,12.549,0,0,0,7-6l2-5c-.99-1.97-1.97-2.97-4.89-5.89a1.537,1.537,0,0,1,1.06-.03l7.48,2.79c.42-.18.97-.41,1.61-.65l4.3,3.58A4.012,4.012,0,0,1,30,9.87V22.91a.818.818,0,0,0,.2.53l1,1.2A1.036,1.036,0,0,0,32,25Zm13.83-.37c2.75-3.15.15-4.72-2.71-7.54s-5.89-3.9-7.42-2.45c-1.55,1.46-.42,4.63,2.44,7.44S43.08,27.78,45.83,24.63ZM25.86,22.08c2.86-2.81,3.99-5.98,2.44-7.44-1.53-1.45-4.56-.36-7.42,2.45s-5.46,4.39-2.71,7.54S23,24.9,25.86,22.08Z" style="fill:#dce1eb"/><path d="M36,47.98c-1.02-1.03-2.02-2.04-3-2.98a36.724,36.724,0,0,0-6.05-4.9,20.03,20.03,0,0,0-4.9-2.25,19.165,19.165,0,0,0-4.17-.77C17.27,37.03,16.65,37,16,37a5,5,0,0,1,5-5l.02-.08A40.66,40.66,0,0,0,31,33h2a40.66,40.66,0,0,0,9.98-1.08L43,32c4.66,0,9.89,6.37,11,15,0,3.32-3,7-8,7a8.731,8.731,0,0,1-5.91-2.11A23.786,23.786,0,0,1,38,50C37.32,49.32,36.65,48.64,36,47.98Z" style="fill:#bec3d2"/><path d="M43.12,17.09c2.86,2.82,5.46,4.39,2.71,7.54s-4.83.27-7.69-2.55-3.99-5.98-2.44-7.44C37.23,13.19,40.26,14.28,43.12,17.09Z" style="fill:#414952"/><path d="M39.74,3.22,35.44,6.8A4.012,4.012,0,0,0,34,9.87V22.91A.955.955,0,0,0,33,22H31a.955.955,0,0,0-1,.91V9.87A4.012,4.012,0,0,0,28.56,6.8l-4.3-3.58A16.762,16.762,0,0,1,30,2h4A16.762,16.762,0,0,1,39.74,3.22Z" style="fill:#414952"/><path d="M28.3,14.64c1.55,1.46.42,4.63-2.44,7.44s-4.94,5.7-7.69,2.55-.15-4.72,2.71-7.54S26.77,13.19,28.3,14.64Z" style="fill:#414952"/><path d="M40,38H38a2,2,0,0,0-2,2v7.98c.65.66,1.32,1.34,2,2.02a23.786,23.786,0,0,0,2.09,1.89A11.047,11.047,0,0,0,42,53.118V40A2,2,0,0,0,40,38Z" style="fill:#dce1eb"/><path d="M48.872,2.131A17.537,17.537,0,0,0,45,7l1.3,3.259A17.353,17.353,0,0,0,49,2.88,1.813,1.813,0,0,0,48.872,2.131Z" style="fill:#636978"/><path d="M15.131,2.131A17.537,17.537,0,0,1,19,7l-1.3,3.259A17.339,17.339,0,0,1,15,2.88,1.781,1.781,0,0,1,15.131,2.131Z" style="fill:#636978"/><path d="M14.2,37.06c-4.928.346-10.921,2.256-12.678,8.817A15.161,15.161,0,0,1,8.07,43.309C9.4,39.609,11.788,37.453,14.2,37.06Z" style="fill:#e9edf5"/><path d="M13.47,43.062c.134.009.277.007.41.018a19.165,19.165,0,0,1,4.17.77c.34.1.669.22,1,.339A28.683,28.683,0,0,1,22,38l.05-.15a19.165,19.165,0,0,0-4.17-.77A13.324,13.324,0,0,0,13.47,43.062Z" style="fill:#e9edf5"/><path d="M29,51c.348.334.7.686,1.056,1.035C30.289,49.7,31.269,45.865,33,45a36.724,36.724,0,0,0-6.05-4.9,27.483,27.483,0,0,0-2.617,6.931A41.774,41.774,0,0,1,29,51Z" style="fill:#e9edf5"/><path d="M37,57a3.789,3.789,0,0,0,.049.52A7.414,7.414,0,0,0,39,58a19.569,19.569,0,0,0,10-1c5-2,7-6,7-9v-.551A2.756,2.756,0,0,0,54,47c0,3.32-3,7-8,7a8.731,8.731,0,0,1-5.91-2.11L40,52C38.34,52,37,54.24,37,57Z" style="fill:#e9edf5"/><path d="M8.07,43.309c.721-.118,1.437-.2,2.13-.249h.04c.61-.04,1.2-.06,1.76-.06.508,0,.989.031,1.47.062a13.324,13.324,0,0,1,4.41-5.982C17.27,37.03,16.65,37,16,37c-.56,0-1.15.02-1.76.06H14.2C11.788,37.453,9.4,39.609,8.07,43.309Z" style="fill:#636978"/><path d="M19.048,44.189a20.519,20.519,0,0,1,3.9,1.911c.47.291.928.606,1.383.931A27.483,27.483,0,0,1,26.95,40.1a20.03,20.03,0,0,0-4.9-2.25L22,38A28.683,28.683,0,0,0,19.048,44.189Z" style="fill:#636978"/><path d="M30.056,52.035q.961.951,1.944,1.945c.65.66.32.34,1,1.02a10.784,10.784,0,0,0,4.049,2.52A3.789,3.789,0,0,1,37,57c0-2.76,1.34-5,3-5l.09-.11A23.786,23.786,0,0,1,38,50c-.68-.68-1.35-1.36-2-2.02-1.02-1.03-2.02-2.04-3-2.98C31.269,45.865,30.289,49.7,30.056,52.035Z" style="fill:#636978"/><path d="M45.83,24.63c-2.75,3.15-4.83.27-7.69-2.55a11.664,11.664,0,0,1-2.787-4c-.978,1.594.185,4.443,2.787,7,2.86,2.82,4.94,5.7,7.69,2.55,1.405-1.609,1.409-2.806.7-3.968A6.162,6.162,0,0,1,45.83,24.63Z" style="fill:#bec3d2"/><path d="M18.17,24.63a6.162,6.162,0,0,1-.7-.968c-.709,1.162-.7,2.359.7,3.968,2.75,3.15,4.83.27,7.69-2.55,2.6-2.557,3.765-5.406,2.787-7a11.664,11.664,0,0,1-2.787,4C23,24.9,20.92,27.78,18.17,24.63Z" style="fill:#bec3d2"/><path d="M40,38H38a2,2,0,0,1,2,2V51.814c.029.023.061.053.09.076A11.047,11.047,0,0,0,42,53.118V40A2,2,0,0,0,40,38Z" style="fill:#e9edf5"/><path d="M36,47.98V40a1.987,1.987,0,0,1,.277-1H36a2,2,0,0,0-2,2v4.981C34.659,46.632,35.323,47.3,36,47.98Z" style="fill:#9196aa"/><path d="M43,32l-.02-.08a31.451,31.451,0,0,1-3.211.632c7.009,2.045,11.766,9.732,12.183,19.11A6.72,6.72,0,0,0,54,47C52.89,38.37,47.66,32,43,32Z" style="fill:#e9edf5"/><path d="M45,52a9.059,9.059,0,0,1-3-.456v1.574A8.544,8.544,0,0,0,46,54a8.246,8.246,0,0,0,5.952-2.338c-.043-.969-.143-1.915-.277-2.843A8.085,8.085,0,0,1,45,52Z" style="fill:#9196aa"/><path d="M31,36h2a40.66,40.66,0,0,0,9.98-1.08,21.467,21.467,0,0,0,4.036-1.446A7.01,7.01,0,0,0,43,32l-.02-.08A40.66,40.66,0,0,1,33,33H31a40.66,40.66,0,0,1-9.98-1.08L21,32a4.971,4.971,0,0,0-3.673,1.632A21.778,21.778,0,0,0,21.02,34.92,40.66,40.66,0,0,0,31,36Z" style="fill:#9196aa"/><path d="M13.818,24.581a3.352,3.352,0,0,0,2.455-.936c-1.637,0-2.273-5.677-2.273-5.677,2.34-1.076,4.582-1.825,5.727-4.613l.741-2.118a11.325,11.325,0,0,1,2.726-4.354l1.159-1.135c.343-.168.792-.383,1.314-.607.188-.081.4-.161.609-.243L24.26,3.22c-.64.24-1.19.47-1.61.65L15.17,1.08a1.537,1.537,0,0,0-1.06.03C17.03,4.03,18.01,5.03,19,7l-2,5a12.549,12.549,0,0,1-7,6s2,5,4,5a4.38,4.38,0,0,1-3,1s.61,5.52,10.02,7.92A40.66,40.66,0,0,0,31,33h.182a29.317,29.317,0,0,1-8.166-1.01C15.317,29.744,13.818,24.581,13.818,24.581Z" style="fill:#e9edf5"/><path d="M54,18a12.549,12.549,0,0,1-7-6L45,7c.99-1.97,1.97-2.97,4.89-5.89a1.537,1.537,0,0,0-1.06-.03L41.35,3.87c-.42-.18-.97-.41-1.61-.65L37.724,4.9c.206.082.421.162.609.243.522.224.971.439,1.314.607l1.159,1.135a11.325,11.325,0,0,1,2.726,4.354l.741,2.118c1.145,2.788,3.387,3.537,5.727,4.613,0,0-.636,5.677-2.273,5.677a3.352,3.352,0,0,0,2.455.936s-1.5,5.163-9.2,7.409A29.317,29.317,0,0,1,32.818,33H33a40.66,40.66,0,0,0,9.98-1.08C52.39,29.52,53,24,53,24a4.38,4.38,0,0,1-3-1C52,23,54,18,54,18Z" style="fill:#e9edf5"/><path d="M30.364,4h3.272a11.392,11.392,0,0,1,4.088.9L39.74,3.22A16.762,16.762,0,0,0,34,2H30a16.762,16.762,0,0,0-5.74,1.22L26.276,4.9A11.392,11.392,0,0,1,30.364,4Z" style="fill:#636978"/><ellipse cx="32.602" cy="22.16" rx="0.413" ry="0.574" transform="translate(-6.118 29.557) rotate(-45.02)" style="fill:#f6fafd"/><ellipse cx="47.258" cy="41.814" rx="0.825" ry="1.148" transform="translate(-15.724 45.685) rotate(-45.02)" style="fill:#f6fafd"/><ellipse cx="45.26" cy="38.8" rx="1.642" ry="2.286" transform="translate(-14.178 43.389) rotate(-45.02)" style="fill:#f6fafd"/><path d="M40.165,19.15A2.6,2.6,0,0,0,41,17.376a1.357,1.357,0,0,0-.387-.959A1.381,1.381,0,0,0,39.622,16a2.568,2.568,0,0,0-1.787.847A2.6,2.6,0,0,0,37,18.624a1.357,1.357,0,0,0,.387.959,1.381,1.381,0,0,0,.989.414H38.4a2.616,2.616,0,0,0,1.748-.834Z"/><path d="M23.85,19.164A2.616,2.616,0,0,0,25.6,20h.024a1.358,1.358,0,0,0,.96-.385A1.381,1.381,0,0,0,27,18.624a2.617,2.617,0,0,0-.848-1.788A2.473,2.473,0,0,0,24.378,16a1.358,1.358,0,0,0-.96.385,1.381,1.381,0,0,0-.416.988,2.6,2.6,0,0,0,.833,1.774Z"/><path d="M56.771,46.792A2.884,2.884,0,0,0,54.852,46c-1.07-6.568-4.51-12.076-8.516-14.128,7.016-2.844,7.633-7.538,7.658-7.763A1,1,0,0,0,53,23a4.578,4.578,0,0,1-.828-.073,14.629,14.629,0,0,0,2.757-4.556,1,1,0,0,0-.556-1.3A11.8,11.8,0,0,1,48.2,12.14a18.561,18.561,0,0,0,3.8-9.2A2.732,2.732,0,0,0,50.266.184,2.573,2.573,0,0,0,48.48.144l-7.106,2.65c-.367-.153-.8-.329-1.281-.51A17.386,17.386,0,0,0,34,1H30a17.4,17.4,0,0,0-6.092,1.283c-.482.182-.915.358-1.282.511L15.479.129A2.531,2.531,0,0,0,13.76.174,2.745,2.745,0,0,0,12,2.953a18.552,18.552,0,0,0,3.8,9.187,11.8,11.8,0,0,1-6.177,4.932,1,1,0,0,0-.556,1.3,14.641,14.641,0,0,0,2.757,4.556A4.578,4.578,0,0,1,11,23a1,1,0,0,0-.994,1.109c.025.226.656,4.98,7.805,7.818a6,6,0,0,0-2.726,4.1l-.085,0V36a5.912,5.912,0,0,0-.755.059h0l-.11,0C8.853,36.433,0,38.736,0,50c0,9.445,8.312,13.388,16.08,13.927.052,0,.106.005.158.009A5.857,5.857,0,0,0,17,64v-.019c.324.012.655.019,1,.019H40c.226,0,.442,0,.654-.01.115.006.234.01.346.01v-.03a21.167,21.167,0,0,0,5.333-.894C53.946,60.741,58,54.562,58,51,58,48.972,57.6,47.6,56.771,46.792ZM53,47.056C52.963,49.926,50.3,53,46,53a7.863,7.863,0,0,1-3-.53V38H41V51.319c-.1-.072-.194-.138-.293-.216a22.691,22.691,0,0,1-2-1.81c-.579-.579-1.149-1.157-1.707-1.723V38H35v7.561c-.439-.436-.875-.868-1.306-1.281a37.158,37.158,0,0,0-6.214-5.029,20.934,20.934,0,0,0-5.141-2.358,20.009,20.009,0,0,0-4.378-.81c-.287-.023-.555-.023-.834-.036A4,4,0,0,1,21,33v-.063A42.243,42.243,0,0,0,31,34h2a42.243,42.243,0,0,0,10-1.063V33C46.945,33,51.891,38.645,53,47.056ZM39.976,61.924C36.74,61.481,31,58.935,31,53c0-1.968.843-5.365,1.932-6.665q1.162,1.137,2.356,2.348l.183.185c.594.6,1.2,1.222,1.822,1.839.328.329.637.623.936.9A6.653,6.653,0,0,0,36,57C36,59.508,37.767,61.035,39.976,61.924ZM8,50c0-7.133,3.171-11.4,6.318-11.943.359-.023.694-.026,1.036-.035A19.522,19.522,0,0,0,11,50a15.758,15.758,0,0,0,4.991,11.872C12.652,61.156,8,57.051,8,50ZM47.276,10,46.1,7.055c.761-1.407,1.6-2.331,3.847-4.584A.8.8,0,0,1,50,2.807,16.419,16.419,0,0,1,47.276,10ZM34,3a13.375,13.375,0,0,1,3.717.6L34.8,6.032A4.99,4.99,0,0,0,33,9.87V21H31V9.87a4.991,4.991,0,0,0-1.8-3.839L26.283,3.6A13.375,13.375,0,0,1,30,3ZM31.135,23l1.716,0L31.968,24ZM14,2.82a.8.8,0,0,1,.059-.347C16.3,4.724,17.14,5.647,17.9,7.055L16.724,10A16.406,16.406,0,0,1,14,2.82ZM12.3,24.873a4.869,4.869,0,0,0,2.409-1.166A1,1,0,0,0,14,22c-.6,0-1.78-1.569-2.682-3.479a12.865,12.865,0,0,0,6.587-6.1.536.536,0,0,0,.017-.057l.007,0,2-5a1,1,0,0,0-.035-.82,14.272,14.272,0,0,0-2.587-3.607L22.3,4.807a.99.99,0,0,0,.743-.018c.283-.121.643-.269,1.034-.423l3.842,3.2A3,3,0,0,1,29,9.87v4.059l-.013-.015c-1.945-1.845-5.4-.88-8.809,2.464-.372.367-.74.712-1.091,1.042-2.306,2.167-4.691,4.408-1.67,7.868A4.253,4.253,0,0,0,20.482,27l.1,0c1.844,0,3.334-1.52,5.053-3.274.3-.307.611-.623.929-.936A14.142,14.142,0,0,0,29,19.675V23h.016a1.826,1.826,0,0,0,.416,1.082l1,1.2a1.944,1.944,0,0,0,.569.456v.73l-2.555,1.7,1.11,1.664L32,28.2l2.445,1.63,1.11-1.664L33,26.465v-.73a1.966,1.966,0,0,0,.568-.455l1.005-1.206A1.817,1.817,0,0,0,35,22.91V19.675a14.131,14.131,0,0,0,2.438,3.117c.319.314.628.63.93.937C40.087,25.483,41.577,27,43.421,27l.1,0a4.253,4.253,0,0,0,3.065-1.713c3.021-3.46.636-5.7-1.67-7.868-.351-.33-.719-.675-1.092-1.044-3.4-3.341-6.862-4.309-8.806-2.464L35,13.929V9.87a2.994,2.994,0,0,1,1.08-2.3l3.844-3.2c.39.154.75.3,1.033.423a.99.99,0,0,0,.743.018l4.993-1.863a14.247,14.247,0,0,0-2.587,3.607,1,1,0,0,0-.035.82l2,5,.007,0a.536.536,0,0,0,.017.057,12.865,12.865,0,0,0,6.587,6.1C51.78,20.431,50.6,22,50,22a1,1,0,0,0-.707,1.707A4.868,4.868,0,0,0,51.7,24.873c-.665,1.534-2.725,4.485-8.967,6.078A39.942,39.942,0,0,1,33,32H31a39.942,39.942,0,0,1-9.733-1.049C15.017,29.356,12.96,26.409,12.3,24.873Zm8.159-6c.362-.341.741-.7,1.124-1.074,1.8-1.769,3.7-2.8,4.981-2.8a1.482,1.482,0,0,1,1.052.364A1.326,1.326,0,0,1,28,16.375c.014,1.345-1.073,3.258-2.839,4.993-.327.322-.644.646-.953.961C22.857,23.7,21.583,25,20.573,25H20.54a2.44,2.44,0,0,1-1.617-1.029h0C17.245,22.051,17.906,21.274,20.457,18.878ZM36,16.375a1.327,1.327,0,0,1,.385-1.01A1.477,1.477,0,0,1,37.438,15c1.276,0,3.18,1.032,4.98,2.8.384.379.763.735,1.125,1.076,2.551,2.4,3.212,3.173,1.534,5.094h0A2.44,2.44,0,0,1,43.46,25h-.033c-1.01,0-2.284-1.3-3.632-2.674-.309-.315-.626-.639-.954-.962C37.076,19.633,35.989,17.72,36,16.375ZM2,50c0-6.513,3.378-9.594,7.315-10.977C7.394,41.342,6,44.993,6,50a14.844,14.844,0,0,0,4.155,10.693C6.18,59.277,2,56.292,2,50ZM21,62c-3.262,0-8-4.675-8-12,0-5.362,2.914-10.233,5.128-11.882a18.2,18.2,0,0,1,2.4.389C19.3,40.648,17,45.281,17,50c0,6.147,2.145,9.936,4.727,12Zm6,0c-3.216,0-8-3.195-8-12,0-4.623,2.492-9.235,3.517-10.937a18.932,18.932,0,0,1,3.122,1.428A22.135,22.135,0,0,0,23,50c0,6.147,2.145,9.936,4.727,12ZM25,50a20.037,20.037,0,0,1,2.339-8.45,35.752,35.752,0,0,1,4.159,3.4C29.642,47.041,29,51.442,29,53a11.229,11.229,0,0,0,5.142,9H33C29.784,62,25,58.805,25,50ZM46,61.076V61c-2.225,0-8-.719-8-4,0-2.234,1.005-3.906,1.932-3.985A9.569,9.569,0,0,0,46,55c5.072,0,8.381-3.458,8.922-6.986a.8.8,0,0,1,.456.214c.232.225.622.884.622,2.772C56,53.83,52.438,58.994,46,61.076Z"/></g></svg>
