<?xml version="1.0"?>
<svg xmlns="http://www.w3.org/2000/svg" viewBox="0 0 64 64" width="512" height="512"><g id="_04-cat" data-name="04-cat"><path d="M11.95,25.51A1.968,1.968,0,0,1,10.2,28H7l2.51-6.06a2.576,2.576,0,0,1,1.52-1.75Z" style="fill:#ff8fa3"/><path d="M28.49,21.94,31,28H27.8a1.968,1.968,0,0,1-1.75-2.49l.92-5.32A2.576,2.576,0,0,1,28.49,21.94Z" style="fill:#ff8fa3"/><path d="M20.8,43.6A1,1,0,0,0,20,42H18a1,1,0,0,0-.8,1.6l1,1.33a.993.993,0,0,0,1.6,0ZM37,39c0,.34-.01.67-.02,1l-.02.22L35,40a7,7,0,0,0-5,11.9C27.32,53.23,23.73,54,19,54c-6.69,0-11.1-1.54-13.88-4.06A11.25,11.25,0,0,1,2.29,46,15.112,15.112,0,0,1,1.2,42.03v-.01A21.18,21.18,0,0,1,1,39c0-.33.01-.67.02-1a13.07,13.07,0,0,1,1.1-4.88A11.856,11.856,0,0,1,7,28h3.2a1.968,1.968,0,0,0,1.75-2.49l-.92-5.32A2.619,2.619,0,0,1,12,20c2,0,2.71.86,3,2l2,5h4l2-5c.29-1.14,1-2,3-2a2.619,2.619,0,0,1,.97.19l-.92,5.32A1.968,1.968,0,0,0,27.8,28H31C36,31,37,35,37,39Z" style="fill:#636978"/><path d="M36.96,40.22l.02-.22c.01-.33.02-.66.02-1,0-4-1-8-6-11l-2.51-6.06a2.576,2.576,0,0,0-1.52-1.75A2.619,2.619,0,0,0,26,20c-2,0-2.71.86-3,2l-2,5H17l-2-5c-.29-1.14-1-2-3-2a2.619,2.619,0,0,0-.97.19,2.576,2.576,0,0,0-1.52,1.75L7,28a11.856,11.856,0,0,0-4.88,5.12A13.07,13.07,0,0,0,1.02,38H1V36A26,26,0,0,1,27,10H37A26.016,26.016,0,0,1,63,36,18,18,0,0,1,45,54H35a6.958,6.958,0,0,1-4.95-2.05L30,51.9A7,7,0,0,1,35,40Z" style="fill:#636978"/><path d="M18,42h2a1,1,0,0,1,.8,1.6l-1,1.33a.993.993,0,0,1-1.6,0l-1-1.33A1,1,0,0,1,18,42Z" style="fill:#ff6b86"/><path d="M55.38,17.62A25.882,25.882,0,0,0,37,10H27A26,26,0,0,0,1,36v2h.02a13.07,13.07,0,0,1,1.1-4.88A10.826,10.826,0,0,1,4.8,29.605C7.6,21.107,14.462,12,31,12c31,0,27,23,27,23,0,4.42-2,7-5,7L36.96,40.22,35,40a7,7,0,0,0-5,11.9l.05.05A6.958,6.958,0,0,0,35,54H45A18,18,0,0,0,63,36,25.882,25.882,0,0,0,55.38,17.62Z" style="fill:#707789"/><path d="M28,47a6.977,6.977,0,0,1,2.091-4.99L30,42a6.995,6.995,0,0,0-5.316,11.547A19.338,19.338,0,0,0,30,51.9,6.941,6.941,0,0,1,28,47Z" style="fill:#555a66"/><path d="M35,44l1.96.22L53,46c3,0,5-2.58,5-7a18.973,18.973,0,0,0,.07-4.539C58.033,34.806,58,35,58,35c0,4.42-2,7-5,7L36.96,40.22,35,40a7,7,0,0,0-6.708,9.006A6.993,6.993,0,0,1,35,44Z" style="fill:#7e8596"/><path d="M31,28H29c4.167,3,5,7,5,11,0,.366-.015.724-.028,1.084A6.966,6.966,0,0,1,35,40l1.96.22.02-.22c.01-.33.02-.66.02-1C37,35,36,31,31,28Z" style="fill:#7e8596"/><path d="M3,39A13.376,13.376,0,0,1,9,28H7a11.856,11.856,0,0,0-4.88,5.12A13.07,13.07,0,0,0,1.02,38c-.01.33-.02.67-.02,1a21.18,21.18,0,0,0,.2,3.02v.01A15.112,15.112,0,0,0,2.29,46a11.25,11.25,0,0,0,2.83,3.94C7.9,52.46,12.31,54,19,54,7.333,54,3,47.284,3,39Z" style="fill:#7e8596"/><path d="M15.764,21H14.545A2.861,2.861,0,0,1,15,22l2,5h3l-2.447-4.894A2,2,0,0,0,15.764,21Z" style="fill:#555a66"/><path d="M33,27l-2.447-4.894A2,2,0,0,0,28.764,21h-.748a2.615,2.615,0,0,1,.474.94L31,28c5,3,6,7,6,11,0,.34-.01.67-.02,1l-.02.22L43,40.89C42.959,33.2,39.051,27,33,27Z" style="fill:#555a66"/><path d="M12,22c2,0,2.715.86,3,2l.678,3.392A2,2,0,0,0,17.64,29h2.72a2,2,0,0,0,1.962-1.608L23,24c.285-1.14,1-2,3-2a2.524,2.524,0,0,1,.641.091l.328-1.893A2.542,2.542,0,0,0,26,20c-2,0-2.715.86-3,2l-2,5H17l-2-5c-.285-1.14-1-2-3-2a2.542,2.542,0,0,0-.969.2l.328,1.893A2.524,2.524,0,0,1,12,22Z" style="fill:#7e8596"/><path d="M11.03,20.19a2.519,2.519,0,0,0-.743.488l.663,3.832A1.968,1.968,0,0,1,9.2,27H7.414L7,28h3.2a1.968,1.968,0,0,0,1.75-2.49Z" style="fill:#ff6b86"/><path d="M28.8,27a1.968,1.968,0,0,1-1.75-2.49l.663-3.832a2.519,2.519,0,0,0-.743-.488l-.92,5.32A1.968,1.968,0,0,0,27.8,28H31l-.414-1Z" style="fill:#ff6b86"/><ellipse cx="36.258" cy="42.814" rx="0.825" ry="1.148" transform="translate(-19.656 38.197) rotate(-45.02)" style="fill:#f6fafd"/><ellipse cx="39.004" cy="43.314" rx="0.413" ry="0.574" transform="translate(-19.205 40.286) rotate(-45.02)" style="fill:#f6fafd"/><path d="M56.088,16.914A26.788,26.788,0,0,0,37,9H27A27.03,27.03,0,0,0,0,36v2H.019C.01,38.331,0,38.67,0,39a21.875,21.875,0,0,0,.211,3.164l.011,0v.007H.21A16.171,16.171,0,0,0,1.375,46.4a12.271,12.271,0,0,0,3.073,4.279C7.61,53.547,12.506,55,19,55a26.772,26.772,0,0,0,10.809-1.92A7.941,7.941,0,0,0,35,55H45A19.021,19.021,0,0,0,64,36,26.783,26.783,0,0,0,56.088,16.914ZM6.982,50.127,9.447,48.9l-.894-1.79-3.239,1.62A10.083,10.083,0,0,1,3.96,47H9V45H2.971a13.546,13.546,0,0,1-.536-1.809l6.442.8.246-1.984-7.01-.872A20.828,20.828,0,0,1,2,39c0-.32.01-.65.019-.952a12.034,12.034,0,0,1,1.006-4.5A10.763,10.763,0,0,1,7.292,29H10.2a2.719,2.719,0,0,0,2.122-1.041,3.163,3.163,0,0,0,.614-2.62l-.749-4.33c1.407.048,1.684.609,1.844,1.238.011.042.025.084.04.125l2,5A1,1,0,0,0,17,28h4a1,1,0,0,0,.929-.628l2-5c.015-.041.029-.083.04-.125.16-.628.437-1.189,1.843-1.238l-.739,4.285a3.189,3.189,0,0,0,.605,2.665A2.719,2.719,0,0,0,27.8,29h2.906C35.356,31.9,36,35.675,36,39c0,.036,0,.069,0,.1l-.887-.1A1.032,1.032,0,0,0,35,39a8.009,8.009,0,0,0-8,8,7.912,7.912,0,0,0,1.4,4.511A25.915,25.915,0,0,1,19,53C13.81,53,9.781,52.034,6.982,50.127ZM10.4,22.4l.574,3.322a1.171,1.171,0,0,1-.211.981A.736.736,0,0,1,10.2,27H8.5ZM27.035,25.68l.566-3.274L29.5,27H27.8a.736.736,0,0,1-.563-.294A1.2,1.2,0,0,1,27.035,25.68ZM45,53H35a6,6,0,0,1-.054-12L52.89,42.994A1.014,1.014,0,0,0,53,43c3.645,0,6-3.14,6-8H57c0,3.731-1.475,5.969-3.947,6L37.994,39.327c0-.11.006-.216.006-.327,0-3.646-.713-8.251-6.2-11.683l-2.362-5.7A3.567,3.567,0,0,0,26,19c-2.143,0-3.472.9-3.951,2.686L20.323,26H17.677l-1.726-4.314C15.472,19.9,14.143,19,12,19a3.564,3.564,0,0,0-3.438,2.616L6.2,27.317a13.934,13.934,0,0,0-3.563,3.1A25.037,25.037,0,0,1,27,11H37A25.016,25.016,0,0,1,62,36,17.019,17.019,0,0,1,45,53Z"/><path d="M20.6,45.531l1-1.335A2,2,0,0,0,20,41H18a2,2,0,0,0-1.6,3.2l1,1.324a2.084,2.084,0,0,0,.2.211l-2.149,1.432,1.11,1.664L19,47.2l2.445,1.63,1.11-1.664-2.148-1.432A2.077,2.077,0,0,0,20.6,45.531ZM20,43l-1,1.33-1-1.329Z"/><path d="M29,38c-2.8,0-5,1.757-5,4h2c0-1.084,1.374-2,3-2Z"/><path d="M9,38v2c1.626,0,3,.916,3,2h2C14,39.757,11.8,38,9,38Z"/></g></svg>
