<?xml version="1.0"?>
<svg xmlns="http://www.w3.org/2000/svg" viewBox="0 0 64 64" width="512" height="512"><g id="_15-penguin" data-name="15-penguin"><path d="M30.03,17H34a.9.9,0,0,1,.77,1.48L32.8,20.66a1.117,1.117,0,0,1-1.6,0l-1.97-2.18A.9.9,0,0,1,30,17Z" style="fill:#f5cd62"/><path d="M26,57a4,4,0,0,1,4,4,2.015,2.015,0,0,1-2,2H22a2.006,2.006,0,0,1-2-2,3.995,3.995,0,0,1,4-4Z" style="fill:#333940"/><path d="M44,61a2.015,2.015,0,0,1-2,2H36a2.006,2.006,0,0,1-2-2,3.995,3.995,0,0,1,4-4h2A4,4,0,0,1,44,61Z" style="fill:#333940"/><path d="M44,61a4,4,0,0,0-4-4H38a3.995,3.995,0,0,0-4,4l-.59-.59a1.992,1.992,0,0,0-2.82,0L30,61a4,4,0,0,0-4-4H24a3.995,3.995,0,0,0-4,4,2.006,2.006,0,0,0,2,2H18.04a8.128,8.128,0,0,1-1.97-.23l-.33-.09a.142.142,0,0,0-.06-.02c-8.19-2.58-5.52-19.02-4.13-22.52a.986.986,0,0,1,1.49-.44l.99.7a7.893,7.893,0,0,0,11.81-3.35l1.83-4.21a4.018,4.018,0,0,0-1.19-4.75L15.01,19l-.07-.01A10.883,10.883,0,0,0,15,17.85V12c0-2.76,3.13-5,7-5,7,0,8,7,8,10a.9.9,0,0,0-.77,1.48l1.97,2.18a1.117,1.117,0,0,0,1.6,0l1.97-2.18A.9.9,0,0,0,34,17c0-3,1-10,8-10,3.87,0,7,2.24,7,5v5.85a10.883,10.883,0,0,0,.06,1.14l-.07.01L37.52,28.09a4.018,4.018,0,0,0-1.19,4.75l1.83,4.21A7.893,7.893,0,0,0,49.97,40.4l.99-.7a.986.986,0,0,1,1.49.44c1.39,3.5,4.06,19.94-4.13,22.52a.142.142,0,0,0-.06.02l-.33.09a8.128,8.128,0,0,1-1.97.23H42a2.015,2.015,0,0,0,2-2Z" style="fill:#f7faff"/><path d="M49,12c0-2.76-3.13-5-7-5-7,0-8,7-8,10H30c0-3-1-10-8-10-3.87,0-7,2.24-7,5C15,6.48,22,1,32,1S49,6.48,49,12Z" style="fill:#333940"/><path d="M15.01,19l11.47,9.09a4.018,4.018,0,0,1,1.19,4.75l-1.83,4.21A7.893,7.893,0,0,1,14.03,40.4l-.99-.7a.986.986,0,0,0-1.49.44c-1.39,3.5-4.06,19.94,4.13,22.52C9.24,60.83,5,56.91,5,50V49c0-2.82,1-5,3-10,2.61-6.52,4.91-13.45,6.22-16.91a11.753,11.753,0,0,0,.72-3.1Z" style="fill:#414952"/><path d="M49.78,22.09C51.09,25.55,53.39,32.48,56,39c2,5,3,7.18,3,10v1c0,6.91-4.24,10.83-10.68,12.66,8.19-2.58,5.52-19.02,4.13-22.52a.986.986,0,0,0-1.49-.44l-.99.7a7.893,7.893,0,0,1-11.81-3.35l-1.83-4.21a4.018,4.018,0,0,1,1.19-4.75L48.99,19l.07-.01A11.753,11.753,0,0,0,49.78,22.09Z" style="fill:#414952"/><path d="M34.77,17.48,32.8,19.66a1.117,1.117,0,0,1-1.6,0l-1.97-2.18a.766.766,0,0,1-.046-.07.821.821,0,0,0,.046,1.07l1.97,2.18a1.117,1.117,0,0,0,1.6,0l1.97-2.18a.821.821,0,0,0,.046-1.07A.766.766,0,0,1,34.77,17.48Z" style="fill:#ffbb4d"/><path d="M26,57H24a3.995,3.995,0,0,0-4,4,1.972,1.972,0,0,0,.192.84,4.069,4.069,0,0,1,.978-1.67A4.025,4.025,0,0,1,24,59h2a3.985,3.985,0,0,1,3.809,2.84A1.971,1.971,0,0,0,30,61,4,4,0,0,0,26,57Z" style="fill:#414952"/><path d="M38,59h2a3.985,3.985,0,0,1,3.809,2.84A1.971,1.971,0,0,0,44,61a4,4,0,0,0-4-4H38a3.995,3.995,0,0,0-4,4,1.972,1.972,0,0,0,.192.84,4.069,4.069,0,0,1,.978-1.67A4.025,4.025,0,0,1,38,59Z" style="fill:#414952"/><path d="M43.855,7.183c2.73.535,4.792,2.217,5.1,4.276C48.519,6.128,41.673,1,32,1S15.481,6.128,15.042,11.459c.311-2.059,2.373-3.741,5.1-4.276A21.928,21.928,0,0,1,32,4,21.928,21.928,0,0,1,43.855,7.183Z" style="fill:#414952"/><path d="M43.855,7.183A9.636,9.636,0,0,0,42,7c-7,0-8,7-8,10a1.159,1.159,0,0,1,.294.045C34.928,13.835,36.818,10,42,10c3.614,0,6.58,1.954,6.958,4.459A3.735,3.735,0,0,1,49,15V12C49,9.7,46.821,7.764,43.855,7.183Z" style="fill:#dce1eb"/><path d="M22,7a9.636,9.636,0,0,0-1.855.183C17.179,7.764,15,9.7,15,12v3a3.735,3.735,0,0,1,.042-.541C15.42,11.954,18.386,10,22,10c5.182,0,7.072,3.835,7.706,7.045A1.159,1.159,0,0,1,30,17C30,14,29,7,22,7Z" style="fill:#dce1eb"/><path d="M26.48,28.09,15.01,19l-.07-.01a11.753,11.753,0,0,1-.72,3.1l-.022.059L25.48,31.09a3.985,3.985,0,0,1,1.508,3.318l.682-1.568A4.018,4.018,0,0,0,26.48,28.09Z" style="fill:#555a66"/><path d="M26.921,28.5a4.03,4.03,0,0,1-.251,2.339l-1.83,4.21A7.893,7.893,0,0,1,13.03,38.4l-.99-.7a.986.986,0,0,0-1.49.44c-1.168,2.94-3.715,16.657.352,22.5A19.666,19.666,0,0,0,15.68,62.66c-8.19-2.58-5.52-19.02-4.13-22.52a.986.986,0,0,1,1.49-.44l.99.7a7.893,7.893,0,0,0,11.81-3.35l1.83-4.21A4.025,4.025,0,0,0,26.921,28.5Z" style="fill:#333940"/><path d="M12.55,42.373a1.027,1.027,0,0,1,1.49-.4l.99.641c4.1,2.656,9.8,1.172,11.81-3.069l1.83-3.856a3.455,3.455,0,0,0-.712-3.943,4.052,4.052,0,0,1-.288,1.1l-1.83,4.21A7.893,7.893,0,0,1,14.03,40.4l-.99-.7a.986.986,0,0,0-1.49.44c-1.39,3.5-4.06,19.94,4.13,22.52a.142.142,0,0,1,.06.02l.173.047C8.664,59.664,11.205,45.474,12.55,42.373Z" style="fill:#dce1eb"/><path d="M52.45,40.14a.986.986,0,0,0-1.49-.44l-.99.7a7.893,7.893,0,0,1-11.81-3.35l-1.83-4.21a4.042,4.042,0,0,1-.317-1.863l-.493.358a3.487,3.487,0,0,0-1.19,4.351l1.83,3.856c2.01,4.241,7.71,5.725,11.81,3.069l.99-.641a1.027,1.027,0,0,1,1.49.4c1.386,3.2,4.041,18.171-4.06,20.6h.02a21.479,21.479,0,0,0,4.058-1.49C55.982,56.9,53.7,43.288,52.45,40.14Z" style="fill:#dce1eb"/><path d="M38.52,31.09,49.8,22.149l-.022-.059a11.753,11.753,0,0,1-.72-3.1l-.07.01L37.52,28.09a4.018,4.018,0,0,0-1.19,4.75l.682,1.568A3.985,3.985,0,0,1,38.52,31.09Z" style="fill:#555a66"/><path d="M53.45,38.14a.986.986,0,0,0-1.49-.44l-.99.7a7.893,7.893,0,0,1-11.81-3.35l-1.83-4.21a4.03,4.03,0,0,1-.251-2.339,4.025,4.025,0,0,0-.749,4.339l1.83,4.21A7.893,7.893,0,0,0,49.97,40.4l.99-.7a.986.986,0,0,1,1.49.44c1.39,3.5,4.06,19.94-4.13,22.52A20.194,20.194,0,0,0,52.678,60.9C57.922,53.9,54.536,40.874,53.45,38.14Z" style="fill:#333940"/><path d="M38,57H37c-1.25,0-1.752-2.128-1.923-4.14A2.012,2.012,0,0,0,33.082,51H30.918a2.012,2.012,0,0,0-2,1.86C28.752,54.872,28.25,57,27,57H26a4,4,0,0,1,4,4l.59-.59a1.992,1.992,0,0,1,2.82,0L34,61a3.995,3.995,0,0,1,4-4Z" style="fill:#dce1eb"/><path d="M34.77,18.48,32.8,20.66a1.117,1.117,0,0,1-1.6,0l-1.97-2.18a.862.862,0,0,1-.2-.395,1.686,1.686,0,0,0,.2,1.135l1.97,3.271a.885.885,0,0,0,1.6,0l1.97-3.271a1.686,1.686,0,0,0,.2-1.135A.862.862,0,0,1,34.77,18.48Z" style="fill:#dce1eb"/><ellipse cx="48.258" cy="36.814" rx="0.825" ry="1.148" transform="translate(-11.894 44.927) rotate(-45.02)" style="fill:#f6fafd"/><ellipse cx="24.258" cy="29.814" rx="0.825" ry="1.148" transform="translate(-13.978 25.898) rotate(-45.02)" style="fill:#f6fafd"/><ellipse cx="44.26" cy="35.8" rx="1.642" ry="2.286" transform="translate(-12.349 41.802) rotate(-45.02)" style="fill:#f6fafd"/><path d="M57.483,40.009l-.555-1.381c-1.7-4.247-3.264-8.657-4.52-12.2-.664-1.873-1.238-3.49-1.7-4.7a10.742,10.742,0,0,1-.658-2.845A9.731,9.731,0,0,1,50,17.85V12a4.53,4.53,0,0,0-.047-.641C49.467,5.777,42.708,0,32,0S14.533,5.777,14.047,11.359A4.53,4.53,0,0,0,14,12v5.85a9.8,9.8,0,0,1-.056,1.046,10.726,10.726,0,0,1-.659,2.84c-.455,1.2-1.029,2.818-1.693,4.691-1.256,3.544-2.82,7.954-4.521,12.2l-.554,1.38C4.841,44.171,4,46.261,4,49v1c0,6.779,3.932,11.484,11.369,13.61l.011,0,.018.005.009,0h0l.068.022.352.095h0c.316.082.632.163.948.236A1.1,1.1,0,0,0,17,64H28a3,3,0,0,0,2.955-2.541l.342-.342a1,1,0,0,1,1.406,0l.344.344A3,3,0,0,0,36,64H47a1.1,1.1,0,0,0,.221-.024c.32-.074.639-.156.967-.241l.337-.091c.023-.006.046-.014.068-.022h0l.009,0,.018-.005.011,0C56.068,61.484,60,56.779,60,50V49C60,46.261,59.159,44.171,57.483,40.009ZM45.246,6.521A10.248,10.248,0,0,0,42,6c-6.221,0-8.688,4.994-8.972,10H30.972C30.688,10.994,28.221,6,22,6a10.248,10.248,0,0,0-3.246.521C21.508,3.926,26.165,2,32,2S42.492,3.926,45.246,6.521ZM30.026,17.869l0-.006L30,17Zm3.883.072-1.845,2.042a.173.173,0,0,1-.122.007L30.143,18ZM6,50V49c0-2.353.793-4.321,2.373-8.244l.555-1.384c1.716-4.285,3.287-8.716,4.55-12.276.658-1.857,1.227-3.461,1.676-4.648a12.487,12.487,0,0,0,.505-1.657l10.2,8.086a3.011,3.011,0,0,1,.89,3.564l-1.831,4.21a6.936,6.936,0,0,1-4.5,3.943,6.839,6.839,0,0,1-5.814-1.01l-.987-.7a1.985,1.985,0,0,0-3,.885C9.458,42.7,7.686,53.1,10.579,59.187c.013.027.028.051.042.078A10.684,10.684,0,0,1,6,50ZM28.694,61.713A.965.965,0,0,1,28,62H22a1,1,0,0,1-1-1,2.994,2.994,0,0,1,3-3h2a3,3,0,0,1,3,3A.978.978,0,0,1,28.694,61.713ZM36,62a1,1,0,0,1-1-1,2.994,2.994,0,0,1,3-3h2a3,3,0,0,1,3,3,.978.978,0,0,1-.306.713A.965.965,0,0,1,42,62Zm8.818,0A2.992,2.992,0,0,0,45,61a5.006,5.006,0,0,0-5-5H38a4.968,4.968,0,0,0-1,.1V56c-.275,0-1-1.537-1-5H34c0,2.141.237,4.553,1.139,5.913a5.179,5.179,0,0,0-.681.555,5.058,5.058,0,0,0-1.1,1.7,2.985,2.985,0,0,0-2.714,0,5.019,5.019,0,0,0-1.779-2.257C29.763,55.551,30,53.14,30,51H28c0,3.463-.725,5-1,5v.1a5,5,0,0,0-1-.1H24a4.995,4.995,0,0,0-5,5,2.966,2.966,0,0,0,.184,1H18.04a7.116,7.116,0,0,1-1.712-.2l-.3-.083-.046-.014h0a5.916,5.916,0,0,1-3.6-3.378c-2.659-5.6-.845-15.453.077-17.811l.991.7a8.816,8.816,0,0,0,7.506,1.3,8.926,8.926,0,0,0,5.8-5.072l1.831-4.212a5.012,5.012,0,0,0-1.487-5.93L15.967,18.482c.011-.21.033-.421.033-.632V12c0-.137.023-.274.034-.411C16.354,9.605,18.955,8,22,8c5.9,0,6.853,5.664,6.98,8.291a1.932,1.932,0,0,0-.825.9,1.824,1.824,0,0,0,.333,1.961l1.973,2.183a2.115,2.115,0,0,0,3.081,0l1.972-2.183a1.824,1.824,0,0,0,.331-1.959,1.911,1.911,0,0,0-.825-.894C35.146,13.67,36.1,8,42,8c3.045,0,5.646,1.605,5.966,3.589.011.137.034.274.034.411v5.85c0,.213.022.421.033.633L36.9,27.3a5.013,5.013,0,0,0-1.49,5.935l1.83,4.21a8.926,8.926,0,0,0,5.8,5.072,8.825,8.825,0,0,0,7.507-1.3l.973-.708c.939,2.366,2.753,12.224.094,17.819a5.916,5.916,0,0,1-3.595,3.378h0l-.046.014-.287.079a7.127,7.127,0,0,1-1.727.2ZM58,50a10.684,10.684,0,0,1-4.621,9.265c.014-.027.029-.051.042-.078,2.893-6.086,1.121-16.49-.043-19.419a1.986,1.986,0,0,0-3-.884l-.989.7a6.839,6.839,0,0,1-5.814,1.01,6.94,6.94,0,0,1-4.5-3.943l-1.828-4.207a3.012,3.012,0,0,1,.892-3.57l10.2-8.083a12.44,12.44,0,0,0,.5,1.653c.45,1.191,1.019,2.8,1.677,4.652,1.263,3.56,2.834,7.991,4.549,12.275l.556,1.385C57.207,44.679,58,46.647,58,49Z"/><path d="M39.377,16H39.4a2.623,2.623,0,0,0,1.748-.833l.015-.015A2.606,2.606,0,0,0,42,13.377a1.359,1.359,0,0,0-.387-.96A1.381,1.381,0,0,0,40.623,12a2.572,2.572,0,0,0-1.788.848A2.606,2.606,0,0,0,38,14.623a1.359,1.359,0,0,0,.387.96A1.381,1.381,0,0,0,39.377,16Z"/><path d="M23.377,12a1.359,1.359,0,0,0-.96.387,1.381,1.381,0,0,0-.415.988,2.606,2.606,0,0,0,.833,1.773l.015.015A2.623,2.623,0,0,0,24.6,16h.025a1.359,1.359,0,0,0,.96-.387A1.381,1.381,0,0,0,26,14.623a2.624,2.624,0,0,0-.848-1.788A2.539,2.539,0,0,0,23.377,12Z"/></g></svg>
