<?xml version="1.0"?>
<svg xmlns="http://www.w3.org/2000/svg" viewBox="0 0 64 64" width="512" height="512"><g id="_07-chick" data-name="07-chick"><path d="M43,29.61a1.741,1.741,0,0,0,.72,1.6L32,40,20.29,31.21a1.759,1.759,0,0,0,.71-1.6v-.9A25.678,25.678,0,0,0,32,31a25.678,25.678,0,0,0,11-2.29Z" style="fill:#40a87f"/><path d="M27.01,58.83,27,59v4H24V58.52C24.96,58.65,25.97,58.75,27.01,58.83Z" style="fill:#e89f00"/><path d="M40,58.52V63H37V59l-.01-.17C38.03,58.75,39.04,58.65,40,58.52Z" style="fill:#e89f00"/><path d="M38,2.19V5c0,2.76-3.13,5-7,5V5c0,1.66-2.68,3-6,3V3l-.13-.24A14.155,14.155,0,0,1,32,1,14.729,14.729,0,0,1,38,2.19Z" style="fill:#e89f00"/><path d="M36,19l-4,4-4-4c0-1.11,2-2,4-3C34,17,36,17.89,36,19Z" style="fill:#e89f00"/><path d="M19.04,35C21.85,35,24,40.13,24,44.13c0,6.48-3.39,11.74-8.8,11.86C11.23,53.91,9,50.68,9,46c0-4.3,2.18-7.95,5.76-11Z" style="fill:#ffc247"/><path d="M49.24,35C52.82,38.05,55,41.7,55,46c0,4.68-2.23,7.91-6.2,9.99-5.41-.12-8.8-5.38-8.8-11.86,0-4,2.15-9.13,4.96-9.13Z" style="fill:#ffc247"/><path d="M20,11a9.322,9.322,0,0,1,4.87-8.24L25,3V8c3.32,0,6-1.34,6-3v5c3.87,0,7-2.24,7-5V2.19A9.47,9.47,0,0,1,44,11a5.067,5.067,0,0,0,2,4,8.474,8.474,0,0,1,3,6.36c0,2.94-2.33,5.58-6,7.35A25.678,25.678,0,0,1,32,31a25.678,25.678,0,0,1-11-2.29c-3.67-1.77-6-4.41-6-7.35A8.474,8.474,0,0,1,18,15,5.067,5.067,0,0,0,20,11ZM32,23l4-4c0-1.11-2-2-4-3-2,1-4,1.89-4,3Z" style="fill:#f5cd62"/><path d="M24,58.52a26.623,26.623,0,0,1-8.8-2.53c5.41-.12,8.8-5.38,8.8-11.86,0-4-2.15-9.13-4.96-9.13H14.76A30.692,30.692,0,0,1,19,32a10.009,10.009,0,0,0,1.29-.79L32,40l11.72-8.79A9.418,9.418,0,0,0,45,32a30.692,30.692,0,0,1,4.24,3H44.96C42.15,35,40,40.13,40,44.13c0,6.48,3.39,11.74,8.8,11.86A26.623,26.623,0,0,1,40,58.52c-.96.13-1.97.23-3.01.31-1.58.11-3.25.17-4.99.17s-3.41-.06-4.99-.17C25.97,58.75,24.96,58.65,24,58.52Z" style="fill:#f5cd62"/><path d="M43,28.71A25.678,25.678,0,0,1,32,31a25.678,25.678,0,0,1-11-2.29v.9a2.218,2.218,0,0,1-.193,1c.066.034.125.071.193.1A25.678,25.678,0,0,0,32,33a25.678,25.678,0,0,0,11-2.29c.068-.033.127-.071.193-.1a2.215,2.215,0,0,1-.193-1Z" style="fill:#2d9169"/><path d="M13,46a15.517,15.517,0,0,1,4.758-11h-3C11.18,38.05,9,41.7,9,46c0,4.68,2.23,7.91,6.2,9.99a7.787,7.787,0,0,0,2.339-.418C14.636,53.486,13,50.387,13,46Z" style="fill:#ffe68a"/><path d="M49.24,35h-3A15.517,15.517,0,0,1,51,46c0,4.387-1.636,7.486-4.539,9.572a7.787,7.787,0,0,0,2.339.418C52.77,53.91,55,50.68,55,46,55,41.7,52.82,38.05,49.24,35Z" style="fill:#ffe68a"/><path d="M46.242,35h3A30.692,30.692,0,0,0,45,32a9.418,9.418,0,0,1-1.28-.79l-1.019.764.038.026A26.03,26.03,0,0,1,46.242,35Z" style="fill:#fff48f"/><path d="M21.261,32l.043-.029L20.29,31.21A10.009,10.009,0,0,1,19,32a30.692,30.692,0,0,0-4.24,3h3A26.03,26.03,0,0,1,21.261,32Z" style="fill:#fff48f"/><path d="M35.21,19.79,32,23l-3.21-3.21A1.673,1.673,0,0,0,28,21l4,4,4-4A1.673,1.673,0,0,0,35.21,19.79Z" style="fill:#ffbb4d"/><path d="M35.21,19.79,36,19c0-1.11-2-2-4-3v2A20.481,20.481,0,0,1,35.21,19.79Z" style="fill:#ffbc36"/><path d="M32,23l3.21-3.21A20.481,20.481,0,0,0,32,18Z" style="fill:#e0911b"/><path d="M32,18a20.481,20.481,0,0,0-3.21,1.79L32,23Z" style="fill:#d4850f"/><path d="M46,15a5.067,5.067,0,0,1-2-4,9.47,9.47,0,0,0-6-8.81A14.729,14.729,0,0,0,32,1a14.155,14.155,0,0,0-7.13,1.76A9.322,9.322,0,0,0,20,11a5.067,5.067,0,0,1-2,4,8.474,8.474,0,0,0-3,6.36c0,2.94,2.33,5.58,6,7.35A25.678,25.678,0,0,0,32,31a18.527,18.527,0,0,1-9.059-2.214C19.919,27.075,18,24.523,18,21.681a8.826,8.826,0,0,1,2.471-6.148,5.235,5.235,0,0,0,1.647-3.866A9.355,9.355,0,0,1,26.128,3.7,10.325,10.325,0,0,1,32,2a10.6,10.6,0,0,1,4.941,1.15,9.264,9.264,0,0,1,4.941,8.517,5.235,5.235,0,0,0,1.647,3.866A8.826,8.826,0,0,1,46,21.681c0,2.842-1.919,5.394-4.941,7.105A18.527,18.527,0,0,1,32,31a25.678,25.678,0,0,0,11-2.29c3.67-1.77,6-4.41,6-7.35A8.474,8.474,0,0,0,46,15Z" style="fill:#fff48f"/><path d="M24,10c3.32,0,6-1.34,6-3v5c3.565,0,6.495-1.9,6.936-4.359A7.915,7.915,0,0,1,31,10V5c0,1.66-2.68,3-6,3V3l-.13-.24c-.3.177-.589.374-.87.574V10Z" style="fill:#ffbb4d"/><path d="M26.109,6V2.146a11.7,11.7,0,0,0-1.239.614L25,3V8c3.32,0,6-1.34,6-3V3C31,4.66,28.89,6,26.109,6Z" style="fill:#d4850f"/><path d="M37,1.812V3c0,2.76-2.758,5-6,5v2c3.87,0,7-2.24,7-5V2.19C37.68,2.048,37.34,1.93,37,1.812Z" style="fill:#d4850f"/><path d="M32,1c-.338,0-.672.01-1,.029a14.336,14.336,0,0,0-4.891,1.117V6C28.89,6,31,4.66,31,3V8c3.242,0,6-2.24,6-5V1.812A15.2,15.2,0,0,0,32,1Z" style="fill:#e0911b"/><path d="M25.391,58.52q-.606-.1-1.185-.222a2,2,0,0,1-1.057-3.257A13.858,13.858,0,0,0,26,46.13c0-3.468-1.617-7.779-3.878-8.867A13.93,13.93,0,0,1,24,44.13c0,5.484-2.435,10.082-6.461,11.442a8.068,8.068,0,0,1-1.062.276c-.035.007-.068.016-.1.022a7.578,7.578,0,0,1-1.173.12q.459.242.95.462l.139.059c.29.128.587.252.893.369.019.008.04.014.06.022q1.035.393,2.186.708h0A35.077,35.077,0,0,0,24,58.52c.96.13,1.97.23,3.01.31,1.58.11,3.25.17,4.99.17-1.437,0-2.817-.06-4.122-.17C27.019,58.75,26.184,58.65,25.391,58.52Z" style="fill:#ffbb4d"/><path d="M44.572,57.61q1.148-.315,2.184-.707l.063-.023c.3-.117.6-.241.892-.369.045-.02.094-.038.139-.059q.49-.221.95-.462a7.578,7.578,0,0,1-1.173-.12c-.036-.006-.069-.015-.1-.022a8.068,8.068,0,0,1-1.062-.276C42.435,54.212,40,49.614,40,44.13a13.93,13.93,0,0,1,1.878-6.867C39.617,38.351,38,42.662,38,46.13a13.858,13.858,0,0,0,2.851,8.911A2,2,0,0,1,39.794,58.3q-.579.123-1.185.222c-.793.13-1.628.23-2.487.31-1.3.11-2.685.17-4.122.17,1.74,0,3.41-.06,4.99-.17,1.04-.08,2.05-.18,3.01-.31a35.077,35.077,0,0,0,4.572-.91Z" style="fill:#ffbb4d"/><path d="M44.329,31.619a4.411,4.411,0,0,1-.609-.409L32,40,20.29,31.21a4.205,4.205,0,0,1-.619.41L32,43Z" style="fill:#ffbb4d"/><path d="M43,42.13A13.736,13.736,0,0,1,45.048,35H44.96C42.15,35,40,40.13,40,44.13c0,6.48,3.39,11.74,8.8,11.86a13.305,13.305,0,0,0,2.874-2.01C46.339,53.78,43,48.559,43,42.13Z" style="fill:#ffa426"/><path d="M53.966,50.891c-.058.032-.107.068-.166.1-5.41-.12-8.8-5.38-8.8-11.86A14.244,14.244,0,0,1,45.662,35h-.614A13.736,13.736,0,0,0,43,42.13c0,6.429,3.339,11.65,8.674,11.85A9.993,9.993,0,0,0,53.966,50.891Z" style="fill:#ffb13b"/><path d="M20.122,35.263A13.93,13.93,0,0,1,22,42.13c0,6.48-3.39,11.74-8.8,11.86a14.026,14.026,0,0,1-2.1-1.362,12.115,12.115,0,0,0,4.1,3.362c5.41-.12,8.8-5.38,8.8-11.86C24,40.662,22.383,36.351,20.122,35.263Z" style="fill:#ffa426"/><path d="M22,42.13a13.93,13.93,0,0,0-1.878-6.867,2.568,2.568,0,0,0-.773-.228A14.2,14.2,0,0,1,20,39.13c0,6.48-3.39,11.74-8.8,11.86a14.723,14.723,0,0,1-1.489-.9A9.708,9.708,0,0,0,11.1,52.628a14.026,14.026,0,0,0,2.1,1.362C18.61,53.87,22,48.61,22,42.13Z" style="fill:#ffb13b"/><ellipse cx="44.258" cy="18.814" rx="0.825" ry="1.148" transform="translate(-0.334 36.821) rotate(-45.02)" style="fill:#f6fafd"/><ellipse cx="44.004" cy="21.314" rx="0.413" ry="0.574" transform="translate(-2.177 37.374) rotate(-45.02)" style="fill:#f6fafd"/><ellipse cx="49.26" cy="38.8" rx="1.642" ry="2.286" transform="translate(-13.005 46.218) rotate(-45.02)" style="fill:#f6fafd"/><path d="M31.293,23.707a1,1,0,0,0,1.414,0l4-4A1,1,0,0,0,37,19c0-1.637-1.888-2.572-4.073-3.656l-.48-.239a1,1,0,0,0-.894,0l-.48.239C28.888,16.428,27,17.363,27,19a1,1,0,0,0,.293.707Zm.668-6.571L32,17.117l.039.019a14.763,14.763,0,0,1,2.791,1.62L32,21.586,29.174,18.76A14.46,14.46,0,0,1,31.961,17.136Z"/><path d="M38.4,17a1.921,1.921,0,0,0,.6-.1,3.021,3.021,0,0,0,1.154-.742h0A3.021,3.021,0,0,0,40.9,15,1.436,1.436,0,0,0,39,13.1,3.234,3.234,0,0,0,37.1,15a1.51,1.51,0,0,0,.3,1.6A1.383,1.383,0,0,0,38.4,17Z"/><path d="M23.845,16.154h0A3.021,3.021,0,0,0,25,16.9a1.927,1.927,0,0,0,.605.1,1.377,1.377,0,0,0,1-.4,1.51,1.51,0,0,0,.3-1.6A3.234,3.234,0,0,0,25,13.1,1.436,1.436,0,0,0,23.1,15,3.021,3.021,0,0,0,23.845,16.154Z"/><path d="M56,46c0-5.729-3.529-10.729-10.49-14.86-.169-.1-.33-.192-.481-.278-.942-.533-1.029-.6-1.029-1.25v-.274c3.693-1.936,6-4.767,6-7.981a9.486,9.486,0,0,0-3.362-7.127A4.082,4.082,0,0,1,45,11.006V11h0v0C45,4.624,39.531,0,32,0S19,4.626,19,11h0v0a4.079,4.079,0,0,1-1.638,3.223A9.486,9.486,0,0,0,14,21.357c0,3.214,2.307,6.045,6,7.981v.274c0,.649-.087.717-1.029,1.25-.151.086-.312.178-.481.278C11.529,35.271,8,40.271,8,46c0,5,2.36,8.658,7,10.984V57l.027,0A27.445,27.445,0,0,0,23,59.361V62H21v2h9V62H28V59.877c1.28.073,2.6.123,4,.123s2.72-.05,4-.123V62H34v2h9V62H41V59.361A27.445,27.445,0,0,0,48.973,57L49,57v-.016C53.64,54.658,56,51,56,46ZM37,2.864V5c0,1.942-2.2,3.614-5,3.942V5a1,1,0,0,0-2,0c0,.723-1.529,1.734-4,1.956V3.3A13.581,13.581,0,0,1,32,2,14.154,14.154,0,0,1,37,2.864ZM16,21.357a7.439,7.439,0,0,1,2.638-5.587A6.068,6.068,0,0,0,21,11a8.181,8.181,0,0,1,3-6.421V8a1,1,0,0,0,1,1,10.239,10.239,0,0,0,5-1.147V10a1,1,0,0,0,1,1c4.411,0,8-2.691,8-6V3.852A8.278,8.278,0,0,1,43,11a6.068,6.068,0,0,0,2.362,4.772A7.439,7.439,0,0,1,48,21.357C48,23.994,45.679,26.4,42.1,28H42v.042A25.207,25.207,0,0,1,32,30a25.207,25.207,0,0,1-10-1.958V28h-.1C18.321,26.4,16,23.994,16,21.357ZM32,32a27.8,27.8,0,0,0,10.046-1.764,2.771,2.771,0,0,0,.25.792L32,38.75,21.7,31.028a2.771,2.771,0,0,0,.25-.792A27.8,27.8,0,0,0,32,32ZM26,62H25V59.627c.332.037.658.078,1,.109Zm13,0H38V59.736c.342-.031.668-.072,1-.109Zm9.632-7.022C44.121,54.749,41,50.36,41,44.13,41,40.255,43.074,36,44.962,36V34C41.268,34,39,39.9,39,44.13c0,5.882,2.622,10.478,6.57,12.164A44.271,44.271,0,0,1,32,58a44.271,44.271,0,0,1-13.57-1.706C22.378,54.608,25,50.012,25,44.13,25,39.9,22.732,34,19.038,34v2C20.926,36,23,40.255,23,44.13c0,6.23-3.121,10.619-7.632,10.848A9.631,9.631,0,0,1,10,46c0-4.974,3.2-9.4,9.51-13.14.157-.093.307-.178.448-.257.1-.055.193-.111.289-.168L31.4,40.8a1,1,0,0,0,1.2,0l11.153-8.365c.1.057.193.113.289.168.141.079.291.164.448.257C50.8,36.6,54,41.026,54,46A9.631,9.631,0,0,1,48.632,54.978Z"/></g></svg>
