<?xml version="1.0"?>
<svg xmlns="http://www.w3.org/2000/svg" viewBox="0 0 64 64" width="512" height="512"><g id="_03-cat" data-name="03-cat"><path d="M16.67,61H11a7,7,0,0,1-7-7V31a2.006,2.006,0,0,1,2-2,2.015,2.015,0,0,1,2,2V53a4,4,0,0,0,4,4h1l.19-.09A10.646,10.646,0,0,0,16.67,61Z" style="fill:#b27a49"/><path d="M42,2.17,44,9H40.94a.991.991,0,0,1-.86-1.39C41.03,5.27,41,1,41,1A1.089,1.089,0,0,1,42,2.17Z" style="fill:#ffb3c0"/><path d="M23.92,7.61A.991.991,0,0,1,23.06,9H20l2-6.83A1.089,1.089,0,0,1,23,1S22.97,5.27,23.92,7.61Z" style="fill:#ffb3c0"/><path d="M46,14.38c.49,1.8,3,7.39,3,7.39A10.667,10.667,0,0,1,48.77,24a9.385,9.385,0,0,1-1.86,3.96A7.758,7.758,0,0,1,41,31l9.1,14.65a11.817,11.817,0,0,1,1.88,6.94,10.984,10.984,0,0,1-7.2,9.73A10.782,10.782,0,0,1,41,63H33.96A1.963,1.963,0,0,1,32,61.04,1.963,1.963,0,0,1,30.04,63H23a10.782,10.782,0,0,1-3.78-.68A10.269,10.269,0,0,1,16.67,61a10.646,10.646,0,0,1-3.48-4.09,11.292,11.292,0,0,1-1.17-4.32,11.817,11.817,0,0,1,1.88-6.94L23,31a7.607,7.607,0,0,1-5.45-2.51c-.16-.17-.31-.34-.46-.53A9.385,9.385,0,0,1,15.23,24,10.667,10.667,0,0,1,15,21.77s2.51-5.59,3-7.39A22.179,22.179,0,0,1,20,9h3.06a.991.991,0,0,0,.86-1.39C22.97,5.27,23,1,23,1a.92.92,0,0,1,.6.24l4.81,5.13A2,2,0,0,0,29.86,7h4.28a2,2,0,0,0,1.45-.63L40.4,1.24A.92.92,0,0,1,41,1s.03,4.27-.92,6.61A.991.991,0,0,0,40.94,9H44A22.179,22.179,0,0,1,46,14.38Z" style="fill:#e3a76f"/><path d="M44,51V43.472a4,4,0,1,0-8,0V51a10.127,10.127,0,0,1-3.19,7.52A2,2,0,0,0,32,60.11v.93A1.963,1.963,0,0,0,33.96,63H38C40.76,63,44,58.19,44,51Z" style="fill:#e3a76f"/><path d="M31.19,58.52A10.127,10.127,0,0,1,28,51V43.472a4,4,0,1,0-8,0V51c0,7.19,3.24,12,6,12h4.04A1.963,1.963,0,0,0,32,61.04v-.93A2,2,0,0,0,31.19,58.52Z" style="fill:#e3a76f"/><path d="M41.08,7.61a18.891,18.891,0,0,0,.9-5.563A1.062,1.062,0,0,0,41,1s.03,4.27-.92,6.61A.991.991,0,0,0,40.94,9h1A.991.991,0,0,1,41.08,7.61Z" style="fill:#ff8fa3"/><path d="M28.41,8.37A2,2,0,0,0,29.86,9h4.28a2,2,0,0,0,1.45-.63L40.4,3.24a.932.932,0,0,1,.527-.226C41.005,1.859,41,1,41,1a.92.92,0,0,0-.6.24L35.59,6.37A2,2,0,0,1,34.14,7H29.86a2,2,0,0,1-1.45-.63L23.6,1.24A.92.92,0,0,0,23,1s0,.859.073,2.014a.932.932,0,0,1,.527.226Z" style="fill:#f5b57b"/><path d="M41.789,39.894a4,4,0,0,0-5.083,1.315,4.189,4.189,0,0,1,3.083.191A3.721,3.721,0,0,1,42,44.744v7.038C42,58.5,38.76,63,36,63h2c2.76,0,6-4.81,6-12V43.472A4,4,0,0,0,41.789,39.894Z" style="fill:#f5b57b"/><path d="M33,45.472V53a10.6,10.6,0,0,1-1,4.479A10.6,10.6,0,0,1,31,53V45.472a4,4,0,0,0-3.514-3.967A3.965,3.965,0,0,1,28,43.472V51a10.127,10.127,0,0,0,3.19,7.52,2.1,2.1,0,0,1,.168.159A1.976,1.976,0,0,1,32,60.11a1.976,1.976,0,0,1,.642-1.431,2.1,2.1,0,0,1,.168-.159A10.127,10.127,0,0,0,36,51V43.472a3.965,3.965,0,0,1,.514-1.967A4,4,0,0,0,33,45.472Z" style="fill:#c48958"/><path d="M32,34c4.457,0,8.942-.719,9.83-1.663L41,31H23l-.83,1.337C23.058,33.281,27.543,34,32,34Z" style="fill:#c48958"/><path d="M22.9,7.61A18.927,18.927,0,0,1,22,2.047,1.064,1.064,0,0,1,22.98,1s-.03,4.27.92,6.61A.991.991,0,0,1,23.04,9h-1A.991.991,0,0,0,22.9,7.61Z" style="fill:#ff8fa3"/><path d="M6,33V54a5,5,0,0,0,5,5h.673a6.814,6.814,0,0,1-.614-2.123A3.992,3.992,0,0,1,8,53V31a2.015,2.015,0,0,0-2-2,2.006,2.006,0,0,0-2,2A2,2,0,0,1,6,33Z" style="fill:#c48958"/><path d="M14.535,59a10.839,10.839,0,0,1-1.345-2.09L13,57H12a4,4,0,0,1-.941-.123A6.814,6.814,0,0,0,11.673,59a5.73,5.73,0,0,0,1.563,2H16.67A10.414,10.414,0,0,1,14.535,59Z" style="fill:#b27a49"/><path d="M22.211,39.894a4,4,0,0,1,5.083,1.315,4.189,4.189,0,0,0-3.083.191A3.721,3.721,0,0,0,22,44.744v7.038C22,58.5,25.24,63,28,63H26c-2.76,0-6-4.81-6-12V43.472A4,4,0,0,1,22.211,39.894Z" style="fill:#f5b57b"/><path d="M19.737,61a10.384,10.384,0,0,1-2.784-4.09,13.551,13.551,0,0,1-.936-4.32,14.117,14.117,0,0,1,1.5-6.94L24.8,31a5.65,5.65,0,0,1-4.359-2.51c-.128-.17-.248-.34-.368-.53A10.551,10.551,0,0,1,18.585,24a13.244,13.244,0,0,1-.184-2.23s2.008-5.59,2.4-7.39A25.886,25.886,0,0,1,22.4,9H20a22.179,22.179,0,0,0-2,5.38c-.49,1.8-3,7.39-3,7.39A10.667,10.667,0,0,0,15.23,24a9.385,9.385,0,0,0,1.86,3.96c.15.19.3.36.46.53A7.607,7.607,0,0,0,23,31L13.9,45.65a11.817,11.817,0,0,0-1.88,6.94,11.292,11.292,0,0,0,1.17,4.32A10.646,10.646,0,0,0,16.67,61a10.269,10.269,0,0,0,2.55,1.32A10.782,10.782,0,0,0,23,63h1.8a7.113,7.113,0,0,1-3.023-.68A7.788,7.788,0,0,1,19.737,61Z" style="fill:#f5b57b"/><path d="M50.1,45.65,41,31a7.758,7.758,0,0,0,5.91-3.04A9.385,9.385,0,0,0,48.77,24,10.667,10.667,0,0,0,49,21.77s-2.51-5.59-3-7.39A22.179,22.179,0,0,0,44,9H41.6a25.886,25.886,0,0,1,1.6,5.38c.392,1.8,2.4,7.39,2.4,7.39A13.244,13.244,0,0,1,45.415,24a10.551,10.551,0,0,1-1.488,3.96A5.909,5.909,0,0,1,39.2,31l7.279,14.65a14.117,14.117,0,0,1,1.5,6.94c-.232,4.27-2.344,8.23-5.76,9.73A7.113,7.113,0,0,1,39.2,63H41a10.782,10.782,0,0,0,3.78-.68,10.984,10.984,0,0,0,7.2-9.73A11.817,11.817,0,0,0,50.1,45.65Z" style="fill:#f5b57b"/><ellipse cx="40.258" cy="43.814" rx="0.825" ry="1.148" transform="translate(-19.191 41.32) rotate(-45.02)" style="fill:#f6fafd"/><ellipse cx="39.258" cy="10.814" rx="0.825" ry="1.148" transform="translate(3.859 30.939) rotate(-45.02)" style="fill:#f6fafd"/><ellipse cx="40.004" cy="46.314" rx="0.413" ry="0.574" transform="translate(-21.034 41.873) rotate(-45.02)" style="fill:#f6fafd"/><ellipse cx="41.004" cy="12.314" rx="0.413" ry="0.574" transform="translate(3.309 32.614) rotate(-45.02)" style="fill:#f6fafd"/><path d="M33,21a1,1,0,0,1,.8,1.6l-1,1.33a.993.993,0,0,1-1.6,0l-1-1.33A1,1,0,0,1,31,21Z" style="fill:#ffb3c0"/><path d="M33.6,24.531l1-1.335A2,2,0,0,0,33,20H31a2,2,0,0,0-1.6,3.2l1,1.324a1.983,1.983,0,0,0,.2.211l-2.149,1.432,1.11,1.664L32,26.2l2.445,1.63,1.11-1.664-2.148-1.432A1.964,1.964,0,0,0,33.6,24.531ZM33,22l-1,1.33L31,22Z"/><path d="M39.377,21H39.4a2.623,2.623,0,0,0,1.748-.833l.015-.015A2.606,2.606,0,0,0,42,18.377a1.359,1.359,0,0,0-.387-.96A1.381,1.381,0,0,0,40.623,17a2.572,2.572,0,0,0-1.788.848A2.606,2.606,0,0,0,38,19.623a1.359,1.359,0,0,0,.387.96A1.381,1.381,0,0,0,39.377,21Z"/><path d="M23.377,17a1.359,1.359,0,0,0-.96.387,1.381,1.381,0,0,0-.415.988,2.606,2.606,0,0,0,.833,1.773l.015.015A2.623,2.623,0,0,0,24.6,21h.025a1.359,1.359,0,0,0,.96-.387A1.381,1.381,0,0,0,26,19.623a2.624,2.624,0,0,0-.848-1.788A2.539,2.539,0,0,0,23.377,17Z"/><path d="M50.95,45.122,42.679,31.807a9.138,9.138,0,0,0,5.01-3.22,10.332,10.332,0,0,0,2.059-4.378A11.691,11.691,0,0,0,50,21.77a1,1,0,0,0-.088-.41c-.024-.055-2.483-5.538-2.947-7.242a23.258,23.258,0,0,0-2.046-5.537L43,2.008A2.08,2.08,0,0,0,41,0a1.925,1.925,0,0,0-1.245.476c-.029.025-.058.052-.085.08l-4.8,5.125A1,1,0,0,1,34.14,6H29.86a.99.99,0,0,1-.72-.314L24.33.556C24.3.528,24.274.5,24.245.476A1.925,1.925,0,0,0,23,0a2.08,2.08,0,0,0-2,2.008L19.081,8.581a23.249,23.249,0,0,0-2.046,5.536c-.464,1.7-2.923,7.188-2.947,7.243a1,1,0,0,0-.088.41,11.674,11.674,0,0,0,.252,2.438,10.324,10.324,0,0,0,2.054,4.373c.168.212.336.4.514.593a8.933,8.933,0,0,0,4.5,2.636L13.05,45.123a12.731,12.731,0,0,0-2.028,7.533,12.457,12.457,0,0,0,.694,3.315A2.993,2.993,0,0,1,9,53V31a3.015,3.015,0,0,0-3-3,3,3,0,0,0-3,3V54a8.009,8.009,0,0,0,8,8h5.393a11.311,11.311,0,0,0,2.49,1.261A11.726,11.726,0,0,0,23,64h7.04a2.915,2.915,0,0,0,1-.186V64H38a3.561,3.561,0,0,0,1-.163V64h2a11.712,11.712,0,0,0,4.111-.737,11.992,11.992,0,0,0,7.867-10.608A12.735,12.735,0,0,0,50.95,45.122ZM42.664,7.994l-1.657-.008a13.405,13.405,0,0,0,.74-3.122Zm-20.4-3.169A12.942,12.942,0,0,0,23.06,8H21.335ZM5,54V31a1,1,0,0,1,1-1,.974.974,0,0,1,.712.306A.957.957,0,0,1,7,31V53a5.006,5.006,0,0,0,5,5h.661a11.781,11.781,0,0,0,1.413,2H11A6.006,6.006,0,0,1,5,54Zm45.982-1.478a10.017,10.017,0,0,1-9.314,9.45C43.569,59.764,45,55.888,45,51H43c0,6.715-2.961,11-5,11H33.96a.962.962,0,0,1-.96-.96v-.93a1,1,0,0,1,.417-.8A11.034,11.034,0,0,0,37,51H35a9.2,9.2,0,0,1-2.8,6.724c-.077.058-.135.131-.2.2-.069-.064-.127-.136-.2-.194A9.2,9.2,0,0,1,29,51H27a11.031,11.031,0,0,0,3.585,8.316A1,1,0,0,1,31,60.11v.93a.962.962,0,0,1-.96.96H26c-2.039,0-5-4.285-5-11H19c0,4.888,1.431,8.764,3.332,10.972a10,10,0,0,1-2.778-.595,9.327,9.327,0,0,1-2.313-1.2,9.692,9.692,0,0,1-3.158-3.719,10.34,10.34,0,0,1-1.065-3.936,10.746,10.746,0,0,1,1.732-6.346L23.556,32H26V30H23a6.427,6.427,0,0,1-4.164-1.66l3.535-1.411-.742-1.858-4.181,1.67A8.278,8.278,0,0,1,16.566,25H22V23H16.079A10.068,10.068,0,0,1,16,21.979c.078-.175.2-.458.356-.8l5.326,1.775.632-1.9-5.16-1.72a49.451,49.451,0,0,0,1.809-4.689A27.135,27.135,0,0,1,20.578,10H23.06a1.923,1.923,0,0,0,1.594-.861,2.034,2.034,0,0,0,.193-1.9,14.749,14.749,0,0,1-.756-4.008l3.594,3.833A3.017,3.017,0,0,0,29.86,8h4.28a3.018,3.018,0,0,0,2.179-.946l3.587-3.826a14.956,14.956,0,0,1-.752,4,2.036,2.036,0,0,0,.192,1.908A1.923,1.923,0,0,0,40.94,10h2.482a27.113,27.113,0,0,1,1.613,4.643,49.554,49.554,0,0,0,1.809,4.688l-5.16,1.72.632,1.9,5.326-1.775c.152.347.278.63.356.8A10.068,10.068,0,0,1,47.921,23H42v2h5.434a8.2,8.2,0,0,1-.882,1.74l-4.181-1.669-.742,1.858,3.524,1.409A6.458,6.458,0,0,1,41,30H38v2h2.444L49.25,46.177A10.748,10.748,0,0,1,50.982,52.522Z"/></g></svg>
