<svg id="icon" height="512" viewBox="0 0 340 340" width="512" xmlns="http://www.w3.org/2000/svg"><path d="m169.522 300.48c6.132-71.922 9.628-139.643 0-186.438 0 0-75.543-38.014-153.33-2.725a9.812 9.812 0 0 0 -5.714 8.95v180.213z" fill="#bac7e5"/><path d="m169.522 300.479c4.806-78.155 9.409-159.968 16.7-193.059 26.728-9.034 81.8-21.395 137.584 3.9a9.812 9.812 0 0 1 5.715 8.95v180.21z" fill="#fff"/><path d="m186.223 107.421a147.159 147.159 0 0 0 -16.7 6.621v186.438h16.7z" fill="#bac7e5"/><path d="m160.691 296.67c-22.8-8.928-86.357-28.133-150.213 3.81v29.532c72.871-20.688 129.92-8.668 150.624-2.724a30.683 30.683 0 0 0 16.858.026c20.877-5.935 78.585-18.02 151.562 2.7v-29.534c-63.934-31.98-128.178-12.691-151.154-3.78a24.322 24.322 0 0 1 -17.677-.03z" fill="#7988b7"/><path d="m158.4 285.177c-15.579-18.269-48.416-47.347-104.038-55.23a11.119 11.119 0 0 1 -9.608-10.985v-167.178a8.263 8.263 0 0 1 9.206-8.214c86 10.117 115.561 70.472 115.561 70.472v167.013a6.321 6.321 0 0 1 -11.121 4.122z" fill="#fff"/><path d="m80.992 182.8a83.507 83.507 0 0 1 22.8 11.032v-27.154a81.236 81.236 0 0 0 -22.8-11.162z" fill="#bac7e5"/><path d="m240.6 90.743-.82 33.381c1.353 4.025.889 8.922-.348 14.189l-.645 26.237c1.212 8.349.617 18.571-.726 29.569l-.6 24.393c-.1 4.016 2.582 7.335 5.922 7.335h8.683c3.341 0 6.021-3.319 5.922-7.335l-.806-32.844c-3.406-11.335-2.992-23.481-.884-35.988l-1.568-63.862q-7.065-.385-14.13 4.925z" fill="#e28683"/><path d="m208.444 187.882c-2.6 12.283-10.189 17.361-13.427 19.009a.73.73 0 0 0 .007 1.3c3.289 1.626 11.037 6.7 13.507 19.194a.733.733 0 0 0 1.44.009c2.634-12.7 10.044-17.6 13.325-19.191a.731.731 0 0 0 0-1.318c-3.344-1.622-10.982-6.6-13.411-19a.735.735 0 0 0 -1.441-.003z" fill="#ffbe71"/><path d="m294.358 131.4c-2.6 12.3-10.2 17.382-13.436 19.028a.727.727 0 0 0 .007 1.3c3.287 1.623 11.047 6.7 13.515 19.212a.73.73 0 0 0 1.434.008c2.633-12.716 10.055-17.623 13.334-19.209a.727.727 0 0 0 0-1.312c-3.342-1.62-10.993-6.6-13.42-19.016a.731.731 0 0 0 -1.434-.011z" fill="#ffbe71"/><path d="m240.6 90.743 14.13-4.925-.374-15.256h-13.26z" fill="#3c3c4f"/><path d="m247 77.8-17.274 5.289a2.494 2.494 0 0 1 -3.067-3.257l4.482-12.032a2.494 2.494 0 0 0 -.4-2.446l-8.541-10.488a2.494 2.494 0 0 1 1.521-4.035l12.993-2.183a2.493 2.493 0 0 0 1.668-1.086l7.262-11a2.5 2.5 0 0 1 4.164 0l7.261 11a2.5 2.5 0 0 0 1.669 1.086l12.993 2.183a2.5 2.5 0 0 1 1.521 4.035l-8.539 10.486a2.5 2.5 0 0 0 -.4 2.446l4.487 12.036a2.494 2.494 0 0 1 -3.067 3.257l-17.277-5.291a2.5 2.5 0 0 0 -1.456 0z" fill="#ffbe71"/><path d="m238.061 194.119 19.122-8.451-.839-34.139c-5.866 7.554-12.617 16.268-17.8 22.963z" fill="#3c3c4f"/><path d="m239.78 124.124-.348 14.189 13.835-19.962z" fill="#a05858"/><path d="m263.065 129.806s4.16-5.417 2.225-11.8c-1.362-4.494-8.712-6.564-11.522-2.8l-18.026 24.137c-2.275 4.792 6.225 31.78 11.315 31.78l16.109-20.861c5.244-6.277 7.875-16.817-.101-20.456z" fill="#e28683"/><path d="m257.982 137.2a2.241 2.241 0 0 0 -.668-3.256 2.3 2.3 0 0 0 -2.839.477l-10.56 11.376a4.33 4.33 0 0 1 -7.1-1.082 13.935 13.935 0 0 1 -1.076-5.372l-1.665 2.23c-8.349 11.257-1.771 19.382 4.138 16.513 0 0-12.97 14.864.134 24.315l8.708-11.277a14.729 14.729 0 0 1 -3.942-7.72 11.686 11.686 0 0 1 2.2-8.952z" fill="#e28683"/><g fill="#3c3c4f"><path d="m105.871 163.859c-10.742-7.9-23.394-11.539-23.921-11.709a3.352 3.352 0 0 0 -4.458 3.366v27.284a3.5 3.5 0 0 0 2.508 3.35 81.466 81.466 0 0 1 21.738 10.5c3.006 1.558 5.561-.512 5.561-2.828v-27.144a3.5 3.5 0 0 0 -1.428-2.819zm-5.575 23.6a87.925 87.925 0 0 0 -15.8-7.222v-19.828a76.482 76.482 0 0 1 15.8 8.075z"/><path d="m80.219 83.86c1.088.246 3.838.91 4.134.91 3.991.05 4.814-5.888.889-6.885-2.733-.817-6.721-2.014-7.663 1.788a3.5 3.5 0 0 0 2.64 4.187z"/><path d="m104.236 92.518c22.528 9.993 38.595 27.353 38.754 27.527 2.85 2.641 8.423-.564 5.164-4.726-.689-.753-17.169-18.593-41.079-29.2-4.175-1.83-7.025 4.517-2.839 6.399z"/><path d="m80.219 109.714c35.23 7.981 62.544 35.987 62.833 36.252 4.13 3.436 7.735-1.943 5.04-4.858-1.166-1.211-29.009-29.767-66.326-38.221-4.484-.936-6.034 5.725-1.547 6.827z"/><path d="m80.219 135.569c35.23 7.981 62.561 35.97 62.833 36.252a3.99 3.99 0 0 0 4.948.09 3.421 3.421 0 0 0 .092-4.948c-1.166-1.211-29.009-29.767-66.326-38.221a3.5 3.5 0 1 0 -1.547 6.827z"/><path d="m122.73 172.577c-4-2.2-7.4 3.87-3.4 6.118 12.46 6.928 23.568 18.813 23.678 18.932.69.742 3.26 1.675 4.946.184a3.47 3.47 0 0 0 .186-4.945c-.484-.519-11.956-12.808-25.41-20.289z"/><path d="m147.952 223.666a3.488 3.488 0 0 0 .186-4.945c-.482-.519-11.954-12.809-25.409-20.29a3.5 3.5 0 0 0 -3.4 6.119c12.46 6.928 23.568 18.813 23.678 18.932.693.742 3.308 1.675 4.945.184z"/><path d="m331.106 110.92a171.01 171.01 0 0 0 -59.119-17.049 3.5 3.5 0 0 0 -.757 6.953 164.391 164.391 0 0 1 54.792 15.4v178.709c-56.72-25.19-111-16.435-153 .142v-178.8c4.64-2.394 29.355-11.585 51.317-14.388a3.5 3.5 0 0 0 3-3.457v-.012a3.5 3.5 0 0 0 -3.985-3.463c-21.932 2.84-46.4 11.617-52.333 14.542-24.389-36.933-60.057-64.06-126.014-70.289a3.485 3.485 0 0 0 -3.753 3.492v56c-5.922 1.635-20.582 6.013-32.444 12.261a3.47 3.47 0 0 0 -1.832 3.077v215.85a3.586 3.586 0 0 0 4.456 3.491c86.527-24.22 145.254-3.147 158.065-.1 12.977-2.924 72.487-24.2 159.067.1 2.867.532 4.456-.931 4.456-3.469v-215.869a3.491 3.491 0 0 0 -1.916-3.121zm-317.128 5.263a174.721 174.721 0 0 1 27.276-10.2v122.84a3.5 3.5 0 0 0 3.249 3.491c61.3 6.276 90.942 27.763 116.473 60.7-43.463-15.263-90.383-22.42-147 1.919zm152.044 208.927c-44.022-12.282-88.592-15.48-152.044.305v-7.486c67.98-29.651 141.1-4.207 152.044-.072zm0-14.729c-40.945-14.008-97.511-22.173-152.044-.067v-7.656c54.679-26.458 113.444-16.715 152.044.047zm0-22.4c-4.548-6.351-36.4-56.488-117.768-62.39v-179.091c59.8 5.692 98.087 35.322 117.768 68.407zm160 37.433c-49.289-15.35-120.8-11.326-153-.287v-7.189c10.3-3.885 84.571-29.854 153-.01zm0-15.1c-54.437-22.179-112.194-13.839-153 .152v-7.748c12.5-5.553 83.087-33.867 153-.061z"/><path d="m216.218 50.307a3.5 3.5 0 0 0 .561 3.444l10.882 13.364-6.052 16.233a3.525 3.525 0 0 0 3.28 4.722c-.151.354 12.082-3.593 12.365-3.625l-1.194 48.621-4.794 6.419c-7.037 10.141-5.688 17.819.666 21.75-4.048 6.664-4.341 17.336 2.875 22.825l-.844 34.366c-.243 5.479 3.851 10.965 9.421 10.921 4.331-.3 11.847 1.25 15.029-2.755a11.312 11.312 0 0 0 3.075-8.166c-.127-.248-1.32-58.174-1.451-58.388l5.859-7.588c4.876-5.426 8.993-17.666 1.809-23.779 3.53-6.787 1.452-18.359-8.885-18.889l-.62-25.337 11.341 3.472a3.525 3.525 0 0 0 4.3-4.57l-6.051-16.232 10.882-13.364a3.5 3.5 0 0 0 -2.134-5.661l-16.79-2.822c-13.807-20.718-10.28-20.609-24.047 0l-16.788 2.822a3.5 3.5 0 0 0 -2.695 2.217zm38.272 168.293c-.026 1.7-.642 3.514-2.423 3.749h-8.683c-1.782-.234-2.395-2.049-2.423-3.749l.859-34.969 11.447-14.824zm7.45-99.578c1.323 4.364-1.422 8.334-1.631 8.626l-14.645 17.536a3.5 3.5 0 1 0 5.373 4.487l12.611-15.1c2.371 3.912.17 9.2-3.252 13.552l-22.496 29.125c-5.231-5.459 1.894-16.067 2.95-16.864a3.5 3.5 0 0 0 .142-4.428c-2.482-3.17-4.886.515-6.537-1.483-1.422-1.714-1.268-5.831 2.424-10.809l19.694-26.364c1.418-1.451 4.991.179 5.367 1.72zm-10.065-6.922c-.139-.193-8.238 10.881-8.575 11.275l1.009-41.087 3.417-1.046 3.416 1.046zm-13.511-60.181a3.5 3.5 0 0 0 2.341-1.524l7.021-10.636c10.051 14.711 4.174 11.073 21.72 14.241-11.185 14.659-10.991 7.615-4.64 25.151-21.733-6.419-12.468-6.4-34.16 0 6.369-17.58 6.528-10.488-4.64-25.151z"/><path d="m192.451 210.884c.121.039 12.133 4.113 13.265 22.043.249 4.232 6.635 4.329 6.98.076 2.482-23.443 15.539-19.655 15.681-25.4.084-5.785-13.847-2.473-15.674-25.406-.23-4.27-6.682-4.348-6.984-.054-1.294 17.637-12.844 21.927-13.308 22.092a3.521 3.521 0 0 0 .04 6.649zm16.656-14.022a28.118 28.118 0 0 0 8.618 10.7 28.39 28.39 0 0 0 -8.467 10.755 28.691 28.691 0 0 0 -8.711-10.807 29.289 29.289 0 0 0 8.56-10.648z"/><path d="m278.321 147.763a3.528 3.528 0 0 0 .013 6.64c.5.17 12.176 4.349 13.292 22.052.249 4.233 6.635 4.331 6.98.076 2.482-23.443 15.54-19.654 15.682-25.4a3.518 3.518 0 0 0 -2.434-3.389c-.5-.162-12.216-4.163-13.241-22.016-.23-4.27-6.682-4.349-6.984-.055-1.294 17.637-12.844 21.929-13.308 22.092zm16.7-7.372a28.116 28.116 0 0 0 8.618 10.7 28.386 28.386 0 0 0 -8.467 10.754 28.7 28.7 0 0 0 -8.712-10.807 29.277 29.277 0 0 0 8.558-10.647z"/><path d="m247.726 20.412a3.5 3.5 0 0 0 3.5-3.5v-6.9a3.5 3.5 0 0 0 -7 0v6.9a3.5 3.5 0 0 0 3.5 3.5z"/><path d="m213.692 32.514c3.429 3.022 8.061-2.178 4.649-5.235l-4.433-3.936c-3.434-3.021-8.058 2.178-4.648 5.235z"/><path d="m279.436 33.4a3.493 3.493 0 0 0 2.323-.882c2.11-2.183 7.871-5.235 4.725-8.877-3.241-3.556-6.96 1.807-9.374 3.642a3.523 3.523 0 0 0 2.326 6.117z"/></g></svg>