<svg id="icon" height="512" viewBox="0 0 340 340" width="512" xmlns="http://www.w3.org/2000/svg"><path d="m169.522 299.742c6.132-71.922 9.628-139.643 0-186.438 0 0-75.543-38.014-153.33-2.725a9.812 9.812 0 0 0 -5.714 8.95v180.213z" fill="#bac7e5"/><path d="m169.522 299.742c4.806-78.156 9.409-159.969 16.7-193.06 26.728-9.034 81.8-21.395 137.584 3.9a9.814 9.814 0 0 1 5.715 8.95v180.21z" fill="#fff"/><path d="m186.223 106.683a147.159 147.159 0 0 0 -16.7 6.621v186.438h16.7z" fill="#bac7e5"/><path d="m160.691 295.932c-22.8-8.928-86.357-28.133-150.213 3.81v29.532c72.871-20.688 129.92-8.668 150.624-2.723a30.692 30.692 0 0 0 16.858.025c20.877-5.935 78.585-18.02 151.562 2.7v-29.534c-63.934-31.982-128.178-12.691-151.154-3.777a24.322 24.322 0 0 1 -17.677-.033z" fill="#7988b7"/><path d="m158.4 284.439c-15.579-18.268-48.416-47.347-104.038-55.23a11.119 11.119 0 0 1 -9.608-10.985v-167.177a8.264 8.264 0 0 1 9.206-8.215c86 10.117 115.561 70.472 115.561 70.472v167.013a6.321 6.321 0 0 1 -11.121 4.122z" fill="#fff"/><path d="m80.992 182.057a83.507 83.507 0 0 1 22.8 11.032v-27.149a81.236 81.236 0 0 0 -22.8-11.162z" fill="#bac7e5"/><path d="m266.613 198.7s4.763 12.486 4.763 41.946h5.607c3.382 0 7.059-2.323 7.059-8.163v-33.783z" fill="#e57f6a"/><path d="m306.063 185.508a46.793 46.793 0 0 0 -5.371-17.416c-11.843-2.158-21.666-8.406-29.049-19.588q-3.382-.543-6.441-1.182a42.083 42.083 0 0 1 -16.255-7.2c-15.74-1.271-21.522-9.729-16.576-25.929a42.13 42.13 0 0 1 -.765-6.472q-.594-14.737-.024-29.709a54.072 54.072 0 0 1 2.2-30.517c.017-.163.034-.326.052-.489a8.783 8.783 0 0 1 8.783-8.783h1.611l2.019 1.031c5.382 2.748 12.4.794 15.243-4.539a15.541 15.541 0 0 0 1.721-5.746 7.574 7.574 0 0 0 -4.9-7.828c-11.547-4.366-32.406-3.178-32.406-3.178a15.431 15.431 0 0 0 -2.773-5.546 4.816 4.816 0 0 0 -8.518 2.928l-.171 5.394s-9.907 14.107-9.907 49.606l-.145 12.734c2.965 9.42 2.445 19.349-.337 29.608l-.469 41.124c3.185 10.12 3.316 19.93-.335 29.358l-.655 57.478h6.746a9.212 9.212 0 0 0 9.212-9.212v-19.854a9.814 9.814 0 0 1 9.814-9.814h3.644a9.814 9.814 0 0 1 9.814 9.814v29.069h6.575a9.212 9.212 0 0 0 9.213-9.212v-29.9h4.93c6.7-3.56 13.279-2.061 19.79 1.968a21.863 21.863 0 0 1 12.3 15.17 90.926 90.926 0 0 1 1.834 21.972h5.225a7.7 7.7 0 0 0 7.7-7.836c-.157-9.252-.821-26.102-3.329-47.304z" fill="#ffbe71"/><g fill="#3c3c4f"><path d="m277.7 184.351-1.924-.656a7.92 7.92 0 0 0 -9.546 3.7c-2.678 5.021-3.462 11.291-3.687 14.141h10.7c4.881 0 8.007 1.571 10.793 2.84 0-5.675-.22-11.6-1.36-15.026a7.934 7.934 0 0 0 -4.976-4.999z"/><path d="m274 148.863q-1.2-.173-2.356-.359a35.762 35.762 0 0 0 .221 9.756 9.48 9.48 0 0 0 2.376 4.681l4.588 5a9.613 9.613 0 0 0 6.705 3.137 32.409 32.409 0 0 0 15.154-2.982 39.142 39.142 0 0 0 -26.688-19.233z"/><path d="m242.6 167.451a37.809 37.809 0 0 1 4.384-4.386 6.976 6.976 0 0 1 7.789-.887 28.336 28.336 0 0 1 4.655 3.071 6.93 6.93 0 0 1 .657 9.994 24.653 24.653 0 0 1 -5.546 4.658 6.81 6.81 0 0 1 -6.688.1 42.293 42.293 0 0 1 -3.939-2.374 6.925 6.925 0 0 1 -1.312-10.176z"/><path d="m203.249 183.172c4.873 0 9.854-.669 12.6-2.95 4.229-3.512 7.536-9.927 9.359-14.062a6.21 6.21 0 0 0 -1.669-7.218 52.157 52.157 0 0 0 -10.623-6.693 6.292 6.292 0 0 0 -4.4-.39 24.446 24.446 0 0 0 -4.931 1.955z"/><path d="m232.379 114.194a48.261 48.261 0 0 0 -7.336.582 6.67 6.67 0 0 0 -5.528 6.264l-.62 12.314a6.722 6.722 0 0 0 2.1 5.219 30.625 30.625 0 0 0 15.262 7.977c4.869.885 9.28-2.438 12.692-6.429a42.242 42.242 0 0 1 -16.57-25.927z"/><path d="m214.148 85.088a23.262 23.262 0 0 0 -9.758-2.006l-.337 29.608c3.968-3.011 8.93-7.15 12.09-11.144a8.632 8.632 0 0 0 1.871-5.36v-5.186a6.438 6.438 0 0 0 -3.866-5.912z"/><path d="m233.783 47.5a50.737 50.737 0 0 0 -11.555 7.684 10.725 10.725 0 0 0 -3.341 7.838v2.833a10.633 10.633 0 0 0 3.9 8.329 19 19 0 0 0 8.8 3.832q.557-15.17 2.196-30.516z"/><circle cx="230.5" cy="28.939" r="3.721"/><circle cx="229.078" cy="186.988" r="3.721"/><circle cx="295.164" cy="190.709" r="3.721"/><path d="m105.871 163.121c-10.742-7.9-23.394-11.539-23.921-11.709a3.352 3.352 0 0 0 -4.458 3.366v27.279a3.5 3.5 0 0 0 2.5 3.355 81.466 81.466 0 0 1 21.738 10.5c3.006 1.558 5.561-.512 5.561-2.828v-27.144a3.5 3.5 0 0 0 -1.42-2.819zm-5.575 23.6a87.925 87.925 0 0 0 -15.8-7.222v-19.828a76.482 76.482 0 0 1 15.8 8.075z"/><path d="m80.219 83.122c1.088.246 3.838.91 4.134.91 3.991.05 4.814-5.888.889-6.885-2.733-.817-6.721-2.014-7.663 1.789a3.5 3.5 0 0 0 2.64 4.186z"/><path d="m104.236 91.78c22.528 9.993 38.595 27.354 38.754 27.527 2.85 2.641 8.423-.563 5.164-4.725-.689-.754-17.169-18.594-41.079-29.2-4.175-1.831-7.025 4.518-2.839 6.398z"/><path d="m80.219 108.976c35.23 7.981 62.544 35.988 62.833 36.252 4.13 3.436 7.735-1.943 5.04-4.858-1.166-1.211-29.009-29.767-66.326-38.221-4.484-.936-6.034 5.725-1.547 6.827z"/><path d="m80.219 134.831c35.23 7.981 62.561 35.97 62.833 36.252a3.99 3.99 0 0 0 4.948.09 3.421 3.421 0 0 0 .092-4.948c-1.166-1.211-29.009-29.767-66.326-38.221a3.5 3.5 0 1 0 -1.547 6.827z"/><path d="m122.73 171.839c-4-2.2-7.4 3.87-3.4 6.118 12.46 6.928 23.568 18.813 23.678 18.932.69.743 3.26 1.675 4.946.184a3.47 3.47 0 0 0 .186-4.945c-.484-.519-11.956-12.808-25.41-20.289z"/><path d="m147.952 222.928a3.488 3.488 0 0 0 .186-4.945c-.482-.519-11.954-12.808-25.409-20.289a3.5 3.5 0 0 0 -3.4 6.118c12.46 6.928 23.568 18.813 23.678 18.932.693.743 3.308 1.675 4.945.184z"/><path d="m331.105 110.182c-28.643-14.332-57.305-18.382-81.498-18.043-4.583.13-4.533 6.976.069 7 22.709-.32 49.511 3.368 76.346 16.343v178.718c-56.72-25.19-111-16.435-153 .142v-178.802c1.507-.673 8.262-3.3 11.474-4.534a3.637 3.637 0 0 0 2.388-3.183 3.514 3.514 0 0 0 -4.784-3.423c-2.756 1.061-9.481 3.653-11.087 4.36-24.381-36.934-60.049-64.06-126.006-70.29a3.485 3.485 0 0 0 -3.753 3.492v56c-5.922 1.638-20.582 6.016-32.444 12.264a3.47 3.47 0 0 0 -1.832 3.074v215.85a3.586 3.586 0 0 0 4.456 3.491c86.527-24.22 145.254-3.147 158.065-.1 12.952-2.916 72.478-24.2 159.067.1 2.867.532 4.456-.931 4.456-3.469v-215.872a3.49 3.49 0 0 0 -1.917-3.118zm-317.127 5.264a174.639 174.639 0 0 1 27.276-10.2v122.84a3.5 3.5 0 0 0 3.249 3.491c61.3 6.276 90.942 27.763 116.473 60.7-43.463-15.263-90.383-22.42-147 1.919zm152.044 208.926c-44.022-12.282-88.592-15.48-152.044.305v-7.486c67.98-29.651 141.1-4.207 152.044-.072zm0-14.728c-40.945-14.009-97.511-22.174-152.044-.068v-7.656c54.679-26.458 113.444-16.715 152.044.047zm0-22.4c-4.548-6.351-36.4-56.488-117.768-62.39v-179.096c59.8 5.692 98.087 35.322 117.768 68.407zm160 37.433c-49.289-15.35-120.8-11.326-153-.287v-7.19c10.3-3.885 84.571-29.854 153-.01zm0-15.1c-54.438-22.179-112.194-13.839-153 .152v-7.748c12.5-5.553 83.087-33.867 153-.061z"/><path d="m202.6 244.15h6.745a12.726 12.726 0 0 0 12.712-12.712v-19.857c.331-5.85 5.082-6.676 9.959-6.313a6.319 6.319 0 0 1 6.312 6.313v29.069a3.5 3.5 0 0 0 3.5 3.5h6.572a12.727 12.727 0 0 0 12.713-12.712v-26.4h3.6c1.362 6.113 3.157 17.583 3.157 35.61a3.5 3.5 0 0 0 3.5 3.5h5.607c5.085 0 10.559-3.649 10.559-11.662v-20.632c6.052 5.632 5.591 28.959 5.43 28.6-.135 4.753 5.668 3.593 8.72 3.7a11.254 11.254 0 0 0 11.2-11.4c-.173-10.286-.9-26.9-3.351-47.659a50.183 50.183 0 0 0 -5.838-18.777c-20.666-30.156-33.261-14.673-52.662-29-19.862-13.965-16.169-37.667-15.96-59.139.371-9.809 1.094-20.006 2.185-30.311a5.59 5.59 0 0 1 6.12-6.14c17.392 10.256 33.131-15.9 16.164-23.856-9.723-3.676-25.093-3.672-31.222-3.5-3-9.6-16.258-9.667-17.212.87l-.14 4.449c-5.786 8.506-11.01 33.019-10.082 63.355-.195 16.888-.612 53.6-.808 70.732-.215 18.66-.769 67.6-.989 86.837a3.521 3.521 0 0 0 3.509 3.535zm4.464-88.1c1.378-.488 2.919-1.336 4.334-.648 1.245.926 12.446 5.386 10.613 9.348-4.344 8.483-6.252 14.212-15.215 14.78zm.789-69.221a21.528 21.528 0 0 1 4.91 1.474c2.689.9 1.523 5.837 1.756 7.885-.4 4.066-3.728 5.832-6.876 9.074zm72.237 112.144c-3.814-1.244-9.574-.892-13.583-.931.855-3.837 2-12.821 8.146-11.032l1.924.656c4.009 1.774 3.941 6.803 3.508 11.305zm-3.1 38.179h-2.129c-.2-15.331-1.691-25.811-2.979-32.111a19.486 19.486 0 0 1 8.667 1.522v25.927c-.007 4.21-2.495 4.66-3.566 4.66zm18.486-70.769c-5.517 1.124-10.185 2.72-14.063-.806-4.147-4.589-6.929-6.072-6.493-12.962a36.021 36.021 0 0 1 20.549 13.766zm-51.727-25.94c-2.04 1.768-4.455 3.1-6.858 2.665-6.226-1.245-14.421-5.848-14.494-9.576l.62-12.313c.247-3.42 3.948-3.184 6.61-3.428a45.53 45.53 0 0 0 14.115 22.65zm-15.473-67.015c-4.876-1.961-6.332-5.294-5.889-10.407-.1-4.479 4.021-6.905 7.252-9.141-.603 6.608-1.059 13.148-1.363 19.548zm-10.969-50.674c.993-1.172.655-5.849.8-7.3a1.3 1.3 0 0 1 2.324-.809c1.879 1.789 1.843 7.173 5.668 6.81.2-.012 20.261-1.092 30.97 2.958 3.729 1.363 2.812 5.965 1.327 8.654a8.089 8.089 0 0 1 -10.563 3.068c-.982-.464-2.5-1.478-3.61-1.414a12.536 12.536 0 0 0 -13.761 10.556c-6.322 3.424-15.471 8.982-15.078 17.739-.916 8.905 4.236 15.359 12.618 17.743-.234 10.268-.391 20.208.331 30.1-14.595.374-12.155 11.79-12.935 22.316-.338 8.571 10.611 14.686 20.23 16.814 4.753.618 8.357-.333 13.828-5.309a48.027 48.027 0 0 0 18.488 6.736c-.535 9.388 2.061 12.575 8.3 18.886 6.213 6.308 14.323 4.691 22.758 2.259a45.437 45.437 0 0 1 3.581 13.354c2.42 20.464 3.132 36.829 3.3 46.955.048 3.243-2.972 4.664-5.851 4.276-.019-10.588-1.022-28.554-13.436-35.311 2.075-9.658-.167-19.045-9.7-21.457-11.745-3.75-16.5 8.847-17.49 17.658-2.51-.282-5.26.528-5.3 3.5v29.9c-.224 5.085-4.5 6.091-8.792 5.712v-25.567c-.194-9.425-8.139-14.281-16.958-13.313a13.327 13.327 0 0 0 -13.313 13.313v19.857c-.256 5.2-4.566 6.067-8.917 5.712l.576-50.61c12.293 0 17.591-10 21.7-18.967a9.767 9.767 0 0 0 -2.6-11.292c-6.488-4.66-11.981-9.541-18.669-7.663l.389-34.2c7.085-6.267 13.4-9.648 13.981-18.234.884-10.991-2.949-14.824-13.586-16.414l.107-9.425c.011-33.658 9.202-47.473 9.283-47.591z"/><path d="m241.931 180.509c3.967 3 9.7 5.455 14.4 2.4 4.328-2.671 9.681-7.311 9.045-13.154-.27-5.276-4.609-8.347-8.959-10.665-6.308-3.593-12.638 1.134-16.489 6.1a10.49 10.49 0 0 0 2.003 15.319zm3.341-10.8c2.032-2.013 4.547-6.089 7.858-4.444 2.122 1.37 4.94 2.322 5.266 5 .313 2.91-6.3 8.546-8.892 6.644-2.87-1.378-6.882-3.793-4.232-7.197z"/></g></svg>