<svg id="icon" height="512" viewBox="0 0 340 340" width="512" xmlns="http://www.w3.org/2000/svg"><path d="m169.522 298.563c6.132-71.921 9.628-139.643 0-186.438 0 0-75.543-38.014-153.33-2.724a9.811 9.811 0 0 0 -5.714 8.949v180.213z" fill="#bac7e5"/><path d="m169.522 298.563c4.806-78.156 9.409-159.968 16.7-193.06 26.728-9.033 81.8-21.394 137.584 3.9a9.812 9.812 0 0 1 5.715 8.95v180.21z" fill="#fff"/><path d="m186.223 105.5a147.159 147.159 0 0 0 -16.7 6.621v186.442h16.7z" fill="#bac7e5"/><path d="m160.691 294.754c-22.8-8.929-86.357-28.133-150.213 3.809v29.537c72.871-20.689 129.92-8.668 150.624-2.724a30.692 30.692 0 0 0 16.858.026c20.877-5.935 78.585-18.021 151.562 2.7v-29.539c-63.934-31.981-128.178-12.691-151.154-3.777a24.327 24.327 0 0 1 -17.677-.032z" fill="#7988b7"/><path d="m158.4 283.26c-15.579-18.268-48.416-47.346-104.038-55.229a11.12 11.12 0 0 1 -9.608-10.986v-167.177a8.262 8.262 0 0 1 9.206-8.214c86 10.117 115.561 70.471 115.561 70.471v167.013a6.321 6.321 0 0 1 -11.121 4.122z" fill="#fff"/><path d="m80.992 180.879a83.521 83.521 0 0 1 22.8 11.031v-27.149a81.236 81.236 0 0 0 -22.8-11.162z" fill="#bac7e5"/><path d="m297.16 106.223a45.528 45.528 0 1 0 -91.055 0s-.679 29.892 22.316 52.886a185.029 185.029 0 0 0 46.424 0c22.994-22.994 22.315-52.886 22.315-52.886z" fill="#ffbe71"/><path d="m237.2 144.877v16.552a3.5 3.5 0 1 0 7 0v-16.552a14.07 14.07 0 0 0 -6.552-11.943 21.252 21.252 0 0 1 -9.15-12.277 25.421 25.421 0 0 0 13.322 4.022c12.3 0 16.659-10.472 16.659-19.44 0-7.278-4.979-13.2-11.1-13.2s-11.1 5.921-11.1 13.2c0 5.628 2.982 10.43 7.162 12.326a11.656 11.656 0 0 1 -1.62.114c-8.719 0-15.164-7.551-15.22-7.619a3.5 3.5 0 0 0 -6.195 2.218c-.069 15.619 8.424 23.349 13.492 26.567a7.1 7.1 0 0 1 3.302 6.032zm10.177-45.837c2.185 0 4.1 2.9 4.1 6.2s-1.916 6.2-4.1 6.2-4.1-2.9-4.1-6.2 1.916-6.2 4.1-6.2z" fill="#525263"/><path d="m280.82 109.131a3.526 3.526 0 0 0 -3.735.5c-.182.152-4.555 3.735-13.065 3.735a3.5 3.5 0 0 0 0 7 32.193 32.193 0 0 0 11.291-1.953 21.5 21.5 0 0 1 -9.693 14.516 14.072 14.072 0 0 0 -6.551 11.943v16.552a3.5 3.5 0 0 0 7 0v-16.547a7.1 7.1 0 0 1 3.3-6.032c5.069-3.218 13.561-10.948 13.492-26.567a3.5 3.5 0 0 0 -2.039-3.147z" fill="#525263"/><path d="m228.421 171.764v-12.655h46.424v12.655a7.161 7.161 0 0 1 -7.161 7.16h-32.1a7.161 7.161 0 0 1 -7.163-7.16z" fill="#3c3c4f"/><path d="m245.476 78.366a3.552 3.552 0 0 0 -3.227-4.878h-.049a21.162 21.162 0 0 0 -20.652 16.553 3.537 3.537 0 0 0 4 4.23c12.224-1.946 17.593-9.897 19.928-15.905z" fill="#fff"/><g fill="#3c3c4f"><path d="m105.871 161.942c-10.742-7.9-23.394-11.538-23.921-11.709a3.352 3.352 0 0 0 -4.458 3.366v27.279a3.5 3.5 0 0 0 2.5 3.356 81.4 81.4 0 0 1 21.738 10.5c3.006 1.558 5.561-.513 5.561-2.829v-27.144a3.5 3.5 0 0 0 -1.42-2.819zm-5.575 23.6a87.86 87.86 0 0 0 -15.8-7.221v-19.829a76.582 76.582 0 0 1 15.8 8.075z"/><path d="m80.219 81.943c1.088.246 3.838.911 4.134.911 3.991.049 4.814-5.888.889-6.885-2.733-.818-6.721-2.015-7.663 1.788a3.5 3.5 0 0 0 2.64 4.186z"/><path d="m104.236 90.6c22.528 9.994 38.595 27.354 38.754 27.528 2.85 2.641 8.423-.564 5.164-4.726-.689-.754-17.169-18.594-41.079-29.2-4.175-1.83-7.025 4.518-2.839 6.398z"/><path d="m80.219 107.8c35.23 7.981 62.544 35.987 62.833 36.251 4.13 3.436 7.735-1.942 5.04-4.857-1.166-1.212-29.009-29.767-66.326-38.221-4.484-.938-6.034 5.727-1.547 6.827z"/><path d="m80.219 133.653c35.23 7.981 62.561 35.969 62.833 36.251a3.99 3.99 0 0 0 4.948.09 3.419 3.419 0 0 0 .092-4.947c-1.166-1.212-29.009-29.767-66.326-38.221a3.5 3.5 0 1 0 -1.547 6.827z"/><path d="m122.73 170.66c-4-2.2-7.4 3.87-3.4 6.118 12.46 6.929 23.568 18.813 23.678 18.932.69.743 3.26 1.675 4.946.184a3.469 3.469 0 0 0 .186-4.944c-.484-.52-11.956-12.809-25.41-20.29z"/><path d="m147.952 221.749a3.487 3.487 0 0 0 .186-4.944c-.482-.52-11.954-12.809-25.409-20.29a3.5 3.5 0 0 0 -3.4 6.118c12.46 6.928 23.568 18.813 23.678 18.932.693.743 3.308 1.676 4.945.184z"/><path d="m331.105 109c-4.664-2.334-9.328-4.389-13.974-6.2a3.5 3.5 0 1 0 -2.517 6.535c3.8 1.48 7.6 3.126 11.408 4.967v178.715c-56.72-25.19-111-16.436-153 .141v-178.8c2.148-.959 9.506-3.825 14.793-5.709a3.512 3.512 0 1 0 -2.359-6.617c-4.855 1.73-12.056 4.5-14.44 5.548-24.384-36.932-60.052-64.06-126.009-70.289a3.486 3.486 0 0 0 -3.753 3.492v56c-5.922 1.639-20.582 6.017-32.444 12.264a3.473 3.473 0 0 0 -1.832 3.078v215.847a3.585 3.585 0 0 0 4.456 3.49c86.527-24.219 145.254-3.147 158.065-.1 12.976-2.924 72.487-24.2 159.067.1 2.867.532 4.456-.932 4.456-3.47v-215.867a3.49 3.49 0 0 0 -1.917-3.125zm-317.127 5.267a174.741 174.741 0 0 1 27.276-10.2v122.84a3.5 3.5 0 0 0 3.246 3.493c61.3 6.276 90.942 27.763 116.473 60.7-43.463-15.262-90.383-22.419-147 1.919zm152.044 208.926c-44.022-12.282-88.592-15.48-152.044.307v-7.486c67.98-29.652 141.1-4.208 152.044-.072zm0-14.728c-40.945-14.008-97.511-22.174-152.044-.067v-7.656c54.679-26.459 113.444-16.716 152.044.047zm0-22.4c-4.548-6.351-36.4-56.489-117.768-62.39v-179.096c59.8 5.692 98.087 35.323 117.768 68.407zm160 37.433c-49.289-15.351-120.8-11.326-153-.288v-7.189c10.3-3.885 84.571-29.854 153-.009zm0-15.1c-54.437-22.179-112.194-13.839-153 .153v-7.751c12.5-5.553 83.087-33.867 153-.06z"/><path d="m251.633 57.2c-49.432 2.687-67.3 56.541-26.712 103.322v11.247a10.673 10.673 0 0 0 10.661 10.661h32.1a10.674 10.674 0 0 0 10.661-10.661v-11.252c40.378-46.859 23.185-100.259-26.71-103.317zm16.051 118.23h-32.1a3.665 3.665 0 0 1 -3.661-3.661v-8.749a186.482 186.482 0 0 0 39.424 0v8.749a3.666 3.666 0 0 1 -3.663 3.656zm5.522-19.641c-2.375.283-4.756.5-7.139.691v-11.6a7.1 7.1 0 0 1 3.3-6.032c5.069-3.218 13.561-10.948 13.492-26.567a3.5 3.5 0 0 0 -2.041-3.147c-4.387-1.605-4.6 4.242-16.8 4.24a3.5 3.5 0 0 0 -3.5 3.5c.385 6.565 12.238 2.247 14.791 1.547-2.579 15.347-15.94 12.91-16.244 26.459v12.017q-7.431.3-14.868 0v-12.02c-.04-12.54-12.536-11.489-15.7-24.22 29.872 17.751 40.029-26.479 18.881-28.618-6.122 0-11.1 5.922-11.1 13.2 0 5.628 2.982 10.43 7.162 12.326-7.928 1.556-17.254-7.444-16.84-7.5a3.522 3.522 0 0 0 -6.195 2.218c.31 24.928 16.654 23.6 16.8 32.6v11.6c-2.383-.189-4.764-.408-7.139-.691-36.04-41.91-21.974-88.955 21.572-91.589 43.523 2.631 57.627 49.626 21.568 91.581zm-25.829-44.346c-5.343-.222-5.342-12.178 0-12.4 5.344.219 5.343 12.175 0 12.395z"/><path d="m267.356 188.648a168.379 168.379 0 0 1 -31.447 0 3.5 3.5 0 0 0 -.655 6.969c5.434.511 10.906.767 16.378.767s10.945-.256 16.379-.767a3.5 3.5 0 0 0 -.655-6.969z"/><path d="m267.356 201.856a168.379 168.379 0 0 1 -31.447 0 3.5 3.5 0 0 0 -.655 6.969c5.434.511 10.906.767 16.378.767s10.945-.256 16.379-.767a3.5 3.5 0 0 0 -.655-6.969z"/><path d="m255.133 22.362v-10.433a3.5 3.5 0 0 0 -7 0v10.433c.02 4.574 6.98 4.579 7 0z"/><path d="m193.97 46.814c3.285 3.183 8.154-1.794 4.891-5.008l-7.628-7.45c-3.286-3.182-8.153 1.8-4.891 5.008z"/><path d="m306.851 47.81a3.485 3.485 0 0 0 2.444-1l7.628-7.45a3.5 3.5 0 0 0 -4.89-5.008l-7.628 7.45a3.523 3.523 0 0 0 2.446 6.008z"/></g></svg>