<svg id="icon" height="512" viewBox="0 0 340 340" width="512" xmlns="http://www.w3.org/2000/svg"><path d="m169.522 298.118c6.132-71.922 9.628-139.643 0-186.438 0 0-75.543-38.014-153.33-2.725a9.812 9.812 0 0 0 -5.714 8.95v180.213z" fill="#bac7e5"/><path d="m169.522 298.118c4.806-78.156 9.409-159.969 16.7-193.06 26.728-9.034 81.8-21.4 137.584 3.9a9.812 9.812 0 0 1 5.715 8.95v180.21z" fill="#fff"/><path d="m186.223 105.059a147.159 147.159 0 0 0 -16.7 6.621v186.438h16.7z" fill="#bac7e5"/><path d="m160.691 294.308c-22.8-8.928-86.357-28.133-150.213 3.81v29.532c72.871-20.688 129.92-8.668 150.624-2.723a30.692 30.692 0 0 0 16.858.025c20.877-5.934 78.585-18.02 151.562 2.7v-29.534c-63.934-31.982-128.178-12.691-151.154-3.777a24.322 24.322 0 0 1 -17.677-.033z" fill="#7988b7"/><path d="m158.4 282.815c-15.579-18.268-48.416-47.347-104.038-55.23a11.119 11.119 0 0 1 -9.607-10.985v-167.177a8.264 8.264 0 0 1 9.206-8.215c86 10.117 115.561 70.472 115.561 70.472v167.013a6.321 6.321 0 0 1 -11.122 4.122z" fill="#fff"/><path d="m80.992 180.433a83.507 83.507 0 0 1 22.8 11.032v-27.149a81.236 81.236 0 0 0 -22.8-11.162z" fill="#bac7e5"/><path d="m304.4 174.546c-1.225-47.527-54.373-43.279-54.373-43.279s-53.148-4.248-54.373 43.279c-.808 31.327 22.809 42.118 39.175 45.835h30.395c16.369-3.717 39.986-14.508 39.176-45.835z" fill="#ffbe71"/><path d="m207.916 129.666s1.936-51.872-24.968-77.294l3.4-5.906s29.785 8.734 43.652 33.126c0 0 1.027-41.857 36.207-56.494l3.339 4.622s-14.381 24.652-1.8 50.588c0 0 11.813-26.45 43.141-31.329l3.595 5.393s-27.99 27.733-22.6 75.5z" fill="#b0ccff"/><path d="m291.848 126.641a175.284 175.284 0 0 0 -41.818-5.449 175.278 175.278 0 0 0 -41.819 5.449 7.457 7.457 0 0 0 -5.566 7.988 7.46 7.46 0 0 0 9.041 6.533c15.768-3.507 60.919-3.507 76.687 0a7.461 7.461 0 0 0 9.042-6.533 7.459 7.459 0 0 0 -5.567-7.988z" fill="#758fdf"/><circle cx="179.643" cy="44.763" fill="#758fdf" r="12.109"/><circle cx="268.255" cy="24.448" fill="#758fdf" r="12.109"/><circle cx="316.912" cy="46.107" fill="#758fdf" r="12.109"/><path d="m250.03 180.683c-13.813 0-21.908-3.8-25.732-6.3a2.892 2.892 0 0 0 -4.258 1.366c-5.642 13.89-3.61 24.358 1.4 32.093h57.185c5.007-7.735 7.039-18.2 1.4-32.093a2.892 2.892 0 0 0 -4.258-1.366c-3.829 2.497-11.925 6.3-25.737 6.3z" fill="#3c3c4f"/><path d="m250.03 194.341a36.941 36.941 0 0 0 -28.585 13.5 41.922 41.922 0 0 0 13.388 12.541 76.1 76.1 0 0 0 15.2 1.953 76.107 76.107 0 0 0 15.2-1.953 41.929 41.929 0 0 0 13.387-12.541 36.939 36.939 0 0 0 -28.59-13.5z" fill="#ff5f89"/><g fill="#3c3c4f"><path d="m105.871 161.5c-10.742-7.9-23.394-11.538-23.921-11.709a3.352 3.352 0 0 0 -4.458 3.366v27.279a3.5 3.5 0 0 0 2.5 3.355 81.466 81.466 0 0 1 21.738 10.5c3.006 1.559 5.561-.512 5.561-2.828v-27.147a3.5 3.5 0 0 0 -1.42-2.816zm-5.575 23.6a87.925 87.925 0 0 0 -15.8-7.222v-19.831a76.482 76.482 0 0 1 15.8 8.075z"/><path d="m80.219 81.5c1.088.246 3.838.91 4.134.91 3.991.05 4.814-5.888.889-6.885-2.733-.817-6.721-2.014-7.663 1.789a3.5 3.5 0 0 0 2.64 4.186z"/><path d="m104.236 90.156c22.528 9.993 38.595 27.354 38.754 27.527 2.85 2.641 8.423-.563 5.164-4.725-.689-.754-17.169-18.594-41.079-29.2-4.175-1.831-7.025 4.517-2.839 6.398z"/><path d="m80.219 107.352c35.23 7.981 62.544 35.988 62.833 36.252 4.13 3.436 7.735-1.943 5.04-4.858-1.166-1.211-29.009-29.767-66.326-38.221-4.484-.936-6.034 5.725-1.547 6.827z"/><path d="m80.219 133.207c35.23 7.981 62.561 35.97 62.833 36.252a3.99 3.99 0 0 0 4.948.09 3.421 3.421 0 0 0 .092-4.948c-1.166-1.211-29.009-29.767-66.326-38.221a3.5 3.5 0 1 0 -1.547 6.827z"/><path d="m122.73 170.215c-4-2.2-7.4 3.87-3.4 6.118 12.46 6.929 23.568 18.813 23.678 18.932.69.743 3.26 1.675 4.946.184a3.47 3.47 0 0 0 .186-4.945c-.484-.519-11.956-12.804-25.41-20.289z"/><path d="m147.952 221.3a3.488 3.488 0 0 0 .186-4.945c-.482-.519-11.954-12.808-25.409-20.289a3.5 3.5 0 0 0 -3.4 6.118c12.46 6.928 23.568 18.813 23.678 18.932.693.747 3.308 1.684 4.945.184z"/><path d="m331.106 108.558a166.138 166.138 0 0 0 -17.867-7.664 3.5 3.5 0 1 0 -2.35 6.595 159.024 159.024 0 0 1 15.133 6.369v178.713c-56.72-25.189-111-16.435-153 .142v-178.8a170.646 170.646 0 0 1 16.052-6.1c4.361-1.511 2.244-8.036-2.184-6.677-7.3 2.392-12.739 4.624-15.874 6-24.384-36.936-60.052-64.061-126.009-70.29a3.485 3.485 0 0 0 -3.753 3.492v56c-5.922 1.638-20.582 6.016-32.444 12.262a3.47 3.47 0 0 0 -1.832 3.077v215.849a3.586 3.586 0 0 0 4.456 3.491c86.527-24.22 145.254-3.147 158.065-.1 12.952-2.916 72.478-24.2 159.067.1 2.867.533 4.456-.931 4.456-3.469v-215.869a3.489 3.489 0 0 0 -1.916-3.121zm-317.128 5.264a174.741 174.741 0 0 1 27.276-10.2v122.84a3.5 3.5 0 0 0 3.249 3.491c61.3 6.276 90.942 27.763 116.473 60.7-43.463-15.263-90.383-22.42-147 1.919zm152.044 208.926c-44.024-12.282-88.592-15.48-152.044.306v-7.487c67.98-29.651 141.1-4.207 152.044-.072zm0-14.728c-40.945-14.009-97.511-22.174-152.044-.068v-7.652c54.679-26.458 113.444-16.715 152.044.048zm0-22.4c-4.548-6.351-36.4-56.488-117.768-62.39v-179.096c59.8 5.692 98.087 35.323 117.768 68.407zm160 37.434c-49.289-15.351-120.8-11.327-153-.288v-7.189c10.3-3.885 84.571-29.854 153-.01zm0-15.1c-54.438-22.179-112.194-13.839-153 .153v-7.749c12.5-5.553 83.087-33.867 153-.061z"/><path d="m179.643 60.372a15.5 15.5 0 0 0 5.154-.893c16.849 20.259 19.322 52.511 19.614 65.015-6.769 3.786-7.061 14.558-.281 18.589-7.611 7.848-11.637 18.365-11.973 31.372-2.025 31.89 24.26 51.3 57.873 51.378 25.138-1.793 58.642-8.78 57.872-51.377-.336-13-4.373-23.518-11.989-31.373 7.055-4.151 6.4-15.443-.859-18.923-2.564-31.555 10.021-53.684 16.929-63.24 14.4 4.97 26.762-12.537 17.216-24.44-8.695-11.439-27.673-5.217-27.885 9.156a62.342 62.342 0 0 0 -32.988 24.714 52.033 52.033 0 0 1 .025-30.293c12.639.254 20.265-15.47 12.192-25.236-9.6-12.5-30.137-3.737-27.73 11.84-17.079 12.581-23.08 31.757-25.183 43.239-10.01-12.529-23.6-19.979-32.444-23.821a15.627 15.627 0 0 0 -15.543-16.922c-20.582.535-20.581 30.678 0 31.215zm110.826 69.528c5.343.819 4.025 8.927-1.336 7.841-16.4-3.648-61.525-3.656-78.074-.027a3.968 3.968 0 0 1 -1.984-7.685c21.532-6.668 59.585-6.813 81.394-.129zm-12.643 72c-14.791-14.615-40.8-14.615-55.593 0-2.994-7.041-2.737-15.14.8-24.184 11.741 8.47 42.31 8.443 54 0 3.53 9.038 3.787 17.138.793 24.184zm-33.818 16.5a26.33 26.33 0 0 1 -18.095-10.319c12.461-13.539 35.773-13.537 48.233 0-7.089 9.547-18.779 11.838-30.138 10.319zm35.951-6.414c8.8-11.582 9.226-25.4 1.671-41.235a3.546 3.546 0 0 0 -5.682-.909c-9.433 9.665-42.592 9.516-51.809.027a3.525 3.525 0 0 0 -5.709.882c-7.6 15.942-7.12 29.829 1.841 41.459-23.426-9.006-29.77-51-7.119-67.777 15.523-3.169 58.386-3.164 73.825.014 20.951 15.228 18.349 58.167-7.018 67.541zm28.406-166.917c1.548-11.218 18.281-9.172 17.093 2.075-1.545 11.216-18.279 9.175-17.093-2.075zm-48.656-21.659c1.549-11.219 18.281-9.171 17.093 2.076-1.545 11.214-18.28 9.174-17.093-2.076zm-32.752 57.911c1.625 3.059 6.563 1.8 6.542-1.644.008-.305.985-29.468 22.012-46.248a15.205 15.205 0 0 0 6 5.086c-3.012 10.672-4.47 25.734 3.091 41.321a3.5 3.5 0 0 0 3.2 1.968c5.451-.343 7.9-20.147 34.9-29.28a15.086 15.086 0 0 0 3.298 4.727 101.839 101.839 0 0 0 -18.1 64.849c-20.09-5.675-56.825-5.482-76.552.186-.535-14.261-3.713-45.67-20.582-66.586a15.715 15.715 0 0 0 2.255-2.928c9.76 4.328 25.197 13.174 33.936 28.549zm-47.314-45.168c11.314.2 11.312 17.018 0 17.219-11.315-.203-11.313-17.018 0-17.219z"/><path d="m225.566 151.246c-4.538-.192-4.877 6.748-.314 6.993a23.458 23.458 0 0 1 13.48 5.89 3.5 3.5 0 1 0 4.83-5.066 30.276 30.276 0 0 0 -17.996-7.817z"/><path d="m274.493 151.246a30.28 30.28 0 0 0 -18 7.817 3.5 3.5 0 1 0 4.83 5.066 23.455 23.455 0 0 1 13.481-5.89c4.571-.228 4.241-7.178-.311-6.993z"/></g></svg>