<svg id="icon" height="512" viewBox="0 0 340 340" width="512" xmlns="http://www.w3.org/2000/svg"><path d="m169.522 294.551c6.132-71.921 9.628-139.642 0-186.438 0 0-75.543-38.013-153.33-2.724a9.812 9.812 0 0 0 -5.714 8.949v180.213z" fill="#bac7e5"/><path d="m169.522 294.551c4.806-78.155 9.409-159.968 16.7-193.059 26.728-9.034 81.8-21.4 137.584 3.9a9.812 9.812 0 0 1 5.715 8.95v180.209z" fill="#fff"/><path d="m186.223 101.493a147.3 147.3 0 0 0 -16.7 6.62v186.438h16.7z" fill="#bac7e5"/><path d="m160.691 290.742c-22.8-8.928-86.357-28.133-150.213 3.809v29.533c72.871-20.684 129.922-8.668 150.622-2.724a30.692 30.692 0 0 0 16.858.026c20.877-5.935 78.585-18.021 151.562 2.7v-29.535c-63.934-31.981-128.178-12.69-151.154-3.777a24.317 24.317 0 0 1 -17.675-.032z" fill="#7988b7"/><path d="m158.4 279.249c-15.579-18.269-48.416-47.347-104.038-55.23a11.119 11.119 0 0 1 -9.608-10.985v-167.178a8.262 8.262 0 0 1 9.206-8.214c86 10.117 115.561 70.471 115.561 70.471v167.014a6.321 6.321 0 0 1 -11.121 4.122z" fill="#fff"/><path d="m80.992 176.867a83.521 83.521 0 0 1 22.808 11.033v-27.151a81.217 81.217 0 0 0 -22.8-11.161z" fill="#bac7e5"/><path d="m246.244 61.189c-.793 40.205-.158 81.858 1.547 124.6h14.193l7.464-142.135z" fill="#9fc1ff"/><path d="m247.79 60.02v105.732c-3.447 3.264-8.793 4.592-14.98 5.063l-6.678-127.166z" fill="#fff"/><path d="m226.133 43.649 21.658 20.463 21.657-20.463-21.657-27.709z" fill="#fff"/><path d="m232.811 170.815.786 14.969h14.194v-20.032z" fill="#9fc1ff"/><path d="m235.681 195.247 2.297 41.548h19.625l2.297-41.548z" fill="#3c3c4f"/><path d="m247.791 197.672h-31.791a8.591 8.591 0 0 1 -8.591-8.591v-6.551h40.379a38.177 38.177 0 0 1 .003 15.142z" fill="#ffbe71"/><path d="m230.226 235.99h35.129a0 0 0 0 1 0 0v5.876a8.048 8.048 0 0 1 -8.048 8.048h-19.033a8.048 8.048 0 0 1 -8.048-8.048v-5.876a0 0 0 0 1 0 0z" fill="#ffbe71"/><path d="m247.791 197.672h31.787a8.591 8.591 0 0 0 8.591-8.591v-6.551h-40.378z" fill="#e57f6a"/><g fill="#3c3c4f"><path d="m105.871 157.931c-10.742-7.9-23.394-11.539-23.921-11.709a3.352 3.352 0 0 0 -4.458 3.366v27.279a3.5 3.5 0 0 0 2.5 3.355 81.431 81.431 0 0 1 21.738 10.5c3.006 1.558 5.561-.512 5.561-2.829v-27.144a3.5 3.5 0 0 0 -1.42-2.818zm-5.575 23.6a87.785 87.785 0 0 0 -15.8-7.222v-19.829a76.543 76.543 0 0 1 15.8 8.076z"/><path d="m80.219 77.931c1.088.247 3.838.911 4.134.911 3.991.049 4.814-5.888.889-6.885-2.733-.818-6.721-2.014-7.663 1.788a3.5 3.5 0 0 0 2.64 4.186z"/><path d="m104.236 86.59c22.528 9.993 38.595 27.353 38.754 27.527 2.85 2.641 8.423-.564 5.164-4.726-.689-.753-17.169-18.593-41.079-29.2-4.175-1.83-7.025 4.517-2.839 6.399z"/><path d="m80.219 103.786c35.23 7.981 62.544 35.987 62.833 36.251 4.13 3.436 7.735-1.942 5.04-4.857-1.166-1.211-29.009-29.767-66.326-38.221-4.484-.936-6.034 5.725-1.547 6.827z"/><path d="m80.219 129.641c35.23 7.981 62.561 35.97 62.833 36.251a3.99 3.99 0 0 0 4.948.09 3.419 3.419 0 0 0 .092-4.947c-1.166-1.211-29.009-29.767-66.326-38.221a3.5 3.5 0 1 0 -1.547 6.827z"/><path d="m122.73 166.648c-4-2.2-7.4 3.87-3.4 6.119 12.46 6.928 23.568 18.812 23.678 18.932.69.742 3.26 1.675 4.946.184a3.47 3.47 0 0 0 .186-4.945c-.484-.52-11.956-12.808-25.41-20.29z"/><path d="m147.952 217.738a3.488 3.488 0 0 0 .186-4.945c-.482-.52-11.954-12.809-25.409-20.29a3.5 3.5 0 0 0 -3.4 6.118c12.46 6.929 23.568 18.813 23.678 18.933.693.746 3.308 1.675 4.945.184z"/><path d="m331.106 104.991a168.7 168.7 0 0 0 -44.123-14.847 3.5 3.5 0 1 0 -1.286 6.878 161.992 161.992 0 0 1 40.325 13.27v178.713c-56.72-25.19-111-16.435-153 .141v-178.796a195.976 195.976 0 0 1 36.991-11.792 3.5 3.5 0 0 0 -1.5-6.846 201.1 201.1 0 0 0 -37.5 11.86c-24.381-36.936-60.049-64.063-126.006-70.293a3.486 3.486 0 0 0 -3.753 3.492v56c-5.922 1.639-20.582 6.017-32.444 12.265a3.47 3.47 0 0 0 -1.832 3.077v215.847a3.586 3.586 0 0 0 4.456 3.491c86.527-24.22 145.254-3.147 158.065-.1 12.977-2.925 72.487-24.2 159.067.1 2.867.532 4.456-.931 4.456-3.469v-215.869a3.492 3.492 0 0 0 -1.916-3.122zm-317.128 5.264a174.721 174.721 0 0 1 27.276-10.2v122.845a3.5 3.5 0 0 0 3.249 3.492c61.3 6.276 90.942 27.763 116.473 60.7-43.463-15.263-90.383-22.42-147 1.918zm152.044 208.926c-44.022-12.281-88.592-15.481-152.044.306v-7.487c67.98-29.651 141.1-4.207 152.044-.072zm0-14.728c-40.945-14.008-97.511-22.174-152.044-.067v-7.656c54.679-26.459 113.444-16.715 152.044.047zm0-22.4c-4.548-6.351-36.4-56.488-117.768-62.39v-179.095c59.8 5.691 98.087 35.322 117.768 68.406zm160 37.433c-49.289-15.351-120.8-11.326-153-.287v-7.19c10.3-3.884 84.571-29.853 153-.009zm0-15.1c-54.438-22.179-112.194-13.838-153 .153v-7.749c12.5-5.552 83.087-33.866 153-.06z"/><path d="m216 201.172h16.5l1.732 31.318c-8.893-.567-7.4 2.13-7.508 9.376a11.561 11.561 0 0 0 11.548 11.548h19.033a11.561 11.561 0 0 0 11.548-11.548c-.124-7.217 1.419-9.944-7.507-9.376l1.731-31.318h16.5a12.1 12.1 0 0 0 12.091-12.091v-6.551a3.5 3.5 0 0 0 -3.5-3.5h-22.325l7.1-135.2a3.837 3.837 0 0 0 -.737-2.338l-21.658-27.707a3.5 3.5 0 0 0 -5.516 0c-.551.941-21.414 27.123-21.95 28.167a3.7 3.7 0 0 0 -.444 1.88l7.1 135.2h-22.326a3.5 3.5 0 0 0 -3.5 3.5v6.551a12.1 12.1 0 0 0 12.088 12.089zm45.852 40.694a4.554 4.554 0 0 1 -4.548 4.548h-19.03c-3.946-.123-4.883-3.581-4.548-6.924h28.129zm-7.519-9.376h-13.088l-1.731-31.318h16.553zm-3.046-53.46v-113.41l14.2-13.421-6.654 126.831zm-3.5-157.406 16.939 21.669-16.939 16-16.937-16zm-17.7 30.576 14.2 13.421v113.409h-7.542zm-19.175 133.83h73.757c.313 3.879-.37 7.939-5.091 8.142h-63.578c-4.71-.214-5.406-4.236-5.088-8.142z"/></g></svg>