<svg id="icon" height="512" viewBox="0 0 340 340" width="512" xmlns="http://www.w3.org/2000/svg"><path d="m169.522 284.134c6.132-71.921 9.628-139.642 0-186.438 0 0-75.543-38.013-153.33-2.724a9.812 9.812 0 0 0 -5.714 8.95v180.212z" fill="#bac7e5"/><path d="m169.522 284.134c4.806-78.155 9.409-159.968 16.7-193.059 26.728-9.034 81.8-21.395 137.584 3.9a9.812 9.812 0 0 1 5.715 8.95v180.209z" fill="#fff"/><path d="m186.223 91.076a147.159 147.159 0 0 0 -16.7 6.621v186.438h16.7z" fill="#bac7e5"/><path d="m160.691 280.325c-22.8-8.928-86.357-28.133-150.213 3.81v29.532c72.871-20.688 129.922-8.667 150.622-2.724a30.683 30.683 0 0 0 16.858.026c20.877-5.935 78.585-18.02 151.562 2.7v-29.534c-63.934-31.982-128.178-12.691-151.154-3.777a24.322 24.322 0 0 1 -17.675-.033z" fill="#7988b7"/><path d="m158.4 268.832c-15.579-18.269-48.416-47.347-104.038-55.23a11.119 11.119 0 0 1 -9.608-10.985v-167.178a8.263 8.263 0 0 1 9.206-8.214c86 10.117 115.561 70.471 115.561 70.471v167.014a6.321 6.321 0 0 1 -11.121 4.122z" fill="#fff"/><path d="m80.992 166.45a83.521 83.521 0 0 1 22.8 11.031v-27.148a81.236 81.236 0 0 0 -22.8-11.162z" fill="#bac7e5"/><path d="m290.435 108.268v12.99h-2.248a10.879 10.879 0 0 1 -7 0h-8.968v-12.99h-10.846a300.684 300.684 0 0 0 0 74.852h19.814c2.632-1.205 5.076-1.651 7 0h23.775v-17.675a11.069 11.069 0 0 1 0-7v-18.07a9.076 9.076 0 0 1 0-7v-25.107z" fill="#cae0ff"/><path d="m261.373 108.268h-10.681a319.9 319.9 0 0 0 0 74.852h10.681z" fill="#89a7db"/><path d="m250.692 183.12h-14.22a52.356 52.356 0 0 0 -21.064 0h-14.22v-30.809a10.053 10.053 0 0 0 0-7v-19.189c.871-2.471 1.2-4.856 0-7v-20.053a7.1 7.1 0 0 0 0-7v-15.035a123.359 123.359 0 0 1 49.5 0v15.035a13.2 13.2 0 0 0 0 7v20.053a13.187 13.187 0 0 0 0 7v19.189a9.18 9.18 0 0 0 0 7z" fill="#cae0ff"/><path d="m201.188 67.095h49.504v11.114h-49.504z" fill="#89a7db"/><path d="m247.8 32.615-2 11.594h-11.092v-11.594h-17.536v11.594h-11.084l-2-11.594h-17l3.877 27.285a8.848 8.848 0 0 0 8.774 7.7h52.4a8.849 8.849 0 0 0 8.774-7.7l3.887-27.285z" fill="#cae0ff"/><g fill="#3c3c4f"><path d="m234.877 183.12h-17.877v-14.254a8.937 8.937 0 0 1 8.937-8.937 8.937 8.937 0 0 1 8.937 8.937z"/><path d="m218.545 86.455h14.79v19.407h-14.79z"/><path d="m105.871 147.514c-10.742-7.9-23.394-11.539-23.921-11.709a3.352 3.352 0 0 0 -4.458 3.366v27.279a3.5 3.5 0 0 0 2.5 3.355 81.466 81.466 0 0 1 21.738 10.5c3.006 1.558 5.561-.512 5.561-2.829v-27.143a3.5 3.5 0 0 0 -1.42-2.819zm-5.575 23.6a87.925 87.925 0 0 0 -15.8-7.222v-19.829a76.543 76.543 0 0 1 15.8 8.076z"/><path d="m80.219 67.515c1.088.246 3.838.91 4.134.91 3.991.05 4.814-5.888.889-6.885-2.733-.817-6.721-2.014-7.663 1.788a3.5 3.5 0 0 0 2.64 4.187z"/><path d="m104.236 76.173c22.528 9.993 38.595 27.353 38.754 27.527 2.85 2.641 8.423-.564 5.164-4.726-.689-.753-17.169-18.593-41.079-29.2-4.175-1.83-7.025 4.517-2.839 6.399z"/><path d="m80.219 93.369c35.23 7.981 62.544 35.987 62.833 36.252 4.13 3.435 7.735-1.943 5.04-4.858-1.166-1.211-29.009-29.763-66.326-38.221-4.484-.936-6.034 5.725-1.547 6.827z"/><path d="m80.219 119.224c35.23 7.981 62.561 35.97 62.833 36.252a3.99 3.99 0 0 0 4.948.089 3.419 3.419 0 0 0 .092-4.947c-1.166-1.211-29.009-29.767-66.326-38.221a3.5 3.5 0 1 0 -1.547 6.827z"/><path d="m122.73 156.231c-4-2.2-7.4 3.871-3.4 6.119 12.46 6.928 23.568 18.813 23.678 18.932.69.742 3.26 1.675 4.946.184a3.47 3.47 0 0 0 .186-4.945c-.484-.521-11.956-12.808-25.41-20.29z"/><path d="m147.952 207.321a3.488 3.488 0 0 0 .186-4.945c-.482-.52-11.954-12.809-25.409-20.29a3.5 3.5 0 0 0 -3.4 6.119c12.46 6.928 23.568 18.813 23.678 18.932.693.742 3.308 1.675 4.945.184z"/><path d="m331.105 94.574a171.362 171.362 0 0 0 -61-17.236 3.5 3.5 0 0 0 -.689 6.969 164.66 164.66 0 0 1 56.6 15.568v178.713c-56.72-25.19-111-16.435-153 .142v-178.797c1.551-.693 8.277-3.572 11.511-4.81a3.645 3.645 0 0 0 2.392-3.164 3.51 3.51 0 0 0 -4.754-3.453c-2.9 1.111-9.489 3.916-11.155 4.649-24.378-36.936-60.046-64.063-126.003-70.293a3.486 3.486 0 0 0 -3.753 3.493v56c-5.922 1.638-20.582 6.016-32.444 12.264a3.47 3.47 0 0 0 -1.832 3.081v215.843a3.586 3.586 0 0 0 4.456 3.491c86.527-24.22 145.254-3.147 158.065-.1 12.952-2.917 72.478-24.2 159.067.1 2.867.532 4.456-.931 4.456-3.469v-215.865a3.493 3.493 0 0 0 -1.917-3.126zm-317.127 5.264a174.721 174.721 0 0 1 27.276-10.2v122.84a3.5 3.5 0 0 0 3.246 3.492c61.3 6.276 90.942 27.763 116.473 60.7-43.463-15.263-90.383-22.42-147 1.919zm152.044 208.927c-44.022-12.282-88.592-15.48-152.044.305v-7.486c67.98-29.651 141.1-4.207 152.044-.072zm0-14.729c-40.945-14.008-97.511-22.174-152.044-.067v-7.656c54.679-26.459 113.444-16.715 152.044.047zm0-22.4c-4.548-6.351-36.4-56.488-117.768-62.39v-179.095c59.8 5.691 98.087 35.322 117.768 68.407zm160 37.433c-49.289-15.351-120.8-11.326-153-.287v-7.189c10.3-3.885 84.571-29.854 153-.01zm0-15.1c-54.437-22.178-112.194-13.838-153 .153v-7.748c12.5-5.553 83.087-33.867 153-.061z"/><path d="m187.494 60.354a12.385 12.385 0 0 0 10.194 10.572v112.194a3.5 3.5 0 0 0 3.5 3.5c27.419.013 83.133-.01 110.774 0a3.5 3.5 0 0 0 3.5-3.5v-74.852a3.5 3.5 0 0 0 -3.5-3.5h-21.527a3.5 3.5 0 0 0 -3.5 3.5v9.49h-11.216v-9.49a3.5 3.5 0 0 0 -3.5-3.5h-18.027v-33.842a12.367 12.367 0 0 0 10.188-10.526l3.882-27.287a3.522 3.522 0 0 0 -3.465-3.993h-17a3.5 3.5 0 0 0 -3.449 2.9l-1.5 8.689h-4.637v-8.094a3.5 3.5 0 0 0 -3.5-3.5h-17.539a3.5 3.5 0 0 0 -3.5 3.5v8.093h-4.637l-1.5-8.689a3.5 3.5 0 0 0 -3.449-2.9h-17a3.522 3.522 0 0 0 -3.465 3.993zm101.654 79.321v15.07h-15.948v-15.07zm19.314 15.07h-12.314v-15.07h12.314zm-42.258 0h-12.012v-15.07h12.008zm-47.012-46.3h3.248v10.68h-17.752v-20.056h11c.243 3.06-1.319 9.269 3.504 9.373zm13.5 0c4.823-.1 3.262-6.322 3.5-9.373h11v20.053h-17.752v-10.68zm-3.5-7h-6.5v-11.745h6.5zm-24.5 24.68h7.618v19.189h-7.618zm14.618 0h13.288v19.189h-13.292zm20.288 0h7.6v19.189h-7.6zm7.6-34.053h-11c-.241-3.062 1.327-9.265-3.5-9.373h-13.5c-4.821.1-3.263 6.323-3.5 9.373h-11v-20.966h42.5zm-15.821 87.548h-10.877v-10.754a5.437 5.437 0 0 1 10.874 0zm7 0v-10.754a12.437 12.437 0 1 0 -24.874 0v10.754h-8.815v-27.309h42.5v27.309zm46.3 0v-9.143a3.5 3.5 0 1 0 -7 0v9.143h-23.485v-17.875h54.27v17.875zm5.758-54.862a3.5 3.5 0 0 0 3.5-3.5v-9.49h14.527v20.907h-23.785v-7.917zm-21.716-12.99v9.49a3.5 3.5 0 0 0 3.5 3.5h5.458v7.917h-23.485v-20.907zm-67.581-75.653 1.5 8.689a3.5 3.5 0 0 0 3.449 2.9h11.084a3.5 3.5 0 0 0 3.5-3.5v-8.089h10.536v8.093a3.5 3.5 0 0 0 3.5 3.5h11.084a3.5 3.5 0 0 0 3.449-2.9l1.5-8.689h10.022l-3.32 23.333a5.363 5.363 0 0 1 -5.3 4.658h-52.4a5.374 5.374 0 0 1 -5.309-4.7l-3.314-23.293z"/></g></svg>