<svg id="icon" height="512" viewBox="0 0 340 340" width="512" xmlns="http://www.w3.org/2000/svg"><path d="m169.522 300.481c6.132-71.921 9.628-139.643 0-186.438 0 0-75.543-38.014-153.33-2.724a9.811 9.811 0 0 0 -5.714 8.949v180.213z" fill="#bac7e5"/><path d="m169.522 300.481c4.806-78.156 9.409-159.968 16.7-193.06 26.728-9.033 81.8-21.394 137.584 3.9a9.812 9.812 0 0 1 5.715 8.95v180.21z" fill="#fff"/><path d="m186.223 107.422a147.159 147.159 0 0 0 -16.7 6.621v186.438h16.7z" fill="#bac7e5"/><path d="m160.691 296.672c-22.8-8.929-86.357-28.133-150.213 3.809v29.533c72.871-20.689 129.92-8.668 150.624-2.724a30.692 30.692 0 0 0 16.858.026c20.877-5.935 78.585-18.021 151.562 2.7v-29.535c-63.934-31.981-128.178-12.691-151.154-3.781a24.327 24.327 0 0 1 -17.677-.028z" fill="#7988b7"/><path d="m158.4 285.178c-15.579-18.268-48.416-47.346-104.038-55.229a11.12 11.12 0 0 1 -9.608-10.986v-167.177a8.262 8.262 0 0 1 9.206-8.214c86 10.117 115.561 70.471 115.561 70.471v167.013a6.321 6.321 0 0 1 -11.121 4.122z" fill="#fff"/><path d="m80.992 182.8a83.521 83.521 0 0 1 22.8 11.031v-27.152a81.236 81.236 0 0 0 -22.8-11.162z" fill="#bac7e5"/><path d="m256.276 107.966v-14h-19.855v14s-10.1 8.337-15.031 14.905l24.959 20.4 24.958-20.4c-4.926-6.571-15.031-14.905-15.031-14.905z" fill="#fccabe"/><path d="m275.423 119.4a5.638 5.638 0 0 0 -7.786-.89s-11.932 12.377-19.5 21.551l-22.089-21.42a6.331 6.331 0 0 0 -9.678 1.041c-6.984 10.464-19.652 34.02-19.652 67.218 0 35.692 22.367 56.3 32.717 64.194 2.655 2.025 6.564 2.792 10.952-1.025l5.591-5.439 9.723 9.256s30.038-8.97 39.008-55.873c.004.001 8.646-44.767-19.286-78.613z" fill="#ff5f89"/><path d="m256.276 112.627v-18.666h-19.855v11.491z" fill="#e08079"/><circle cx="246.349" cy="32.058" fill="#3c3c4f" r="22.045"/><path d="m280.521 69.557c-1.238-12.957-7.329-34.551-34.172-34.551s-32.934 21.594-34.173 34.551a21.375 21.375 0 0 0 15.2 22.638 58.527 58.527 0 0 0 18.972 1.766 58.522 58.522 0 0 0 18.972-1.761 21.375 21.375 0 0 0 15.201-22.643z" fill="#3c3c4f"/><path d="m246.349 99.171a16.661 16.661 0 0 1 -16.656-16.243l-.248-9.87a16.909 16.909 0 0 1 16.9-17.334 16.909 16.909 0 0 1 16.9 17.334l-.248 9.87a16.662 16.662 0 0 1 -16.648 16.243z" fill="#fccabe"/><path d="m237.6 46.7v-6.87a8.749 8.749 0 0 1 8.749-8.749 8.749 8.749 0 0 1 8.748 8.749v6.87s0 9.023-8.748 9.023-8.749-9.023-8.749-9.023z" fill="#ff5f89"/><path d="m255.705 253.887s30.038-8.97 39.008-55.873c0 0 .069-.362.174-1.033a35.392 35.392 0 0 1 -13.6 11.445 10.559 10.559 0 0 1 -14.83-11.906q.452-1.97 1.018-4.164l-32.185 2.755 18.517 20.037a13.285 13.285 0 0 1 2.571 14.092 47.214 47.214 0 0 1 -10.4 15.391z" fill="#cc3e6a"/><path d="m248.141 140.062-5.881-5.702-15.413 22.729h6.539z" fill="#cc3e6a"/><path d="m227.206 154.665c8.206-1.39 22.494-2.859 37.393.038a8.341 8.341 0 0 1 6.693 7.745 91.005 91.005 0 0 1 -1.292 21.907s-2.8 6.366-20.477 6.366-22.964-9.707-22.964-9.707a71.3 71.3 0 0 1 -5.576-17.567 7.6 7.6 0 0 1 6.223-8.782z" fill="#fff"/><path d="m246.349 59.165a8.749 8.749 0 0 0 8.748-8.749v-3.716s-.767 5.938-8.748 5.938-8.749-5.938-8.749-5.938v3.715a8.749 8.749 0 0 0 8.749 8.75z" fill="#cc3e6a"/><path d="m235.29 195.111h27.742a4.89 4.89 0 0 0 4.443-2.755 36.226 36.226 0 0 0 2.515-8 10.758 10.758 0 0 1 -6.732 2.247h-25.764c-4.648 0-8.271-2.559-10.934-5.587a63.417 63.417 0 0 0 8.73 14.095z" fill="#bac7e5"/><path d="m241.834 79.683a1.976 1.976 0 0 1 -.607-.1 15.951 15.951 0 0 0 -2.9-.592 2 2 0 0 1 .354-3.984 19.618 19.618 0 0 1 3.762.765 2 2 0 0 1 -.606 3.906z" fill="#e08079"/><path d="m250.863 79.683a2 2 0 0 1 -.6-3.906 19.618 19.618 0 0 1 3.762-.765 2 2 0 0 1 .351 3.988 15.774 15.774 0 0 0 -2.906.592 1.971 1.971 0 0 1 -.607.091z" fill="#e08079"/><g fill="#3c3c4f"><path d="m105.871 163.86c-10.742-7.9-23.394-11.538-23.921-11.709a3.352 3.352 0 0 0 -4.458 3.366v27.283a3.5 3.5 0 0 0 2.5 3.356 81.4 81.4 0 0 1 21.738 10.505c3.006 1.558 5.561-.513 5.561-2.829v-27.153a3.5 3.5 0 0 0 -1.42-2.819zm-5.575 23.6a87.86 87.86 0 0 0 -15.8-7.221v-19.829a76.582 76.582 0 0 1 15.8 8.075z"/><path d="m80.219 83.861c1.088.246 3.838.911 4.134.911 3.991.049 4.814-5.888.889-6.885-2.733-.818-6.721-2.015-7.663 1.788a3.5 3.5 0 0 0 2.64 4.186z"/><path d="m104.236 92.519c22.528 9.994 38.595 27.354 38.754 27.528 2.85 2.641 8.423-.564 5.164-4.726-.689-.754-17.169-18.594-41.079-29.2-4.175-1.831-7.025 4.517-2.839 6.398z"/><path d="m80.219 109.716c35.23 7.981 62.544 35.987 62.833 36.251 4.13 3.436 7.735-1.942 5.04-4.857-1.166-1.212-29.009-29.767-66.326-38.221-4.484-.936-6.034 5.724-1.547 6.827z"/><path d="m80.219 135.571c35.23 7.981 62.561 35.969 62.833 36.251a3.99 3.99 0 0 0 4.948.09 3.419 3.419 0 0 0 .092-4.947c-1.166-1.212-29.009-29.767-66.326-38.221a3.5 3.5 0 1 0 -1.547 6.827z"/><path d="m122.73 172.578c-4-2.2-7.4 3.87-3.4 6.118 12.46 6.929 23.568 18.813 23.678 18.932.69.743 3.26 1.675 4.946.184a3.469 3.469 0 0 0 .186-4.944c-.484-.52-11.956-12.809-25.41-20.29z"/><path d="m147.952 223.667a3.487 3.487 0 0 0 .186-4.944c-.482-.52-11.954-12.809-25.409-20.29a3.5 3.5 0 0 0 -3.4 6.118c12.46 6.928 23.568 18.813 23.678 18.932.693.743 3.308 1.676 4.945.184z"/><path d="m331.106 110.921a168.674 168.674 0 0 0 -43.49-14.728 3.5 3.5 0 1 0 -1.31 6.879 161.834 161.834 0 0 1 39.716 13.15v178.713c-56.72-25.19-111-16.435-153 .141v-178.8a193.225 193.225 0 0 1 33.154-10.92 3.5 3.5 0 0 0 -1.608-6.823 198.024 198.024 0 0 0 -33.552 10.967c-24.384-36.934-60.052-64.062-126.009-70.291a3.486 3.486 0 0 0 -3.753 3.491v56c-5.922 1.636-20.582 6.014-32.444 12.261a3.473 3.473 0 0 0 -1.832 3.078v215.851a3.585 3.585 0 0 0 4.456 3.49c86.527-24.219 145.254-3.147 158.065-.1 12.951-2.916 72.478-24.2 159.067.1 2.867.532 4.456-.931 4.456-3.47v-215.867a3.491 3.491 0 0 0 -1.916-3.122zm-317.128 5.264a174.619 174.619 0 0 1 27.276-10.2v122.84a3.5 3.5 0 0 0 3.249 3.491c61.3 6.276 90.942 27.763 116.473 60.7-43.463-15.262-90.383-22.419-147 1.919zm152.044 208.926c-44.022-12.282-88.592-15.479-152.044.306v-7.486c67.98-29.652 141.1-4.208 152.044-.072zm0-14.728c-40.945-14.008-97.511-22.174-152.044-.067v-7.656c54.679-26.459 113.444-16.716 152.044.047zm0-22.4c-4.548-6.351-36.4-56.488-117.768-62.39v-179.093c59.8 5.692 98.087 35.323 117.768 68.407zm160 37.433c-49.289-15.351-120.8-11.326-153-.288v-7.188c10.3-3.885 84.571-29.854 153-.009zm0-15.1c-54.437-22.179-112.194-13.839-153 .153v-7.749c12.5-5.553 83.087-33.867 153-.06z"/><path d="m227.316 253.421c6.429 5.035 13.6 1.48 18.692-4.39l7.284 6.934a3.5 3.5 0 0 0 2.414.965c2.757-.422 32.493-9.572 42.444-58.709.365-1.894 8.625-46.787-20.027-81.5a9.1 9.1 0 0 0 -10.123-2.8c-3.224-3.223-6.485-6.088-8.224-7.575v-8.767c.283-.251.567-.5.835-.768 29.208-3.462 29.305-38.811 10.105-57.138 5.31-16.033-7.452-33.437-24.368-33.159-16.926-.278-29.664 17.134-24.381 33.171-19.178 18.315-19.087 53.67 10.118 57.124.269.268.553.518.836.77v8.762c-1.668 1.427-4.74 4.124-7.835 7.188-15.616-7.424-32.565 44.015-31.865 72.914.001 35.643 21.362 57.262 34.095 66.978zm45.407-132.249c40.583 57.049 12.062 115.793-16.195 128.209l-5.5-5.235 7.827-7.615a14.368 14.368 0 0 0 .109-20.381c-6.11-6.092-11.11-11.484-16.239-17.539h16.683a35.612 35.612 0 0 1 -3.208 3.756 3.524 3.524 0 0 0 2.475 5.975c4.357-.305 10.221-11.819 10.246-11.441 6.66-9.94 6.176-29 5.865-34.635-1.032-14.52-20.712-12.156-30.472-12.719 6.289-7.832 22.756-26.148 25.623-28.835a2.126 2.126 0 0 1 2.786.46zm-8.8 36.965a4.834 4.834 0 0 1 3.872 4.514c.539 9.763-.236 22.106-3.856 28.96h-26.977a68.637 68.637 0 0 1 -12.533-28.772 4.012 4.012 0 0 1 .683-3.028c4.104-4.081 25.943-4.011 38.813-1.674zm-30.734-75.3c-.178-8.169-1.893-17.365 6.772-21.991a12.26 12.26 0 0 0 12.775 0c8.714 4.582 6.926 13.83 6.768 21.994-.724 16.942-25.588 16.942-26.313 0zm18.411-43.007v10.586a5.249 5.249 0 1 1 -10.5 0v-10.586c.123-6.894 10.374-6.899 10.5 0zm25.44 30.061a17.888 17.888 0 0 1 -11.41 18.509c1.264-3.383.911-11.6 1.122-15.254a20.278 20.278 0 0 0 -9.284-17.624c1.824-3.134.937-11.457 1.129-14.986 13.268 5.014 17.395 18.426 18.44 29.355zm-49.24-37.833c1.215-26.795 40.587-23.058 36.77 3.464a35.009 35.009 0 0 0 -8.4-2.981c-4.36-6.495-15.283-6.493-19.642 0a34.95 34.95 0 0 0 -8.394 2.977 18.632 18.632 0 0 1 -.334-3.46zm-12.139 37.833c1.046-10.95 5.184-24.337 18.439-29.348.195 3.577-.7 11.814 1.135 14.991a20.561 20.561 0 0 0 -9.29 17.612c.215 3.687-.144 11.828 1.122 15.254a17.885 17.885 0 0 1 -11.406-18.509zm22.987 40.775c2.112-1.352 1.025-7.007 1.273-9.042a20.447 20.447 0 0 0 12.855 0v6.343c.3 3.389 4.085 4.31 9.749 10.378-3.395 3.587-9.5 10.131-14.644 16.133l-17.175-16.654c4.023-3.913 7.894-7.124 7.942-7.158zm-19.363 10.5a2.76 2.76 0 0 1 4.33-.471l19.742 19.144-8.7 10.287c-9.075.431-18.482 3.019-17.116 13.933 6.42 30.18 21.535 40.4 36.485 57.045a7.335 7.335 0 0 1 -.047 10.407l-10.434 10.151c-3.018 2.609-8.065 9.78-11.979 6.19-41.72-28.683-36.852-91.128-12.281-126.683z"/></g></svg>