<svg id="icon" height="512" viewBox="0 0 340 340" width="512" xmlns="http://www.w3.org/2000/svg"><path d="m169.522 297.844c6.132-71.921 9.628-139.642 0-186.438 0 0-75.543-38.013-153.33-2.724a9.812 9.812 0 0 0 -5.714 8.95v180.212z" fill="#bac7e5"/><path d="m169.522 297.844c4.806-78.155 9.409-159.968 16.7-193.059 26.728-9.034 81.8-21.395 137.584 3.9a9.812 9.812 0 0 1 5.715 8.95v180.209z" fill="#fff"/><path d="m186.223 104.786a147.159 147.159 0 0 0 -16.7 6.621v186.437h16.7z" fill="#bac7e5"/><path d="m160.691 294.035c-22.8-8.928-86.357-28.133-150.213 3.809v29.533c72.871-20.688 129.92-8.668 150.624-2.724a30.683 30.683 0 0 0 16.858.026c20.877-5.935 78.585-18.02 151.562 2.7v-29.535c-63.934-31.981-128.178-12.69-151.154-3.776a24.322 24.322 0 0 1 -17.677-.033z" fill="#7988b7"/><path d="m158.4 282.542c-15.579-18.269-48.416-47.347-104.038-55.23a11.119 11.119 0 0 1 -9.608-10.985v-167.178a8.263 8.263 0 0 1 9.206-8.214c86 10.117 115.561 70.471 115.561 70.471v167.014a6.321 6.321 0 0 1 -11.121 4.122z" fill="#fff"/><path d="m80.992 180.16a83.521 83.521 0 0 1 22.8 11.031v-27.148a81.236 81.236 0 0 0 -22.8-11.162z" fill="#bac7e5"/><path d="m224.065 62.841v11.608a8.546 8.546 0 0 1 -2.509 6.048l-4.948 4.939a2.042 2.042 0 0 0 -.073 2.815l4.78 5.29a6.767 6.767 0 0 1 1.718 3.912l1.032 11.12 36.64-4.408s7.989-25.621 3.994-41.324z" fill="#efad97"/><path d="m251.614 62.841v12.777a16.952 16.952 0 0 0 2.982 9.549 34.562 34.562 0 0 1 6.109 19h20.937s10.884-16.53 7.439-40.5z" fill="#3c3c4f"/><path d="m218.812 38.671c1.481-5.666 3.415-12.346 5.795-19.1a8.78 8.78 0 0 1 12.155-4.949l14.527 7.152 16.948-8.248a8.79 8.79 0 0 1 11.214 3.128 74.924 74.924 0 0 1 9.63 22.016 170.5 170.5 0 0 1 -70.269.001z" fill="#e28683"/><path d="m215.232 54.239h76.239a78.364 78.364 0 0 0 -2.4-15.568h-70.258c-2.373 9.085-3.581 15.568-3.581 15.568z" fill="#3c3c4f"/><path d="m201.467 52.66h99.716a9.415 9.415 0 0 1 9.415 9.415v4.191a0 0 0 0 1 0 0h-118.546a0 0 0 0 1 0 0v-4.191a9.415 9.415 0 0 1 9.415-9.415z" fill="#e28683"/><path d="m213.2 101.78a387.329 387.329 0 0 1 81.382-4.688 2.413 2.413 0 0 1 2.247 2.8c-1.244 7.737-3.918 31.1 4.667 52.173a12.146 12.146 0 0 1 -5.409 15.22l-97.24 53.433s-3.992-40.448 25.546-88.347l-12.983-27.171a2.414 2.414 0 0 1 1.79-3.42z" fill="#e28683"/><g fill="#3c3c4f"><path d="m105.871 161.224c-10.742-7.9-23.394-11.539-23.921-11.709a3.352 3.352 0 0 0 -4.458 3.366v27.279a3.5 3.5 0 0 0 2.5 3.355 81.466 81.466 0 0 1 21.738 10.505c3.006 1.558 5.561-.512 5.561-2.829v-27.149a3.5 3.5 0 0 0 -1.42-2.818zm-5.575 23.6a87.925 87.925 0 0 0 -15.8-7.222v-19.829a76.543 76.543 0 0 1 15.8 8.076z"/><path d="m80.219 81.225c1.088.246 3.838.91 4.134.91 3.991.05 4.814-5.888.889-6.885-2.733-.817-6.721-2.014-7.663 1.788a3.5 3.5 0 0 0 2.64 4.187z"/><path d="m104.236 89.883c22.528 9.993 38.595 27.353 38.754 27.527 2.85 2.641 8.423-.564 5.164-4.726-.689-.753-17.169-18.593-41.079-29.2-4.175-1.83-7.025 4.516-2.839 6.399z"/><path d="m80.219 107.079c35.23 7.981 62.544 35.987 62.833 36.252 4.13 3.435 7.735-1.943 5.04-4.858-1.166-1.211-29.009-29.767-66.326-38.221-4.484-.936-6.034 5.725-1.547 6.827z"/><path d="m80.219 132.934c35.23 7.981 62.561 35.97 62.833 36.252a3.99 3.99 0 0 0 4.948.089 3.419 3.419 0 0 0 .092-4.947c-1.166-1.211-29.009-29.767-66.326-38.221a3.5 3.5 0 1 0 -1.547 6.827z"/><path d="m122.73 169.941c-4-2.2-7.4 3.871-3.4 6.119 12.46 6.928 23.568 18.813 23.678 18.932.69.742 3.26 1.675 4.946.184a3.47 3.47 0 0 0 .186-4.945c-.484-.52-11.956-12.808-25.41-20.29z"/><path d="m147.952 221.031a3.488 3.488 0 0 0 .186-4.945c-.482-.52-11.954-12.809-25.409-20.29a3.5 3.5 0 0 0 -3.4 6.119c12.46 6.928 23.568 18.813 23.678 18.932.693.742 3.308 1.675 4.945.184z"/><path d="m331.106 108.284a165.881 165.881 0 0 0 -16.366-7.11 3.5 3.5 0 1 0 -2.412 6.571c4.55 1.7 9.122 3.629 13.694 5.84v178.715c-56.72-25.19-111-16.435-153 .142v-178.8a177.9 177.9 0 0 1 20.064-7.375 3.512 3.512 0 1 0 -2.057-6.716 182.928 182.928 0 0 0 -20.013 7.313c-24.384-36.935-60.052-64.064-126.009-70.292a3.486 3.486 0 0 0 -3.753 3.492v56c-5.922 1.636-20.582 6.017-32.444 12.265a3.47 3.47 0 0 0 -1.832 3.077v215.847a3.586 3.586 0 0 0 4.456 3.491c86.527-24.22 145.254-3.147 158.065-.1 12.976-2.924 72.487-24.2 159.067.1 2.867.532 4.456-.931 4.456-3.469v-215.869a3.494 3.494 0 0 0 -1.916-3.122zm-317.128 5.264a174.721 174.721 0 0 1 27.276-10.2v122.84a3.5 3.5 0 0 0 3.246 3.492c61.3 6.276 90.942 27.763 116.473 60.7-43.463-15.263-90.383-22.42-147 1.918zm152.044 208.927c-44.022-12.282-88.592-15.475-152.044.305v-7.486c67.98-29.651 141.1-4.207 152.044-.072zm0-14.729c-40.945-14.008-97.511-22.174-152.044-.067v-7.656c54.679-26.459 113.444-16.715 152.044.047zm0-22.4c-4.548-6.351-36.4-56.488-117.768-62.39v-179.095c59.8 5.691 98.087 35.322 117.768 68.407zm160 37.433c-49.289-15.351-120.8-11.326-153-.287v-7.192c10.3-3.885 84.571-29.854 153-.01zm0-15.1c-54.437-22.178-112.194-13.838-153 .153v-7.748c12.5-5.553 83.087-33.867 153-.061z"/><path d="m192.053 69.766h28.511v4.683a5.014 5.014 0 0 1 -1.481 3.571l-6.324 6.312a3.5 3.5 0 0 0 -.124 4.824l6.812 7.538.144 1.546-9.77.566a3.5 3.5 0 0 0 -2.956 5l13.552 28.357c-28.6 49.752-27.4 87.885-23.2 91.647a3.505 3.505 0 0 0 3.319-.029l97.24-53.434a15.642 15.642 0 0 0 6.965-19.607c-11.269-27.91-2.086-51.506-4.771-55.776a3.509 3.509 0 0 0 -2.87-1.214l-7.18.416a68.5 68.5 0 0 0 3.245-24.4h17.435a3.5 3.5 0 0 0 3.5-3.5v-4.191a12.929 12.929 0 0 0 -12.917-12.915h-6.637c-.735-11.338-7.47-28.095-12.164-34.418a12.318 12.318 0 0 0 -15.676-4.364l-15.408 7.5-12.99-6.395a12.278 12.278 0 0 0 -17 6.926 269.513 269.513 0 0 0 -8.6 30.752h-11.241a12.929 12.929 0 0 0 -12.914 12.915c.018 2.893-.742 7.585 3.5 7.69zm34.258 25.122c.131-1.776-5.323-6.622-6.249-7.954 6.527-6.125 7.948-8.01 7.5-17.168h20.549c-.818 15.725 3.3 13.435 7.863 26.366l-29.392 1.7zm71.944 58.5a8.643 8.643 0 0 1 -3.854 10.832l-92.222 50.677c.107-12.414 2.834-44.427 25.193-80.686a3.5 3.5 0 0 0 .179-3.346l-12.123-25.368 77.682-4.5c-1.359 9.367-3.266 31.743 5.145 52.387zm-15.9-58.779-19.228 1.113c-3.438-13.436-9.1-11.6-8.012-25.952h31.052a61.283 61.283 0 0 1 -3.814 24.835zm-54.448-73.875a5.3 5.3 0 0 1 7.309-2.971l14.527 7.151a3.5 3.5 0 0 0 3.077.006l16.949-8.248a5.311 5.311 0 0 1 6.751 1.893 71.129 71.129 0 0 1 7.887 16.606h-61.018c1.422-5.094 2.935-9.94 4.518-14.437zm-6.378 21.437h64.785c.509 2.307.906 4.643 1.195 6.989h-67.638c.44-1.972.992-4.335 1.658-6.989zm-25.976 19.9a5.921 5.921 0 0 1 5.914-5.915h99.716a6 6 0 0 1 5.915 6.606h-111.545z"/></g></svg>