<svg id="icon" height="512" viewBox="0 0 340 340" width="512" xmlns="http://www.w3.org/2000/svg"><path d="m169.522 300.463c6.132-71.921 9.628-139.642 0-186.438 0 0-75.543-38.013-153.33-2.724a9.812 9.812 0 0 0 -5.714 8.95v180.212z" fill="#bac7e5"/><path d="m169.522 300.463c4.806-78.155 9.409-159.968 16.7-193.059 26.728-9.034 81.8-21.395 137.584 3.9a9.812 9.812 0 0 1 5.715 8.95v180.209z" fill="#fff"/><path d="m186.223 107.405a147.3 147.3 0 0 0 -16.7 6.62v186.438h16.7z" fill="#bac7e5"/><path d="m160.691 296.654c-22.8-8.928-86.357-28.133-150.213 3.809v29.537c72.871-20.688 129.92-8.668 150.624-2.724a30.692 30.692 0 0 0 16.858.026c20.877-5.935 78.585-18.021 151.562 2.7v-29.539c-63.934-31.981-128.178-12.69-151.154-3.776a24.322 24.322 0 0 1 -17.677-.033z" fill="#7988b7"/><path d="m158.4 285.161c-15.579-18.269-48.416-47.347-104.038-55.23a11.119 11.119 0 0 1 -9.608-10.985v-167.178a8.263 8.263 0 0 1 9.206-8.214c86 10.117 115.561 70.471 115.561 70.471v167.014a6.321 6.321 0 0 1 -11.121 4.122z" fill="#fff"/><path d="m80.992 182.779a83.521 83.521 0 0 1 22.8 11.031v-27.149a81.217 81.217 0 0 0 -22.8-11.161z" fill="#bac7e5"/><rect fill="#ffbe71" height="68.331" rx="27.332" width="54.665" x="263.026" y="177.476"/><path d="m288.23 233.421a15.478 15.478 0 0 0 15.222-12.675 2.394 2.394 0 0 0 -2.369-2.8h-25.706a2.394 2.394 0 0 0 -2.369 2.8 15.478 15.478 0 0 0 15.222 12.675z" fill="#ff5f89"/><path d="m234.859 164.235h-26.7a15.56 15.56 0 0 0 -15.559 15.559 15.559 15.559 0 0 0 15.559 15.559h26.7l15.559 10.993v-26.552a15.56 15.56 0 0 0 -15.559-15.559z" fill="#d6dff2"/><path d="m199.531 117.332c11.778-2.469 48.789-6.487 61.957 36.39a1.179 1.179 0 0 0 2.3-.224l3.045-31.057a1.182 1.182 0 0 1 2.14-.568l6.343 8.957a1.179 1.179 0 0 0 2.14-.582c.589-7.4 4.088-23.948 23.695-21.919a1.174 1.174 0 0 0 1.285-1.345c-.971-6.173-2.716-29.155 23.109-37.355a1.177 1.177 0 0 0 .048-2.235c-9.931-3.451-34.047-15.682-16.48-49.622a1.178 1.178 0 0 0 -1.679-1.544c-10.119 6.606-36.339 19.8-55.88-4.905a1.175 1.175 0 0 0 -2.027.318c-2.618 7.225-13.544 29.9-44.461 17.434a1.179 1.179 0 0 0 -1.461 1.678c4.688 8.4 13.768 31.056-19.593 38.291a1.181 1.181 0 0 0 -.359 2.177c8.713 5.014 33.071 21.8 14.737 44.2a1.179 1.179 0 0 0 1.141 1.911z" fill="#ffbe71"/><circle cx="279.663" cy="203.082" fill="#3c3c4f" r="3.721"/><circle cx="295.595" cy="203.082" fill="#3c3c4f" r="3.721"/><circle cx="207.818" cy="179.582" fill="#3c3c4f" r="3.721"/><circle cx="221.511" cy="179.582" fill="#3c3c4f" r="3.721"/><circle cx="235.204" cy="179.582" fill="#3c3c4f" r="3.721"/><path d="m267.192 47.378a13.479 13.479 0 0 0 -13.859 13.474 3.5 3.5 0 1 0 7 0 6.478 6.478 0 0 1 6.667-6.476 6.555 6.555 0 0 1 6.291 6.29 6.452 6.452 0 0 1 -4.4 6.326 8.081 8.081 0 0 0 -5.579 7.595v1.832a3.5 3.5 0 0 0 7 0v-1.832a1.1 1.1 0 0 1 .822-.964 13.418 13.418 0 0 0 9.152-13.151 13.643 13.643 0 0 0 -13.094-13.094z" fill="#fff"/><path d="m242.651 79.919a3.5 3.5 0 0 0 3.5-3.5v-25.546a3.5 3.5 0 1 0 -7 0v25.546a3.5 3.5 0 0 0 3.5 3.5z" fill="#fff"/><circle cx="242.651" cy="90.647" fill="#fff" r="3.721"/><circle cx="266.812" cy="90.647" fill="#fff" r="3.721"/><g fill="#3c3c4f"><path d="m105.871 163.843c-10.742-7.9-23.394-11.539-23.921-11.709a3.352 3.352 0 0 0 -4.458 3.366v27.279a3.5 3.5 0 0 0 2.5 3.355 81.466 81.466 0 0 1 21.738 10.505c3.006 1.558 5.561-.512 5.561-2.829v-27.149a3.5 3.5 0 0 0 -1.42-2.818zm-5.575 23.6a87.925 87.925 0 0 0 -15.8-7.222v-19.829a76.543 76.543 0 0 1 15.8 8.076z"/><path d="m80.219 83.844c1.088.246 3.838.91 4.134.91 3.991.049 4.814-5.888.889-6.885-2.733-.818-6.721-2.014-7.663 1.788a3.5 3.5 0 0 0 2.64 4.187z"/><path d="m104.236 92.5c22.528 9.993 38.595 27.353 38.754 27.527 2.85 2.641 8.423-.564 5.164-4.726-.689-.753-17.169-18.593-41.079-29.2-4.175-1.828-7.025 4.519-2.839 6.399z"/><path d="m80.219 109.7c35.23 7.981 62.544 35.987 62.833 36.252 4.13 3.435 7.735-1.943 5.04-4.858-1.166-1.211-29.009-29.767-66.326-38.221-4.484-.938-6.034 5.727-1.547 6.827z"/><path d="m80.219 135.553c35.23 7.981 62.561 35.97 62.833 36.252a3.991 3.991 0 0 0 4.948.089 3.419 3.419 0 0 0 .092-4.947c-1.166-1.211-29.009-29.767-66.326-38.221a3.5 3.5 0 1 0 -1.547 6.827z"/><path d="m122.73 172.56c-4-2.2-7.4 3.871-3.4 6.119 12.46 6.928 23.568 18.813 23.678 18.932.69.742 3.26 1.675 4.946.184a3.47 3.47 0 0 0 .186-4.945c-.484-.52-11.956-12.808-25.41-20.29z"/><path d="m147.952 223.65a3.488 3.488 0 0 0 .186-4.945c-.482-.52-11.954-12.809-25.409-20.29a3.5 3.5 0 0 0 -3.4 6.119c12.46 6.928 23.568 18.812 23.678 18.932.693.742 3.308 1.675 4.945.184z"/><path d="m331.107 110.9q-4.548-2.275-9.092-4.2a3.5 3.5 0 0 0 -4.852 3.231c.145 3.99 6.066 4.359 8.859 6.272v178.714c-56.72-25.19-111-16.435-153 .142v-178.8c2.174-.971 6.119-2.64 11.5-4.552a3.513 3.513 0 1 0 -2.349-6.622c-4.956 1.761-8.745 3.332-11.162 4.4-24.379-36.937-60.047-64.064-126.004-70.294a3.486 3.486 0 0 0 -3.753 3.492v56c-5.922 1.635-20.582 6.013-32.444 12.261a3.47 3.47 0 0 0 -1.832 3.077v215.851a3.586 3.586 0 0 0 4.456 3.491c86.527-24.22 145.254-3.147 158.065-.1 12.978-2.925 72.488-24.2 159.067.1 2.867.532 4.456-.931 4.456-3.469v-215.869a3.49 3.49 0 0 0 -1.915-3.125zm-317.129 5.267a174.721 174.721 0 0 1 27.276-10.2v122.84a3.5 3.5 0 0 0 3.246 3.493c61.3 6.276 90.942 27.763 116.473 60.7-43.463-15.263-90.383-22.42-147 1.918zm152.044 208.927c-44.022-12.282-88.592-15.48-152.044.306v-7.486c67.98-29.651 141.1-4.207 152.044-.072zm0-14.729c-40.945-14.008-97.511-22.174-152.044-.067v-7.656c54.679-26.459 113.444-16.715 152.044.047zm0-22.4c-4.548-6.351-36.4-56.488-117.768-62.39v-179.095c59.8 5.691 98.087 35.322 117.768 68.407zm160 37.433c-49.289-15.351-120.8-11.326-153-.287v-7.189c10.3-3.885 84.571-29.854 153-.01zm0-15.1c-54.437-22.178-112.194-13.838-153 .153v-7.751c12.5-5.552 83.087-33.866 153-.06z"/><path d="m290.359 173.976a30.868 30.868 0 0 0 -30.833 30.832v13.666c1.067 40.653 60.6 40.652 61.665 0v-13.666a30.867 30.867 0 0 0 -30.832-30.832zm23.832 44.5c-.824 31.422-46.842 31.423-47.665 0v-13.668a23.833 23.833 0 0 1 47.665 0z"/><path d="m274.884 214.446c-9.016.862-.075 23.3 15.475 22.474a19 19 0 0 0 18.975-18.974 3.5 3.5 0 0 0 -3.5-3.5zm15.475 15.475a12 12 0 0 1 -11.454-8.475h22.908a12 12 0 0 1 -11.454 8.475z"/><path d="m233.748 198.853 14.65 10.352a3.525 3.525 0 0 0 5.52-2.859v-26.546a19.081 19.081 0 0 0 -19.059-19.06h-26.7c-25.12.659-25.139 37.457 0 38.118zm-37.648-19.053a12.073 12.073 0 0 1 12.059-12.06h26.7a12.073 12.073 0 0 1 12.059 12.06v19.793l-10.039-7.093c.2-1.285-27.92-.4-28.716-.642a12.072 12.072 0 0 1 -12.063-12.058z"/><path d="m330.24 65.573c-20.671-5.059-32.777-22.614-15.566-50.133a3.5 3.5 0 0 0 -5.244-4.481c-10.544 8.841-39.281 22.216-56.392-3.019a3.529 3.529 0 0 0 -6.225 1.192c-4.7 16.363-20.442 27.326-43.7 15.737-3.122-1.566-6.471 2.444-4.309 5.231 9.905 14.48 10.087 32.248-18.631 36.585a3.5 3.5 0 0 0 -.9 6.611c.194.092 19.473 9.388 22.018 23.306 1.165 6.373-1.5 12.992-7.93 19.671-2.508 2.447.238 6.952 3.58 5.763.214-.066 21.59-6.656 39.694 3.689 11.429 6.531 19.2 18.471 23.111 35.49.756 3.752 6.631 3.436 6.894-.442l3.073-31.344 4.79 6.763c1.88 2.825 6.609 1.2 6.352-2.186 0-.119-.456-12.089 6.328-18.213 3.514-3.173 8.573-4.3 15.035-3.343a3.531 3.531 0 0 0 3.915-4.279c-.029-.121-2.81-12.289 3.514-22.509 4.044-6.532 11-10.992 20.674-13.255 3.556-.707 3.51-6.202-.081-6.834zm-26.591 16.479c-5.209 8.467-5.469 17.67-5.013 23.072-12.465-.884-21.812 8.643-23.774 19.464l-4.862-6.864a3.522 3.522 0 0 0 -6.339 1.681l-2.386 24.327c-9.654-23.28-34.4-33.83-56.847-30.315 10.8-16.416-1.513-33.773-14.387-41.861 19.419-5.212 26.184-21.015 19.122-36.867 18.683 6.351 35.562-2.529 42.157-17.789 13.5 15.959 36.066 15.226 51.6 6.474-8.541 19.666-.958 37.861 16.033 45.509a34.244 34.244 0 0 0 -15.304 13.169z"/></g></svg>