<svg id="icon" height="512" viewBox="0 0 340 340" width="512" xmlns="http://www.w3.org/2000/svg"><path d="m169.522 300.408c6.132-71.922 9.628-139.643 0-186.438 0 0-75.543-38.014-153.33-2.725a9.812 9.812 0 0 0 -5.714 8.95v180.213z" fill="#bac7e5"/><path d="m169.522 300.408c4.806-78.156 9.409-159.969 16.7-193.06 26.728-9.034 81.8-21.395 137.584 3.9a9.814 9.814 0 0 1 5.715 8.951v180.209z" fill="#fff"/><path d="m186.223 107.349a147.159 147.159 0 0 0 -16.7 6.621v186.438h16.7z" fill="#bac7e5"/><path d="m160.691 296.6c-22.8-8.928-86.357-28.133-150.213 3.81v29.53c72.871-20.688 129.92-8.668 150.624-2.723a30.692 30.692 0 0 0 16.858.025c20.877-5.935 78.585-18.02 151.562 2.7v-29.534c-63.934-31.982-128.178-12.691-151.154-3.777a24.322 24.322 0 0 1 -17.677-.031z" fill="#7988b7"/><path d="m158.4 285.105c-15.579-18.268-48.416-47.347-104.038-55.23a11.119 11.119 0 0 1 -9.608-10.985v-167.177a8.264 8.264 0 0 1 9.207-8.213c86 10.117 115.561 70.472 115.561 70.472v167.011a6.321 6.321 0 0 1 -11.122 4.122z" fill="#fff"/><path d="m80.992 182.723a83.507 83.507 0 0 1 22.8 11.032v-27.149a81.236 81.236 0 0 0 -22.8-11.162z" fill="#bac7e5"/><path d="m275.474 66.668h-52.474l-17.442 130.673a16.889 16.889 0 0 0 9.24 17.395c14.78 7.281 34.441 7.5 34.441 7.5s19.66-.218 34.44-7.5a16.889 16.889 0 0 0 9.24-17.395z" fill="#ffbe71"/><path d="m290.625 43.749h-82.773a218.732 218.732 0 0 0 -27.458 9.29 7.24 7.24 0 0 0 .108 13.389c12.5 5.018 34.452 10.883 68.737 10.883s56.232-5.865 68.736-10.883a7.24 7.24 0 0 0 .108-13.389 218.732 218.732 0 0 0 -27.458-9.29z" fill="#7aa8ea"/><path d="m249.239 9.94c-33.769 0-41.387 33.809-41.387 33.809 12.95 8.759 41.387 8.734 41.387 8.734s28.436.025 41.386-8.734c0 0-7.618-33.809-41.386-33.809z" fill="#dce5ff"/><circle cx="204.131" cy="58.689" fill="#fff" r="3.721"/><circle cx="249.239" cy="64.251" fill="#fff" r="3.721"/><circle cx="294.346" cy="58.689" fill="#fff" r="3.721"/><path d="m227.982 38.464c7.58-.678 16.594-3.578 22.235-12.483a3.738 3.738 0 0 0 -2.755-5.683 23.14 23.14 0 0 0 -23.162 12.702 3.766 3.766 0 0 0 3.682 5.464z" fill="#fff"/><ellipse cx="249.239" cy="199.244" fill="#e87b31" rx="32.569" ry="11.304"/><g fill="#3c3c4f"><path d="m105.871 163.787c-10.742-7.9-23.394-11.538-23.921-11.709a3.352 3.352 0 0 0 -4.458 3.366v27.279a3.5 3.5 0 0 0 2.5 3.355 81.466 81.466 0 0 1 21.738 10.5c3.006 1.558 5.561-.512 5.561-2.828v-27.144a3.5 3.5 0 0 0 -1.42-2.819zm-5.575 23.6a87.925 87.925 0 0 0 -15.8-7.222v-19.828a76.482 76.482 0 0 1 15.8 8.075z"/><path d="m80.219 83.788c1.088.246 3.838.91 4.134.91 3.991.05 4.814-5.888.889-6.885-2.733-.813-6.721-2.013-7.663 1.787a3.5 3.5 0 0 0 2.64 4.188z"/><path d="m104.236 92.446c22.528 9.993 38.595 27.354 38.754 27.527 2.85 2.641 8.423-.563 5.164-4.725-.689-.754-17.169-18.594-41.079-29.2-4.175-1.831-7.025 4.517-2.839 6.398z"/><path d="m80.219 109.642c35.23 7.981 62.544 35.988 62.833 36.252 4.13 3.436 7.735-1.943 5.04-4.858-1.166-1.211-29.009-29.767-66.326-38.221-4.484-.936-6.034 5.725-1.547 6.827z"/><path d="m80.219 135.5c35.23 7.981 62.561 35.97 62.833 36.252a3.99 3.99 0 0 0 4.948.09 3.421 3.421 0 0 0 .092-4.948c-1.166-1.211-29.009-29.767-66.326-38.221a3.5 3.5 0 1 0 -1.547 6.827z"/><path d="m122.73 172.505c-4-2.2-7.4 3.87-3.4 6.118 12.46 6.928 23.568 18.813 23.678 18.932.69.743 3.26 1.675 4.946.184a3.47 3.47 0 0 0 .186-4.945c-.484-.519-11.956-12.808-25.41-20.289z"/><path d="m147.952 223.594a3.488 3.488 0 0 0 .186-4.945c-.482-.519-11.954-12.808-25.409-20.289a3.5 3.5 0 0 0 -3.4 6.118c12.46 6.928 23.568 18.813 23.678 18.932.693.743 3.308 1.675 4.945.184z"/><path d="m331.105 110.847a166.618 166.618 0 0 0 -23.268-9.516 3.5 3.5 0 1 0 -2.131 6.674 159.443 159.443 0 0 1 20.316 8.143v178.713c-56.72-25.19-111-16.435-153 .142v-178.8a179.866 179.866 0 0 1 21.243-7.732 3.665 3.665 0 0 0 2.646-2.978 3.517 3.517 0 0 0 -4.494-3.8 184.787 184.787 0 0 0 -21.4 7.73c-24.385-36.931-60.053-64.058-126.01-70.287a3.485 3.485 0 0 0 -3.753 3.492v56c-5.922 1.635-20.582 6.013-32.444 12.261a3.47 3.47 0 0 0 -1.832 3.077v215.85a3.586 3.586 0 0 0 4.456 3.491c86.527-24.22 145.254-3.147 158.065-.1 12.952-2.916 72.478-24.2 159.067.1 2.867.533 4.456-.931 4.456-3.469v-215.869a3.493 3.493 0 0 0 -1.917-3.122zm-317.127 5.265a174.639 174.639 0 0 1 27.276-10.2v122.84a3.5 3.5 0 0 0 3.249 3.491c61.3 6.276 90.942 27.763 116.473 60.7-43.463-15.263-90.383-22.42-147 1.919zm152.044 208.926c-44.024-12.282-88.592-15.48-152.044.305v-7.486c67.98-29.651 141.1-4.207 152.044-.072zm0-14.728c-40.945-14.009-97.511-22.174-152.044-.068v-7.656c54.679-26.458 113.444-16.715 152.044.048zm0-22.4c-4.548-6.351-36.4-56.488-117.768-62.39v-179.096c59.8 5.692 98.087 35.322 117.768 68.407zm160 37.433c-49.289-15.35-120.8-11.326-153-.287v-7.189c10.3-3.885 84.571-29.854 153-.01zm0-15.1c-54.437-22.179-112.194-13.839-153 .152v-7.748c12.5-5.553 83.087-33.867 153-.061z"/><path d="m179.2 69.676c8.355 3.353 20.969 7.129 38.629 9.311l-15.74 117.891a20.366 20.366 0 0 0 11.163 21c25.761 10.552 46.17 10.569 71.974 0a20.371 20.371 0 0 0 11.162-21l-15.738-117.892c17.66-2.181 30.274-5.957 38.629-9.31a10.739 10.739 0 0 0 .156-19.865 224.032 224.032 0 0 0 -26-8.936c-13.188-45.8-75.3-45.645-88.4 0a224.032 224.032 0 0 0 -26 8.936 10.739 10.739 0 0 0 .156 19.865zm110.25 128.124c3.954 19.823-39.7 20.914-40.172 20.932-.712-.118-44.075-.981-40.251-20.932l15.762-118.07a281.773 281.773 0 0 0 48.9 0zm-40.212-184.36c25.809 0 34.925 21.361 37.291 28.688-21.648 9.275-52.884 9.3-74.561.01 2.421-7.273 11.723-28.698 37.27-28.698zm-67.493 42.828a219.738 219.738 0 0 1 25.533-8.745c23.047 11.434 60.81 11.461 83.922 0a219.259 219.259 0 0 1 25.531 8.745 3.653 3.653 0 0 1 2.282 3.467c-.849 7.923-42.3 14.23-69.774 14.076-24.839.552-81.972-7.364-67.494-17.543z"/></g></svg>