<svg id="icon" height="512" viewBox="0 0 340 340" width="512" xmlns="http://www.w3.org/2000/svg"><path d="m169.522 284.134c6.132-71.921 9.628-139.642 0-186.438 0 0-75.543-38.013-153.33-2.724a9.812 9.812 0 0 0 -5.714 8.95v180.212z" fill="#bac7e5"/><path d="m169.522 284.134c4.806-78.155 9.409-159.968 16.7-193.059 26.728-9.034 81.8-21.395 137.584 3.9a9.812 9.812 0 0 1 5.715 8.95v180.209z" fill="#fff"/><path d="m186.223 91.076a147.159 147.159 0 0 0 -16.7 6.621v186.438h16.7z" fill="#bac7e5"/><path d="m160.691 280.325c-22.8-8.928-86.357-28.133-150.213 3.81v29.532c72.871-20.688 129.922-8.667 150.622-2.724a30.683 30.683 0 0 0 16.858.026c20.877-5.935 78.585-18.02 151.562 2.7v-29.534c-63.934-31.982-128.178-12.691-151.154-3.777a24.322 24.322 0 0 1 -17.675-.033z" fill="#7988b7"/><path d="m158.4 268.832c-15.579-18.269-48.416-47.347-104.038-55.23a11.119 11.119 0 0 1 -9.608-10.985v-167.178a8.263 8.263 0 0 1 9.206-8.214c86 10.117 115.561 70.471 115.561 70.471v167.014a6.321 6.321 0 0 1 -11.121 4.122z" fill="#fff"/><path d="m80.992 166.45a83.521 83.521 0 0 1 22.8 11.031v-27.148a81.236 81.236 0 0 0 -22.8-11.162z" fill="#bac7e5"/><path d="m283.746 73.018-7.194-14.354a1.551 1.551 0 0 0 -2.792.038l-7.7 16.474a11.7 11.7 0 0 0 .139 10.2l6.092 12.154 13.23-3.124a11.7 11.7 0 0 0 7.913-6.435l7.7-16.475a1.551 1.551 0 0 0 -1.761-2.166z" fill="#ffbe71"/><path d="m295.358 130.443c-1.078-11.4-7.845-16.105-14.185-17.987a26.4 26.4 0 0 0 -19.805 2.242 36.677 36.677 0 0 0 -14.308 13.05 36.67 36.67 0 0 0 -14.308-13.05 26.4 26.4 0 0 0 -19.805-2.242c-6.34 1.882-13.107 6.59-14.184 17.987a31.261 31.261 0 0 0 4.821 19.428c11.59 18.575 31.873 31.8 40.389 36.8a6.1 6.1 0 0 0 6.174 0c8.516-5 28.8-18.227 40.389-36.8a31.268 31.268 0 0 0 4.822-19.428z" fill="#ff5f89"/><g fill="#3c3c4f"><path d="m219.225 195.8-3.278-2.346a1.346 1.346 0 0 0 -2.126 1l-1.858 27.289a1.346 1.346 0 0 0 2.214 1.117l20.842-17.713a1.346 1.346 0 0 0 -.456-2.306l-3.835-1.242a42.033 42.033 0 0 1 -11.503-5.799z"/><path d="m105.871 147.514c-10.742-7.9-23.394-11.539-23.921-11.709a3.352 3.352 0 0 0 -4.458 3.366v27.279a3.5 3.5 0 0 0 2.5 3.355 81.466 81.466 0 0 1 21.738 10.5c3.006 1.558 5.561-.512 5.561-2.829v-27.143a3.5 3.5 0 0 0 -1.42-2.819zm-5.575 23.6a87.925 87.925 0 0 0 -15.8-7.222v-19.829a76.543 76.543 0 0 1 15.8 8.076z"/><path d="m80.219 67.515c1.088.246 3.838.91 4.134.91 3.991.05 4.814-5.888.889-6.885-2.733-.817-6.721-2.014-7.663 1.788a3.5 3.5 0 0 0 2.64 4.187z"/><path d="m104.236 76.173c22.528 9.993 38.595 27.353 38.754 27.527 2.85 2.641 8.423-.564 5.164-4.726-.689-.753-17.169-18.593-41.079-29.2-4.175-1.83-7.025 4.517-2.839 6.399z"/><path d="m80.219 93.369c35.23 7.981 62.544 35.987 62.833 36.252 4.13 3.435 7.735-1.943 5.04-4.858-1.166-1.211-29.009-29.763-66.326-38.221-4.484-.936-6.034 5.725-1.547 6.827z"/><path d="m80.219 119.224c35.23 7.981 62.561 35.97 62.833 36.252a3.99 3.99 0 0 0 4.948.089 3.419 3.419 0 0 0 .092-4.947c-1.166-1.211-29.009-29.767-66.326-38.221a3.5 3.5 0 1 0 -1.547 6.827z"/><path d="m122.73 156.231c-4-2.2-7.4 3.871-3.4 6.119 12.46 6.928 23.568 18.813 23.678 18.932.69.742 3.26 1.675 4.946.184a3.47 3.47 0 0 0 .186-4.945c-.484-.521-11.956-12.808-25.41-20.29z"/><path d="m147.952 207.321a3.488 3.488 0 0 0 .186-4.945c-.482-.52-11.954-12.809-25.409-20.29a3.5 3.5 0 0 0 -3.4 6.119c12.46 6.928 23.568 18.813 23.678 18.932.693.742 3.308 1.675 4.945.184z"/><path d="m331.106 94.575a166.207 166.207 0 0 0 -17.315-7.464 3.5 3.5 0 1 0 -2.434 6.56c4.871 1.781 9.768 3.836 14.665 6.2v178.717c-56.72-25.19-111-16.435-153 .142v-178.797a201.132 201.132 0 0 1 47.4-13.784 198.041 198.041 0 0 1 26.214-2.549 3.5 3.5 0 1 0 -.178-7 211.441 211.441 0 0 0 -75.442 16.556c-24.384-36.937-60.052-64.064-126.009-70.294a3.486 3.486 0 0 0 -3.753 3.493v56c-5.922 1.638-20.582 6.016-32.444 12.264a3.47 3.47 0 0 0 -1.832 3.081v215.843a3.586 3.586 0 0 0 4.456 3.491c86.527-24.22 145.254-3.147 158.065-.1 12.952-2.916 72.478-24.2 159.067.1 2.867.532 4.456-.931 4.456-3.469v-215.865a3.491 3.491 0 0 0 -1.916-3.125zm-317.128 5.263a174.721 174.721 0 0 1 27.276-10.2v122.84a3.5 3.5 0 0 0 3.246 3.492c61.3 6.276 90.942 27.763 116.473 60.7-43.463-15.263-90.383-22.42-147 1.919zm152.044 208.927c-44.022-12.282-88.592-15.48-152.044.305v-7.486c67.98-29.651 141.1-4.207 152.044-.072zm0-14.729c-40.945-14.008-97.511-22.174-152.044-.067v-7.656c54.679-26.459 113.444-16.715 152.044.047zm0-22.4c-4.548-6.351-36.4-56.488-117.768-62.39v-179.095c59.8 5.691 98.087 35.322 117.768 68.407zm160 37.433c-49.289-15.351-120.8-11.326-153-.287v-7.189c10.3-3.885 84.571-29.854 153-.01zm0-15.1c-54.437-22.178-112.194-13.838-153 .153v-7.748c12.5-5.553 83.087-33.867 153-.061z"/><path d="m259.731 111.6a42.076 42.076 0 0 0 -12.671 10.141c-34.446-38.269-87.563 9.623-17.731 59.452l-6.729 14.407c-1.22-.724-5.783-3.763-7.018-4.617a3.5 3.5 0 0 0 -5.447 2.774l-1.206 31.748a3.523 3.523 0 0 0 5.843 2.73l23.581-21.292a3.5 3.5 0 0 0 -1.368-5.958c-1.493-.4-6.692-1.929-8.044-2.421l6.215-13.3c5.81 3.347 10.428 7.879 13.574 6.23 6.724-2.55 56.108-35.311 50-62.434-2.818-17.416-14.971-21.56-27.507-20.975l3.526-7.545c7.63-2.017 18.41-2.541 21.86-11.095l9.055-19.376a3.524 3.524 0 0 0 -3.976-4.888l-16.05 3.79-7.39-14.745a3.52 3.52 0 0 0 -6.3.087l-9.054 19.377a15.125 15.125 0 0 0 .181 13.248l5.325 10.643-5.953 12.739q-1.372.575-2.716 1.28zm-43.495 105.881.654-17.188a42.7 42.7 0 0 0 12.11 5.662zm74.029-130.994c-1.648 4.462-7.823 4.981-11.741 5.973l7.676-16.425 10.059-2.375zm-20.935-2.68a8.164 8.164 0 0 1 -.1-7.149l5.995-12.827 4.631 9.241-7.674 16.428zm10.847 32c6.867 2.037 10.663 6.659 11.6 14.129 3.608 24.212-36.188 49.76-44.721 54.475-2.035-1.159-5.18-3.037-8.912-5.555l5.693-12.182a3.5 3.5 0 0 0 -6.342-2.964l-5.152 11.024c-12.123-9.634-32.265-25.927-30.009-44.8 1.089-14.358 17.754-18.375 28.777-12.149a33.433 33.433 0 0 1 12.956 11.778 3.5 3.5 0 0 0 5.977 0c7.575-11.01 18.256-16.783 30.133-13.751z"/></g></svg>