<svg id="icon" height="512" viewBox="0 0 340 340" width="512" xmlns="http://www.w3.org/2000/svg"><path d="m169.522 300.485c6.132-71.922 9.628-139.643 0-186.438 0 0-75.543-38.014-153.33-2.725a9.812 9.812 0 0 0 -5.714 8.95v180.213z" fill="#bac7e5"/><path d="m169.522 300.485c4.806-78.156 9.409-159.969 16.7-193.06 26.728-9.034 81.8-21.395 137.584 3.9a9.814 9.814 0 0 1 5.715 8.951v180.209z" fill="#fff"/><path d="m186.223 107.426a147.159 147.159 0 0 0 -16.7 6.621v186.438h16.7z" fill="#bac7e5"/><path d="m160.691 296.675c-22.8-8.928-86.357-28.133-150.213 3.81v29.532c72.871-20.688 129.92-8.668 150.624-2.723a30.692 30.692 0 0 0 16.858.025c20.877-5.935 78.585-18.02 151.562 2.7v-29.534c-63.934-31.982-128.178-12.691-151.154-3.777a24.322 24.322 0 0 1 -17.677-.033z" fill="#7988b7"/><path d="m158.4 285.182c-15.579-18.268-48.416-47.347-104.038-55.23a11.119 11.119 0 0 1 -9.608-10.985v-167.177a8.264 8.264 0 0 1 9.206-8.215c86 10.117 115.561 70.472 115.561 70.472v167.013a6.321 6.321 0 0 1 -11.121 4.122z" fill="#fff"/><path d="m80.992 182.8a83.507 83.507 0 0 1 22.8 11.032v-27.149a81.236 81.236 0 0 0 -22.8-11.162z" fill="#bac7e5"/><path d="m199.525 260.465 50.627-4.4 5.642-22.162 17.4-5.512a12.648 12.648 0 0 0 8.541-9.391l6.178-28.572 4.247-1.605a10.237 10.237 0 0 0 6.62-9.577v-8.055a6.375 6.375 0 0 0 -7.047-6.34l-13.48 1.427-29.1-7.728a134.77 134.77 0 0 0 -22.085 10.01 26.326 26.326 0 0 0 -12.016 14.962c-3.972 12.752-10.924 38.805-15.527 76.943z" fill="#efad97"/><path d="m247.641 170.017 30.612-3.736v-36.223h-31.669z" fill="#3c3c4f"/><path d="m263.813 140.479s-42.442 2.842-43.39-35.053c-.441-17.664 5.89-28.445 13.1-34.963a4.025 4.025 0 0 1 6.185.9c1.685 2.872 5.177 5.857 12.356 4.7 12.884-2.084 14-15.727 4.135-26.334a24.583 24.583 0 0 1 -6.764-15.085c-.381-6.079 1.365-13.706 9.176-21.05a2.628 2.628 0 0 1 4.376 1.58c.859 5.661 4.663 15.08 19.2 23.563 0 0 33.637 19.145 27.663 59.305-3.885 26.119-18.848 36.212-30.676 40.086a44.83 44.83 0 0 1 -15.361 2.351z" fill="#ff5f89"/><circle cx="222.802" cy="41.706" fill="#ff5f89" r="8.693"/><path d="m265.466 89.827a3.161 3.161 0 0 0 -4.3-.049c-3.422 3.07-9.91 9.969-11.963 19.634-.056.26-.1.517-.146.772a13.448 13.448 0 0 0 12.591 15.69 23.137 23.137 0 0 0 8.084-.94 11.09 11.09 0 0 0 7.145-9.315c1.351-12.341-7.264-21.943-11.411-25.792z" fill="#fff"/><g fill="#3c3c4f"><path d="m105.871 163.864c-10.742-7.9-23.394-11.538-23.921-11.709a3.352 3.352 0 0 0 -4.458 3.366v27.279a3.5 3.5 0 0 0 2.5 3.355 81.466 81.466 0 0 1 21.738 10.5c3.006 1.558 5.561-.512 5.561-2.828v-27.144a3.5 3.5 0 0 0 -1.42-2.819zm-5.575 23.6a87.925 87.925 0 0 0 -15.8-7.222v-19.828a76.482 76.482 0 0 1 15.8 8.075z"/><path d="m331.107 110.926q-4.287-2.146-8.57-3.98a3.5 3.5 0 0 0 -4.863 3.228c.224 3.995 5.6 4.176 8.348 6.051v178.713c-56.72-25.19-111-16.435-153 .142v-178.8a188.715 188.715 0 0 1 28.369-9.729c4.365-1.255 2.5-7.861-1.877-6.759a193.535 193.535 0 0 0 -28.5 9.71c-24.382-36.933-60.05-64.06-126.007-70.289a3.485 3.485 0 0 0 -3.753 3.492v56c-5.922 1.635-20.582 6.013-32.444 12.261a3.471 3.471 0 0 0 -1.832 3.077v215.85a3.586 3.586 0 0 0 4.456 3.491c86.527-24.22 145.254-3.147 158.065-.1 12.976-2.924 72.487-24.2 159.067.1 2.867.533 4.456-.931 4.456-3.469v-215.869a3.487 3.487 0 0 0 -1.915-3.12zm-317.129 5.263a174.639 174.639 0 0 1 27.276-10.2v122.84a3.5 3.5 0 0 0 3.246 3.491c61.3 6.276 90.942 27.763 116.473 60.7-43.463-15.263-90.383-22.42-147 1.919zm152.044 208.926c-44.022-12.282-88.592-15.48-152.044.305v-7.486c67.98-29.651 141.1-4.207 152.044-.072zm0-14.728c-40.945-14.009-97.511-22.174-152.044-.068v-7.656c54.679-26.458 113.444-16.715 152.044.048zm0-22.4c-4.548-6.351-36.4-56.488-117.768-62.39v-179.097c59.8 5.692 98.087 35.322 117.768 68.407zm160 37.433c-49.289-15.35-120.8-11.326-153-.287v-7.189c10.3-3.885 84.571-29.854 153-.01zm0-15.1c-54.437-22.179-112.194-13.839-153 .152v-7.748c12.5-5.553 83.087-33.867 153-.061z"/><path d="m300.031 19.97c-.084 4.892-7.36 4.891-7.443 0 .084-4.891 7.36-4.89 7.443 0z"/><path d="m80.219 83.865c1.088.246 3.838.91 4.134.91 3.991.05 4.814-5.888.889-6.885-2.733-.817-6.721-2.014-7.663 1.789a3.5 3.5 0 0 0 2.64 4.186z"/><path d="m104.236 92.523c22.528 9.993 38.595 27.354 38.754 27.527 2.85 2.641 8.423-.563 5.164-4.725-.689-.754-17.169-18.594-41.079-29.2-4.175-1.831-7.025 4.517-2.839 6.398z"/><path d="m80.219 109.719c35.23 7.981 62.544 35.988 62.833 36.252 4.13 3.436 7.735-1.943 5.04-4.858-1.166-1.211-29.009-29.767-66.326-38.221-4.484-.936-6.034 5.725-1.547 6.827z"/><path d="m80.219 135.574c35.23 7.981 62.561 35.97 62.833 36.252a3.99 3.99 0 0 0 4.948.09 3.421 3.421 0 0 0 .092-4.948c-1.166-1.211-29.009-29.767-66.326-38.221a3.5 3.5 0 1 0 -1.547 6.827z"/><path d="m122.73 172.582c-4-2.2-7.4 3.87-3.4 6.118 12.46 6.928 23.568 18.813 23.678 18.932.69.743 3.26 1.675 4.946.184a3.47 3.47 0 0 0 .186-4.945c-.484-.519-11.956-12.808-25.41-20.289z"/><path d="m147.952 223.671a3.488 3.488 0 0 0 .186-4.945c-.482-.519-11.954-12.808-25.409-20.289a3.5 3.5 0 0 0 -3.4 6.118c12.46 6.928 23.568 18.813 23.678 18.932.693.743 3.308 1.675 4.945.184z"/><path d="m199.105 263.94a3.506 3.506 0 0 0 3.9-3.056c4.609-38.2 11.62-64.2 15.388-76.3 2.7-11.238 17.185-16.783 25.754-20.4.188 3.2-1.284 9.7 3.924 9.31l30.579-3.732 13.457-1.424a2.874 2.874 0 0 1 3.178 2.859v8.055c.08 5.034-4.673 6.578-8.6 7.907a3.5 3.5 0 0 0 -2.184 2.535l-6.178 28.572a9.167 9.167 0 0 1 -6.179 6.788c-5.086 1.607-19.962 6.329-24.838 7.87-3.761 1.056-2.8 6.976 1.057 6.837.637.137 1.871-.5 2.495-.619l-4.088 16.06c-1.108 4.424 5.615 6.174 6.783 1.726l5.162-20.276 15.544-4.925a16.184 16.184 0 0 0 10.906-11.981l5.775-26.711c11.673-3.718 11.677-11.287 11.348-21.838a9.937 9.937 0 0 0 -10.914-9.82l-9.612 1.017v-21.461c12.523-4.533 27.578-15.583 31.564-42.382 6.254-42.045-29.037-62.658-29.361-62.843-19.923-11.623-17.687-24.439-17.591-24.937a3.523 3.523 0 0 0 -5.477-3.584c-13.184 9.592-15.4 20.342-14.944 27.67.525 12 8.843 17.071 12.827 23.875.513 1.626 1.374 6.61-.778 10.1-4.1 5.932-15.7 5.438-16.335-2.278a3.525 3.525 0 0 0 -5.413-2.61c-9.138 6.028-19.907 18.132-19.321 41.566-.077 17.97 11.431 31.521 27.218 35.92v15.22c-10.832 4.273-28.805 11.248-32.437 25.848-3.84 12.329-10.978 38.8-15.655 77.544a3.5 3.5 0 0 0 3.046 3.898zm24.817-158.6c-.425-17.014 5.893-26.983 12.469-32.727 4.8 10.581 23.132 8.4 27.561-.105 3.4-5.511 2.537-12.576 1.493-15.882-.258-.817-1.044-3.3-6.7-9.3-8.294-8.762-7.626-21.358 1.076-30.02 1.424 6.543 6.173 16.033 20.63 24.468 1.288.739 31.474 18.533 25.939 55.751-5.5 30.423-22.354 38.672-42.809 39.466-11.857.9-39.972-4.528-39.659-31.653zm37.817 38.694a64.124 64.124 0 0 0 13.014-1.082v20.233l-23.611 2.881v-22.966a63.09 63.09 0 0 0 10.597.932z"/><path d="m222.8 53.9c16.078-.423 16.074-23.966 0-24.386-16.076.422-16.072 23.965 0 24.386zm0-17.386c6.824.123 6.823 10.265 0 10.386-6.822-.123-6.821-10.266 0-10.387z"/><path d="m270.9 128.232c19.587-8.4 4.728-35.4-3.058-40.97-7.85-7.545-19.739 10.559-22.068 21.423-3.054 15.142 11.892 24.38 25.126 19.547zm-9.146-5.855c-18.172-3.118-5.25-24.589 1.528-29.8 6.76 4.736 20.218 30.929-1.524 29.8z"/></g></svg>