<svg id="icon" height="512" viewBox="0 0 340 340" width="512" xmlns="http://www.w3.org/2000/svg"><path d="m169.522 294.845c6.132-71.921 9.628-139.642 0-186.438 0 0-75.543-38.014-153.33-2.724a9.812 9.812 0 0 0 -5.714 8.949v180.213z" fill="#bac7e5"/><path d="m169.522 294.845c4.806-78.155 9.409-159.968 16.7-193.059 26.728-9.034 81.8-21.395 137.584 3.9a9.812 9.812 0 0 1 5.715 8.95v180.209z" fill="#fff"/><path d="m186.223 101.786a147.394 147.394 0 0 0 -16.7 6.621v186.438h16.7z" fill="#bac7e5"/><path d="m160.691 291.036c-22.8-8.928-86.357-28.133-150.213 3.809v29.533c72.871-20.689 129.92-8.668 150.624-2.724a30.692 30.692 0 0 0 16.858.026c20.877-5.935 78.585-18.021 151.562 2.7v-29.535c-63.934-31.981-128.178-12.69-151.154-3.777a24.322 24.322 0 0 1 -17.677-.032z" fill="#7988b7"/><path d="m158.4 279.543c-15.579-18.269-48.416-47.347-104.038-55.23a11.119 11.119 0 0 1 -9.608-10.985v-167.178a8.262 8.262 0 0 1 9.206-8.214c86 10.117 115.561 70.471 115.561 70.471v167.013a6.322 6.322 0 0 1 -11.121 4.123z" fill="#fff"/><path d="m80.992 177.161a83.521 83.521 0 0 1 22.8 11.031v-27.149a81.217 81.217 0 0 0 -22.8-11.161z" fill="#bac7e5"/><path d="m219.272 31.828s-23.326 89.059 12.528 130.317h27.375s-1.539-90.604-39.903-130.317z" fill="#698457"/><path d="m251.467 162.145s7.518-33.926 44.339-52.819c0 0-2.7 43.948-22.17 52.819z" fill="#698457"/><path d="m197.345 121.977a1.892 1.892 0 0 1 3.09-1.343c2.688 2.167 8.037 5.479 18.611 9.708 19.794 7.918 20.289 31.8 20.289 31.8h-21.045s-22.29-14.168-20.945-40.165z" fill="#a5c18f"/><path d="m235.376 162.145s-15.34-37 8.66-83.761 39.587-62.845 39.587-62.845 12.243 101.961-26.538 146.606z" fill="#a5c18f"/><path d="m204.657 162.145 9.825 72.894a9.725 9.725 0 0 0 9.638 8.426h43.1a9.725 9.725 0 0 0 9.638-8.426l9.825-72.894z" fill="#e28683"/><g fill="#3c3c4f"><path d="m105.871 158.224c-10.742-7.9-23.394-11.538-23.921-11.709a3.353 3.353 0 0 0 -4.458 3.367v27.278a3.5 3.5 0 0 0 2.5 3.356 81.431 81.431 0 0 1 21.738 10.5c3.006 1.558 5.561-.513 5.561-2.829v-27.144a3.5 3.5 0 0 0 -1.42-2.819zm-5.575 23.6a87.785 87.785 0 0 0 -15.8-7.222v-19.828a76.582 76.582 0 0 1 15.8 8.075z"/><path d="m80.219 78.225c1.088.246 3.838.911 4.134.911 3.991.049 4.814-5.888.889-6.885-2.733-.818-6.721-2.014-7.663 1.788a3.5 3.5 0 0 0 2.64 4.186z"/><path d="m104.236 86.884c22.528 9.993 38.595 27.353 38.754 27.527 2.85 2.641 8.423-.564 5.164-4.726-.689-.754-17.169-18.593-41.079-29.2-4.175-1.831-7.025 4.515-2.839 6.399z"/><path d="m80.219 104.08c35.23 7.981 62.544 35.987 62.833 36.251 4.13 3.436 7.735-1.942 5.04-4.857-1.166-1.212-29.009-29.767-66.326-38.221-4.484-.936-6.034 5.724-1.547 6.827z"/><path d="m80.219 129.935c35.23 7.981 62.561 35.97 62.833 36.251a3.99 3.99 0 0 0 4.948.09 3.419 3.419 0 0 0 .092-4.947c-1.166-1.212-29.009-29.767-66.326-38.221a3.5 3.5 0 1 0 -1.547 6.827z"/><path d="m122.73 166.942c-4-2.2-7.4 3.87-3.4 6.118 12.46 6.929 23.568 18.813 23.678 18.932.69.743 3.26 1.675 4.946.185a3.47 3.47 0 0 0 .186-4.945c-.484-.52-11.956-12.808-25.41-20.29z"/><path d="m147.952 218.032a3.488 3.488 0 0 0 .186-4.945c-.482-.52-11.954-12.809-25.409-20.29a3.5 3.5 0 0 0 -3.4 6.118c12.46 6.929 23.568 18.813 23.678 18.932.693.743 3.308 1.676 4.945.185z"/><path d="m331.105 105.285a167.112 167.112 0 0 0 -29.095-11.285 3.5 3.5 0 1 0 -1.888 6.74 160.243 160.243 0 0 1 25.9 9.849v178.711c-56.72-25.19-111-16.435-153 .141v-178.8a180.627 180.627 0 0 1 21.853-7.913 3.374 3.374 0 0 0 2.411-3.32 3.52 3.52 0 0 0 -4.521-3.379 185.2 185.2 0 0 0 -21.749 7.834c-24.384-36.933-60.052-64.063-126.009-70.29a3.486 3.486 0 0 0 -3.753 3.492v56c-5.922 1.635-20.582 6.017-32.444 12.265a3.47 3.47 0 0 0 -1.832 3.077v215.847a3.585 3.585 0 0 0 4.456 3.49c86.527-24.219 145.254-3.147 158.065-.1 12.951-2.916 72.478-24.2 159.067.1 2.867.532 4.456-.931 4.456-3.47v-215.867a3.49 3.49 0 0 0 -1.917-3.122zm-317.127 5.264a174.619 174.619 0 0 1 27.276-10.2v122.84a3.5 3.5 0 0 0 3.246 3.491c61.3 6.277 90.942 27.764 116.473 60.7-43.463-15.262-90.383-22.419-147 1.919zm152.044 208.926c-44.022-12.282-88.592-15.475-152.044.306v-7.481c67.98-29.651 141.1-4.208 152.044-.072zm0-14.728c-40.945-14.008-97.511-22.174-152.044-.067v-7.656c54.679-26.459 113.444-16.716 152.044.047zm0-22.4c-4.548-6.351-36.4-56.488-117.768-62.39v-179.095c59.8 5.691 98.087 35.322 117.768 68.406zm160 37.433c-49.289-15.351-120.8-11.326-153-.288v-7.192c10.3-3.885 84.571-29.854 153-.009zm0-15.1c-54.437-22.179-112.194-13.838-153 .153v-7.749c12.5-5.552 83.087-33.866 153-.06z"/><path d="m297.721 106.4c-3.312-2.3-11.391 4.77-14.613 6.5 9.108-45.61 6.774-98.762 1.635-100.67-4.936-1.332-16.328 14.846-39.481 56.261-4.068-11.117-19-40.4-26.876-40.042-4.934 1.744-14.4 51.011-7.519 94.446-7.765-3.882-9.667-6.266-9.91-6.606a3.5 3.5 0 0 0 -6.652.936c-2.905 19.822 7 33.907 14.436 41.428-3.063-.018-7.871-.68-7.552 3.968l9.824 72.894a13.27 13.27 0 0 0 13.107 11.458h43.1a13.27 13.27 0 0 0 13.107-11.458l9.824-72.894c.259-4.063-3.448-4.15-6.493-3.968 12.908-15.636 18.078-51.188 14.063-52.253zm-42.257 52.249h-17.61c-15.681-42.633 16.93-99.358 43.048-134.317 1.843 24.777 4.431 98.228-25.438 134.313zm-34.3-119.387c7.725 9.556 14.343 22.169 19.724 37.6-10.516 20.517-13.713 39.141-13.9 53.823a37.034 37.034 0 0 0 -8.246-4.235c-7.465-32.902-.789-71.95 2.422-87.192zm-20.359 85.953a94.675 94.675 0 0 0 16.942 8.382 25.52 25.52 0 0 1 9.549 6.645 92.872 92.872 0 0 0 3.221 18.407h-11.137c-3.558-2.574-18.066-14.217-18.575-33.438zm72.585 109.36a6.246 6.246 0 0 1 -6.169 5.394h-43.1a6.246 6.246 0 0 1 -6.169-5.394l-9.29-68.926h74.018zm-.586-75.926h-8.533c7.146-10.012 12.316-22 16.018-34.733a86.833 86.833 0 0 1 11.382-8.263c-1.782 13.899-7.09 36.921-18.871 42.992z"/></g></svg>