<svg id="icon" height="512" viewBox="0 0 340 340" width="512" xmlns="http://www.w3.org/2000/svg"><path d="m170.522 289.891c6.132-71.922 9.628-139.643 0-186.438 0 0-75.543-38.014-153.33-2.725a9.812 9.812 0 0 0 -5.714 8.95v180.213z" fill="#bac7e5"/><path d="m170.522 289.891c4.806-78.156 9.409-159.969 16.7-193.06 26.728-9.034 81.8-21.395 137.584 3.9a9.812 9.812 0 0 1 5.715 8.95v180.21z" fill="#fff"/><path d="m187.223 96.832a147.159 147.159 0 0 0 -16.7 6.621v186.438h16.7z" fill="#bac7e5"/><path d="m161.691 286.081c-22.8-8.928-86.357-28.133-150.213 3.81v29.532c72.871-20.688 129.922-8.668 150.622-2.723a30.692 30.692 0 0 0 16.858.025c20.877-5.934 78.585-18.02 151.562 2.7v-29.534c-63.934-31.982-128.178-12.691-151.154-3.777a24.322 24.322 0 0 1 -17.675-.033z" fill="#7988b7"/><path d="m159.4 274.588c-15.579-18.268-48.416-47.347-104.038-55.23a11.119 11.119 0 0 1 -9.608-10.985v-167.173a8.264 8.264 0 0 1 9.206-8.215c86 10.117 115.561 70.472 115.561 70.472v167.009a6.321 6.321 0 0 1 -11.121 4.122z" fill="#fff"/><path d="m81.992 172.206a83.507 83.507 0 0 1 22.8 11.032v-27.149a81.236 81.236 0 0 0 -22.8-11.162z" fill="#bac7e5"/><path d="m314.453 22.267a9.238 9.238 0 0 0 -13.278 3.117c-12.975 23.471-33.211 44.234-33.211 44.234h-26.056s-20.237-20.763-33.208-44.234a9.262 9.262 0 0 0 -16.507 8.368c4.969 10.912 15.456 32.279 28.621 49.73a30.058 30.058 0 0 1 5.991 15.218l4.183 43.647h47.9l4.178-43.647a30.059 30.059 0 0 1 6-15.215c13.165-17.451 23.651-38.818 28.62-49.73a9.251 9.251 0 0 0 -3.233-11.488z" fill="#deebff"/><circle cx="254.936" cy="57.781" fill="#deebff" r="19.024"/><path d="m293.571 232.1h-77.271l-1.367-59.315a178.545 178.545 0 0 1 79.792 9.185z" fill="#e28683"/><path d="m254.936 125.3 4.921-5.029-1.93-26.624a1.72 1.72 0 0 0 -1.647-1.635h-2.689a1.719 1.719 0 0 0 -1.646 1.635l-1.93 26.624z" fill="#3c3c4f"/><path d="m295.571 145.306h-81.27l.633 27.481 79.792 9.185z" fill="#a05858"/><path d="m204.153 138.125h101.566a0 0 0 0 1 0 0v10.813a8.5 8.5 0 0 1 -8.5 8.5h-84.57a8.5 8.5 0 0 1 -8.5-8.5v-10.813a0 0 0 0 1 .004 0z" fill="#e28683"/><g fill="#3c3c4f"><path d="m106.871 153.27c-10.742-7.9-23.394-11.538-23.921-11.709a3.352 3.352 0 0 0 -4.458 3.366v27.279a3.5 3.5 0 0 0 2.5 3.355 81.466 81.466 0 0 1 21.738 10.5c3.006 1.559 5.561-.512 5.561-2.828v-27.144a3.5 3.5 0 0 0 -1.42-2.819zm-5.575 23.6a87.925 87.925 0 0 0 -15.8-7.222v-19.828a76.482 76.482 0 0 1 15.8 8.075z"/><path d="m81.219 73.271c1.088.246 3.838.911 4.134.911 3.991.049 4.814-5.889.889-6.886-2.733-.817-6.721-2.014-7.663 1.789a3.5 3.5 0 0 0 2.64 4.186z"/><path d="m105.236 81.929c22.528 9.993 38.595 27.354 38.754 27.527 2.85 2.641 8.423-.563 5.164-4.725-.689-.754-17.169-18.594-41.079-29.2-4.175-1.831-7.025 4.517-2.839 6.398z"/><path d="m81.219 99.125c35.23 7.981 62.544 35.988 62.833 36.252 4.13 3.436 7.735-1.943 5.04-4.858-1.166-1.211-29.009-29.767-66.326-38.221-4.484-.936-6.034 5.725-1.547 6.827z"/><path d="m81.219 124.98c35.23 7.981 62.561 35.97 62.833 36.252a3.99 3.99 0 0 0 4.948.09 3.421 3.421 0 0 0 .092-4.948c-1.166-1.211-29.009-29.767-66.326-38.221a3.5 3.5 0 1 0 -1.547 6.827z"/><path d="m123.73 161.988c-4-2.2-7.4 3.87-3.4 6.118 12.46 6.929 23.568 18.813 23.678 18.932.69.743 3.26 1.675 4.946.184a3.47 3.47 0 0 0 .186-4.945c-.484-.519-11.956-12.808-25.41-20.289z"/><path d="m148.952 213.077a3.488 3.488 0 0 0 .186-4.945c-.482-.519-11.954-12.808-25.409-20.289a3.5 3.5 0 0 0 -3.4 6.118c12.46 6.928 23.568 18.813 23.678 18.932.693.743 3.308 1.675 4.945.184z"/><path d="m331.106 100.331a166.273 166.273 0 0 0 -19.358-8.2 3.5 3.5 0 1 0 -2.289 6.623 158.69 158.69 0 0 1 16.563 6.874v178.716c-56.72-25.189-111-16.435-153 .142v-178.8a181.742 181.742 0 0 1 22.564-8.123 3.91 3.91 0 0 0 2.715-3.511 3.517 3.517 0 0 0 -4.5-3.282 186.86 186.86 0 0 0 -22.787 8.138c-24.382-36.933-60.05-64.06-126.007-70.289a3.485 3.485 0 0 0 -3.753 3.492v56c-5.922 1.635-20.582 6.013-32.444 12.261a3.47 3.47 0 0 0 -1.832 3.077v215.851a3.586 3.586 0 0 0 4.456 3.491c86.527-24.219 145.254-3.147 158.065-.1 12.976-2.924 72.487-24.2 159.067.1 2.867.533 4.456-.931 4.456-3.469v-215.87a3.491 3.491 0 0 0 -1.916-3.121zm-317.128 5.269a174.741 174.741 0 0 1 27.276-10.2v122.84a3.5 3.5 0 0 0 3.249 3.491c61.3 6.276 90.942 27.763 116.473 60.7-43.463-15.263-90.383-22.42-147 1.919zm152.044 208.921c-44.024-12.282-88.592-15.48-152.044.306v-7.487c67.98-29.651 141.1-4.207 152.044-.072zm0-14.728c-40.945-14.009-97.511-22.174-152.044-.068v-7.656c54.679-26.458 113.444-16.715 152.044.048zm0-22.4c-4.548-6.351-36.4-56.488-117.768-62.39v-179.096c59.8 5.692 98.087 35.323 117.768 68.407zm160 37.434c-49.289-15.351-120.8-11.327-153-.288v-7.189c10.3-3.885 84.571-29.854 153-.01zm0-15.1c-54.438-22.179-112.194-13.839-153 .153v-7.75c12.5-5.553 83.087-33.867 153-.061z"/><path d="m316.421 19.372c-5.921-4.215-14.925-2.123-18.31 4.319a209.361 209.361 0 0 1 -20.988 30.231c-4.439-24.638-39.945-24.622-44.374 0a209.071 209.071 0 0 1 -20.989-30.23 12.684 12.684 0 0 0 -8.144-6.183c-9.946-2.685-19.209 8.411-14.611 17.694 5.12 11.243 15.7 32.738 29.012 50.386a26.568 26.568 0 0 1 5.3 13.442l3.412 35.593h-22.58a3.5 3.5 0 0 0 -3.5 3.5c.1 9.683-2.009 20.3 10.505 22.706l1.645 71.353a3.5 3.5 0 0 0 3.5 3.419h77.271a3.5 3.5 0 0 0 3.5-3.419l1.645-71.353c12.5-2.391 10.415-13.038 10.5-22.706a3.5 3.5 0 0 0 -3.5-3.5h-22.575l3.411-35.593a26.561 26.561 0 0 1 5.3-13.442c13.311-17.643 23.89-39.141 29.012-50.387a12.726 12.726 0 0 0 -4.442-15.83zm-61.485 22.885c20.471.538 20.466 30.514 0 31.048-20.47-.538-20.467-30.513 0-31.048zm-35.215 186.343-1.559-67.669h73.548l-1.56 67.669zm82.5-79.665a5 5 0 0 1 -5 5h-84.573c-6.632-.266-4.75-7.944-5-12.309h94.567zm12.279-116.635c-5 10.984-15.321 31.963-28.228 49.072a33.558 33.558 0 0 0 -6.686 16.99l-3.475 36.261h-42.346l-3.476-36.261a33.56 33.56 0 0 0 -6.685-16.99c-12.911-17.114-23.228-38.09-28.228-49.072-3.007-6.523 6.757-11.53 10.257-5.223 9.091 16.443 21.692 31.581 28.447 39.195 7.3 18.548 34.467 18.51 41.729-.043 6.809-7.619 19.3-22.685 28.429-39.152 3.488-6.287 13.272-1.32 10.262 5.223z"/><path d="m258.286 88.51h-6.7a3.5 3.5 0 0 0 -3.486 3.19l-2.447 27.364a3.508 3.508 0 0 0 .985 2.76l5.8 5.923a3.521 3.521 0 0 0 5 0l5.8-5.923a3.5 3.5 0 0 0 .985-2.76l-2.451-27.364a3.5 3.5 0 0 0 -3.486-3.19zm-3.35 31.784-2.167-2.215 2.017-22.569h.3l2.018 22.569z"/></g></svg>