<svg id="icon" height="512" viewBox="0 0 340 340" width="512" xmlns="http://www.w3.org/2000/svg"><path d="m169.522 284.134c6.132-71.921 9.628-139.642 0-186.438 0 0-75.543-38.013-153.33-2.724a9.812 9.812 0 0 0 -5.714 8.95v180.212z" fill="#bac7e5"/><path d="m169.522 284.134c4.806-78.155 9.409-159.968 16.7-193.059 26.728-9.034 81.8-21.395 137.584 3.9a9.812 9.812 0 0 1 5.715 8.95v180.209z" fill="#fff"/><path d="m186.223 91.076a147.159 147.159 0 0 0 -16.7 6.621v186.438h16.7z" fill="#bac7e5"/><path d="m160.691 280.325c-22.8-8.928-86.357-28.133-150.213 3.81v29.532c72.871-20.688 129.922-8.667 150.622-2.724a30.683 30.683 0 0 0 16.858.026c20.877-5.935 78.585-18.02 151.562 2.7v-29.534c-63.934-31.982-128.178-12.691-151.154-3.777a24.322 24.322 0 0 1 -17.675-.033z" fill="#7988b7"/><path d="m158.4 268.832c-15.579-18.269-48.416-47.347-104.038-55.23a11.119 11.119 0 0 1 -9.608-10.985v-167.178a8.263 8.263 0 0 1 9.206-8.214c86 10.117 115.561 70.471 115.561 70.471v167.014a6.321 6.321 0 0 1 -11.121 4.122z" fill="#fff"/><path d="m80.992 166.45a83.521 83.521 0 0 1 22.8 11.031v-27.148a81.236 81.236 0 0 0 -22.8-11.162z" fill="#bac7e5"/><path d="m239.915 73.931s-16.759-10.031-11.583-31.331a7.191 7.191 0 0 1 10.558-4.561c.412.235.825.491 1.234.771a15.1 15.1 0 0 0 10.545 2.657c5.482-.746 13.584-.737 20.737 3.656a6.566 6.566 0 0 1 .331 10.947c-5.012 3.587-11.2 9.525-13.172 17.866z" fill="#9bbc80"/><rect fill="#3c3c4f" height="17.394" rx="8.697" width="36.606" x="229.305" y="71.922"/><path d="m251.7 86.248s-48.655-3.323-57.674 48.892 17.822 59.839 35.375 62.2h54.34s32.511-35.38 13.049-82.14c0 0-11.39-26.341-45.09-28.952z" fill="#9bbc80"/><path d="m298.6 222.358h-21.415a6.089 6.089 0 0 1 -6.089-6.09v-71.219a6.089 6.089 0 0 1 6.089-6.09h21.415a549.085 549.085 0 0 1 0 83.399z" fill="#ffbe71"/><path d="m256.9 222.358h-21.414a6.089 6.089 0 0 1 -6.09-6.09v-37.86a6.089 6.089 0 0 1 6.09-6.089h21.414a180.622 180.622 0 0 1 0 50.039z" fill="#ffbe71"/><path d="m271.096 152.139h41.7v7h-41.7z" fill="#cc7256"/><path d="m271.096 168.818h41.7v7h-41.7z" fill="#cc7256"/><path d="m229.396 185.498h41.7v7h-41.7z" fill="#cc7256"/><path d="m229.396 202.179h41.7v7h-41.7z" fill="#cc7256"/><path d="m271.096 185.498h41.7v7h-41.7z" fill="#cc7256"/><path d="m271.096 202.179h41.7v7h-41.7z" fill="#cc7256"/><path d="m251.88 141.555a10.006 10.006 0 0 0 -10-10h-3.691a3 3 0 1 1 0-5.991h7.471a3.5 3.5 0 0 0 0-7h-2.039v-2.111a3.5 3.5 0 0 0 -7 0v2.247a9.989 9.989 0 0 0 1.568 19.856h3.691a3 3 0 0 1 0 5.991h-8.752a3.5 3.5 0 1 0 0 7h3.493v2.11a3.5 3.5 0 0 0 7 0v-2.272a10 10 0 0 0 8.259-9.83z" fill="#fff"/><path d="m265.006 172.319h-8.1v50.039h8.1a6.09 6.09 0 0 0 6.09-6.089v-37.861a6.09 6.09 0 0 0 -6.09-6.089z" fill="#cc7256"/><path d="m306.706 138.959h-8.1v83.4h8.1a6.089 6.089 0 0 0 6.089-6.089v-71.22a6.089 6.089 0 0 0 -6.089-6.091z" fill="#cc7256"/><g fill="#3c3c4f"><path d="m105.871 147.514c-10.742-7.9-23.394-11.539-23.921-11.709a3.352 3.352 0 0 0 -4.458 3.366v27.279a3.5 3.5 0 0 0 2.5 3.355 81.466 81.466 0 0 1 21.738 10.5c3.006 1.558 5.561-.512 5.561-2.829v-27.143a3.5 3.5 0 0 0 -1.42-2.819zm-5.575 23.6a87.925 87.925 0 0 0 -15.8-7.222v-19.829a76.543 76.543 0 0 1 15.8 8.076z"/><path d="m80.219 67.515c1.088.246 3.838.91 4.134.91 3.991.05 4.814-5.888.889-6.885-2.733-.817-6.721-2.014-7.663 1.788a3.5 3.5 0 0 0 2.64 4.187z"/><path d="m104.236 76.173c22.528 9.993 38.595 27.353 38.754 27.527 2.85 2.641 8.423-.564 5.164-4.726-.689-.753-17.169-18.593-41.079-29.2-4.175-1.83-7.025 4.517-2.839 6.399z"/><path d="m80.219 93.369c35.23 7.981 62.544 35.987 62.833 36.252 4.13 3.435 7.735-1.943 5.04-4.858-1.166-1.211-29.009-29.763-66.326-38.221-4.484-.936-6.034 5.725-1.547 6.827z"/><path d="m80.219 119.224c35.23 7.981 62.561 35.97 62.833 36.252a3.99 3.99 0 0 0 4.948.089 3.419 3.419 0 0 0 .092-4.947c-1.166-1.211-29.009-29.767-66.326-38.221a3.5 3.5 0 1 0 -1.547 6.827z"/><path d="m122.73 156.231c-4-2.2-7.4 3.871-3.4 6.119 12.46 6.928 23.568 18.813 23.678 18.932.69.742 3.26 1.675 4.946.184a3.47 3.47 0 0 0 .186-4.945c-.484-.521-11.956-12.808-25.41-20.29z"/><path d="m147.952 207.321a3.488 3.488 0 0 0 .186-4.945c-.482-.52-11.954-12.809-25.409-20.29a3.5 3.5 0 0 0 -3.4 6.119c12.46 6.928 23.568 18.813 23.678 18.932.693.742 3.308 1.675 4.945.184z"/><path d="m331.105 94.574a168.185 168.185 0 0 0 -38.894-13.774 3.5 3.5 0 1 0 -1.5 6.845 161.134 161.134 0 0 1 35.312 12.23v178.713c-56.72-25.19-111-16.435-153 .142v-178.797c4.021-1.8 20.334-7.505 34.451-11.213 4.56-1.183 3.018-7.881-1.592-6.834-13.786 3.593-30.118 9.179-34.865 11.269-24.385-36.936-60.053-64.063-126.01-70.293a3.486 3.486 0 0 0 -3.753 3.492v56c-5.922 1.639-20.582 6.017-32.444 12.265a3.47 3.47 0 0 0 -1.832 3.081v215.843a3.586 3.586 0 0 0 4.456 3.491c86.527-24.22 145.254-3.147 158.065-.1 12.976-2.924 72.487-24.2 159.067.1 2.867.532 4.456-.931 4.456-3.469v-215.865a3.49 3.49 0 0 0 -1.917-3.126zm-317.127 5.264a174.721 174.721 0 0 1 27.276-10.2v122.84a3.5 3.5 0 0 0 3.246 3.492c61.3 6.276 90.942 27.763 116.473 60.7-43.463-15.263-90.383-22.42-147 1.919zm152.044 208.927c-44.022-12.282-88.592-15.48-152.044.305v-7.486c67.98-29.651 141.1-4.207 152.044-.072zm0-14.729c-40.945-14.008-97.511-22.174-152.044-.067v-7.656c54.679-26.459 113.444-16.715 152.044.047zm0-22.4c-4.548-6.351-36.4-56.488-117.768-62.39v-179.095c59.8 5.691 98.087 35.322 117.768 68.407zm160 37.433c-49.289-15.351-120.8-11.326-153-.287v-7.189c10.3-3.885 84.571-29.854 153-.01zm0-15.1c-54.437-22.178-112.194-13.838-153 .153v-7.748c12.5-5.553 83.087-33.867 153-.061z"/><path d="m306.705 225.858a9.6 9.6 0 0 0 9.59-9.589v-71.22a9.681 9.681 0 0 0 -10.441-9.59c-3.41-17.746-6.161-36.277-37.739-49.392a12.256 12.256 0 0 0 -4.515-15.819 32.134 32.134 0 0 1 10.174-11.337c5.8-3.9 5.536-13.282-.536-16.775-8.016-4.924-16.956-4.97-23.04-4.141-6.9 1.155-11.875-7.289-19.118-3.529a10.614 10.614 0 0 0 -6.149 7.3c-3.311 13.622 1.422 23.138 6.141 28.825a12.278 12.278 0 0 0 -3.556 16.239c-15.24 6.065-31.288 17.531-36.944 47.712-6.87 35.227 4.248 61.983 35.324 65.811v15.913a9.6 9.6 0 0 0 9.589 9.589h29.521a9.547 9.547 0 0 0 6.09-2.187 9.543 9.543 0 0 0 6.09 2.187zm-74.972-182.438c.658-2.928 4.31-3.635 6.414-1.726a18.6 18.6 0 0 0 12.994 3.237c3.069-.753 18.631-.533 19.873 5.637a3.083 3.083 0 0 1 -1.313 2.651c-4.32 3.092-9.89 8.158-12.962 15.2h-18.128c-4.123-3.927-10.011-12.096-6.878-24.999zm1.072 37.2a5.2 5.2 0 0 1 5.2-5.2h19.212c4.378-.139 6.878 5.527 3.865 8.666a67.487 67.487 0 0 0 -9.145-1.332 61.469 61.469 0 0 0 -17.245 1.867 5.167 5.167 0 0 1 -1.887-4.002zm-30.192 99.82c-6.894-9.5-8.625-24.543-5.142-44.7 8.356-48.382 52.133-46.111 53.954-46 39.226 5.271 44.321 29.463 47.368 45.722h-21.607a9.6 9.6 0 0 0 -9.59 9.59v24.134c.317-.763-31.219-.2-32.111-.365a9.6 9.6 0 0 0 -9.589 9.59v14.839c-8.008-1.435-17.202-4.43-23.283-12.811zm62.393 38.419h-29.521a2.593 2.593 0 0 1 -2.589-2.589v-37.862a2.593 2.593 0 0 1 2.589-2.59h29.521a2.593 2.593 0 0 1 2.59 2.59v37.861a2.593 2.593 0 0 1 -2.59 2.589zm9.59-2.589v-71.22a2.593 2.593 0 0 1 2.59-2.59h29.519a2.593 2.593 0 0 1 2.59 2.59v71.22a2.593 2.593 0 0 1 -2.59 2.589h-29.519a2.593 2.593 0 0 1 -2.586-2.59z"/></g></svg>