<svg id="icon" height="512" viewBox="0 0 340 340" width="512" xmlns="http://www.w3.org/2000/svg"><path d="m169.522 292.646c6.132-71.921 9.628-139.643 0-186.438 0 0-75.543-38.014-153.33-2.724a9.811 9.811 0 0 0 -5.714 8.949v180.213z" fill="#bac7e5"/><path d="m169.522 292.646c4.806-78.156 9.409-159.968 16.7-193.06 26.728-9.033 81.8-21.394 137.584 3.9a9.812 9.812 0 0 1 5.715 8.95v180.21z" fill="#fff"/><path d="m186.223 99.587a147.159 147.159 0 0 0 -16.7 6.621v186.438h16.7z" fill="#bac7e5"/><path d="m160.691 288.837c-22.8-8.929-86.357-28.133-150.213 3.809v29.533c72.871-20.689 129.92-8.668 150.624-2.724a30.692 30.692 0 0 0 16.858.026c20.877-5.935 78.585-18.021 151.562 2.7v-29.535c-63.934-31.981-128.178-12.691-151.154-3.777a24.327 24.327 0 0 1 -17.677-.032z" fill="#7988b7"/><path d="m158.4 277.343c-15.578-18.268-48.415-47.343-104.037-55.229a11.12 11.12 0 0 1 -9.608-10.986v-167.177a8.262 8.262 0 0 1 9.206-8.214c86 10.117 115.561 70.471 115.561 70.471v167.013a6.321 6.321 0 0 1 -11.122 4.122z" fill="#fff"/><path d="m80.992 174.961a83.54 83.54 0 0 1 22.8 11.032v-27.149a81.236 81.236 0 0 0 -22.8-11.162z" fill="#bac7e5"/><path d="m298.107 180.787a96.077 96.077 0 0 0 -5.868-22.763c-11.061-27.388-7.2-51.089-7.2-51.089h-69.479s3.862 23.7-7.2 51.089a96.08 96.08 0 0 0 -5.869 22.763 22.524 22.524 0 0 0 2.154 13.188c5.041 10.025 17.755 27.253 45.655 27.253s40.614-17.228 45.653-27.253a22.516 22.516 0 0 0 2.154-13.188z" fill="#e28683"/><path d="m286.444 138.466c-3.574-18.209-1.4-31.531-1.4-31.531h-69.484s2.17 13.322-1.4 31.531a33.96 33.96 0 0 0 14.936 14.213v4.036a21.209 21.209 0 0 0 21.204 21.209 21.21 21.21 0 0 0 21.209-21.209v-4.036a33.952 33.952 0 0 0 14.935-14.213z" fill="#a05858"/><path d="m250.3 168.692a14.634 14.634 0 0 1 -14.633-14.634v-8.239a82.257 82.257 0 0 1 29.267-.089v8.328a14.634 14.634 0 0 1 -14.634 14.634z" fill="#f4607a"/><path d="m264.934 120.83h-29.267v24.989c9.562 2.8 22.947 2.009 29.267-.089z" fill="#ce3f5e"/><path d="m281.3 21.224-19.028 25.14a39.615 39.615 0 0 0 -23.942 0l-19.03-25.14a2.571 2.571 0 0 0 -4.39.485c-20.588 45.852-.161 91.074 9.763 108.669a15.107 15.107 0 0 0 13.164 7.689h4.279a8.146 8.146 0 0 0 4.77-1.533l3.544-3.423 3.28 3.423a8.149 8.149 0 0 0 4.771 1.533h4.279a15.107 15.107 0 0 0 13.163-7.688c9.925-17.595 30.352-62.818 9.764-108.67a2.571 2.571 0 0 0 -4.387-.485z" fill="#e28683"/><path d="m246.884 136.536a6 6 0 0 1 6.824 0h.005v-25.53h-6.833z" fill="#a05858"/><path d="m258.587 105.262h-16.574c-3.235 0-5.439 3.66-4.059 6.845a15.675 15.675 0 0 0 10.425 8.893 6.687 6.687 0 0 0 3.843 0 15.675 15.675 0 0 0 10.425-8.888c1.38-3.19-.824-6.85-4.06-6.85z" fill="#3c3c4f"/><circle cx="237.754" cy="82.798" fill="#3c3c4f" r="3.721"/><circle cx="262.847" cy="82.798" fill="#3c3c4f" r="3.721"/><path d="m226.931 52.35a51.536 51.536 0 0 0 -8.126 6.7 2.052 2.052 0 0 1 -3.534-1.286c-.339-5.024-.332-13.006 2.1-19.967a1.705 1.705 0 0 1 3-.439l7.391 10.317a3.311 3.311 0 0 1 -.831 4.675z" fill="#a05858"/><path d="m273.689 52.35a51.494 51.494 0 0 1 8.127 6.7 2.052 2.052 0 0 0 3.534-1.286c.339-5.024.332-13.006-2.1-19.967a1.705 1.705 0 0 0 -3-.439l-7.391 10.317a3.312 3.312 0 0 0 .83 4.675z" fill="#a05858"/><g fill="#3c3c4f"><path d="m105.871 156.025c-10.742-7.9-23.394-11.538-23.921-11.709a3.352 3.352 0 0 0 -4.458 3.366v27.279a3.5 3.5 0 0 0 2.5 3.356 81.4 81.4 0 0 1 21.738 10.5c3.006 1.558 5.561-.513 5.561-2.829v-27.144a3.5 3.5 0 0 0 -1.42-2.819zm-5.575 23.6a87.86 87.86 0 0 0 -15.8-7.221v-19.829a76.582 76.582 0 0 1 15.8 8.075z"/><path d="m80.219 76.026c1.088.246 3.838.911 4.134.911 3.991.049 4.814-5.888.889-6.885-2.733-.818-6.721-2.015-7.663 1.788a3.5 3.5 0 0 0 2.64 4.186z"/><path d="m104.236 84.684c22.528 9.994 38.595 27.354 38.754 27.528 2.85 2.641 8.423-.564 5.164-4.726-.689-.754-17.169-18.594-41.079-29.2-4.175-1.831-7.025 4.514-2.839 6.398z"/><path d="m80.219 101.881c35.23 7.981 62.544 35.987 62.833 36.251 4.13 3.436 7.735-1.942 5.04-4.857-1.166-1.212-29.009-29.767-66.326-38.221-4.484-.936-6.034 5.724-1.547 6.827z"/><path d="m80.219 127.736c35.23 7.981 62.561 35.969 62.833 36.251a3.99 3.99 0 0 0 4.948.09 3.419 3.419 0 0 0 .092-4.947c-1.166-1.212-29.009-29.767-66.326-38.221a3.5 3.5 0 1 0 -1.547 6.827z"/><path d="m122.73 164.743c-4-2.2-7.4 3.87-3.4 6.118 12.46 6.929 23.568 18.813 23.678 18.932.69.743 3.26 1.675 4.946.184a3.469 3.469 0 0 0 .186-4.944c-.484-.52-11.956-12.809-25.41-20.29z"/><path d="m147.952 215.832a3.487 3.487 0 0 0 .186-4.944c-.482-.52-11.954-12.809-25.409-20.29a3.5 3.5 0 0 0 -3.4 6.118c12.46 6.928 23.568 18.813 23.678 18.932.693.743 3.308 1.676 4.945.184z"/><path d="m331.105 103.086a166.851 166.851 0 0 0 -23.836-9.7 3.5 3.5 0 1 0 -2.111 6.679 159.609 159.609 0 0 1 20.864 8.324v178.711c-56.72-25.19-111-16.436-153 .141v-178.8a182.383 182.383 0 0 1 22.991-8.246 3.387 3.387 0 0 0 2.43-3.564 3.512 3.512 0 0 0 -4.465-3.156 187.1 187.1 0 0 0 -22.962 8.188c-24.384-36.932-60.052-64.063-126.009-70.289a3.486 3.486 0 0 0 -3.753 3.492v56c-5.922 1.639-20.582 6.017-32.444 12.264a3.473 3.473 0 0 0 -1.832 3.078v215.847a3.585 3.585 0 0 0 4.456 3.49c86.527-24.219 145.254-3.147 158.065-.1 12.951-2.916 72.478-24.2 159.067.1 2.867.532 4.456-.931 4.456-3.47v-215.867a3.492 3.492 0 0 0 -1.917-3.122zm-317.127 5.264a174.741 174.741 0 0 1 27.276-10.2v122.84a3.5 3.5 0 0 0 3.249 3.491c61.3 6.276 90.942 27.763 116.473 60.7-43.463-15.262-90.383-22.419-147 1.919zm152.044 208.926c-44.022-12.282-88.592-15.476-152.044.306v-7.482c67.98-29.652 141.1-4.208 152.044-.072zm0-14.728c-40.945-14.008-97.511-22.174-152.044-.067v-7.656c54.679-26.459 113.444-16.716 152.044.047zm0-22.4c-4.548-6.351-36.4-56.488-117.768-62.39v-179.096c59.8 5.692 98.087 35.323 117.768 68.407zm160 37.433c-49.289-15.351-120.8-11.326-153-.288v-7.189c10.3-3.885 84.571-29.854 153-.009zm0-15.1c-54.437-22.179-112.194-13.839-153 .153v-7.749c12.5-5.553 83.087-33.867 153-.06z"/><path d="m199.026 180.308c-1.858 19.924 18.134 44.195 51.273 44.42 33.154-.223 53.115-24.49 51.277-44.419a99.434 99.434 0 0 0 -6.092-23.595 106.2 106.2 0 0 1 -7.524-43.445c9.481-23.792 17.332-60.377-.974-96.989a3.5 3.5 0 0 0 -5.921-.547l-20.109 26.567c-4.139-1.6-17.173-1.6-21.311 0l-20.109-26.57a3.5 3.5 0 0 0 -5.922.547c-18.333 36.666-10.432 73.3-.932 97.094a107.487 107.487 0 0 1 -7.566 43.34 99.368 99.368 0 0 0 -6.09 23.597zm18.44-155.708 15.526 20.514a31.439 31.439 0 0 0 -4.955 3.453 3.523 3.523 0 0 0 2.293 6.145 3.485 3.485 0 0 0 2.291-.855 28.547 28.547 0 0 1 7.008-4.24c4.033-2.035 17.52-1.963 21.339 0a28.516 28.516 0 0 1 7.012 4.241 3.485 3.485 0 0 0 2.291.855c3.1.114 4.769-4.154 2.293-6.145a31.439 31.439 0 0 0 -4.955-3.453l15.526-20.515c18.844 43.872-.678 87.077-10.259 104.061-2.929 5.441-8.771 6.3-14.393 5.908-5.808-.249-4.6-6.429-4.683-10.409 9.146-3.233 15.645-11.472 11.359-18.772a7.88 7.88 0 0 0 -6.572-3.623h-16.574c-14.116 2.154-7.458 19.029 4.787 22.395-.084 3.971 1.129 10.163-4.683 10.409-5.624.393-11.463-.464-14.393-5.909-9.58-16.985-29.102-60.19-10.258-104.06zm21.7 116.969c2.438.038 5.456.107 7.633-.988v13.5a3.5 3.5 0 0 0 7 0v-13.5c2.172 1.095 5.2 1.027 7.634.988v12.491a11.134 11.134 0 1 1 -22.267 0zm11.134-23.675c-3.789-.655-10.143-5.147-9.007-8.666a.923.923 0 0 1 .72-.465h16.574c.813.172 1.174.888.849 1.953-1.581 3.648-4.652 6.06-9.136 7.178zm-44.34 63.371a92.5 92.5 0 0 1 5.646-21.93 112.524 112.524 0 0 0 7.619-31.675c2.724 5.883 6.614 11.163 12.942 13.01v13.388a18.134 18.134 0 1 0 36.267 0v-13.388c6.329-1.849 10.215-7.124 12.94-13.008a112.426 112.426 0 0 0 7.62 31.673 92.434 92.434 0 0 1 5.646 21.93c1.225 16.109-16.327 36.364-44.339 36.463-28.035-.104-45.547-20.344-44.341-36.463z"/></g></svg>