<svg id="icon" height="512" viewBox="0 0 340 340" width="512" xmlns="http://www.w3.org/2000/svg"><path d="m169.522 300.754c6.132-71.922 9.628-139.643 0-186.438 0 0-75.543-38.014-153.33-2.724a9.811 9.811 0 0 0 -5.714 8.949v180.213z" fill="#bac7e5"/><path d="m169.522 300.754c4.806-78.156 9.409-159.968 16.7-193.06 26.728-9.033 81.8-21.394 137.584 3.9a9.812 9.812 0 0 1 5.715 8.95v180.21z" fill="#fff"/><path d="m186.223 107.7a147.159 147.159 0 0 0 -16.7 6.621v186.433h16.7z" fill="#bac7e5"/><path d="m160.691 296.945c-22.8-8.929-86.357-28.133-150.213 3.809v29.533c72.871-20.687 129.922-8.668 150.622-2.724a30.692 30.692 0 0 0 16.858.026c20.877-5.935 78.585-18.021 151.562 2.7v-29.535c-63.934-31.981-128.178-12.691-151.154-3.777a24.327 24.327 0 0 1 -17.675-.032z" fill="#7988b7"/><path d="m158.4 285.451c-15.579-18.268-48.416-47.346-104.038-55.229a11.12 11.12 0 0 1 -9.608-10.986v-167.177a8.262 8.262 0 0 1 9.206-8.214c86 10.117 115.561 70.471 115.561 70.471v167.013a6.321 6.321 0 0 1 -11.121 4.122z" fill="#fff"/><path d="m80.992 183.069a83.54 83.54 0 0 1 22.808 11.031v-27.148a81.236 81.236 0 0 0 -22.8-11.162z" fill="#bac7e5"/><path d="m278.28 223.3.24.04a18.962 18.962 0 0 0 15.619-4.486l9.341-8.211a3 3 0 1 0 -3.961-4.506l-9.341 8.21a12.964 12.964 0 0 1 -10.691 3.071l-.23-.038a28.005 28.005 0 0 0 -8.7-.275l22.065-17.538a3 3 0 1 0 -3.735-4.7l-22.917 18.216a24.889 24.889 0 0 0 2.186-7.029l.189-1.6a13.022 13.022 0 0 1 4.209-8.133l10.374-9.356a3 3 0 0 0 -4.017-4.456l-10.374 9.356a19.02 19.02 0 0 0 -6.151 11.882l-.189 1.6a21.764 21.764 0 0 1 -7.293 12.769l-43.771-33.466a1.876 1.876 0 0 0 -2.984 1.172c-6.451 37.964 23.623 42.557 35.941 42.872a17.046 17.046 0 0 1 9.663 3.265l39.915 29.282a5.356 5.356 0 0 0 7.593-1.3 5.358 5.358 0 0 0 -1.17-7.278l-35.71-27.3a20.645 20.645 0 0 1 13.899-2.063z" fill="#3c3c4f"/><path d="m244.285 237.238-6.585-2.438a6.874 6.874 0 0 0 -6.595 1.012l-21.751 16.85a5.358 5.358 0 0 0 -1.17 7.278 5.356 5.356 0 0 0 7.593 1.3l28.866-21.5a1.437 1.437 0 0 0 -.358-2.502z" fill="#3c3c4f"/><path d="m214.648 145.112s9.745 4.59 29.665 4.59 45.077-2.757 45.077-2.757 3.979 17.791-15.2 17.791h-49.96s-15.612-1.191-9.582-19.624z" fill="#b8ccf4"/><path d="m295.555 30.99a32.32 32.32 0 0 0 -10.08.455 38.456 38.456 0 0 0 -68.979-.192 31.873 31.873 0 0 0 -37.296 31.436c0 14.535 7.023 28.26 22.374 31.394a13.4 13.4 0 0 1 10.905 13.044v39.818a159.4 159.4 0 0 0 76.907 0v-39.7a13.33 13.33 0 0 1 10.314-12.918c13.873-3.347 25.041-18.779 24.067-33.768a31.986 31.986 0 0 0 -28.212-29.569z" fill="#f8fcff"/><g fill="#3c3c4f"><path d="m105.871 163.749c-10.742-7.9-23.394-11.538-23.921-11.709a3.352 3.352 0 0 0 -4.458 3.366v27.279a3.5 3.5 0 0 0 2.5 3.356 81.446 81.446 0 0 1 21.738 10.5c3.006 1.559 5.561-.512 5.561-2.828v-27.145a3.5 3.5 0 0 0 -1.42-2.819zm-5.575 23.6a87.86 87.86 0 0 0 -15.8-7.221v-19.828a76.482 76.482 0 0 1 15.8 8.075z"/><path d="m80.219 83.75c1.088.246 3.838.911 4.134.911 3.991.049 4.814-5.889.889-6.886-2.733-.817-6.721-2.014-7.663 1.789a3.5 3.5 0 0 0 2.64 4.186z"/><path d="m104.236 92.408c22.528 9.993 38.595 27.354 38.754 27.528 2.85 2.64 8.423-.564 5.164-4.726-.689-.754-17.169-18.594-41.079-29.2-4.175-1.831-7.025 4.517-2.839 6.398z"/><path d="m80.219 109.6c35.23 7.981 62.544 35.988 62.833 36.252 4.13 3.436 7.735-1.943 5.04-4.857-1.166-1.212-29.009-29.768-66.326-38.222-4.484-.932-6.034 5.727-1.547 6.827z"/><path d="m80.219 135.459c35.23 7.981 62.561 35.97 62.833 36.252a3.99 3.99 0 0 0 4.948.09 3.421 3.421 0 0 0 .092-4.948c-1.166-1.211-29.009-29.767-66.326-38.221a3.5 3.5 0 1 0 -1.547 6.827z"/><path d="m122.73 172.467c-4-2.2-7.4 3.87-3.4 6.118 12.46 6.929 23.568 18.813 23.678 18.932.69.743 3.26 1.675 4.946.184a3.47 3.47 0 0 0 .186-4.945c-.484-.519-11.956-12.808-25.41-20.289z"/><path d="m147.952 223.556a3.488 3.488 0 0 0 .186-4.945c-.482-.519-11.954-12.808-25.409-20.289a3.5 3.5 0 0 0 -3.4 6.118c12.46 6.928 23.568 18.813 23.678 18.932.693.743 3.308 1.675 4.945.184z"/><path d="m331.105 110.81a165.877 165.877 0 0 0 -17.241-7.434 3.5 3.5 0 1 0 -2.381 6.584c4.83 1.768 9.684 3.8 14.539 6.15v178.713c-56.72-25.189-111-16.435-153 .142v-178.8c2.356-1.052 6.788-2.924 12.884-5.037a3.513 3.513 0 1 0 -2.285-6.643c-5.667 1.964-9.958 3.737-12.605 4.9-24.384-36.931-60.052-64.058-126.009-70.285a3.485 3.485 0 0 0 -3.753 3.492v56c-5.922 1.636-20.582 6.013-32.444 12.261a3.472 3.472 0 0 0 -1.832 3.078v215.847a3.585 3.585 0 0 0 4.456 3.491c86.527-24.219 145.254-3.147 158.065-.1 12.952-2.916 72.478-24.2 159.067.1 2.867.533 4.456-.931 4.456-3.469v-215.868a3.49 3.49 0 0 0 -1.917-3.122zm-317.127 5.264a174.741 174.741 0 0 1 27.276-10.2v122.84a3.5 3.5 0 0 0 3.249 3.491c61.3 6.276 90.942 27.763 116.473 60.7-43.463-15.263-90.383-22.42-147 1.919zm152.044 208.926c-44.022-12.282-88.592-15.48-152.044.306v-7.487c67.98-29.651 141.1-4.207 152.044-.072zm0-14.728c-40.945-14.009-97.511-22.174-152.044-.067v-7.657c54.679-26.458 113.444-16.715 152.044.048zm0-22.4c-4.548-6.352-36.4-56.489-117.768-62.391v-179.095c59.8 5.692 98.087 35.323 117.768 68.407zm160 37.433c-49.289-15.351-120.8-11.327-153-.288v-7.189c10.3-3.885 84.571-29.854 153-.01zm0-15.1c-54.437-22.179-112.194-13.839-153 .153v-7.749c12.5-5.553 83.087-33.867 153-.061z"/><path d="m295.939 27.511a36 36 0 0 0 -8.55.069c-14.882-27.9-57.851-27.952-72.833-.118-43.056-4.232-54.056 60.506-13.678 70.05a9.856 9.856 0 0 1 8.105 9.615v45.859a15.267 15.267 0 0 0 15.25 15.25h53.407a15.267 15.267 0 0 0 15.25-15.25v-45.743a9.829 9.829 0 0 1 7.631-9.514c36.909-10.615 34.979-64.977-4.582-70.218zm-18.3 133.725h-53.406c-5.924-.04-8.935-5.365-8.25-10.81 5.224 1.513 15.893 3.549 35.532 3.549 18.992 0 29.334-.565 34.374-.98a8.259 8.259 0 0 1 -8.249 8.241zm21.244-70.312c-.124.028-9.369 2.165-23.661 1.529a3.5 3.5 0 1 0 -.313 6.993 122.958 122.958 0 0 0 12.975-.1c-3.818 4.546-1.332 40.747-2 46.617-2.258.2-5.948.448-11.528.651v-24.323a3.5 3.5 0 0 0 -7 0v24.527c-3.588.078-7.718.132-12.436.15v-24.677a3.5 3.5 0 0 0 -7 0v24.657c-4.74-.067-8.866-.26-12.437-.532v-24.125a3.5 3.5 0 1 0 -7 0v23.42a59.512 59.512 0 0 1 -12.506-2.656v-35.928a17 17 0 0 0 -13.705-16.474c-14.426-2.946-19.572-16.377-19.572-27.964a28.4 28.4 0 0 1 29.278-28.361c-.235 2.667-3.133 11.954 2.666 12.274a3.5 3.5 0 0 0 3.5-3.533 29.6 29.6 0 0 1 1.525-10.339c12.009-25.586 50.8-25.471 62.632.206a27.8 27.8 0 0 1 1.518 10.133 3.5 3.5 0 0 0 3.5 3.533c5.818-.3 2.869-9.637 2.667-12.229 35.22-1.273 41.096 46.553 8.898 56.551z"/></g></svg>