<svg id="icon" height="512" viewBox="0 0 340 340" width="512" xmlns="http://www.w3.org/2000/svg"><path d="m169.978 302.953s14.816-33.713 63.366-39.6 65.947-12.048 73.266-25.627c0 0-.3 33.629-22.683 39.162z" fill="#d3def4"/><path d="m40.021 245.628s-1.576-19.544 16.794-27.247c0 0-13.142 38.473 32.229 40.294 0 0-35.793 12.225-49.023-13.047z" fill="#3c3c4f"/><path d="m40.021 245.628s6.229 12.706 31.393 11.71 82.52 1.536 98.564 45.615l-103.049-25.185s-26.409-4.983-26.908-32.14z" fill="#d3def4"/><path d="m9.978 309.206h320a0 0 0 0 1 0 0v5.557a8.641 8.641 0 0 1 -8.641 8.641h-302.718a8.641 8.641 0 0 1 -8.641-8.641v-5.557a0 0 0 0 1 0 0z" fill="#e28683"/><path d="m312.071 275.293s-99.732-9.865-142.093 27.66c-42.361-37.525-142.094-27.66-142.094-27.66 3.348 23.432-9.513 33.913-9.513 33.913h303.214s-12.861-10.481-9.514-33.913z" fill="#fff"/><path d="m298.494 16.6h-254.173a12.636 12.636 0 0 0 -12.635 12.631v123.608a12.635 12.635 0 0 0 12.635 12.636h26.021l34.658 33.588v-33.588h193.494a12.636 12.636 0 0 0 12.636-12.636v-123.608a12.636 12.636 0 0 0 -12.636-12.631z" fill="#ffbe71"/><g fill="#3c3c4f"><circle cx="265.509" cy="293.141" r="3.721"/><path d="m245.349 193.663 5.076 25.046a2.273 2.273 0 0 0 3.517 1.42l16.527-11.395a2.273 2.273 0 0 0 -.076-3.792l-21.6-13.651a2.272 2.272 0 0 0 -3.444 2.372z"/><path d="m248.083 123.452c-.084 4.891-7.36 4.89-7.443 0 .084-4.892 7.36-4.891 7.443 0z"/><path d="m271.443 123.452c-.083 4.891-7.36 4.89-7.443 0 .084-4.892 7.36-4.891 7.443 0z"/><path d="m104.543 61.955h164.687a3.5 3.5 0 0 0 0-7h-164.687c-4.518.011-4.622 6.979 0 7z"/><path d="m76.209 94.289h193.021c4.506-.009 4.632-6.978 0-7h-193.021c-4.509.011-4.632 6.978 0 7z"/><path d="m76.209 126.951h143.67c4.527-.012 4.616-6.978 0-7h-143.67c-4.527.012-4.616 6.979 0 7z"/><path d="m329.978 305.706h-7c-2.581-2.677-9.987-12.1-7.441-29.918a3.5 3.5 0 0 0 -.711-2.655c-2.088-2.3-6.544-1.4-15.438-2.195 10.4-12.554 10.715-32.2 10.724-33.179.13-3.543-4.985-4.876-6.581-1.692-18.749 32.146-103.381 8.716-133.1 59.1-13.431-31.467-61.512-42.857-92.654-41.503-20.723-4.421-21.015-24.1-17.649-34.153a3.524 3.524 0 0 0 -4.667-4.358c-25.842 12.11-22.149 42.405-8.685 55.555-12.168.757-19.767.073-21.646 2.424a3.5 3.5 0 0 0 -.711 2.656c2.55 17.844-4.877 27.263-7.437 29.918h-7a3.5 3.5 0 0 0 -3.5 3.5v5.558a12.154 12.154 0 0 0 12.14 12.14h302.715a12.154 12.154 0 0 0 12.141-12.14c-.241-2.992 1.261-8.964-3.5-9.058zm-21.535-16.222c-8.126-.381-16.354-.587-24.515-.59a3.5 3.5 0 1 0 0 7c8.683 0 17.447.232 26.073.669a38.224 38.224 0 0 0 4.193 9.143h-130.413a475.428 475.428 0 0 1 64.506-8.623 3.5 3.5 0 1 0 -.47-6.984 480.183 480.183 0 0 0 -67.022 9.089c39.22-25.236 110.725-21.872 127.4-20.695a51.25 51.25 0 0 0 .248 10.991zm-74.678-22.654c37.849-4.588 57.233-9.367 67.929-17.87-1.6 7.459-5.007 16.731-12.213 21.663-27.137-.507-72.546 1.572-104.675 18.174 9.186-8.965 24.602-19.015 48.959-21.967zm-190.283-22.23c-.038-2.8.438-12.5 8.326-19.152-1.393 8.286 1.446 21.837 9.757 28.006-12.242-1.599-16.907-7.128-18.083-8.854zm28.071 16.236c20.9-.827 67.732.941 88.607 30.737-29.535-17.535-72.986-20.973-102.049-21.018a28.066 28.066 0 0 1 -12.967-15.294c5.31 3.227 13.656 6.069 26.409 5.574zm85.891 37.278c-44.188-10.466-110.995-8.609-126.025-8.031a50.75 50.75 0 0 0 .344-11.59c16.437-1.168 86.116-4.46 125.681 19.62zm-127.682-.957c9.3-.382 84.242-3.014 129.215 8.55h-133.211a38.2 38.2 0 0 0 3.996-8.551zm296.716 17.608a5.146 5.146 0 0 1 -5.141 5.14h-302.719c-3.908-.036-5.621-3.638-5.14-7.2h313z"/><path d="m44.322 168.975h24.6l33.64 32.6a3.5 3.5 0 0 0 5.935-2.513v-30.087h190a16.154 16.154 0 0 0 16.133-16.135v-123.609a16.153 16.153 0 0 0 -16.136-16.131h-254.172a16.153 16.153 0 0 0 -16.136 16.131v123.609a16.154 16.154 0 0 0 16.136 16.135zm-9.136-139.744a9.146 9.146 0 0 1 9.136-9.131h254.172a9.146 9.146 0 0 1 9.136 9.135v123.605a9.146 9.146 0 0 1 -9.136 9.135h-193.494a3.5 3.5 0 0 0 -3.5 3.5v25.325l-28.722-27.839a3.5 3.5 0 0 0 -2.436-.986h-26.02a9.146 9.146 0 0 1 -9.136-9.135z"/><path d="m276.8 206.71a3.5 3.5 0 0 0 -1.63-2.889l-29.01-18.332a3.524 3.524 0 0 0 -5.3 3.655l6.817 33.633a3.5 3.5 0 0 0 5.417 2.187l8.216-5.664 4.425 6.419a3.5 3.5 0 1 0 5.763-3.973l-4.425-6.42 8.215-5.664a3.5 3.5 0 0 0 1.512-2.952zm-27.45-10.926 17.6 11.123-13.466 9.284z"/></g></svg>