<svg id="Capa_1" enable-background="new 0 0 512 512" height="512" viewBox="0 0 512 512" width="512" xmlns="http://www.w3.org/2000/svg"><g><g><path d="m479.5 473.438h-447c-13.807 0-25-11.193-25-25v-384.876c0-13.807 11.193-25 25-25h447c13.807 0 25 11.193 25 25v384.875c0 13.808-11.193 25.001-25 25.001z" fill="#b2e5fb"/></g><g><path d="m468.098 38.562h-43.682c20.104 0 36.401 16.298 36.401 36.401v362.073c0 20.104-16.297 36.401-36.401 36.401h43.682c20.104 0 36.401-16.297 36.401-36.401v-362.072c.001-20.104-16.297-36.402-36.401-36.402z" fill="#91dafa"/></g><g><path d="m7.5 370.692v66.344c0 20.104 16.298 36.401 36.401 36.401h250.153l-194.65-194.65z" fill="#f8e883"/></g><g><path d="m99.404 278.788-21.841 21.841 172.809 172.809h43.682z" fill="#ffd549"/></g><g><path d="m504.5 437.036v-119.654l-125.997-125.997-282.052 282.053h371.647c20.104 0 36.402-16.298 36.402-36.402z" fill="#ea7b45"/></g><g><path d="m378.503 191.385-21.841 21.841 104.156 104.156v119.654c0 20.104-16.297 36.401-36.401 36.401h43.682c20.104 0 36.401-16.297 36.401-36.401v-119.654z" fill="#e76833"/></g><g><circle cx="203.531" cy="172.072" fill="#f8e883" r="54.056"/></g><g><path d="m203.531 118.016c-7.775 0-15.16 1.654-21.841 4.61 18.971 8.392 32.215 27.367 32.215 49.446s-13.244 41.054-32.215 49.446c6.681 2.955 14.066 4.61 21.841 4.61 29.854 0 54.056-24.202 54.056-54.056s-24.202-54.056-54.056-54.056z" fill="#ffd549"/></g><g><path d="m265.087 172.072c0-33.942-27.614-61.556-61.556-61.556s-61.556 27.614-61.556 61.556 27.614 61.556 61.556 61.556 61.556-27.614 61.556-61.556zm-108.112 0c0-25.671 20.885-46.556 46.556-46.556s46.556 20.885 46.556 46.556-20.885 46.556-46.556 46.556-46.556-20.885-46.556-46.556z"/><path d="m512 63.562c0-17.92-14.58-32.5-32.5-32.5h-365.591c-4.142 0-7.5 3.358-7.5 7.5s3.358 7.5 7.5 7.5h365.591c9.649 0 17.5 7.851 17.5 17.5v235.713l-113.193-113.194c-1.406-1.407-3.314-2.197-5.303-2.197s-3.897.79-5.303 2.197l-177.949 177.948-90.545-90.545c-2.929-2.929-7.678-2.929-10.606 0l-79.101 79.101v-289.023c0-9.649 7.851-17.5 17.5-17.5h51.409c4.142 0 7.5-3.358 7.5-7.5s-3.358-7.5-7.5-7.5h-51.409c-17.92 0-32.5 14.58-32.5 32.5v384.875c0 17.92 14.58 32.5 32.5 32.5h294.163c4.142 0 7.5-3.358 7.5-7.5s-3.358-7.5-7.5-7.5h-212.106l263.946-263.946 118.497 118.497v127.949c0 9.649-7.851 17.5-17.5 17.5h-122.837c-4.142 0-7.5 3.358-7.5 7.5s3.358 7.5 7.5 7.5h122.837c17.92 0 32.5-14.58 32.5-32.5zm-479.5 402.376c-9.649 0-17.5-7.851-17.5-17.5v-74.639l84.404-84.404 85.242 85.242-91.302 91.302h-60.844z"/></g></g></svg>