<svg height="512" viewBox="0 0 64 64" width="512" xmlns="http://www.w3.org/2000/svg"><g id="Fill_Outline" data-name="Fill Outline"><g id="Color"><path d="m3 3h44v58h-44z" fill="#e9f1f2"/><path d="m47 47v14h-44v-58h17v26a18 18 0 0 0 18 18z" fill="#d0d8da"/><path d="m23.609 7 5.613 18.444 13.778-3.444v-15z" fill="#ade8f4"/><path d="m19.609 7h-12.609v24l18.505-4.626z" fill="#ade8f4"/><path d="m43 27v30h-36v-21z" fill="#ade8f4"/><path d="m20 8.28v19.47l-13 3.25v-24h12.61z" fill="#48cae4"/><path d="m43 47v10h-36v-21l13.38-3.34a17.993 17.993 0 0 0 17.62 14.34z" fill="#48cae4"/><g fill="#ffea00"><path d="m38.2 20.12a3.835 3.835 0 0 0 1.18 2.78l-10.16 2.54-3.73-12.25a3.814 3.814 0 0 0 3.51-2.83 3.848 3.848 0 0 0 6.29 1.85 4.01 4.01 0 0 0 -.18 1.17 3.845 3.845 0 0 0 4.48 3.78 3.839 3.839 0 0 0 -1.39 2.96z"/><path d="m13.09 29.48a3.84 3.84 0 0 0 -3.08-5.3 3.846 3.846 0 0 0 .93-6.49 3.56 3.56 0 0 0 .65.05 3.851 3.851 0 0 0 3.65-5 3.775 3.775 0 0 0 2.56.99 3.87 3.87 0 0 0 3.3-1.83l4.41 14.47z"/><path d="m43 40.5v16.5h-18l-4.75-5.09 8.75-1.91-10-11 12 4-3-7 9 5 1-8z"/><path d="m16.911 43.816-4.65 3.484a4 4 0 1 0 -5.261 1.145v8.555h7v-5.143l5.033-5.752a1.569 1.569 0 0 0 -.071-2.143 1.57 1.57 0 0 0 -2.051-.146z"/></g><path d="m14 54.98v2.02h-7v-8.55a4 4 0 0 1 2.92-7.35 1.043 1.043 0 0 1 .25.08 3.985 3.985 0 0 0 -.83 7.27v1.55a5 5 0 0 0 4.66 4.98z" fill="#ffd000"/><path d="m34.92 23.63a2.433 2.433 0 0 0 .03.38l-5.73 1.43-2-6.55a2.553 2.553 0 0 0 1.6-1.73 2.548 2.548 0 0 0 4.17 1.22 2.69 2.69 0 0 0 -.12.78 2.544 2.544 0 0 0 2.97 2.5 2.572 2.572 0 0 0 -.92 1.97z" fill="#ff7373"/><path d="m20 13.05v14.7l-6.91 1.73a3.84 3.84 0 0 0 -3.08-5.3 3.846 3.846 0 0 0 .93-6.49 3.56 3.56 0 0 0 .65.05 3.851 3.851 0 0 0 3.65-5 3.775 3.775 0 0 0 2.56.99 3.939 3.939 0 0 0 2.2-.68z" fill="#ffd000"/><path d="m43 47v10h-18l-4.75-5.09 8.75-1.91-10-11 5.42 1.81a17.961 17.961 0 0 0 13.58 6.19z" fill="#ffd000"/><path d="m40 44 3 2v11h-9l-4-3 5-1-4-6 7 4-2-6 4 3z" fill="#ff7373"/><path d="m25.51 26.37-6.32 1.58a2.64 2.64 0 0 0 -2.26-2.09 2.626 2.626 0 0 0 .63-4.43 2.282 2.282 0 0 0 .45.04 2.633 2.633 0 0 0 2.49-3.42 2.546 2.546 0 0 0 1.75.68 2.727 2.727 0 0 0 .89-.15z" fill="#ff7373"/><path d="m43 47v10h-9l-4-3 5-1-4-6 7 4-1.35-4.05c.45.03.9.05 1.35.05h.67l1.33 1v-1z" fill="#ef5350"/><path d="m20 20.53v7.22l-.81.2a2.64 2.64 0 0 0 -2.26-2.09 2.626 2.626 0 0 0 .63-4.43 2.282 2.282 0 0 0 .45.04 2.6 2.6 0 0 0 1.99-.94z" fill="#ef5350"/><path d="m40.517 42.347.601-10.754 7.25 3.381z" fill="#ffd000"/><path d="m57.422 3.095a4 4 0 0 1 4 4v2a0 0 0 0 1 0 0h-8a0 0 0 0 1 0 0v-2a4 4 0 0 1 4-4z" fill="#e9f1f2" transform="matrix(.906 .423 -.423 .906 7.956 -23.697)"/><path d="m36.948 17.049h27v8h-27z" fill="#ff7373" transform="matrix(.423 -.906 .906 .423 10.051 57.874)"/><path d="m45.228 37.923-4.351-2.028-.36 6.452z" fill="#93999a"/><path d="m41.907 36.375 3.321 1.548 3.14-2.949-3.859-1.8c-.831 1.096-1.691 2.169-2.602 3.201z" fill="#ffb700"/><path d="m58.69 3.376c-.1-.047-.2-.07-.308-.107a3.983 3.983 0 0 1 -.054 3.248l-1.268 2.719 2.719 1.264.845-1.813a4 4 0 0 0 -1.934-5.311z" fill="#d0d8da"/><path d="m50.58 23.132 6.48-13.9 2.719 1.268-11.411 24.474-3.86-1.8a55.317 55.317 0 0 0 6.072-10.042z" fill="#ef5350"/><path d="m40.782 37.593-.265 4.754 4.711-4.424-3.321-1.548c-.366.414-.747.815-1.125 1.218z" fill="#656b76"/></g><g id="Outline_copy" fill="#323232" data-name="Outline copy"><path d="m3 23a1 1 0 0 0 -1 1v37a1 1 0 0 0 1 1h44a1 1 0 0 0 1-1v-19.561a1 1 0 1 0 -2 0v18.561h-42v-36a1 1 0 0 0 -1-1z"/><path d="m43 12a1 1 0 0 0 1-1v-4a1 1 0 0 0 -1-1h-19.391a1 1 0 0 0 -.957 1.291l5.614 18.444a1 1 0 0 0 .956.709.974.974 0 0 0 .243-.03l13.778-3.444a1 1 0 0 0 .757-.97v-7a1 1 0 0 0 -2 0v6.219l-2.265.566a2.868 2.868 0 0 1 -.535-1.665 2.827 2.827 0 0 1 1.033-2.194 1 1 0 0 0 -.8-1.752 2.846 2.846 0 0 1 -3.323-2.794 3.009 3.009 0 0 1 .136-.875 1 1 0 0 0 -1.625-1.038 2.848 2.848 0 0 1 -4.656-1.367 1 1 0 0 0 -.965-.74 1 1 0 0 0 -.965.741 2.791 2.791 0 0 1 -1.844 1.945l-1.233-4.046h17.042v3a1 1 0 0 0 1 1zm-9.057 11.229-4.043 1.01-1.479-4.86a3.525 3.525 0 0 0 .394-.325 3.581 3.581 0 0 0 1.46.842 3.545 3.545 0 0 0 1.69.081 3.55 3.55 0 0 0 1.164 1.884 3.5 3.5 0 0 0 .992.592 3.5 3.5 0 0 0 -.178.776zm-4.943-10.753a4.878 4.878 0 0 0 5.149 1.511 4.854 4.854 0 0 0 3.523 4.053 4.827 4.827 0 0 0 -.471 2.08 4.9 4.9 0 0 0 .507 2.168l-1.433.358a1.7 1.7 0 0 1 .216-.226 1 1 0 0 0 -.815-1.746 1.51 1.51 0 0 1 -1.253-.339 1.539 1.539 0 0 1 -.552-1.175 1.689 1.689 0 0 1 .076-.485 1 1 0 0 0 -1.628-1.035 1.548 1.548 0 0 1 -2.532-.739 1 1 0 0 0 -.961-.741 1 1 0 0 0 -.964.732 1.582 1.582 0 0 1 -.11.269l-.972-3.2a4.827 4.827 0 0 0 2.22-1.485z"/><path d="m11 8a1 1 0 0 0 0-2h-4a1 1 0 0 0 -1 1v24a1 1 0 0 0 1.243.97l18.505-4.626a1 1 0 0 0 .713-1.261l-5.9-19.374a1 1 0 0 0 -.952-.709h-4.609a1 1 0 0 0 0 2h3.868l1.124 3.694a2.861 2.861 0 0 1 -2.192 1.036 2.769 2.769 0 0 1 -1.888-.73 1 1 0 0 0 -1.626 1.04 2.853 2.853 0 0 1 -3.167 3.668 1 1 0 0 0 -.819 1.752 2.846 2.846 0 0 1 -.687 4.8 1 1 0 0 0 .273 1.911 2.862 2.862 0 0 1 2.5 2.838 2.734 2.734 0 0 1 -.083.632l-4.303 1.078v-21.719zm8.8 18.77a3.641 3.641 0 0 0 -.983-1.178 3.657 3.657 0 0 0 .485-3.366 3.661 3.661 0 0 0 2.23-2.566 3.637 3.637 0 0 0 .9.062l1.807 5.937zm-7.7-2.889a4.86 4.86 0 0 0 .765-5.316 4.876 4.876 0 0 0 2.616-1.809 4.82 4.82 0 0 0 .9-2.239 4.818 4.818 0 0 0 1.418.213 4.92 4.92 0 0 0 2.84-.909l1.17 3.845a1.523 1.523 0 0 1 -.632-.352 1 1 0 0 0 -1.632 1.036 1.614 1.614 0 0 1 -.241 1.452 1.543 1.543 0 0 1 -1.547.647 1 1 0 0 0 -.83 1.755 1.626 1.626 0 0 1 -.391 2.736 1 1 0 0 0 .269 1.913 1.633 1.633 0 0 1 .923.434l-3.35.838c0-.039.011-.077.011-.115a4.866 4.866 0 0 0 -2.289-4.129z"/><circle cx="10" cy="44" r="1"/><path d="m61.7 5.291a5 5 0 0 0 -9.229-.4l-4.471 9.578v-11.469a1 1 0 0 0 -1-1h-44a1 1 0 0 0 -1 1v17a1 1 0 0 0 2 0v-16h42v14.758l-3.411 7.314-35.832 8.958a1 1 0 0 0 -.757.97v5.008c-.041.031-.085.057-.126.09a4.978 4.978 0 0 0 .126 7.881v8.021a1 1 0 0 0 1 1h36a1 1 0 0 0 1-1v-16.359l4.6-4.006a1 1 0 0 0 .249-.331l4.951-10.612a1 1 0 1 0 -1.813-.845l-4.525 9.7-1.813-.845 10.989-23.56 1.812.846-4.772 10.234a1 1 0 1 0 1.812.845l6.04-12.953a4.963 4.963 0 0 0 .17-3.823zm-5.727-1.108a3 3 0 0 1 3.745 4.086l-.423.906-5.437-2.536.422-.906a2.977 2.977 0 0 1 1.693-1.55zm-14.385 34.25 1.239.578-1.269 1.1zm.04-2.189.039-2.187 2.233 1.043 2.23 1.04-1.65 1.437zm.4-4.228 10.985-23.564 1.812.845-10.988 23.564zm-34.028 4.765 33.5-8.376-1.712 3.672a1.012 1.012 0 0 0 -.094.4l-.022 1.226-.841-1.262a1 1 0 0 0 -1.824.431l-.817 6.531-7.705-4.281a1 1 0 0 0 -1.405 1.268l2.12 4.957-9.888-3.3a1 1 0 0 0 -1.056 1.621l4.844 5.332a1 1 0 1 0 1.479-1.346l-2.269-2.5 8.37 2.789a1 1 0 0 0 1.235-1.342l-1.844-4.301 6.443 3.579a1 1 0 0 0 1.478-.75l.667-5.333.951 1.426-.093 5.111a1 1 0 0 0 .275.7.983.983 0 0 0 -.264.095 1 1 0 0 0 -.528.872v2l-2.4-1.8a1 1 0 0 0 -1.549 1.116l1.173 3.517-4.728-2.7a1 1 0 0 0 -1.328 1.423l3.172 4.758-3.54.706a1 1 0 0 0 -.4 1.78l1.6 1.2h-5.565l-3.255-3.487 7.033-1.536a1 1 0 0 0 .527-1.65l-2.463-2.709a1 1 0 1 0 -1.48 1.346l1.3 1.429-7.059 1.541a1 1 0 0 0 -.518 1.659l3.18 3.407h-7.7v-3.767l4.786-5.47a2.568 2.568 0 0 0 -3.474-3.746l-2.312 1.737a5.209 5.209 0 0 0 -.159-1.039 4.97 4.97 0 0 0 -3.7-3.589 5.146 5.146 0 0 0 -2.141-.018zm0 19.219v-7.555a1 1 0 0 0 -.5-.864 2.994 2.994 0 1 1 4.395-3.37 3 3 0 0 1 -.453 2.516 1 1 0 0 0 1.419 1.373l4.651-3.488a.569.569 0 0 1 .769.83l-5.033 5.758a1 1 0 0 0 -.248.658v4.142zm26.333 0-1.944-1.458 2.811-.562a1 1 0 0 0 .636-1.535l-1.65-2.475 3.322 1.9a1 1 0 0 0 1.445-1.184l-.988-2.963 1.435 1.077a1 1 0 0 0 1.6-.8v-2.132l1 .667v9.465zm7.667-11.868-1.242-.832a1 1 0 0 0 .416-.2l.826-.718z"/></g></g></svg>