<svg id="Capa_1" enable-background="new 0 0 512.004 512.004" height="512" viewBox="0 0 512.004 512.004" width="512" xmlns="http://www.w3.org/2000/svg"><g><g><path d="m231.954 456.408v32.065c0 8.854 7.178 16.032 16.032 16.032h16.032c8.854 0 16.032-7.178 16.032-16.032v-32.065z" fill="#eceaec"/><path d="m411.471 100.538-49.001-57.281c-32.348-24.533-73.423-38.159-117.748-35.401-89.92 5.595-162.188 80.335-164.987 170.386-2.224 71.537 38.188 133.838 97.724 163.502 13.676 6.814 22.43 20.64 22.43 35.919v30.647h112.226v-30.64c0-15.318 8.816-29.132 22.522-35.972 57.922-28.902 97.72-88.706 97.72-157.839 0-30.137-7.559-58.508-20.886-83.321z" fill="#ffefac"/><path d="m334.637 341.698c57.922-28.902 97.72-88.706 97.72-157.839 0-100.047-83.322-180.579-184.352-176.121.102 12.763 9.788 23.285 22.644 24.512 78.478 7.484 137.66 72.662 137.66 151.61 0 57.788-32.143 109.866-83.888 135.91-22.428 11.284-36.925 33.419-36.925 57.769v30.773h24.619v-30.642c0-15.318 8.816-29.133 22.522-35.972z" fill="#ffe077"/><circle cx="256.002" cy="183.859" fill="#fff" r="128.258"/><path d="m231.954 175.843h48.097v200.403h-48.097z" fill="#ffd05b"/><path d="m256.002 175.843h24.048v200.403h-24.048z" fill="#ffaa5a"/><path d="m231.954 376.246h48.097v32.065h-48.097z" fill="#c9c5c9"/><path d="m256.002 376.246h24.048v32.065h-24.048z" fill="#b8b2b8"/><path d="m256.002 95.681-21.581 64.743c-1.635 4.903-2.468 10.039-2.468 15.208v.211h48.097v-.21c0-5.17-.834-10.306-2.468-15.211z" fill="#fff4d6"/><path d="m288.067 472.44h-64.129c-13.282 0-24.048-10.767-24.048-24.048v-40.081h112.226v40.081c-.001 13.281-10.768 24.048-24.049 24.048z" fill="#c9c5c9"/><path d="m256.002 95.681-16.032 48.098h32.064z" fill="#a46a5a"/><path d="m288.067 472.44v-64.129h24.048v40.081c0 13.281-10.767 24.048-24.048 24.048z" fill="#b8b2b8"/></g><g><path d="m395.3 75.434c-3.372 2.406-4.155 7.09-1.749 10.461 20.48 28.702 31.306 62.578 31.306 97.963 0 31.98-8.983 63.102-25.979 90-16.543 26.181-39.915 47.319-67.589 61.128-16.453 8.209-26.673 24.564-26.673 42.682v23.142h-17.064v-225.178c0-5.987-.96-11.902-2.853-17.582l-21.58-64.741c-1.021-3.062-3.887-5.128-7.115-5.128s-6.094 2.065-7.115 5.128l-21.58 64.74c-1.893 5.68-2.853 11.595-2.853 17.582v152.519c0 4.142 3.358 7.5 7.5 7.5s7.5-3.358 7.5-7.5v-144.807h33.097v185.403h-33.097v-8.532c0-4.143-3.358-7.5-7.5-7.5s-7.5 3.357-7.5 7.5v40.597h-17.064v-23.147c0-18.126-10.187-34.462-26.586-42.633-28.491-14.195-52.339-36.066-68.969-63.249-17.123-27.991-25.631-60.256-24.604-93.307 2.677-86.131 72.06-157.789 157.957-163.133 47.362-2.949 92.36 13.288 126.707 45.713 3.012 2.844 7.759 2.707 10.602-.305 2.843-3.013 2.707-7.759-.305-10.603-37.401-35.307-86.383-52.982-137.938-49.776-93.543 5.82-169.102 83.848-172.018 177.638-1.118 35.979 8.149 71.112 26.801 101.6 18.1 29.588 44.061 53.396 75.075 68.848 11.272 5.617 18.275 16.809 18.275 29.207v70.728c0 17.396 14.152 31.548 31.548 31.548h.516v8.532c0 12.976 10.557 23.532 23.532 23.532h16.032c12.976 0 23.532-10.557 23.532-23.532v-8.532h.516c17.396 0 31.548-14.152 31.548-31.548v-70.722c0-12.394 7.039-23.606 18.371-29.26 30.125-15.032 55.567-38.041 73.573-66.538 18.513-29.3 28.299-63.192 28.299-98.013 0-38.528-11.79-75.416-34.096-106.676-2.404-3.372-7.088-4.155-10.46-1.749zm-153.763 87.36 3.838-11.515h21.253l3.838 11.515c.606 1.819 1.074 3.673 1.416 5.549h-31.762c.344-1.876.811-3.73 1.417-5.549zm14.465-43.395 5.626 16.88h-11.253zm-16.548 264.348h33.097v17.064h-33.097zm65.161 32.064v17.064h-97.226v-17.064zm-32.064 72.661c0 4.705-3.828 8.532-8.532 8.532h-16.032c-4.705 0-8.532-3.828-8.532-8.532v-8.532h33.097v8.532zm15.516-23.532h-64.129c-9.125 0-16.548-7.424-16.548-16.548v-.516h97.226v.516c-.001 9.124-7.424 16.548-16.549 16.548z"/><path d="m55.083 183.859c0-4.142-3.358-7.5-7.5-7.5h-40.081c-4.142 0-7.5 3.358-7.5 7.5 0 4.143 3.358 7.5 7.5 7.5h40.081c4.142 0 7.5-3.357 7.5-7.5z"/><path d="m504.502 176.359h-40.081c-4.142 0-7.5 3.358-7.5 7.5 0 4.143 3.358 7.5 7.5 7.5h40.081c4.142 0 7.5-3.357 7.5-7.5 0-4.142-3.358-7.5-7.5-7.5z"/><path d="m56.089 124.45-23.284-6.017c-4.008-1.036-8.102 1.375-9.138 5.385-1.037 4.01 1.375 8.102 5.385 9.138l23.284 6.017c.629.163 1.26.24 1.882.24 3.337 0 6.382-2.244 7.256-5.625 1.036-4.01-1.375-8.102-5.385-9.138z"/><path d="m482.952 234.763-23.284-6.017c-4.013-1.036-8.102 1.375-9.138 5.385-1.037 4.01 1.375 8.102 5.385 9.138l23.284 6.017c.629.163 1.261.24 1.882.24 3.337 0 6.382-2.244 7.256-5.625 1.037-4.011-1.374-8.102-5.385-9.138z"/><path d="m457.787 139.213c.621 0 1.253-.078 1.882-.24l23.284-6.017c4.01-1.036 6.421-5.128 5.385-9.138-1.036-4.011-5.131-6.423-9.138-5.385l-23.284 6.017c-4.01 1.036-6.421 5.128-5.385 9.138.874 3.381 3.918 5.625 7.256 5.625z"/><path d="m52.336 228.746-23.284 6.017c-4.01 1.037-6.421 5.127-5.385 9.138.874 3.381 3.918 5.625 7.256 5.625.621 0 1.253-.078 1.882-.24l23.284-6.017c4.01-1.037 6.421-5.128 5.385-9.138-1.037-4.011-5.132-6.422-9.138-5.385z"/></g></g></svg>