<svg height="512" viewBox="0 0 512 512" width="512" xmlns="http://www.w3.org/2000/svg"><g id="_72_Dice" data-name="72 Dice"><path d="m215.69 29.62-135.57 78.27a80.63 80.63 0 0 0 -40.31 69.82v156.54a80.63 80.63 0 0 0 40.31 69.82l135.57 78.27a80.63 80.63 0 0 0 80.62 0l135.57-78.27a80.63 80.63 0 0 0 40.31-69.82v-156.54a80.63 80.63 0 0 0 -40.31-69.82l-135.57-78.27a80.63 80.63 0 0 0 -80.62 0z" fill="#f7f5fb"/><path d="m265.4 492.6a80.62 80.62 0 0 1 -49.71-10.25l-135.57-78.28a80.62 80.62 0 0 1 -40.31-69.81v-156.55a80.75 80.75 0 0 1 3.12-22.22c23.72 141.27 106.68 262.45 222.47 337.11z" fill="#e4e3e8"/><g fill="#f17b89"><path d="m342.16 284.08c0 17.41-10.85 38.77-23.88 47.47-12.64 8.44-22.62 1.74-22.62-14.75s10-37.24 22.62-46.59c13.03-9.63 23.88-3.55 23.88 13.87z"/><path d="m342.16 398.91c0 17.41-10.85 38.78-23.88 47.48-12.64 8.44-22.62 1.74-22.62-14.75s10-37.24 22.62-46.59c13.03-9.64 23.88-3.55 23.88 13.86z"/><path d="m448.16 215.49c0 17.41-10.85 38.78-23.88 47.48-12.64 8.44-22.62 1.73-22.62-14.76s10-37.23 22.62-46.58c13.03-9.63 23.88-3.55 23.88 13.86z"/><path d="m448.16 330.33c0 17.41-10.85 38.77-23.88 47.47-12.64 8.45-22.62 1.74-22.62-14.75s10-37.24 22.62-46.59c13.03-9.63 23.88-3.55 23.88 13.87z"/></g><path d="m112.73 362.73c0-17.42-10.86-38.78-23.88-47.48-12.64-8.44-22.62-1.74-22.62 14.75s10 37.24 22.62 46.59c13.02 9.63 23.88 3.55 23.88-13.86z" fill="#3f4449"/><path d="m209.64 316.78c0-17.41-10.86-38.78-23.88-47.48-12.64-8.44-22.62-1.73-22.62 14.76s10 37.23 22.62 46.58c13.02 9.64 23.88 3.55 23.88-13.86z" fill="#4a5058"/><circle cx="256" cy="124.87" fill="#4a5058" r="31.59"/><path d="m39.81 260.7a6 6 0 0 1 -6-6v-7.79a6 6 0 0 1 12 0v7.79a6 6 0 0 1 -6 6z"/><path d="m256 499.15a86.35 86.35 0 0 1 -43.27-11.61l-135.61-78.28a86.85 86.85 0 0 1 -43.31-75v-63.2a6 6 0 0 1 12 0v63.2a74.84 74.84 0 0 0 37.31 64.61l135.57 78.28a74.59 74.59 0 0 0 74.62 0l135.57-78.28a74.84 74.84 0 0 0 37.31-64.61v-156.55a74.56 74.56 0 0 0 -37.31-64.63l-135.57-78.27a74.86 74.86 0 0 0 -74.62 0l-135.57 78.27a74.84 74.84 0 0 0 -37.31 64.63v52.84a6 6 0 0 1 -12 0v-52.84a86.88 86.88 0 0 1 43.31-75l135.57-78.29a86.88 86.88 0 0 1 86.62 0l135.57 78.27a86.61 86.61 0 0 1 43.31 75v156.57a86.85 86.85 0 0 1 -43.31 75l-135.57 78.28a87 87 0 0 1 -38.79 11.46q-2.28.15-4.52.15z"/><path d="m308.05 341.21a16.58 16.58 0 0 1 -7.85-1.92c-6.79-3.63-10.54-11.62-10.54-22.49 0-18.44 11-41 25-51.41 10.78-8 18.8-5.93 22.62-4 4.05 2 10.83 7.7 10.83 22.68 0 19.48-11.66 42.53-26.55 52.47-5.25 3.54-9.82 4.67-13.51 4.67zm21.81-69.55c-2.19 0-5 1.17-8 3.38-11.13 8.23-20.19 27-20.19 41.76 0 6 1.61 10.52 4.2 11.91 2.07 1.11 5.39.33 9.09-2.15 11.5-7.68 21.21-27.13 21.21-42.49 0-6.06-1.62-10.65-4.23-12a4.57 4.57 0 0 0 -2.08-.41z"/><path d="m308.05 456.05a16.7 16.7 0 0 1 -7.85-1.92c-6.79-3.64-10.54-11.62-10.54-22.49 0-18.44 11-41 25-51.41 10.78-8 18.8-5.93 22.62-4 4.05 2 10.83 7.7 10.83 22.69 0 19.48-11.66 42.52-26.55 52.47-5.25 3.53-9.82 4.66-13.51 4.66zm21.81-69.56c-2.19 0-5 1.18-8 3.38-11.13 8.24-20.19 27-20.19 41.77 0 6 1.61 10.52 4.2 11.9 2.07 1.11 5.39.33 9.09-2.14 11.5-7.68 21.21-27.14 21.21-42.49 0-6.07-1.62-10.66-4.23-12a4.57 4.57 0 0 0 -2.08-.42z"/><path d="m414.05 272.63a16.54 16.54 0 0 1 -7.85-1.93c-6.8-3.63-10.54-11.61-10.54-22.49 0-18.43 11-41 25-51.41 10.78-8 18.8-5.92 22.62-4 4 2 10.83 7.7 10.83 22.69.05 19.51-11.61 42.51-26.5 52.51-5.3 3.5-9.88 4.63-13.56 4.63zm21.81-69.56c-2.19 0-5 1.18-8 3.38-11.13 8.23-20.19 27-20.19 41.76 0 6 1.61 10.53 4.19 11.91 2.08 1.11 5.39.33 9.1-2.14 11.5-7.68 21.21-27.14 21.21-42.49 0-6.07-1.62-10.66-4.24-12a4.5 4.5 0 0 0 -2.07-.42z"/><path d="m414.05 387.46a16.55 16.55 0 0 1 -7.85-1.92c-6.8-3.63-10.54-11.62-10.54-22.49 0-18.44 11-41 25-51.41 10.78-8 18.8-5.93 22.62-4 4 2 10.83 7.7 10.83 22.69 0 19.47-11.66 42.52-26.55 52.46-5.25 3.54-9.83 4.67-13.51 4.67zm21.81-69.55c-2.19 0-5 1.17-8 3.38-11.13 8.23-20.19 27-20.19 41.76 0 6 1.61 10.53 4.19 11.91 2.08 1.11 5.39.33 9.1-2.15 11.5-7.68 21.21-27.13 21.21-42.48 0-6.07-1.62-10.66-4.24-12a4.49 4.49 0 0 0 -2.07-.42z"/><path d="m100.37 387.16c-4 0-9.14-1.35-15.09-5.75-14-10.39-25.05-33-25.05-51.41 0-10.87 3.74-18.86 10.54-22.49 3.58-1.92 11.14-4.11 21.41 2.75 14.89 9.94 26.55 33 26.55 52.47 0 15-6.79 20.65-10.83 22.68a16.62 16.62 0 0 1 -7.53 1.75zm-21.78-69.56a4.57 4.57 0 0 0 -2.17.49c-2.58 1.39-4.19 6-4.19 11.91 0 14.8 9.06 33.53 20.19 41.76 4 3 7.8 4.09 10.07 2.94 2.62-1.32 4.24-5.91 4.24-12 0-15.35-9.72-34.81-21.22-42.49a13.24 13.24 0 0 0 -6.92-2.61z"/><path d="m197.28 341.22c-4 0-9.14-1.35-15.09-5.75-14.05-10.39-25.05-33-25.05-51.41 0-10.88 3.74-18.86 10.53-22.49 3.59-1.92 11.15-4.12 21.42 2.74 14.89 9.95 26.55 33 26.55 52.47 0 15-6.79 20.65-10.84 22.69a16.67 16.67 0 0 1 -7.52 1.75zm-21.78-69.57a4.57 4.57 0 0 0 -2.17.5c-2.58 1.38-4.19 5.94-4.19 11.91 0 14.79 9.06 33.53 20.19 41.76 4 3 7.8 4.08 10.07 2.93 2.61-1.31 4.24-5.9 4.24-12 0-15.35-9.72-34.81-21.22-42.49-2.59-1.7-5-2.61-6.92-2.61z"/><path d="m256 162.46a37.59 37.59 0 1 1 37.59-37.59 37.63 37.63 0 0 1 -37.59 37.59zm0-63.18a25.59 25.59 0 1 0 25.59 25.59 25.62 25.62 0 0 0 -25.59-25.59z"/><path d="m260.21 499a6 6 0 0 1 -6-6v-229.72a6 6 0 0 1 12 0v229.72a6 6 0 0 1 -6 6z"/><path d="m260.48 266.41a40.07 40.07 0 0 1 -21.42-6.16l-185.06-116.72a6 6 0 0 1 6.4-10.15l185 116.72a28.27 28.27 0 0 0 30 0l185-116.72a6 6 0 1 1 6.4 10.15l-185 116.72a40.07 40.07 0 0 1 -21.32 6.16z"/></g></svg>